<svg width="131" height="40" viewBox="0 0 131 40" fill="none" xmlns="http://www.w3.org/2000/svg">
<path d="M50.1859 16.4123C51.5319 14.1604 54.3392 12.9772 57.2619 12.9772C62.8382 12.9772 67.4145 16.9848 67.4145 23.3588C67.4145 29.7329 62.7228 33.7787 57.185 33.7787C54.3777 33.7787 51.4934 32.5573 50.1474 30.2672V31.6031C50.1474 32.1194 49.9408 32.6145 49.573 32.9795C49.2052 33.3446 48.7063 33.5497 48.1862 33.5497C47.666 33.5497 47.1671 33.3446 46.7993 32.9795C46.4315 32.6145 46.2249 32.1194 46.2249 31.6031V8.09167C46.2166 7.57596 46.4141 7.07792 46.7743 6.70613C47.1345 6.33434 47.6282 6.11896 48.1477 6.10693C48.6771 6.10994 49.184 6.32001 49.5584 6.69157C49.9328 7.06313 50.1444 7.56621 50.1474 8.09167V16.4123H50.1859ZM56.8774 30.0001C60.4923 30.0001 63.3765 27.252 63.3765 23.3207C63.3765 19.3894 60.4923 16.794 56.8774 16.794C53.647 16.794 50.1859 19.0459 50.1859 23.3207C50.1859 27.5955 53.3009 30.0001 56.8774 30.0001Z" fill="white"/>
<path d="M87.0272 30.3055C85.6812 32.5574 82.7585 33.8169 79.9512 33.8169C74.4518 33.8169 69.7217 29.6948 69.7217 23.3971C69.7217 17.023 74.4134 13.0154 79.9512 13.0154C82.7585 13.0154 85.6812 14.1604 87.0272 16.4505V15.2291C87.0189 14.7134 87.2164 14.2154 87.5766 13.8436C87.9368 13.4718 88.4305 13.2564 88.95 13.2444C89.4795 13.2474 89.9863 13.4575 90.3607 13.829C90.7351 14.2006 90.9467 14.7037 90.9498 15.2291V31.6795C90.9498 32.1958 90.7431 32.6909 90.3753 33.0559C90.0075 33.421 89.5086 33.6261 88.9885 33.6261C88.4683 33.6261 87.9695 33.421 87.6016 33.0559C87.2338 32.6909 87.0272 32.1958 87.0272 31.6795V30.3055ZM80.3357 16.794C76.7208 16.794 73.7981 19.3513 73.7981 23.3207C73.7981 27.2902 76.7208 30.0001 80.3357 30.0001C83.9506 30.0001 87.0272 27.5574 87.0272 23.3207C87.0272 19.0841 83.5661 16.794 80.3357 16.794Z" fill="white"/>
<path d="M101.564 30.3818C103.603 30.3818 105.102 29.3131 105.102 27.7482C105.102 26.2978 103.949 25.5726 102.449 25.2291L99.68 24.5803C96.2958 23.6642 94.2576 22.023 94.2576 18.8551C94.2576 15.5726 97.2188 13.0154 101.295 13.0154C103.91 13.0154 106.448 13.9696 107.641 16.2597C107.785 16.5444 107.863 16.8572 107.871 17.1757C107.871 18.4734 106.641 18.9314 106.025 18.9314C105.41 18.9314 105.025 18.6261 104.602 18.0917C103.679 16.9085 102.68 16.4123 101.411 16.4123C99.5262 16.4123 98.2571 17.5192 98.2571 19.0077C98.2571 20.3055 99.4877 21.0306 100.795 21.2978L103.756 22.023C107.948 23.0535 108.987 25.5726 108.987 27.8245C108.987 31.5268 105.372 33.8169 101.18 33.8169C98.0648 33.8169 94.8729 32.0993 93.95 29.0459C93.9078 28.8447 93.8821 28.6405 93.873 28.4352C93.873 27.4047 94.8729 26.9085 95.7574 26.9085C96.12 26.8976 96.4771 26.9981 96.7799 27.1962C97.0828 27.3943 97.3166 27.6804 97.4495 28.0154C97.9494 29.4658 99.5262 30.3818 101.564 30.3818Z" fill="white"/>
<path d="M129.176 24.8856H114.37C114.832 28.2062 117.485 30.3055 120.869 30.3055C123.292 30.3055 124.6 29.6948 125.984 28.2062C126.715 27.4047 127.83 27.1375 128.599 27.71C129.368 28.2826 129.561 29.4658 128.945 30.1528C127.022 32.6337 123.984 33.8169 120.716 33.8169C114.986 33.8169 110.409 29.6566 110.409 23.3589C110.409 17.0612 114.986 13.0154 120.716 13.0154C126.446 13.0154 130.714 17.023 130.714 23.3589C130.714 23.7638 130.552 24.1521 130.264 24.4384C129.975 24.7248 129.584 24.8856 129.176 24.8856ZM126.869 21.8322C126.407 18.5116 123.984 16.4887 120.754 16.4887C117.447 16.4887 114.87 18.5116 114.37 21.8322H126.869Z" fill="white"/>
<path d="M20.1513 40C31.2806 40 40.3026 31.0457 40.3026 20C40.3026 8.95431 31.2806 0 20.1513 0C9.02205 0 0 8.95431 0 20C0 31.0457 9.02205 40 20.1513 40Z" fill="#EA4235"/>
<path d="M20.1508 33.8167C15.3822 33.8167 11.1904 29.9999 11.1904 25.1908C11.1904 22.2518 12.5749 19.8854 15.1899 18.5114C13.6901 17.061 12.8056 15.6106 12.8056 13.4732C12.8056 11.5347 13.5815 9.6756 14.9626 8.30487C16.3437 6.93413 18.2169 6.16406 20.1701 6.16406C22.1232 6.16406 23.9964 6.93413 25.3775 8.30487C26.7586 9.6756 27.5345 11.5347 27.5345 13.4732C27.5345 15.6106 26.6116 17.061 25.1118 18.5114C27.7268 19.8854 29.1112 22.2518 29.1112 25.1908C29.0728 29.9999 24.9195 33.8167 20.1508 33.8167ZM20.1508 21.1068C19.337 21.1068 18.5414 21.3463 17.8647 21.7951C17.1881 22.2438 16.6606 22.8817 16.3492 23.6279C16.0378 24.3742 15.9563 25.1953 16.115 25.9875C16.2738 26.7797 16.6657 27.5074 17.2412 28.0786C17.8167 28.6497 18.5499 29.0387 19.3481 29.1963C20.1463 29.3539 20.9736 29.273 21.7255 28.9639C22.4774 28.6548 23.1201 28.1313 23.5722 27.4597C24.0244 26.7881 24.2657 25.9985 24.2657 25.1908C24.2647 24.1079 23.8308 23.0698 23.0594 22.3041C22.2879 21.5384 21.2419 21.1078 20.1508 21.1068ZM20.1508 10.687C19.5842 10.6832 19.0292 10.8463 18.5559 11.1556C18.0827 11.4649 17.7125 11.9065 17.4921 12.4247C17.2718 12.9428 17.2112 13.5141 17.318 14.0664C17.4248 14.6187 17.6943 15.1272 18.0922 15.5275C18.4902 15.9279 18.9989 16.2021 19.5539 16.3155C20.1089 16.4289 20.6853 16.3764 21.2103 16.1647C21.7352 15.953 22.1851 15.5915 22.5031 15.1261C22.8211 14.6606 22.9928 14.1119 22.9966 13.5496C22.9992 13.1761 22.9276 12.8059 22.7859 12.4599C22.6443 12.114 22.4354 11.7991 22.1711 11.5333C21.9068 11.2675 21.5924 11.0559 21.2458 10.9107C20.8991 10.7655 20.5271 10.6895 20.1508 10.687Z" fill="white"/>
</svg>
