<?xml version="1.0" encoding="UTF-8" standalone="no"?>
<!DOCTYPE svg PUBLIC "-//W3C//DTD SVG 1.1//EN" "http://www.w3.org/Graphics/SVG/1.1/DTD/svg11.dtd">
<svg width="100%" height="100%" viewBox="0 0 384 384" version="1.1" xmlns="http://www.w3.org/2000/svg" xmlns:xlink="http://www.w3.org/1999/xlink" xml:space="preserve" xmlns:serif="http://www.serif.com/" style="fill-rule:evenodd;clip-rule:evenodd;stroke-linejoin:round;stroke-miterlimit:2;">
    <g id="Logo__AffinityDesigner" transform="matrix(0.893023,0,0,0.831169,-11.6093,0)">
        <rect x="13" y="0" width="430" height="462" style="fill:none;"/>
        <g id="ver1" transform="matrix(1.11979,0,0,1.20312,-32.9115,-21.6562)">
            <path id="RectangleMask" d="M425,29.52C425,23.162 419.838,18 413.48,18L52.52,18C46.162,18 41,23.162 41,29.52L41,390.48C41,396.838 46.162,402 52.52,402L413.48,402C419.838,402 425,396.838 425,390.48L425,29.52Z" style="fill:rgb(27,114,190);"/>
            <clipPath id="_clip1">
                <path id="RectangleMask1" serif:id="RectangleMask" d="M425,29.52C425,23.162 419.838,18 413.48,18L52.52,18C46.162,18 41,23.162 41,29.52L41,390.48C41,396.838 46.162,402 52.52,402L413.48,402C419.838,402 425,396.838 425,390.48L425,29.52Z"/>
            </clipPath>
            <g clip-path="url(#_clip1)">
                <g transform="matrix(1,0,0,1,13,0)">
                    <path d="M191.365,168.116L241.84,255L176,255C164.962,255 156,246.038 156,235C156,231.718 156.792,228.62 158.195,225.888L191.365,168.116Z" style="fill:rgb(85,210,251);"/>
                    <path d="M248.79,259L191.345,160.118L154.679,223.978C152.952,227.341 152,231.06 152,235C152,248.246 162.754,259 176,259C176,259 248.79,259 248.79,259ZM191.365,168.116L241.84,255L176,255C164.962,255 156,246.038 156,235C156,231.718 156.792,228.62 158.195,225.888L191.365,168.116Z" style="fill-opacity:0.3;"/>
                    <path d="M191.365,168.116L241.84,255L176,255C164.962,255 156,246.038 156,235C156,231.718 156.792,228.62 158.195,225.888L191.365,168.116ZM191.385,176.114L234.891,251C234.891,251 176,251 176,251C167.169,251 160,243.831 160,235C160,232.413 160.614,229.968 161.707,227.806C161.713,227.793 191.385,176.114 191.385,176.114L191.385,176.114Z" style="fill:white;fill-opacity:0.3;"/>
                </g>
                <g transform="matrix(1,0,0,1,13,0)">
                    <path d="M199.988,153.098L281,12L430,12L430,255L259.188,255L199.988,153.098Z" style="fill:rgb(85,210,251);"/>
                    <path d="M278.684,8L195.369,153.109L256.886,259L434,259L434,8L278.684,8ZM199.988,153.098L281,12L430,12L430,255L259.188,255L199.988,153.098Z" style="fill-opacity:0.3;"/>
                    <path d="M199.988,153.098L281,12L430,12L430,255L259.188,255L199.988,153.098ZM204.607,153.086L283.316,16C283.316,16 426,16 426,16C426,16 426,251 426,251C426,251 261.49,251 261.49,251L204.607,153.086Z" style="fill:white;fill-opacity:0.3;"/>
                </g>
                <path d="M443,271L155,271L237,415L443,415L443,271Z" style="fill:rgb(85,210,251);"/>
                <path d="M447,419L447,267L148.119,267L234.675,419L447,419ZM443,271L155,271L237,415L443,415L443,271Z" style="fill-opacity:0.3;"/>
                <path d="M443,271L155,271L237,415L443,415L443,271ZM439,275L439,411C439,411 239.325,411 239.325,411C239.325,411 161.881,275 161.881,275L439,275Z" style="fill:white;fill-opacity:0.3;"/>
                <path d="M220,415L29,415L29,339L217,12L277,12L132,262L220,415Z" style="fill:rgb(85,210,251);"/>
                <path d="M25,419L226.915,419L136.619,262.008C150.299,238.423 280.46,14.007 280.46,14.007L283.944,8L214.686,8L25,337.932L25,419ZM220,415L29,415L29,339L217,12L277,12L132,262L220,415Z" style="fill-opacity:0.3;"/>
                <path d="M220,415L29,415L29,339L217,12L277,12L132,262L220,415ZM213.085,411L33,411C33,411 33,340.068 33,340.068C33,340.068 219.314,16 219.314,16C219.314,16 270.056,16 270.056,16C270.056,16 128.54,259.993 128.54,259.993C127.823,261.23 127.82,262.755 128.533,263.994L213.085,411Z" style="fill:white;fill-opacity:0.3;"/>
            </g>
        </g>
    </g>
</svg>
