<?xml version="1.0" encoding="UTF-8" standalone="no"?>
<!DOCTYPE svg PUBLIC "-//W3C//DTD SVG 1.1//EN" "http://www.w3.org/Graphics/SVG/1.1/DTD/svg11.dtd">
<svg width="100%" height="100%" viewBox="0 0 31 31" version="1.1" xmlns="http://www.w3.org/2000/svg" xmlns:xlink="http://www.w3.org/1999/xlink" xml:space="preserve" xmlns:serif="http://www.serif.com/" style="fill-rule:evenodd;clip-rule:evenodd;stroke-linejoin:round;stroke-miterlimit:2;">
    <path d="M15.065,0C14.491,0 13.916,0.044 13.376,0.088C14.179,0.635 14.937,1.246 15.642,1.916L16.217,2.45L15.642,3.025C15.135,3.496 14.66,4.001 14.22,4.536L14.22,4.58C14.141,4.665 14.067,4.754 13.998,4.847C14.353,4.81 14.709,4.795 15.065,4.803C17.752,4.839 20.316,5.933 22.203,7.845C24.09,9.758 25.147,12.337 25.147,15.024C25.147,17.711 24.09,20.29 22.203,22.202C20.316,24.115 17.752,25.208 15.065,25.245C13.18,25.256 11.331,24.732 9.732,23.734C8.965,23.822 8.194,23.867 7.422,23.868C7.065,23.875 6.709,23.86 6.354,23.822C6.396,25.026 6.5,26.228 6.667,27.421C9.14,29.113 12.069,30.012 15.065,30C17.035,30 18.985,29.612 20.805,28.858C22.625,28.104 24.279,26.999 25.672,25.607C27.065,24.214 28.17,22.56 28.923,20.74C29.677,18.92 30.065,16.97 30.065,15C30.065,13.03 29.677,11.08 28.923,9.26C28.17,7.44 27.065,5.786 25.672,4.393C24.279,3.001 22.625,1.896 20.805,1.142C18.985,0.388 17.035,0 15.065,0ZM6.933,2.4C7.959,1.734 9.063,1.196 10.22,0.8C9.842,1.493 9.5,2.204 9.195,2.932C8.452,2.712 7.696,2.535 6.933,2.4ZM6.09,7.854C6.689,7.814 7.259,7.775 7.866,7.775C7.237,8.377 6.699,9.065 6.266,9.82C6.105,9.177 5.986,8.524 5.91,7.866L6.09,7.854ZM5.556,22.931L5.556,23.019L5.421,22.979C4.278,22.882 3.147,22.673 2.044,22.356L1.956,22.312L2,22.222C2.341,21.159 2.757,20.121 3.243,19.116L3.289,19.026L3.377,19.071C4.125,19.497 4.896,19.881 5.688,20.22L5.778,20.264L5.778,20.352C5.635,21.204 5.561,22.067 5.556,22.931ZM5.556,23.817L5.556,23.729L5.465,23.729C4.493,23.628 3.528,23.465 2.577,23.241L2.31,23.197L2.444,23.419C3.315,24.727 4.379,25.895 5.6,26.884L5.778,27.062L5.778,26.75C5.642,25.778 5.568,24.799 5.556,23.817ZM13.998,2.532C13.688,2.844 13.375,3.199 13.065,3.555C13.027,3.599 12.799,3.865 12.531,4.224C11.91,3.928 11.273,3.674 10.642,3.422L10.533,3.379C10.883,2.518 11.299,1.686 11.776,0.888C12.545,1.397 13.287,1.946 13.998,2.532ZM2.889,12.132L2.933,12.22L3.021,12.176C3.721,11.677 4.448,11.217 5.199,10.799L5.287,10.755L5.287,10.665C5.057,9.806 4.894,8.93 4.799,8.046L4.799,7.956L4.711,7.956C3.605,8.158 2.519,8.455 1.466,8.845L1.377,8.889L1.421,8.979C1.773,10.089 2.266,11.149 2.889,12.132ZM2.623,13.642L2.711,13.554L2.764,13.681C3.248,14.359 3.767,15.012 4.32,15.634L4.364,15.679L4.32,15.769C3.832,16.422 3.384,17.105 2.979,17.813L2.935,17.901L2.847,17.857C1.979,17.286 1.148,16.663 0.356,15.991L0.266,15.901L0.356,15.82C1.055,15.038 1.813,14.31 2.623,13.642ZM7.421,23.064L8.887,23.064L8.665,22.886C7.859,22.235 7.168,21.454 6.621,20.575L6.621,20.531L6.444,20.441L6.444,20.575C6.339,21.357 6.279,22.143 6.266,22.932L6.266,23.02L6.354,23.02C6.533,23.02 6.71,23.031 6.888,23.042C7.066,23.053 7.243,23.064 7.421,23.064ZM8.755,4.267C8.501,4.979 8.293,5.706 8.132,6.445C7.36,6.442 6.589,6.485 5.822,6.573C5.771,5.596 5.785,4.616 5.866,3.64C6.842,3.781 7.808,3.991 8.755,4.267ZM9.554,6.397C10.218,5.995 10.918,5.654 11.644,5.376C11.126,5.117 10.591,4.894 10.042,4.71C9.866,5.242 9.688,5.821 9.554,6.397ZM2.49,18.583L2.577,18.583L2.534,18.759C2.134,19.569 1.778,20.401 1.467,21.25L1.379,21.472L1.291,21.25C0.676,19.928 0.271,18.519 0.09,17.073L0.046,16.805L0.268,16.983C0.98,17.556 1.721,18.09 2.49,18.583ZM4.488,4.355C3.595,5.245 2.819,6.245 2.178,7.332C2.927,7.111 3.722,6.936 4.515,6.761L4.515,6.761L4.533,6.757C4.488,5.954 4.488,5.156 4.488,4.355ZM4.933,14.62L4.933,14.886L4.806,14.662C4.469,14.292 4.159,13.869 3.854,13.455L3.854,13.455C3.756,13.323 3.66,13.191 3.563,13.063L3.429,12.973L3.519,12.929C4.071,12.544 4.623,12.202 5.174,11.86L5.174,11.86L5.174,11.86L5.243,11.817L5.465,11.685L5.377,11.953C5.115,12.819 4.965,13.716 4.933,14.62ZM5.065,16.443L5.021,16.177L4.889,16.399C4.489,16.974 4.088,17.598 3.739,18.221L3.693,18.309L3.784,18.353C4.387,18.699 5.034,19.002 5.682,19.306L5.682,19.306L5.738,19.332L5.96,19.42L5.872,19.198C5.47,18.324 5.198,17.396 5.065,16.443ZM2.222,12.791L2.132,12.835C1.406,13.377 0.75,14.006 0.178,14.708L0,14.886L0,14.62C0.034,13.186 0.273,11.764 0.711,10.398L0.801,10.132L0.889,10.354C1.275,11.159 1.705,11.943 2.178,12.701L2.222,12.791Z" style="fill:rgb(67,176,73);"/>
</svg>
