<?xml version="1.0" encoding="UTF-8" standalone="no"?>
<!DOCTYPE svg PUBLIC "-//W3C//DTD SVG 1.1//EN" "http://www.w3.org/Graphics/SVG/1.1/DTD/svg11.dtd">
<svg width="100%" height="100%" viewBox="0 0 33 33" version="1.1" xmlns="http://www.w3.org/2000/svg" xmlns:xlink="http://www.w3.org/1999/xlink" xml:space="preserve" xmlns:serif="http://www.serif.com/" style="fill-rule:evenodd;clip-rule:evenodd;stroke-linejoin:round;stroke-miterlimit:2;">
    <g id="B" transform="matrix(1,0,0,1,-1.09998,1.86568e-05)">
        <path d="M13.4,17.3C13.2,17.1 13,16.9 12.7,16.8C12.4,16.7 12.2,16.6 11.9,16.6C11.6,16.6 11.3,16.7 11.1,16.8C10.8,16.9 10.6,17.1 10.4,17.3C10.2,17.5 10.1,17.7 9.9,18C9.8,18.3 9.7,18.6 9.7,18.9C9.7,19.2 9.8,19.5 9.9,19.8C10,20.1 10.2,20.3 10.4,20.5C10.6,20.7 10.8,20.9 11.1,21C11.4,21.1 11.6,21.2 11.9,21.2C12.2,21.2 12.5,21.1 12.7,21C13,20.9 13.2,20.7 13.4,20.5C13.6,20.3 13.7,20.1 13.9,19.8C14,19.5 14.1,19.3 14.1,19C14.1,18.7 14,18.4 13.9,18.1C13.7,17.7 13.6,17.5 13.4,17.3Z" style="fill-rule:nonzero;"/>
    </g>
    <g id="B1" serif:id="B" transform="matrix(1,0,0,1,9.20002,1.86568e-05)">
        <path d="M13.4,17.3C13.2,17.1 13,16.9 12.7,16.8C12.4,16.7 12.2,16.6 11.9,16.6C11.6,16.6 11.3,16.7 11.1,16.8C10.8,16.9 10.6,17.1 10.4,17.3C10.2,17.5 10.1,17.7 9.9,18C9.8,18.3 9.7,18.6 9.7,18.9C9.7,19.2 9.8,19.5 9.9,19.8C10,20.1 10.2,20.3 10.4,20.5C10.6,20.7 10.8,20.9 11.1,21C11.4,21.1 11.6,21.2 11.9,21.2C12.2,21.2 12.5,21.1 12.7,21C13,20.9 13.2,20.7 13.4,20.5C13.6,20.3 13.7,20.1 13.9,19.8C14,19.5 14.1,19.3 14.1,19C14.1,18.7 14,18.4 13.9,18.1C13.7,17.7 13.6,17.5 13.4,17.3Z" style="fill-rule:nonzero;"/>
    </g>
    <g transform="matrix(1,0,0,1,-1.09998,1.86568e-05)">
        <path d="M30.4,0L3.8,0C3.797,-0 3.793,-0 3.79,-0C2.314,-0 1.1,1.214 1.1,2.69C1.1,2.693 1.1,2.697 1.1,2.7L1.1,29.4C1.1,29.403 1.1,29.407 1.1,29.41C1.1,30.886 2.314,32.1 3.79,32.1C3.793,32.1 3.797,32.1 3.8,32.1L30.4,32.1C30.403,32.1 30.407,32.1 30.41,32.1C31.886,32.1 33.1,30.886 33.1,29.41C33.1,29.407 33.1,29.403 33.1,29.4L33.1,2.7C33.1,2.697 33.1,2.693 33.1,2.69C33.1,1.214 31.886,-0 30.41,-0C30.407,-0 30.403,-0 30.4,0ZM27.4,20.8C27.2,21.4 26.8,22 26.4,22.4C26,22.9 25.5,23.2 24.9,23.5C24.3,23.9 23.7,24 23,24C21.8,24 20.8,23.5 20.1,22.6L20.1,23.7L16.8,23.7L16.8,21.5C16.6,21.8 16.4,22.2 16.1,22.4C15.7,22.9 15.2,23.2 14.6,23.5C14,23.9 13.4,24 12.7,24C11.5,24 10.5,23.5 9.8,22.6L9.8,23.7L6.5,23.7L6.5,8L9.8,8L9.8,15C10.6,14.2 11.6,13.7 12.7,13.7C13.4,13.7 14,13.8 14.6,14.1C15.2,14.4 15.7,14.7 16.1,15.2L16.7,16.1L16.7,8L20,8L20,15C20.8,14.2 21.8,13.7 22.9,13.7C23.6,13.7 24.2,13.8 24.8,14.1C25.4,14.4 25.9,14.7 26.3,15.2C26.7,15.7 27,16.2 27.3,16.8C27.5,17.4 27.6,18.1 27.6,18.8C27.8,19.5 27.7,20.2 27.4,20.8Z" style="fill-rule:nonzero;"/>
    </g>
</svg>
