<?xml version="1.0" encoding="UTF-8"?>
<!--<svg xmlns="http://www.w3.org/2000/svg" xmlns:xlink="http://www.w3.org/1999/xlink" viewBox="0 0 135 32"><use xlink:href="#B"/>-->
<!--  <use xlink:href="#B" x="10.3"/><path d="M30.4 0H3.8a2.69 2.69 0 0 0-2.7 2.7v26.7a2.69 2.69 0 0 0 2.7 2.7h26.6a2.69 2.69 0 0 0 2.7-2.7V2.7A2.69 2.69 0 0 0 30.4 0zm-3 20.8c-.2.6-.6 1.2-1 1.6-.4.5-.9.8-1.5 1.1-.6.4-1.2.5-1.9.5-1.2 0-2.2-.5-2.9-1.4v1.1h-3.3v-2.2c-.2.3-.4.7-.7.9-.4.5-.9.8-1.5 1.1-.6.4-1.2.5-1.9.5-1.2 0-2.2-.5-2.9-1.4v1.1H6.5V8h3.3v7c.8-.8 1.8-1.3 2.9-1.3.7 0 1.3.1 1.9.4s1.1.6 1.5 1.1l.6.9V8H20v7c.8-.8 1.8-1.3 2.9-1.3.7 0 1.3.1 1.9.4s1.1.6 1.5 1.1.7 1 1 1.6c.2.6.3 1.3.3 2 .2.7.1 1.4-.2 2zm15.4 1.9h0l-.4 1.3h-2.9V7.2h3.7v4V13c.9-.8 2-1.3 3.1-1.3 2.9 0 4.7 2.4 4.7 6 0 4.1-2.4 6.5-5 6.5-1.1 0-2.2-.5-3.2-1.5zm4.3-4.9c0-2.1-.6-3.1-1.9-3.1-.7 0-1.3.3-1.9 1v4.7c.6.5 1.2.7 1.8.7 1.1.1 2-.8 2-3.3zm6 1.6V12h3.7v6.9c0 1.7.4 2.1 1.4 2.1.8 0 1.3-.3 2-1.2V12H64v11.9h-3l-.3-1.6h-.1c-1 1.2-2.1 1.9-3.7 1.9-2.7 0-3.8-1.8-3.8-4.8zM66.3 18c0-3.9 2.4-6.2 4.9-6.2 1.3 0 2.1.5 2.9 1.2l-.1-1.8v-4h3.7V24h-3l-.3-1.2h-.1c-.8.8-2 1.4-3.1 1.4-3 0-4.9-2.3-4.9-6.2zm7.7 2.2v-4.8a2.99 2.99 0 0 0-1.9-.7c-1.1 0-2 1-2 3.2 0 2.3.8 3.2 2 3.2.8.1 1.3-.2 1.9-.9zm6.3-11.8c0-1.2.9-1.9 2.1-1.9s2.1.7 2.1 1.9-.9 1.9-2.1 1.9-2.1-.7-2.1-1.9zm.2 3.6h3.7v11.9h-3.7V12zm9.9 10.7h0l-.4 1.2h-2.9V7.2h3.7v4l-.1 1.8c.9-.8 2-1.3 3.1-1.3 2.9 0 4.7 2.4 4.7 6 0 4.1-2.4 6.5-5 6.5-1.1 0-2.2-.5-3.1-1.5zm4.2-4.9c0-2.1-.6-3.1-1.9-3.1-.7 0-1.3.3-1.9 1v4.7c.6.5 1.2.7 1.8.7 1.1.1 2-.8 2-3.3zm5.5 2.8c0-2.5 1.9-3.9 6.6-4.4-.1-1-.6-1.6-1.8-1.6-1 0-1.9.3-3.1 1l-1.3-2.4c1.6-1 3.3-1.6 5.1-1.6 3.1 0 4.8 1.7 4.8 5.4v6.8h-3l-.3-1.2h-.1c-1 .9-2.1 1.5-3.4 1.5-2.2.1-3.5-1.5-3.5-3.5zm6.6-.2v-1.9c-2.4.3-3.1 1-3.1 1.8 0 .7.5 1 1.3 1 .7.1 1.2-.3 1.8-.9zm5.4 2l1.6-2.1c1.1.9 2.2 1.2 3.1 1.2 1 0 1.4-.4 1.4-.9 0-.7-1-1-2.3-1.5-1.7-.6-3.1-1.7-3.1-3.6 0-2.3 1.8-3.8 4.6-3.8 1.8 0 3.2.6 4.3 1.5l-1.6 2.1c-.9-.6-1.8-.9-2.6-.9-.9 0-1.3.3-1.3.9s.7.9 2.2 1.4c1.8.6 3.3 1.7 3.3 3.6 0 2.2-1.7 3.9-5 3.9-1.6 0-3.4-.6-4.6-1.8zm11-4.4c0-3.9 2.8-6.2 5.6-6.2 3.5 0 5.1 2.5 5.1 5.7 0 .7-.1 1.3-.1 1.6h-7c.3 1.6 1.5 2.3 3 2.3.9 0 1.7-.3 2.6-.7l1.2 2.2c-1.2.9-2.9 1.3-4.3 1.3-3.5 0-6.1-2.2-6.1-6.2zm7.6-1.4c0-1.2-.5-2.1-1.9-2.1-1.1 0-1.9.7-2.2 2.1h4.1z"/><defs ><path id="B" d="M13.4 17.3c-.2-.2-.4-.4-.7-.5s-.5-.2-.8-.2-.6.1-.8.2c-.3.1-.5.3-.7.5s-.3.4-.5.7c-.1.3-.2.6-.2.9s.1.6.2.9.3.5.5.7.4.4.7.5.5.2.8.2.6-.1.8-.2c.3-.1.5-.3.7-.5s.3-.4.5-.7c.1-.3.2-.5.2-.8s-.1-.6-.2-.9c-.2-.4-.3-.6-.5-.8z"/></defs></svg>-->

<svg width="144" height="36" xmlns="http://www.w3.org/2000/svg" viewBox="0 0 144 36" title="Budibase" shape-rendering="geometricPrecision" >
  <path d="M48.7 26h-.2l-.3 1.3h-3.1V9h4c0 1.4 0 5.1-.1 6.4 3.8-3.3 8.7-.3 8.5 5.2.1 6-5.1 9.3-8.8 5.4zm4.7-5.4c.2-3.4-2.3-4.4-4.2-2.3v5.2c2.1 1.6 4.2.8 4.2-2.9zM59.8 22.7v-7.8h3.9v7.2c0 1.7.5 2.2 1.5 2.2.9 0 1.4-.4 2.1-1.3v-8.2h3.9v12.4h-3.1l-.3-1.7h-.1c-2.9 3.7-8.3 2.4-7.9-2.8zM73.5 20.8c-.1-5.7 5.1-8.8 8.5-5.5-.2-1.3-.1-5-.1-6.3H86v18.3h-3.3l-.3-1.2h-.1c-3.9 3.6-9.1.5-8.8-5.3zm8.4 2.4V18c-4.8-3.7-5.7 6.3-2 6.3.8 0 1.4-.3 2-1.1zM88.1 11.1c-.1-2.6 4.4-2.6 4.4 0 .1 2.7-4.5 2.7-4.4 0zm.2 3.8h3.9v12.4h-3.9V14.9zM98.8 26h-.2l-.3 1.3h-3.1V9h4c0 1.4 0 5.1-.1 6.4 3.8-3.3 8.7-.3 8.5 5.2 0 6-5.1 9.3-8.8 5.4zm4.6-5.4c.2-3.4-2.3-4.4-4.2-2.3v5.2c2.2 1.6 4.2.8 4.2-2.9zM108.7 23.8c0-2.6 2-4.1 6.9-4.6-.3-2.5-3.3-1.7-5.2-.6l-1.4-2.5c1.6-1 3.4-1.6 5.4-1.6 6.6-.4 4.8 8.4 5 12.7h-3.2l-.3-1.3h.1c-2.6 2.8-7.3 1.9-7.3-2.1zm6.9-.2v-2c-5.5.5-2.9 5 0 2zM121.3 25.7l1.6-2.2c1.3 1.1 4.5 2 4.7.2 0-.8-1.1-1.1-2.4-1.6-5-1.4-4-7.8 1.5-7.6 1.8 0 3.4.7 4.5 1.6l-1.7 2.2c-1.1-.8-3.8-1.6-4 0 0 .7.7 1 2.3 1.5 5.2 1.3 4.2 8-1.8 7.8-1.6 0-3.5-.6-4.7-1.9zM132.7 21.1c.5-9.7 13.1-7.9 11.1 1.2h-7.3c.5 2.8 3.7 2.9 5.8 1.6l1.3 2.3c-4.5 3.1-11 1.1-10.9-5.1zm7.9-1.5c.2-2.8-3.9-2.9-4.2 0h4.2z"/><path class="st0" d="M28.5 17.1c.1.1.2.2.3.4-.1-.1-.2-.2-.3-.4zM26.8 15.9c-.6-.3-1.2-.4-1.8-.4.6 0 1.3.1 1.8.4zM24 15.5c.3 0 .6-.1.9 0-.3-.1-.6-.1-.9 0zM23 15.7c.3-.1.6-.2.9-.2-.3 0-.6.1-.9.2zM29.6 19.1v.2-.2zM29.2 18.1s0 .1.1.1c-.1 0-.1-.1-.1-.1zM25.3 26.9h-.1.1zM29.9 20.1c.1.3.1.7.1 1-.1-.3-.1-.6-.1-1zM24.3 27h-.4.4zM23.7 26.9c-.1 0-.2 0-.3-.1.1.1.2.1.3.1zM24.8 27h-.4.4zM9.7 25.4c.5.7 1.2 1.1 1.9 1.3-.7-.2-1.4-.6-1.9-1.3zM21.4 20.2c-1.2 2.9 3.1 4.9 4.4 1.9 1.3-2.9-3.1-4.9-4.4-1.9zM9.8 20.2c-1.2 2.9 3.1 4.9 4.4 1.9 1.2-2.9-3.1-4.9-4.4-1.9zM28.3 25.4c.6-.5 1-1.2 1.2-1.9-.3.7-.6 1.3-1.1 1.9 0-.1 0 0-.1 0zM23 15.7c-.6.2-1.1.6-1.6 1v.1c.4-.5 1-.8 1.6-1.1zM30 21.2c0 .7-.1 1.3-.3 2 .1-.7.3-1.3.3-2zM21.3 26.6h.1v-1.1l-.1-.1v1.2zM15.1 15.8c-1-.4-2.1-.5-3.2-.3 1.1-.3 2.2-.2 3.2.3zM14.9 26.6c1.2-.4 2.2-1.3 2.8-2.4-.6 1.1-1.7 2-2.8 2.4z"/><path d="M33 0H3C1.3 0 0 1.3 0 3v30c0 1.7 1.3 3 3 3h30c1.7 0 3-1.3 3-3V3c0-1.7-1.3-3-3-3zm-3.4 23.4c-.2.8-.7 1.4-1.2 2-.8.8-1.9 1.4-3 1.5H23.8c-.1 0-.2 0-.3-.1-.8-.2-1.5-.7-2-1.4V26.6h-3.7v-2.4c-.5 1.1-1.6 2-2.8 2.4-1.1.4-2.2.5-3.2.2-.7-.2-1.4-.7-1.9-1.3v1.2H6V8.9h3.7v7.8c.6-.7 1.4-1.1 2.2-1.3 1-.2 2.2-.1 3.2.3.2.1.4.2.5.2.9.5 1.6 1.2 2 2v-9h3.6v7.9l.1-.1c.5-.5 1-.8 1.6-1 .3-.1.6-.2.9-.2h1.1c.6 0 1.2.2 1.8.4.7.3 1.2.7 1.7 1.3.1.1.2.2.3.4.1.2.3.4.4.6 0 0 0 .1.1.1.2.3.3.6.4.9v.2c.1.3.2.6.2.9.1.3.1.7.1 1v.1c0 .7-.1 1.3-.3 2 0-.1 0-.1 0 0z"/><path d="M25.3 19.5c-2.3-2.3-5.6 1.2-3.4 3.5 2.4 2.2 5.6-1.2 3.4-3.5zM13.7 19.5c-2.3-2.3-5.6 1.2-3.4 3.5 2.3 2.2 5.6-1.2 3.4-3.5z"/></svg>
