<?xml version="1.0" encoding="UTF-8" standalone="no"?>
<!DOCTYPE svg PUBLIC "-//W3C//DTD SVG 1.1//EN" "http://www.w3.org/Graphics/SVG/1.1/DTD/svg11.dtd">
<svg width="98px" height="66px" viewBox="0 0 98 66" version="1.1" xmlns="http://www.w3.org/2000/svg" xmlns:xlink="http://www.w3.org/1999/xlink" xml:space="preserve" xmlns:serif="http://www.serif.com/" style="fill-rule:evenodd;clip-rule:evenodd;stroke-linejoin:round;stroke-miterlimit:2;">
    <g transform="matrix(1,0,0,1,-0.193268,-0.440369)">
        <path d="M72.218,38.531C81.7,38.531 89.387,31.485 89.387,22.793C89.387,14.101 81.7,7.054 72.218,7.054C62.735,7.054 55.048,14.101 55.048,22.793C55.048,31.485 62.735,38.531 72.218,38.531Z" style="fill:white;fill-rule:nonzero;"/>
    </g>
    <g transform="matrix(1,0,0,1,-0.193268,-0.440369)">
        <path d="M91.782,10.554C94.829,10.554 97.299,8.29 97.299,5.497C97.299,2.704 94.829,0.44 91.782,0.44C88.736,0.44 86.266,2.704 86.266,5.497C86.266,8.29 88.736,10.554 91.782,10.554Z" style="fill:white;fill-rule:nonzero;"/>
    </g>
    <g transform="matrix(1,0,0,1,-0.193268,-0.440369)">
        <path d="M2.33,2.167C1.134,2.315 0.197,3.269 0.193,4.424L0.269,63.393C0.269,64.286 0.51,66.128 3.023,66.128L25.606,66.038C32.061,66.026 36.385,65.916 38.96,65.59C38.975,65.59 39.006,65.59 39.021,65.59C41.485,65.248 44.096,64.617 46.934,63.696C51.867,62.153 56.243,59.874 60.004,56.83C63.688,53.881 66.542,50.389 68.548,46.461C70.554,42.534 71.565,38.381 71.557,34.075C71.547,28.083 69.734,22.471 66.096,17.423C62.459,12.374 57.493,8.507 51.383,5.947C45.17,3.313 37.07,2.113 27.022,2.131L2.635,2.167C2.53,2.167 2.431,2.155 2.33,2.167ZM15.455,14.301L25.968,14.286C30.881,14.277 34.376,14.426 36.358,14.699C38.368,14.975 40.569,15.557 42.9,16.458C45.211,17.338 47.225,18.416 48.955,19.758C53.717,23.46 55.961,27.841 55.971,33.642C55.982,39.581 53.813,44.207 49.175,48.087C47.748,49.265 46.162,50.263 44.412,51.09C42.757,51.86 40.599,52.524 37.874,53.096C35.305,53.61 31.403,53.903 26.324,53.912L15.506,53.928L15.455,14.301Z" style="fill:white;fill-rule:nonzero;"/>
    </g>
</svg>
