<?xml version="1.0" encoding="UTF-8"?>
<svg width="685" height="87" viewBox="0 0 685 87" fill="black" xmlns="http://www.w3.org/2000/svg"><path d="M84.5571 18.574H16.4092V36.0591H63.5585V52.5029H16.4092V85H0V2.13016H1.86173H16.4092H84.5571V18.574Z"></path><path d="M186.767 18.574H118.619V36.0591H165.768V52.5029H118.619V68.5128H186.767V85H118.619H104.071H102.21V2.13016H118.619H186.767V18.574Z" ></path><path d="M288.89 85H263.475L234.554 60.5295H220.829V85H204.419V2.13016H259.838C265.063 2.13016 269.811 3.44625 274.083 6.07841C278.384 8.71058 281.804 12.2394 284.344 16.6649C286.913 21.0904 288.197 25.9787 288.197 31.3298C288.197 36.681 286.927 41.5693 284.387 45.9948C281.847 50.3914 278.456 53.8913 274.213 56.4945C269.97 59.0978 265.222 60.4428 259.968 60.5295L288.89 85ZM220.829 18.5306V44.1725H259.838C263.129 44.1725 265.943 42.9143 268.281 40.3978C270.619 37.8813 271.788 34.8587 271.788 31.3298C271.788 27.801 270.619 24.7928 268.281 22.3053C265.943 19.7888 263.129 18.5306 259.838 18.5306H220.829Z" ></path><path d="M382.787 2H391.013V84.8698H374.604V32.9786L354.082 68.9033H343.474L322.952 32.9786V84.8698H306.543V2H314.769H324.207L348.756 45.0403L373.348 2H382.787Z" ></path><path d="M492.833 2.13016L459.409 46.8191V85H443V46.5588L408.666 2.13016H429.448L451.226 30.2886L472.311 2.13016H492.833Z" ></path><path d="M541.053 85C546.826 85 552.238 83.9298 557.289 81.7893C562.369 79.62 566.814 76.6407 570.624 72.8515C574.463 69.0624 577.465 64.6658 579.63 59.6618C581.823 54.6289 582.92 49.2633 582.92 43.5651C582.92 37.838 581.823 32.4724 579.63 27.4684C577.465 22.4644 574.463 18.0678 570.624 14.2786C566.814 10.4895 562.369 7.52466 557.289 5.38421C552.238 3.21485 546.826 2.13016 541.053 2.13016C535.28 2.13016 529.854 3.21485 524.774 5.38421C519.722 7.52466 515.277 10.4895 511.438 14.2786C507.628 18.0678 504.626 22.4644 502.433 27.4684C500.268 32.4724 499.186 37.838 499.186 43.5651C499.186 49.2633 500.268 54.6289 502.433 59.6618C504.626 64.6658 507.628 69.0624 511.438 72.8515C515.277 76.6407 519.722 79.62 524.774 81.7893C529.854 83.9298 535.28 85 541.053 85ZM541.053 18.6607C545.671 18.6607 549.885 19.7888 553.695 22.045C557.505 24.2722 560.536 27.2804 562.787 31.0695C565.068 34.8298 566.208 38.9949 566.208 43.5651C566.208 48.1352 565.068 52.3149 562.787 56.104C560.536 59.8643 557.505 62.8725 553.695 65.1286C549.885 67.3558 545.671 68.4694 541.053 68.4694C536.435 68.4694 532.22 67.3558 528.41 65.1286C524.6 62.8725 521.555 59.8643 519.275 56.104C517.024 52.3149 515.898 48.1352 515.898 43.5651C515.898 38.9949 517.024 34.8298 519.275 31.0695C521.555 27.2804 524.6 24.2722 528.41 22.045C532.22 19.7888 536.435 18.6607 541.053 18.6607Z" ></path><path d="M668.591 2.13016H685V85H676.774H666.166L616.939 25.0821V85H600.529V2.13016H619.363L668.591 62.0481V2.13016Z" ></path></svg>
