<?xml version="1.0" encoding="UTF-8" standalone="no"?>
<!DOCTYPE svg PUBLIC "-//W3C//DTD SVG 1.1//EN" "http://www.w3.org/Graphics/SVG/1.1/DTD/svg11.dtd">
<svg width="100%" height="100%" viewBox="0 0 112 41" version="1.1" xmlns="http://www.w3.org/2000/svg" xmlns:xlink="http://www.w3.org/1999/xlink" xml:space="preserve" xmlns:serif="http://www.serif.com/" style="fill-rule:evenodd;clip-rule:evenodd;stroke-linejoin:round;stroke-miterlimit:2;">
    <g transform="matrix(0.0388191,0,0,0.0388192,-4.68158,-0.803557)">
        <g>
            <clipPath id="_clip1">
                <path d="M959.4,500L679.8,779.7L959.4,1059.4L639.9,1059.4L360.2,779.7L639.9,500L959.4,500ZM639.9,20.7L120.6,540L280.4,699.8L959.4,20.7L639.9,20.7Z"/>
            </clipPath>
            <g clip-path="url(#_clip1)">
                <path d="M520,939.5L959.4,500L639.9,500L360.3,779.7L520,939.5Z" style="fill:rgb(57,206,253);fill-rule:nonzero;"/>
            </g>
        </g>
    </g>
    <g transform="matrix(0.0388191,0,0,0.0388192,-4.68158,-0.803557)">
        <clipPath id="_clip2">
            <path d="M959.4,500L679.8,779.7L959.4,1059.4L639.9,1059.4L360.2,779.7L639.9,500L959.4,500ZM639.9,20.7L120.6,540L280.4,699.8L959.4,20.7L639.9,20.7Z"/>
        </clipPath>
        <g clip-path="url(#_clip2)">
            <path d="M120.6,540L639.9,20.7L959.4,20.7L280.4,699.8L120.6,540Z" style="fill:rgb(57,206,253);fill-rule:nonzero;"/>
        </g>
    </g>
    <g transform="matrix(0.0388191,0,0,0.0388192,-4.68158,-0.803557)">
        <clipPath id="_clip3">
            <path d="M959.4,500L679.8,779.7L959.4,1059.4L639.9,1059.4L360.2,779.7L639.9,500L959.4,500ZM639.9,20.7L120.6,540L280.4,699.8L959.4,20.7L639.9,20.7Z"/>
        </clipPath>
        <g clip-path="url(#_clip3)">
            <path d="M639.9,1059.3L959.4,1059.3L679.8,779.7L520,939.5L639.9,1059.3Z" style="fill:rgb(3,86,155);fill-rule:nonzero;"/>
        </g>
    </g>
    <g transform="matrix(0.0388191,0,0,0.0388192,-4.68158,-0.803557)">
        <clipPath id="_clip4">
            <path d="M959.4,500L679.8,779.7L959.4,1059.4L639.9,1059.4L360.2,779.7L639.9,500L959.4,500ZM639.9,20.7L120.6,540L280.4,699.8L959.4,20.7L639.9,20.7Z"/>
        </clipPath>
        <g clip-path="url(#_clip4)">
            <clipPath id="_clip5">
                <path d="M679.8,779.7L520,939.5L757,857.4L679.8,779.7Z" clip-rule="nonzero"/>
            </clipPath>
            <g clip-path="url(#_clip5)">
                <g transform="matrix(25.7605,-0,-0,25.7605,120.6,20.7)">
                </g>
            </g>
        </g>
    </g>
    <g transform="matrix(0.0388191,0,0,0.0388192,-4.68158,-0.803557)">
        <g>
            <clipPath id="_clip6">
                <path d="M959.4,500L679.8,779.7L959.4,1059.4L639.9,1059.4L360.2,779.7L639.9,500L959.4,500ZM639.9,20.7L120.6,540L280.4,699.8L959.4,20.7L639.9,20.7Z"/>
            </clipPath>
            <g clip-path="url(#_clip6)">
                <path d="M360.3,779.6L520.1,619.8L679.9,779.6L520.1,939.5L360.3,779.6Z" style="fill:rgb(22,185,253);fill-rule:nonzero;"/>
            </g>
        </g>
    </g>
    <g transform="matrix(0.0388191,0,0,0.0388192,-4.68158,-0.803557)">
        <path d="M959.4,500L679.8,779.7L959.4,1059.4L639.9,1059.4L360.2,779.7L639.9,500L959.4,500ZM639.9,20.7L120.6,540L280.4,699.8L959.4,20.7L639.9,20.7Z" style="fill:url(#_Radial7);fill-rule:nonzero;"/>
    </g>
    <g transform="matrix(1.03526,0,0,1.03526,-6.06026,-10.001)">
        <path d="M41.1,20.1L51.6,20.1L51.6,22.1L43.3,22.1L43.3,28.3L50.8,28.3L50.8,30.3L43.3,30.3L43.3,38.1L41.2,38.1L41.2,20.1L41.1,20.1Z" style="fill:rgb(128,128,128);fill-rule:nonzero;"/>
    </g>
    <g transform="matrix(1.03526,0,0,1.03526,-6.06026,-10.001)">
        <rect x="54.1" y="20.1" width="2.1" height="18.1" style="fill:rgb(128,128,128);fill-rule:nonzero;"/>
    </g>
    <g transform="matrix(1.03526,0,0,1.03526,-6.06026,-10.001)">
        <path d="M64.1,38.6C62.5,38.6 61.4,38.1 60.5,37.2C59.7,36.3 59.3,35 59.3,33.4L59.3,25.3L61.4,25.3L61.4,33.1C61.4,34.3 61.7,35.2 62.2,35.8C62.8,36.4 63.5,36.7 64.5,36.7C65.2,36.7 65.9,36.5 66.4,36.1C67,35.7 67.4,35.2 67.7,34.6C68,34 68.2,33.3 68.2,32.6L68.2,25.3L70.3,25.3L70.3,38.2L68.3,38.2L68.3,36.3L68.2,36.3C67.8,36.9 67.3,37.5 66.5,37.9C65.8,38.4 65,38.6 64.1,38.6Z" style="fill:rgb(128,128,128);fill-rule:nonzero;"/>
    </g>
    <g transform="matrix(1.03526,0,0,1.03526,-6.06026,-10.001)">
        <path d="M78.7,38.4C78.2,38.4 77.7,38.3 77.2,38.1C76.8,37.9 76.4,37.7 76.1,37.4C75.8,37.1 75.5,36.7 75.3,36.3C75.1,35.9 75,35.4 75,34.8L75,27.2L72.7,27.2L72.7,25.3L75,25.3L75,21.7L77.1,21.7L77.1,25.3L80.2,25.3L80.2,27.2L77.1,27.2L77.1,34.2C77.1,34.9 77.2,35.4 77.5,35.8C77.8,36.2 78.3,36.4 78.9,36.4C79.4,36.4 79.9,36.3 80.3,36L80.3,38.1C80,38.2 79.8,38.3 79.5,38.4L78.7,38.4Z" style="fill:rgb(128,128,128);fill-rule:nonzero;"/>
    </g>
    <g transform="matrix(1.03526,0,0,1.03526,-6.06026,-10.001)">
        <path d="M87.8,38.4C87.3,38.4 86.8,38.3 86.3,38.1C85.9,37.9 85.5,37.7 85.2,37.4C84.9,37.1 84.6,36.7 84.4,36.3C84.2,35.9 84.1,35.4 84.1,34.8L84.1,27.2L82,27.2L82,25.3L84.3,25.3L84.3,21.7L86.4,21.7L86.4,25.3L89.5,25.3L89.5,27.2L86.4,27.2L86.4,34.2C86.4,34.9 86.5,35.4 86.8,35.8C87.1,36.2 87.6,36.4 88.2,36.4C88.7,36.4 89.2,36.3 89.6,36L89.6,38.1C89.3,38.2 89.1,38.3 88.8,38.4L87.8,38.4Z" style="fill:rgb(128,128,128);fill-rule:nonzero;"/>
    </g>
    <g transform="matrix(1.03526,0,0,1.03526,-6.06026,-10.001)">
        <path d="M97.3,38.6C96.1,38.6 95,38.3 94,37.7C93,37.1 92.3,36.3 91.7,35.3C91.2,34.3 90.9,33.1 90.9,31.8C90.9,30.6 91.2,29.4 91.7,28.4C92.2,27.4 93,26.5 93.9,25.9C94.8,25.3 95.9,25 97.2,25C98.5,25 99.6,25.3 100.5,25.9C101.4,26.5 102.1,27.2 102.6,28.2C103.1,29.2 103.4,30.3 103.4,31.6C103.4,31.9 103.4,32.1 103.3,32.3L93,32.3C93.1,33.3 93.3,34.1 93.7,34.8C94.1,35.5 94.7,36 95.3,36.3C96,36.6 96.6,36.8 97.3,36.8C99,36.8 100.2,36 101.1,34.5L102.9,35.4C102.3,36.4 101.6,37.3 100.6,37.9C99.8,38.3 98.7,38.6 97.3,38.6ZM101,30.4C101,29.9 100.8,29.3 100.5,28.8C100.2,28.3 99.8,27.8 99.2,27.4C98.6,27 97.9,26.8 97,26.8C96,26.8 95.1,27.1 94.4,27.8C93.7,28.4 93.3,29.3 93,30.4L101,30.4Z" style="fill:rgb(128,128,128);fill-rule:nonzero;"/>
    </g>
    <g transform="matrix(1.03526,0,0,1.03526,-6.06026,-10.001)">
        <path d="M105.8,25.3L107.8,25.3L107.8,27.4L107.9,27.4C108.2,26.7 108.6,26.1 109.4,25.7C110.1,25.2 110.9,25 111.7,25C112.3,25 112.8,25.1 113.2,25.3L113.2,27.6C112.7,27.3 112.1,27.2 111.4,27.2C110.8,27.2 110.2,27.4 109.7,27.7C109.2,28.1 108.8,28.5 108.4,29.1C108.1,29.7 107.9,30.3 107.9,31L107.9,38.2L105.8,38.2L105.8,25.3Z" style="fill:rgb(128,128,128);fill-rule:nonzero;"/>
    </g>
    <defs>
        <radialGradient id="_Radial7" cx="0" cy="0" r="1" gradientUnits="userSpaceOnUse" gradientTransform="matrix(49.3283,0,0,49.3284,-22789.8,-9321.91)"><stop offset="0" style="stop-color:white;stop-opacity:0.1"/><stop offset="1" style="stop-color:white;stop-opacity:0"/></radialGradient>
    </defs>
</svg>
