<svg id="logo" xmlns="http://www.w3.org/2000/svg" viewBox="0 0 156.88 70.41"><defs><style>.cls-1{fill:none;}.cls-2{fill:#00758f;}.cls-3{fill:#f29111;}</style></defs><title>GraalVM-rgb</title><rect id="Clearspace" class="cls-1" width="156.88" height="70.41"/><path class="cls-2" d="M29.34,43.54c-4.8,0-7.64-3.43-7.64-10.79,0-7.55,3.68-11.45,8.48-11.45A7.46,7.46,0,0,1,36,24.24l-1.5,1.47a6.81,6.81,0,0,0-4.16-1.66c-3.07,0-5.06,2.72-5.06,8.09,0,6.21,1.83,8.61,4.64,8.61a4.53,4.53,0,0,0,2.88-.93V33.71H30V31.15h6.24V41A10.16,10.16,0,0,1,29.34,43.54ZM48.1,30.29a5.59,5.59,0,0,0-1.35-.23c-.93,0-1.79.71-3.36,2.66v10.5H40.1V27.28h2.72L43.1,30c1.73-2.24,2.82-3,4-3a3.1,3.1,0,0,1,1.41.36ZM59.71,43.22l-.26-1.73a7.26,7.26,0,0,1-4.92,2c-3.14,0-4.8-1.6-4.8-4.42,0-3.26,2.53-5.44,8.12-5.44H59V32.24c0-1.92-1-2.85-3.3-2.85a14.1,14.1,0,0,0-4.67.93l-.48-2a14.84,14.84,0,0,1,6-1.31c4,0,5.7,1.92,5.7,4.83v11.4ZM59,35.79H57.63C54,35.79,53,37,53,38.67a2.25,2.25,0,0,0,2.46,2.47A5.76,5.76,0,0,0,59,39.54Zm16.25,7.43L75,41.49a7.3,7.3,0,0,1-4.93,2c-3.14,0-4.8-1.6-4.8-4.42,0-3.26,2.53-5.44,8.13-5.44h1.15V32.24c0-1.92-1-2.85-3.3-2.85a14.1,14.1,0,0,0-4.67.93l-.48-2a14.89,14.89,0,0,1,6-1.31c4,0,5.69,1.92,5.69,4.83v11.4Zm-.7-7.43H73.18c-3.68,0-4.64,1.22-4.64,2.88A2.26,2.26,0,0,0,71,41.14a5.73,5.73,0,0,0,3.55-1.6Zm10,7.65c-2,0-2.91-.58-2.91-3.17V20.53H85V39c0,1.86.23,2.15,1.15,2.15.29,0,.64,0,.87,0l.16,2A8.51,8.51,0,0,1,84.61,43.44Z"/><path class="cls-3" d="M98.69,43.22h-4.1a172.19,172.19,0,0,1-6.21-21.6h3.78c1.12,5.76,2.94,11.87,4.77,18a151.73,151.73,0,0,0,4.28-18h3.43A141.42,141.42,0,0,1,98.69,43.22Zm26.4,0c-.13-6.28-.58-12.77-1-17.22h0l-5.44,17.22h-2.85L110.3,26h0c-.41,4.77-.7,10.94-.8,17.22h-3.29c.19-7,.7-14.56,1.56-21.6h4.55l5.18,15.87h0l5.19-15.87H127c.83,7,1.47,14.59,1.66,21.6Zm6.08-2.2h-.78v-.44h2.13V41h-.78v2.2h-.57Zm1.91-.44H134l.56,1.92.6-1.92h.9v2.64h-.57V41l-.71,2.26h-.47l-.7-2.26v2.26h-.53Z"/></svg>