<?xml version="1.0" encoding="UTF-8" standalone="no"?>
<!DOCTYPE svg PUBLIC "-//W3C//DTD SVG 1.1//EN" "http://www.w3.org/Graphics/SVG/1.1/DTD/svg11.dtd">
<svg width="100%" height="100%" viewBox="0 0 90 89" version="1.1" xmlns="http://www.w3.org/2000/svg" xmlns:xlink="http://www.w3.org/1999/xlink" xml:space="preserve" xmlns:serif="http://www.serif.com/" style="fill-rule:evenodd;clip-rule:evenodd;stroke-linejoin:round;stroke-miterlimit:2;">
    <g transform="matrix(1,0,0,1,-0.980695,-0.589487)">
        <path d="M88.708,66.637L88.306,67.678C81.455,81.018 69.317,89.203 52.003,89.564C43.909,89.73 36.197,87.654 31.159,85.395C20.287,80.511 11.142,71.451 6.148,61.773C-1.016,47.898 -2.308,28.596 12.588,14.18C12.818,14.18 10.781,17.306 11.011,17.306L10.601,18.64C-0.133,52.247 32.938,81.046 65.086,77.752C72.812,76.961 82.664,72.73 88.708,66.637" style="fill:rgb(33,96,155);"/>
        <path d="M69.254,52.74C77.342,52.796 85.79,49.016 90.793,43.708C86.416,54.818 73.744,61.96 56.749,59.688C42.52,57.784 28.964,43.465 27.568,29.117C26.547,18.675 30.186,12.443 36.183,4.884C34.099,8.837 33.32,11.887 33.126,13.832C30.848,36.42 51.17,52.622 69.254,52.74" style="fill:rgb(33,96,155);"/>
        <path d="M89.981,24.685C88.723,27.569 81.484,33.015 78.287,33.696C65.628,36.392 57.521,30.389 53.274,23.559C52.643,22.538 51.476,19.752 51.267,19.043C49.62,13.443 50.377,4.974 55.29,0.589C53.81,4.758 53.594,9.6 54.373,12.748C54.845,14.652 56.283,17.974 57.722,20.064C60.34,23.872 62.001,24.797 65.364,26.818C66.879,27.728 68.504,28.458 69.206,28.659C72.395,29.597 79.128,32.071 89.981,24.685" style="fill:rgb(33,96,155);"/>
    </g>
</svg>
