<svg xmlns="http://www.w3.org/2000/svg" fill="none" viewBox="0 0 110 40">
  <path fill="#529B0C" d="M26.1231 29.5649c-.0689.5682-.0861 1.1364-.2066 1.6874-.3444 1.6703-1.0331 3.22-2.204 4.4598-.6888.7404-1.5842 1.3086-2.2902 2.0318-.8437.861-2.0491.9643-2.9961 1.5842-.3616.2411-.861.2411-1.3087.3272-1.6013.3443-3.2372.3616-4.873.3099-1.1192-.0344-2.2385-.0861-3.32327-.2927-1.48084-.2755-2.84115-.9299-4.13258-1.7564-1.08481-.6887-1.99742-1.5497-2.77228-2.5312-.77486-.9815-1.498064-2.0146-1.635817-3.3233-.051657-.4821-.223848-.947-.2927248-1.4292-.2066292-1.4291.1033148-2.8583.6543268-4.1153.516575-1.2054 1.446405-2.1869 2.720615-2.8584 1.06759-.551 2.10074-.8265 3.25442-.7232.44769.0344.91261.1033 1.30865.2755 2.49676 1.0676 3.80546 3.1855 3.32326 5.975-.2927 1.722-1.68745 3.0306-3.39214 3.3233-.20663.0345-.44769-.0172-.67154-.0688-.56823-.1034-1.11925-.3272-1.67026-.3272-1.1709 0-1.63581.7232-1.23977 2.0318.2755.9815.96427 1.722 1.84244 2.1869 1.73913.947 3.58158 1.3086 5.59617 1.1364 1.8253-.1377 3.2545-.947 4.3393-2.2385.8954-1.0848 1.498-2.4278 1.5152-3.9259.0173-1.257.1034-2.514.1206-3.7882.0172-6.9738.0172-13.9475 0-20.92124 0-.82652-.0517-1.65303-.1033-2.47955-.0689-.99871-.706-1.65304-1.7047-1.68747-1.1537-.03444-2.2902-.01722-3.4439-.01722h-.7576c-.1033-.82652-.1033-1.601381 0-2.4278981H30.359c.706 0 .706.01721907.6888.7232031-.0172.516575 0 1.033145 0 1.601375-.2583.03444-.4821.10332-.6888.10332-.6371.01722-1.257.01722-1.8941.01722-1.5841-.01722-1.8941.7232-2.1868 1.808-.0517.15498-.0689.32717-.1205.48214-.0689-.13775-.155-.25829-.2928-.49936V28.8072c0 .1722-.0172.3444.0173.5166.0172.1205.1549.1722.241.2411z"/>
  <path fill="#46870F" d="M26.122 29.5644c-.0861-.0689-.2239-.1205-.2411-.1894-.0344-.155-.0172-.3444-.0172-.5166V4.70001v-.43048c.1377.24107.2238.3616.2927.49936.0172.25828.0344.51657.0344.77486V28.7379c0 .2583-.0516.5338-.0688.8265z"/>
  <path fill="#C61314" d="M66.3105 6.49137V4.56283H53.0346v1.94576c.5855.08609 1.1192.20662 1.653.22384 1.1709.05166 1.9974.79208 2.5484 1.63582.5855.91261.9471 1.99745.9471 3.16835-.0172 5.114 0 10.2109 0 15.325 0 1.1192-.0689 2.2212-.3272 3.3233-.3271 1.3603-.9642 2.5484-1.7219 3.7021-.0689.1205-.2238.1722-.3271.2755-.2411.2066-.4649.4132-.706.6026-.1722.1378-.3272.3272-.5338.4133-.6715.3099-1.3431.6027-2.0318.8437-1.4637.4994-2.9617.5855-4.4942.4305-.6199-.0516-1.2914-.0861-1.8424-.3271-1.0332-.4477-2.0835-.8266-2.9273-1.7047-.7404-.7749-1.4119-1.5842-1.7219-2.5829-.3099-.9987-.5338-2.0663-.5338-3.1167-.0516-6.2849-.0344-12.5699-.0344-18.85489 0-.48213-.0172-.98149 0-1.46362.0344-1.27422.4994-1.77357 1.7563-1.82523.9127-.03444 1.8425-.01722 2.7551-.01722.1894 0 .3788-.06887.6027-.10331v-.99871-.89539c-1.9975-.20663-16.9608-.10332-17.529.10331v1.8941c.6027 0 1.0848-.01722 1.5669 0 .706.03444 1.4292.0861 2.1352.18941.706.10332 1.0676.43048 1.1709 1.15368.0861.56823.1033 1.13646.1033 1.7047V28.8073c0 1.6875.1377 3.3578.8954 4.9247.3444.706.7748 1.2914 1.1881 1.9285.4649.706 1.2742.9643 1.6875 1.6531 1.2053.551 2.3073 1.3775 3.6332 1.653.1377.0344.2755.0861.4132.1205.706.1895 1.412.4305 2.1352.5511 1.4464.241 2.8928.3271 4.3564.2755 1.9285-.0517 3.8226-.1206 5.6306-.8782.2583-.1033.5338-.2066.7921-.31 1.5669-.5682 2.8239-1.6186 3.9776-2.755.9642-.9643 1.5669-2.2213 2.1007-3.4783.4477-1.0503.5682-2.1524.5682-3.2716.0172-5.4585.0517-10.8997.0172-16.3582 0-1.5841.2583-3.0994 1.0332-4.45971.4993-.86096 1.1709-1.6186 2.3073-1.70469.6715-.01722 1.3259-.12054 2.0319-.20663zM83.0455 37.9507c-.2583-.0172-.5166 0-.7749 0-.947-.0172-1.4291-.4649-1.4464-1.4119-.0172-2.5313-.0172-5.0452-.0172-7.5765 0-1.3258-.2583-2.6345-.7576-3.8398-.4993-1.2054-1.3947-2.0835-2.7033-2.4107-.3616-.0861-.7404-.0861-1.102-.155-.9471-.1549-1.8596.0517-2.7895.2067-.3615.0516-.7576.1549-1.0331.3616-.7404.5682-1.4636 1.1881-2.1523 1.8252-.2755.2583-.4477.6027-.7921 1.0848-.241-1.3087-.4477-2.4451-.6543-3.5299-1.0503.0516-1.9974.0861-2.9272.1377-.6198.0345-1.2569.0345-1.8768.1034-.7576.086-.7921.1721-.5338 1.0331.4994.0517.9987.1033 1.5153.1722.7231.1033 1.188.5682 1.4119 1.2225.1205.3444.155.7232.155 1.1021.0172 3.4094.0172 6.8187 0 10.2453 0 .2755-.1034.551-.2067.8093-.0516.1378-.2066.31-.3443.3444-.4305.1206-.8782.2239-1.3259.2755-.3616.0517-.7232.0172-1.1192.0172v1.4464h8.7299v-1.4464h-1.1537c-1.2741 0-1.6702-.4477-1.6702-1.7046.0172-2.0319.0517-4.081 0-6.1128-.0344-.9643.1378-1.9114.4649-2.7723.5166-1.3431 1.4808-2.3074 2.8928-2.8067 2.3073-.8093 4.3563.4993 4.9417 2.7206.1894.706.155 1.4808.155 2.2213.0172 2.2384-.0172 4.4769.0172 6.7154.0172 1.0848-.3099 1.6186-1.8079 1.7391-.3616.0345-.7404 0-1.1881 0v1.4292c.2927.0172.551.0345.792.0345h6.8014c.9643 0 1.2914.2755 1.1881-1.3603-.2583-.0517-.4649-.1034-.6887-.1206zM109.287 33.1471h-1.016c-.223.9127-.396 1.7736-.619 2.6346-.242.8781-.793 1.6358-1.636 1.8596-1.567.4133-3.203.0689-3.237-2.2212v-.2583-10.1593c0-.2066.051-.4305.068-.6715h5.269v-1.5325h-5.337V16.083h-.999c-.345 1.2914-.603 2.514-1.016 3.7021-.551 1.6186-1.5154 2.8756-3.3578 3.1683-.3961.0689-.551.2755-.5338.6371.0172.2239.0344.4305.0689.7577h2.6689v.947c0 3.3578.0172 6.7155 0 10.0732 0 1.257.4998 2.3935 1.3608 3.1339 1.377 1.1881 3.082 1.6358 4.873.8093 1.446-.6716 2.582-1.6358 2.875-3.3233.035-.1894.138-.3788.172-.5682.173-.7577.603-1.4637.396-2.273zM93.1515 37.9511c-.7576-.0344-1.1881-.4649-1.1881-1.1537V22.7983c-.9987-.2239-4.8041-.2066-6.44.0344v1.1881c.5683 0 1.0504-.0172 1.5325 0 1.2054.0517 2.0835.9127 2.0835 2.1352.0173 3.4094.0173 6.8188 0 10.2282 0 1.0503-.6198 1.5841-1.6874 1.5669-.5166-.0172-1.016 0-1.567 0-.0688.2927-.1377.5166-.1549.7404-.0345.5683.1205.7232.6715.7232H95.08v-1.4636c-.6887 0-1.3086.0344-1.9285 0zM89.9873 16.8742c.9471 0 1.963-1.0676 1.9458-2.0491-.0172-1.0159-1.0676-2.1351-1.9974-2.1007-.8782.0172-1.8941 1.1537-1.8769 2.1007.0172.8954 1.0848 2.0491 1.9285 2.0491z"/>
</svg>
