<?xml version="1.0" encoding="UTF-8" standalone="no"?>
<!DOCTYPE svg PUBLIC "-//W3C//DTD SVG 1.1//EN" "http://www.w3.org/Graphics/SVG/1.1/DTD/svg11.dtd">
<svg width="100%" height="100%" viewBox="0 0 38 50" version="1.1" xmlns="http://www.w3.org/2000/svg" xmlns:xlink="http://www.w3.org/1999/xlink" xml:space="preserve" xmlns:serif="http://www.serif.com/" style="fill-rule:evenodd;clip-rule:evenodd;stroke-linejoin:round;stroke-miterlimit:2;">
    <g id="H" transform="matrix(1,0,0,1,30.9407,-0.000381718)">
        <path d="M5.894,2.844C5.919,3.432 5.771,4.014 5.469,4.516C5.167,5.018 4.723,5.42 4.194,5.668C3.665,5.916 3.075,6.001 2.499,5.911C1.922,5.821 1.385,5.56 0.956,5.163C0.526,4.764 0.223,4.247 0.085,3.677C-0.053,3.106 -0.02,2.506 0.18,1.953C0.379,1.402 0.737,0.922 1.208,0.574C1.677,0.227 2.24,0.028 2.823,0.003C3.604,-0.03 4.365,0.25 4.941,0.783C5.517,1.316 5.859,2.057 5.893,2.844L5.894,2.844Z" style="fill:rgb(118,118,119);fill-rule:nonzero;"/>
    </g>
    <g transform="matrix(1,0,0,1,-1638.36,-2093.31)">
        <g id="I" transform="matrix(1,0,0,1,1639.74,2123.98)">
            <path d="M18.265,7.134C10.415,7.134 3.559,4.258 0,0C1.325,3.82 3.796,7.131 7.069,9.473C10.342,11.815 14.256,13.073 18.269,13.073C22.282,13.073 26.196,11.815 29.469,9.473C32.742,7.131 35.213,3.82 36.538,0C32.971,4.258 26.115,7.134 18.265,7.134Z" style="fill:rgb(243,119,38);fill-rule:nonzero;"/>
        </g>
        <g id="J" transform="matrix(1,0,0,1,1639.73,2097.48)">
            <path d="M18.273,5.939C26.123,5.939 32.979,8.816 36.538,13.073C35.213,9.253 32.742,5.942 29.469,3.6C26.196,1.258 22.282,0 18.269,0C14.256,0 10.342,1.258 7.069,3.6C3.796,5.942 1.325,9.253 0,13.073C3.567,8.824 10.423,5.939 18.273,5.939Z" style="fill:rgb(243,119,38);fill-rule:nonzero;"/>
        </g>
    </g>
    <g id="K" transform="matrix(1,0,0,1,1.44066,42.4996)">
        <path d="M7.428,3.583C7.461,4.323 7.274,5.057 6.892,5.692C6.51,6.326 5.951,6.831 5.284,7.144C4.617,7.457 3.874,7.564 3.147,7.45C2.42,7.336 1.743,7.008 1.202,6.506C0.661,6.004 0.279,5.353 0.105,4.632C-0.068,3.911 -0.026,3.156 0.227,2.459C0.48,1.762 0.932,1.157 1.526,0.72C2.12,0.283 2.829,0.033 3.564,0.003C4.547,-0.038 5.505,0.317 6.23,0.988C6.955,1.662 7.386,2.595 7.428,3.584L7.428,3.583Z" style="fill:rgb(152,151,152);fill-rule:nonzero;"/>
    </g>
    <g id="L" transform="matrix(1,0,0,1,0.00066221,4.74962)">
        <path d="M2.275,4.396C1.844,4.415 1.417,4.304 1.048,4.078C0.679,3.852 0.385,3.521 0.203,3.126C0.021,2.731 -0.041,2.291 0.025,1.861C0.091,1.431 0.282,1.03 0.574,0.71C0.866,0.39 1.246,0.164 1.665,0.061C2.084,-0.042 2.524,-0.017 2.93,0.133C3.336,0.283 3.687,0.55 3.941,0.902C4.553,1.747 4.487,2.915 3.785,3.686C3.394,4.115 2.851,4.37 2.274,4.395L2.275,4.396Z" style="fill:rgb(111,112,112);fill-rule:nonzero;"/>
    </g>
</svg>
