<svg class="img-fluid" id="outputsvg" xmlns="http://www.w3.org/2000/svg" style="transform: matrix(0.3, 0, 0, 0.3, 0, 0); transform-origin: 50% 50%; cursor: move; max-height: 354.28px; transition: transform 200ms ease-in-out 0s;" width="680" height="824" viewBox="0 0 6800 8240"><defs><radialGradient id="rg1NYvXOBWqL5N3i" gradientUnits="userSpaceOnUse" cx="28.67647%" cy="44.538834%" r="51.32353%"><stop offset="0%" style="stop-color:rgb(255,164,232);"></stop><stop offset="48%" style="stop-color:rgb(251,164,232);"></stop><stop offset="53%" style="stop-color:rgb(248,216,216);"></stop><stop offset="93%" style="stop-color:rgb(246,222,214);"></stop><stop offset="99%" style="stop-color:rgb(245,216,209);"></stop><stop offset="100%" style="stop-color:rgb(242,210,206);"></stop></radialGradient></defs><g id="l2JCpjCTskSuaoHfQxgDekc" fill="rgb(67,214,237)" style="transform: none;"><g><path id="p13XDOOmlp" d="M2210 8000 c0 -55 102 -212 185 -287 l65 -58 0 -185 c0 -225 -15 -444 -36 -525 -14 -58 -28 -84 -39 -74 -3 3 -34 102 -69 220 -111 366 -153 477 -247 654 -38 72 -80 144 -94 160 l-25 30 -166 -1 c-122 0 -167 -3 -173 -13 -8 -13 3 -95 19 -136 15 -38 71 -96 110 -111 45 -18 65 -53 115 -194 70 -200 77 -238 82 -445 3 -118 0 -230 -7 -294 -11 -94 -11 -106 4 -116 9 -7 16 -17 16 -24 0 -6 7 -11 15 -11 9 0 18 -7 21 -15 4 -8 14 -15 24 -15 10 0 24 -7 31 -17 8 -9 39 -34 69 -57 223 -164 498 -457 722 -771 81 -113 270 -381 310 -438 248 -358 606 -821 833 -1077 28 -31 85 -97 128 -147 85 -100 214 -198 283 -213 21 -5 105 -10 186 -10 l146 0 37 42 c53 62 171 251 265 425 130 240 205 443 245 658 21 109 24 382 6 500 -28 186 -100 386 -217 600 -88 161 -131 219 -167 223 -15 2 -27 6 -27 8 0 12 24 50 40 64 10 9 25 32 33 53 9 20 23 40 32 43 8 3 15 12 15 19 0 7 7 15 15 19 17 6 20 63 5 86 -9 13 -12 13 -20 -1 -22 -37 -103 -139 -173 -216 -40 -45 -88 -109 -105 -141 -39 -73 -57 -184 -48 -295 8 -94 4 -97 -91 -69 -160 49 -384 97 -568 124 -55 8 -189 13 -345 13 -272 0 -366 -10 -560 -59 -52 -13 -98 -22 -102 -19 -5 2 -8 52 -8 111 0 134 -17 411 -31 517 -20 150 -68 336 -104 402 l-34 62 0 328 c0 297 -2 335 -20 406 -27 102 -70 192 -119 245 l-39 42 -211 0 c-206 0 -212 -1 -212 -20z"></path></g></g><g id="l5Qb7eTSnIxoFMfDlHfCKkD" fill="rgb(82,215,246)" style="transform: none;"><g><path id="pvMC59qxP" d="M1920 6658 c0 -24 -7 -97 -15 -163 -21 -170 -21 -177 16 -197 17 -10 41 -18 54 -18 28 0 204 -149 330 -281 187 -195 352 -405 732 -934 126 -176 331 -456 454 -623 123 -166 281 -384 351 -485 70 -100 160 -228 199 -284 39 -56 102 -142 141 -190 92 -117 113 -157 109 -210 -2 -26 1 -43 8 -43 6 0 11 -7 11 -15 0 -11 12 -15 45 -15 33 0 45 4 45 15 0 12 18 15 101 15 95 0 107 2 183 36 44 20 100 45 124 56 23 10 42 22 42 27 0 5 18 27 40 49 30 29 40 48 40 71 0 20 8 38 21 49 76 61 91 82 167 224 214 404 312 618 376 813 72 221 96 369 96 596 0 219 -30 386 -108 609 -56 161 -225 467 -349 633 -24 31 -43 61 -43 66 0 5 -9 11 -19 14 -15 4 -20 15 -23 48 -3 43 -4 44 -38 44 -29 0 -35 -4 -35 -22 0 -13 -9 -29 -20 -37 -11 -9 -17 -16 -13 -16 3 0 -18 -26 -47 -57 -32 -35 -51 -63 -47 -72 4 -11 1 -13 -14 -7 -15 6 -16 5 -7 -5 10 -10 8 -20 -9 -50 -12 -23 -18 -44 -14 -55 5 -14 9 -15 15 -5 5 7 21 11 37 9 37 -4 79 -60 168 -224 165 -302 228 -526 228 -811 -1 -210 -37 -381 -131 -613 -83 -203 -299 -585 -396 -698 l-37 -42 -101 1 c-176 1 -189 5 -287 70 -64 43 -110 85 -167 151 -43 50 -100 117 -128 148 -227 256 -585 719 -833 1077 -40 57 -229 325 -310 438 -224 314 -499 607 -722 771 -30 23 -61 48 -69 57 -7 10 -21 17 -30 17 -9 0 -22 9 -29 20 -7 12 -17 18 -22 15 -6 -3 -10 1 -10 9 0 8 -9 18 -20 21 -11 3 -20 15 -20 26 0 10 -4 19 -10 19 -5 0 -10 -19 -10 -42z m2980 -241 c0 -8 -38 -47 -45 -47 -5 0 2 11 15 25 22 24 30 29 30 22z"></path></g></g><g id="l4cDfjQO9MpucFSFuN4T6bp" fill="rgb(96,204,244)" style="transform: none;"><g><path id="phyTCX9nK" d="M2800 7047 c0 -33 8 -61 24 -90 43 -73 72 -190 96 -382 6 -49 15 -124 21 -165 5 -41 13 -160 16 -265 3 -104 9 -199 14 -210 19 -48 2 420 -22 600 -20 153 -68 336 -105 404 -27 49 -34 72 -30 95 3 17 1 38 -4 46 -7 11 -10 2 -10 -33z"></path><path id="pUxpMB6Af" d="M5050 6728 c-7 -24 -28 -74 -46 -111 -32 -62 -37 -96 -13 -82 18 12 28 -5 19 -30 -7 -17 -6 -25 1 -25 6 0 9 -7 5 -15 -3 -10 3 -17 19 -21 14 -3 25 -10 25 -15 0 -5 19 -35 43 -66 124 -166 293 -472 349 -633 160 -456 143 -849 -59 -1340 -37 -90 -232 -483 -327 -659 -59 -110 -84 -142 -128 -169 -29 -17 -54 -64 -43 -82 4 -6 -11 -29 -33 -51 -22 -21 -43 -46 -46 -55 -3 -8 -10 -13 -15 -10 -5 3 -14 -1 -21 -9 -7 -8 -16 -15 -21 -15 -5 0 -50 -19 -101 -41 -66 -30 -96 -39 -107 -32 -10 6 -25 6 -42 -1 -20 -7 -35 -6 -53 2 -16 7 -28 8 -31 2 -4 -6 -22 -10 -42 -10 -30 0 -34 -2 -23 -15 10 -12 10 -15 -4 -15 -9 0 -16 6 -16 14 0 8 -6 17 -12 19 -10 4 -10 6 0 6 40 3 -8 104 -113 239 -40 51 -105 139 -144 195 -39 56 -129 184 -199 284 -70 101 -228 319 -351 485 -123 167 -328 447 -454 623 -475 661 -665 891 -917 1110 -106 92 -143 118 -153 108 -4 -3 -23 2 -42 13 -25 13 -35 26 -36 44 0 14 -4 34 -9 45 -7 19 -8 18 -13 -5 -18 -78 -37 -170 -37 -179 0 -5 32 -13 71 -17 69 -7 74 -9 143 -67 116 -99 303 -294 447 -467 78 -93 325 -424 477 -640 80 -113 170 -239 201 -280 31 -41 94 -127 139 -190 45 -63 153 -212 239 -330 185 -255 300 -430 398 -600 89 -156 165 -320 165 -357 0 -60 13 -102 31 -108 11 -4 19 -15 19 -26 0 -10 3 -19 6 -19 30 0 175 28 286 56 221 54 363 106 559 203 127 63 211 98 272 113 95 23 119 48 47 48 -44 0 -46 3 -25 40 8 14 14 33 15 43 0 10 23 67 51 125 138 286 164 344 210 460 131 328 169 499 176 803 8 296 -11 441 -89 683 -49 154 -172 403 -277 561 -102 152 -204 295 -235 328 -14 15 -26 35 -26 43 0 7 -9 14 -19 14 -22 0 -31 19 -31 64 0 33 -15 56 -35 56 -7 0 -18 -19 -25 -42z"></path></g></g><g id="l7Ox82sb9YrivUEPQBQ4V9y" fill="rgb(119,187,241)" style="transform: none;"><g><path id="pvsMrgl8K" d="M2675 7964 c104 -152 125 -253 125 -631 0 -150 3 -273 8 -273 4 0 6 134 5 298 -1 263 -4 306 -22 375 -26 98 -70 190 -116 242 l-36 40 36 -51z"></path><path id="pAJoG6UYo" d="M1767 7660 c30 -28 44 -57 88 -180 63 -177 77 -244 82 -387 3 -79 9 -133 15 -133 7 0 9 44 5 123 -6 148 -33 262 -109 449 -43 106 -58 133 -78 140 l-25 9 22 -21z"></path><path id="p149W6Cx6U" d="M5092 7058 c-6 -13 -12 -71 -14 -130 -3 -97 -2 -108 14 -108 40 0 114 -63 194 -165 98 -125 135 -165 151 -165 7 0 13 -6 13 -13 0 -24 40 -96 124 -225 301 -458 429 -858 413 -1296 -9 -273 -72 -532 -214 -886 -47 -117 -82 -198 -186 -432 -14 -31 -29 -49 -44 -53 -17 -4 -23 -12 -23 -35 0 -26 4 -30 38 -36 20 -3 70 -14 111 -24 88 -22 107 -16 117 38 4 20 12 44 19 52 26 30 154 338 227 545 52 147 113 390 124 490 3 33 15 86 26 118 16 48 19 79 16 195 -3 174 1 369 11 450 l8 63 -28 6 c-24 5 -28 11 -34 57 -4 28 -15 62 -25 76 -9 14 -23 43 -30 65 -73 230 -222 518 -394 760 -64 90 -98 125 -133 134 -33 9 -52 52 -52 124 -1 58 -31 107 -65 107 -22 0 -56 27 -56 45 0 18 -140 172 -172 189 -19 10 -39 32 -45 47 -9 24 -17 29 -45 29 -26 0 -37 -6 -46 -22z"></path></g></g><g id="l5XKXnv8C3FzdSkWSJKSVtM" fill="rgb(108,196,243)" style="transform: none;"><g><path id="pvJIllp5m" d="M5077 6857 c-13 -34 -18 -125 -8 -131 6 -4 11 -22 11 -39 0 -55 10 -75 32 -69 13 3 19 0 17 -9 -2 -8 9 -27 25 -44 87 -92 297 -414 392 -601 163 -323 222 -586 211 -944 -8 -274 -50 -457 -176 -772 -46 -116 -72 -174 -210 -460 -28 -58 -51 -115 -51 -125 0 -28 -14 -43 -29 -34 -7 5 -11 13 -7 19 3 5 -1 12 -9 16 -16 6 -20 2 -29 -36 -6 -26 -5 -27 25 -21 29 6 31 5 20 -15 -12 -23 -28 -35 -50 -39 -14 -2 -31 -21 -31 -36 0 -4 8 -4 17 0 23 10 251 9 321 -1 36 -5 52 -4 52 3 0 6 -9 11 -19 11 -11 0 -23 5 -27 12 -4 7 -3 8 4 4 7 -4 12 -2 12 3 0 6 6 11 13 11 7 0 22 21 33 48 149 333 220 506 273 662 42 123 76 257 102 395 27 139 36 428 20 576 -40 354 -166 674 -407 1041 -89 136 -124 201 -124 229 0 10 -4 21 -10 24 -5 3 -10 1 -10 -6 0 -19 -48 34 -143 154 -78 101 -156 168 -197 172 -9 0 -20 4 -27 8 -6 4 -13 1 -16 -6z"></path></g></g><g id="l7D56OgoOiibbpjngG5CeCw" fill="rgb(128,181,240)" style="transform: none;"><g><path id="p18Xt5JanF" d="M4705 7933 c-37 -6 -45 -18 -38 -58 19 -110 53 -163 127 -198 31 -15 61 -27 66 -27 6 0 10 18 10 39 0 40 -15 56 -72 77 -19 7 -25 34 -8 34 6 0 10 23 10 50 0 28 -4 50 -10 50 -5 0 -10 6 -10 14 0 13 -23 28 -38 25 -4 -1 -20 -4 -37 -6z"></path><path id="pMP7oKl3w" d="M5064 7157 c3 -13 9 -56 12 -95 4 -40 11 -72 15 -72 5 0 9 5 9 10 0 6 9 19 21 31 l20 20 11 -29 c7 -17 27 -37 46 -48 38 -20 168 -169 165 -188 -2 -18 67 -72 76 -58 5 8 14 4 30 -14 16 -18 25 -49 34 -112 12 -81 14 -86 40 -93 35 -9 70 -44 133 -134 172 -242 321 -530 394 -760 7 -22 21 -52 31 -66 10 -14 16 -35 13 -46 -3 -12 -1 -24 5 -27 6 -4 11 -21 11 -37 0 -18 4 -28 10 -24 6 3 10 0 10 -7 0 -10 2 -10 8 -1 11 17 36 -1 29 -20 -4 -10 -1 -14 7 -11 6 2 20 48 30 102 10 53 25 114 33 135 15 36 14 39 -5 58 -13 11 -35 19 -55 19 -33 0 -36 3 -63 68 -73 173 -195 397 -306 562 -123 182 -151 220 -164 220 -13 0 -54 51 -54 67 0 23 -33 14 -56 -14 l-22 -28 -5 45 c-23 190 -31 230 -49 268 -16 32 -27 42 -45 42 -18 0 -54 30 -129 105 -58 58 -109 105 -115 105 -5 0 -20 11 -33 25 -17 18 -34 25 -61 25 -34 0 -37 -2 -31 -23z"></path><path id="prehjk3lA" d="M6180 4915 c0 -8 -5 -15 -11 -15 -8 0 -9 -17 -6 -49 3 -31 1 -56 -7 -68 -7 -10 -14 -25 -14 -33 -14 -150 -76 -414 -140 -595 -73 -207 -201 -515 -227 -545 -7 -8 -16 -32 -19 -54 -6 -30 -13 -41 -37 -49 -16 -6 -29 -14 -29 -18 0 -8 181 -52 188 -45 3 3 6 30 8 61 1 30 4 58 7 62 9 16 116 269 142 338 101 264 176 554 204 779 10 84 9 90 -9 103 -12 8 -20 26 -20 41 0 45 -12 102 -21 102 -5 0 -9 -7 -9 -15z"></path></g></g><g id="l6oiTP0tDFkaS7mpOQjzipI" fill="rgb(136,175,239)" style="transform: none;"><g><path id="p10KU3KVI4" d="M4705 7933 c-37 -6 -45 -18 -38 -58 12 -70 37 -128 69 -161 43 -42 63 -45 24 -4 -58 62 -89 200 -47 208 10 2 17 -3 17 -13 0 -9 5 -13 10 -10 6 3 10 -3 10 -15 0 -12 5 -18 10 -15 6 3 10 -3 10 -15 0 -12 -4 -18 -10 -15 -5 3 -10 -1 -10 -10 0 -8 -6 -24 -12 -35 -11 -17 -10 -22 0 -29 8 -4 14 -12 15 -17 1 -5 6 -8 11 -6 5 2 16 -3 25 -11 9 -8 24 -17 34 -20 24 -9 21 -27 -5 -27 -22 -1 -22 -1 3 -15 51 -28 213 -362 240 -498 12 -61 29 -86 29 -43 0 32 7 33 36 1 13 -14 27 -25 33 -25 5 0 61 -52 125 -115 113 -111 136 -129 136 -102 0 6 9 -3 20 -21 19 -30 45 -50 55 -40 8 8 -38 187 -71 276 -38 102 -44 114 -90 182 -18 26 -39 61 -49 80 -19 36 -116 171 -152 209 -19 22 -43 96 -43 135 0 7 -11 18 -25 24 -14 6 -25 18 -25 25 0 8 -8 25 -19 38 -10 13 -22 44 -26 68 -13 76 -23 81 -150 80 -60 -1 -123 -4 -140 -6z"></path><path id="ppRA8kC9g" d="M5629 6698 c-46 -56 -69 -91 -69 -103 0 -13 63 -85 74 -85 13 0 42 -38 164 -220 115 -172 228 -378 293 -535 18 -44 43 -90 56 -103 13 -13 23 -29 23 -37 0 -8 5 -15 10 -15 6 0 10 6 9 13 -1 6 1 20 5 29 7 16 9 16 28 -2 12 -10 17 -24 13 -31 -5 -7 -3 -10 6 -7 29 10 58 109 59 200 0 48 -4 90 -10 93 -5 3 -10 15 -10 26 0 11 -8 22 -17 26 -34 11 -96 88 -161 198 -112 189 -242 376 -349 502 -29 34 -53 69 -53 78 0 29 -37 15 -71 -27z"></path><path id="pIWEqknpD" d="M6182 4898 c5 -59 14 -98 24 -109 8 -9 11 -19 7 -22 -5 -3 -10 -36 -11 -74 -4 -142 -93 -484 -197 -758 -42 -111 -136 -327 -153 -353 -12 -18 -12 -28 -4 -47 10 -21 9 -25 -4 -25 -12 0 -13 -4 -4 -20 9 -17 8 -20 -10 -20 -11 0 -20 -4 -20 -9 0 -21 187 -34 250 -18 35 9 48 36 56 114 4 47 21 106 54 188 84 211 152 430 195 630 14 66 29 129 34 140 12 24 21 67 28 121 4 38 2 43 -35 72 -43 35 -117 71 -143 72 -29 0 -38 24 -45 118 -4 58 -11 92 -18 92 -9 0 -10 -25 -4 -92z"></path><path id="pwcvn60B9" d="M5509 3524 c40 -8 76 -13 79 -10 13 13 -13 21 -81 23 l-72 2 74 -15z"></path></g></g><g id="l4LDprPb9zUu7y6A45OO3df" fill="rgb(144,169,238)" style="transform: none;"><g><path id="pvW8jSDwe" d="M4921 7913 c13 -16 27 -29 32 -31 4 -2 5 -8 2 -13 -3 -5 -1 -18 5 -30 9 -15 9 -24 1 -32 -16 -16 -14 -24 9 -30 13 -3 27 -22 37 -46 9 -22 19 -39 22 -36 16 9 28 -14 39 -70 10 -49 19 -67 52 -98 22 -21 40 -43 40 -49 0 -6 17 -34 38 -62 22 -28 47 -67 57 -85 9 -19 33 -56 51 -83 19 -26 34 -51 34 -54 0 -15 43 -64 56 -64 20 0 13 21 -43 137 -56 116 -81 152 -170 249 l-73 77 0 168 c0 194 11 179 -129 179 l-84 0 24 -27z"></path><path id="p1Gct1eo5B" d="M5717 6792 c-42 -42 -77 -80 -77 -84 0 -4 24 -31 53 -60 90 -91 251 -317 379 -533 65 -110 137 -200 160 -200 7 0 15 -9 19 -20 18 -57 22 -65 35 -65 11 0 14 24 14 118 0 64 -3 154 -7 200 -6 78 -7 83 -32 89 -37 9 -97 72 -181 193 -41 58 -118 161 -170 230 -93 120 -96 127 -92 168 3 31 1 42 -10 42 -7 0 -48 -35 -91 -78z"></path><path id="pgUrvSzmR" d="M6210 5528 c0 -2 -7 -41 -15 -88 -17 -93 -32 -411 -21 -453 15 -62 23 -17 23 141 1 148 10 269 29 370 4 20 2 32 -5 32 -6 0 -11 -1 -11 -2z"></path><path id="piUNkKrUv" d="M6349 4726 c16 -17 20 -26 11 -26 -8 0 -3 -11 13 -28 26 -27 29 -62 6 -62 -5 0 -7 -11 -3 -25 3 -14 2 -31 -4 -38 -5 -6 -22 -68 -36 -137 -45 -211 -144 -522 -225 -704 -11 -27 -21 -68 -21 -92 0 -23 -5 -46 -11 -49 -5 -4 -9 -17 -9 -28 1 -12 -2 -33 -6 -47 -4 -14 -7 -27 -5 -30 1 -3 -8 -8 -21 -12 -16 -6 -13 -7 12 -4 138 15 353 208 416 373 63 163 76 228 81 408 6 195 -2 249 -51 352 -32 66 -97 137 -151 165 -17 9 -16 7 4 -16z"></path></g></g><g id="l6xfzZxF34vGm5GLREUZtgb" fill="rgb(153,164,237)" style="transform: none;"><g><path id="pYU9uoNsV" d="M5818 6889 c-67 -60 -80 -88 -52 -114 19 -17 207 -266 284 -375 77 -111 163 -205 177 -197 5 3 15 2 22 -3 11 -6 15 -61 19 -241 l5 -234 -32 -98 c-17 -53 -31 -115 -31 -136 0 -21 -4 -60 -9 -87 -11 -56 -26 -342 -18 -334 3 3 10 81 16 175 13 188 38 324 73 400 22 48 23 62 28 370 3 176 9 327 13 336 5 11 3 22 -7 32 -9 9 -16 19 -16 24 0 12 -49 63 -60 63 -5 0 -47 51 -93 113 -47 61 -117 152 -156 201 -60 76 -71 96 -71 128 0 24 -5 38 -13 38 -7 0 -42 -27 -79 -61z"></path></g></g><g id="l1SsFjfQaEGEOTvwZ6MOdYX" fill="rgb(165,155,236)" style="transform: none;"><g><path id="p1EcFjfopx" d="M5075 7914 c11 -21 15 -63 15 -151 0 -75 4 -123 10 -123 6 0 10 55 10 145 0 81 -4 145 -9 145 -5 0 -16 3 -25 6 -14 6 -14 3 -1 -22z"></path><path id="p1lrq5rXO" d="M4832 7657 c33 -31 133 -218 181 -341 45 -114 66 -218 67 -323 0 -48 4 -73 11 -73 9 0 10 29 6 103 -7 140 -49 273 -142 457 -73 143 -112 200 -136 200 -7 0 -1 -10 13 -23z"></path><path id="pfbG2DMgO" d="M5950 7029 c0 -12 -21 -41 -52 -70 -48 -45 -51 -51 -36 -63 10 -7 15 -16 12 -19 -9 -9 12 -42 83 -130 36 -45 103 -133 150 -194 46 -62 88 -113 93 -113 11 0 60 -51 60 -63 0 -5 6 -15 14 -22 11 -11 12 -24 4 -57 -11 -48 -1 -349 12 -383 5 -11 9 69 9 192 1 191 3 216 22 260 20 48 69 216 69 241 0 6 -9 12 -19 12 -11 0 -32 16 -46 35 -15 19 -35 37 -44 40 -10 3 -54 52 -99 109 -45 57 -95 117 -110 133 -15 17 -40 49 -56 71 -31 46 -66 57 -66 21z"></path><path id="pr1H2L7HF" d="M755 2453 c20 -298 49 -437 120 -570 42 -79 45 -91 45 -159 0 -72 1 -74 25 -74 25 0 25 1 25 88 0 77 -3 92 -25 125 -56 81 -100 225 -115 374 -34 330 -31 313 -57 313 l-25 0 7 -97z"></path></g></g><g id="lULY1AAaXDCl1zsx67ukmZ" fill="rgb(185,141,233)" style="transform: none;"><g><path id="p10PHUV6gu" d="M5978 8022 c-153 -2 -198 -5 -198 -15 0 -35 71 -119 158 -188 6 -5 12 -29 12 -52 0 -23 5 -60 10 -82 5 -22 10 -143 11 -270 1 -227 6 -265 34 -265 8 0 19 -9 25 -20 6 -12 21 -20 35 -20 14 0 29 -8 35 -20 6 -11 17 -20 25 -20 7 0 42 -31 76 -70 35 -38 71 -70 80 -70 11 0 22 -13 29 -35 8 -24 18 -35 31 -35 17 0 19 -8 19 -72 -1 -40 -7 -106 -14 -146 -7 -40 -9 -75 -4 -78 4 -3 8 2 8 11 0 9 5 13 10 10 15 -9 4 -61 -36 -177 l-34 -97 2 -273 2 -273 6 285 c5 279 6 286 31 350 41 100 80 288 80 385 0 103 -30 226 -77 318 l-35 67 11 128 c12 150 -1 443 -25 540 -20 83 -65 173 -90 181 -11 3 -109 5 -217 3z"></path><path id="p15cBIP6xX" d="M5098 7838 c5 -168 8 -185 10 -45 1 75 -1 137 -5 137 -5 0 -7 -42 -5 -92z"></path><path id="pThsvUqRE" d="M4666 7880 c12 -73 37 -133 70 -166 19 -19 38 -34 43 -34 5 0 -11 19 -34 43 -34 34 -45 54 -55 102 -15 68 -33 110 -24 55z"></path><path id="pUgGHImzw" d="M2308 7805 c6 -11 34 -42 63 -70 l53 -50 -59 65 c-32 36 -61 67 -63 70 -3 3 0 -4 6 -15z"></path><path id="pl0scY7fb" d="M1682 7715 c21 -22 39 -37 41 -34 2 2 -15 19 -37 38 l-41 35 37 -39z"></path><path id="pKp39GQ3O" d="M1925 6698 c-11 -140 -35 -328 -50 -392 -10 -43 -15 -162 -19 -411 -2 -192 -5 -350 -5 -351 -1 0 -29 -15 -63 -32 -136 -68 -431 -313 -520 -431 -24 -31 -56 -72 -72 -91 -30 -36 -144 -264 -167 -335 -8 -27 -14 -136 -18 -333 l-6 -292 23 0 22 0 0 221 c0 184 3 236 21 321 20 95 89 269 110 276 5 2 9 8 9 13 0 16 84 131 156 213 122 141 255 249 447 366 l107 65 0 350 c0 193 4 365 9 383 9 31 9 32 -12 21 -18 -9 -20 -9 -10 1 6 7 9 18 7 25 -3 6 4 74 15 151 21 146 37 344 28 344 -3 0 -8 -37 -12 -82z"></path><path id="p10dQFOzD6" d="M2974 6055 c0 -77 2 -107 3 -67 2 40 2 103 0 140 -2 37 -3 4 -3 -73z"></path><path id="pAwdC2p6y" d="M6535 4153 c-28 -271 -130 -479 -295 -602 -92 -69 -142 -91 -222 -100 -77 -8 -129 -2 -238 28 -133 36 -209 53 -227 48 -24 -5 -21 -6 162 -50 188 -45 235 -51 311 -38 128 20 250 102 364 246 74 93 143 292 156 447 8 90 -2 107 -11 21z"></path><path id="p18BhA28dK" d="M890 3785 c0 -2 -7 -30 -16 -62 -28 -106 -44 -282 -44 -509 0 -210 -1 -224 -25 -293 -41 -117 -73 -401 -45 -401 6 0 10 -7 10 -15 0 -8 6 -15 13 -15 11 0 15 30 20 123 6 117 36 259 65 314 8 15 12 104 12 280 1 174 6 292 16 363 28 197 29 220 10 220 -9 0 -16 -2 -16 -5z"></path><path id="pSIFdpNZn" d="M4395 3175 c-65 -17 -179 -19 -169 -4 4 8 -5 9 -32 5 -101 -16 -280 -35 -384 -41 -119 -6 -659 -12 -1242 -14 l-338 -1 0 -27 0 -28 262 2 c145 2 493 4 773 6 405 3 540 7 655 21 205 24 456 63 515 80 62 18 28 18 -40 1z"></path><path id="p12YcRfeAx" d="M330 1133 c10 -55 34 -97 76 -131 45 -37 92 -51 215 -61 83 -7 107 -13 183 -50 48 -23 90 -49 93 -57 10 -26 23 -15 23 20 0 35 -12 47 -90 90 -64 35 -115 48 -216 56 -82 6 -108 12 -140 33 -48 30 -92 79 -100 113 -4 16 -13 24 -29 24 -20 0 -22 -3 -15 -37z"></path><path id="pSY9AkRxw" d="M1100 487 c-25 -27 -69 -65 -98 -84 -72 -47 -82 -49 -82 -24 0 40 -25 21 -47 -36 -13 -31 -20 -59 -18 -61 18 -19 178 66 255 135 26 23 50 40 54 36 3 -3 6 -41 6 -84 0 -44 5 -81 11 -84 17 -11 79 5 79 19 0 8 -9 16 -20 19 -18 5 -20 14 -20 111 l0 106 -37 -1 c-32 -1 -45 -9 -83 -52z"></path></g></g><g id="l2xDsjlP1Mdrcr1BCUwwK0y" fill="rgb(177,147,235)" style="transform: none;"><g><path id="pN1gMdyMC" d="M5990 7494 c0 -8 -4 -13 -9 -10 -4 3 -9 -80 -10 -185 0 -105 -6 -209 -11 -230 -10 -37 -9 -43 22 -86 18 -25 45 -59 60 -75 16 -17 65 -77 110 -134 45 -57 89 -106 99 -109 10 -3 35 -28 56 -56 31 -41 39 -47 45 -32 3 10 7 14 8 8 0 -5 5 -2 11 9 14 22 24 249 15 300 -8 40 -25 49 -27 14 -1 -18 -4 -15 -16 15 -9 22 -23 37 -32 37 -9 0 -45 32 -80 70 -34 39 -69 70 -77 70 -8 0 -20 12 -26 26 -9 19 -17 24 -34 20 -17 -5 -26 0 -34 14 -6 11 -17 20 -25 20 -27 0 -34 38 -36 184 0 80 -3 146 -5 146 -2 0 -4 -7 -4 -16z"></path><path id="pc5msYEeD" d="M1870 5791 c0 -198 -3 -261 -12 -264 -7 -3 1 -6 18 -6 22 -1 33 4 36 17 3 9 3 128 0 265 -4 233 -6 247 -23 247 -18 0 -19 -13 -19 -259z"></path></g></g><g id="l41qRJ3Yo8Y1RHwRCBaTA7M" fill="rgb(130,203,242)" style="transform: none;"><g><path id="pul49r5nR" d="M1893 6257 c-22 -9 -23 -16 -23 -114 0 -103 0 -103 24 -103 14 0 28 -4 31 -10 3 -5 17 -10 31 -10 49 0 372 -337 594 -620 110 -140 150 -195 394 -536 488 -683 638 -913 772 -1177 80 -157 149 -350 160 -442 4 -31 10 -58 15 -60 4 -3 5 -21 2 -40 -5 -33 -4 -35 23 -35 63 0 388 45 346 48 -36 3 -41 6 -32 17 6 8 18 11 26 8 8 -3 14 0 14 6 0 6 -15 11 -32 11 -18 0 -40 5 -48 10 -13 8 -12 10 3 10 24 0 21 15 -5 33 -18 11 -20 18 -11 27 8 9 8 21 -4 49 -107 262 -266 527 -566 941 -86 118 -194 267 -239 330 -45 63 -108 149 -139 190 -31 41 -121 167 -201 280 -152 216 -399 547 -477 640 -149 179 -333 370 -456 474 -69 58 -84 67 -112 64 -18 -2 -33 0 -33 5 0 5 -6 7 -14 4 -8 -3 -16 -2 -18 2 -2 5 -13 4 -25 -2z"></path></g></g><g id="l7eMDi7MQ3oWeDaWNhOux1P" fill="rgb(153,196,240)" style="transform: none;"><g><path id="pFo7E7ff6" d="M1872 6175 c-1 -44 1 -130 4 -191 l7 -110 51 -23 c61 -28 107 -70 281 -262 292 -321 699 -878 1059 -1447 236 -374 396 -741 396 -907 0 -30 5 -57 10 -60 6 -3 10 -15 10 -26 0 -10 5 -27 11 -37 10 -15 20 -17 83 -10 39 4 103 8 141 9 58 1 63 3 30 8 -25 4 -35 9 -28 14 12 8 8 62 -7 82 -4 6 -10 34 -14 64 -12 93 -81 283 -160 438 -134 264 -284 494 -772 1177 -244 341 -284 396 -394 536 -222 283 -545 620 -594 620 -14 0 -28 5 -31 10 -3 6 -15 10 -26 10 -37 0 -48 24 -52 106 l-3 79 -2 -80z"></path></g></g><g id="l3wzbb8jqNFRzVF6VDVcDJT" fill="rgb(166,192,239)" style="transform: none;"><g><path id="pf3fGPvli" d="M1887 5913 c-4 -3 -7 -43 -7 -87 l0 -81 51 -25 c70 -34 253 -223 440 -455 268 -332 675 -928 876 -1285 107 -190 156 -293 206 -430 53 -148 74 -232 90 -359 l12 -95 77 -4 c78 -4 118 7 118 32 0 8 -7 16 -15 20 -8 3 -15 16 -15 29 0 13 -3 27 -7 30 -3 4 -8 31 -9 60 -7 129 -110 399 -250 656 -164 304 -662 1032 -962 1410 -193 243 -471 541 -505 541 -8 0 -26 9 -41 21 -14 11 -26 17 -26 14 0 -4 -6 -2 -13 4 -8 6 -17 8 -20 4z"></path></g></g><g id="l5EcvEGNvImABaHu8R8TAeK" fill="rgb(237,151,213)" style="transform: none;"><g><path id="peUniQrn7" d="M1076 4733 c-7 -16 -23 -74 -35 -130 -17 -85 -21 -138 -21 -315 0 -229 -5 -255 -53 -325 -80 -116 -117 -345 -117 -731 0 -173 -4 -260 -12 -275 -34 -63 -59 -196 -65 -339 -6 -147 -6 -148 15 -148 20 0 22 5 22 68 0 85 33 277 62 357 20 55 22 88 29 395 5 261 10 349 23 400 15 59 76 195 126 280 19 32 20 52 20 280 1 178 5 267 16 325 23 119 28 185 15 185 -6 0 -17 -12 -25 -27z"></path><path id="pC6ycBhSC" d="M2178 3119 c-12 -7 -18 -22 -18 -47 0 -20 -7 -91 -15 -157 -8 -65 -15 -145 -15 -177 0 -57 0 -58 29 -58 27 0 29 3 35 53 10 76 25 257 26 293 0 26 5 33 25 38 14 4 23 11 20 16 -4 7 146 10 417 10 233 0 433 3 446 6 12 4 22 13 22 20 0 12 -77 14 -477 14 -306 0 -484 -4 -495 -11z"></path></g></g><g id="l7Cbiy2NWCTs77zFXuDiXCk" fill="rgb(187,185,237)" style="transform: none;"><g><path id="pmMVSYOda" d="M1886 5772 c-8 -7 -7 -131 0 -159 3 -12 17 -24 30 -27 62 -16 369 -373 635 -737 83 -114 302 -444 422 -634 149 -238 300 -545 346 -705 23 -83 41 -160 51 -225 6 -38 18 -96 27 -127 l17 -57 79 -3 c44 -2 82 1 85 7 13 20 -8 181 -38 298 -29 112 -95 287 -148 392 -222 444 -744 1216 -1111 1645 -105 123 -266 282 -306 303 -48 26 -82 37 -89 29z"></path></g></g><g id="l7jtRHLDiwSOB7YIUXYgtJW" fill="rgb(208,179,235)" style="transform: none;"><g><path id="pwNrdQdbc" d="M1886 5587 c-4 -20 -15 -45 -26 -54 -30 -26 -16 -55 72 -146 121 -124 241 -264 376 -442 67 -88 129 -169 137 -180 8 -11 35 -49 58 -85 24 -36 59 -87 78 -115 35 -51 77 -120 215 -350 173 -287 304 -584 365 -824 16 -64 29 -139 29 -168 0 -28 5 -55 10 -58 6 -3 10 -17 10 -30 0 -13 3 -26 8 -28 7 -5 156 -11 200 -8 12 0 22 7 22 16 0 8 4 15 10 15 5 0 1 15 -10 33 -11 18 -29 85 -40 148 -33 193 -60 279 -148 474 -104 230 -213 413 -489 825 -193 288 -251 369 -428 590 -228 285 -370 429 -421 426 -18 -1 -23 -9 -28 -39z"></path></g></g><g id="l6XEuNHK5H70ZnVYWPubUVe" fill="rgb(224,174,234)" style="transform: none;"><g><path id="p1A8X4J1hL" d="M1793 5489 c-60 -39 -63 -44 -63 -81 0 -35 6 -45 46 -82 53 -47 148 -143 214 -217 25 -28 54 -60 66 -72 11 -12 32 -38 45 -57 28 -41 48 -66 70 -89 56 -55 325 -452 371 -546 16 -33 42 -75 58 -93 28 -32 63 -100 188 -362 127 -264 202 -502 239 -752 l5 -38 126 0 126 0 -24 22 c-14 13 -19 23 -12 26 8 2 6 12 -7 30 -11 17 -18 45 -19 73 0 68 -54 267 -113 425 -82 215 -175 394 -412 784 -29 47 -68 108 -86 135 -19 28 -54 79 -78 115 -23 36 -50 74 -58 85 -8 11 -70 92 -137 180 -136 178 -255 318 -377 443 -44 46 -81 90 -81 98 0 23 -21 16 -87 -27z"></path></g></g><g id="l4EKRqFydIMWWKxp6hZaSaX" fill="rgb(242,168,232)" style="transform: none;"><g><path id="p62HFc9cA" d="M1700 5430 c-121 -75 -260 -186 -260 -207 0 -8 14 -13 38 -13 28 0 45 7 62 25 13 14 28 25 35 25 6 0 18 9 28 20 21 24 77 28 77 5 0 -9 10 -20 23 -24 24 -10 149 -136 243 -246 287 -335 604 -832 770 -1205 101 -230 176 -472 175 -569 -1 -48 4 -70 19 -91 11 -16 20 -33 20 -39 0 -7 34 -11 103 -10 l102 0 -36 17 c-23 11 -34 23 -31 34 2 9 -4 30 -12 47 -9 16 -16 43 -16 58 0 56 -74 311 -136 471 -25 65 -91 205 -195 419 -28 56 -63 117 -79 135 -16 18 -26 36 -24 40 3 4 1 8 -4 8 -5 0 -21 24 -35 53 -40 84 -312 484 -366 538 -22 23 -42 48 -70 89 -13 19 -34 45 -45 57 -12 12 -41 44 -66 72 -62 70 -159 168 -211 216 -50 46 -58 68 -31 87 15 10 17 16 8 24 -9 8 -32 -2 -86 -36z"></path></g></g><g id="l26qTT6kFHiVAY5M7ihczTR" fill="rgb(255,165,231)" style="transform: none;"><g><path id="py1qpP9Pg" d="M1610 5338 c-19 -12 -39 -28 -43 -35 -4 -7 -13 -13 -19 -13 -7 0 -25 -12 -40 -27 -22 -21 -31 -24 -37 -15 -16 26 -311 -313 -311 -358 0 -5 -4 -10 -8 -10 -15 0 -64 -118 -84 -203 -17 -68 -21 -132 -27 -372 -6 -282 -7 -291 -29 -322 -36 -51 -100 -193 -118 -264 -13 -50 -18 -139 -23 -399 -7 -306 -9 -340 -29 -392 -11 -32 -24 -77 -27 -101 l-7 -43 304 -13 c347 -14 813 -30 876 -31 35 0 42 -3 42 -20 0 -16 7 -20 35 -20 21 0 38 6 41 14 3 7 14 11 28 9 22 -4 22 -1 39 149 10 84 17 165 17 180 0 15 6 30 13 35 6 4 194 10 417 13 223 3 397 8 388 12 -10 5 -26 11 -35 14 -12 4 -14 8 -5 11 16 6 15 23 -2 23 -23 0 -46 46 -40 79 13 64 -79 374 -176 591 -180 404 -493 891 -801 1245 -92 106 -209 224 -221 225 -5 0 -8 3 -9 8 -2 16 -21 30 -35 25 -8 -3 -14 1 -14 11 0 22 -18 20 -60 -6z"></path></g></g><g id="l6yiN1pHdeI7zBAmGEexx4r" fill="rgb(254,175,229)" style="transform: none;"><g><path id="p16pQ4YaZy" d="M865 2834 c-11 -13 -28 -24 -37 -24 -10 0 -18 -1 -18 -2 0 -2 -7 -41 -15 -88 -8 -47 -15 -106 -15 -132 0 -41 3 -48 20 -48 13 0 20 7 20 20 0 19 8 19 393 15 215 -2 503 -7 638 -11 l247 -6 6 -29 c5 -24 11 -29 35 -29 34 0 37 8 47 128 6 70 5 82 -9 82 -10 0 -18 13 -22 40 -5 30 -11 40 -25 40 -19 0 -28 -7 -55 -45 -14 -20 -14 -20 -15 3 0 18 -6 22 -32 22 -136 0 -974 34 -1097 45 -13 1 -29 11 -35 22 -11 20 -11 20 -31 -3z"></path></g></g><g id="l6pZwlxNqwa0SgkOBBEo6v7" fill="rgb(253,183,226)" style="transform: none;"><g><path id="pVeo3ysO5" d="M827 2630 c-10 -12 -21 -18 -26 -16 -13 9 -32 -138 -25 -202 11 -115 13 -122 39 -122 13 0 26 4 29 9 9 14 132 21 556 31 232 5 456 6 565 0 99 -5 183 -6 187 -2 4 4 10 51 14 105 6 83 5 97 -9 97 -16 0 -27 20 -27 49 0 25 -43 44 -56 25 -8 -12 -88 -12 -519 -4 -280 5 -544 10 -585 12 -42 1 -81 -1 -88 -6 -8 -5 -15 2 -22 18 -11 31 -11 31 -33 6z"></path></g></g><g id="l24gdbAeMqj2xCxRjCXPoUB" fill="rgb(251,193,223)" style="transform: none;"><g><path id="p1DeCbBnnu" d="M825 2344 c-9 -15 -22 -23 -30 -20 -11 4 -12 0 -6 -17 4 -12 6 -27 4 -33 -5 -15 24 -196 39 -248 l12 -38 90 5 c50 3 188 13 306 21 402 28 756 40 799 28 21 -7 50 -12 63 -12 29 0 32 14 43 185 4 50 8 100 11 112 3 19 -2 22 -44 27 -101 13 -334 15 -742 6 -234 -6 -442 -12 -462 -15 -24 -3 -41 0 -51 10 -13 13 -17 11 -32 -11z"></path></g></g><g id="l3pGdAGpdqYpJO850NLwDOs" fill="rgb(249,208,219)" style="transform: none;"><g><path id="pq1qqg5xc" d="M1980 2083 c-216 -7 -562 -25 -770 -40 -129 -9 -267 -17 -306 -17 l-71 0 9 -34 c14 -52 45 -118 73 -159 20 -30 25 -50 25 -95 0 -32 -4 -58 -10 -58 -5 0 -10 -4 -10 -10 0 -5 13 -10 29 -10 25 0 29 4 35 40 6 36 9 40 44 45 20 4 60 11 87 16 53 10 363 41 600 60 78 6 194 9 261 5 l121 -6 11 72 c25 170 25 168 3 168 -13 0 -21 7 -21 18 0 14 -2 15 -10 2 -6 -9 -13 -11 -17 -5 -5 6 -42 9 -83 8z"></path></g></g><g id="ltyoWvIuzfazKJfoiBvM0Y" fill="rgb(248,221,215)" style="transform: none;"><g><path id="pRPACm1xh" d="M1875 1863 c-110 -5 -350 -25 -530 -43 -104 -11 -209 -21 -233 -22 -24 -1 -45 -5 -48 -10 -3 -5 -21 -6 -40 -2 -24 4 -34 2 -34 -6 0 -7 -7 -10 -14 -7 -11 5 -17 -6 -22 -39 -3 -25 -13 -48 -20 -51 -8 -3 -14 -11 -14 -18 0 -16 -12 -20 -98 -40 -217 -50 -418 -172 -481 -293 -7 -13 -15 -53 -18 -90 -11 -143 77 -251 223 -271 36 -6 72 -7 79 -4 18 6 120 -23 170 -50 60 -32 87 -54 108 -90 18 -29 19 -44 13 -177 -6 -121 -22 -264 -38 -329 -7 -30 32 -21 113 27 47 28 108 75 137 106 29 31 55 56 57 56 2 0 6 -48 7 -107 3 -107 3 -108 29 -111 79 -9 345 175 445 309 108 144 138 190 190 297 112 231 159 393 209 714 19 125 35 229 35 232 0 3 -6 6 -14 6 -8 0 -17 6 -19 13 -4 9 -8 9 -15 -2 -6 -7 -12 -9 -15 -3 -6 9 -48 10 -162 5z"></path></g></g></svg>
