<svg width="113" height="40" viewBox="0 0 113 40" fill="none" xmlns="http://www.w3.org/2000/svg">
<g clip-path="url(#clip0_462_8666)">
<path fill-rule="evenodd" clip-rule="evenodd" d="M0 0H38V6H43V18H41V26H43V33H39V37H34V40H24H6V36H0V0Z" fill="white"/>
<path d="M10 29V11H12.7273L18.6364 29H21.3636L27.2727 11H27.5M30 29V13.5" stroke="#020C13" stroke-width="2.5" stroke-linecap="square"/>
</g>
<path d="M61.064 29V12.2H66.416C67.952 12.2 69.328 12.552 70.544 13.256C71.776 13.96 72.736 14.952 73.424 16.232C74.112 17.512 74.456 18.968 74.456 20.6C74.456 22.232 74.112 23.688 73.424 24.968C72.736 26.248 71.776 27.24 70.544 27.944C69.328 28.648 67.952 29 66.416 29H61.064ZM66.416 27.56C67.648 27.56 68.76 27.272 69.752 26.696C70.744 26.12 71.52 25.304 72.08 24.248C72.656 23.192 72.944 21.976 72.944 20.6C72.944 19.224 72.656 18.008 72.08 16.952C71.52 15.896 70.744 15.08 69.752 14.504C68.76 13.928 67.648 13.64 66.416 13.64H62.576V27.56H66.416ZM82.1558 29.24C81.1158 29.24 80.1638 28.984 79.2998 28.472C78.4518 27.944 77.7798 27.208 77.2838 26.264C76.7878 25.32 76.5398 24.232 76.5398 23C76.5398 21.768 76.7878 20.68 77.2838 19.736C77.7798 18.792 78.4518 18.064 79.2998 17.552C80.1638 17.024 81.1158 16.76 82.1558 16.76C83.1958 16.76 84.1478 17.024 85.0118 17.552C85.8758 18.064 86.5558 18.792 87.0518 19.736C87.5478 20.68 87.7958 21.768 87.7958 23C87.7958 24.232 87.5478 25.32 87.0518 26.264C86.5558 27.208 85.8758 27.944 85.0118 28.472C84.1478 28.984 83.1958 29.24 82.1558 29.24ZM82.1558 27.896C82.9238 27.896 83.6278 27.696 84.2678 27.296C84.9078 26.88 85.4118 26.304 85.7798 25.568C86.1638 24.816 86.3558 23.96 86.3558 23C86.3558 22.04 86.1638 21.192 85.7798 20.456C85.4118 19.704 84.9078 19.128 84.2678 18.728C83.6278 18.312 82.9238 18.104 82.1558 18.104C81.3878 18.104 80.6838 18.312 80.0438 18.728C79.4038 19.128 78.8918 19.704 78.5078 20.456C78.1398 21.192 77.9558 22.04 77.9558 23C77.9558 23.96 78.1398 24.816 78.5078 25.568C78.8918 26.304 79.4038 26.88 80.0438 27.296C80.6838 27.696 81.3878 27.896 82.1558 27.896ZM95.2183 29.24C94.1783 29.24 93.2263 28.984 92.3623 28.472C91.5143 27.944 90.8423 27.208 90.3463 26.264C89.8503 25.32 89.6023 24.232 89.6023 23C89.6023 21.768 89.8503 20.68 90.3463 19.736C90.8423 18.792 91.5143 18.064 92.3623 17.552C93.2263 17.024 94.1783 16.76 95.2183 16.76C96.5143 16.76 97.6263 17.128 98.5543 17.864C99.4823 18.584 100.098 19.576 100.402 20.84H98.9863C98.7303 19.96 98.2663 19.288 97.5943 18.824C96.9223 18.344 96.1303 18.104 95.2183 18.104C94.4503 18.104 93.7463 18.312 93.1063 18.728C92.4663 19.128 91.9543 19.704 91.5703 20.456C91.2023 21.192 91.0183 22.04 91.0183 23C91.0183 23.96 91.2023 24.816 91.5703 25.568C91.9543 26.304 92.4663 26.88 93.1063 27.296C93.7463 27.696 94.4503 27.896 95.2183 27.896C96.1303 27.896 96.9223 27.648 97.5943 27.152C98.2663 26.656 98.7303 25.952 98.9863 25.04H100.402C100.098 26.352 99.4823 27.384 98.5543 28.136C97.6263 28.872 96.5143 29.24 95.2183 29.24ZM106.542 29.24C105.614 29.24 104.798 29.072 104.094 28.736C103.39 28.384 102.846 27.928 102.462 27.368C102.078 26.792 101.886 26.176 101.886 25.52H103.326C103.326 26.176 103.614 26.736 104.19 27.2C104.782 27.664 105.566 27.896 106.542 27.896C107.534 27.896 108.302 27.704 108.846 27.32C109.406 26.92 109.686 26.424 109.686 25.832C109.686 24.728 108.95 24.048 107.478 23.792L105.39 23.432C103.214 23.064 102.126 21.976 102.126 20.168C102.126 19.176 102.494 18.36 103.23 17.72C103.982 17.08 105.046 16.76 106.422 16.76C107.318 16.76 108.11 16.936 108.798 17.288C109.502 17.624 110.038 18.08 110.406 18.656C110.79 19.216 110.982 19.824 110.982 20.48H109.566C109.566 19.808 109.278 19.248 108.702 18.8C108.126 18.336 107.366 18.104 106.422 18.104C105.51 18.104 104.806 18.304 104.31 18.704C103.814 19.088 103.566 19.576 103.566 20.168C103.566 20.68 103.726 21.096 104.046 21.416C104.366 21.72 104.902 21.944 105.654 22.088L107.718 22.448C108.87 22.656 109.718 23.04 110.262 23.6C110.822 24.16 111.102 24.904 111.102 25.832C111.102 26.824 110.702 27.64 109.902 28.28C109.118 28.92 107.998 29.24 106.542 29.24Z" fill="white"/>
<defs>
<clipPath id="clip0_462_8666">
<rect width="43" height="40" fill="white"/>
</clipPath>
</defs>
</svg>
