<?xml version="1.0" encoding="UTF-8" standalone="no"?>
<!DOCTYPE svg PUBLIC "-//W3C//DTD SVG 1.1//EN" "http://www.w3.org/Graphics/SVG/1.1/DTD/svg11.dtd">
<svg width="100%" height="100%" viewBox="0 0 162 141" version="1.1" xmlns="http://www.w3.org/2000/svg" xmlns:xlink="http://www.w3.org/1999/xlink" xml:space="preserve" xmlns:serif="http://www.serif.com/" style="fill-rule:evenodd;clip-rule:evenodd;stroke-linejoin:round;stroke-miterlimit:2;">
    <g>
        <path d="M83.953,123.855C83.75,122.466 84.145,121.085 83.727,119.782C83.369,118.645 82.548,118.54 82.009,117.616C80.588,115.19 79.119,112.048 78.984,109.078C78.86,106.411 77.879,104.001 77.745,101.357C77.681,100.082 77.831,98.766 77.785,97.503C77.761,96.889 77.726,96.356 77.604,95.689C77.573,95.525 77.464,94.846 77.413,94.574L77.745,93.747C77.599,93.463 80.575,93.558 81.463,93.563C82.969,93.582 84.386,93.66 85.889,93.732C88.959,93.884 91.756,93.846 94.746,93.385C101.409,92.356 104.472,89.635 106.04,88.504C112.157,84.093 114.959,76.881 114.959,76.881C115.968,74.628 115.965,70.609 118.129,68.81C120.679,66.685 124.961,66.838 127.889,65.534C129.601,64.776 130.837,64.359 132.588,64.722C133.887,64.993 136.225,66.498 136.763,64.385C136.329,64.105 136.159,63.593 135.927,63.31C138.34,63.071 135.973,57.472 135.018,56.353C133.543,54.627 131.083,53.836 128.465,53.142C125.356,52.318 122.536,51.367 119.608,51.941C114.496,52.942 114.878,50.016 111.866,50.016C108.25,50.016 101.818,50.194 100.706,53.708C100.188,55.35 99.655,55.418 98.757,56.677C97.99,57.756 98.891,58.707 98.506,59.938C98.108,61.203 97.524,65.658 96.914,67.212C95.883,69.843 94.655,73.127 92.386,73.127C89.206,73.508 86.706,73.63 84.127,72.693C82.574,72.13 79.972,71.247 78.685,70.705C72.748,68.205 71.773,65.471 71.773,65.471C71.136,64.417 69.457,62.72 68.829,60.504C68.139,58.064 66.974,56.028 66.501,54.759C66.013,53.443 64.845,51.336 63.927,49.057C62.752,46.14 61.099,43.964 59.888,42.883C58.039,41.235 56.333,38.684 52.579,39.425C51.908,39.558 49.47,39.668 47.601,41.235C46.335,42.298 45.935,44.491 44.761,46.341C44.084,47.41 42.892,50.476 41.799,53.034C41.041,54.807 40.688,56.137 39.869,56.789C39.228,57.3 38.434,57.96 37.474,57.6C36.878,57.377 36.241,56.999 35.598,56.497C34.73,55.819 32.757,52.461 31.545,49.981C30.495,47.831 28.253,44.615 26.956,42.874C25.089,40.37 23.995,39.735 21.237,39.735C15.32,39.735 14.872,43.048 12.269,47.866C11.126,49.982 10.71,53.341 8.415,55.973C7.104,57.479 2.918,63.67 0.008,64.723L0.008,64.692L0,64.723L0,108.859L0.008,108.92L0.008,108.643C0.196,108.068 0.396,107.516 0.623,107.023C1.749,104.625 4.36,102.399 5.811,99.937C6.6,98.595 7.501,97.28 8.023,95.872C8.473,94.659 8.694,92.849 9.344,91.797C10.14,90.507 11.386,90.068 12.665,89.859C14.67,89.529 16.372,92.74 18.936,93.922C20.029,94.425 25.062,96.206 26.572,96.572C29.06,97.167 31.82,97.663 34.346,98.173C35.699,98.446 36.992,98.605 38.384,98.747C39.634,98.872 44.314,99.027 44.603,99.365C42.225,100.578 40.83,103.984 39.937,106.394C39.006,108.905 38.356,111.7 37.231,114.156C35.983,116.871 33.368,118 33.68,121.163C33.8,122.425 34.03,123.748 33.819,125.137C33.595,126.599 33.004,127.74 32.574,129.171C32.022,131.039 31.365,137.071 30.513,138.844L35.718,138.191L35.727,138.188C36.295,136.837 36.819,131.131 37.003,130.587C37.977,127.726 39.268,125.372 41.255,123.159C43.191,121.003 43.091,118.223 44.222,115.711C45.447,112.98 47.094,110.797 48.649,108.23C51.458,103.589 53.311,97.73 59.285,96.538C59.923,96.406 63.58,99.043 65.202,100.611C67.061,102.398 69.092,104.468 70.313,106.931C72.677,111.706 74.682,118.622 75.441,122.436C75.876,124.627 76.224,124.757 77.705,126.492C78.387,127.287 79.747,129.771 80.195,130.725C80.665,131.743 81.38,134.06 81.949,135.243C82.285,135.947 83.155,138.11 83.788,139.979L88.651,139.827C88.669,139.868 88.757,139.815 88.778,139.853C88.78,139.853 88.783,139.852 88.785,139.851C88.764,139.814 88.746,139.771 88.728,139.731C86.305,134.868 84.754,129.241 83.953,123.855Z" style="fill:white;fill-rule:nonzero;"/>
        <path d="M81.95,135.24C81.381,134.057 80.667,131.74 80.196,130.722C79.748,129.768 78.388,127.285 77.706,126.489C76.224,124.754 75.877,124.624 75.441,122.433C74.684,118.619 72.678,111.702 70.314,106.928C69.093,104.465 67.062,102.395 65.203,100.608C63.581,99.041 59.924,96.403 59.286,96.535C53.312,97.728 51.459,103.586 48.65,108.227C47.095,110.794 45.448,112.977 44.223,115.708C43.092,118.219 43.192,121 41.255,123.156C39.269,125.37 37.978,127.724 37.004,130.584C36.82,131.128 36.296,136.834 35.728,138.185C35.728,138.186 35.727,138.187 35.727,138.188L44.605,137.563C52.877,138.127 50.489,141.297 63.401,140.607L83.79,139.976C83.156,138.107 82.286,135.944 81.95,135.24Z" style="fill:url(#_Linear1);fill-rule:nonzero;"/>
        <path d="M141.112,0L20.348,0C9.116,0 0.01,9.108 0.01,20.341L0.01,64.721C2.92,63.668 7.106,57.477 8.417,55.971C10.712,53.338 11.128,49.979 12.271,47.864C14.874,43.046 15.322,39.733 21.239,39.733C23.997,39.733 25.092,40.369 26.958,42.872C28.256,44.613 30.498,47.83 31.547,49.979C32.758,52.46 34.732,55.817 35.6,56.495C36.243,56.998 36.88,57.375 37.475,57.599C38.435,57.958 39.229,57.298 39.871,56.787C40.69,56.135 41.043,54.805 41.801,53.032C42.895,50.474 44.086,47.409 44.763,46.339C45.937,44.49 46.336,42.296 47.603,41.233C49.472,39.666 51.91,39.556 52.581,39.423C56.335,38.682 58.041,41.233 59.89,42.881C61.101,43.962 62.755,46.139 63.929,49.055C64.847,51.334 66.015,53.441 66.503,54.757C66.975,56.026 68.141,58.062 68.831,60.502C69.458,62.718 71.137,64.415 71.775,65.469C71.775,65.469 72.751,68.203 78.687,70.703C79.974,71.245 82.576,72.127 84.129,72.691C86.708,73.629 89.207,73.507 92.388,73.125C94.657,73.125 95.885,69.841 96.916,67.21C97.526,65.656 98.11,61.201 98.508,59.936C98.893,58.705 97.992,57.754 98.759,56.675C99.657,55.416 100.19,55.348 100.708,53.706C101.821,50.192 108.252,50.014 111.868,50.014C114.881,50.014 114.498,52.94 119.61,51.939C122.538,51.365 125.359,52.317 128.467,53.14C131.085,53.834 133.545,54.625 135.02,56.351C135.975,57.469 138.341,63.069 135.929,63.308C136.161,63.591 136.33,64.103 136.764,64.383C136.227,66.496 133.888,64.991 132.589,64.72C130.839,64.357 129.603,64.774 127.891,65.532C124.963,66.836 120.681,66.684 118.131,68.808C115.967,70.608 115.97,74.627 114.961,76.879C114.961,76.879 112.159,84.09 106.042,88.502C104.474,89.633 101.411,92.354 94.748,93.383C91.758,93.845 88.961,93.883 85.891,93.73C84.388,93.658 82.971,93.581 81.465,93.561C80.577,93.555 77.6,93.46 77.747,93.745L77.415,94.572C77.467,94.844 77.575,95.524 77.606,95.687C77.727,96.355 77.762,96.888 77.787,97.501C77.833,98.764 77.683,100.081 77.747,101.356C77.881,103.999 78.862,106.409 78.986,109.076C79.121,112.046 80.59,115.188 82.011,117.614C82.55,118.537 83.371,118.643 83.729,119.78C84.148,121.083 83.751,122.465 83.955,123.853C84.755,129.238 86.306,134.866 88.73,139.725C88.747,139.765 88.766,139.809 88.787,139.845C88.787,139.845 88.787,139.846 88.788,139.847C91.782,139.344 94.781,138.267 98.672,137.692C105.805,136.634 115.725,137.179 122.097,136.582C138.22,135.067 146.971,143.195 161.453,139.864L161.453,20.342C161.451,9.108 152.348,0 141.112,0ZM80.866,95.477C80.843,95.233 80.854,95.267 80.888,95.417L80.866,95.477Z" style="fill:url(#_Linear2);fill-rule:nonzero;"/>
        <path d="M37.23,114.155C38.355,111.699 39.005,108.903 39.936,106.392C40.829,103.982 42.224,100.576 44.603,99.363C44.313,99.025 39.633,98.87 38.383,98.745C36.991,98.603 35.698,98.444 34.345,98.171C31.819,97.661 29.059,97.166 26.571,96.57C25.061,96.204 20.028,94.423 18.935,93.92C16.371,92.738 14.669,89.527 12.664,89.857C11.385,90.066 10.139,90.505 9.343,91.795C8.693,92.848 8.472,94.656 8.022,95.87C7.501,97.278 6.599,98.593 5.81,99.935C4.359,102.396 1.748,104.623 0.622,107.021C0.396,107.514 0.195,108.066 0.007,108.642L0.007,136.058C1.319,136.283 2.693,136.559 4.23,136.969C15.573,139.996 18.34,140.252 29.466,138.98L30.509,138.842L30.509,138.841C31.361,137.068 32.018,131.036 32.57,129.168C33,127.737 33.591,126.596 33.815,125.134C34.027,123.745 33.796,122.422 33.676,121.16C33.367,117.998 35.982,116.869 37.23,114.155Z" style="fill:url(#_Linear3);fill-rule:nonzero;"/>
    </g>
    <defs>
        <linearGradient id="_Linear1" x1="0" y1="0" x2="1" y2="0" gradientUnits="userSpaceOnUse" gradientTransform="matrix(2.70491e-15,44.1746,-44.1746,2.70491e-15,59.7582,96.53)"><stop offset="0" style="stop-color:rgb(242,145,0);stop-opacity:1"/><stop offset="1" style="stop-color:rgb(236,103,15);stop-opacity:1"/></linearGradient>
        <linearGradient id="_Linear2" x1="0" y1="0" x2="1" y2="0" gradientUnits="userSpaceOnUse" gradientTransform="matrix(8.61374e-15,140.673,-140.673,8.61374e-15,80.7311,-0.000195048)"><stop offset="0" style="stop-color:rgb(242,145,0);stop-opacity:1"/><stop offset="1" style="stop-color:rgb(236,103,15);stop-opacity:1"/></linearGradient>
        <linearGradient id="_Linear3" x1="0" y1="0" x2="1" y2="0" gradientUnits="userSpaceOnUse" gradientTransform="matrix(3.05354e-15,49.8681,-49.8681,3.05354e-15,22.3047,89.8335)"><stop offset="0" style="stop-color:rgb(242,145,0);stop-opacity:1"/><stop offset="1" style="stop-color:rgb(236,103,15);stop-opacity:1"/></linearGradient>
    </defs>
</svg>
