<?xml version="1.0" encoding="UTF-8" standalone="no"?>
<!-- Created with Inkscape (http://www.inkscape.org/) -->

<svg
   xmlns:dc="http://purl.org/dc/elements/1.1/"
   xmlns:cc="http://creativecommons.org/ns#"
   xmlns:rdf="http://www.w3.org/1999/02/22-rdf-syntax-ns#"
   xmlns:svg="http://www.w3.org/2000/svg"
   xmlns="http://www.w3.org/2000/svg"
   xmlns:sodipodi="http://sodipodi.sourceforge.net/DTD/sodipodi-0.dtd"
   xmlns:inkscape="http://www.inkscape.org/namespaces/inkscape"
   width="199.31241"
   height="70.189583"
   viewBox="0 0 52.734741 18.570993"
   version="1.1"
   id="svg3121"
   inkscape:version="0.92.0 r15299"
   sodipodi:docname="payoneer.svg">
  <defs
     id="defs3115" />
  <sodipodi:namedview
     id="base"
     pagecolor="#ffffff"
     bordercolor="#666666"
     borderopacity="1.0"
     inkscape:pageopacity="0.0"
     inkscape:pageshadow="2"
     inkscape:zoom="4.0441242"
     inkscape:cx="99.156203"
     inkscape:cy="34.594792"
     inkscape:document-units="mm"
     inkscape:current-layer="layer1"
     showgrid="false"
     fit-margin-top="0"
     fit-margin-left="0"
     fit-margin-right="0"
     fit-margin-bottom="0"
     units="px"
     inkscape:window-width="1280"
     inkscape:window-height="744"
     inkscape:window-x="-4"
     inkscape:window-y="-4"
     inkscape:window-maximized="1" />
  <metadata
     id="metadata3118">
    <rdf:RDF>
      <cc:Work
         rdf:about="">
        <dc:format>image/svg+xml</dc:format>
        <dc:type
           rdf:resource="http://purl.org/dc/dcmitype/StillImage" />
        <dc:title></dc:title>
      </cc:Work>
    </rdf:RDF>
  </metadata>
  <g
     inkscape:label="Layer 1"
     inkscape:groupmode="layer"
     id="layer1"
     transform="translate(-53.895874,-165.87389)">
    <g
       id="g3187"
       transform="translate(0.13229185,-0.13228321)">
      <g
         transform="matrix(0.35277777,0,0,-0.35277777,67.246115,167.62408)"
         id="g2666">
        <path
           inkscape:connector-curvature="0"
           id="path2668"
           style="fill:#ff4600;fill-opacity:1;fill-rule:nonzero;stroke:none"
           d="m 0,0 c 0.183,-4.148 3.767,-19.977 3.767,-19.977 1.317,-3.206 2.451,0 2.451,0 C 10.554,-6.973 1.693,0.563 1.693,0.563 -0.569,1.885 0,0 0,0 m 51.449,2.26 c 0,0 4.338,-3.015 0,-3.58 0,0 -16.209,-1.884 -28.27,-13.195 0,0 -18.095,-15.826 -24.878,-33.166 0,0 -2.262,0 -1.505,3.391 0.753,3.392 5.274,18.282 25.438,36.56 0,0 19.418,17.717 29.215,9.99" />
      </g>
      <g
         style="fill:#000000"
         transform="matrix(0.35277777,0,0,-0.35277777,56.305699,175.67792)"
         id="g2670">
        <path
           inkscape:connector-curvature="0"
           id="path2672"
           style="fill:#000000;fill-opacity:1;fill-rule:nonzero;stroke:none"
           d="M 0,0 C 0.716,-0.151 1.359,-0.225 2.303,-0.225 6,-0.225 8.491,2.153 8.491,5.173 8.491,7.89 6.567,8.87 4.078,8.87 2.981,8.87 2.151,8.794 1.623,8.645 Z m -2.076,11.777 c 1.548,0.379 3.851,0.604 6.115,0.604 2.379,0 4.87,-0.489 6.53,-1.812 1.472,-1.132 2.34,-2.79 2.34,-5.058 0,-3.018 -1.435,-5.474 -3.247,-6.907 C 7.625,-3.019 4.716,-3.812 1.697,-3.812 0.79,-3.812 0,-3.697 -0.68,-3.623 l -1.85,-9.626 h -4.301 z" />
      </g>
      <g
         style="fill:#000000"
         transform="matrix(0.35277777,0,0,-0.35277777,64.973241,174.98468)"
         id="g2674">
        <path
           inkscape:connector-curvature="0"
           id="path2676"
           style="fill:#000000;fill-opacity:1;fill-rule:nonzero;stroke:none"
           d="m 0,0 c -0.452,0.115 -1.017,0.188 -1.81,0.188 -4.039,0 -7.21,-4.569 -7.21,-8.759 0,-1.922 0.717,-3.509 2.643,-3.509 2.074,0 4.567,2.565 5.435,7.247 z m -1.773,-15.214 c 0,1.097 0.15,2.567 0.303,4.117 h -0.076 c -1.811,-3.362 -4.266,-4.531 -6.606,-4.531 -3.283,0 -5.437,2.567 -5.437,6.265 0,6.266 4.379,12.948 12.948,12.948 2,0 4.152,-0.377 5.587,-0.83 L 3.021,-6.833 C 2.491,-9.55 2.19,-13.024 2.266,-15.214 Z" />
      </g>
      <g
         style="fill:#000000"
         transform="matrix(0.35277777,0,0,-0.35277777,75.53082,177.78161)"
         id="g2678">
        <path
           inkscape:connector-curvature="0"
           id="path2680"
           style="fill:#000000;fill-opacity:1;fill-rule:nonzero;stroke:none"
           d="m 0,0 c 0,-2.526 1.321,-4.305 3.586,-4.305 3.284,0 5.474,4.532 5.474,8.193 0,1.889 -0.87,4.229 -3.51,4.229 C 2.039,8.117 0,3.435 0,0 m 13.589,3.924 c 0,-6.264 -4.342,-11.623 -10.606,-11.623 -4.645,0 -7.511,3.208 -7.511,7.588 0,6.226 4.34,11.624 10.606,11.624 4.944,0 7.511,-3.548 7.511,-7.589" />
      </g>
      <g
         style="fill:#000000"
         transform="matrix(0.35277777,0,0,-0.35277777,80.616395,180.35184)"
         id="g2682">
        <path
           inkscape:connector-curvature="0"
           id="path2684"
           style="fill:#000000;fill-opacity:1;fill-rule:nonzero;stroke:none"
           d="m 0,0 2.379,12.684 c 0.452,2.19 0.716,4.115 0.943,5.699 H 7.25 L 6.834,15.099 h 0.074 c 1.697,2.455 4.039,3.7 6.606,3.7 2.641,0 4.68,-1.587 4.68,-5.059 0,-0.829 -0.148,-2.112 -0.338,-3.019 L 15.852,0 h -4.416 l 1.961,10.381 c 0.117,0.679 0.229,1.472 0.229,2.19 0,1.548 -0.566,2.643 -2.302,2.643 -2,0 -4.568,-2.415 -5.36,-6.721 L 4.379,0 Z" />
      </g>
      <g
         style="fill:#000000"
         transform="matrix(0.35277777,0,0,-0.35277777,91.161273,174.87845)"
         id="g2686">
        <path
           inkscape:connector-curvature="0"
           id="path2688"
           style="fill:#000000;fill-opacity:1;fill-rule:nonzero;stroke:none"
           d="m 0,0 c -2.757,0 -4.567,-2.453 -5.095,-4.682 4.528,-0.037 7.437,0.567 7.437,2.793 C 2.342,-0.719 1.398,0 0,0 m 4.19,-14.457 c -1.813,-0.943 -4.264,-1.472 -6.493,-1.472 -5.091,0 -7.546,3.131 -7.546,7.624 0,5.549 4.074,11.588 10.416,11.588 3.623,0 5.926,-2.075 5.926,-5.172 0,-4.717 -4.943,-6.226 -12.039,-6.076 -0.077,-0.641 0.074,-1.886 0.49,-2.604 0.718,-1.247 2.035,-1.888 3.774,-1.888 2.078,0 3.736,0.529 5.061,1.208 z" />
      </g>
      <g
         style="fill:#000000"
         transform="matrix(0.35277777,0,0,-0.35277777,97.192223,174.87845)"
         id="g2690">
        <path
           inkscape:connector-curvature="0"
           id="path2692"
           style="fill:#000000;fill-opacity:1;fill-rule:nonzero;stroke:none"
           d="m 0,0 c -2.754,0 -4.567,-2.453 -5.095,-4.682 4.528,-0.037 7.437,0.567 7.437,2.793 C 2.342,-0.719 1.398,0 0,0 m 4.19,-14.457 c -1.81,-0.943 -4.264,-1.472 -6.489,-1.472 -5.095,0 -7.55,3.131 -7.55,7.624 0,5.549 4.074,11.588 10.416,11.588 3.623,0 5.93,-2.075 5.93,-5.172 0,-4.717 -4.947,-6.226 -12.043,-6.076 -0.078,-0.641 0.074,-1.886 0.49,-2.604 0.718,-1.247 2.038,-1.888 3.774,-1.888 2.078,0 3.736,0.529 5.061,1.208 z" />
      </g>
      <g
         style="fill:#000000"
         transform="matrix(0.35277777,0,0,-0.35277777,99.576082,180.35184)"
         id="g2694">
        <path
           inkscape:connector-curvature="0"
           id="path2696"
           style="fill:#000000;fill-opacity:1;fill-rule:nonzero;stroke:none"
           d="m 0,0 2.151,11.325 c 0.49,2.604 0.754,5.435 0.94,7.058 H 6.905 C 6.792,17.138 6.68,15.855 6.49,14.532 h 0.112 c 1.251,2.455 3.247,4.267 5.74,4.267 0.342,0 0.68,-0.039 0.983,-0.039 l -0.87,-4.303 c -0.226,0.039 -0.528,0.039 -0.831,0.039 C 8.489,14.496 6.49,11.325 5.775,7.4 L 4.377,0 Z" />
      </g>
      <g
         style="fill:#000000"
         transform="matrix(0.35277777,0,0,-0.35277777,105.45495,174.45992)"
         id="g2698">
        <path
           inkscape:connector-curvature="0"
           id="path2700"
           style="fill:#000000;fill-opacity:1;fill-rule:nonzero;stroke:none"
           d="M 0,0 H 0.322 C 0.652,0 0.87,0.184 0.87,0.462 0.87,0.775 0.641,0.912 0.311,0.912 0.159,0.912 0.051,0.901 0,0.889 Z m -0.315,1.109 c 0.16,0.029 0.389,0.05 0.602,0.05 0.334,0 0.556,-0.068 0.703,-0.2 0.121,-0.107 0.191,-0.274 0.191,-0.466 0,-0.316 -0.199,-0.53 -0.455,-0.615 V -0.134 C 0.912,-0.198 1.021,-0.373 1.083,-0.625 1.161,-0.961 1.219,-1.198 1.27,-1.293 H 0.944 C 0.905,-1.219 0.85,-1.014 0.788,-0.711 0.714,-0.375 0.579,-0.251 0.295,-0.239 H 0 v -1.054 h -0.315 z" />
      </g>
      <g
         style="fill:#000000"
         transform="matrix(0.35277777,0,0,-0.35277777,105.59874,173.72015)"
         id="g2702">
        <path
           inkscape:connector-curvature="0"
           id="path2704"
           style="fill:#000000;fill-opacity:1;fill-rule:nonzero;stroke:none"
           d="m 0,0 c -1.2,0 -2.175,-0.975 -2.175,-2.175 0,-1.2 0.975,-2.176 2.175,-2.176 1.2,0 2.175,0.976 2.175,2.176 C 2.175,-0.975 1.2,0 0,0 m 0,-0.336 c 1.014,0 1.837,-0.821 1.837,-1.839 0,-1.017 -0.823,-1.841 -1.837,-1.841 -1.017,0 -1.841,0.824 -1.841,1.841 0,1.018 0.824,1.839 1.841,1.839" />
      </g>
    </g>
  </g>
</svg>
