<svg height="302" viewBox="0 0 283 302" width="283" xmlns="http://www.w3.org/2000/svg" xmlns:xlink="http://www.w3.org/1999/xlink"><defs><path id="a" d="m141.5 0-141.1356383 50.132 21.5265957 185.881 119.6090426 65.987 119.609043-65.987 21.526595-185.881z"/><mask id="b" fill="#fff"><use fill="none" xlink:href="#a"/></mask></defs><g fill="none" fill-rule="evenodd"><g transform=""><use fill="#dd0031" fill-rule="nonzero" xlink:href="#a"/><path d="m141.5 0v33.522-.151 152.963 115.666l119.609043-65.987 21.526595-185.881z" fill="#c3002f" mask="url(#b)"/></g><g transform="translate(55 53)"><path d="m127.869565 90.2290076-13.53913-3.0076336 10.530435 15.038168v46.618321l36.104347-30.076336v-51.1297713l-16.547826 6.0152672z" fill="#fff" fill-rule="nonzero"/><path d="m24.0695652 90.2290076-13.5391304-3.0076336 10.5304348 15.038168v46.618321l36.1043478-30.076336v-51.1297713l-16.5478261 6.0152672z" fill="#fff" fill-rule="nonzero" transform="matrix(-1 0 0 1 67.695652 0)"/><path d="m51.1478261 105.267176 12.0347826-18.045802 7.5217391 4.5114504h30.0869562l7.521739-4.5114504 12.034783 18.045802v67.671755l-9.026087 13.534351-10.530435 10.526718h-30.0869562l-10.5304348-10.526718-9.0260869-13.534351z" fill="#fff"/><g fill="#c3002f" transform="translate(96.278261 130.832061)"><path d="m2.46252758 9.1047113 25.85788172 1.1115509-3.704676 4.7400952-25.85788173-1.1115509z" transform="matrix(.78801075 -.61566148 .61566148 .78801075 -4.536586 10.885865)"/><path d="m2.46252758 21.1352457 25.85788172 1.1115508-3.704676 4.7400952-25.85788173-1.1115508z" transform="matrix(.78801075 -.61566148 .61566148 .78801075 -11.943323 13.436209)"/><path d="m2.46252758 33.16578 25.85788172 1.1115509-3.704676 4.7400952-25.85788173-1.1115509z" transform="matrix(.78801075 -.61566148 .61566148 .78801075 -19.35006 15.986552)"/></g><g fill="#dd0031" transform="translate(48.13913 130.832061)"><path d="m2.46252758 9.1047113 25.85788172 1.1115509-3.704676 4.7400952-25.85788173-1.1115509z" transform="matrix(-.78801075 -.61566148 -.61566148 .78801075 31.614846 10.885865)"/><path d="m2.46252758 21.1352457 25.85788172 1.1115508-3.704676 4.7400952-25.85788173-1.1115508z" transform="matrix(-.78801075 -.61566148 -.61566148 .78801075 39.021583 13.436209)"/><path d="m2.46252758 33.16578 25.85788172 1.1115509-3.704676 4.7400952-25.85788173-1.1115509z" transform="matrix(-.78801075 -.61566148 -.61566148 .78801075 46.42832 15.986552)"/></g><g fill="#fff"><path d="m124.86087 177.450382 19.556521-19.549619v-19.549618l-19.556521 16.541985z" fill-rule="nonzero"/><path d="m27.0782609 177.450382 19.5565217-19.549619v-19.549618l-19.5565217 16.541985z" fill-rule="nonzero" transform="matrix(-1 0 0 1 73.713044 0)"/><path d="m76.7217391 0h6.0173913v85.7175573h-9.0260869l-19.5565218-57.1450382 12.0347826-28.5725191h4.5130435v34.5877863l6.0173913 3.0076335zm12.0347826 0h6.0173913v37.5954198l6.017391-3.0076335v-34.5877863h4.513044l12.034782 28.5725191-18.0521735 57.1450382h-10.5304348z"/><path d="m73.7130435 85.7175573-64.68695654-24.0610688-9.02608696-37.5954198 55.6608696 4.5114504 19.5565217 57.1450382z" fill-rule="nonzero"/><path d="m171.495652 85.7175573-64.686956-24.0610688-9.0260873-37.5954198 57.1652173 4.5114504 18.052174 57.1450382z" fill-rule="nonzero" transform="matrix(-1 0 0 1 270.782608 0)"/><path d="m120.347826 24.0610687 31.591304-3.0076336-21.060869-21.0534351h-21.06087z" fill-rule="nonzero"/><path d="m30.0869565 24.0610687 31.5913044-3.0076336-21.0608696-21.0534351h-21.0608696z" fill-rule="nonzero" transform="matrix(-1 0 0 1 81.234782 0)"/></g></g></g></svg>