<?xml version="1.0" encoding="UTF-8"?>
<svg width="371px" height="85px" viewBox="0 0 371 85" version="1.1" xmlns="http://www.w3.org/2000/svg" xmlns:xlink="http://www.w3.org/1999/xlink">
    <!-- Generator: Sketch 50.2 (55047) - http://www.bohemiancoding.com/sketch -->
    <title>primefaces-logo</title>
    <desc>Created with Sketch.</desc>
    <defs>
        <polygon id="path-1" points="0 83 371.441 83 371.441 0.004 0 0.004"></polygon>
    </defs>
    <g id="Page-1" stroke="none" stroke-width="1" fill="none" fill-rule="evenodd">
        <g id="PrimeFaces-Logo" transform="translate(-5.000000, -6.000000)">
            <g id="primefaces-logo" transform="translate(5.000000, 6.000000)">
                <polygon id="bg-text" fill="#263238" points="0 32 9.81430748 41.9569442 9.81430748 67.1418637 15.7042903 73 355.296709 73 361.184694 67.1418637 361.184694 41.7622359 371 32"></polygon>
                <g id="text" transform="translate(0.000000, 1.000000)">
                    <mask id="mask-2" fill="white">
                        <use xlink:href="#path-1"></use>
                    </mask>
                    <g id="Clip-19"></g>
                    <path d="M26.267,50.463 L40.702,50.463 L40.702,44.413 L26.267,44.413 L26.267,50.463 Z M40.984,38.93 C43.885,38.93 46.256,41.3 46.256,44.166 L46.256,50.746 C46.256,53.612 43.885,55.982 40.984,55.982 L26.267,56.018 C26.338,56.018 26.373,56.088 26.373,56.23 C26.373,56.23 26.302,56.23 26.267,56.194 L26.267,64.366 L20.783,64.366 L20.783,38.93 L40.984,38.93 Z" id="P" fill="#40C4FF" mask="url(#mask-2)"></path>
                    <path d="M54.213,50.463 L68.647,50.463 L68.647,44.413 L54.213,44.413 L54.213,50.463 Z M74.201,50.746 C74.201,53.612 71.831,55.982 68.93,55.982 L68.683,55.982 C70.486,58.105 72.433,60.369 74.201,62.491 L74.201,64.366 L68.541,64.366 L61.501,55.982 L54.213,56.018 C54.283,56.018 54.318,56.088 54.318,56.23 C54.318,56.23 54.248,56.23 54.213,56.194 L54.213,64.366 L48.729,64.366 L48.729,38.93 L68.93,38.93 C71.831,38.93 74.201,41.3 74.201,44.166 L74.201,50.746 Z" id="R" fill="#40C4FF" mask="url(#mask-2)"></path>
                    <polygon id="I" fill="#40C4FF" mask="url(#mask-2)" points="77.984 64.367 83.504 64.367 83.504 38.894 77.984 38.894"></polygon>
                    <path d="M108.6212,38.8936 L114.3172,38.8936 L114.3172,64.3666 L108.7972,64.3666 L108.7972,47.2786 C105.9322,50.6746 102.8542,54.4256 100.0232,57.7506 L91.2152,47.3146 L91.2152,64.3666 L85.7302,64.3666 L85.7302,38.8936 L91.3922,38.8936 L100.0232,49.1896 L108.6212,38.8936 Z" id="M" fill="#40C4FF" mask="url(#mask-2)"></path>
                    <polygon id="E" fill="#40C4FF" mask="url(#mask-2)" points="142.1563 44.4131 124.1853 44.4131 124.1853 48.8711 138.6543 48.8711 138.6543 54.3911 124.1853 54.3911 124.1853 58.8481 142.1563 58.8481 142.1563 64.3661 118.6303 64.3661 118.6303 38.8931 142.1563 38.8931"></polygon>
                    <polygon id="F" fill="#ECEFF1" mask="url(#mask-2)" points="237.7413 38.8936 237.7413 44.4136 219.7673 44.4136 219.7673 48.8716 234.2383 48.8716 234.2383 54.3906 219.7673 54.3906 219.7673 64.3666 214.2143 64.3666 214.2143 38.8936"></polygon>
                    <path d="M245.273,50.64 L259.708,50.64 L259.708,44.413 L245.273,44.413 L245.273,50.64 Z M259.991,38.894 C262.893,38.894 265.263,41.229 265.263,44.13 L265.263,64.366 L259.708,64.366 L259.708,56.159 L245.273,56.159 L245.273,64.366 L239.79,64.366 L239.79,44.13 C239.79,41.229 242.125,38.894 245.026,38.894 L259.991,38.894 Z" id="A" fill="#ECEFF1" mask="url(#mask-2)"></path>
                    <path d="M274.7774,44.4131 L274.7774,58.8481 L294.6954,58.8481 L294.6954,64.3661 L274.5294,64.3661 C271.6294,64.3661 269.2934,62.0321 269.2934,59.1311 L269.2934,44.1301 C269.2934,41.2281 271.6294,38.8931 274.5294,38.8931 L294.6954,38.8931 L294.6954,44.4131 L274.7774,44.4131 Z" id="C" fill="#ECEFF1" mask="url(#mask-2)"></path>
                    <polygon id="E" fill="#ECEFF1" mask="url(#mask-2)" points="321.9688 44.4131 303.9968 44.4131 303.9968 48.8711 318.4658 48.8711 318.4658 54.3911 303.9968 54.3911 303.9968 58.8481 321.9688 58.8481 321.9688 64.3661 298.4428 64.3661 298.4428 38.8931 321.9688 38.8931"></polygon>
                    <path d="M350.7637,46.5 L345.2097,46.5 L345.2097,44.413 L330.7757,44.413 L330.7757,48.871 L345.5287,48.871 C348.3937,48.871 350.7637,51.206 350.7637,54.107 L350.7637,59.131 C350.7637,62.032 348.3937,64.366 345.5287,64.366 L330.5277,64.366 C327.6257,64.366 325.2917,62.032 325.2917,59.131 L325.2917,56.761 L330.7757,56.761 L330.7757,58.848 L345.2097,58.848 L345.2097,54.391 L330.5277,54.391 C327.6257,54.391 325.2917,52.055 325.2917,49.153 L325.2917,44.13 C325.2917,41.229 327.6257,38.894 330.5277,38.894 L345.5287,38.894 C348.3937,38.894 350.7637,41.229 350.7637,44.13 L350.7637,46.5 Z" id="S" fill="#ECEFF1" mask="url(#mask-2)"></path>
                </g>
                <g id="head" transform="translate(140.000000, 0.000000)">
                    <polygon id="bg" fill="#263238" points="21.6326413 0 12.80451 9.75806063 0 7.32059376 7.12527926 32.190949 11.862897 62.4903007 30.5422976 85 46.987915 85 65.4319123 62.5517495 70.4039142 31.9646128 78 7.32059376 65.3126821 9.75806063 56.1502985 0"></polygon>
                    <g id="primefaces" transform="translate(8.000000, 6.000000)">
                        <polygon id="chick-right" fill="#D0D8DC" fill-rule="nonzero" points="46.5652174 32.9770992 41.6347826 31.8778626 45.4695652 37.3740458 45.4695652 54.4122137 58.6173913 43.4198473 58.6173913 24.7328244 52.5913043 26.9312977"></polygon>
                        <polygon id="chick-left" fill="#D0D8DC" fill-rule="nonzero" transform="translate(12.326087, 39.572519) scale(-1, 1) translate(-12.326087, -39.572519) " points="8.76521739 32.9770992 3.83478261 31.8778626 7.66956522 37.3740458 7.66956522 54.4122137 20.8173913 43.4198473 20.8173913 24.7328244 14.7913043 26.9312977"></polygon>
                        <polygon id="mask" fill="#D0D8DC" points="18.626087 38.4732824 23.0086957 31.8778626 25.7478261 33.5267176 36.7043478 33.5267176 39.4434783 31.8778626 43.826087 38.4732824 43.826087 63.2061069 40.5391304 68.1526718 36.7043478 72 25.7478261 72 21.9130435 68.1526718 18.626087 63.2061069"></polygon>
                        <g id="mask-effect-right" transform="translate(35.060870, 48.916031)" fill="#263238">
                            <polygon id="line" transform="translate(4.930435, 4.396947) rotate(-38.000000) translate(-4.930435, -4.396947) " points="0.896758598 3.32761022 10.3132126 3.73386232 8.96411097 5.46628291 -0.452343069 5.06003081"></polygon>
                            <polygon id="line" transform="translate(4.930435, 8.244275) rotate(-38.000000) translate(-4.930435, -8.244275) " points="0.896758598 7.17493847 10.3132126 7.58119056 8.96411097 9.31361115 -0.452343069 8.90735906"></polygon>
                            <polygon id="line" transform="translate(4.930435, 12.091603) rotate(-38.000000) translate(-4.930435, -12.091603) " points="0.896758598 11.0222667 10.3132126 11.4285188 8.96411097 13.1609394 -0.452343069 12.7546873"></polygon>
                        </g>
                        <g id="mask-effect-left" transform="translate(17.530435, 48.366412)" fill="#263238">
                            <polygon id="line" transform="translate(4.930435, 4.396947) scale(-1, 1) rotate(-38.000000) translate(-4.930435, -4.396947) " points="0.896758598 3.32761022 10.3132126 3.73386232 8.96411097 5.46628291 -0.452343069 5.06003081"></polygon>
                            <polygon id="line" transform="translate(4.930435, 8.244275) scale(-1, 1) rotate(-38.000000) translate(-4.930435, -8.244275) " points="0.896758598 7.17493847 10.3132126 7.58119056 8.96411097 9.31361115 -0.452343069 8.90735906"></polygon>
                            <polygon id="line" transform="translate(4.930435, 12.091603) scale(-1, 1) rotate(-38.000000) translate(-4.930435, -12.091603) " points="0.896758598 11.0222667 10.3132126 11.4285188 8.96411097 13.1609394 -0.452343069 12.7546873"></polygon>
                        </g>
                        <polygon id="bottom-chick-right" fill="#7A858A" fill-rule="nonzero" points="45.4695652 64.8549618 52.5913043 57.7099237 52.5913043 50.5648855 45.4695652 56.610687"></polygon>
                        <polygon id="bottom-chick-left" fill="#7A858A" fill-rule="nonzero" transform="translate(13.421739, 57.709924) scale(-1, 1) translate(-13.421739, -57.709924) " points="9.86086957 64.8549618 16.9826087 57.7099237 16.9826087 50.5648855 9.86086957 56.610687"></polygon>
                        <path d="M27.9391304,0 L30.1304348,0 L30.1304348,31.3282443 L26.8434783,31.3282443 L19.7217391,10.4427481 L24.1043478,0 L25.7478261,0 L25.7478261,12.6412214 L27.9391304,13.740458 L27.9391304,0 Z M32.3217391,0 L34.5130435,0 L34.5130435,13.740458 L36.7043478,12.6412214 L36.7043478,1.91846539e-13 L38.3478261,0 L42.7304348,10.4427481 L36.1565217,31.3282443 L32.3217391,31.3282443 L32.3217391,0 Z" id="head" fill="#D0D8DC"></path>
                        <polygon id="head-left" fill="#D0D8DC" fill-rule="nonzero" points="26.8434783 31.3282443 3.28695652 22.5343511 0 8.79389313 21 10.5 28 31.3282443"></polygon>
                        <polygon id="head-right" fill="#D0D8DC" fill-rule="nonzero" transform="translate(49.000000, 20.061069) scale(-1, 1) translate(-49.000000, -20.061069) " points="61.8434783 31.3282443 38.2869565 22.5343511 35 8.79389313 56 10.5 63 31.3282443"></polygon>
                        <polygon id="ear-right" fill="#D0D8DC" fill-rule="nonzero" points="43.826087 8.79389313 55.3304348 7.69465649 47.6608696 0 39.9913043 0"></polygon>
                        <polygon id="ear-left" fill="#D0D8DC" fill-rule="nonzero" transform="translate(14.791304, 4.396947) scale(-1, 1) translate(-14.791304, -4.396947) " points="10.9565217 8.79389313 22.4608696 7.69465649 14.7913043 0 7.12173913 0"></polygon>
                    </g>
                </g>
            </g>
        </g>
    </g>
</svg>