<?xml version="1.0" encoding="UTF-8" standalone="no"?>
<!DOCTYPE svg PUBLIC "-//W3C//DTD SVG 1.1//EN" "http://www.w3.org/Graphics/SVG/1.1/DTD/svg11.dtd">
<svg width="100%" height="100%" viewBox="0 0 341 371" version="1.1" xmlns="http://www.w3.org/2000/svg" xmlns:xlink="http://www.w3.org/1999/xlink" xml:space="preserve" xmlns:serif="http://www.serif.com/" style="fill-rule:evenodd;clip-rule:evenodd;stroke-linejoin:round;stroke-miterlimit:2;">
    <g transform="matrix(1,0,0,1,-23.1326,-34.3541)">
        <path d="M80.59,152.05C80.73,151.763 80.84,151.327 80.92,150.74C81.87,143.92 82.33,136.24 85.07,133.32C115.65,100.807 146.533,67.863 177.72,34.49C177.88,34.323 178.053,34.31 178.24,34.45C179.293,35.27 180.483,36.003 181.81,36.65C229.37,59.96 277.05,83.24 323.85,108.05C324.557,108.429 325.096,109.065 325.36,109.83L341.49,157.26C341.943,158.6 342.86,159.42 344.24,159.72L361.25,163.39C362.444,163.648 363.281,164.745 363.21,165.96C360.657,211.56 358.133,256.79 355.64,301.65C355.567,303.003 355.13,304.427 354.33,305.92C345.27,322.827 336.17,339.713 327.03,356.58C325.67,359.1 324.35,362.4 322.75,365.26C322.49,365.731 321.942,365.97 321.42,365.84C319.62,365.4 317.95,364.81 316.17,364.57C296.183,361.857 276.187,359.153 256.18,356.46C254.979,356.302 253.756,356.443 252.62,356.87L125.71,405.18C124.976,405.458 124.14,405.221 123.66,404.6C105.653,381.467 87.71,358.443 69.83,335.53C68.18,333.43 64.8,328.67 61.99,325.4C61.017,324.267 60.35,323.017 59.99,321.65C47.757,275.09 35.487,228.383 23.18,181.53C23.04,180.99 23.21,180.583 23.69,180.31C25.997,179.017 28.457,177.713 31.07,176.4C47.07,168.387 63.133,160.703 79.26,153.35C79.841,153.085 80.312,152.625 80.59,152.05ZM318.32,108.91C273.39,86.38 228.03,64.47 182.44,42.1C181.74,41.76 181.463,41.973 181.61,42.74L198.98,133.95C199.227,135.27 199.97,136.19 201.21,136.71L279.07,169.3C279.458,169.468 279.896,169.496 280.31,169.38C295.17,165.28 309.87,161.167 324.41,157.04C329.01,155.73 331.8,155.8 336.04,157.38C336.09,157.398 336.142,157.407 336.195,157.407C336.442,157.407 336.645,157.204 336.645,156.957C336.645,156.907 336.636,156.857 336.62,156.81C331.447,142.19 326.403,127.453 321.49,112.6C320.79,110.49 320.21,109.86 318.32,108.91ZM85.72,149.18C85.718,149.193 85.717,149.206 85.717,149.22C85.717,149.346 85.82,149.45 85.947,149.45C85.979,149.45 86.011,149.443 86.04,149.43C104.64,140.823 123.3,132.19 142.02,123.53C145.17,122.07 146.56,123.46 146.87,126.63C147.103,128.897 147.42,131.153 147.82,133.4C148.87,139.29 149.15,145.13 150.28,150.99C150.92,154.25 150.91,158.51 151.6,162.28C152.293,166.073 152.817,169.89 153.17,173.73C153.199,173.998 153.427,174.204 153.697,174.204C153.832,174.204 153.962,174.152 154.06,174.06L193.96,136.76C194.353,136.386 194.53,135.836 194.43,135.3L176.87,43.03C176.813,42.746 176.561,42.541 176.272,42.541C176.078,42.541 175.895,42.633 175.78,42.79C175.22,43.57 174.54,44.387 173.74,45.24C145.667,75.327 117.557,105.383 89.41,135.41C86.41,138.61 86.51,144.47 85.72,149.18ZM149.42,182.81C149.293,182.41 149.187,181.887 149.1,181.24C146.78,164.273 144.607,147.543 142.58,131.05C142.571,130.983 142.558,130.917 142.539,130.852C142.338,130.156 141.605,129.747 140.914,129.947C140.848,129.966 140.783,129.99 140.72,130.02L29.39,181.26C28.522,181.655 28.059,182.627 28.3,183.55L63.75,318.29C63.83,318.59 64.02,318.707 64.32,318.64C65.26,318.44 66.403,318.063 67.75,317.51C133.83,290.47 199.82,263.203 265.72,235.71C265.987,235.597 266.07,235.407 265.97,235.14L237.68,160.95C237.276,159.893 236.115,159.312 235.02,159.62L150.51,183.4C150.046,183.53 149.558,183.266 149.42,182.81ZM256.1,195.34C256.4,196.133 256.813,196.873 257.34,197.56C257.547,197.827 257.813,198 258.14,198.08C264.72,199.69 271.33,199.93 277.86,201.04C280.473,201.487 283.1,201.84 285.74,202.1C291.4,202.65 297,203.83 302.73,204.28C306.55,204.58 310.6,205.64 313.75,205.89C319.97,206.383 325.063,207.05 329.03,207.89C330.177,208.137 331.113,207.7 331.84,206.58C339.707,194.34 347.823,181.567 356.19,168.26C356.697,167.46 356.487,166.973 355.56,166.8C347.847,165.32 339.89,163.55 331.69,161.49C329.797,161.01 327.91,161.037 326.03,161.57C301.39,168.603 276.753,175.61 252.12,182.59C252.11,182.593 252.099,182.596 252.089,182.599C251.75,182.709 251.56,183.075 251.669,183.409C251.672,183.419 251.676,183.43 251.68,183.44C253.107,187.36 254.58,191.327 256.1,195.34ZM318.92,359.12L329.33,213.74C329.383,212.953 329.02,212.51 328.24,212.41L260.19,203.52C259.53,203.433 259.32,203.697 259.56,204.31L289.41,280.29C289.883,281.503 289.65,282.56 288.71,283.46C267.723,303.467 246.607,323.683 225.36,344.11C224.56,344.883 223.9,345.7 223.38,346.56C223.331,346.64 223.305,346.732 223.305,346.826C223.305,347.077 223.491,347.293 223.74,347.33L317.76,360.06C317.807,360.067 317.855,360.07 317.902,360.07C318.436,360.07 318.883,359.652 318.92,359.12Z" style="fill:rgb(55,56,34);fill-rule:nonzero;"/>
    </g>
    <g transform="matrix(1,0,0,1,-23.1326,-34.3541)">
        <path d="M182.44,42.1C228.03,64.47 273.39,86.38 318.32,108.91C320.21,109.86 320.79,110.49 321.49,112.6C326.403,127.453 331.447,142.19 336.62,156.81C336.636,156.857 336.645,156.907 336.645,156.957C336.645,157.204 336.442,157.407 336.195,157.407C336.142,157.407 336.09,157.398 336.04,157.38C331.8,155.8 329.01,155.73 324.41,157.04C309.87,161.167 295.17,165.28 280.31,169.38C279.896,169.496 279.458,169.468 279.07,169.3L201.21,136.71C199.97,136.19 199.227,135.27 198.98,133.95L181.61,42.74C181.463,41.973 181.74,41.76 182.44,42.1Z" style="fill:rgb(121,121,82);fill-rule:nonzero;"/>
    </g>
    <g transform="matrix(1,0,0,1,-23.1326,-34.3541)">
        <path d="M85.72,149.18C86.51,144.47 86.41,138.61 89.41,135.41C117.557,105.383 145.667,75.327 173.74,45.24C174.54,44.387 175.22,43.57 175.78,42.79C175.895,42.633 176.078,42.541 176.272,42.541C176.561,42.541 176.813,42.746 176.87,43.03L194.43,135.3C194.53,135.836 194.353,136.386 193.96,136.76L154.06,174.06C153.962,174.152 153.832,174.204 153.697,174.204C153.427,174.204 153.199,173.998 153.17,173.73C152.817,169.89 152.293,166.073 151.6,162.28C150.91,158.51 150.92,154.25 150.28,150.99C149.15,145.13 148.87,139.29 147.82,133.4C147.42,131.153 147.103,128.897 146.87,126.63C146.56,123.46 145.17,122.07 142.02,123.53C123.3,132.19 104.64,140.823 86.04,149.43C86.011,149.443 85.979,149.45 85.947,149.45C85.82,149.45 85.717,149.346 85.717,149.22C85.717,149.206 85.718,149.193 85.72,149.18Z" style="fill:rgb(195,195,143);fill-rule:nonzero;"/>
    </g>
    <g transform="matrix(1,0,0,1,-23.1326,-34.3541)">
        <path d="M149.42,182.81C149.558,183.266 150.046,183.53 150.51,183.4L235.02,159.62C236.115,159.312 237.276,159.893 237.68,160.95L265.97,235.14C266.07,235.407 265.987,235.597 265.72,235.71C199.82,263.203 133.83,290.47 67.75,317.51C66.403,318.063 65.26,318.44 64.32,318.64C64.02,318.707 63.83,318.59 63.75,318.29L28.3,183.55C28.059,182.627 28.522,181.655 29.39,181.26L140.72,130.02C140.783,129.99 140.848,129.966 140.914,129.947C141.605,129.747 142.338,130.156 142.539,130.852C142.558,130.917 142.571,130.983 142.58,131.05C144.607,147.543 146.78,164.273 149.1,181.24C149.187,181.887 149.293,182.41 149.42,182.81Z" style="fill:rgb(195,195,143);fill-rule:nonzero;"/>
    </g>
    <g transform="matrix(1,0,0,1,-23.1326,-34.3541)">
        <path d="M256.1,195.34C254.58,191.327 253.107,187.36 251.68,183.44C251.676,183.43 251.672,183.419 251.669,183.409C251.56,183.075 251.75,182.709 252.089,182.599C252.099,182.596 252.11,182.593 252.12,182.59C276.753,175.61 301.39,168.603 326.03,161.57C327.91,161.037 329.797,161.01 331.69,161.49C339.89,163.55 347.847,165.32 355.56,166.8C356.487,166.973 356.697,167.46 356.19,168.26C347.823,181.567 339.707,194.34 331.84,206.58C331.113,207.7 330.177,208.137 329.03,207.89C325.063,207.05 319.97,206.383 313.75,205.89C310.6,205.64 306.55,204.58 302.73,204.28C297,203.83 291.4,202.65 285.74,202.1C283.1,201.84 280.473,201.487 277.86,201.04C271.33,199.93 264.72,199.69 258.14,198.08C257.813,198 257.547,197.827 257.34,197.56C256.813,196.873 256.4,196.133 256.1,195.34Z" style="fill:rgb(195,195,143);fill-rule:nonzero;"/>
    </g>
    <g transform="matrix(1,0,0,1,-23.1326,-34.3541)">
        <path d="M329.33,213.74L318.92,359.12C318.883,359.652 318.436,360.07 317.902,360.07C317.855,360.07 317.807,360.067 317.76,360.06L223.74,347.33C223.491,347.293 223.305,347.077 223.305,346.826C223.305,346.732 223.331,346.64 223.38,346.56C223.9,345.7 224.56,344.883 225.36,344.11C246.607,323.683 267.723,303.467 288.71,283.46C289.65,282.56 289.883,281.503 289.41,280.29L259.56,204.31C259.32,203.697 259.53,203.433 260.19,203.52L328.24,212.41C329.02,212.51 329.383,212.953 329.33,213.74Z" style="fill:rgb(121,121,82);fill-rule:nonzero;"/>
    </g>
</svg>
