<?xml version="1.0" encoding="UTF-8" standalone="no"?>
<!DOCTYPE svg PUBLIC "-//W3C//DTD SVG 1.1//EN" "http://www.w3.org/Graphics/SVG/1.1/DTD/svg11.dtd">
<svg width="100%" height="100%" viewBox="0 0 160 105" version="1.1" xmlns="http://www.w3.org/2000/svg" xmlns:xlink="http://www.w3.org/1999/xlink" xml:space="preserve" xmlns:serif="http://www.serif.com/" style="fill-rule:evenodd;clip-rule:evenodd;stroke-linejoin:round;stroke-miterlimit:2;">
    <g transform="matrix(1,0,0,1,-44.128,-40.0142)">
        <path d="M76.53,144.28L45.36,144.21C44.683,144.206 44.128,143.647 44.128,142.97C44.128,142.862 44.142,142.754 44.17,142.65L71.5,41.01C71.645,40.468 72.139,40.089 72.7,40.09L103.87,40.21C104.548,40.213 105.105,40.772 105.105,41.45C105.105,41.562 105.09,41.673 105.06,41.78L77.73,143.36C77.585,143.902 77.091,144.281 76.53,144.28Z" style="fill:rgb(222,79,74);fill-rule:nonzero;"/>
    </g>
    <g transform="matrix(1,0,0,1,-44.128,-40.0142)">
        <path d="M154.57,41.1L147.95,65.99C147.83,66.457 147.56,66.69 147.14,66.69L115.01,66.46C114.979,66.46 114.949,66.457 114.919,66.453C114.516,66.4 114.229,66.029 114.282,65.632C114.286,65.601 114.292,65.57 114.3,65.54L120.88,40.82C120.973,40.473 121.2,40.293 121.56,40.28C132.413,39.873 143.26,39.933 154.1,40.46C154.52,40.48 154.677,40.693 154.57,41.1Z" style="fill:rgb(222,79,74);fill-rule:nonzero;"/>
    </g>
    <g transform="matrix(1,0,0,1,-44.128,-40.0142)">
        <path d="M155.65,94.4L170.21,40.61C170.3,40.282 170.6,40.051 170.94,40.05L203.14,40.05C203.556,40.052 203.897,40.394 203.897,40.81C203.897,40.878 203.888,40.945 203.87,41.01L189.42,94.63C189.33,94.958 189.03,95.189 188.69,95.19L156.39,95.35C156.389,95.35 156.387,95.35 156.386,95.35C155.969,95.35 155.626,95.007 155.626,94.59C155.626,94.526 155.634,94.462 155.65,94.4Z" style="fill:rgb(222,79,74);fill-rule:nonzero;"/>
    </g>
</svg>
