<?xml version="1.0" encoding="UTF-8" standalone="no"?>
<!DOCTYPE svg PUBLIC "-//W3C//DTD SVG 1.1//EN" "http://www.w3.org/Graphics/SVG/1.1/DTD/svg11.dtd">
<svg width="100%" height="100%" viewBox="0 0 108 105" version="1.1" xmlns="http://www.w3.org/2000/svg" xmlns:xlink="http://www.w3.org/1999/xlink" xml:space="preserve" xmlns:serif="http://www.serif.com/" style="fill-rule:evenodd;clip-rule:evenodd;stroke-linejoin:round;stroke-miterlimit:2;">
    <g transform="matrix(1,0,0,1,-18.1779,-19.9916)">
        <path d="M108.02,47.21C94.25,46.13 80.77,37.86 72.42,26.46C72.22,26.187 72.027,26.193 71.84,26.48C63.98,38.3 49.11,45.39 36,47.2C35.687,47.24 35.527,47.42 35.52,47.74L35.49,52.56C35.483,53.187 35.253,53.287 34.8,52.86L33.21,51.37C32.757,50.943 32.543,50.42 32.57,49.8L32.77,44.97C32.79,44.563 33,44.347 33.4,44.32C47.98,43.24 66.09,34.83 71.58,20.25C71.639,20.095 71.788,19.992 71.954,19.992C72.112,19.992 72.256,20.085 72.32,20.23C75.39,27.41 81.87,33.22 88.25,37.51C95.01,42.05 102.483,44.277 110.67,44.19C111.037,44.19 111.23,44.37 111.25,44.73L111.51,49.83C111.543,50.543 111.29,51.137 110.75,51.61L109.34,52.85C108.84,53.283 108.587,53.167 108.58,52.5L108.51,47.73C108.503,47.41 108.34,47.237 108.02,47.21Z" style="fill:white;fill-rule:nonzero;"/>
    </g>
    <g transform="matrix(1,0,0,1,-18.1779,-19.9916)">
        <path d="M71.72,89.27C72.007,89.527 72.448,89.522 72.73,89.26L119.98,46.46C120.447,46.033 120.593,46.123 120.42,46.73L111.16,78.59C111.025,79.054 110.726,79.452 110.32,79.71L72.57,103.86C72.35,104.002 72.069,104.005 71.85,103.87L33.32,79.46C33.165,79.357 33.052,79.204 33,79.03L23.56,46.53C23.552,46.508 23.547,46.484 23.547,46.46C23.547,46.351 23.638,46.26 23.747,46.26C23.801,46.26 23.852,46.282 23.89,46.32L71.72,89.27Z" style="fill:white;fill-rule:nonzero;"/>
    </g>
    <g transform="matrix(1,0,0,1,-18.1779,-19.9916)">
        <path d="M47.33,63.29C61.27,45.94 82.91,46.4 96.91,63.33C97.042,63.487 97.024,63.724 96.87,63.86L72.53,85.56C72.293,85.774 71.93,85.774 71.7,85.56L47.37,63.9C47.163,63.713 47.15,63.51 47.33,63.29Z" style="fill:white;fill-rule:nonzero;"/>
    </g>
    <g transform="matrix(1,0,0,1,-18.1779,-19.9916)">
        <path d="M18.21,118.23L32.9,82.75C32.958,82.6 33.103,82.501 33.264,82.501C33.337,82.501 33.408,82.521 33.47,82.56L46.8,90.9C46.944,90.99 47.013,91.165 46.97,91.33L40.92,114.83C40.883,114.979 40.761,115.093 40.61,115.12L18.63,118.77C18.609,118.773 18.589,118.775 18.568,118.775C18.354,118.775 18.178,118.599 18.178,118.385C18.178,118.332 18.189,118.279 18.21,118.23Z" style="fill:white;fill-rule:nonzero;"/>
    </g>
    <g transform="matrix(1,0,0,1,-18.1779,-19.9916)">
        <path d="M103.12,114.82L97.19,91.46C97.145,91.292 97.214,91.114 97.36,91.02L110.55,82.59C110.614,82.55 110.688,82.529 110.763,82.529C110.922,82.529 111.067,82.624 111.13,82.77L125.8,118.21C125.821,118.259 125.831,118.312 125.831,118.365C125.831,118.584 125.651,118.765 125.431,118.765C125.411,118.765 125.39,118.763 125.37,118.76L103.44,115.11C103.286,115.084 103.161,114.971 103.12,114.82Z" style="fill:white;fill-rule:nonzero;"/>
    </g>
    <g transform="matrix(1,0,0,1,-18.1779,-19.9916)">
        <path d="M64.06,103.36C58.15,104.13 48.95,104.5 50.86,94.61C50.938,94.23 51.275,93.954 51.663,93.954C51.818,93.954 51.969,93.998 52.1,94.08L64.39,101.87C65.663,102.67 65.553,103.167 64.06,103.36Z" style="fill:white;fill-rule:nonzero;"/>
    </g>
    <g transform="matrix(1,0,0,1,-18.1779,-19.9916)">
        <path d="M93.1,94.57C95.38,104.69 85.32,104.05 79.07,103.36C78.843,103.333 78.733,103.207 78.74,102.98C78.753,102.713 78.87,102.507 79.09,102.36C83.177,99.673 87.457,96.913 91.93,94.08C91.968,94.055 92.009,94.034 92.051,94.017C92.442,93.856 92.897,94.049 93.06,94.445C93.077,94.485 93.09,94.527 93.1,94.57Z" style="fill:white;fill-rule:nonzero;"/>
    </g>
    <g transform="matrix(1,0,0,1,-18.1779,-19.9916)">
        <path d="M46.89,102.64C52.03,111.04 60.71,118.66 70.35,121.12C71.763,121.48 73.187,121.403 74.62,120.89C84.2,117.437 91.653,111.377 96.98,102.71C97.036,102.618 97.137,102.562 97.244,102.562C97.379,102.562 97.5,102.651 97.54,102.78L98.24,105.23C98.36,105.668 98.28,106.137 98.02,106.51C92.013,115.037 83.923,120.927 73.75,124.18C72.597,124.547 71.513,124.577 70.5,124.27C60.213,121.157 52.007,115.213 45.88,106.44C45.785,106.308 45.755,106.142 45.8,105.99L46.64,102.68C46.657,102.62 46.712,102.579 46.774,102.579C46.821,102.579 46.864,102.602 46.89,102.64Z" style="fill:white;fill-rule:nonzero;"/>
    </g>
</svg>
