<?xml version="1.0" encoding="UTF-8" standalone="no"?>
<!DOCTYPE svg PUBLIC "-//W3C//DTD SVG 1.1//EN" "http://www.w3.org/Graphics/SVG/1.1/DTD/svg11.dtd">
<svg xmlns="http://www.w3.org/2000/svg" version="1.1" viewBox="0 0 64 64">
<path fill="rgb(93,156,236)" fill-opacity="1.000" d="M 30.06 0.00 Q 32.19 0.00 34.31 0.00 Q 60.24 3.85 64.00 29.81 Q 64.00 32.06 64.00 34.31 Q 63.75 35.43 63.50 36.54 Q 61.75 36.44 60.53 35.22 Q 56.18 30.82 51.76 26.49 Q 51.05 25.78 50.04 25.75 Q 41.14 12.80 25.44 16.96 Q 19.26 18.60 15.46 23.70 Q 12.46 27.71 13.04 32.75 Q 12.73 36.45 16.04 38.00 Q 15.91 38.56 16.25 39.00 Q 27.65 50.10 38.79 61.47 Q 39.38 62.07 39.50 62.96 Q 36.76 63.69 33.94 64.00 Q 31.94 64.00 29.94 64.00 Q 3.80 60.30 0.00 34.19 Q 0.00 31.94 0.00 29.69 Q 3.88 3.61 30.06 0.00 Z"/>
<path fill="rgb(255,255,255)" fill-opacity="1.000" d="M 50.04 25.75 Q 51.71 30.15 50.79 34.75 Q 50.75 33.99 50.50 34.50 Q 45.60 44.62 34.25 45.50 Q 30.25 45.81 28.83 42.88 Q 28.61 42.43 28.48 42.84 Q 28.42 43.01 28.46 43.25 Q 28.12 42.82 28.21 42.25 Q 28.50 41.13 28.00 39.00 Q 26.84 34.07 22.04 35.51 Q 16.47 37.18 13.04 32.75 Q 12.46 27.71 15.46 23.70 Q 19.26 18.60 25.44 16.96 Q 41.14 12.80 50.04 25.75 Z M 34.55 21.31 A 2.72 2.72 0 0 0 31.83 18.59 A 2.72 2.72 0 0 0 29.11 21.31 A 2.72 2.72 0 0 0 31.83 24.03 A 2.72 2.72 0 0 0 34.55 21.31 Z M 42.09 23.69 A 2.70 2.70 0 0 0 39.39 20.99 A 2.70 2.70 0 0 0 36.69 23.69 A 2.70 2.70 0 0 0 39.39 26.39 A 2.70 2.70 0 0 0 42.09 23.69 Z M 27.32 24.43 A 2.73 2.73 0 0 0 24.59 21.70 A 2.73 2.73 0 0 0 21.86 24.43 A 2.73 2.73 0 0 0 24.59 27.16 A 2.73 2.73 0 0 0 27.32 24.43 Z M 45.29 30.86 A 2.78 2.78 0 0 0 42.51 28.08 A 2.78 2.78 0 0 0 39.73 30.86 A 2.78 2.78 0 0 0 42.51 33.64 A 2.78 2.78 0 0 0 45.29 30.86 Z M 17.29 32.75 Q 19.50 35.65 20.96 32.50 Q 21.63 30.27 19.98 29.73 Q 18.74 29.33 17.81 30.15 Q 16.77 31.08 17.29 32.75 Z M 42.84 38.43 A 2.72 2.72 0 0 0 40.12 35.71 A 2.72 2.72 0 0 0 37.40 38.43 A 2.72 2.72 0 0 0 40.12 41.15 A 2.72 2.72 0 0 0 42.84 38.43 Z"/>
<circle fill="rgb(250,110,81)" fill-opacity="1.000" cx="31.83" cy="21.31" r="2.72"/>
<circle fill="rgb(93,156,236)" fill-opacity="1.000" cx="39.39" cy="23.69" r="2.70"/>
<circle fill="rgb(159,209,105)" fill-opacity="1.000" cx="24.59" cy="24.43" r="2.73"/>
<path fill="rgb(89,144,213)" fill-opacity="1.000" d="M 50.04 25.75 Q 51.05 25.78 51.76 26.49 Q 56.18 30.82 60.53 35.22 Q 61.75 36.44 63.50 36.54 Q 59.85 57.39 39.50 62.96 Q 39.38 62.07 38.79 61.47 Q 27.65 50.10 16.25 39.00 Q 15.91 38.56 16.04 38.00 Q 19.80 38.58 24.06 37.63 Q 26.15 37.15 26.93 39.09 L 28.21 42.25 Q 28.12 42.82 28.46 43.25 Q 28.80 45.90 30.68 47.61 A 1.44 1.30 -20.5 0 0 31.56 47.96 Q 41.36 48.30 47.93 41.17 Q 50.45 38.44 50.79 34.75 Q 51.71 30.15 50.04 25.75 Z"/>
<circle fill="rgb(169,177,187)" fill-opacity="1.000" cx="42.51" cy="30.86" r="2.78"/>
<path fill="rgb(223,226,231)" fill-opacity="1.000" d="M 19.98 29.73 Q 21.63 30.27 20.96 32.50 Q 19.02 31.46 17.29 32.75 Q 16.77 31.08 17.81 30.15 Q 18.74 29.33 19.98 29.73 Z"/>
<path fill="rgb(89,144,213)" fill-opacity="1.000" d="M 20.96 32.50 Q 19.50 35.65 17.29 32.75 Q 19.02 31.46 20.96 32.50 Z"/>
<path fill="rgb(223,226,231)" fill-opacity="1.000" d="M 13.04 32.75 Q 16.47 37.18 22.04 35.51 Q 26.84 34.07 28.00 39.00 Q 28.50 41.13 28.21 42.25 L 26.93 39.09 Q 26.15 37.15 24.06 37.63 Q 19.80 38.58 16.04 38.00 Q 12.73 36.45 13.04 32.75 Z"/>
<path fill="rgb(223,226,231)" fill-opacity="1.000" d="M 50.79 34.75 Q 50.45 38.44 47.93 41.17 Q 41.36 48.30 31.56 47.96 A 1.44 1.30 -20.5 0 1 30.68 47.61 Q 28.80 45.90 28.46 43.25 Q 28.42 43.01 28.48 42.84 Q 28.61 42.43 28.83 42.88 Q 30.25 45.81 34.25 45.50 Q 45.60 44.62 50.50 34.50 Q 50.75 33.99 50.79 34.75 Z"/>
<circle fill="rgb(253,204,84)" fill-opacity="1.000" cx="40.12" cy="38.43" r="2.72"/>
</svg>