<?xml version="1.0" encoding="UTF-8" standalone="no"?>
<!DOCTYPE svg PUBLIC "-//W3C//DTD SVG 1.1//EN" "http://www.w3.org/Graphics/SVG/1.1/DTD/svg11.dtd">
<svg xmlns="http://www.w3.org/2000/svg" version="1.1" viewBox="0.00 0.00 400.00 400.00">
<path fill="#300463" d="
  M 0.00 0.00
  L 400.00 0.00
  L 400.00 400.00
  L 0.00 400.00
  L 0.00 0.00
  Z"
/>
<path fill="#f2f2f2" d="
  M 181.51 236.94
  Q 182.69 227.27 172.76 222.03
  Q 166.13 218.54 158.18 216.11
  Q 147.53 212.86 137.64 209.89
  C 120.73 204.81 102.03 196.03 96.28 177.96
  Q 92.82 167.08 95.21 154.35
  C 99.56 131.16 120.06 117.33 142.09 113.70
  Q 167.11 109.58 191.91 116.74
  Q 202.64 119.84 211.68 125.39
  A 1.04 1.02 -74.4 0 1 212.17 126.27
  L 212.13 161.92
  A 0.30 0.29 17.2 0 1 211.67 162.16
  Q 195.00 150.91 173.61 147.76
  C 162.26 146.08 136.24 145.31 135.25 162.37
  C 134.76 170.68 140.80 174.78 147.61 177.64
  Q 152.51 179.69 157.29 180.99
  Q 170.03 184.44 180.48 187.51
  C 201.72 193.74 220.18 205.55 222.19 228.92
  Q 222.74 235.27 222.02 241.76
  C 218.90 269.84 194.09 284.14 168.45 286.97
  C 142.98 289.77 117.70 285.67 96.10 271.85
  A 2.48 2.47 -73.6 0 1 94.97 269.77
  L 94.98 231.75
  Q 94.99 230.94 95.59 231.48
  Q 98.97 234.52 102.61 237.07
  Q 127.36 254.43 157.17 252.70
  C 166.60 252.15 180.12 248.34 181.51 236.94
  Z"
/>
<circle fill="#e80000" cx="281.13" cy="260.70" r="24.75"/>
</svg>
