<?xml version="1.0" encoding="UTF-8" standalone="no"?>
<!DOCTYPE svg PUBLIC "-//W3C//DTD SVG 1.1//EN" "http://www.w3.org/Graphics/SVG/1.1/DTD/svg11.dtd">
<svg width="100%" height="100%" viewBox="0 0 61 70" version="1.1" xmlns="http://www.w3.org/2000/svg" xmlns:xlink="http://www.w3.org/1999/xlink" xml:space="preserve" xmlns:serif="http://www.serif.com/" style="fill-rule:evenodd;clip-rule:evenodd;stroke-linejoin:round;stroke-miterlimit:2;">
    <path d="M29.527,0.168C29.915,-0.056 30.392,-0.056 30.78,0.168L59.681,16.854C60.069,17.078 60.307,17.491 60.307,17.939L60.307,51.311C60.307,51.758 60.069,52.172 59.681,52.396L30.78,69.081C30.392,69.305 29.915,69.305 29.527,69.081L0.626,52.396C0.239,52.172 0,51.758 0,51.311L0,17.939C0,17.491 0.239,17.078 0.627,16.854L14.925,8.599L29.527,0.168ZM13.979,55.089L13.851,14.235L4.343,19.723L4.343,49.526L13.979,55.089ZM20.506,58.858L30.154,64.428L55.964,49.526L55.964,38.386L20.506,58.858ZM53.78,34.631L18.195,14.235L18.323,55.103L53.78,34.631ZM20.366,10.473L55.964,30.877L55.964,19.723L30.154,4.822L20.366,10.473Z" style="fill:url(#_Linear1);"/>
    <defs>
        <linearGradient id="_Linear1" x1="0" y1="0" x2="1" y2="0" gradientUnits="userSpaceOnUse" gradientTransform="matrix(-65.305,-59.0512,59.0512,-65.305,65.6328,58.6887)"><stop offset="0" style="stop-color:rgb(75,161,252);stop-opacity:1"/><stop offset="1" style="stop-color:rgb(236,42,237);stop-opacity:1"/></linearGradient>
    </defs>
</svg>
