<?xml version="1.0" encoding="UTF-8" standalone="no"?>
<!DOCTYPE svg PUBLIC "-//W3C//DTD SVG 1.1//EN" "http://www.w3.org/Graphics/SVG/1.1/DTD/svg11.dtd">
<svg width="100%" height="100%" viewBox="0 0 194 196" version="1.1" xmlns="http://www.w3.org/2000/svg" xmlns:xlink="http://www.w3.org/1999/xlink" xml:space="preserve" xmlns:serif="http://www.serif.com/" style="fill-rule:evenodd;clip-rule:evenodd;stroke-linejoin:round;stroke-miterlimit:2;">
    <g transform="matrix(1,0,0,1,-31.1216,0)">
        <path d="M186.38,92.402L224.866,114.621L224.866,159.084L186.38,181.303L169.295,171.423L127.75,195.407L86.454,171.56L69.608,181.303L31.122,159.047L31.122,114.621L69.608,92.402L108.094,114.621L108.094,159.047L96.451,165.78L127.75,183.854L159.298,165.642L147.893,159.047L147.893,114.621L186.38,92.402ZM157.896,126.199L157.896,153.32L181.378,166.874L181.378,139.753L157.896,126.199ZM214.863,126.162L191.381,139.716L191.381,166.874L214.863,153.282L214.863,126.162ZM41.125,126.162L41.125,153.282L64.606,166.836L64.606,139.716L41.125,126.162ZM98.091,126.162L74.609,139.716L74.609,166.836L98.091,153.282L98.091,126.162ZM186.38,103.98L162.898,117.534L186.38,131.101L209.861,117.534L186.38,103.98ZM69.608,103.943L46.126,117.534L69.608,131.063L93.09,117.534L69.608,103.943ZM88.751,35.023L88.751,46.564L53.141,67.132L53.141,101.905L43.138,107.682L43.138,61.355L88.751,35.023ZM127.237,0L165.749,22.219L165.749,34.438L212.362,61.355L212.362,107.394L202.359,101.617L202.359,67.132L165.749,45.991L165.749,66.657L127.262,88.876L88.776,66.657L88.776,22.219L127.237,0ZM98.779,33.76L98.779,60.88L122.236,74.434L122.236,47.326L98.779,33.76ZM155.721,33.76L132.264,47.326L132.264,74.422L155.721,60.88L155.721,33.76ZM127.237,11.553L103.78,25.107L127.237,38.661L150.719,25.107L127.237,11.553Z" style="fill:rgb(57,140,203);fill-rule:nonzero;"/>
    </g>
</svg>
