<?xml version="1.0" encoding="UTF-8" standalone="no"?>
<!DOCTYPE svg PUBLIC "-//W3C//DTD SVG 1.1//EN" "http://www.w3.org/Graphics/SVG/1.1/DTD/svg11.dtd">
<svg width="100%" height="100%" viewBox="0 0 57 59" version="1.1" xmlns="http://www.w3.org/2000/svg" xmlns:xlink="http://www.w3.org/1999/xlink" xml:space="preserve" xmlns:serif="http://www.serif.com/" style="fill-rule:evenodd;clip-rule:evenodd;stroke-linejoin:round;stroke-miterlimit:2;">
    <g transform="matrix(1,0,0,1,0,-0.329815)">
        <path d="M32.24,0.69L32.24,25.63C32.238,25.742 32.182,25.846 32.09,25.91L23.84,31.75C23.72,31.834 23.56,31.834 23.44,31.75L9.77,22.08C9.678,22.016 9.622,21.912 9.62,21.8L9.62,15.63C9.619,15.515 9.675,15.406 9.77,15.34L31.69,0.4C31.749,0.359 31.819,0.337 31.89,0.337C32.082,0.337 32.24,0.495 32.24,0.687C32.24,0.688 32.24,0.689 32.24,0.69Z" style="fill:rgb(233,233,233);fill-rule:nonzero;"/>
    </g>
    <g transform="matrix(1,0,0,1,0,-0.329815)">
        <path d="M34.29,23.74L34.3,0.66C34.3,0.66 34.3,0.66 34.3,0.66C34.3,0.479 34.449,0.33 34.63,0.33C34.698,0.33 34.764,0.351 34.82,0.39L56.74,15.33C56.828,15.392 56.88,15.493 56.88,15.6L56.87,41.16C56.87,41.16 56.87,41.16 56.87,41.16C56.87,41.341 56.721,41.49 56.54,41.49C56.472,41.49 56.406,41.469 56.35,41.43L49.51,36.57C49.422,36.508 49.37,36.407 49.37,36.3L49.38,14.33C49.38,14.149 49.231,14 49.05,14C48.982,14 48.916,14.021 48.86,14.06L34.81,24.01C34.754,24.049 34.688,24.07 34.62,24.07C34.439,24.07 34.29,23.921 34.29,23.74Z" style="fill:rgb(233,233,233);fill-rule:nonzero;"/>
    </g>
    <g transform="matrix(1,0,0,1,0,-0.329815)">
        <path d="M0,17.8L22.15,33.46C22.43,33.653 22.57,33.92 22.57,34.26L22.54,58.96C22.54,59.307 22.397,59.38 22.11,59.18L0,44.12L0,17.8Z" style="fill:rgb(233,233,233);fill-rule:nonzero;"/>
    </g>
    <g transform="matrix(1,0,0,1,0,-0.329815)">
        <path d="M47.36,44.25L25.52,59.15C25.464,59.188 25.398,59.208 25.33,59.208C25.144,59.208 24.991,59.056 24.99,58.87L24.99,33.92C24.988,33.81 25.041,33.705 25.13,33.64L46.98,18.17C47.038,18.128 47.108,18.105 47.18,18.105C47.367,18.105 47.52,18.258 47.52,18.445C47.52,18.447 47.52,18.448 47.52,18.45L47.51,43.97C47.509,44.082 47.453,44.187 47.36,44.25Z" style="fill:rgb(233,233,233);fill-rule:nonzero;"/>
    </g>
</svg>
