<?xml version="1.0" encoding="UTF-8" standalone="no"?>
<!DOCTYPE svg PUBLIC "-//W3C//DTD SVG 1.1//EN" "http://www.w3.org/Graphics/SVG/1.1/DTD/svg11.dtd">
<svg width="100%" height="100%" viewBox="0 0 35 43" version="1.1" xmlns="http://www.w3.org/2000/svg" xmlns:xlink="http://www.w3.org/1999/xlink" xml:space="preserve" xmlns:serif="http://www.serif.com/" style="fill-rule:evenodd;clip-rule:evenodd;stroke-linejoin:round;stroke-miterlimit:2;">
    <g transform="matrix(1,0,0,1,-1,-0.5)">
        <path d="M11.751,16.801L11.751,16.919C11.751,18.305 10.851,18.91 9.745,18.27C8.639,17.631 7.739,15.99 7.739,14.603L7.739,14.485L1,10.592L1,32.467L18.5,42.569L18.5,20.694L11.751,16.801Z" style="fill:rgb(73,70,221);fill-rule:nonzero;"/>
    </g>
    <g transform="matrix(1,0,0,1,-1,-0.5)">
        <path d="M20.501,11.752L20.501,11.87C20.501,13.256 19.601,13.861 18.495,13.222C17.389,12.583 16.49,10.941 16.49,9.555L16.49,9.437L9.75,5.548L9.75,13.374L20.466,19.563L20.466,33.612L27.25,37.53L27.25,15.655L20.501,11.752Z" style="fill:rgb(73,70,221);fill-rule:nonzero;"/>
    </g>
    <g transform="matrix(1,0,0,1,-1,-0.5)">
        <path d="M29.251,6.709L29.251,6.827C29.251,8.213 28.351,8.817 27.245,8.178C26.139,7.539 25.24,5.897 25.24,4.511L25.24,4.393L18.5,0.5L18.5,8.326L29.216,14.515L29.216,28.564L36,32.482L36,10.607L29.251,6.709Z" style="fill:rgb(73,70,221);fill-rule:nonzero;"/>
    </g>
</svg>
