<?xml version="1.0" encoding="UTF-8" standalone="no"?>
<!DOCTYPE svg PUBLIC "-//W3C//DTD SVG 1.1//EN" "http://www.w3.org/Graphics/SVG/1.1/DTD/svg11.dtd">
<svg width="100%" height="100%" viewBox="0 0 99 198" version="1.1" xmlns="http://www.w3.org/2000/svg" xmlns:xlink="http://www.w3.org/1999/xlink" xml:space="preserve" xmlns:serif="http://www.serif.com/" style="fill-rule:evenodd;clip-rule:evenodd;stroke-linejoin:round;stroke-miterlimit:2;">
    <g transform="matrix(1,0,0,1,-177.7,-201.2)" fill="currentColor">
        <path d="M276.3,265.2L276.3,250.6C276.3,245.3 273.1,240.6 268.2,238.5L177.7,201.2L177.7,209.3L258.4,242.6C261.2,243.7 261.2,247.7 258.4,248.8L177.7,282.1L177.7,314.6L226.3,294.5L258.3,307.7C261.1,308.8 261.1,312.8 258.3,313.9L177.7,347.2L177.7,398.7L268.2,361.4C273.1,359.4 276.3,354.6 276.3,349.3L276.3,315.8C276.3,310.5 273.1,305.8 268.2,303.7L236.1,290.5L268.2,277.3C273.1,275.3 276.3,270.5 276.3,265.2Z" style="fill-rule:nonzero;"/>
    </g>
</svg>
