<?xml version="1.0" encoding="UTF-8" standalone="no"?>
<!DOCTYPE svg PUBLIC "-//W3C//DTD SVG 1.1//EN" "http://www.w3.org/Graphics/SVG/1.1/DTD/svg11.dtd">
<svg width="100%" height="100%" viewBox="0 0 1083 453" version="1.1" xmlns="http://www.w3.org/2000/svg" xmlns:xlink="http://www.w3.org/1999/xlink" xml:space="preserve" xmlns:serif="http://www.serif.com/" style="fill-rule:evenodd;clip-rule:evenodd;stroke-linejoin:round;stroke-miterlimit:2;">
    <g transform="matrix(1,0,0,1,-61.6,-23.3)">
        <path d="M1113.5,323.6L1106.2,323.6L1106.2,342.7L1099.8,342.7L1099.8,323.6L1092.4,323.6L1092.4,318.1L1113.5,318.1L1113.5,323.6Z" style="fill:rgb(153,0,0);fill-rule:nonzero;"/>
    </g>
    <g transform="matrix(1,0,0,1,-61.6,-23.3)">
        <path d="M1116.4,318.1L1125.8,318.1L1130.1,334.5L1134.4,318.1L1143.8,318.1L1143.8,342.7L1137.8,342.7L1137.8,324L1137.7,324L1132.6,342.7L1127.7,342.7L1122.5,324L1122.4,324L1122.4,342.7L1116.4,342.7L1116.4,318.1Z" style="fill:rgb(153,0,0);fill-rule:nonzero;"/>
    </g>
    <g transform="matrix(1,0,0,1,-61.6,-23.3)">
        <path d="M859.4,341.3C850.4,345.1 841.4,347 832.3,347C817.9,347 804.9,344.5 793.4,339.5C781.9,334.5 772.2,327.6 764.3,318.8C756.4,310 750.3,299.7 746.1,287.8C741.9,275.9 739.8,263.1 739.8,249.4C739.8,235.3 741.9,222.3 746.1,210.2C750.3,198.1 756.3,187.6 764.2,178.7C772.1,169.7 781.8,162.7 793.3,157.6C804.8,152.5 817.7,149.9 832.2,149.9C841.9,149.9 851.2,151.4 860.2,154.3C869.2,157.2 877.4,161.5 884.7,167.1C892,172.7 898,179.7 902.7,188C907.4,196.3 910.3,205.8 911.4,216.5L872,216.5C869.5,206 864.8,198.1 857.8,192.8C850.8,187.5 842.3,184.9 832.2,184.9C822.9,184.9 815,186.7 808.5,190.3C802,193.9 796.7,198.7 792.7,204.8C788.7,210.9 785.7,217.8 783.9,225.5C782.1,233.2 781.1,241.2 781.1,249.5C781.1,257.4 782,265.1 783.9,272.6C785.7,280.1 788.7,286.8 792.7,292.8C796.7,298.8 802,303.6 808.5,307.2C815,310.8 822.9,312.6 832.2,312.6C845.9,312.6 856.5,309.1 864,302.2C871.5,295.3 875.8,285.3 877.1,272.1L835.5,272.1L835.5,241L914.4,241L914.4,342.7L888.1,342.7L883.9,321.4C876.6,330.9 868.4,337.5 859.4,341.3Z" style="fill:rgb(153,0,0);fill-rule:nonzero;"/>
        <path d="M981.5,154.6L981.5,307.7L1073.2,307.7L1073.2,342.6L940.2,342.6L940.2,154.6L981.5,154.6Z" style="fill:rgb(153,0,0);fill-rule:nonzero;"/>
    </g>
    <g transform="matrix(1,0,0,1,-61.6,-23.3)">
        <path d="M786.3,366C723.2,404.4 628.6,426.2 523.1,426.2C333,426.2 179,347.1 179,249.4C179,151.8 333.1,72.6 523.1,72.6C629,72.6 723.9,94.9 787,133.5C718.2,68.8 594.6,23.4 453.4,23.3C237,23.3 61.6,124.5 61.6,249.4C61.6,374.3 237,475.6 453.3,475.6C594,475.6 717.2,430.3 786.3,366Z" style="fill:rgb(153,0,0);fill-rule:nonzero;"/>
    </g>
    <g transform="matrix(1,0,0,1,-61.6,-23.3)">
        <path d="M439.6,139.9L403.3,296.9L359.5,139.9L326.3,139.9L282.5,296.9L246.2,139.9L211.9,139.9L265.7,344.6L297.9,344.6L343.2,183.8L387.9,344.6L420.2,344.6L475.9,139.9L439.6,139.9Z" style="fill:rgb(153,0,0);fill-rule:nonzero;"/>
    </g>
    <g transform="matrix(1,0,0,1,-61.6,-23.3)">
        <path d="M566.5,226.1C561.5,219 555.2,213.6 547.8,209.9C540.2,206.1 531.4,204.2 521.6,204.2C510.6,204.2 500.7,206.2 492.1,210.1C484,213.8 477.1,219.3 471.5,226.4C461.2,239.5 455.8,258 455.8,279.9C455.8,289.6 457.2,298.8 459.9,307C462.6,315.3 466.7,322.6 471.9,328.7C482.9,341.5 498.6,348.3 517.3,348.3C527.1,348.3 535.1,347.3 541.8,345.2C547.6,343.4 551.5,341 554.7,338.9C558.8,336.2 562.5,332.9 565.9,329.1C568.7,325.8 571.2,322.2 573.4,318.3C577.2,311.3 579.1,304.7 579.5,301.3L579.8,299L553.1,299L553,300.9C552.3,309.6 540.9,325.1 520.6,325.1C491.6,325.1 484.7,304.1 484.2,285.6L581.4,285.6L581.4,283.5C581.4,271.6 580.2,260.7 577.8,251.2C575.1,241.3 571.4,232.9 566.5,226.1ZM518.5,228.2C540,228.2 551.5,239.8 553.6,263.6L484,263.6C485.1,244.3 500.4,228.2 518.5,228.2Z" style="fill:rgb(153,0,0);fill-rule:nonzero;"/>
    </g>
    <g transform="matrix(1,0,0,1,-61.6,-23.3)">
        <path d="M715.7,245.7C713.1,237.4 709.3,230.1 704.4,224C699.3,217.7 693.1,212.8 686,209.4C678.6,205.9 670.3,204.1 661.3,204.1C653,204.2 645.5,206 638.9,209.5C633.4,212.3 628.5,216.3 624.3,221.3L624.3,158.5L597.7,158.5L597.7,344.5L623,344.5L623,331.8C625.2,334.7 628.1,337.8 631.9,340.5C639.1,345.7 648,348.3 658.3,348.3C669.4,348.3 679.4,345.8 687.8,340.9C695.3,336.5 701.7,330.2 706.7,322.2C711.1,315.2 714.4,306.9 716.6,297.6C718.5,289.6 719.5,280.8 719.5,272.2C719.6,262.9 718.3,253.9 715.7,245.7ZM691.8,275.9C691.8,290.5 688.9,302.7 683.3,311.3C677.4,320.4 668.8,325 657.8,325C641.9,325 623.3,313.9 623.3,282.5C623.3,267.5 625.2,255.9 629,247.1C634.5,234.4 643.8,228.3 657.3,228.3C671.7,228.3 681.4,233.9 686.8,245.6C691.2,255.2 691.8,266.9 691.8,275.9Z" style="fill:rgb(153,0,0);fill-rule:nonzero;"/>
    </g>
</svg>
