<?xml version="1.0" encoding="UTF-8" standalone="no"?>
<!DOCTYPE svg PUBLIC "-//W3C//DTD SVG 1.1//EN" "http://www.w3.org/Graphics/SVG/1.1/DTD/svg11.dtd">
<svg width="100%" height="100%" viewBox="0 0 663 417" version="1.1" xmlns="http://www.w3.org/2000/svg" xmlns:xlink="http://www.w3.org/1999/xlink" xml:space="preserve" xmlns:serif="http://www.serif.com/" style="fill-rule:evenodd;clip-rule:evenodd;stroke-linejoin:round;stroke-miterlimit:2;">
    <g id="Triangle_1" transform="matrix(1,0,0,1,-24.745,-87)">
        <path d="M265.5,504L24.745,87L506.255,87L265.5,504Z" style="fill:rgb(0,90,156);fill-rule:nonzero;"/>
    </g>
    <g id="Triangle_2" transform="matrix(1,0,0,1,-24.745,-87)">
        <path d="M506.5,87L386,295L627,295L506.5,87Z" style="fill:rgb(0,102,176);fill-rule:nonzero;"/>
    </g>
    <g id="Triangle_3" transform="matrix(1,0,0,1,-24.745,-87)">
        <path d="M506.5,503L386,295L627,295L506.5,503Z" style="fill:rgb(0,118,204);fill-rule:nonzero;"/>
    </g>
    <g id="Triangle_4" transform="matrix(1,0,0,1,-24.745,-87)">
        <path d="M626.5,296L566,192L687,192L626.5,296Z" style="fill:rgb(0,134,232);fill-rule:nonzero;"/>
    </g>
    <g id="Triangle_5" transform="matrix(1,0,0,1,-24.745,-87)">
        <path d="M626.5,88L566,192L687,192L626.5,88Z" style="fill:rgb(0,147,255);fill-rule:nonzero;"/>
    </g>
</svg>
