<svg xmlns="http://www.w3.org/2000/svg" width="42" height="43" viewBox="0 0 42 43" fill="none"><path d="M0 13.9592C0 16.3567 1.94355 18.3002 4.34105 18.3002C6.73852 18.3002 8.68209 16.3567 8.68209 13.9592C8.68209 11.5617 6.73852 9.61816 4.34105 9.61816C1.94355 9.61816 0 11.5617 0 13.9592Z" fill="#FFCC33"></path><path d="M0 35.6643C0 38.0618 1.94355 40.0054 4.34105 40.0054C6.73852 40.0054 8.68209 38.0618 8.68209 35.6643C8.68209 33.2668 6.73852 31.3232 4.34105 31.3232C1.94355 31.3232 0 33.2668 0 35.6643Z" fill="#FFCC33"></path><path d="M1.62793 24.8118C1.62793 26.3103 2.84267 27.525 4.34112 27.525C5.83959 27.525 7.05432 26.3103 7.05432 24.8118C7.05432 23.3134 5.83959 22.0986 4.34112 22.0986C2.84267 22.0986 1.62793 23.3134 1.62793 24.8118Z" fill="#FFCC33"></path><path d="M1.62793 3.10675C1.62793 4.60522 2.84267 5.81995 4.34112 5.81995C5.83959 5.81995 7.05432 4.60522 7.05432 3.10675C7.05432 1.60829 5.83959 0.393555 4.34112 0.393555C2.84267 0.393555 1.62793 1.60829 1.62793 3.10675Z" fill="#FFCC33"></path><path d="M16.6592 28.8274C16.6592 31.2248 18.6027 33.1684 21.0002 33.1684C23.3977 33.1684 25.3413 31.2248 25.3413 28.8274C25.3413 26.4299 23.3977 24.4863 21.0002 24.4863C18.6027 24.4863 16.6592 26.4299 16.6592 28.8274Z" fill="#FFCC33"></path><path d="M18.2871 39.6799C18.2871 41.1783 19.5019 42.3933 21.0003 42.3933C22.4988 42.3933 23.7135 41.1783 23.7135 39.6799C23.7135 38.1815 22.4988 36.9668 21.0003 36.9668C19.5019 36.9668 18.2871 38.1815 18.2871 39.6799Z" fill="#FFCC33"></path><path d="M18.2871 17.9749C18.2871 19.4734 19.5019 20.6881 21.0003 20.6881C22.4988 20.6881 23.7135 19.4734 23.7135 17.9749C23.7135 16.4765 22.4988 15.2617 21.0003 15.2617C19.5019 15.2617 18.2871 16.4765 18.2871 17.9749Z" fill="#FFCC33"></path><path d="M18.2871 7.12238C18.2871 8.62081 19.5019 9.83557 21.0003 9.83557C22.4988 9.83557 23.7135 8.62081 23.7135 7.12238C23.7135 5.62391 22.4988 4.40918 21.0003 4.40918C19.5019 4.40918 18.2871 5.62391 18.2871 7.12238Z" fill="#FFCC33"></path><path d="M33.3174 13.9592C33.3174 16.3567 35.2609 18.3002 37.6584 18.3002C40.056 18.3002 41.9995 16.3567 41.9995 13.9592C41.9995 11.5617 40.056 9.61816 37.6584 9.61816C35.2609 9.61816 33.3174 11.5617 33.3174 13.9592Z" fill="#FFCC33"></path><path d="M34.9463 3.10675C34.9463 4.60522 36.161 5.81995 37.6595 5.81995C39.1578 5.81995 40.3727 4.60522 40.3727 3.10675C40.3727 1.60829 39.1578 0.393555 37.6595 0.393555C36.161 0.393555 34.9463 1.60829 34.9463 3.10675Z" fill="#FFCC33"></path><path d="M34.9463 24.8118C34.9463 26.3103 36.161 27.525 37.6595 27.525C39.1578 27.525 40.3727 26.3103 40.3727 24.8118C40.3727 23.3134 39.1578 22.0986 37.6595 22.0986C36.161 22.0986 34.9463 23.3134 34.9463 24.8118Z" fill="#FFCC33"></path><path d="M34.9463 35.6644C34.9463 37.1628 36.161 38.3776 37.6595 38.3776C39.1578 38.3776 40.3727 37.1628 40.3727 35.6644C40.3727 34.1659 39.1578 32.9512 37.6595 32.9512C36.161 32.9512 34.9463 34.1659 34.9463 35.6644Z" fill="#FFCC33"></path></svg>