<?xml version="1.0" encoding="UTF-8" standalone="no"?>
<!DOCTYPE svg PUBLIC "-//W3C//DTD SVG 1.1//EN" "http://www.w3.org/Graphics/SVG/1.1/DTD/svg11.dtd">
<svg width="100%" height="100%" viewBox="0 0 32 32" version="1.1" xmlns="http://www.w3.org/2000/svg" xmlns:xlink="http://www.w3.org/1999/xlink" xml:space="preserve" xmlns:serif="http://www.serif.com/" style="fill-rule:evenodd;clip-rule:evenodd;stroke-linejoin:round;stroke-miterlimit:2;">
    <g transform="matrix(1,0,0,1,-0.0226105,0)">
        <path d="M26.68,31.953C28.892,29.745 30.373,26.985 30.795,24.279C31.218,21.573 30.548,19.144 28.932,17.525L20.589,25.849L26.679,31.953L26.68,31.953Z" style="fill:rgb(6,214,160);fill-rule:nonzero;"/>
    </g>
    <g transform="matrix(1,0,0,1,-0.0226105,0)">
        <path d="M4.865,32C2.653,29.793 1.172,27.032 0.75,24.327C0.327,21.621 0.997,19.191 2.612,17.572L10.955,25.896L4.865,32Z" style="fill:rgb(255,190,11);fill-rule:nonzero;"/>
    </g>
    <g transform="matrix(1,0,0,1,-0.0226105,0)">
        <path d="M3.46,16.665C-1.116,12.099 -1.124,4.577 3.441,0L11.784,8.324C16.359,12.891 16.366,20.412 11.801,24.988L3.46,16.665Z" style="fill:rgb(255,0,117);fill-rule:nonzero;"/>
    </g>
    <g transform="matrix(1,0,0,1,-0.0226105,0)">
        <path d="M28.084,16.665C32.659,12.098 32.666,4.576 28.1,0L19.757,8.324C15.182,12.891 15.175,20.412 19.74,24.988L28.083,16.665L28.084,16.665Z" style="fill:rgb(0,118,255);fill-rule:nonzero;"/>
    </g>
</svg>
