<?xml version="1.0" encoding="UTF-8" standalone="no"?>
<!DOCTYPE svg PUBLIC "-//W3C//DTD SVG 1.1//EN" "http://www.w3.org/Graphics/SVG/1.1/DTD/svg11.dtd">
<svg width="100%" height="100%" viewBox="0 0 198 181" version="1.1" xmlns="http://www.w3.org/2000/svg" xmlns:xlink="http://www.w3.org/1999/xlink" xml:space="preserve" xmlns:serif="http://www.serif.com/" style="fill-rule:evenodd;clip-rule:evenodd;stroke-linejoin:round;stroke-miterlimit:2;">
    <path d="M193.89,0L91.034,122.797L149.942,122.797L125.382,151.235L67.215,151.235L3.878,180.964L106.936,56.875L47.826,56.875L72.386,28.437L130.553,28.437L193.89,0ZM59.46,28.437L36.193,56.875L28.437,56.875L28.437,122.797L40.071,122.797L15.511,151.235L0,151.235L0,28.437L59.46,28.437ZM197.768,28.437L197.768,151.235L137.016,151.235L161.575,122.797L169.331,122.797L169.331,58.167L157.698,58.167L182.257,28.437L197.768,28.437Z" style="fill:rgb(247,164,29);fill-rule:nonzero;"/>
</svg>
