<?xml version="1.0" encoding="utf-8"?>
<!-- Generator: Adobe Illustrator 21.0.2, SVG Export Plug-In . SVG Version: 6.00 Build 0)  -->
<svg xmlns="http://www.w3.org/2000/svg" xmlns:xlink="http://www.w3.org/1999/xlink" version="1.1" id="Layer_1" x="0px" y="0px" viewBox="0 0 48 48" style="enable-background:new 0 0 48 48;" xml:space="preserve" width="48px" height="48px">
<g id="surface1">
	<path style="fill:#00a9be;" d="M36,35.5C36,29.7,30.9,25,24.5,25S13,29.7,13,35.5S18.1,46,24.5,46S36,41.3,36,35.5z"/>
	<path style="fill:#95f3ff;" d="M35.5,35c0-5.3-4.9-9.6-11-9.6s-11,4.3-11,9.6s4.9,9.6,11,9.6S35.5,40.3,35.5,35z"/>
	<path style="fill:#95f3ff;" d="M5,10l19,11v22L6,30L5,10z"/>
	<path style="fill:#05e4ff;" d="M43,10L24,21v22l18-13L43,10z"/>
	<path style="fill:#00c0d8;" d="M24.5,44.6c0.3,0,0.5,0,0.8,0l9.8-7.1c0.2-0.8,0.4-1.6,0.4-2.4c0-0.1,0-0.2,0-0.3L24,43l-10.5-7.6   c0.1,1,0.3,2,0.7,3l8.3,6C23.2,44.5,23.8,44.6,24.5,44.6z"/>
	<path style="fill:#e3fcff;" d="M5,10l19,11l19-11L24,1L5,10z"/>
	<path style="fill:#007b8a;" d="M11.6,9.9L24,17l12.4-7.1L24,4L11.6,9.9z"/>
	<path style="fill:#007b8a;" d="M40,28l0.6-12.9L27,23v14.4L40,28z"/>
	<path style="fill:#007b8a;" d="M8,28L7.4,15.1L21,23v14.4L8,28z"/>
	<polygon style="fill:#e3fcff;" points="29.7,16.4 26.6,14.4 28.3,10.6 23.7,12.2 25.4,8.5 17.7,11 20.7,6.9 18.8,5.9 19.2,5.1    22.2,6.5 20.3,9.1 27.1,6.8 25.6,10.5 30.2,8.9 27.9,14 30.3,15.6  "/>
	<path style="fill:#dffcff;" d="M28.8,27.4c0.1,0.5-0.5,2.8-0.5,3.1c0,0.3-0.2,0.5-0.5,0.6c-0.1-0.9-0.2-1.7-0.3-2.6   c0-0.2,0.2-0.3,0.4-0.4c0.1,0.7,0.1,1.4,0.2,2.1c0,0,0.3-1.5,0.4-2.3C28.5,27.7,28.6,27.5,28.8,27.4z"/>
	<path style="fill:#dffcff;" d="M38.8,22.4c-0.1,0.3-0.1,0.8-0.5,1c0-0.3,0.1-0.5,0.2-0.7c0.2-0.4,0.2-0.9,0-1.3   c-0.1-0.2,0.1-0.3,0.2-0.4c0.2-0.1,0.1,0.2,0.3,0.2c0.2-0.2,0.1-0.6,0.4-0.7c0.1,0.1,0,0.2-0.1,0.3c-0.2,0.5-0.3,1,0,1.5   c0.1,0.2,0,0.3-0.2,0.4c0,0-0.1,0.1-0.2-0.1C38.8,22.6,38.8,22.5,38.8,22.4z"/>
	<path style="fill:#dffcff;" d="M29,30c0-0.6,0.1-1.2,0.1-1.8c0-0.2,0.1-0.4,0.3-0.4c0,0.7-0.1,1.4-0.1,2.1c0,0.2-0.1,0.2-0.2,0.3   C29,30.2,29,30,29,30z"/>
	<path style="fill:#dffcff;" d="M29.5,26.8c0.2,0.1,0,0.4,0,0.5c0,0.1-0.1,0.2-0.2,0.2c-0.1,0-0.1-0.1-0.1-0.2   C29.1,27.2,29.3,26.7,29.5,26.8z"/>
	<path style="fill:#dffcff;" d="M19.8,29.7c-0.4-0.3-0.7-0.5-1.2-0.8c0.1,0.4,0.2,0.7,0.5,0.9c0.3,0.2,0.5,0.4,0.8,0.6   c0.1,0.1,0.2,0.1,0.1,0.3c-0.1,0.2-0.2,0.1-0.3,0c-0.9-0.5-1.4-1.2-1.5-2.2c0-0.1,0-0.2,0-0.3c0-0.2,0-0.5,0.3-0.6   c0.2-0.1,0.4,0.1,0.5,0.2c0.2,0.2,0.5,0.3,0.7,0.5c0.1,0.1,0.2,0.2,0.1,0.3c-0.1,0.2-0.2,0-0.3,0c-0.2-0.1-0.3-0.2-0.5-0.3   c-0.1-0.1-0.4-0.3-0.4,0c0,0.3,0,0.3,0.2,0.4c0.3,0.2,0.6,0.4,0.9,0.7C19.9,29.4,19.9,29.4,19.8,29.7z"/>
	<path style="fill:#dffcff;" d="M18.3,29.3c0.1,0.1-0.1,0.3-0.2,0.2c-0.4-0.3-0.7-0.5-1.1-0.8c-0.2-0.1-0.2-0.3-0.2-0.4   c-0.1-0.7-0.1-1.4-0.2-2.1c0-0.1,0-0.1,0.1-0.1c0.1,0.1,0.2,0.2,0.2,0.3c0,0.4,0.1,0.8,0.1,1.2c0.1,0.7,0.2,0.9,0.7,1.1   C17.9,28.9,18,29,18.3,29.3z"/>
	<path style="fill:#dffcff;" d="M29.8,29.6c0-0.7,0.1-1.4,0.1-2.1c0-0.2,0-0.2,0.3-0.2c0.1,0,0.2-0.4,0.4-0.5c0,0.2,0,0.4-0.2,0.6   c-0.2,0.2-0.2,0.4-0.2,0.6c0,0.4-0.1,0.7-0.1,1.1C30.2,29.4,30.1,29.5,29.8,29.6z"/>
	<path style="fill:#dffcff;" d="M35.3,25.3c-0.1,0-0.2,0-0.1-0.1c0-0.5,0.1-2,0.2-2.3c0-0.1,0.1-0.3-0.1-0.3c-0.1,0-0.2,0.1-0.2,0.2   c-0.1,0.3-0.3,2.8-0.1,3.1C35.1,26,35.3,25.6,35.3,25.3z"/>
	<path style="fill:#dffcff;" d="M31.6,26.1c0,0-0.2,0.2-0.2,0c0-0.2,0-0.3,0-0.5c-0.2,0-0.2,0.1-0.2,0.3c0,0.3,0,0.5-0.3,0.8   c0,0-0.1,0.2,0,0.2c0.2,0.4,0.1,0.7,0.1,1.1c0,0.2-0.1,0.6,0.1,0.7c0.3,0.1,0.5-0.6,0.5-0.6c-0.2,0-0.2-0.3-0.2-0.5   c0-0.4-0.1-0.8,0.3-1.1C31.7,26.4,31.6,26.3,31.6,26.1z"/>
	<path style="fill:#dffcff;" d="M37.6,21.7c-0.5,0.4-0.6,1.1-0.6,1.8c0,0.3,0,0.8,0.5,0.6c0.8-0.4,0.7-1.3,0.7-2.1   C38.2,21.5,38,21.4,37.6,21.7z M37.5,23.5c-0.1,0-0.1-0.3-0.1-0.4c0-0.4,0.1-1.1,0.4-1.1c0.1,0,0.1,0.1,0.1,0.2   C37.9,22.6,37.8,23.5,37.5,23.5z"/>
	<path style="fill:#dffcff;" d="M12.7,25.6c-0.2-0.1-0.3-0.2-0.4-0.4c-0.3-0.5-0.5-1-0.8-1.5c0.3,0.2,0.7,0.4,0.8,0.3   c0.2-0.2-0.2-0.6-0.3-0.7c-0.2-0.1-0.4-0.3-0.7-0.5c0,0.3,0.1,1.3,0.1,1.7c0,0.1,0.1,0.2-0.1,0.2c-0.1,0-0.2-0.1-0.2-0.2   c-0.1-0.4-0.3-2.3-0.2-2.4c0.7,0.5,1.6,0.9,1.7,2c0,0.4-0.1,0.6-0.5,0.6c0.1,0.3,0.3,0.5,0.4,0.8C12.7,25.4,12.9,25.5,12.7,25.6z"/>
	<path style="fill:#dffcff;" d="M16.4,27.8c-0.3-0.2-0.5-0.4-0.8-0.6c-0.4-0.4-0.6-0.9-0.6-1.4c0-0.3,0.2-0.4,0.5-0.2   c0.2,0.1,0.4,0.3,0.6,0.4c0.1,0,0.1,0.2,0.2,0c0.1-0.1,0.1-0.2-0.1-0.3c-0.3-0.2-0.6-0.4-0.9-0.6c-0.2-0.1-0.4-0.2-0.5,0.1   c-0.2,0.7,0,1.3,0.3,1.9c0.3,0.5,0.7,0.7,1.1,1.1c0,0,0.2,0.2,0.3,0C16.6,28,16.6,27.9,16.4,27.8z"/>
	<path style="fill:#dffcff;" d="M10.7,22.1c-0.3-0.6-1.4-1.2-1.4-1.3c-0.4-0.3-0.6-0.2-0.7,0.3c0,0.4,0.1,0.7,0.2,1.1   c0.2,0.8,0.8,1.2,1.4,1.6c0.5,0.3,0.7,0.2,0.7-0.3C11,23,10.9,22.3,10.7,22.1z M10.6,23.3c-0.1,0.1-0.1,0.2-0.3,0.1   c-0.7-0.2-1.4-1.1-1.4-1.9c0-0.1,0-0.3,0.1-0.4c0.2-0.1,0.3,0,0.4,0.1c0.6,0.4,1.1,0.8,1.2,1.6C10.7,23.1,10.7,23.2,10.6,23.3z"/>
	<path style="fill:#dffcff;" d="M36.8,23.4c-0.2-0.3-0.1-0.6,0-0.9c0-0.1,0.2-0.7-0.3-0.7c-0.3,0-0.7,0.4-0.7,0.7   c-0.1,0.5-0.2,2.8-0.2,2.8c0.3-0.2,0.6-0.4,0.8-0.7C36.7,24.3,36.9,23.8,36.8,23.4z M36.4,23.9c0,0.3-0.1,0.5-0.4,0.7   c0-0.3,0-0.5,0-0.7c0-0.2,0.1-0.3,0.3-0.3C36.4,23.6,36.4,23.8,36.4,23.9z M36.4,22.6c0,0.2-0.1,0.4-0.4,0.6c0-0.3,0-0.5,0-0.7   c0-0.1,0.1-0.2,0.2-0.2C36.5,22.4,36.5,22.5,36.4,22.6z"/>
	<path style="fill:#dffcff;" d="M33,25.1c-0.3,0-0.3,0.3-0.3,0.4c0,0-0.1,1.6-0.1,1.7c-0.1,0.1-0.1,0.2-0.2,0.2   c-0.1,0-0.1-0.2-0.1-0.3c0-0.4,0-0.7,0.1-1.1c0-0.1,0.1-0.4-0.1-0.3c-0.3,0-0.3,0.3-0.3,0.5c0,0.5-0.1,0.9-0.1,1.4   c0,0.3,0.1,0.6,0.4,0.4c0.1-0.1,0.3-0.3,0.3-0.5c0.4,0.1,0.3-0.3,0.4-0.5c0.1-0.5,0.1-1,0.1-1.5C33.1,25.4,33.1,25.2,33,25.1z"/>
	<path style="fill:#dffcff;" d="M14.2,25.1c-0.1-0.3-0.3-0.7-0.4-1c0-0.1-0.1-0.2-0.2-0.2c-0.1,0-0.1,0.1-0.2,0.2l-0.6,1.6   c0,0.1,0.2,0.3,0.4,0.1c0.1-0.1,0.3-1,0.5-1.4l0.5,1.3c-0.3,0-0.6-0.4-0.7-0.3c-0.2,0.2,0.4,0.6,0.7,0.8c0.2,0.1,0.3,0.5,0.4,0.6   c0,0.1,0.2,0.4,0.4,0.2C14.7,26.4,14.5,25.8,14.2,25.1z"/>
	<path style="fill:#dffcff;" d="M33.9,24.3c-0.6,0.4-0.6,0.8-0.4,0.8c0.1-0.1,0.1-0.2,0.2-0.2c0.1-0.1,0.2-0.2,0.3-0.1   s0.1,0.3,0,0.4c-0.1,0.1-0.1,0.1-0.2,0.2c-0.3,0.3-0.5,0.8-0.5,1.2c0,0.1,0,0.3,0.1,0.3c0.1,0,0.2,0,0.3-0.1   c0.1-0.2,0.3-0.4,0.6-0.5c0-0.6,0.1-1.1,0.1-1.9C34.4,24.1,34.1,24.2,33.9,24.3z M33.8,26.3c-0.1,0-0.1,0-0.1,0   c0-0.3,0.1-0.4,0.4-0.6c0,0,0,0,0,0C34.1,25.9,34,26.1,33.8,26.3z"/>
</g>
</svg>
