<?xml version="1.0" encoding="UTF-8" standalone="no"?>
<!DOCTYPE svg PUBLIC "-//W3C//DTD SVG 1.1//EN" "http://www.w3.org/Graphics/SVG/1.1/DTD/svg11.dtd">
<svg width="100%" height="100%" viewBox="0 0 449 441" version="1.1" xmlns="http://www.w3.org/2000/svg" xmlns:xlink="http://www.w3.org/1999/xlink" xml:space="preserve" xmlns:serif="http://www.serif.com/" style="fill-rule:evenodd;clip-rule:evenodd;stroke-linejoin:round;stroke-miterlimit:2;">
    <g transform="matrix(1,0,0,1,-30.8114,-80.3558)" fill="rgb(255,157,78)">
        <path d="M464.267,398.363C470.412,393.51 474.277,386.332 474.948,378.531C476.548,359.971 478.435,328.229 472.07,334.1C461.8,343.58 442.04,352 416,352C389.96,352 370.2,343.58 359.91,334.1C351.01,325.89 340.25,320 328.14,320L311.84,320C299.73,320 288.97,325.89 280.07,334.1C269.8,343.58 250.04,352 224,352C197.96,352 178.2,343.58 167.91,334.1C159.01,325.89 148.25,320 136.14,320L119.84,320C107.73,320 98.736,328.369 88.07,334.1C72.071,342.697 46.811,350.266 46.811,350.266C37.971,350.266 30.811,357.426 30.811,366.266L30.811,398.266C30.811,407.106 37.971,414.266 46.811,414.266L62.811,414.266C101.431,414.266 104.72,403.81 128,384.16C151.28,403.82 185.38,416 224,416C262.62,416 296.72,403.81 320,384.16C343.28,403.82 377.38,416 416,416C444.913,416 449.914,409.832 464.267,398.363Z"/>
        <g transform="matrix(1,0,0,1,2.45718,104.576)">
            <path d="M464.267,398.363C470.412,393.51 474.277,386.332 474.948,378.531C476.548,359.971 478.435,328.229 472.07,334.1C461.8,343.58 442.04,352 416,352C389.96,352 370.2,343.58 359.91,334.1C351.01,325.89 340.25,320 328.14,320L311.84,320C299.73,320 288.97,325.89 280.07,334.1C269.8,343.58 250.04,352 224,352C197.96,352 178.2,343.58 167.91,334.1C159.01,325.89 148.25,320 136.14,320L119.84,320C107.73,320 98.736,328.369 88.07,334.1C72.071,342.697 46.811,350.266 46.811,350.266C37.971,350.266 30.811,357.426 30.811,366.266L30.811,398.266C30.811,407.106 37.971,414.266 46.811,414.266L62.811,414.266C101.431,414.266 104.72,403.81 128,384.16C151.28,403.82 185.38,416 224,416C262.62,416 296.72,403.81 320,384.16C343.28,403.82 377.38,416 416,416C444.913,416 449.914,409.832 464.267,398.363Z"/>
        </g>
        <path d="M467.745,134.992C478.966,124.511 475.593,95.989 475.593,95.989C472.784,73.222 415.965,82.012 395.105,82.082C360.597,82.198 350.832,91.204 325.292,109.464L269.1,174.02C258.72,181.41 249.74,190.46 242.38,200.96L173.75,299C179.22,302.23 184.57,305.93 189.61,310.58C193.15,313.84 204.88,320 224,320C243.12,320 254.86,313.84 258.39,310.58C274.41,295.81 292.89,288 311.85,288L328.15,288C347.11,288 365.6,295.81 381.61,310.58C385.15,313.84 396.88,320 416,320C435.12,320 446.86,313.84 450.39,310.58C465.25,296.87 386.94,207.82 386.94,207.82C386.94,207.82 391.501,164.504 396.267,158.877C417.276,134.074 456.524,145.473 467.745,134.992Z"/>
        <path d="M112,256C156.18,256 192,220.18 192,176C192,131.82 156.18,96 112,96C67.82,96 32,131.82 32,176C32,220.18 67.82,256 112,256Z"/>
    </g>
</svg>
