<?xml version="1.0" encoding="UTF-8" standalone="no"?>
<!DOCTYPE svg PUBLIC "-//W3C//DTD SVG 1.1//EN" "http://www.w3.org/Graphics/SVG/1.1/DTD/svg11.dtd">
<svg width="640px" height="321px" viewBox="0 0 640 321" version="1.1" xmlns="http://www.w3.org/2000/svg" xmlns:xlink="http://www.w3.org/1999/xlink" xml:space="preserve" xmlns:serif="http://www.serif.com/" style="fill-rule:evenodd;clip-rule:evenodd;stroke-linejoin:round;stroke-miterlimit:2;">
    <g transform="matrix(1,0,0,1,0,-95.998)" fill="rgb(64,64,64)">
        <path d="M189.61,310.58C193.15,313.84 204.88,320 224,320C243.12,320 254.86,313.84 258.39,310.58C274.41,295.81 292.89,288 311.85,288L328.15,288C347.11,288 365.6,295.81 381.61,310.58C385.15,313.84 396.88,320 416,320C435.12,320 446.86,313.84 450.39,310.58C465.25,296.87 482.27,289.46 499.78,288.42L386.94,207.82L404.94,194.96C408.58,192.38 413.22,191.44 417.56,192.35L517.91,213.88C543.82,219.41 569.35,202.91 574.91,177C580.46,151.08 563.96,125.56 538.03,120L437.68,98.47C406.95,91.89 374.66,98.59 349.12,116.85L269.1,174.02C258.72,181.41 249.74,190.46 242.38,200.96L173.75,299C179.22,302.23 184.57,305.93 189.61,310.58ZM624,352L608,352C581.96,352 562.2,343.58 551.91,334.1C543.01,325.89 532.25,320 520.14,320L503.84,320C491.73,320 480.97,325.89 472.07,334.1C461.8,343.58 442.04,352 416,352C389.96,352 370.2,343.58 359.91,334.1C351.01,325.89 340.25,320 328.14,320L311.84,320C299.73,320 288.97,325.89 280.07,334.1C269.8,343.58 250.04,352 224,352C197.96,352 178.2,343.58 167.91,334.1C159.01,325.89 148.25,320 136.14,320L119.84,320C107.73,320 96.97,325.89 88.07,334.1C77.8,343.58 58.04,352 32,352L16,352C7.16,352 0,359.16 0,368L0,400C0,408.84 7.16,416 16,416L32,416C70.62,416 104.72,403.81 128,384.16C151.28,403.82 185.38,416 224,416C262.62,416 296.72,403.81 320,384.16C343.28,403.82 377.38,416 416,416C454.62,416 488.72,403.81 512,384.16C535.28,403.82 569.38,416 608,416L624,416C632.84,416 640,408.84 640,400L640,368C640,359.16 632.84,352 624,352ZM112,256C156.18,256 192,220.18 192,176C192,131.82 156.18,96 112,96C67.82,96 32,131.82 32,176C32,220.18 67.82,256 112,256Z" style="fill-rule:nonzero;"/>
    </g>
</svg>
