<?xml version="1.0" encoding="UTF-8" standalone="no"?>
<!DOCTYPE svg PUBLIC "-//W3C//DTD SVG 1.1//EN" "http://www.w3.org/Graphics/SVG/1.1/DTD/svg11.dtd">
<svg width="100%" height="100%" viewBox="0 0 960 960" version="1.1" xmlns="http://www.w3.org/2000/svg" xmlns:xlink="http://www.w3.org/1999/xlink" xml:space="preserve" xmlns:serif="http://www.serif.com/" style="fill-rule:evenodd;clip-rule:evenodd;stroke-linejoin:round;stroke-miterlimit:2;">
    <g transform="matrix(1,0,0,-1,0,930)">
<!--        <circle cx="480" cy="450" r="480" fill="rgb(13,13,13)"/>-->
        <circle cx="480" cy="450" r="432.5" style="fill:rgb(115,115,115);"/>
        <path d="M99.231,450C99.231,359.208 139.343,172.874 299.804,172.874C398.972,172.874 473.232,259.467 473.232,346.322C473.232,369.911 468.406,393.757 458.352,416.352C314.279,429.096 237.699,561.161 237.699,657.699C237.699,694.85 246.056,730.054 261.004,761.518C163.142,692.605 99.231,578.767 99.231,450ZM319.587,104.562C377.722,77.492 431.884,69.231 480,69.231C691.986,69.231 833.312,235.411 833.312,346.201C833.312,433.483 765.104,519.278 660.697,519.278C602.287,519.278 551.648,491.685 519.955,448.087C535.175,415.371 542.471,380.682 542.471,346.371C542.471,228.807 453.173,115.212 319.587,104.562ZM306.938,657.692C306.938,568.193 374.87,494.561 461.99,485.542C508.158,551.824 583.156,588.509 660.095,588.509C739.771,588.509 814.031,549.485 859.303,483.892C842.13,678.319 678.876,830.77 480.014,830.77C386.641,830.77 306.938,757.32 306.938,657.692Z" style="fill-rule:nonzero;" fill="rgb(13,13,13)"/>
        <path d="M319.09,110.792L295.449,108.907L316.949,98.896C376.04,71.381 431.092,62.981 480,62.981C609.286,62.981 712.701,123.824 774.759,196.797C816.567,245.958 839.562,300.681 839.562,346.201C839.562,436.639 768.879,525.528 660.697,525.528C600.186,525.528 547.733,496.928 514.9,451.762L512.736,448.786L514.288,445.451C529.114,413.583 536.221,379.793 536.221,346.371C536.221,231.839 449.232,121.168 319.09,110.792ZM343.144,101.224C467.295,122.6 548.721,232.674 548.721,346.371C548.721,380.385 541.732,414.76 527.173,447.322C557.84,487.665 605.699,513.028 660.697,513.028C761.329,513.028 827.062,430.327 827.062,346.201C827.062,303.089 804.833,251.456 765.237,204.895C705.19,134.287 605.097,75.481 480,75.481C438.496,75.481 392.418,81.728 343.143,101.224L343.144,101.224ZM92.981,450C92.981,403.844 103.209,333.411 133.798,274.51C164.903,214.615 216.856,166.624 299.804,166.624C402.546,166.624 479.482,256.337 479.482,346.322C479.482,370.767 474.481,395.478 464.062,418.893L462.567,422.254L458.903,422.578C318.548,434.993 243.949,563.653 243.949,657.699C243.949,693.89 252.088,728.185 266.649,758.836L276.859,780.327L257.406,766.628C157.938,696.585 92.981,580.879 92.981,450ZM105.481,450C105.481,568.472 160.485,674.095 246.371,742.724C236.714,716.199 231.449,687.562 231.449,657.699C231.449,559.504 308.691,425.48 454.08,410.483C462.792,389.701 466.982,367.9 466.982,346.322C466.982,262.597 395.398,179.124 299.804,179.124C222.291,179.124 173.958,224.3 144.891,280.27C115.309,337.234 105.481,405.364 105.481,450ZM300.688,657.692C300.688,564.959 371.079,488.67 461.346,479.325L465.012,478.946L467.119,481.97C512.09,546.534 585.15,582.259 660.095,582.259C737.714,582.259 810.056,544.241 854.159,480.342L867.613,460.85L865.529,484.442C848.074,682.062 682.142,837.02 480.014,837.02C383.269,837.02 300.688,760.918 300.688,657.692ZM313.188,657.692C313.188,753.722 390.013,824.52 480.014,824.52C667.847,824.52 823.385,686.242 850.394,505.909C803.45,561.988 734.046,594.759 660.095,594.759C582.353,594.759 506.548,558.241 459.026,492.172C376.794,502.495 313.188,572.666 313.188,657.692Z"/>
        <g>
            <circle cx="465.012" cy="671.553" r="38" style="fill:rgb(115,115,115);"/>
            <circle cx="678.894" cy="352.607" r="38" style="fill:rgb(115,115,115);"/>
            <circle cx="295.874" cy="326.534" r="38" style="fill:rgb(115,115,115);"/>
        </g>
    </g>
</svg>
