<?xml version="1.0" encoding="UTF-8" standalone="no"?>
<!DOCTYPE svg PUBLIC "-//W3C//DTD SVG 1.1//EN" "http://www.w3.org/Graphics/SVG/1.1/DTD/svg11.dtd">
<svg width="100%" height="100%" viewBox="0 0 960 960" version="1.1" xmlns="http://www.w3.org/2000/svg" xmlns:xlink="http://www.w3.org/1999/xlink" xml:space="preserve" xmlns:serif="http://www.serif.com/" style="fill-rule:evenodd;clip-rule:evenodd;stroke-miterlimit:12;">
    <g transform="matrix(1,0,0,-1,0,930)">
        <circle cx="480" cy="450" r="480" fill="rgb(255,179,117)"/>
        <circle cx="480" cy="450" r="432.5" style="fill:rgb(255,212,177);"/>
        <path d="M99.231,450C99.231,359.208 139.343,172.874 299.804,172.874C398.972,172.874 473.232,259.467 473.232,346.322C473.232,369.911 468.406,393.757 458.352,416.352C314.279,429.096 237.699,561.161 237.699,657.699C237.699,694.85 246.056,730.054 261.004,761.518C163.142,692.605 99.231,578.767 99.231,450ZM319.587,104.562C377.722,77.492 431.884,69.231 480,69.231C691.986,69.231 833.312,235.411 833.312,346.201C833.312,433.483 765.104,519.278 660.697,519.278C602.287,519.278 551.648,491.685 519.955,448.087C535.175,415.371 542.471,380.682 542.471,346.371C542.471,228.807 453.173,115.212 319.587,104.562ZM306.938,657.692C306.938,568.193 374.87,494.561 461.99,485.542C508.158,551.824 583.156,588.509 660.095,588.509C739.771,588.509 814.031,549.485 859.303,483.892C842.13,678.319 678.876,830.77 480.014,830.77C386.641,830.77 306.938,757.32 306.938,657.692Z" style="fill-rule:nonzero;stroke:rgb(234,104,0);stroke-width:12.5px;"/>
        <g>
            <circle cx="465.012" cy="671.553" r="38" style="fill:rgb(255,212,177);"/>
            <circle cx="678.894" cy="352.607" r="38" style="fill:rgb(255,212,177);"/>
            <circle cx="295.874" cy="326.534" r="38" style="fill:rgb(255,212,177);"/>
        </g>
    </g>
</svg>
