<?xml version="1.0" encoding="UTF-8" standalone="no"?>
<!DOCTYPE svg PUBLIC "-//W3C//DTD SVG 1.1//EN" "http://www.w3.org/Graphics/SVG/1.1/DTD/svg11.dtd">
<svg fill="rgb(255,157,78)" width="100%" height="100%" viewBox="0 0 865 865" version="1.1" xmlns="http://www.w3.org/2000/svg" xmlns:xlink="http://www.w3.org/1999/xlink" xml:space="preserve" xmlns:serif="http://www.serif.com/" style="fill-rule:evenodd;clip-rule:evenodd;stroke-linejoin:round;stroke-miterlimit:2;">
    <path d="M432.5,865C671.203,865 865,671.203 865,432.5C865,193.797 671.203,0 432.5,0C193.797,0 0,193.797 0,432.5C0,671.203 193.797,865 432.5,865ZM295.644,781.276C419.795,759.9 501.221,649.826 501.221,536.129C501.221,502.115 494.232,467.74 479.673,435.178C510.34,394.835 558.199,369.472 613.197,369.472C713.829,369.472 779.562,452.173 779.562,536.299C779.562,579.411 757.333,631.044 717.737,677.605C657.69,748.213 557.597,807.019 432.5,807.019C390.996,807.019 344.918,800.772 295.643,781.276L295.644,781.276ZM57.981,432.5C57.981,314.028 112.985,208.405 198.871,139.776C189.214,166.301 183.949,194.938 183.949,224.801C183.949,322.996 261.191,457.02 406.58,472.017C415.292,492.799 419.482,514.6 419.482,536.178C419.482,619.903 347.898,703.376 252.304,703.376C174.791,703.376 126.458,658.2 97.391,602.23C67.809,545.266 57.981,477.136 57.981,432.5ZM265.688,224.808C265.688,128.778 342.513,57.98 432.514,57.98C620.347,57.98 775.885,196.258 802.894,376.591C755.95,320.512 686.546,287.741 612.595,287.741C534.853,287.741 459.048,324.259 411.526,390.328C329.294,380.005 265.688,309.834 265.688,224.808Z"/>
    <g transform="matrix(1,0,0,-1,-47.5,882.5)">
        <circle cx="465.012" cy="671.553" r="38" style="stroke:rgb(255,157,78);stroke-width:26.67px;"/>
        <circle cx="678.894" cy="352.607" r="38" style="stroke:rgb(255,157,78);stroke-width:26.67px;"/>
        <circle cx="295.874" cy="326.534" r="38" style="stroke:rgb(255,157,78);stroke-width:26.67px;"/>
    </g>
</svg>
