<?xml version="1.0" encoding="UTF-8" standalone="no"?>
<!DOCTYPE svg PUBLIC "-//W3C//DTD SVG 1.1//EN" "http://www.w3.org/Graphics/SVG/1.1/DTD/svg11.dtd">
<svg fill="rgb(64,64,64)" width="100%" height="100%" viewBox="0 0 130 81" version="1.1" xmlns="http://www.w3.org/2000/svg" xmlns:xlink="http://www.w3.org/1999/xlink" xml:space="preserve" xmlns:serif="http://www.serif.com/" style="fill-rule:evenodd;clip-rule:evenodd;stroke-linejoin:round;stroke-miterlimit:2;">
    <path id="V--Left-" serif:id="V (Left)" d="M93.849,0L93.849,2.139C91.027,2.64 88.892,3.527 87.442,4.798C85.365,6.687 82.917,9.577 81.31,13.47L48.625,80.182L46.45,80.182L13.637,12.603C12.109,9.134 10.031,7.014 9.404,6.244C8.425,5.049 7.22,4.114 5.79,3.44C4.359,2.765 2.429,2.332 0,2.139L0,0L31.928,0L31.928,2.139C28.245,2.486 26.489,3.103 25.391,3.989C24.294,4.875 23.746,6.012 23.746,7.4C23.746,9.327 24.647,12.333 26.449,16.418L50.682,62.377L74.374,16.996C76.216,12.526 77.744,9.423 77.744,7.689C77.744,6.571 77.176,5.502 76.039,4.48C74.903,3.459 73.617,2.736 70.914,2.312C70.718,2.274 70.385,2.216 69.914,2.139L69.914,0L93.849,0Z" style="fill-rule:nonzero;"/>
    <g id="V--Right-" serif:id="V (Right)" transform="matrix(1,0,0,1,35.245,0)">
        <path d="M93.849,0L93.849,2.139C91.027,2.64 88.892,3.527 87.442,4.798C85.365,6.687 82.917,9.577 81.31,13.47L48.625,80.182L46.45,80.182L13.637,12.603C12.109,9.134 10.031,7.014 9.404,6.244C8.425,5.049 7.22,4.114 5.79,3.44C4.359,2.765 2.429,2.332 0,2.139L0,0L31.928,0L31.928,2.139C28.245,2.486 26.489,3.103 25.391,3.989C24.294,4.875 23.746,6.012 23.746,7.4C23.746,9.327 24.647,12.333 26.449,16.418L50.682,62.377L74.374,16.996C76.216,12.526 77.744,9.423 77.744,7.689C77.744,6.571 77.176,5.502 76.039,4.48C74.903,3.459 73.617,2.736 70.914,2.312C70.718,2.274 70.385,2.216 69.914,2.139L69.914,0L93.849,0Z" style="fill-rule:nonzero;"/>
    </g>
</svg>
