<?xml version="1.0" encoding="UTF-8" standalone="no"?>
<!DOCTYPE svg PUBLIC "-//W3C//DTD SVG 1.1//EN" "http://www.w3.org/Graphics/SVG/1.1/DTD/svg11.dtd">
<svg width="100%" height="100%" viewBox="0 0 188 60" version="1.1" xmlns="http://www.w3.org/2000/svg" xmlns:xlink="http://www.w3.org/1999/xlink" xml:space="preserve" xmlns:serif="http://www.serif.com/" style="fill-rule:evenodd;clip-rule:evenodd;stroke-linejoin:round;stroke-miterlimit:2;">
    <g transform="matrix(0.441821,0,0,0.441821,-65.8759,0.0665891)">
        <path d="M400.3,102.8L391.8,102.8L423.1,31.5L454.4,102.8L445.4,102.8L437.3,83L416.5,83L418.7,76.4L434.6,76.4L422.8,47.9L400.3,102.8Z" style="fill:rgb(181,46,49);"/>
    </g>
    <g transform="matrix(0.441821,0,0,0.441821,-13.3375,0.0665891)">
        <path d="M400.3,102.8L391.8,102.8L423.1,31.5L454.4,102.8L445.4,102.8L437.3,83L416.5,83L418.7,76.4L434.6,76.4L422.8,47.9L400.3,102.8Z" style="fill:rgb(181,46,49);"/>
    </g>
    <g transform="matrix(1,0,0,1,-94.9686,-50.9581)">
        <g transform="matrix(0.429075,0,0,0.429075,125.122,50.9581)">
            <path d="M0,23L64.5,0L130.7,22.6L120,107.9L64.5,138.6L9.9,108.3L0,23Z" style="fill:rgb(226,50,55);"/>
        </g>
        <g transform="matrix(0.429075,0,0,0.429075,125.122,50.9581)">
            <path d="M130.7,22.6L64.5,0L64.5,138.6L120,107.9L130.7,22.6Z" style="fill:rgb(181,46,49);"/>
        </g>
        <g transform="matrix(0.429075,0,0,0.429075,125.122,50.9581)">
            <path d="M64.6,16.2L24.4,105.6L39.4,105.3L47.5,85.1L83.4,85.1L92.2,105.5L106.5,105.8L64.6,16.2ZM64.7,44.9L78.3,73.3L52.8,73.3L64.7,44.9Z" style="fill:white;"/>
        </g>
    </g>
    <g transform="matrix(3.26744,0,0,3.26744,-897.629,23.2079)">
        <path d="M274.72,6.825L274.72,-1.554L276.097,-1.554L279.173,5.437L282.19,-1.554L283.509,-1.554L283.509,6.825L282.542,6.825L282.542,-0.048L279.565,6.825L278.71,6.825L275.686,-0.048L275.686,6.825L274.72,6.825Z" style="fill:rgb(181,46,49);fill-rule:nonzero;"/>
    </g>
    <g transform="matrix(3.26744,0,0,3.26744,-873.368,23.2079)">
        <path d="M295.21,-1.554L295.21,5.946L299.593,5.946L299.593,6.825L294.126,6.825L294.126,-1.554L295.21,-1.554Z" style="fill:rgb(181,46,49);fill-rule:nonzero;"/>
    </g>
    <g transform="matrix(3.26744,0,0,3.26744,-875.265,23.2079)">
        <path d="M315.835,6.497C315.159,6.755 314.431,6.884 313.649,6.884C310.614,6.884 309.097,5.429 309.097,2.519C309.097,-0.235 310.561,-1.612 313.491,-1.612C314.331,-1.612 315.112,-1.495 315.835,-1.261L315.835,-0.323C315.112,-0.596 314.37,-0.733 313.608,-0.733C311.323,-0.733 310.181,0.351 310.181,2.519C310.181,4.843 311.306,6.005 313.556,6.005C313.915,6.005 314.313,5.958 314.751,5.864L314.751,3.017L315.835,3.017L315.835,6.497Z" style="fill:rgb(181,46,49);fill-rule:nonzero;"/>
    </g>
</svg>
