<?xml version="1.0" encoding="UTF-8" standalone="no"?>
<!DOCTYPE svg PUBLIC "-//W3C//DTD SVG 1.1//EN" "http://www.w3.org/Graphics/SVG/1.1/DTD/svg11.dtd">
<svg width="100%" height="100%" viewBox="0 0 48 68" version="1.1" xmlns="http://www.w3.org/2000/svg" xmlns:xlink="http://www.w3.org/1999/xlink" xml:space="preserve" xmlns:serif="http://www.serif.com/" style="fill-rule:evenodd;clip-rule:evenodd;stroke-linejoin:round;stroke-miterlimit:2;">
    <g>
        <g transform="matrix(1,0,0,-1,0,47.099)">
            <path d="M0,0L0,-10.946C0,-11.5 0.319,-12.004 0.819,-12.241L18.63,-20.69C19.055,-20.893 19.553,-20.872 19.96,-20.637L47.024,-5.416C47.468,-5.16 47.741,-4.687 47.741,-4.175L47.741,6.479C47.741,7.585 46.544,8.274 45.588,7.72L20.232,-6.612C19.825,-6.85 19.327,-6.87 18.901,-6.669L2.046,1.296C1.095,1.745 0,1.052 0,0" style="fill-rule:nonzero;"/>
        </g>
        <g transform="matrix(1,0,0,-1,0,27.5716)">
            <path d="M0,0L0,-10.946C0,-11.5 0.319,-12.004 0.819,-12.241L18.63,-20.69C19.055,-20.893 19.553,-20.872 19.96,-20.637L40.203,-9.575C40.647,-9.318 40.92,-8.846 40.92,-8.333L40.92,2.321C40.92,3.426 39.723,4.115 38.768,3.562L20.232,-6.613C19.825,-6.85 19.327,-6.87 18.901,-6.669L2.046,1.296C1.095,1.745 0,1.052 0,0" style="fill-rule:nonzero;"/>
        </g>
        <g transform="matrix(1,0,0,-1,0,7.9154)">
            <path d="M0,0L0,-10.946C0,-11.5 0.319,-12.004 0.819,-12.241L18.63,-20.69C19.055,-20.893 19.553,-20.872 19.96,-20.637L47.024,-5.416C47.468,-5.16 47.741,-4.687 47.741,-4.175L47.741,6.479C47.741,7.585 46.544,8.274 45.588,7.72L20.232,-6.612C19.825,-6.85 19.327,-6.87 18.901,-6.669L2.046,1.296C1.095,1.745 0,1.052 0,0" style="fill-rule:nonzero;"/>
        </g>
    </g>
</svg>
