<svg class="text-4.5xl" style="display:inline;height:1em" xmlns="http://www.w3.org/2000/svg" viewBox="0 0 47.741 67.9277"><g fill="white" transform="rotate(0, 23.5, 33.5)"><path transform="matrix(1,0,0,-1,0,47.099)" d="M 0 0 L 0 -10.946 C 0 -11.5 .319 -12.004 .819 -12.241 L 18.63 -20.69 C 19.055 -20.893 19.553 -20.872 19.96 -20.637 L 47.024 -5.416 C 47.468 -5.16 47.741 -4.687 47.741 -4.175 L 47.741 6.479 C 47.741 7.585 46.544 8.274 45.588 7.72 L 20.232 -6.612 C 19.825 -6.85 19.327 -6.87 18.901 -6.669 L 2.046 1.296 C 1.095 1.745 0 1.052 0 0 "></path><path transform="matrix(1,0,0,-1,0,27.571599)" d="M 0 0 L 0 -10.946 C 0 -11.5 .319 -12.004 .819 -12.241 L 18.63 -20.69 C 19.055 -20.893 19.553 -20.872 19.96 -20.637 L 40.203 -9.575 C 40.647 -9.318 40.92 -8.846 40.92 -8.333 L 40.92 2.321 C 40.92 3.426 39.723 4.115 38.768 3.562 L 20.232 -6.613 C 19.825 -6.85 19.327 -6.87 18.901 -6.669 L 2.046 1.296 C 1.095 1.745 0 1.052 0 0 "></path><path transform="matrix(1,0,0,-1,0,7.9153978)" d="M 0 0 L 0 -10.946 C 0 -11.5 .319 -12.004 .819 -12.241 L 18.63 -20.69 C 19.055 -20.893 19.553 -20.872 19.96 -20.637 L 47.024 -5.416 C 47.468 -5.16 47.741 -4.687 47.741 -4.175 L 47.741 6.479 C 47.741 7.585 46.544 8.274 45.588 7.72 L 20.232 -6.612 C 19.825 -6.85 19.327 -6.87 18.901 -6.669 L 2.046 1.296 C 1.095 1.745 0 1.052 0 0 "></path></g></svg>
