<svg xmlns="http://www.w3.org/2000/svg" viewBox="0 0 208.27 276.21"><defs><style>.cls-1{fill:#89d0e6;}</style></defs><g id="logo_limpieza" data-name="logo limpieza"><g id="bandas"><rect class="cls-1" x="62.02" y="166.83" width="85.07" height="16.3"/><rect class="cls-1" x="76.2" y="129.72" width="56.71" height="16.3"/><rect class="cls-1" x="62.04" y="92.96" width="85.07" height="16.3"/></g><path class="cls-1" d="M104.14,258.35,0,198.23V78L104.14,17.86,208.27,78V198.23ZM25.88,183.28l78.26,45.19,78.25-45.19V92.92L104.14,47.74,25.88,92.92Z"/><polygon class="cls-1" points="145.76 234.32 119.88 219.38 99.08 231.38 99.08 231.38 47.32 261.27 73.2 276.21 145.76 234.32"/><polygon class="cls-1" points="62.51 41.89 88.39 56.83 109.19 44.83 109.19 44.83 160.95 14.94 135.07 0 62.51 41.89"/></g></svg>