<svg width="1615" height="608" viewBox="0 0 1615 608" fill="none" xmlns="http://www.w3.org/2000/svg">
<path d="M672 260.709H642.411V337H624.59V260.709H595V245H672V260.709Z" fill="#76A2C0"/>
<path d="M698.584 339C693.058 339 688.034 338.084 683.68 336.17C679.243 334.256 675.559 331.759 672.461 328.512C669.363 325.266 667.019 321.604 665.428 317.359C663.754 313.114 663 308.703 663 304.042C663 299.297 663.837 294.803 665.428 290.641C667.103 286.396 669.447 282.734 672.461 279.488C675.559 276.241 679.243 273.744 683.68 271.83C688.118 269.916 693.058 269 698.584 269C704.11 269 709.05 269.916 713.403 271.83C717.757 273.744 721.525 276.241 724.539 279.488C727.637 282.734 729.981 286.396 731.572 290.641C733.246 294.886 734 299.297 734 304.042C734 308.703 733.163 313.114 731.572 317.359C729.897 321.604 727.553 325.266 724.539 328.512C721.525 331.759 717.757 334.256 713.403 336.17C709.05 338.084 704.11 339 698.584 339ZM680.75 304.042C680.75 307.038 681.169 309.785 682.09 312.199C683.011 314.612 684.267 316.776 685.857 318.608C687.448 320.439 689.374 321.771 691.467 322.769C693.644 323.768 695.988 324.268 698.5 324.268C701.012 324.268 703.356 323.768 705.533 322.769C707.71 321.771 709.552 320.356 711.143 318.608C712.733 316.776 713.989 314.612 714.91 312.115C715.831 309.618 716.25 306.872 716.25 303.875C716.25 300.962 715.831 298.215 714.91 295.718C713.989 293.221 712.733 291.057 711.143 289.309C709.552 287.478 707.626 286.146 705.533 285.147C703.356 284.149 701.012 283.649 698.5 283.649C695.988 283.649 693.644 284.149 691.467 285.231C689.29 286.229 687.448 287.644 685.857 289.476C684.267 291.307 683.011 293.471 682.09 295.968C681.252 298.382 680.75 301.128 680.75 304.042Z" fill="#76A2C0"/>
<path d="M787.114 339.629C781.711 339.629 776.983 338.454 773.015 336.018C768.963 333.667 765.84 330.391 763.56 326.276V366H746V270.092H761.281V281.849C763.813 277.902 767.106 274.711 771.074 272.443C775.126 270.176 779.685 269 784.919 269C789.562 269 793.784 269.924 797.752 271.771C801.719 273.619 805.096 276.139 807.882 279.33C810.753 282.521 812.948 286.216 814.552 290.5C816.156 294.783 817 299.318 817 304.105C817 309.06 816.24 313.679 814.805 318.046C813.285 322.413 811.259 326.192 808.558 329.384C805.856 332.575 802.732 335.094 799.102 336.942C795.556 338.706 791.504 339.629 787.114 339.629ZM781.289 324.765C783.906 324.765 786.354 324.177 788.549 323.085C790.744 321.993 792.686 320.397 794.206 318.55C795.81 316.618 796.992 314.435 797.836 311.915C798.68 309.396 799.187 306.792 799.187 304.105C799.187 301.249 798.68 298.562 797.752 296.126C796.823 293.691 795.472 291.507 793.784 289.66C792.095 287.812 790.069 286.384 787.79 285.377C785.51 284.369 782.977 283.781 780.276 283.781C778.587 283.781 776.899 284.033 775.21 284.621C773.438 285.209 771.834 285.965 770.398 287.056C768.879 288.064 767.612 289.324 766.43 290.668C765.249 292.095 764.32 293.607 763.729 295.203V311.243C765.333 315.19 767.697 318.382 770.905 320.901C774.029 323.505 777.49 324.765 781.289 324.765Z" fill="#76A2C0"/>
<path d="M829 338V269.795H846V338H829ZM829 260.303V243H846V260.303H829Z" fill="#76A2C0"/>
<path d="M858 303.834C858 299.095 858.829 294.606 860.405 290.449C862.063 286.209 864.384 282.551 867.452 279.392C870.52 276.233 874.251 273.656 878.646 271.827C883.04 269.915 887.932 269 893.404 269C900.784 269 907.085 270.58 912.226 273.739C917.45 276.898 921.264 281.055 923.834 286.209L907.003 291.363C905.51 288.869 903.603 286.957 901.198 285.627C898.794 284.297 896.141 283.632 893.239 283.632C890.751 283.632 888.43 284.131 886.274 285.128C884.118 286.126 882.294 287.456 880.636 289.285C879.06 291.031 877.817 293.192 876.904 295.686C875.992 298.181 875.578 300.924 875.578 303.917C875.578 306.91 876.075 309.653 876.987 312.147C877.9 314.641 879.226 316.803 880.802 318.632C882.377 320.461 884.284 321.791 886.357 322.789C888.513 323.786 890.751 324.285 893.156 324.285C896.224 324.285 899.043 323.537 901.696 321.957C904.349 320.378 906.173 318.549 907.168 316.304L924 321.458C921.678 326.613 917.864 330.853 912.558 334.095C907.251 337.337 900.867 339 893.404 339C887.932 339 882.957 338.086 878.646 336.173C874.251 334.261 870.52 331.767 867.452 328.525C864.384 325.283 861.98 321.542 860.322 317.302C858.829 312.979 858 308.489 858 303.834Z" fill="#76A2C0"/>
<path d="M937 337.833V246H999V261.695H954.954V285.405H991.617V299.931H954.954V338H937V337.833Z" fill="#76A2C0"/>
<path d="M1045 284.949C1039.79 285.033 1035.17 286.04 1031.03 287.971C1026.9 289.901 1024.01 292.839 1022.19 296.785V338H1005V269.839H1020.79V284.445C1021.94 282.095 1023.43 279.996 1025 278.15C1026.65 276.303 1028.39 274.624 1030.29 273.281C1032.19 271.854 1034.09 270.847 1035.99 270.091C1037.89 269.336 1039.79 269 1041.53 269C1042.44 269 1043.18 269 1043.68 269C1044.17 269 1044.59 269 1045 269.168V284.949Z" fill="#76A2C0"/>
<path d="M1055 338V269.795H1073V338H1055ZM1055 260.303V243H1073V260.303H1055Z" fill="#76A2C0"/>
<path d="M1120.13 339C1114.64 339 1109.66 338.086 1105.19 336.257C1100.71 334.428 1096.91 331.933 1093.79 328.691C1090.67 325.532 1088.22 321.791 1086.53 317.634C1084.84 313.394 1084 308.988 1084 304.333C1084 299.511 1084.84 295.021 1086.45 290.698C1088.14 286.458 1090.5 282.717 1093.62 279.475C1096.75 276.233 1100.54 273.739 1105.1 271.827C1109.58 269.914 1114.64 269 1120.21 269C1125.78 269 1130.76 269.914 1135.24 271.827C1139.62 273.739 1143.42 276.233 1146.46 279.392C1149.59 282.551 1151.95 286.292 1153.55 290.449C1155.16 294.689 1156 299.012 1156 303.584C1156 304.665 1156 305.746 1155.92 306.827C1155.83 307.907 1155.75 308.739 1155.58 309.404H1102.57C1102.82 312.064 1103.5 314.392 1104.51 316.47C1105.52 318.549 1106.87 320.295 1108.56 321.791C1110.25 323.287 1112.11 324.368 1114.22 325.116C1116.33 325.865 1118.52 326.28 1120.8 326.28C1124.26 326.28 1127.55 325.449 1130.68 323.786C1133.8 322.124 1135.91 319.879 1137.01 317.135L1152.03 321.292C1149.5 326.447 1145.45 330.686 1139.96 334.012C1134.39 337.337 1127.81 339 1120.13 339ZM1137.94 298.264C1137.51 293.192 1135.57 289.119 1132.2 286.126C1128.82 283.05 1124.77 281.553 1119.96 281.553C1117.59 281.553 1115.4 281.969 1113.37 282.8C1111.35 283.632 1109.49 284.796 1107.97 286.209C1106.37 287.705 1105.1 289.451 1104.09 291.53C1103.08 293.608 1102.49 295.853 1102.32 298.347H1137.94V298.264V298.264Z" fill="#76A2C0"/>
<path d="M1229 338H1211.67V300C1211.67 294.583 1210.75 290.583 1208.83 288.083C1206.92 285.583 1204.33 284.333 1200.92 284.333C1199.17 284.333 1197.42 284.667 1195.58 285.333C1193.75 286 1192.08 287 1190.5 288.25C1188.92 289.5 1187.5 291 1186.17 292.667C1184.92 294.417 1183.92 296.25 1183.33 298.333V337.833H1166V270.167H1181.67V282.667C1184.17 278.333 1187.75 275 1192.5 272.583C1197.25 270.167 1202.58 269 1208.5 269C1212.75 269 1216.17 269.75 1218.83 271.333C1221.5 272.917 1223.58 274.917 1225 277.417C1226.5 279.917 1227.5 282.75 1228 285.917C1228.58 289.083 1228.83 292.333 1228.83 295.583V338H1229V338Z" fill="#76A2C0"/>
<path d="M1273.42 339C1268.72 339 1264.43 338.079 1260.4 336.238C1256.37 334.397 1253.01 331.886 1250.15 328.705C1247.3 325.525 1245.03 321.758 1243.44 317.49C1241.84 313.221 1241 308.618 1241 303.68C1241 298.742 1241.76 294.139 1243.27 289.954C1244.78 285.685 1246.88 282.003 1249.57 278.822C1252.25 275.642 1255.45 273.131 1259.23 271.289C1262.92 269.448 1267.04 268.527 1271.49 268.527C1276.53 268.527 1281.06 269.699 1285.09 272.126C1289.12 274.554 1292.32 277.734 1294.5 281.584V243H1311.97V317.741C1311.97 319.582 1312.3 320.838 1312.89 321.591C1313.48 322.344 1314.57 322.763 1316 322.847V337.661C1312.98 338.247 1310.46 338.582 1308.61 338.582C1305.5 338.582 1302.9 337.828 1300.97 336.238C1298.95 334.648 1297.86 332.639 1297.61 330.128L1297.19 325.86C1294.67 330.212 1291.31 333.476 1286.94 335.652C1282.66 337.828 1278.12 339 1273.42 339ZM1278.04 324.186C1279.72 324.186 1281.4 323.935 1283.08 323.349C1284.84 322.763 1286.44 322.01 1287.86 320.922C1289.38 319.917 1290.64 318.662 1291.81 317.323C1292.99 315.983 1293.91 314.393 1294.5 312.803V296.566C1293.83 294.641 1292.82 292.883 1291.56 291.293C1290.3 289.703 1288.87 288.28 1287.28 287.108C1285.68 285.936 1284 285.016 1282.15 284.346C1280.39 283.677 1278.63 283.342 1276.86 283.342C1274.26 283.342 1271.82 283.928 1269.64 285.016C1267.46 286.104 1265.52 287.694 1263.93 289.619C1262.33 291.544 1261.16 293.804 1260.32 296.315C1259.48 298.826 1259.06 301.42 1259.06 304.099C1259.06 306.944 1259.56 309.622 1260.48 312.05C1261.41 314.477 1262.75 316.569 1264.35 318.411C1266.03 320.252 1267.96 321.675 1270.31 322.679C1272.66 323.684 1275.27 324.186 1278.04 324.186Z" fill="#76A2C0"/>
<path d="M1354.07 339C1348.31 339 1342.64 338.077 1337.14 336.23C1331.63 334.384 1326.89 331.782 1323 328.426L1329.6 317.515C1333.83 320.453 1337.9 322.719 1341.88 324.229C1345.86 325.74 1349.83 326.495 1353.73 326.495C1357.2 326.495 1359.99 325.824 1362.02 324.565C1364.05 323.306 1365.07 321.376 1365.07 318.942C1365.07 316.508 1363.89 314.746 1361.52 313.571C1359.14 312.48 1355.34 311.137 1350 309.626C1345.52 308.452 1341.71 307.277 1338.58 306.102C1335.44 305.011 1332.9 303.668 1330.96 302.241C1329.01 300.814 1327.66 299.136 1326.72 297.29C1325.88 295.443 1325.45 293.177 1325.45 290.576C1325.45 287.135 1326.13 283.946 1327.49 281.176C1328.84 278.407 1330.79 276.057 1333.16 274.126C1335.61 272.196 1338.49 270.686 1341.79 269.595C1345.09 268.587 1348.65 268 1352.46 268C1357.62 268 1362.45 268.755 1366.93 270.182C1371.42 271.693 1375.57 274.043 1379.29 277.316L1372.18 287.806C1368.71 285.204 1365.32 283.274 1362.02 282.099C1358.72 280.924 1355.51 280.253 1352.29 280.253C1349.33 280.253 1346.79 280.84 1344.84 282.099C1342.81 283.274 1341.79 285.288 1341.79 287.974C1341.79 289.149 1342.05 290.156 1342.55 290.995C1343.06 291.751 1343.82 292.506 1344.84 293.093C1345.86 293.681 1347.29 294.268 1348.99 294.856C1350.68 295.443 1352.8 296.031 1355.34 296.618C1360.08 297.793 1364.14 299.052 1367.44 300.227C1370.83 301.402 1373.54 302.829 1375.74 304.423C1377.85 306.018 1379.46 307.78 1380.48 309.794C1381.49 311.808 1382 314.242 1382 317.18C1382 323.894 1379.55 329.097 1374.55 332.957C1369.47 337.07 1362.62 339 1354.07 339Z" fill="#76A2C0"/>
<path d="M1406.92 319H1393V338H1407V319H1406.92Z" fill="#76A2C0"/>
<path d="M1454 339C1448.41 339 1443.33 338.084 1438.92 336.17C1434.43 334.256 1430.71 331.759 1427.57 328.512C1424.44 325.266 1422.07 321.604 1420.46 317.359C1418.76 313.114 1418 308.703 1418 304.042C1418 299.297 1418.85 294.803 1420.46 290.641C1422.15 286.396 1424.52 282.734 1427.57 279.488C1430.71 276.241 1434.43 273.744 1438.92 271.83C1443.41 269.916 1448.41 269 1454 269C1459.59 269 1464.59 269.916 1469.08 271.83C1473.48 273.744 1477.29 276.241 1480.34 279.488C1483.48 282.734 1485.85 286.396 1487.46 290.641C1489.15 294.886 1490 299.297 1490 304.042C1490 308.703 1489.15 313.114 1487.46 317.359C1485.76 321.604 1483.39 325.266 1480.34 328.512C1477.29 331.759 1473.48 334.256 1469.08 336.17C1464.59 338.084 1459.59 339 1454 339ZM1435.96 304.042C1435.96 307.038 1436.47 309.785 1437.31 312.199C1438.24 314.612 1439.52 316.776 1441.12 318.608C1442.73 320.439 1444.68 321.771 1446.8 322.769C1449 323.768 1451.37 324.268 1453.92 324.268C1456.46 324.268 1458.83 323.768 1461.03 322.769C1463.23 321.771 1465.1 320.356 1466.71 318.608C1468.32 316.776 1469.59 314.612 1470.52 312.115C1471.45 309.618 1471.87 306.872 1471.87 303.875C1471.87 300.962 1471.45 298.215 1470.52 295.718C1469.59 293.221 1468.32 291.057 1466.71 289.309C1465.1 287.478 1463.15 286.146 1461.03 285.147C1458.83 284.149 1456.46 283.649 1453.92 283.649C1451.37 283.649 1449 284.149 1446.8 285.231C1444.6 286.229 1442.73 287.644 1441.12 289.476C1439.52 291.307 1438.24 293.471 1437.31 295.968C1436.47 298.382 1435.96 301.128 1435.96 304.042Z" fill="#76A2C0"/>
<path d="M1541.92 284.949C1536.59 285.033 1531.86 286.04 1527.63 287.971C1523.4 289.901 1520.44 292.839 1518.58 296.785V338H1501V269.839H1517.15V284.445C1518.33 282.095 1519.77 279.996 1521.46 278.15C1523.15 276.303 1524.92 274.624 1526.87 273.281C1528.81 271.854 1530.76 270.847 1532.7 270.091C1534.65 269.336 1536.59 269 1538.45 269C1539.38 269 1540.14 269 1540.65 269C1541.15 269 1541.58 269 1542 269.168V284.949H1541.92Z" fill="#76A2C0"/>
<path d="M1574.7 338.546C1570.08 338.546 1565.96 337.625 1562.17 335.784C1558.39 333.943 1555.19 331.516 1552.5 328.336C1549.72 325.155 1547.62 321.557 1546.19 317.372C1544.67 313.188 1544 308.836 1544 304.149C1544 299.212 1544.76 294.609 1546.36 290.424C1547.95 286.156 1550.06 282.474 1552.92 279.294C1555.69 276.114 1559.06 273.603 1562.93 271.762C1566.8 269.921 1571.17 269 1575.88 269C1581.18 269 1585.81 270.172 1589.85 272.599C1593.89 274.942 1597.17 278.122 1599.77 282.139V270.172H1615V334.863C1615 339.885 1614.07 344.404 1612.14 348.337C1610.2 352.271 1607.6 355.702 1604.23 358.464C1600.87 361.225 1596.91 363.318 1592.2 364.824C1587.58 366.331 1582.53 367 1576.98 367C1569.49 367 1563.26 365.745 1558.13 363.318C1553.09 360.891 1548.71 357.376 1545.01 352.857L1554.52 343.651C1557.12 346.831 1560.4 349.342 1564.36 351.183C1568.31 353.024 1572.52 353.945 1576.98 353.945C1579.67 353.945 1582.28 353.61 1584.72 352.857C1587.16 352.103 1589.43 350.932 1591.28 349.425C1593.21 347.835 1594.73 345.91 1595.82 343.483C1596.91 341.056 1597.42 338.211 1597.42 334.947V326.411C1595.15 330.26 1591.95 333.273 1587.91 335.449C1583.79 337.458 1579.42 338.546 1574.7 338.546ZM1580.59 324.653C1582.53 324.653 1584.3 324.319 1586.06 323.733C1587.83 323.147 1589.43 322.31 1590.86 321.306C1592.37 320.301 1593.63 319.046 1594.73 317.707C1595.82 316.284 1596.75 314.862 1597.33 313.272V297.036C1595.74 293.102 1593.3 289.839 1589.93 287.412C1586.57 284.985 1583.12 283.813 1579.42 283.813C1576.72 283.813 1574.28 284.399 1572.1 285.57C1569.91 286.742 1568.06 288.332 1566.46 290.257C1564.86 292.182 1563.68 294.442 1562.84 296.952C1562 299.463 1561.58 302.057 1561.58 304.735C1561.58 307.497 1562.09 310.091 1563.01 312.518C1563.94 314.945 1565.28 317.038 1566.97 318.879C1568.65 320.72 1570.67 322.143 1572.94 323.147C1575.38 324.151 1577.9 324.653 1580.59 324.653Z" fill="#76A2C0"/>
<path d="M514.048 132.438L396.7 64.1314L298.574 7.2376C281.954 -2.41253 260.885 -2.41253 243.426 7.2376L173.336 47.5164L27.1126 132.438C10.4925 142.088 0 160.465 0 179.681V429.158C0 448.458 10.4925 466.835 27.1126 476.402L243.426 600.762C260.046 610.413 281.115 610.413 298.574 600.762L514.887 476.402C531.508 466.752 542 448.374 542 429.158V179.681C541.245 160.465 531.591 142.088 514.048 132.438ZM133.129 242.785V197.219H408.116V242.785H265.334V304.965H359.934V343.482H265.334V449.381H218.915V242.785H133.129Z" fill="#187FA9"/>
<path d="M514.048 132.438L396.7 64.1314L298.574 7.2376C281.954 -2.41253 260.885 -2.41253 243.426 7.2376L173.336 47.5164L27.1126 132.438C10.4925 142.088 0 160.465 0 179.681V429.158C0 448.458 10.4925 466.835 27.1126 476.402L243.426 600.762C260.046 610.413 281.115 610.413 298.574 600.762L514.887 476.402C531.508 466.752 542 448.374 542 429.158V179.681C541.245 160.465 531.591 142.088 514.048 132.438ZM473.841 447.619L293.454 550.917C279.436 558.805 261.893 558.805 247.875 550.917L68.3271 447.619C54.3091 439.731 45.5794 424.878 45.5794 408.263V200.744C45.5794 184.129 54.3091 169.192 68.3271 161.388L190.04 91.3196L247.875 58.0896C261.893 50.2016 279.436 50.2016 293.454 58.0896L374.876 105.333L473.001 161.388C487.019 169.276 495.749 184.129 495.749 200.744V408.263H496.588C496.588 424.878 487.859 439.815 473.841 447.619Z" fill="#8EA6C4"/>
<path d="M265.212 242.536V304.677H359.816V343.168H265.212V449H218.791V242.536H133V197H408V242.536H265.212Z" fill="white"/>
<path d="M360 343V374.498H297.538V449H265V343H360Z" fill="#8EA6C4"/>
<path d="M408 243V274.46H297.45V305H265V243H408Z" fill="#8EA6C4"/>
</svg>
