<svg width="522" height="584" viewBox="0 0 522 584" fill="none" xmlns="http://www.w3.org/2000/svg">
<rect x="66.0828" y="141.836" width="394.348" height="312.147" fill="white"/>
<path d="M393.895 231.935C348.015 231.834 301.812 231.789 255.622 231.794C255.618 251.917 255.618 272.075 255.618 292.237C286.374 292.237 317.139 292.237 347.812 292.242C347.812 304.823 347.807 317.41 347.798 329.987C317.13 330.009 286.37 330.022 255.618 330.018C255.622 364.342 255.626 398.604 255.64 432.645C240.586 432.641 225.538 432.627 210.502 432.596C210.352 366.108 210.312 298.76 210.383 231.816C182.752 231.838 155.165 231.882 127.702 231.944C127.742 217.141 127.795 202.355 127.862 187.605C216.059 187.264 305.503 187.26 393.741 187.588C393.807 202.342 393.856 217.128 393.895 231.935ZM494.6 126.272C457.137 104.26 419.351 82.3093 381.526 60.5801C350.044 42.5064 318.527 24.5831 287.143 6.89438C270.87 -2.30181 250.816 -2.29739 234.481 6.90322C212.08 19.5336 189.613 32.2835 167.146 45.1263C120.302 71.8961 73.4355 99.0598 27.0777 126.312C10.8617 135.845 0.812915 153.237 0.618394 171.974C-0.181794 251.54 -0.203891 332.2 0.543246 411.832C0.724504 430.587 10.7688 447.993 26.9804 457.525C95.5844 497.868 165.307 538.034 234.459 577.08C250.808 586.303 270.874 586.307 287.161 577.089C356.304 538.061 426.044 497.904 494.693 457.565C510.913 448.033 520.962 430.623 521.143 411.863C521.881 332.208 521.855 251.527 521.068 171.939C520.878 153.197 510.82 135.8 494.6 126.272Z" fill="#187FA9"/>
<path d="M347.794 330.172C347.785 340.431 347.772 350.69 347.754 360.935C327.458 360.962 307.117 360.979 286.767 360.988C286.754 384.977 286.736 408.913 286.714 432.738C276.407 432.747 266.104 432.751 255.797 432.747C255.788 398.734 255.779 364.499 255.774 330.203C286.476 330.207 317.181 330.194 347.794 330.172Z" fill="#76A2C0"/>
<path d="M393.748 232.238C393.775 242.472 393.797 252.719 393.81 262.967C358.103 262.927 322.196 262.905 286.254 262.896C286.254 272.686 286.258 282.475 286.258 292.269C275.906 292.269 265.55 292.269 255.198 292.269C255.198 272.197 255.198 252.129 255.202 232.097C301.483 232.088 347.777 232.136 393.748 232.238Z" fill="#76A2C0"/>
<path d="M478.269 391.953C478.167 407.655 469.774 422.172 456.212 430.065C398.732 463.64 340.624 497.114 282.856 529.933C269.224 537.65 252.491 537.65 238.859 529.929C181.104 497.092 123.027 463.614 65.6 430.038C52.0469 422.145 43.6541 407.633 43.5524 391.93C43.1191 325.416 43.1368 258.31 43.6055 191.844C43.716 176.155 52.1132 161.651 65.6663 153.758C104.477 131.083 143.576 108.456 182.665 86.0503C201.414 75.3184 220.158 64.6395 238.872 54.027C252.5 46.2666 269.219 46.2621 282.848 54.0226C309.052 68.8757 335.327 83.8659 361.588 98.9446C393.187 117.11 424.759 135.403 456.146 153.732C469.708 161.625 478.11 176.129 478.216 191.822C478.68 258.301 478.693 325.425 478.269 391.953ZM494.705 126.409C457.234 104.414 419.444 82.4863 381.606 60.7704C350.118 42.7114 318.599 24.8027 287.203 7.1328C270.926 -2.06032 250.868 -2.0559 234.53 7.14164C212.124 19.7617 189.656 32.5012 167.18 45.3291C120.33 72.0816 73.4488 99.2187 27.0808 126.453C10.8658 135.978 0.810398 153.352 0.620256 172.074C-0.180106 251.575 -0.206664 332.169 0.545058 411.736C0.721934 430.476 10.7685 447.867 26.988 457.392C95.6025 497.702 165.345 537.835 234.512 576.854C250.86 586.069 270.931 586.069 287.221 576.859C356.379 537.866 426.135 497.742 494.798 457.436C511.022 447.907 521.077 430.516 521.254 411.771C521.992 332.182 521.966 251.562 521.179 172.039C520.989 153.312 510.929 135.934 494.705 126.409Z" fill="#76A2C0"/>
</svg>
