<?xml version="1.0" encoding="UTF-8" standalone="no"?>
<!DOCTYPE svg PUBLIC "-//W3C//DTD SVG 1.1//EN" "http://www.w3.org/Graphics/SVG/1.1/DTD/svg11.dtd">
<svg width="100%" height="100%" viewBox="0 0 1126 320" version="1.1" xmlns="http://www.w3.org/2000/svg" xmlns:xlink="http://www.w3.org/1999/xlink" xml:space="preserve" xmlns:serif="http://www.serif.com/" style="fill-rule:evenodd;clip-rule:evenodd;stroke-linejoin:round;stroke-miterlimit:2;">
    <g>
        <g>
            <path d="M274.3,75L151.7,5C146.9,2.3 139.1,2.3 134.3,5L11.7,75C6.9,77.7 3,84.5 3,90L3,230C3,235.5 6.9,242.2 11.7,245L134.3,315C139.1,317.7 146.9,317.7 151.7,315L274.3,245C279.1,242.3 283,235.5 283,230L283,90C283,84.5 279.1,77.8 274.3,75Z" style="fill:rgb(0,78,123);fill-rule:nonzero;"/>
            <g>
                <path d="M423.9,99.1L423.9,118L400.3,118L400.3,201.3L423.9,201.3L423.9,220L354,220L354,201.2L377,201.2L377,118L354,118L354,99.2L423.9,99.1Z" style="fill:rgb(0,78,123);fill-rule:nonzero;"/>
                <path d="M439.6,130.2L460.5,130.2L461.9,142.7C463.1,141 464.3,139.5 465.7,138.1C467.1,136.7 468.5,135.5 470.1,134.4C472.8,132.5 475.7,131.1 478.8,130.1C481.9,129.1 485.3,128.6 488.8,128.6C493.3,128.6 497.5,129.3 501.3,130.6C505.1,131.9 508.3,134 511.1,136.9C513.8,139.8 515.9,143.6 517.5,148.1C519,152.7 519.8,158.2 519.8,164.7L519.8,220L496.7,220L496.7,165C496.7,161.5 496.3,158.5 495.5,156.2C494.7,153.9 493.5,152.1 492.1,150.8C490.7,149.5 488.8,148.5 486.7,148C484.6,147.5 482.2,147.2 479.6,147.2C477.4,147.2 475.4,147.4 473.5,147.9C471.6,148.4 470,149.1 468.6,150.1C467.4,150.8 466.4,151.7 465.4,152.7C464.5,153.7 463.6,154.8 462.8,156L462.8,220L439.6,220L439.6,130.2Z" style="fill:rgb(0,78,123);fill-rule:nonzero;"/>
                <path d="M531.5,130.2L552.4,130.2L553.8,142.7C555,141 556.2,139.5 557.6,138.1C559,136.7 560.4,135.5 562,134.4C564.7,132.5 567.6,131.1 570.7,130.1C573.8,129.1 577.2,128.6 580.7,128.6C585.2,128.6 589.4,129.3 593.2,130.6C597,131.9 600.2,134 603,136.9C605.7,139.8 607.8,143.6 609.4,148.1C610.9,152.7 611.7,158.2 611.7,164.7L611.7,220L588.6,220L588.6,165C588.6,161.5 588.2,158.5 587.4,156.2C586.6,153.9 585.4,152.1 584,150.8C582.6,149.5 580.7,148.5 578.6,148C576.5,147.5 574.1,147.2 571.5,147.2C569.3,147.2 567.3,147.4 565.4,147.9C563.5,148.4 561.9,149.1 560.5,150.1C559.3,150.8 558.3,151.7 557.3,152.7C556.4,153.7 555.5,154.8 554.7,156L554.7,220L531.5,220L531.5,130.2Z" style="fill:rgb(0,78,123);fill-rule:nonzero;"/>
                <path d="M625,156.1C626.9,150.5 629.6,145.7 633.3,141.6C636.9,137.5 641.3,134.3 646.5,132C651.7,129.7 657.7,128.5 664.5,128.5C671.3,128.5 677.3,129.7 682.5,132C687.8,134.3 692.2,137.5 695.9,141.6C699.5,145.7 702.2,150.5 704.1,156.1C706,161.7 706.9,167.7 706.9,174.2L706.9,175.9C706.9,182.5 706,188.6 704.1,194.1C702.2,199.7 699.5,204.5 695.9,208.6C692.3,212.7 687.9,215.9 682.6,218.2C677.3,220.5 671.4,221.6 664.7,221.6C657.9,221.6 651.9,220.5 646.6,218.2C641.3,215.9 636.9,212.7 633.3,208.6C629.6,204.5 626.9,199.7 625,194.1C623.1,188.5 622.2,182.5 622.2,175.9L622.2,174.2C622.2,167.7 623.2,161.7 625,156.1ZM646.4,186.6C647.1,189.9 648.3,192.8 649.8,195.2C651.3,197.7 653.4,199.7 655.8,201.1C658.3,202.5 661.2,203.3 664.7,203.3C668.1,203.3 671,202.6 673.4,201.1C675.8,199.7 677.8,197.7 679.4,195.2C680.9,192.8 682,189.9 682.7,186.6C683.4,183.3 683.8,179.8 683.8,176L683.8,174.3C683.8,170.6 683.4,167.2 682.7,163.9C682,160.6 680.9,157.8 679.4,155.3C677.9,152.8 675.9,150.8 673.4,149.4C671,148 668,147.2 664.5,147.2C661.1,147.2 658.1,147.9 655.7,149.4C653.3,150.8 651.3,152.8 649.7,155.3C648.2,157.8 647,160.7 646.3,163.9C645.6,167.2 645.2,170.6 645.2,174.3L645.2,176C645.3,179.8 645.6,183.3 646.4,186.6Z" style="fill:rgb(0,78,123);fill-rule:nonzero;"/>
                <path d="M764,118.1L764,220L740.6,220L740.6,118.1L703.8,118.1L703.8,99.1L801.3,99.1L801.3,118.1L764,118.1Z" style="fill:rgb(0,78,123);fill-rule:nonzero;"/>
                <path d="M793.8,156.1C795.7,150.5 798.4,145.7 802.1,141.6C805.7,137.5 810.1,134.3 815.3,132C820.5,129.7 826.5,128.5 833.3,128.5C840.1,128.5 846.1,129.7 851.3,132C856.6,134.3 861,137.5 864.7,141.6C868.3,145.7 871,150.5 872.9,156.1C874.8,161.7 875.7,167.7 875.7,174.2L875.7,175.9C875.7,182.5 874.8,188.6 872.9,194.1C871,199.7 868.3,204.5 864.7,208.6C861.1,212.7 856.7,215.9 851.4,218.2C846.1,220.5 840.2,221.6 833.5,221.6C826.7,221.6 820.7,220.5 815.4,218.2C810.1,215.9 805.7,212.7 802.1,208.6C798.4,204.5 795.7,199.7 793.8,194.1C791.9,188.5 791,182.5 791,175.9L791,174.2C791,167.7 791.9,161.7 793.8,156.1ZM815.1,186.6C815.8,189.9 817,192.8 818.5,195.2C820,197.7 822.1,199.7 824.5,201.1C827,202.5 829.9,203.3 833.4,203.3C836.8,203.3 839.7,202.6 842.1,201.1C844.5,199.7 846.5,197.7 848.1,195.2C849.6,192.8 850.7,189.9 851.4,186.6C852.1,183.3 852.5,179.8 852.5,176L852.5,174.3C852.5,170.6 852.1,167.2 851.4,163.9C850.7,160.6 849.6,157.8 848.1,155.3C846.6,152.8 844.6,150.8 842.1,149.4C839.7,148 836.7,147.2 833.2,147.2C829.8,147.2 826.8,147.9 824.4,149.4C822,150.8 820,152.8 818.4,155.3C816.9,157.8 815.7,160.7 815,163.9C814.3,167.2 813.9,170.6 813.9,174.3L813.9,176C814.1,179.8 814.4,183.3 815.1,186.6Z" style="fill:rgb(0,78,123);fill-rule:nonzero;"/>
                <path d="M888.4,130.2L909.7,130.2L910.5,139C911.7,137.5 913,136.2 914.5,135C915.9,133.8 917.5,132.8 919.1,131.9C921.1,130.8 923.3,130 925.7,129.5C928.1,128.9 930.7,128.6 933.5,128.6C939.2,128.6 944.2,129.7 948.6,131.9C953,134.1 956.7,137.2 959.6,141.2C962.6,145.2 964.8,150.1 966.4,155.7C967.9,161.3 968.7,167.5 968.7,174.3L968.7,176C968.7,182.5 967.9,188.6 966.4,194.2C964.9,199.8 962.6,204.6 959.7,208.6C956.7,212.7 953,215.9 948.7,218.2C944.3,220.5 939.3,221.7 933.7,221.7C930.7,221.7 928,221.4 925.4,220.7C922.9,220.1 920.5,219.1 918.4,217.9C917.1,217.1 915.9,216.3 914.7,215.3C913.5,214.4 912.4,213.3 911.4,212.1L911.4,254.4L888.3,254.4L888.4,130.2ZM944.6,163.6C943.9,160.3 942.8,157.4 941.4,155C939.9,152.6 938,150.7 935.7,149.4C933.4,148 930.6,147.3 927.4,147.3C925.5,147.3 923.8,147.5 922.3,147.8C920.8,148.2 919.3,148.7 918.1,149.3C916.7,150.1 915.4,151 914.3,152.2C913.2,153.4 912.3,154.7 911.5,156.3L911.5,193.8C912.2,195.2 913.1,196.5 914.1,197.7C915.1,198.9 916.3,199.9 917.6,200.7C918.9,201.5 920.3,202.1 922,202.5C923.7,202.9 925.5,203.1 927.6,203.1C930.9,203.1 933.6,202.4 935.9,200.9C938.2,199.5 940.1,197.5 941.5,195C942.9,192.5 944,189.6 944.7,186.3C945.4,183 945.7,179.5 945.7,175.8L945.7,174.1C945.6,170.4 945.3,166.9 944.6,163.6Z" style="fill:rgb(0,78,123);fill-rule:nonzero;"/>
                <path d="M1019.9,130.2L1019.9,201.3L1034.2,201.3L1034.2,220L981,220L981,201.2L996.6,201.2L996.6,149L981,149L981,130.2L1019.9,130.2ZM995.9,102.3C996.5,100.8 997.4,99.5 998.6,98.4C999.8,97.3 1001.2,96.5 1002.8,95.9C1004.4,95.3 1006.2,95 1008.2,95C1012.3,95 1015.5,96.1 1018,98.4C1020.4,100.7 1021.6,103.6 1021.6,107.2C1021.6,110.8 1020.4,113.7 1018,116C1015.6,118.3 1012.3,119.4 1008.2,119.4C1006.2,119.4 1004.4,119.1 1002.8,118.5C1001.2,117.9 999.8,117 998.6,115.9C997.4,114.8 996.5,113.6 995.9,112C995.3,110.5 994.9,108.8 994.9,107.1C995,105.4 995.3,103.8 995.9,102.3Z" style="fill:rgb(0,78,123);fill-rule:nonzero;"/>
                <path d="M1091,202.2C1093,201.5 1094.8,200.6 1096.4,199.4C1097.9,198.2 1099.2,196.7 1100,195C1100.9,193.3 1101.2,191.4 1101.1,189.3L1122.8,189.3C1122.9,193.9 1122,198.3 1119.9,202.2C1117.9,206.2 1115.1,209.6 1111.6,212.5C1108.1,215.4 1104.1,217.6 1099.4,219.3C1094.8,220.9 1089.9,221.7 1084.7,221.7C1077.7,221.7 1071.6,220.5 1066.4,218.2C1061.1,215.8 1056.8,212.6 1053.3,208.5C1049.8,204.4 1047.1,199.6 1045.3,194.1C1043.5,188.6 1042.6,182.7 1042.6,176.4L1042.6,173.9C1042.6,167.6 1043.5,161.7 1045.3,156.2C1047.1,150.7 1049.7,145.9 1053.3,141.8C1056.8,137.7 1061.2,134.5 1066.5,132.1C1071.7,129.7 1077.8,128.5 1084.7,128.5C1090.2,128.5 1095.4,129.3 1100.1,131C1104.8,132.7 1108.9,135 1112.3,138C1115.7,141 1118.3,144.7 1120.2,149C1122.1,153.3 1123,158.1 1122.9,163.4L1101.2,163.4C1101.3,161.2 1101,159.1 1100.2,157.1C1099.4,155.1 1098.3,153.4 1096.8,152C1095.3,150.6 1093.5,149.4 1091.4,148.6C1089.3,147.7 1087,147.3 1084.5,147.3C1080.8,147.3 1077.8,148 1075.5,149.5C1073.1,151 1071.2,153 1069.9,155.5C1068.5,158 1067.5,160.8 1066.9,164C1066.3,167.2 1066,170.5 1066,174L1066,176.5C1066,180 1066.3,183.3 1066.8,186.6C1067.4,189.8 1068.3,192.7 1069.8,195.1C1071.2,197.6 1073.1,199.6 1075.5,201.1C1077.9,202.6 1081,203.3 1084.7,203.3C1086.8,203.2 1089,202.9 1091,202.2Z" style="fill:rgb(0,78,123);fill-rule:nonzero;"/>
            </g>
        </g>
        <path d="M123,86.4C123,89.2 121,92.5 118.7,93.9L97.4,106.1C95,107.5 93.1,110.8 93.1,113.6L93.1,206.5C93.1,209.3 95.1,212.6 97.4,214L118.7,226.2C121.1,227.6 123,230.9 123,233.7L123,263.7C123,266.5 121,267.6 118.7,266.2L42.4,222.3C40,220.9 38.1,217.6 38.1,214.8L38.1,185C38.1,182.2 40.1,181.1 42.4,182.5L58.7,191.8C61.1,193.2 63,192 63,189.3L63,130.7C63,127.9 61,126.8 58.7,128.2L42.4,137.5C40,138.9 38.1,137.7 38.1,135L38.1,105.3C38.1,102.5 40.1,99.2 42.4,97.8L118.7,53.9C121.1,52.5 123,53.7 123,56.4L123,86.4Z" style="fill:white;fill-rule:nonzero;"/>
        <path d="M248,135C248,137.8 246,138.9 243.7,137.5L227.4,128.2C225,126.8 223.1,128 223.1,130.7L223.1,229C223.1,231.8 221.2,235.1 218.8,236.5L197.4,248.9C195,250.3 193.1,249.2 193.1,246.4L193.1,113.6C193.1,110.8 191.1,107.5 188.8,106.1L167.5,93.9C165.1,92.5 163.2,89.2 163.2,86.4L163.2,56.4C163.2,53.6 165.2,52.5 167.5,53.9L243.8,97.8C246.2,99.2 248.1,102.5 248.1,105.3L248,135Z" style="fill:white;fill-rule:nonzero;"/>
    </g>
</svg>
