<svg width="488" height="553" viewBox="0 0 488 553" fill="none" xmlns="http://www.w3.org/2000/svg">
<path d="M487.013 154.358V398.215C487.013 409.902 480.779 420.42 470.649 426.263L259.48 548.191C249.351 554.035 237.273 554.035 227.143 548.191L15.974 425.873C5.84416 420.03 0 409.512 0 397.826V154.358C0 142.672 6.23377 132.154 15.974 126.311L227.143 4.38241C237.273 -1.4608 249.351 -1.4608 259.48 4.38241L470.649 126.311C480.779 132.154 487.013 142.672 487.013 154.358Z" fill="#1D789E"/>
<path d="M118.665 203.318L175.197 166.309V374.571L118.665 390.917V203.318Z" fill="white"/>
<path d="M313.327 175.641L364.859 175.641C367.621 175.641 369.859 177.879 369.859 180.641V405.404C369.859 407.136 368.964 408.744 367.491 409.655L320.959 438.466C317.628 440.528 313.327 438.132 313.327 434.215V175.641Z" fill="white"/>
<path d="M78.4111 230.873C75.0778 232.798 70.9111 230.392 70.9111 226.543L70.9111 172.788C70.9111 171.001 71.8641 169.351 73.4111 168.457L206.697 91.5048C210.03 89.5803 214.197 91.9859 214.197 95.8349L214.197 149.59C214.197 151.376 213.244 153.027 211.697 153.92L78.4111 230.873Z" fill="white"/>
<path d="M82.7978 321.658C79.4645 319.734 75.2978 322.139 75.2978 325.988L75.2978 379.744C75.2978 381.53 76.2508 383.181 77.7978 384.074L211.084 461.026C214.417 462.951 218.584 460.545 218.584 456.696L218.584 402.941C218.584 401.155 217.631 399.504 216.084 398.611L82.7978 321.658Z" fill="white"/>
<path d="M405.747 230.896C409.08 232.821 413.247 230.415 413.247 226.566L413.246 172.834C413.245 171.048 412.292 169.398 410.746 168.504L277.505 91.5781C274.172 89.6536 270.005 92.0593 270.005 95.9083L270.006 149.64C270.006 151.426 270.959 153.077 272.506 153.97L405.747 230.896Z" fill="white"/>
</svg>
