<?xml version="1.0" encoding="utf-8"?>
<!-- Generator: Adobe Illustrator 24.1.0, SVG Export Plug-In . SVG Version: 6.00 Build 0)  -->
<svg version="1.1" id="LOGO" xmlns="http://www.w3.org/2000/svg" xmlns:xlink="http://www.w3.org/1999/xlink" x="0px" y="0px"
	 viewBox="0 0 1126 320" style="enable-background:new 0 0 1126 320;" xml:space="preserve">
<style type="text/css">
	.st0{fill:#1D789E;}
	.st1{fill:#FFFFFF;}
</style>
<g>
	<g>
		<path class="st0" d="M274.3,75L151.7,5c-4.8-2.7-12.6-2.7-17.4,0L11.7,75C6.9,77.7,3,84.5,3,90v140c0,5.5,3.9,12.2,8.7,15
			l122.6,70c4.8,2.7,12.6,2.7,17.4,0l122.6-70c4.8-2.7,8.7-9.5,8.7-15V90C283,84.5,279.1,77.8,274.3,75z"/>
		<g>
			<path class="st0" d="M423.9,99.1V118h-23.6v83.3h23.6V220H354v-18.8h23V118h-23V99.2L423.9,99.1L423.9,99.1z"/>
			<path class="st0" d="M439.6,130.2h20.9l1.4,12.5c1.2-1.7,2.4-3.2,3.8-4.6c1.4-1.4,2.8-2.6,4.4-3.7c2.7-1.9,5.6-3.3,8.7-4.3
				s6.5-1.5,10-1.5c4.5,0,8.7,0.7,12.5,2s7,3.4,9.8,6.3c2.7,2.9,4.8,6.7,6.4,11.2c1.5,4.6,2.3,10.1,2.3,16.6V220h-23.1v-55
				c0-3.5-0.4-6.5-1.2-8.8s-2-4.1-3.4-5.4s-3.3-2.3-5.4-2.8s-4.5-0.8-7.1-0.8c-2.2,0-4.2,0.2-6.1,0.7s-3.5,1.2-4.9,2.2
				c-1.2,0.7-2.2,1.6-3.2,2.6c-0.9,1-1.8,2.1-2.6,3.3v64h-23.2L439.6,130.2L439.6,130.2z"/>
			<path class="st0" d="M531.5,130.2h20.9l1.4,12.5c1.2-1.7,2.4-3.2,3.8-4.6c1.4-1.4,2.8-2.6,4.4-3.7c2.7-1.9,5.6-3.3,8.7-4.3
				s6.5-1.5,10-1.5c4.5,0,8.7,0.7,12.5,2s7,3.4,9.8,6.3c2.7,2.9,4.8,6.7,6.4,11.2c1.5,4.6,2.3,10.1,2.3,16.6V220h-23.1v-55
				c0-3.5-0.4-6.5-1.2-8.8s-2-4.1-3.4-5.4s-3.3-2.3-5.4-2.8c-2.1-0.5-4.5-0.8-7.1-0.8c-2.2,0-4.2,0.2-6.1,0.7
				c-1.9,0.5-3.5,1.2-4.9,2.2c-1.2,0.7-2.2,1.6-3.2,2.6c-0.9,1-1.8,2.1-2.6,3.3v64h-23.2L531.5,130.2L531.5,130.2z"/>
			<path class="st0" d="M625,156.1c1.9-5.6,4.6-10.4,8.3-14.5c3.6-4.1,8-7.3,13.2-9.6s11.2-3.5,18-3.5s12.8,1.2,18,3.5
				c5.3,2.3,9.7,5.5,13.4,9.6c3.6,4.1,6.3,8.9,8.2,14.5s2.8,11.6,2.8,18.1v1.7c0,6.6-0.9,12.7-2.8,18.2c-1.9,5.6-4.6,10.4-8.2,14.5
				c-3.6,4.1-8,7.3-13.3,9.6s-11.2,3.4-17.9,3.4c-6.8,0-12.8-1.1-18.1-3.4s-9.7-5.5-13.3-9.6c-3.7-4.1-6.4-8.9-8.3-14.5
				c-1.9-5.6-2.8-11.6-2.8-18.2v-1.7C622.2,167.7,623.2,161.7,625,156.1z M646.4,186.6c0.7,3.3,1.9,6.2,3.4,8.6
				c1.5,2.5,3.6,4.5,6,5.9c2.5,1.4,5.4,2.2,8.9,2.2c3.4,0,6.3-0.7,8.7-2.2c2.4-1.4,4.4-3.4,6-5.9c1.5-2.4,2.6-5.3,3.3-8.6
				s1.1-6.8,1.1-10.6v-1.7c0-3.7-0.4-7.1-1.1-10.4c-0.7-3.3-1.8-6.1-3.3-8.6s-3.5-4.5-6-5.9c-2.4-1.4-5.4-2.2-8.9-2.2
				c-3.4,0-6.4,0.7-8.8,2.2c-2.4,1.4-4.4,3.4-6,5.9c-1.5,2.5-2.7,5.4-3.4,8.6c-0.7,3.3-1.1,6.7-1.1,10.4v1.7
				C645.3,179.8,645.6,183.3,646.4,186.6z"/>
			<path class="st0" d="M764,118.1V220h-23.4V118.1h-36.8v-19h97.5v19H764z"/>
			<path class="st0" d="M793.8,156.1c1.9-5.6,4.6-10.4,8.3-14.5c3.6-4.1,8-7.3,13.2-9.6s11.2-3.5,18-3.5s12.8,1.2,18,3.5
				c5.3,2.3,9.7,5.5,13.4,9.6c3.6,4.1,6.3,8.9,8.2,14.5s2.8,11.6,2.8,18.1v1.7c0,6.6-0.9,12.7-2.8,18.2c-1.9,5.6-4.6,10.4-8.2,14.5
				c-3.6,4.1-8,7.3-13.3,9.6s-11.2,3.4-17.9,3.4c-6.8,0-12.8-1.1-18.1-3.4s-9.7-5.5-13.3-9.6c-3.7-4.1-6.4-8.9-8.3-14.5
				c-1.9-5.6-2.8-11.6-2.8-18.2v-1.7C791,167.7,791.9,161.7,793.8,156.1z M815.1,186.6c0.7,3.3,1.9,6.2,3.4,8.6
				c1.5,2.5,3.6,4.5,6,5.9c2.5,1.4,5.4,2.2,8.9,2.2c3.4,0,6.3-0.7,8.7-2.2c2.4-1.4,4.4-3.4,6-5.9c1.5-2.4,2.6-5.3,3.3-8.6
				s1.1-6.8,1.1-10.6v-1.7c0-3.7-0.4-7.1-1.1-10.4c-0.7-3.3-1.8-6.1-3.3-8.6s-3.5-4.5-6-5.9c-2.4-1.4-5.4-2.2-8.9-2.2
				c-3.4,0-6.4,0.7-8.8,2.2c-2.4,1.4-4.4,3.4-6,5.9c-1.5,2.5-2.7,5.4-3.4,8.6c-0.7,3.3-1.1,6.7-1.1,10.4v1.7
				C814.1,179.8,814.4,183.3,815.1,186.6z"/>
			<path class="st0" d="M888.4,130.2h21.3l0.8,8.8c1.2-1.5,2.5-2.8,4-4c1.4-1.2,3-2.2,4.6-3.1c2-1.1,4.2-1.9,6.6-2.4
				c2.4-0.6,5-0.9,7.8-0.9c5.7,0,10.7,1.1,15.1,3.3c4.4,2.2,8.1,5.3,11,9.3c3,4,5.2,8.9,6.8,14.5c1.5,5.6,2.3,11.8,2.3,18.6v1.7
				c0,6.5-0.8,12.6-2.3,18.2s-3.8,10.4-6.7,14.4c-3,4.1-6.7,7.3-11,9.6c-4.4,2.3-9.4,3.5-15,3.5c-3,0-5.7-0.3-8.3-1
				c-2.5-0.6-4.9-1.6-7-2.8c-1.3-0.8-2.5-1.6-3.7-2.6c-1.2-0.9-2.3-2-3.3-3.2v42.3h-23.1L888.4,130.2L888.4,130.2z M944.6,163.6
				c-0.7-3.3-1.8-6.2-3.2-8.6c-1.5-2.4-3.4-4.3-5.7-5.6c-2.3-1.4-5.1-2.1-8.3-2.1c-1.9,0-3.6,0.2-5.1,0.5c-1.5,0.4-3,0.9-4.2,1.5
				c-1.4,0.8-2.7,1.7-3.8,2.9s-2,2.5-2.8,4.1v37.5c0.7,1.4,1.6,2.7,2.6,3.9s2.2,2.2,3.5,3s2.7,1.4,4.4,1.8c1.7,0.4,3.5,0.6,5.6,0.6
				c3.3,0,6-0.7,8.3-2.2c2.3-1.4,4.2-3.4,5.6-5.9s2.5-5.4,3.2-8.7s1-6.8,1-10.5v-1.7C945.6,170.4,945.3,166.9,944.6,163.6z"/>
			<path class="st0" d="M1019.9,130.2v71.1h14.3V220H981v-18.8h15.6V149H981v-18.8H1019.9z M995.9,102.3c0.6-1.5,1.5-2.8,2.7-3.9
				s2.6-1.9,4.2-2.5s3.4-0.9,5.4-0.9c4.1,0,7.3,1.1,9.8,3.4c2.4,2.3,3.6,5.2,3.6,8.8s-1.2,6.5-3.6,8.8s-5.7,3.4-9.8,3.4
				c-2,0-3.8-0.3-5.4-0.9s-3-1.5-4.2-2.6s-2.1-2.3-2.7-3.9c-0.6-1.5-1-3.2-1-4.9C995,105.4,995.3,103.8,995.9,102.3z"/>
			<path class="st0" d="M1091,202.2c2-0.7,3.8-1.6,5.4-2.8c1.5-1.2,2.8-2.7,3.6-4.4c0.9-1.7,1.2-3.6,1.1-5.7h21.7
				c0.1,4.6-0.8,9-2.9,12.9c-2,4-4.8,7.4-8.3,10.3s-7.5,5.1-12.2,6.8c-4.6,1.6-9.5,2.4-14.7,2.4c-7,0-13.1-1.2-18.3-3.5
				c-5.3-2.4-9.6-5.6-13.1-9.7s-6.2-8.9-8-14.4s-2.7-11.4-2.7-17.7v-2.5c0-6.3,0.9-12.2,2.7-17.7c1.8-5.5,4.4-10.3,8-14.4
				c3.5-4.1,7.9-7.3,13.2-9.7c5.2-2.4,11.3-3.6,18.2-3.6c5.5,0,10.7,0.8,15.4,2.5c4.7,1.7,8.8,4,12.2,7c3.4,3,6,6.7,7.9,11
				s2.8,9.1,2.7,14.4h-21.7c0.1-2.2-0.2-4.3-1-6.3s-1.9-3.7-3.4-5.1s-3.3-2.6-5.4-3.4c-2.1-0.9-4.4-1.3-6.9-1.3
				c-3.7,0-6.7,0.7-9,2.2c-2.4,1.5-4.3,3.5-5.6,6c-1.4,2.5-2.4,5.3-3,8.5s-0.9,6.5-0.9,10v2.5c0,3.5,0.3,6.8,0.8,10.1
				c0.6,3.2,1.5,6.1,3,8.5c1.4,2.5,3.3,4.5,5.7,6c2.4,1.5,5.5,2.2,9.2,2.2C1086.8,203.2,1089,202.9,1091,202.2z"/>
		</g>
	</g>
	<path class="st1" d="M123,86.4c0,2.8-2,6.1-4.3,7.5l-21.3,12.2c-2.4,1.4-4.3,4.7-4.3,7.5v92.9c0,2.8,2,6.1,4.3,7.5l21.3,12.2
		c2.4,1.4,4.3,4.7,4.3,7.5v30c0,2.8-2,3.9-4.3,2.5l-76.3-43.9c-2.4-1.4-4.3-4.7-4.3-7.5V185c0-2.8,2-3.9,4.3-2.5l16.3,9.3
		c2.4,1.4,4.3,0.2,4.3-2.5v-58.6c0-2.8-2-3.9-4.3-2.5l-16.3,9.3c-2.4,1.4-4.3,0.2-4.3-2.5v-29.7c0-2.8,2-6.1,4.3-7.5l76.3-43.9
		c2.4-1.4,4.3-0.2,4.3,2.5V86.4z"/>
	<path class="st1" d="M248,135c0,2.8-2,3.9-4.3,2.5l-16.3-9.3c-2.4-1.4-4.3-0.2-4.3,2.5V229c0,2.8-1.9,6.1-4.3,7.5l-21.4,12.4
		c-2.4,1.4-4.3,0.3-4.3-2.5V113.6c0-2.8-2-6.1-4.3-7.5l-21.3-12.2c-2.4-1.4-4.3-4.7-4.3-7.5v-30c0-2.8,2-3.9,4.3-2.5l76.3,43.9
		c2.4,1.4,4.3,4.7,4.3,7.5L248,135L248,135z"/>
</g>
</svg>
