<svg
  xmlns="http://www.w3.org/2000/svg"
  width="96" height="96" viewBox="0 0 960 960">
  <g id="l6ZIPvoOeYKJRTzvEZxHPQb" fill="rgb(0,0,0)" style="transform: none;">
    <g style="transform: none;">
      <path id="p18ZaV5E1n"
            d="M184 833 c-12 -2 -30 -13 -40 -25 -18 -19 -19 -42 -19 -329 0 -308 0 -309 23 -331 23 -23 23 -23 332 -23 309 0 309 0 332 23 23 23 23 23 23 332 0 309 0 310 -23 332 -22 23 -25 23 -315 24 -160 1 -302 0 -313 -3z m576 -313 l0 -240 -280 0 -280 0 0 240 0 240 280 0 280 0 0 -240z"></path>
      <path id="pWhlsRM0v"
            d="M339 581 c-27 -26 -49 -53 -49 -60 0 -17 90 -111 107 -111 31 0 25 32 -13 71 l-38 39 38 39 c25 25 37 45 33 55 -10 26 -27 19 -78 -33z"></path>
      <path id="phNHkeyBo"
            d="M543 614 c-4 -10 8 -30 33 -55 l38 -39 -37 -38 c-39 -40 -48 -72 -21 -72 20 0 114 91 114 110 0 16 -93 110 -109 110 -6 0 -14 -7 -18 -16z"
      ></path>
    </g>
  </g>
</svg>
