<?xml version="1.0" encoding="utf-8"?>
<!-- Svg Vector Icons : http://www.onlinewebfonts.com/icon -->
<!DOCTYPE svg PUBLIC "-//W3C//DTD SVG 1.1//EN" "http://www.w3.org/Graphics/SVG/1.1/DTD/svg11.dtd">
<svg version="1.1" xmlns="http://www.w3.org/2000/svg" xmlns:xlink="http://www.w3.org/1999/xlink" x="0px" y="0px" viewBox="0 0 1000 1000" enable-background="new 0 0 1000 1000" xml:space="preserve">
<metadata> Svg Vector Icons : http://www.onlinewebfonts.com/icon </metadata>
<g style="fill:currentColor"><g><path d="M17.6,863.1l90.2,106.8c0,0,31.8,45.1,54.7,11.3c22.9-33.7,160.1-311.9,160.1-311.9s13.8-22.7,23.4,17.9c9.6,40.6,88.9,236.8,88.9,236.8s12,16.5,26.3,4.3c14.4-12.1,72.1-60.7,72.1-60.7s19.4-6.2-0.7-44.6c-20.2-38.5-94.1-213.9-94.1-213.9s-10.8-22.5,4.8-35.6c15.6-13.1,35.8-28.2,35.8-28.2s9-18.6,33.7,1c24.7,19.5,95.6,91.3,204.8,118.3c109.2,27.1,204.7,30.7,204.7,30.7s23.4,0.9,26.7-39.1c3.4-39.7,1.4-95.7,1.4-95.7s2.2-26.7-21.2-27.4c-23.4-0.8-63,8.1-113-7.3c-50-15.3-163-98-163-98s-18.1-14.2-1.3-28.5c16.8-14.2,134.5-113.4,134.5-113.4s20.2-15.1,8-29.5c-12.1-14.4-18.2-21.6-18.2-21.6L990,54.3l-40.6-48L735.7,186.7l-17.5-15.8c0,0-15.6-13.6-28.8-2.4c-13.2,11-151.1,125.4-151.1,125.4s-38.9-41.1-67.6-16.8c-28.8,24.3-204,172.3-204,172.3s-7.6,10.5-1.6,32.2c6,21.7,16.9,37.1,6.1,46.2c-10.8,9.1-67.2,56.8-67.2,56.8s-15.8,15.4-13.8,44.6c2,29.1-14.1,61.1-45.3,87.5C113.7,742.9,23.8,816.7,23.8,816.7S-2.6,839.1,17.6,863.1z"/><path d="M826.5,128.6c0,0-71.5-84.8-84.1-99.6c-12.6-14.9-49-28-53.5,24.2c-5,60.1-10.6,140.9-10.6,140.9l62.4,2.1c0,0-3.1-33.1-7.6-49.7c-5.7-20.7,4.1-30.8,15.3-17.5c11.2,13.1,32.2,37.9,32.2,37.9L826.5,128.6z"/><path d="M440.3,637.1c0,0,19.8-16.7,35.7-30.1s31.2-43.4,18-83.1c-13.2-39.7,38.7,5.7,38.7,5.7s27.2,62.4-19.2,101.6c-46.6,39.5-67.3,55.1-67.3,55.1L440.3,637.1z"/></g></g>
</svg>
