<?xml version="1.0" encoding="UTF-8" standalone="no"?>
<svg width="256px" height="169px" viewBox="0 0 256 169" version="1.1" xmlns="http://www.w3.org/2000/svg" xmlns:xlink="http://www.w3.org/1999/xlink" preserveAspectRatio="xMidYMid">
	<g>
		<path d="M0.626838833,33.4314044 L0.626838833,168.4107 L169.037539,168.4107 L0.626838833,33.4314044 Z" fill="#ff780e"></path>
		<path d="M120.353056,168.4107 L255.541298,13.1636155 L255.541298,168.4107 L120.353056,168.4107 Z" fill="#ff7204"></path>
		<path d="M0.835785111,168.4107 L67.9075403,0 L168.4107,168.4107 L0.835785111,168.4107 Z" fill="#ff7000"></path>
		<path d="M14.4172932,168.4107 L71.6685733,90.4737382 L140.202952,145.635556 L120.353056,168.4107 L14.4172932,168.4107 Z" fill="#cc5a00"></path>
		<path d="M14.4172932,168.4107 L0.835785111,168.4107 L41.5803093,66.23597 L71.6685733,90.4737382 L14.4172932,168.4107 Z" fill="#ea6700"></path>
		<path d="M140.202952,145.635556 L120.353056,168.4107 L168.619646,168.4107 L140.202952,145.635556 Z" fill="#de6100"></path>
		<path d="M148.76975,135.815081 L140.202952,145.635556 L168.619646,168.4107 L148.76975,135.815081" fill="#e66500"></path>
		<path d="M255.541298,168.4107 L168.619646,168.4107 L148.76975,135.815081 L199.334749,77.7280153 L255.541298,168.4107 Z" fill="#e76600"></path>
		<path d="M71.6685733,90.4737382 L99.8763207,53.4902471 L148.76975,135.815081 L140.202952,145.635556 L71.6685733,90.4737382 Z" fill="#dd6100"></path>
		<path d="M99.8763207,53.4902471 L114.293614,33.4314044 L147.933965,80.6532632 L180.947476,48.2665901 L199.334749,77.7280153 L148.76975,135.815081 L99.8763207,53.4902471 Z" fill="#ff8d33"></path>
	</g>
</svg>