<?xml version="1.0" encoding="UTF-8" standalone="no"?>
<svg xmlns="http://www.w3.org/2000/svg" xmlns:xlink="http://www.w3.org/1999/xlink" preserveAspectRatio="xMidYMid"
  width="38" height="57" viewBox="0 0 38 57" class="header-module--logomark--QkV7J">
  <path fill="#fb6e00" d="M19 28.5a9.5 9.5 0 1 1 19 0 9.5 9.5 0 0 1-19 0z"></path><path fill="#cc5a00" d="M0 47.5A9.5 9.5 0 0 1 9.5 38H19v9.5a9.5 9.5 0 1 1-19 0z"></path><path fill="#ff8d33" d="M19 0v19h9.5a9.5 9.5 0 1 0 0-19H19z"></path><path fill="#f56c00" d="M0 9.5A9.5 9.5 0 0 0 9.5 19H19V0H9.5A9.5 9.5 0 0 0 0 9.5z"></path><path fill="#ff892c" d="M0 28.5A9.5 9.5 0 0 0 9.5 38H19V19H9.5A9.5 9.5 0 0 0 0 28.5z"></path></svg>
