<svg height="64" viewBox="0 0 64 64.000003" width="64" xmlns="http://www.w3.org/2000/svg" xmlns:xlink="http://www.w3.org/1999/xlink"><radialGradient id="a" cx=".5" cy=".5" fx="0" fy="0" gradientTransform="matrix(26.718815 0 0 26.694449 114.47027 340.33384)" gradientUnits="userSpaceOnUse" r="1"><stop offset="0" stop-color="#ff760a"/><stop offset="1" stop-color="#ff760a"/></radialGradient><linearGradient id="b"><stop offset="0" stop-color="#ff8d33"/><stop offset="1" stop-color="#ff882b"/></linearGradient><linearGradient id="c" gradientTransform="matrix(12.548362 0 0 17.779283 10.013282 17.454744)" gradientUnits="userSpaceOnUse" x1=".006841" x2=".994491" xlink:href="#b" y1=".74321" y2="-.033492"/><linearGradient id="d" gradientTransform="matrix(11.656663 0 0 11.524108 10.115378 16.747744)" gradientUnits="userSpaceOnUse" x1=".006841" x2=".994491" xlink:href="#b" y1=".743209" y2="-.033493"/><linearGradient id="e" gradientTransform="matrix(19.12201 0 0 26.66399 10.085407 16.652471)" gradientUnits="userSpaceOnUse" x1=".32034" x2=".819149" y1=".908968" y2=".011343"><stop offset="0" stop-color="#ff7000"/><stop offset="1" stop-color="#cc5a00"/></linearGradient><g fill-rule="evenodd" stroke-width=".121833" transform="matrix(2.395108 0 0 2.395108 -23.951077 -39.85324)"><path d="m23.361359 16.650278c7.378845 0 13.359773 5.977029 13.359773 13.352463 0 7.372754-5.983608 13.346981-13.359773 13.346981-7.379455 0-13.359164-5.975324-13.359164-13.346981 0-7.372145 5.982024-13.352463 13.359164-13.352463z" fill="url(#a)"/><path d="m36.488186 32.481078c-1.47516 1.083709-2.989063 2.289251-4.308885 3.52647-2.99686 2.813379-4.720926 5.015276-6.637976 7.162104 5.531606-.905832 9.915419-5.205214 10.946861-10.688574z" fill="#f16a00"/><path d="m18.758611 20.808455-8.745329 9.788225c.07212 1.64.439209 3.202393 1.051423 4.637469 3.832028-5.927199 7.663935-11.853911 11.49706-17.779405-1.267799 1.119163-2.535964 2.238325-3.803154 3.352005" fill="url(#c)"/><path d="m10.090889 28.454725c-.05763.507558-.09089 1.022305-.09089 1.545823 0 .199442.0056.397787.01498.596132l8.745208-9.788225c-2.889159 2.548513-5.778319 5.098244-8.668696 7.645783" fill="#f16a00"/><path d="m10.115378 28.271975c3.887341-3.841776 7.7692-7.682943 11.656663-11.524231-6.061216.718696-10.874736 5.487868-11.656663 11.524231z" fill="url(#d)"/><path d="m21.745359 16.747744c-3.887341 3.841776-7.758113 7.682455-11.643261 11.524231-.0078.06092-.0095.121833-.01669.18275 2.889159-2.548513 5.782339-5.097148 8.671499-7.645783 1.26719-1.119162 2.537669-2.238325 3.80425-3.352005-3.831907 5.925006-7.663935 11.85111-11.495842 17.779405l.0028.0033c.108066.254876.227341.504147.35149.750129.02607.05214.05275.103071.07931.154119.120981.233799.247322.464308.382679.689212l.02108.03874c.146931.242693.30166.48039.46248.713092l.07931.110746c.142545.201757.291182.399005.443596.592842.02607.03156.04995.06323.07541.09418.180801.223321.367207.441647.560191.651079l.01377.01377c.186405.202243.380486.399004.578465.587359l.09089.08589c.417645.3934.859536.759022 1.325427 1.096988l.06652.04703c.231849.166303.468084.324199.709802.47381l.0073.0055c.508411.315792 1.039727.598324 1.591511.844915l.03606.01669c.551175.243789 1.120138.451515 1.709081.620498l.02437.0083c.890725.252074 1.818974.418254 2.778413.481973.03655-7.674047 2.681799-17.257958 6.752134-25.321507-1.765611-.859292-3.774767-1.342483-5.871034-1.342483-.318838 0-1.310929.04983-1.589318.09759" fill="url(#e)"/></g></svg>