<?xml version="1.0" encoding="UTF-8" standalone="no"?>
<!DOCTYPE svg PUBLIC "-//W3C//DTD SVG 1.1//EN" "http://www.w3.org/Graphics/SVG/1.1/DTD/svg11.dtd">
<svg width="100%" height="100%" viewBox="0 0 4020 2517" version="1.1" xmlns="http://www.w3.org/2000/svg" xmlns:xlink="http://www.w3.org/1999/xlink" xml:space="preserve" xmlns:serif="http://www.serif.com/" style="fill-rule:evenodd;clip-rule:evenodd;stroke-linejoin:round;stroke-miterlimit:2;">
    <g transform="matrix(81.5222,0,0,81.5222,-43.7863,-57.1611)">
        <path d="M13.431,31.572C12.643,31.572 12.005,30.92 12.005,30.116L12.005,18.347C12.005,17.543 12.643,16.892 13.431,16.892C14.219,16.892 14.858,17.543 14.858,18.347L14.858,30.116C14.858,30.92 14.219,31.572 13.431,31.572ZM14.858,7.561L14.858,2.156C14.858,1.353 14.219,0.701 13.431,0.701C12.643,0.701 12.005,1.353 12.005,2.156L12.005,7.561C12.005,10.153 9.979,12.398 7.262,12.398L1.964,12.398C1.176,12.398 0.537,13.05 0.537,13.854C0.537,14.658 1.176,15.309 1.964,15.309L7.262,15.309C11.816,15.309 14.858,12.34 14.858,7.561ZM22.608,31.125L31.657,21.895L22.608,31.125ZM35.01,14.684C36.955,14.684 38.9,13.929 40.382,12.419L49.431,3.189C49.988,2.621 49.988,1.699 49.431,1.131C48.874,0.563 47.971,0.563 47.414,1.131L38.7,10.02C37.743,10.997 36.295,11.648 35.012,11.67C33.728,11.646 32.28,10.995 31.324,10.02L22.608,1.128C22.051,0.56 21.148,0.56 20.591,1.128C20.034,1.695 20.034,2.617 20.591,3.185L29.64,12.416C31.12,13.926 33.065,14.681 35.012,14.681L35.01,14.684ZM31.48,10.18L22.608,1.128L31.48,10.18ZM29.64,19.835L20.591,29.066C20.034,29.634 20.034,30.555 20.591,31.123C21.148,31.691 22.051,31.691 22.608,31.123L31.322,22.234C32.279,21.257 33.727,20.606 35.01,20.584C36.293,20.608 37.742,21.259 38.698,22.234L47.412,31.123C47.969,31.691 48.873,31.691 49.43,31.123C49.986,30.555 49.986,29.634 49.43,29.066L40.381,19.835C38.9,18.325 36.955,17.57 35.009,17.57C33.064,17.57 31.119,18.325 29.637,19.835L29.64,19.835Z" style="fill:rgb(64,64,64);fill-rule:nonzero;"/>
    </g>
</svg>
