<?xml version="1.0" encoding="UTF-8" standalone="no"?>
<!DOCTYPE svg PUBLIC "-//W3C//DTD SVG 1.1//EN" "http://www.w3.org/Graphics/SVG/1.1/DTD/svg11.dtd">
<svg width="100%" height="100%" viewBox="0 0 41 40" version="1.1" xmlns="http://www.w3.org/2000/svg" xmlns:xlink="http://www.w3.org/1999/xlink" xml:space="preserve" xmlns:serif="http://www.serif.com/" style="fill-rule:evenodd;clip-rule:evenodd;stroke-linejoin:round;stroke-miterlimit:2;">
    <path d="M20.151,40C31.281,40 40.303,31.046 40.303,20C40.303,8.954 31.281,0 20.151,0C9.022,0 0,8.954 0,20C0,31.046 9.022,40 20.151,40Z" style="fill:rgb(38,38,38);fill-rule:nonzero;"/>
    <path d="M20.151,33.817C15.382,33.817 11.19,30 11.19,25.191C11.19,22.252 12.575,19.885 15.19,18.511C13.69,17.061 12.806,15.611 12.806,13.473C12.806,11.535 13.582,9.676 14.963,8.305C16.344,6.934 18.217,6.164 20.17,6.164C22.123,6.164 23.996,6.934 25.378,8.305C26.759,9.676 27.535,11.535 27.535,13.473C27.535,15.611 26.612,17.061 25.112,18.511C27.727,19.885 29.111,22.252 29.111,25.191C29.073,30 24.92,33.817 20.151,33.817ZM20.151,21.107C19.337,21.107 18.541,21.346 17.865,21.795C17.188,22.244 16.661,22.882 16.349,23.628C16.038,24.374 15.956,25.195 16.115,25.988C16.274,26.78 16.666,27.507 17.241,28.079C17.817,28.65 18.55,29.039 19.348,29.196C20.146,29.354 20.974,29.273 21.726,28.964C22.477,28.655 23.12,28.131 23.572,27.46C24.024,26.788 24.266,25.999 24.266,25.191C24.265,24.108 23.831,23.07 23.059,22.304C22.288,21.538 21.242,21.108 20.151,21.107ZM20.151,10.687C19.584,10.683 19.029,10.846 18.556,11.156C18.083,11.465 17.713,11.907 17.492,12.425C17.272,12.943 17.211,13.514 17.318,14.066C17.425,14.619 17.694,15.127 18.092,15.528C18.49,15.928 18.999,16.202 19.554,16.316C20.109,16.429 20.685,16.376 21.21,16.165C21.735,15.953 22.185,15.592 22.503,15.126C22.821,14.661 22.993,14.112 22.997,13.55C22.999,13.176 22.928,12.806 22.786,12.46C22.644,12.114 22.435,11.799 22.171,11.533C21.907,11.268 21.592,11.056 21.246,10.911C20.899,10.766 20.527,10.69 20.151,10.687Z" style="fill:rgb(90,90,90);fill-rule:nonzero;"/>
</svg>
