<?xml version="1.0" encoding="UTF-8" standalone="no"?>
<!DOCTYPE svg PUBLIC "-//W3C//DTD SVG 1.1//EN" "http://www.w3.org/Graphics/SVG/1.1/DTD/svg11.dtd">
<svg width="100%" height="100%" viewBox="0 0 140 130" version="1.1" xmlns="http://www.w3.org/2000/svg" xmlns:xlink="http://www.w3.org/1999/xlink" xml:space="preserve" xmlns:serif="http://www.serif.com/" style="fill-rule:evenodd;clip-rule:evenodd;stroke-linejoin:round;stroke-miterlimit:2;">
    <g transform="matrix(1,0,0,1,-130,-140)">
        <path d="M270,140L130,140L130,270L270,270L270,140ZM212.065,200.492L206.718,200.492L206.718,223.316L212.065,223.316L212.065,200.492ZM229.923,204.5C230.837,204.519 231.75,204.437 232.645,204.256C233.244,204.142 233.807,203.891 234.292,203.522C234.681,203.199 234.965,202.768 235.107,202.283C235.27,201.7 235.347,201.095 235.335,200.49L240,200.49L240,223.316L234.62,223.316L234.62,208.218L229.923,208.218L229.923,204.5ZM213.507,218.653C213.747,217.526 214.171,216.446 214.762,215.457C215.276,214.622 215.92,213.873 216.67,213.24C217.436,212.605 218.248,212.027 219.099,211.512C219.773,211.121 220.398,210.746 220.974,210.387C221.505,210.061 222.012,209.696 222.49,209.295C222.903,208.952 223.251,208.538 223.517,208.072C223.772,207.608 223.901,207.085 223.892,206.556C223.892,205.643 223.642,204.986 223.142,204.583C222.612,204.172 221.955,203.958 221.284,203.98C220.52,203.957 219.778,204.232 219.213,204.747C218.659,205.257 218.382,206.111 218.382,207.306L213.132,207.306C213.122,206.313 213.305,205.328 213.67,204.404C214.02,203.525 214.56,202.734 215.251,202.089C215.987,201.412 216.853,200.891 217.795,200.556C218.905,200.169 220.075,199.981 221.25,200.002C222.259,199.997 223.263,200.134 224.234,200.409C225.136,200.66 225.983,201.081 226.728,201.649C227.46,202.221 228.047,202.958 228.44,203.801C228.884,204.777 229.101,205.842 229.076,206.914C229.087,207.822 228.874,208.718 228.456,209.523C228.055,210.289 227.544,210.992 226.94,211.61C226.349,212.212 225.7,212.753 225,213.224C224.304,213.692 223.673,214.088 223.109,214.414C222.325,214.936 221.679,215.387 221.168,215.767C220.731,216.084 220.322,216.439 219.946,216.827C219.665,217.115 219.448,217.46 219.31,217.838C219.184,218.227 219.123,218.635 219.131,219.044L228.913,219.044L228.913,223.316L213.067,223.316C213.039,221.75 213.187,220.186 213.507,218.653ZM200.35,223.316L199.47,220.544L191.35,220.544L190.469,223.316L184.83,223.316L192.982,200.492L197.841,200.492L206.09,223.316L200.35,223.316ZM195.428,207.012L192.623,216.403L198.167,216.403L195.428,207.012Z" style="fill:rgb(64,64,64);"/>
    </g>
</svg>
