<?xml version="1.0" encoding="UTF-8" standalone="no"?>
<!DOCTYPE svg PUBLIC "-//W3C//DTD SVG 1.1//EN" "http://www.w3.org/Graphics/SVG/1.1/DTD/svg11.dtd">
<svg width="100%" height="100%" viewBox="0 0 56 24" version="1.1" xmlns="http://www.w3.org/2000/svg" xmlns:xlink="http://www.w3.org/1999/xlink" xml:space="preserve" xmlns:serif="http://www.serif.com/" style="fill-rule:evenodd;clip-rule:evenodd;stroke-linejoin:round;stroke-miterlimit:2;">
    <g transform="matrix(1,0,0,1,-1.10132,-0.117187)">
        <path d="M16.621,23.433L15.741,20.661L7.621,20.661L6.74,23.433L1.101,23.433L9.253,0.609L14.112,0.609L22.361,23.433L16.621,23.433ZM11.699,7.129L8.894,16.52L14.438,16.52L11.699,7.129Z" style="fill:rgb(64,64,64);fill-rule:nonzero;"/>
    </g>
    <g transform="matrix(1,0,0,1,-1.10132,-0.117187)">
        <rect x="22.989" y="0.609" width="5.347" height="22.824" style="fill:rgb(64,64,64);fill-rule:nonzero;"/>
    </g>
    <g transform="matrix(1,0,0,1,-1.10132,-0.117187)">
        <path d="M29.778,18.77C30.018,17.643 30.442,16.563 31.033,15.574C31.547,14.739 32.191,13.99 32.941,13.357C33.707,12.722 34.519,12.144 35.37,11.629C36.044,11.238 36.669,10.863 37.245,10.504C37.776,10.178 38.283,9.813 38.761,9.412C39.174,9.069 39.522,8.655 39.788,8.189C40.043,7.725 40.172,7.202 40.163,6.673C40.163,5.76 39.913,5.103 39.413,4.7C38.883,4.289 38.226,4.075 37.555,4.097C36.791,4.074 36.049,4.349 35.484,4.864C34.93,5.374 34.653,6.228 34.653,7.423L29.403,7.423C29.393,6.43 29.576,5.445 29.941,4.521C30.291,3.642 30.831,2.851 31.522,2.206C32.258,1.529 33.124,1.008 34.066,0.673C35.176,0.286 36.346,0.098 37.521,0.119C38.53,0.114 39.534,0.251 40.505,0.526C41.407,0.777 42.254,1.198 42.999,1.766C43.731,2.338 44.318,3.075 44.711,3.918C45.155,4.894 45.372,5.959 45.347,7.031C45.358,7.939 45.145,8.835 44.727,9.64C44.326,10.406 43.815,11.109 43.211,11.727C42.62,12.329 41.971,12.87 41.271,13.341C40.575,13.809 39.944,14.205 39.38,14.531C38.596,15.053 37.95,15.504 37.439,15.884C37.002,16.201 36.593,16.556 36.217,16.944C35.936,17.232 35.719,17.577 35.581,17.955C35.455,18.344 35.394,18.752 35.402,19.161L45.184,19.161L45.184,23.433L29.338,23.433C29.31,21.867 29.458,20.303 29.778,18.77Z" style="fill:rgb(64,64,64);fill-rule:nonzero;"/>
    </g>
    <g transform="matrix(1,0,0,1,-1.10132,-0.117187)">
        <path d="M46.194,4.617C47.108,4.636 48.021,4.554 48.916,4.373C49.515,4.259 50.078,4.008 50.563,3.639C50.952,3.316 51.236,2.885 51.378,2.4C51.541,1.817 51.618,1.212 51.606,0.607L56.271,0.607L56.271,23.433L50.891,23.433L50.891,8.335L46.194,8.335L46.194,4.617Z" style="fill:rgb(64,64,64);fill-rule:nonzero;"/>
    </g>
</svg>
