<?xml version="1.0" encoding="UTF-8" standalone="no"?>
<!DOCTYPE svg PUBLIC "-//W3C//DTD SVG 1.1//EN" "http://www.w3.org/Graphics/SVG/1.1/DTD/svg11.dtd">
<svg width="100%" height="100%" viewBox="0 0 56 24" version="1.1" xmlns="http://www.w3.org/2000/svg" xmlns:xlink="http://www.w3.org/1999/xlink" xml:space="preserve" xmlns:serif="http://www.serif.com/" style="fill-rule:evenodd;clip-rule:evenodd;stroke-linejoin:round;stroke-miterlimit:2;">
    <g transform="matrix(1,0,0,1,-54.83,-60.0004)">
        <path d="M82.065,60.492L76.718,60.492L76.718,83.316L82.065,83.316L82.065,60.492ZM99.923,64.5C100.837,64.519 101.75,64.437 102.645,64.256C103.244,64.142 103.807,63.891 104.292,63.522C104.681,63.199 104.965,62.768 105.107,62.283C105.27,61.7 105.347,61.095 105.335,60.49L110,60.49L110,83.316L104.62,83.316L104.62,68.218L99.923,68.218L99.923,64.5ZM83.507,78.653C83.747,77.526 84.171,76.446 84.762,75.457C85.276,74.622 85.92,73.873 86.67,73.24C87.436,72.605 88.248,72.027 89.099,71.512C89.773,71.121 90.398,70.746 90.974,70.387C91.505,70.061 92.012,69.696 92.49,69.295C92.903,68.952 93.251,68.538 93.517,68.072C93.772,67.608 93.901,67.085 93.892,66.556C93.892,65.643 93.642,64.986 93.142,64.583C92.612,64.172 91.955,63.958 91.284,63.98C90.52,63.957 89.778,64.232 89.213,64.747C88.659,65.257 88.382,66.111 88.382,67.306L83.132,67.306C83.122,66.313 83.305,65.328 83.67,64.404C84.02,63.525 84.56,62.734 85.251,62.089C85.987,61.412 86.853,60.891 87.795,60.556C88.905,60.169 90.075,59.981 91.25,60.002C92.259,59.997 93.263,60.134 94.234,60.409C95.136,60.66 95.983,61.081 96.728,61.649C97.46,62.221 98.047,62.958 98.44,63.801C98.884,64.777 99.101,65.842 99.076,66.914C99.087,67.822 98.874,68.718 98.456,69.523C98.055,70.289 97.544,70.992 96.94,71.61C96.349,72.212 95.7,72.753 95,73.224C94.304,73.692 93.673,74.088 93.109,74.414C92.325,74.936 91.679,75.387 91.168,75.767C90.731,76.084 90.322,76.439 89.946,76.827C89.665,77.115 89.448,77.46 89.31,77.838C89.184,78.227 89.123,78.635 89.131,79.044L98.913,79.044L98.913,83.316L83.067,83.316C83.039,81.75 83.187,80.186 83.507,78.653ZM70.35,83.316L69.47,80.544L61.35,80.544L60.469,83.316L54.83,83.316L62.982,60.492L67.841,60.492L76.09,83.316L70.35,83.316ZM65.428,67.012L62.623,76.403L68.167,76.403L65.428,67.012Z" style="fill:rgb(64,64,64);"/>
    </g>
</svg>
