<?xml version="1.0" encoding="UTF-8" standalone="no"?>
<!DOCTYPE svg PUBLIC "-//W3C//DTD SVG 1.1//EN" "http://www.w3.org/Graphics/SVG/1.1/DTD/svg11.dtd">
<svg width="100%" height="100%" viewBox="0 0 127 127" version="1.1" xmlns="http://www.w3.org/2000/svg" xmlns:xlink="http://www.w3.org/1999/xlink" xml:space="preserve" xmlns:serif="http://www.serif.com/" style="fill-rule:evenodd;clip-rule:evenodd;stroke-linejoin:round;stroke-miterlimit:2;">
    <g transform="matrix(1,0,0,1,-1.42109e-14,-0.0524444)">
        <path d="M16.645,0.052L109.774,0.052C118.94,0.052 126.42,7.495 126.42,16.698L126.42,109.832C126.42,118.998 118.977,126.472 109.774,126.472L16.645,126.472C7.48,126.472 0,119.035 0,109.832L0,16.656C0,7.495 7.438,0.052 16.645,0.052" style="fill:rgb(234,104,0);fill-rule:nonzero;"/>
    </g>
    <g transform="matrix(1,0,0,1,-1.42109e-14,-0.0524444)">
        <path d="M76.384,28.275L76.384,23.939C76.382,20.91 73.925,18.455 70.895,18.456L58.1,18.456C55.071,18.455 52.614,20.91 52.612,23.939L52.612,28.39C52.612,28.886 53.07,29.233 53.57,29.117C57.19,28.072 60.939,27.544 64.706,27.548C68.356,27.548 71.97,28.043 75.462,29.002C75.926,29.117 76.384,28.775 76.384,28.275M41.318,33.948L39.132,31.762C38.104,30.732 36.708,30.154 35.253,30.154C33.797,30.154 32.402,30.732 31.373,31.762L28.76,34.369C27.729,35.394 27.149,36.789 27.149,38.243C27.149,39.698 27.729,41.092 28.76,42.118L30.91,44.267C31.257,44.609 31.758,44.53 32.063,44.188C33.331,42.446 34.731,40.805 36.251,39.278C37.783,37.741 39.439,36.331 41.202,35.064C41.586,34.833 41.624,34.295 41.318,33.948M64.668,47.712L64.668,66.464C64.668,67.001 65.247,67.386 65.742,67.117L82.414,58.489C82.793,58.299 82.909,57.836 82.72,57.456C79.264,51.394 72.848,47.253 65.437,46.985C65.052,46.985 64.668,47.29 64.668,47.712M64.668,92.886C50.767,92.886 39.474,81.608 39.474,67.728C39.474,53.848 50.767,42.576 64.668,42.576C78.574,42.576 89.863,53.848 89.863,67.728C89.863,81.608 78.612,92.886 64.668,92.886M64.668,31.993C44.925,31.993 28.912,47.986 28.912,67.728C28.912,87.476 44.925,103.431 64.668,103.431C84.41,103.431 100.424,87.439 100.424,67.691C100.424,47.943 84.447,31.993 64.668,31.993" style="fill:rgb(255,212,177);fill-rule:nonzero;"/>
    </g>
</svg>
