<?xml version="1.0" encoding="UTF-8" standalone="no"?>
<!DOCTYPE svg PUBLIC "-//W3C//DTD SVG 1.1//EN" "http://www.w3.org/Graphics/SVG/1.1/DTD/svg11.dtd">
<svg width="100%" height="100%" viewBox="0 0 136 193" version="1.1" xmlns="http://www.w3.org/2000/svg" xmlns:xlink="http://www.w3.org/1999/xlink" xml:space="preserve" xmlns:serif="http://www.serif.com/" style="fill-rule:evenodd;clip-rule:evenodd;stroke-linejoin:round;stroke-miterlimit:2;">
    <g transform="matrix(1,0,0,1,-60.1941,0)">
        <path style="fill:rgb(234,104,0)" d="M156.377,4.834C157.952,6.79 158.756,9.429 160.363,14.708L195.468,130.028C182.489,123.295 168.378,118.439 153.498,115.819L130.641,38.578C130.267,37.315 129.106,36.448 127.788,36.448C126.467,36.448 125.304,37.319 124.933,38.587L102.353,115.78C87.403,118.388 73.229,123.253 60.194,130.011L95.471,14.681C97.083,9.411 97.889,6.777 99.465,4.824C100.856,3.1 102.665,1.762 104.72,0.936C107.048,0 109.804,0 115.315,0L140.511,0C146.029,0 148.788,0 151.118,0.938C153.175,1.771 154.986,3.107 156.377,4.834Z"/>
        <path d="M160.577,135.516C154.79,140.465 143.239,143.84 129.934,143.84C113.604,143.84 99.917,138.756 96.284,131.918C94.986,135.837 94.695,140.322 94.695,143.187C94.695,143.187 93.839,157.255 103.624,167.039C103.624,161.958 107.743,157.841 112.823,157.841C121.531,157.841 121.521,165.437 121.514,171.601C121.513,171.786 121.513,171.969 121.513,172.15C121.513,181.506 127.231,189.526 135.363,192.908C134.148,190.41 133.467,187.603 133.467,184.64C133.467,175.717 138.705,172.394 144.793,168.532C149.638,165.46 155.02,162.047 158.729,155.2C160.664,151.627 161.763,147.535 161.763,143.187C161.763,140.513 161.348,137.935 160.577,135.516Z" style="fill:rgb(255,212,177);"/>
        <path d="M160.577,135.516C154.79,140.465 143.239,143.84 129.934,143.84C113.604,143.84 99.917,138.756 96.284,131.918C94.986,135.837 94.695,140.322 94.695,143.187C94.695,143.187 93.839,157.255 103.624,167.039C103.624,161.958 107.743,157.841 112.823,157.841C121.531,157.841 121.521,165.437 121.514,171.601C121.513,171.786 121.513,171.969 121.513,172.15C121.513,181.506 127.231,189.526 135.363,192.908C134.148,190.41 133.467,187.603 133.467,184.64C133.467,175.717 138.705,172.394 144.793,168.532C149.638,165.46 155.02,162.047 158.729,155.2C160.664,151.627 161.763,147.535 161.763,143.187C161.763,140.513 161.348,137.935 160.577,135.516Z" style="fill:url(#_Linear1);"/>
    </g>
    <defs>
        <linearGradient id="_Linear1" x1="0" y1="0" x2="1" y2="0" gradientUnits="userSpaceOnUse" gradientTransform="matrix(-34.2637,59.2823,-59.2823,-34.2637,186.634,106.915)"><stop offset="0" style="stop-color:rgb(255,183,125);stop-opacity:1"/><stop offset="1" style="stop-color:rgb(255,183,125);stop-opacity:0"/></linearGradient>
    </defs>
</svg>
