<svg width="6140" height="5745" viewBox="0 0 6140 5745" fill="none" xmlns="http://www.w3.org/2000/svg">
<path fill-rule="evenodd" clip-rule="evenodd" d="M2704.96 31.9034C2697.03 49.2354 2669.76 107.066 2644.36 160.412C2618.95 213.759 2567.06 322.876 2529.08 402.896C2462.73 542.619 2444.82 580.268 2343.41 793.392C2318.35 846.074 2297.84 890.095 2297.84 891.221C2297.84 892.348 2266.47 958.363 2228.14 1037.92C2189.81 1117.48 2149.13 1202.72 2137.76 1227.34C2116.05 1274.32 2076.94 1356.49 1999.27 1518.32C1955.2 1610.15 1864.51 1801.29 1786.86 1965.98C1767.51 2007.02 1734.81 2075.85 1714.17 2118.94C1693.54 2162.02 1661.55 2229.17 1643.07 2268.16C1624.6 2307.14 1591.07 2377.65 1568.55 2424.84C1512.24 2542.86 1465.04 2642.62 1436.16 2704.63C1422.79 2733.35 1390.97 2800.5 1365.45 2853.85C1339.92 2907.19 1290.43 3011.28 1255.46 3085.14C1167.58 3270.78 1045.86 3526.4 982.788 3657.77L929.96 3767.82H592.723C331.851 3767.82 253.807 3769.94 248.077 3777.15C244.011 3782.28 226.389 3818.37 208.924 3857.36C142.197 4006.29 104.447 4091.72 104.447 4093.8C104.447 4094.99 255.03 4096.83 439.073 4097.9L773.7 4099.84L702.056 4249.82C662.65 4332.3 602.071 4459.89 567.424 4533.33C532.777 4606.79 479.569 4718.92 449.182 4782.53C418.796 4846.13 382.001 4923.35 367.415 4954.13C352.837 4984.91 312.879 5068.46 278.628 5139.79C244.376 5211.13 216.355 5270.6 216.355 5271.93C216.355 5273.28 192.481 5324.03 163.303 5384.71C41.2045 5638.67 0 5727.87 0 5738.23C0 5742.2 168.488 5745 406.881 5745H813.77L853.468 5661.06C933.123 5492.67 1006.37 5337.08 1031.72 5282.42C1045.99 5251.64 1082.85 5172.74 1113.62 5107.08C1165.71 4995.96 1184.24 4956.58 1268.15 4778.8C1296.8 4718.1 1475.32 4337.83 1556.26 4165.12L1588.6 4096.11H1748.88C1987.13 4096.11 2028.77 4083.08 2134.93 3975.24C2170.48 3939.13 2204.8 3909.58 2211.21 3909.58C2231.4 3909.58 2244.49 3948.86 2275.05 4101.07C2320.58 4327.98 2357.61 4407.02 2439.59 4452.28C2476.18 4472.49 2503.05 4478.13 2559.1 4477.38C2647.46 4476.19 2721.75 4437.42 2780.99 4361.54C2798.39 4339.28 2812.61 4318.55 2812.61 4315.49C2812.61 4312.43 2817.15 4304.62 2822.7 4298.15C2828.25 4291.66 2843.08 4261.19 2855.67 4230.41C2925.8 4058.92 2965.54 3821.39 3002.95 3350.01C3039.56 2888.79 3045.32 2842.66 3066.35 2842.66C3100.74 2842.66 3121.23 3007.19 3196.83 3890.93C3229.01 4267.1 3247.76 4444.47 3271.87 4600.65C3312.36 4863.05 3368.58 4979.8 3468.63 5009.33C3521.75 5024.99 3546.97 5024.41 3606.19 5006.12C3734.72 4966.41 3807.99 4820.41 3871.88 4476.62C3903.73 4305.23 3939.26 4147.38 3951.18 4124.32C3965.93 4095.8 3986.43 4077.09 4021.22 4060.37C4043.52 4049.66 4080.7 4047.46 4276.43 4045.29L4505.54 4042.75L4521.61 4078.76C4530.46 4098.56 4550.47 4141.62 4566.09 4174.45C4581.7 4207.28 4604.43 4255.96 4616.59 4282.64C4628.75 4309.31 4673.06 4405 4715.05 4495.28C4757.04 4585.55 4802.31 4682.92 4815.65 4711.65C4828.99 4740.37 4850.87 4787.38 4864.26 4816.1C4877.66 4844.83 4900.29 4893.51 4914.54 4924.29C4928.81 4955.06 4964 5030.61 4992.75 5092.16C5142.34 5412.35 5246.51 5636.74 5270.48 5690.42C5281.82 5715.79 5294.93 5737.61 5299.63 5738.91C5320.55 5744.69 6140 5736.64 6140 5730.65C6140 5724.64 6048 5528.12 5940.65 5304.8C5917.96 5257.61 5886.79 5192.14 5871.38 5159.31C5827.34 5065.47 5716.89 4832.04 5671.94 4737.76C5649.43 4690.57 5617.6 4623.42 5601.19 4588.54C5584.77 4553.66 5551.23 4483.15 5526.66 4431.86C5502.07 4380.56 5470.08 4313.41 5455.56 4282.64C5441.04 4251.86 5411.16 4188.71 5389.17 4142.31C5367.18 4095.9 5349.19 4054.78 5349.19 4050.91C5349.19 4046.63 5468.73 4043.88 5655.07 4043.88C5941.47 4043.88 5960.94 4043.06 5960.79 4030.83C5960.71 4023.65 5930.81 3952.3 5894.37 3872.28L5828.11 3726.79L5511.16 3724.84C5269.78 3723.36 5192.5 3720.69 5187.05 3713.65C5183.11 3708.57 5159.5 3660.76 5134.58 3607.41C5109.67 3554.07 5069.25 3468.45 5044.76 3417.16C4936.13 3189.63 4911.89 3138.52 4864.26 3036.64C4836.45 2977.14 4788.6 2876.42 4757.92 2812.81C4727.24 2749.21 4674.45 2638.41 4640.59 2566.6C4606.74 2494.78 4548.77 2372.24 4511.77 2294.27C4474.76 2216.3 4428.6 2118.94 4409.2 2077.9C4389.79 2036.86 4356.3 1966.36 4334.78 1921.22C4313.26 1876.08 4283.74 1813.97 4269.17 1783.19C4254.61 1752.41 4221.84 1683.58 4196.33 1630.24C4120.3 1471.21 4082.35 1391.38 4013.66 1245.99C3977.79 1170.08 3927.89 1064.92 3902.76 1012.32C3877.64 959.713 3857.08 915.671 3857.08 914.447C3857.08 913.224 3830.67 857.221 3798.38 789.99C3710.84 607.724 3664.39 510.402 3633.22 443.932C3617.83 411.103 3584.31 340.596 3558.72 287.25C3502.99 171.074 3466.04 92.1737 3442.56 39.1705L3425.19 0L3072.28 0.193994L2719.36 0.387989L2704.96 31.9034ZM3128.06 1093.04C3158.83 1158.7 3204.92 1257.74 3230.47 1313.14C3256.03 1368.54 3292.06 1445.76 3310.56 1484.75C3329.05 1523.73 3355.09 1579.13 3368.41 1607.85C3381.75 1636.58 3405.23 1686.94 3420.61 1719.77C3435.98 1752.6 3471.25 1828.14 3498.98 1887.64C3550.08 1997.28 3577.81 2056.65 3631.45 2171.16C3663.08 2238.69 3694.24 2305.83 3724.94 2372.61C3735.32 2395.18 3771.39 2472.4 3805.11 2544.21C3881.14 2706.19 3974.33 2906.02 4095.62 3167.21C4108.96 3195.94 4133.37 3247.98 4149.86 3282.86C4166.35 3317.74 4200.83 3391.6 4226.47 3447C4252.11 3502.4 4290.28 3584.16 4311.29 3628.71C4332.29 3673.24 4349.48 3712.7 4349.48 3716.37C4349.48 3720.17 4248.57 3723.06 4115.83 3723.06C3840.54 3723.06 3828.23 3725.18 3764.16 3783.74C3689.86 3851.65 3637 3985.22 3591.09 4221.05C3579.72 4279.5 3568.21 4323.15 3565.53 4318.04C3562.85 4312.93 3558.38 4283.57 3555.59 4252.79C3552.81 4222.02 3547.32 4161.58 3543.4 4118.49C3527.99 3949.1 3520.39 3861.59 3506.13 3689.48C3445.78 2961.38 3397.35 2599.78 3333.75 2402.45C3310.1 2329.09 3264.23 2238.57 3231.62 2200.94C3187.97 2150.56 3143.31 2130.87 3065.43 2127.64C3008.44 2125.29 2996.51 2127.19 2959.92 2144.51C2802.29 2219.08 2741.49 2447.72 2692.92 3148.56C2666.34 3531.88 2618.83 3923.14 2589.38 4001.15C2584.32 4014.55 2582.25 4009.81 2578.67 3976.73C2547.26 3685.52 2538.89 3636.7 2505.84 3551.45C2465.62 3447.71 2410.08 3393.06 2323.84 3372.37C2243.14 3353.01 2157.04 3386.38 2101.84 3458.43C2086.22 3478.81 2048.31 3545.86 2017.61 3607.41C1982.53 3677.71 1952.16 3728.35 1935.94 3743.58L1910.11 3767.82H1827.94C1780.14 3767.82 1745.76 3764.81 1745.76 3760.62C1745.76 3756.67 1753.79 3739.04 1763.6 3721.45C1773.42 3703.87 1796.54 3655.91 1814.99 3614.87C1833.44 3573.84 1860.95 3515.08 1876.13 3484.31C1891.31 3453.53 1916.53 3399.81 1932.18 3364.93C1947.83 3330.05 1993.06 3232.68 2032.69 3148.56C2072.32 3064.44 2110.98 2982.18 2118.61 2965.76C2126.24 2949.35 2152.43 2893.95 2176.81 2842.66C2201.2 2791.36 2231.38 2727.57 2243.89 2700.9C2285.62 2611.91 2336.26 2503.63 2355.56 2462.14C2366.06 2439.57 2394.64 2379.14 2419.08 2327.84C2443.51 2276.55 2481.24 2195.97 2502.91 2148.78C2524.58 2101.59 2560.72 2024.37 2583.19 1977.18C2627.26 1884.68 2658.97 1817.14 2697.03 1734.69C2710.29 1705.97 2787.43 1541.45 2868.45 1369.1C2949.48 1196.75 3025.77 1034.39 3037.97 1008.29C3050.18 982.201 3062.86 963.735 3066.14 967.256C3069.43 970.786 3097.29 1027.39 3128.06 1093.04Z" fill="rgb(255,157,78)"/>
</svg>
