<?xml version="1.0" encoding="UTF-8" standalone="no"?>
<!DOCTYPE svg PUBLIC "-//W3C//DTD SVG 1.1//EN" "http://www.w3.org/Graphics/SVG/1.1/DTD/svg11.dtd">
<svg width="100%" height="100%" viewBox="0 0 347 299" version="1.1" xmlns="http://www.w3.org/2000/svg" xmlns:xlink="http://www.w3.org/1999/xlink" xml:space="preserve" xmlns:serif="http://www.serif.com/" style="fill-rule:evenodd;clip-rule:evenodd;stroke-linejoin:round;stroke-miterlimit:2;">
    <rect id="background" x="0" y="0" width="1" height="1" style="fill:none;"/>
    <g id="emblem" transform="matrix(1,0,0,1,-51.097,-92.304)">
        <path d="M225.8,92.304L149.049,225.234C178.171,216.256 209.501,214.925 239.87,222.088L265.809,228.211L241.405,331.691L215.429,325.568C195.475,320.861 174.675,325.525 158.588,338.242C150.541,344.607 144.202,352.597 139.857,361.561L115.847,349.945C121.921,337.4 130.802,326.209 142.019,317.329C164.458,299.568 193.714,293.045 221.568,299.617L233.733,248.043C190.156,237.77 144.229,248 109.123,275.787C74.017,303.572 53.512,345.929 53.512,390.697L398.092,390.707L225.8,92.304Z" style="fill:rgb(64,64,64);fill-rule:nonzero;"/>
    </g>
</svg>
