<?xml version="1.0" encoding="UTF-8" standalone="no"?>
<!DOCTYPE svg PUBLIC "-//W3C//DTD SVG 1.1//EN" "http://www.w3.org/Graphics/SVG/1.1/DTD/svg11.dtd">
<svg width="100%" height="100%" viewBox="0 0 2001 1808" version="1.1" xmlns="http://www.w3.org/2000/svg" xmlns:xlink="http://www.w3.org/1999/xlink" xml:space="preserve" xmlns:serif="http://www.serif.com/" style="fill-rule:evenodd;clip-rule:evenodd;stroke-linejoin:round;stroke-miterlimit:2;">
    <g transform="matrix(1,0,0,1,-207.96,-352.195)">
        <path d="M2194.22,931.178C2150.98,1202.25 2012.99,1449.17 1804.81,1628.05C1596.62,1806.92 1331.74,1906.13 1057.29,1908.03C1001.7,1910.17 946.03,1906.79 891.105,1897.94C655.267,1857.87 477.889,1656.79 467.552,1417.8C468.661,1288.01 520.809,1163.74 612.647,1072.02C802.562,882.36 1113.99,880.16 1306.57,1067.12C1399.69,1157.52 1453.59,1281.05 1456.54,1410.8C1458.61,1492.79 1423.1,1564.7 1350.11,1566.78C1272.13,1566.78 1235.58,1511.13 1235.58,1436.14L1235.58,1227.76C1235.64,1158.07 1178.62,1100.56 1108.94,1100L934.273,1100C831.141,1099.29 734.434,1151.11 677.906,1237.37C645.448,1286.9 628.151,1344.84 628.151,1404.05C628.151,1553.08 737.703,1681.24 884.912,1704.43C986.789,1720.46 1090.12,1683.6 1158.85,1606.71L1164.96,1597.6L1171.07,1607.71C1213.7,1665.62 1282.65,1698.46 1354.48,1695.06C1484.88,1685.58 1585.33,1572.22 1579.05,1441.62C1579.67,1387.4 1573.59,1333.3 1560.96,1280.56C1528.57,1131.57 1442.17,999.846 1318.43,910.79C1063.43,727.27 706.916,766.321 497.691,1000.69C396.185,1114.4 340.315,1261.78 340.932,1414.2C342.879,1575.81 407.454,1730.53 520.976,1845.58C634.488,1960.62 788.326,2027.24 949.89,2031.33C1111.45,2035.42 995.634,2035.49 1047.2,2034.3C1297.86,2032.72 1542.92,1959.6 1753.47,1823.58C1756.46,1821.49 1759.46,1825.65 1757.47,1828.69C1550.09,2052.09 1254.4,2173.02 949.91,2158.96C751.148,2162.57 559.321,2084.68 419.331,1943.54C279.329,1802.39 203.002,1609.92 208.21,1411.18C208.306,1173.52 320.719,949.365 511.133,807.147C637.414,714.148 790.092,663.744 946.921,663.277L1181.35,663.277C1366.43,663.139 1543.15,585.106 1667.93,448.427C1669.24,446.981 1670.97,445.991 1672.88,445.603C1676.78,444.758 1680.81,446.515 1682.84,449.948C1683.84,451.632 1684.3,453.585 1684.13,455.544C1674.2,560.911 1639.12,662.37 1581.85,751.37C1580.11,754.522 1580.41,758.418 1582.6,761.272C1584.78,764.121 1588.44,765.427 1591.93,764.595C1811.22,715.057 1994.35,564.035 2084.74,358.192C2085.88,356.377 2087.43,354.869 2089.3,353.801C2093.09,351.659 2097.75,351.659 2101.55,353.801C2103.41,354.863 2104.97,356.37 2106.09,358.192C2197.95,534.171 2228.95,735.729 2194.22,931.178ZM949.287,1225.16L949.252,1225.16C849.224,1225.16 766.913,1307.47 766.913,1407.49C766.913,1419.45 768.089,1431.37 770.422,1443.09C784.783,1515.29 841.502,1572.01 913.695,1586.38C925.407,1588.71 937.32,1589.89 949.261,1589.89C1049.29,1589.89 1131.61,1507.57 1131.61,1407.54L1131.61,1237.26C1131.27,1230.55 1125.84,1225.12 1119.13,1224.78L949.287,1225.16Z" style="fill:rgb(64,64,64);fill-rule:nonzero;"/>
    </g>
</svg>
