<svg width="1748" height="676" viewBox="0 0 1748 676" fill="none" xmlns="http://www.w3.org/2000/svg">
  <g>
    <path d="M742.49 216.432C726.326 317.762 674.744 410.064 596.923 476.932C519.099 543.796 420.084 580.882 317.491 581.592C296.71 582.392 275.9 581.128 255.369 577.82C167.209 562.841 100.903 487.675 97.0389 398.337C97.4535 349.82 116.947 303.366 151.277 269.08C222.27 198.183 338.686 197.36 410.675 267.249C445.484 301.041 465.633 347.218 466.736 395.721C467.509 426.37 454.235 453.25 426.951 454.028C397.801 454.028 384.138 433.225 384.138 405.193V327.298C384.16 301.247 362.845 279.749 336.798 279.54H271.505C232.953 279.274 196.803 298.645 175.672 330.89C163.539 349.405 157.073 371.064 157.073 393.197C157.073 448.907 198.025 496.815 253.054 505.483C291.137 511.476 329.763 497.697 355.455 468.954L357.739 465.549L360.023 469.328C375.959 490.976 401.733 503.252 428.584 501.981C477.329 498.437 514.879 456.062 512.531 407.242C512.763 386.973 510.49 366.75 505.769 347.035C493.661 291.341 461.364 242.101 415.108 208.81C319.786 140.208 186.516 154.806 108.305 242.416C70.361 284.922 49.4761 340.015 49.7067 396.992C50.4345 457.404 74.5735 515.24 117.01 558.247C159.442 601.251 216.948 626.154 277.343 627.683C337.736 629.212 294.443 629.238 313.719 628.793C407.419 628.203 499.026 600.869 577.732 550.023C578.85 549.242 579.971 550.797 579.227 551.933C501.706 635.443 391.173 680.648 277.351 675.393C203.051 676.742 131.343 647.626 79.0133 594.866C26.6787 542.102 -1.85334 470.154 0.0934826 395.863C0.129369 307.022 42.1508 223.23 113.33 170.067C160.536 135.303 217.609 116.461 276.233 116.287H363.866C433.051 116.235 499.112 87.0654 545.756 35.973C546.246 35.4324 546.892 35.0624 547.606 34.9173C549.064 34.6015 550.571 35.2582 551.329 36.5415C551.703 37.171 551.875 37.9011 551.812 38.6334C548.1 78.021 534.986 115.948 513.578 149.217C512.928 150.395 513.04 151.852 513.858 152.919C514.673 153.984 516.042 154.472 517.346 154.161C599.32 135.643 667.776 79.1888 701.565 2.24194C701.991 1.56347 702.571 0.999763 703.27 0.600531C704.686 -0.200177 706.428 -0.200177 707.849 0.600531C708.544 0.99752 709.127 1.56085 709.546 2.24194C743.884 68.0252 755.473 143.37 742.49 216.432ZM277.118 326.326C277.113 326.326 277.109 326.326 277.105 326.326C239.713 326.326 208.944 357.095 208.944 394.483C208.944 398.954 209.384 403.41 210.256 407.791C215.624 434.78 236.826 455.983 263.813 461.355C268.191 462.226 272.644 462.667 277.108 462.667C314.5 462.667 345.272 431.895 345.272 394.502C345.272 394.498 345.272 394.491 345.272 394.487V330.849C345.145 328.341 343.116 326.311 340.607 326.184L277.118 326.326Z" fill="rgb(255,157,78)"/>
  </g>
</svg>
