<?xml version="1.0" encoding="UTF-8"?>
<svg width="256px" height="298px" viewBox="0 0 256 298" version="1.1" xmlns="http://www.w3.org/2000/svg" xmlns:xlink="http://www.w3.org/1999/xlink" preserveAspectRatio="xMidYMid">
	<g>
		<polyline fill="rgb(255,160,83)" points="192 112.384 256 150.326857 256 224.768 192 261.248 128 224.768 128 150.345143"></polyline>
		<polyline fill="rgb(255,161,85)" points="128 0 192 37.9428571 192 112.384 128 148.864 64 112.384 64 37.9611429"></polyline>
		<polyline fill="rgb(255,161,85)" points="192 37.9428571 256 75.8857143 256 150.336 192 186.816 128 150.336 128 75.8857143"></polyline>
		<polyline fill="rgb(255,169,99)" points="64 37.9428571 128 75.8857143 128 150.336 64 186.816 0 150.336 0 75.8857143"></polyline>
		<polyline fill="rgb(255,169,99)" points="64 112.384 128 150.326857 128 224.768 64 261.248 0 224.768 0 150.345143"></polyline>
		<polyline fill="rgb(255,160,83)" points="128 148.873143 192 186.816 192 261.257143 128 297.737143 64 261.257143 64 186.816"></polyline>
		<path d="M192,37.9428571 L128,75.8857143 L64,37.9428571 L128,0 L192,37.9428571 Z M256,75.8857143 L192,113.846857 L128,75.904 L192,37.9611429 L256,75.904 L256,75.8857143 Z" fill="rgb(255,175,111)"></path>
		<polyline fill="rgb(255,155,75)" points="128 223.305143 128 148.882286 64 186.825143 64 261.248"></polyline>
		<polyline fill="rgb(255,171,103)" points="192 186.816 128 223.296 64 186.816 128 148.873143"></polyline>
		<polygon fill="rgb(255,168,97)" points="128 223.305143 64 186.825143 128 148.882286"></polygon>
		<polygon fill="rgb(255,173,107)" points="128 75.8857143 64 37.9428571 128 0"></polygon>
		<polyline fill="rgb(255,181,121)" points="128 75.8857143 64 113.846857 0 75.904 64 37.9611429"></polyline>
		<polyline fill="rgb(255,159,81)" points="256 150.336 192 186.816 128 148.873143 192 113.856"></polyline>
		<polygon fill="rgb(255,162,87)" points="63.0125714 260.626286 0 224.146286 63.0125714 186.185143 63.0125714 260.626286"></polygon>
		<polyline fill="rgb(255,175,111)" points="64 113.846857 64 37.9611429 128 75.904 128 148.864"></polyline>
		<polyline fill="rgb(255,134,37)" points="128 148.873143 128 75.8857143 64 113.846857 64 186.806857"></polyline>
		<polygon fill="rgb(255,132,33)" points="128 148.873143 64 113.856 128 75.8857143"></polygon>
		<polygon fill-opacity="0.2" fill="rgb(234,104,0)" style="mix-blend-mode: soft-light;" points="256 224.768 192 186.825143 256 150.345143 256 224.768"></polygon>
		<path d="M192,261.257143 L192,186.816 L128,223.296 L128,297.746286 L192,261.266286 L192,261.257143 Z M256,224.777143 L256,150.336 L192,186.816 L192,261.257143 L256,224.777143 Z" fill="rgb(255,132,33)"></path>
		<polygon fill="rgb(255,129,27)" points="256 224.768 192 186.825143 256 150.345143 256 224.768"></polygon>
		<polyline fill="rgb(255,134,37)" points="256 150.336 256 75.8857143 192 113.846857 192 186.806857"></polyline>
		<polygon fill="rgb(255,137,41)" points="256 150.336 192 113.856 256 75.8857143"></polygon>
		<path d="M0,75.8857143 L64,112.384 L128,75.904 L65.4628571,114.578286 L64,186.514286 C64,186.541714 64,186.514286 64,186.514286 L62.5371429,114.56 L0,75.8857143 Z" fill="rgb(255,212,177)" opacity="0.78"></path>
		<polyline fill="rgb(255,196,149)" opacity="0.78" points="128 75.8857143 192 112.384 256 75.904 193.462857 114.578286 192 186.806857 190.537143 114.578286"></polyline>
		<path d="M64,186.816 L128,221.851429 L192,186.816 L129.462857,224.027429 L128,297.691429 C128,297.718857 128,297.691429 128,297.691429 L126.537143,224.036571 L64,186.825143 L64,186.816 Z" fill="rgb(255,187,133)" opacity="0.78"></path>
	</g>
</svg>
