<?xml version="1.0" encoding="UTF-8" standalone="no"?>
<!DOCTYPE svg PUBLIC "-//W3C//DTD SVG 1.1//EN" "http://www.w3.org/Graphics/SVG/1.1/DTD/svg11.dtd">
<svg width="100%" height="100%" viewBox="0 0 1472 1481" version="1.1" xmlns="http://www.w3.org/2000/svg" xmlns:xlink="http://www.w3.org/1999/xlink" xml:space="preserve" xmlns:serif="http://www.serif.com/" style="fill-rule:evenodd;clip-rule:evenodd;stroke-linejoin:round;stroke-miterlimit:2;">
    <g transform="matrix(29.3227,0,0,29.3227,-4861.71,-2427.92)">
        <path d="M206.1,98.8C210.3,99.6 212.9,99.8 216,100.1L216,117.3C215.3,117 214.5,116.8 213.9,116.6C212.8,116.3 198.3,112.1 195.3,111.3C199.5,107 203.4,102.1 206.1,98.8M204.5,132.4C205.9,126.7 207,124.2 207.8,123.1L210.3,121.9C207.6,122.1 204.3,122.1 200.4,122C193.8,121.8 189.4,120.8 187.2,120C187.2,120 189.2,117.9 191.4,114.9C190.2,116 189,117.1 187.8,118.1C180.1,124.2 172.3,128.6 165.8,131L165.8,133.3L204.3,133.3L204.5,132.4M210,133.1L216,133.1L216,123.2L210,133.1Z" style="fill:rgb(41,41,41);fill-rule:nonzero;"/>
        <path d="M209.2,82.9L216,82.9L216,95.6C215.9,95.6 215.9,95.5 215.8,95.5C213.6,94.5 211.6,93.8 208.9,93L207.5,95.2C202.9,94.6 194.7,86.5 190.9,85.1C188.4,84.2 185.6,83.5 182.5,82.8L200.5,82.8C201.5,84.8 202.6,86.5 204.3,87.8C204.8,88.2 205.5,88.7 205.7,88.7C206.1,88.8 206.5,88.7 206.6,88.4L209.2,82.9M178.5,111.4C182.5,108.5 185.8,108.1 185.8,108.1L186.6,109.2C187.1,108.4 187.6,107.3 187.9,106C188.7,102.1 189.3,95.8 189.9,90.9C184.9,91.4 181.8,87.7 170.3,82.9L165.8,82.9L165.8,123.2C167.1,122.3 168.4,121.2 170.4,119.2C172.1,117.6 175.1,113.9 178.5,111.4Z" style="fill:rgb(108,108,108);fill-rule:nonzero;"/>
    </g>
</svg>
