<?xml version="1.0" encoding="UTF-8" standalone="no"?>
<!DOCTYPE svg PUBLIC "-//W3C//DTD SVG 1.1//EN" "http://www.w3.org/Graphics/SVG/1.1/DTD/svg11.dtd">
<svg width="100%" height="100%" viewBox="0 0 1890 331" version="1.1" xmlns="http://www.w3.org/2000/svg" xmlns:xlink="http://www.w3.org/1999/xlink" xml:space="preserve" xmlns:serif="http://www.serif.com/" style="fill-rule:evenodd;clip-rule:evenodd;stroke-linejoin:round;stroke-miterlimit:2;">
    <g transform="matrix(1.27424,0,0,1.27424,-278.421,-526.26)">
        <path d="M218.6,516.7L276.1,574.3L218.5,632L246.5,660.1L304.2,602.4L361.8,659.9L389.9,631.8L246.7,488.6L218.6,516.7Z" style="fill:url(#_Linear1);fill-rule:nonzero;"/>
    </g>
    <g transform="matrix(1.27424,0,0,1.27424,-278.421,-526.26)">
        <path d="M446.5,460.1L418.4,432.1L360.7,489.7L303.1,432.2L275,460.3L418.2,603.5L446.3,575.4L388.8,517.8L446.5,460.1Z" style="fill:url(#_Linear2);fill-rule:nonzero;"/>
    </g>
    <g transform="matrix(1.27424,0,0,1.27424,-278.421,-526.26)">
        <path d="M578.1,469.5C623.7,469.5 645.3,501.7 648.1,526.6L607.2,526.6C604.1,514 592.4,504.8 577.8,504.8C556.5,504.8 544.2,521.6 544.2,546.2C544.2,570.8 556.5,587.6 577.8,587.6C592.4,587.6 604.1,578.4 607.2,565.8L648.1,565.8C645.3,590.7 623.7,622.9 578.1,622.9C535.5,622.9 504.5,589.9 504.5,546.2C504.5,502.5 535.5,469.5 578.1,469.5Z" style="fill-rule:nonzero;"/>
    </g>
    <g transform="matrix(1.27424,0,0,1.27424,-278.421,-526.26)">
        <path d="M807.3,472.9L807.3,619.6L770.6,619.6L770.6,601.7C761.4,615.1 744.8,623 724.1,623C681.5,623 656.6,588.8 656.6,546.3C656.6,503.7 681.5,469.6 724.1,469.6C744.8,469.6 761.3,477.4 770.6,490.9L770.6,473L807.3,473L807.3,472.9ZM732.5,504.6C710.4,504.6 696.4,522.5 696.4,546.3C696.4,570.1 710.4,588 732.5,588C754.6,588 768.6,570.1 768.6,546.3C768.7,522.5 754.7,504.6 732.5,504.6Z" style="fill-rule:nonzero;"/>
    </g>
    <g transform="matrix(1.27424,0,0,1.27424,-278.421,-526.26)">
        <path d="M869.9,672L830.1,672L830.1,473L866.8,473L866.8,490.9C876,477.5 892.6,469.6 913.3,469.6C955.9,469.6 980.8,503.8 980.8,546.3C980.8,588.9 955.9,623 913.3,623C892.6,623 877.5,614 869.9,604L869.9,672ZM904.9,588C927,588 941,570.1 941,546.3C941,522.5 927,504.6 904.9,504.6C882.8,504.6 868.8,522.5 868.8,546.3C868.7,570.1 882.7,588 904.9,588Z" style="fill-rule:nonzero;"/>
    </g>
    <g transform="matrix(1.27424,0,0,1.27424,-278.421,-526.26)">
        <path d="M1143.7,472.9L1143.7,619.6L1107,619.6L1107,601.7C1097.8,615.1 1081.2,623 1060.5,623C1017.9,623 993,588.8 993,546.3C993,503.7 1017.9,469.6 1060.5,469.6C1081.2,469.6 1097.7,477.4 1107,490.9L1107,473L1143.7,473L1143.7,472.9ZM1068.9,504.6C1046.8,504.6 1032.8,522.5 1032.8,546.3C1032.8,570.1 1046.8,588 1068.9,588C1091,588 1105,570.1 1105,546.3C1105.1,522.5 1091.1,504.6 1068.9,504.6Z" style="fill-rule:nonzero;"/>
    </g>
    <g transform="matrix(1.27424,0,0,1.27424,-278.421,-526.26)">
        <path d="M1233.9,469.6C1279.5,469.6 1301.1,501.8 1303.9,526.7L1263,526.7C1259.9,514.1 1248.2,504.9 1233.6,504.9C1212.3,504.9 1200,521.7 1200,546.3C1200,570.9 1212.3,587.7 1233.6,587.7C1248.2,587.7 1259.9,578.5 1263,565.9L1303.9,565.9C1301.1,590.8 1279.5,623 1233.9,623C1191.3,623 1160.3,590 1160.3,546.3C1160.3,502.6 1191.3,469.6 1233.9,469.6Z" style="fill-rule:nonzero;"/>
    </g>
    <g transform="matrix(1.27424,0,0,1.27424,-278.421,-526.26)">
        <path d="M1317,437.1C1317,423.1 1327.1,413 1341.1,413C1355.1,413 1365.2,423.1 1365.2,437.1C1365.2,451.1 1355.1,460.9 1341.1,460.9C1327.1,460.9 1317,451.1 1317,437.1ZM1321.2,472.9L1361,472.9L1361,619.6L1321.2,619.6L1321.2,472.9Z" style="fill-rule:nonzero;"/>
    </g>
    <g transform="matrix(1.27424,0,0,1.27424,-278.421,-526.26)">
        <path d="M1382.8,472.9L1382.8,436.5L1422.6,436.5L1422.6,472.9L1453.2,472.9L1453.2,505.3L1422.6,505.3L1422.6,619.7L1382.8,619.7L1382.8,504.3" style="fill-rule:nonzero;"/>
    </g>
    <g transform="matrix(1.27424,0,0,1.27424,-278.421,-526.26)">
        <path d="M1449.2,546.3C1449.2,504.6 1479.2,469.6 1526.2,469.6C1573.2,469.6 1603.2,504.6 1603.2,546.3C1603.2,588 1573.2,623 1526.2,623C1479.2,623 1449.2,588 1449.2,546.3ZM1526.2,588C1547.2,588 1563.4,572.6 1563.4,546.3C1563.4,520 1547.2,504.6 1526.2,504.6C1505.2,504.6 1489,520 1489,546.3C1489,572.6 1505.2,588 1526.2,588Z" style="fill-rule:nonzero;"/>
    </g>
    <g transform="matrix(1.27424,0,0,1.27424,-278.421,-526.26)">
        <path d="M1701.6,509.1C1701.6,509.1 1697.4,508.3 1693.8,508.3C1670.6,508.3 1658.5,519.8 1658.5,546.7L1658.5,619.8L1618.7,619.8L1618.7,472.9L1655.4,472.9L1655.4,491.9C1660.7,483.2 1671.9,471.5 1696.8,471.5C1698.2,471.5 1701.6,471.8 1701.6,471.8L1701.6,509.1Z" style="fill-rule:nonzero;"/>
    </g>
    <defs>
        <linearGradient id="_Linear1" x1="0" y1="0" x2="1" y2="0" gradientUnits="userSpaceOnUse" gradientTransform="matrix(171.428,0,0,171.428,218.456,574.341)"><stop offset="0" style="stop-color:#ff8d33;stop-opacity:1"/><stop offset="1" style="stop-color:#cc5a00;stop-opacity:1"/></linearGradient>
        <linearGradient id="_Linear2" x1="0" y1="0" x2="1" y2="0" gradientUnits="userSpaceOnUse" gradientTransform="matrix(171.428,0,0,171.428,275.028,517.769)"><stop offset="0" style="stop-color:#ff8d33;stop-opacity:1"/><stop offset="1" style="stop-color:#cc5a00;stop-opacity:1"/></linearGradient>
    </defs>
</svg>
