<?xml version="1.0" encoding="utf-8"?>
<!-- Generator: Adobe Illustrator 22.0.1, SVG Export Plug-In . SVG Version: 6.00 Build 0)  -->
<svg version="1.1" id="Layer_1" xmlns="http://www.w3.org/2000/svg" xmlns:xlink="http://www.w3.org/1999/xlink" x="0px" y="0px"
	 viewBox="0 0 1920 1080" style="enable-background:new 0 0 1920 1080;" xml:space="preserve">
<style type="text/css">
	.st0{fill:url(#SVGID_1_);}
	.st1{fill:url(#SVGID_2_);}
</style>
<g>
	<linearGradient id="SVGID_1_" gradientUnits="userSpaceOnUse" x1="218.4563" y1="574.3409" x2="389.8847" y2="574.3409">
		<stop  offset="0" style="stop-color:#ff8d33"/>
		<stop  offset="1" style="stop-color:#cc5a00"/>
	</linearGradient>
	<polygon class="st0" points="218.6,516.7 276.1,574.3 218.5,632 246.5,660.1 304.2,602.4 361.8,659.9 389.9,631.8 246.7,488.6 	"/>
	<linearGradient id="SVGID_2_" gradientUnits="userSpaceOnUse" x1="275.0279" y1="517.7693" x2="446.4563" y2="517.7693">
		<stop  offset="0" style="stop-color:#ff8d33"/>
		<stop  offset="1" style="stop-color:#cc5a00"/>
	</linearGradient>
	<polygon class="st1" points="446.5,460.1 418.4,432.1 360.7,489.7 303.1,432.2 275,460.3 418.2,603.5 446.3,575.4 388.8,517.8 	"/>
</g>
<g>
	<g>
		<path d="M578.1,469.5c45.6,0,67.2,32.2,70,57.1h-40.9c-3.1-12.6-14.8-21.8-29.4-21.8c-21.3,0-33.6,16.8-33.6,41.4
			c0,24.6,12.3,41.4,33.6,41.4c14.6,0,26.3-9.2,29.4-21.8h40.9c-2.8,24.9-24.4,57.1-70,57.1c-42.6,0-73.6-33-73.6-76.7
			S535.5,469.5,578.1,469.5z"/>
	</g>
	<path d="M807.3,472.9v146.7h-36.7v-17.9c-9.2,13.4-25.8,21.3-46.5,21.3c-42.6,0-67.5-34.2-67.5-76.7c0-42.6,24.9-76.7,67.5-76.7
		c20.7,0,37.2,7.8,46.5,21.3v-17.9H807.3z M732.5,504.6c-22.1,0-36.1,17.9-36.1,41.7c0,23.8,14,41.7,36.1,41.7
		c22.1,0,36.1-17.9,36.1-41.7C768.7,522.5,754.7,504.6,732.5,504.6z"/>
	<path d="M869.9,672h-39.8v-199h36.7v17.9c9.2-13.4,25.8-21.3,46.5-21.3c42.6,0,67.5,34.2,67.5,76.7c0,42.6-24.9,76.7-67.5,76.7
		c-20.7,0-35.8-9-43.4-19V672z M904.9,588c22.1,0,36.1-17.9,36.1-41.7c0-23.8-14-41.7-36.1-41.7c-22.1,0-36.1,17.9-36.1,41.7
		C868.7,570.1,882.7,588,904.9,588z"/>
	<path d="M1143.7,472.9v146.7H1107v-17.9c-9.2,13.4-25.8,21.3-46.5,21.3c-42.6,0-67.5-34.2-67.5-76.7c0-42.6,24.9-76.7,67.5-76.7
		c20.7,0,37.2,7.8,46.5,21.3v-17.9H1143.7z M1068.9,504.6c-22.1,0-36.1,17.9-36.1,41.7c0,23.8,14,41.7,36.1,41.7
		s36.1-17.9,36.1-41.7C1105.1,522.5,1091.1,504.6,1068.9,504.6z"/>
	<path d="M1233.9,469.6c45.6,0,67.2,32.2,70,57.1H1263c-3.1-12.6-14.8-21.8-29.4-21.8c-21.3,0-33.6,16.8-33.6,41.4
		c0,24.6,12.3,41.4,33.6,41.4c14.6,0,26.3-9.2,29.4-21.8h40.9c-2.8,24.9-24.4,57.1-70,57.1c-42.6,0-73.6-33-73.6-76.7
		C1160.3,502.6,1191.3,469.6,1233.9,469.6z"/>
	<path d="M1317,437.1c0-14,10.1-24.1,24.1-24.1s24.1,10.1,24.1,24.1s-10.1,23.8-24.1,23.8S1317,451.1,1317,437.1z M1321.2,472.9
		h39.8v146.7h-39.8V472.9z"/>
	<path d="M1382.8,472.9v-36.4h39.8v36.4h30.6v32.4h-30.6v114.4h-39.8V504.3"/>
	<path d="M1449.2,546.3c0-41.7,30-76.7,77-76.7c47,0,77,35,77,76.7c0,41.7-30,76.7-77,76.7C1479.2,623,1449.2,588,1449.2,546.3z
		 M1526.2,588c21,0,37.2-15.4,37.2-41.7s-16.2-41.7-37.2-41.7S1489,520,1489,546.3S1505.2,588,1526.2,588z"/>
	<path d="M1701.6,509.1c0,0-4.2-0.8-7.8-0.8c-23.2,0-35.3,11.5-35.3,38.4v73.1h-39.8V472.9h36.7v19c5.3-8.7,16.5-20.4,41.4-20.4
		c1.4,0,4.8,0.3,4.8,0.3V509.1z"/>
</g>
</svg>
