<?xml version="1.0" encoding="UTF-8" standalone="no"?>
<!DOCTYPE svg PUBLIC "-//W3C//DTD SVG 1.1//EN" "http://www.w3.org/Graphics/SVG/1.1/DTD/svg11.dtd">
<svg width="100%" height="100%" viewBox="0 0 257 136" version="1.1" xmlns="http://www.w3.org/2000/svg" xmlns:xlink="http://www.w3.org/1999/xlink" xml:space="preserve" xmlns:serif="http://www.serif.com/" style="fill-rule:evenodd;clip-rule:evenodd;stroke-linejoin:round;stroke-miterlimit:2;">
    <g transform="matrix(1,0,0,1,-0.9,-0.2)">
        <path d="M205.5,45.5C207.4,67.4 172.9,88.3 128.4,92.1C83.9,95.9 46.4,81.2 44.5,59.3C42.6,37.4 77.1,16.5 121.6,12.7C166,8.9 203.6,23.5 205.5,45.5" style="fill:rgb(97,97,97);fill-rule:nonzero;"/>
        <path d="M122.8,15.2C105.8,14.9 86,21.7 71.2,28C69.7,32.4 68.8,37.1 68.8,42C68.8,68 92.3,89.1 121.3,89.1C150.3,89.1 173.9,68.1 173.9,42C173.9,33.8 171.5,26 167.4,19.3C155.6,17.5 139.3,15.5 122.8,15.2" style="fill:rgb(115,115,115);fill-rule:nonzero;"/>
        <path d="M121.4,15.2C112,14.6 95.8,19.5 82.3,24.4C80.2,29.2 79.1,34.5 79.1,40.1C79.1,62.9 99.8,81.4 121.6,81.4C143.3,81.4 162.5,62.9 164.1,40.1C164.6,32.7 162.1,25.7 158.5,19.7C144.6,17.3 129.8,15.8 121.4,15.2" style="fill:rgb(115,115,115);fill-rule:nonzero;"/>
        <path d="M97.3,37.2C98.5,34.6 100.2,33.4 101.9,31.3C101.7,30.8 101.3,29.1 101.3,28.6C101.3,26 103.4,24 105.9,24C106.5,24 107.1,24.1 107.6,24.3C115.3,18.4 125.4,15.9 135.6,18.2C136.5,18.4 137.4,18.7 138.3,18.9C128.3,17.5 116.9,21.1 109.2,27.3C109.4,27.9 110.1,29.4 110.1,30.1C110.1,32.7 108.4,33.3 105.9,33.3C105.3,33.3 104.8,33.2 104.2,33C102.5,35.3 100.3,39.8 99.3,42.6C103.6,46.4 107.4,47.8 112.4,49.7C112.4,49.5 112.6,49.2 112.6,49C112.6,41.3 119.4,35 127.1,35C134,35 139.8,40 140.9,46.6C144.4,44.4 147.7,42.7 150.2,39.5C149.6,38.8 149,36.7 149,35.7C149,33.4 150.9,31.5 153.2,31.5C153.5,31.5 153.8,31.5 154.2,31.6C155.5,28.9 156.5,26.1 157.1,23.2C145,14.2 121.6,15.5 121.6,15.5C121.6,15.5 103,14.5 90.4,20.7C91.3,26.5 93.7,32.3 97.3,37.2" style="fill:rgb(13,13,13);fill-rule:nonzero;"/>
        <path d="M155.1,33.7C156,34.5 156.4,35.1 156.8,35.8C157.9,37.8 155.7,39.7 153.3,39.7C153.1,39.7 152.8,39.7 152.6,39.6C150,43.7 145.4,48.9 141.3,51.6C147.6,52.6 153.5,55.1 158.1,59C161.5,52.9 164.1,44 164.1,36.5C164.1,30.8 161.6,26.6 157.8,23.5C157.7,26.6 156,30.9 155.1,33.7" style="fill:rgb(13,13,13);fill-rule:nonzero;"/>
        <path d="M104.3,72.5C106.4,66.7 111.5,62.3 116.4,58.4C115.7,57.4 114.6,55 114.2,53.9C108.3,52.1 103.1,48.7 99,44.3C99,44.4 98.9,44.6 98.9,44.7C98.1,48.1 98,51.6 98.4,54.9C101.2,55.4 103.4,57.9 103.4,60.9C103.4,62.7 101.8,65.2 100.6,66.4C101.8,69 102.7,70.4 104.3,72.5" style="fill:rgb(13,13,13);fill-rule:nonzero;"/>
        <path d="M103.9,77.3C101.4,74.8 99.7,69.9 98.1,66.8C97.8,66.8 97.5,66.9 97.2,66.9C93.8,66.9 90.3,64.1 91.1,60.8C91.5,59 92.8,57.8 94.8,56.8C94.3,53 94.2,47.7 95.1,43.8C95.3,42.7 95.9,42.2 96.2,41.1C92.5,35.7 90.1,28.5 90.1,21.4L90.1,20.6C83.8,23.8 79.1,28.7 79.1,36.5C79.1,53.8 89.1,70.8 103.9,77.4L103.9,77.3" style="fill:rgb(13,13,13);fill-rule:nonzero;"/>
        <path d="M140.4,53.4C138.5,58.8 133.3,62.8 127.2,62.8C123.9,62.8 120.9,61.7 118.6,59.8C113.7,63.6 109.2,70.3 107,76.2C108,77.3 108.7,78.2 109.9,79.2C113.3,80.1 118.1,79.2 121.8,79.2C136.7,79.2 150,72.6 157.6,60.9C152.4,57.3 146.4,53.9 140.4,53.4" style="fill:rgb(13,13,13);fill-rule:nonzero;"/>
        <path d="M96.9,39.2C98.1,36.6 99.5,34.3 101.2,32.1C101,31.6 100.9,31 100.9,30.5C100.9,27.9 103,25.9 105.5,25.9C106.1,25.9 106.7,26 107.2,26.2C114.9,20.3 125,17.8 135.2,20.1C136.1,20.3 137,20.6 137.9,20.8C127.9,19.4 117.5,22.5 109.8,28.7C110,29.3 110.2,29.9 110.2,30.5C110.2,33.1 108.1,35.1 105.6,35.1C105,35.1 104.5,35 103.9,34.8C102.2,37.1 100.7,39.7 99.7,42.5C103.4,46.4 107.9,49.6 112.9,51.4L112.9,50.7C112.9,43 119.2,36.7 126.9,36.7C133.8,36.7 139.6,41.7 140.7,48.3C144.2,46.1 147.2,43.3 149.8,40C149.2,39.3 148.8,38.4 148.8,37.4C148.8,35.1 150.7,33.2 153,33.2C153.3,33.2 153.6,33.2 154,33.3C155.3,30.6 156.3,27.8 156.9,24.9C144.8,15.9 121.4,17.2 121.4,17.2C121.4,17.2 102.8,16.2 90.2,22.4C90.9,28.5 93.3,34.3 96.9,39.2" style="fill:rgb(39,39,39);fill-rule:nonzero;"/>
        <path d="M155.7,34.4C156.6,35.2 157.1,36.3 157.1,37.5C157.1,39.8 155.2,41.7 152.9,41.7C152.7,41.7 152.4,41.7 152.2,41.6C149.6,45.7 146.1,49.2 142,51.8C148,52.7 153.7,55.3 158.4,59.2C161.8,53.1 163.8,46 163.8,38.5C163.8,32.8 161.3,28.6 157.5,25.5C157.3,28.6 156.7,31.6 155.7,34.4" style="fill:rgb(39,39,39);fill-rule:nonzero;"/>
        <path d="M104.9,73.8C107,68 110.6,62.9 115.5,59C114.8,58 114.2,57 113.8,55.8C107.9,54 102.7,50.6 98.6,46.2C98.6,46.3 98.5,46.5 98.5,46.6C97.7,50 97.6,53.5 98,56.8C100.8,57.3 103,59.8 103,62.8C103,64.6 102.2,66.2 101,67.3C102,69.6 103.4,71.8 104.9,73.8" style="fill:rgb(39,39,39);fill-rule:nonzero;"/>
        <path d="M103.9,77.2C101.4,74.7 99.3,71.9 97.7,68.8C97.4,68.8 97.1,68.9 96.8,68.9C93.4,68.9 90.7,66.2 90.7,62.8C90.7,60.4 92.1,58.3 94.1,57.3C93.6,53.5 93.8,49.7 94.7,45.8C94.9,44.7 95.3,43.6 95.6,42.5C91.9,37.1 89.7,30.5 89.7,23.4L89.7,22.6C83.4,25.8 78.7,30.7 78.7,38.5C78.7,55.8 89,70.7 103.8,77.3C103.9,77.3 103.9,77.3 103.9,77.2" style="fill:rgb(39,39,39);fill-rule:nonzero;"/>
        <path d="M140,55.4C138.1,60.8 132.9,64.8 126.8,64.8C123.5,64.8 120.5,63.7 118.2,61.8C113.3,65.6 109.6,70.8 107.3,76.7C108.3,77.8 109.4,78.8 110.5,79.8C113.9,80.7 117.5,81.2 121.2,81.2C136.1,81.2 149.3,73.5 156.9,61.8C151.9,58.2 146,55.9 140,55.4" style="fill:rgb(39,39,39);fill-rule:nonzero;"/>
        <path d="M140.5,51.8L153.4,48.7L140.4,48L151,40L139,44.3L147.1,33L135.8,40.5L139.7,27.3L132,38.2L131.8,24.4L126.7,36.7L122.5,24.3L122.7,38.9L115.4,25.8L119.4,39.7L107.5,31.1L116.8,42.8L102,37.4L113.6,46L98.7,46.5L114,50.4L98.7,53.7L113.8,54.8L101.1,62.9L114.2,58.2L105.1,69.7L116.6,60.4L112.5,75.8L121.4,63.2L120.2,78L125.2,64.5L129.5,78.6L130.5,64.4L136.9,76.5L133.1,62.7L144.7,71.7L137.2,60.2L150,65.2L140.2,55.6L153.3,56.6L140.5,51.8Z" style="fill:rgb(115,115,115);fill-rule:nonzero;"/>
        <path d="M2.8,76.5C42.9,36.4 74.9,24 104,18.4C107.8,17.7 108.6,9.2 108.6,9.2C108.6,9.2 109.1,15.4 111.8,16.2C114.5,17 118,6.5 118,6.5C118,6.5 114.8,15.9 118,16.5C121.2,17 127.2,7.3 127.2,7.3C127.2,7.3 124.8,15.6 126.4,16.2C128,16.7 136.1,4.1 136.1,4.1C136.1,4.1 131.3,12.4 135.8,13.3C140.4,14.1 147.1,7.6 147.1,7.6C147.1,7.6 141.9,13.5 144.2,14.4C154.2,17.9 162.2,5 162.2,5C162.2,5 160.3,10.7 155.5,16.9C166,19.6 173.8,3.8 173.8,3.8L166,19.6C170,21.6 186.1,3 186.1,3C186.1,3 177.8,17.5 172.9,20.5C175.6,22.7 185.3,14 185.3,14C185.3,14 177.5,23.7 180.5,24.2C184.8,27.7 200.7,6.2 200.7,6.2C200.7,6.2 194.5,18.9 185.4,28.8C193,32.7 212,8.2 212,8.2C212,8.2 211.5,16 197.7,28.4C207.9,27.1 221.1,7.7 221.1,7.7C221.1,7.7 216.3,22.2 204.7,32.5C214.7,31.5 230.8,6.7 230.8,6.7C230.8,6.7 224.6,23.9 212,33.9C226,37 246.2,16.1 246.2,16.1C246.2,16.1 238.3,30.9 227.9,37C239.5,41.4 255.4,23.1 255.4,23.1C255.4,23.1 239.5,47.6 214.2,46.5C205.9,46.1 180.8,21.3 127,23.3C55.8,25.9 40.8,56.1 2.8,76.5" style="fill:rgb(13,13,13);fill-opacity:0.35;fill-rule:nonzero;"/>
        <path d="M4.4,73.5C44.5,33.4 76.5,21 105.6,15.4C109.4,14.7 110.2,6.2 110.2,6.2C110.2,6.2 110.7,12.4 113.4,13.2C116.1,14 119.6,3.5 119.6,3.5C119.6,3.5 116.4,12.9 119.6,13.5C122.8,14 128.8,4.3 128.8,4.3C128.8,4.3 126.4,12.6 128,13.2C129.6,13.7 137.7,1.1 137.7,1.1C137.7,1.1 132.9,9.4 137.4,10.3C142,11.1 148.7,4.6 148.7,4.6C148.7,4.6 143.5,10.5 145.8,11.4C155.8,14.9 163.8,2 163.8,2C163.8,2 161.9,7.7 157.1,13.9C167.6,16.6 175.4,0.8 175.4,0.8L167.6,16.6C171.6,18.8 187.8,0.2 187.8,0.2C187.8,0.2 179.5,14.7 174.6,17.7C177.3,19.6 187,11 187,11C187,11 179.2,20.7 182.2,21.2C186.5,24.7 202.4,3.2 202.4,3.2C202.4,3.2 196.1,15.9 187,25.8C194.6,29.6 213.7,5.1 213.7,5.1C213.7,5.1 213.2,12.9 199.4,25.3C209.6,24 222.8,4.6 222.8,4.6C222.8,4.6 218,19.1 206.4,29.4C216.4,28.4 232.5,3.6 232.5,3.6C232.5,3.6 226.3,20.8 213.7,30.8C227.7,33.9 247.9,13 247.9,13C247.9,13 240,27.8 229.6,33.9C241.2,38.3 257.1,20 257.1,20C257.1,20 241.2,44.5 215.9,43.4C207.6,43 182.5,18.2 128.7,20.2C57.5,22.9 42.4,53 4.4,73.5" style="fill:rgb(13,13,13);fill-rule:nonzero;"/>
        <path d="M1.8,80.9C23,91.5 42.4,79.3 66.8,86.2C85.4,91.4 108,97.9 138.7,93.4C169.4,89 195.6,75.6 208.2,51.8C212.1,41.2 228,54.2 228,54.2C228,54.2 216.4,49.4 216.7,51.6C217,53.9 234.1,61.8 234.1,61.8C234.1,61.8 218.6,57 219.6,60.6C220.5,64.2 239,78.8 239,78.8C239,78.8 217.9,63 216.2,65.2C214.4,67.4 225.1,76.1 225.1,76.1C225.1,76.1 207.5,65.2 201.3,68.4C196.8,70.7 219.6,85.6 219.6,85.6C219.6,85.6 204.8,74.3 201.3,77.3C197.8,80.3 218,104.5 218,104.5C218,104.5 195,79.7 192.7,80.9C190.4,82.1 199,94 199,94C199,94 187.8,81.6 184.7,83.7C181.6,85.9 200.9,118 200.9,118C200.9,118 180,85.1 171.3,90.6C184.8,120.3 179.8,124.5 179.8,124.5C179.8,124.5 178.1,94.2 161.2,95C152.7,95.4 165.2,117.6 165.2,117.6C165.2,117.6 153.7,97.3 146,97.7C160.1,124.5 155.1,135.3 155.1,135.3C155.1,135.3 157.4,112.4 138.3,99.7C145.6,106.2 133.7,135.3 133.7,135.3C133.7,135.3 144.1,92.4 126,100.6C123.1,101.9 125.8,122 125.8,122C125.8,122 122.2,99 116.7,100.2C113.5,100.9 96.5,132.1 96.5,132.1C96.5,132.1 110.4,98.4 106.2,99.8C103.1,100.8 97.3,114.7 97.3,114.7C97.3,114.7 100.1,101 97.3,100.2C94.5,99.4 78.7,114.7 78.7,114.7C78.7,114.7 90.4,101 88.4,98.1C85.3,93.8 81.8,93.6 77.5,95.3C71.3,97.7 63,109 63,109C63,109 71.3,97.5 69.9,93.3C67.6,86.4 43.7,106.6 43.7,106.6C43.7,106.6 57.8,93.3 54.6,90.4C51.4,87.6 33.8,88.4 28.4,88.4C12.3,88.6 6.7,84.8 1.8,80.9" style="fill:rgb(13,13,13);fill-opacity:0.35;fill-rule:nonzero;"/>
        <path d="M0.9,78.5C22.1,89.1 41.5,76.9 65.9,83.8C84.5,89 107.1,95.5 137.8,91C168.5,86.6 194.7,73.2 207.3,49.4C211.2,38.8 227.1,51.8 227.1,51.8C227.1,51.8 215.5,47 215.8,49.2C216.1,51.5 233.2,59.4 233.2,59.4C233.2,59.4 217.7,54.6 218.7,58.2C219.6,61.8 238.1,76.4 238.1,76.4C238.1,76.4 217.2,60.5 215.5,62.7C213.8,64.9 224.4,73.6 224.4,73.6C224.4,73.6 206.8,62.7 200.6,65.9C196.1,68.2 218.9,83.1 218.9,83.1C218.9,83.1 204.1,71.8 200.6,74.8C197.1,77.8 217.3,102 217.3,102C217.3,102 194.4,77.2 192.1,78.4C189.8,79.6 198.4,91.5 198.4,91.5C198.4,91.5 187,79.2 183.9,81.3C180.8,83.5 200,115.6 200,115.6C200,115.6 179.1,82.6 170.5,88.1C184.1,117.9 179,122.1 179,122.1C179,122.1 177.3,91.8 160.4,92.6C151.9,93 164.4,115.2 164.4,115.2C164.4,115.2 153,95 145.3,95.4C159.4,122.2 154.4,133 154.4,133C154.4,133 156.7,110.1 137.6,97.4C144.9,103.9 133,133 133,133C133,133 143.4,90.1 125.3,98.3C122.4,99.6 125.1,119.7 125.1,119.7C125.1,119.7 121.5,96.7 116,97.9C112.8,98.6 95.8,129.8 95.8,129.8C95.8,129.8 109.7,96.1 105.5,97.5C102.4,98.5 96.6,112.4 96.6,112.4C96.6,112.4 99.4,98.7 96.6,97.9C93.8,97.1 78,112.4 78,112.4C78,112.4 89.7,98.7 87.7,95.8C84.6,91.5 81.1,91.3 76.8,93C70.6,95.4 62.3,106.7 62.3,106.7C62.3,106.7 70.6,95.2 69.2,91C66.9,84.1 43,104.3 43,104.3C43,104.3 57.1,91 53.9,88.1C50.7,85.3 33.1,86.1 27.7,86.1C11.4,86.2 5.8,82.4 0.9,78.5" style="fill:rgb(13,13,13);fill-rule:nonzero;"/>
    </g>
</svg>
