<?xml version="1.0" encoding="UTF-8" standalone="no"?>
<!DOCTYPE svg PUBLIC "-//W3C//DTD SVG 1.1//EN" "http://www.w3.org/Graphics/SVG/1.1/DTD/svg11.dtd">
<svg width="100%" height="100%" viewBox="0 0 207 145" version="1.1" xmlns="http://www.w3.org/2000/svg" xmlns:xlink="http://www.w3.org/1999/xlink" xml:space="preserve" xmlns:serif="http://www.serif.com/" style="fill-rule:evenodd;clip-rule:evenodd;stroke-linejoin:round;stroke-miterlimit:2;">
    <g transform="matrix(1,0,0,1,-0.00443417,-0.725861)">
        <path d="M60.341,114.718C61.755,115.405 63.305,115.943 64.918,116.368C64.785,123.906 65.243,135.138 68.232,145.396L48.099,145.396C49.204,133.318 56.981,119.987 60.341,114.718ZM135.765,89.443C139.146,100.153 140.729,126.969 147.399,145.396L122.074,145.396C122.571,141.538 119.937,137.656 120.802,133.764C122.878,124.433 126.005,115.026 130.152,105.656C130.239,105.791 135.681,89.312 135.765,89.443Z" style="fill:rgb(13,13,13);fill-rule:nonzero;"/>
        <path d="M202.215,42.269C196.451,34.029 183.313,27.217 180.247,17.867C179.463,15.477 179.329,10.568 180.844,8.274C182.215,6.201 179.965,6.693 179.965,6.693C176.698,7.959 175.285,4.349 175.285,4.349C174.794,3.083 175.458,-0.763 172.648,1.345C167.569,5.153 169.243,14.394 170.191,18.177C170.85,21.084 173.86,29.263 179.843,35.097C181.412,36.627 191.793,47.959 190.379,53.777C190.32,54.01 190.131,57.415 186.867,58.068C179.352,59.572 176.909,50.366 176.909,50.366C171.274,26.317 162.184,17.913 162.184,17.913C145.502,17.277 133.142,18.822 118.208,21.7C61.955,19.594 19.628,36.875 19.628,36.875C7.248,54.627 0.008,87.563 0.008,87.563C0.008,87.563 -0.025,87.719 0.115,87.743C0.399,87.79 0.549,87.536 0.549,87.536C8.294,77.841 16.214,71.723 16.214,71.723C15.041,117.519 25.419,145.397 25.419,145.397L45.064,145.397C46.447,128.901 59.418,110.644 59.418,110.644C66.721,116.182 83.217,114.547 83.217,114.547C86.115,125.627 92.033,145.397 92.033,145.397L115.706,145.397C117.858,128.307 123.324,113.161 128.584,101.801C128.584,101.801 134.45,88.505 134.639,84.559C135.014,77.609 141.59,75.541 145.16,75.541C148.728,75.541 164.955,84.608 177.098,83.995C198.23,82.932 206.568,73.154 206.971,62.014C207.249,54.327 205.447,46.89 202.215,42.269ZM134.322,65.89C134.216,66.183 134.083,66.483 133.882,66.769C133.684,67.054 133.414,67.337 133.05,67.533C132.69,67.736 132.25,67.816 131.854,67.797C131.454,67.779 131.094,67.681 130.766,67.558C129.478,67.027 128.567,66.204 127.689,65.398C127.253,64.992 126.845,64.569 126.447,64.152C126.055,63.742 125.65,63.306 125.303,62.956C124.754,62.443 123.84,62.016 122.878,61.674C121.905,61.338 120.858,61.052 119.776,60.783C118.69,60.508 117.588,60.248 116.389,59.858C116.087,59.756 115.781,59.638 115.448,59.49C115.297,59.422 115.078,59.31 114.93,59.227C114.714,59.104 114.506,58.957 114.314,58.791C113.924,58.459 113.615,58.048 113.394,57.64C113.175,57.228 113.032,56.817 112.94,56.427C112.762,55.646 112.748,54.939 112.772,54.273C112.803,53.607 112.879,52.977 112.99,52.368C113.218,51.149 113.526,49.999 113.89,48.879C114.252,47.76 114.649,46.667 115.087,45.596C115.305,45.054 115.515,44.538 115.759,43.985C116.012,43.418 116.294,42.87 116.602,42.338C117.85,40.214 119.528,38.428 121.41,37.007C122.355,36.297 123.348,35.668 124.38,35.134C125.414,34.597 126.486,34.141 127.593,33.831C125.717,35.144 124.026,36.632 122.552,38.261C121.086,39.889 119.853,41.675 119.016,43.588C118.804,44.062 118.619,44.548 118.461,45.039L117.957,46.618C117.635,47.685 117.31,48.744 117.037,49.802C116.766,50.857 116.509,51.909 116.363,52.928C116.288,53.437 116.228,53.936 116.215,54.403C116.2,54.867 116.232,55.306 116.315,55.629C116.392,55.964 116.496,56.121 116.572,56.188C116.593,56.206 116.617,56.225 116.647,56.244C116.747,56.301 116.78,56.316 116.884,56.367C117.069,56.456 117.293,56.541 117.526,56.627C118.469,56.981 119.571,57.273 120.666,57.617C121.766,57.967 122.897,58.327 124.025,58.842C125.147,59.36 126.326,59.967 127.326,61.132C127.731,61.632 128.037,62.079 128.374,62.536C128.705,62.989 129.035,63.427 129.366,63.856C129.698,64.284 130.045,64.691 130.397,65.067C130.749,65.443 131.123,65.782 131.495,66.019C131.875,66.26 132.194,66.364 132.492,66.296C132.808,66.236 133.171,65.892 133.453,65.465C133.739,65.035 133.975,64.529 134.179,64.01C134.392,63.49 134.56,62.946 134.735,62.398C134.762,63.545 134.73,64.709 134.322,65.89ZM155.238,51.299C154.432,52.527 152.479,52.669 150.879,51.617C149.278,50.565 148.636,48.716 149.441,47.489C150.248,46.261 152.2,46.12 153.799,47.172C155.402,48.223 156.045,50.071 155.238,51.299Z" style="fill:rgb(53,53,53);fill-rule:nonzero;"/>
        <path d="M202.215,42.269C196.451,34.029 183.313,27.217 180.247,17.867C179.463,15.477 179.329,10.568 180.844,8.274C182.215,6.201 179.965,6.693 179.965,6.693C176.698,7.959 175.285,4.349 175.285,4.349C174.794,3.083 175.458,-0.763 172.648,1.345C167.569,5.153 169.243,14.394 170.191,18.177C170.85,21.084 173.86,29.263 179.843,35.097C181.412,36.627 191.793,47.959 190.379,53.777C190.32,54.01 190.131,57.415 186.867,58.068C179.352,59.572 176.909,50.366 176.909,50.366C171.274,26.317 162.184,17.913 162.184,17.913C145.502,17.277 133.142,18.822 118.208,21.7C61.955,19.594 19.628,36.875 19.628,36.875C7.248,54.627 0.008,87.563 0.008,87.563C0.008,87.563 -0.025,87.719 0.115,87.743C0.399,87.79 0.549,87.536 0.549,87.536C8.294,77.841 16.214,71.723 16.214,71.723C15.041,117.519 25.419,145.397 25.419,145.397L45.064,145.397C46.447,128.901 59.418,110.644 59.418,110.644C66.721,116.182 83.217,114.547 83.217,114.547C86.115,125.627 92.033,145.397 92.033,145.397L115.706,145.397C117.858,128.307 123.324,113.161 128.584,101.801C128.584,101.801 134.45,88.505 134.639,84.559C135.014,77.609 141.59,75.541 145.16,75.541C148.728,75.541 164.955,84.608 177.098,83.995C198.23,82.932 206.568,73.154 206.971,62.014C207.249,54.327 205.447,46.89 202.215,42.269ZM134.322,65.89C134.216,66.183 134.083,66.483 133.882,66.769C133.684,67.054 133.414,67.337 133.05,67.533C132.69,67.736 132.25,67.816 131.854,67.797C131.454,67.779 131.094,67.681 130.766,67.558C129.478,67.027 128.567,66.204 127.689,65.398C127.253,64.992 126.845,64.569 126.447,64.152C126.055,63.742 125.65,63.306 125.303,62.956C124.754,62.443 123.84,62.016 122.878,61.674C121.905,61.338 120.858,61.052 119.776,60.783C118.69,60.508 117.588,60.248 116.389,59.858C116.087,59.756 115.781,59.638 115.448,59.49C115.297,59.422 115.078,59.31 114.93,59.227C114.714,59.104 114.506,58.957 114.314,58.791C113.924,58.459 113.615,58.048 113.394,57.64C113.175,57.228 113.032,56.817 112.94,56.427C112.762,55.646 112.748,54.939 112.772,54.273C112.803,53.607 112.879,52.977 112.99,52.368C113.218,51.149 113.526,49.999 113.89,48.879C114.252,47.76 114.649,46.667 115.087,45.596C115.305,45.054 115.515,44.538 115.759,43.985C116.012,43.418 116.294,42.87 116.602,42.338C117.85,40.214 119.528,38.428 121.41,37.007C122.355,36.297 123.348,35.668 124.38,35.134C125.414,34.597 126.486,34.141 127.593,33.831C125.717,35.144 124.026,36.632 122.552,38.261C121.086,39.889 119.853,41.675 119.016,43.588C118.804,44.062 118.619,44.548 118.461,45.039L117.957,46.618C117.635,47.685 117.31,48.744 117.037,49.802C116.766,50.857 116.509,51.909 116.363,52.928C116.288,53.437 116.228,53.936 116.215,54.403C116.2,54.867 116.232,55.306 116.315,55.629C116.392,55.964 116.496,56.121 116.572,56.188C116.593,56.206 116.617,56.225 116.647,56.244C116.747,56.301 116.78,56.316 116.884,56.367C117.069,56.456 117.293,56.541 117.526,56.627C118.469,56.981 119.571,57.273 120.666,57.617C121.766,57.967 122.897,58.327 124.025,58.842C125.147,59.36 126.326,59.967 127.326,61.132C127.731,61.632 128.037,62.079 128.374,62.536C128.705,62.989 129.035,63.427 129.366,63.856C129.698,64.284 130.045,64.691 130.397,65.067C130.749,65.443 131.123,65.782 131.495,66.019C131.875,66.26 132.194,66.364 132.492,66.296C132.808,66.236 133.171,65.892 133.453,65.465C133.739,65.035 133.975,64.529 134.179,64.01C134.392,63.49 134.56,62.946 134.735,62.398C134.762,63.545 134.73,64.709 134.322,65.89ZM155.238,51.299C154.432,52.527 152.479,52.669 150.879,51.617C149.278,50.565 148.636,48.716 149.441,47.489C150.248,46.261 152.2,46.12 153.799,47.172C155.402,48.223 156.045,50.071 155.238,51.299Z" style="fill:url(#_Radial1);fill-rule:nonzero;"/>
    </g>
    <defs>
        <radialGradient id="_Radial1" cx="0" cy="0" r="1" gradientUnits="userSpaceOnUse" gradientTransform="matrix(163.523,0,0,163.523,303.368,48.8431)"><stop offset="0" style="stop-color:rgb(115,115,115);stop-opacity:0.45"/><stop offset="1" style="stop-color:rgb(13,13,13);stop-opacity:0.45"/></radialGradient>
    </defs>
</svg>
