<?xml version="1.0" encoding="UTF-8" standalone="no"?>
<!DOCTYPE svg PUBLIC "-//W3C//DTD SVG 1.1//EN" "http://www.w3.org/Graphics/SVG/1.1/DTD/svg11.dtd">
<svg width="100%" height="100%" viewBox="0 0 4150 3571" version="1.1" xmlns="http://www.w3.org/2000/svg" xmlns:xlink="http://www.w3.org/1999/xlink" xml:space="preserve" xmlns:serif="http://www.serif.com/" style="fill-rule:evenodd;clip-rule:evenodd;stroke-linejoin:round;stroke-miterlimit:2;">
    <g transform="matrix(8.10547,0,0,8.10547,-8.93444e-06,-289.635)">
        <path d="M104.318,290.746C104.318,290.746 74.513,321.439 41.414,293.517C3.714,261.673 26.46,212.94 26.46,212.94C26.46,212.94 -23.058,244.313 13.387,310.563C50.147,377.388 115.037,345.388 115.037,345.388C109.592,365.288 115.447,357.211 105.102,369.441C118.293,399.965 102.18,404.787 104.841,416.919C106.096,421.991 112.527,423.246 112.527,423.246C116.909,432.682 121.427,433.691 132.397,429.05C144.068,434.084 149.932,433.99 158.071,423.246C164.411,423.412 171.914,424.746 172.973,414.095L155.561,398.356L154.724,374.356C164.936,360.709 184.2,341.758 179.561,313.126C201.734,300.575 203.747,333.097 228.451,332.211C227.239,343.355 226.889,353.768 230.072,361.179C243.115,370.9 239.388,383.097 249.942,395.637C254.184,400.735 260.381,400.164 268.856,405.595C282.099,414.081 285.696,428.269 282.133,438.419C278.653,448.333 271.26,453.222 277.237,466.332C286.233,466.045 292.453,468.741 299.617,476.267C307.849,470.849 317.887,466.475 332.715,473.757C350.916,470.976 336.596,458.471 356.716,458.018C369.842,439.016 346.219,443.823 339.304,424.082L348.402,413.311C357.407,417.494 364.923,419.623 372.403,416.657L373.239,410.853C339.494,344.709 381.18,311.359 363.252,248.549C380.179,217.982 478.559,282.346 488.327,228.627C474.571,235.268 462.587,224.115 447.751,206.247C461.86,200.596 487.884,200.837 498.262,228.627C513.326,214.025 518.831,199.541 500.092,159.919C512.616,146.125 511.562,124.584 510.027,102.768C502.18,123.909 495.98,131.391 480.222,139.997C450.046,140.612 420.341,144.447 420.561,115.16C438.874,91.923 466.554,74.248 468.614,52.257C431.36,70.482 404.719,89.685 391.592,106.114L387.462,99.473C406.455,78.001 407.399,57.319 401.58,35.733C396.378,56.214 386.487,72.354 369.317,82.95C357.582,84.636 353.537,69.658 350.232,61.407C337.91,68.036 331.782,60.032 324.558,51.472C311.427,60.314 301.001,62.029 286.44,60.571C278.506,70.412 263.499,71.163 250.831,71.342C256.871,88.046 244.365,95.924 227.667,101.983L241.733,116.049C211.228,132.764 206.769,152.934 182.96,167.397C122.057,180.568 90.996,220.702 104.318,290.746ZM303.486,357.414L299.878,327.191L311.591,323.583L313.839,366.46L303.486,357.414Z" style="fill:rgb(64,64,64);fill-rule:nonzero;"/>
    </g>
</svg>
