<?xml version="1.0" encoding="UTF-8" standalone="no"?>
<!DOCTYPE svg PUBLIC "-//W3C//DTD SVG 1.1//EN" "http://www.w3.org/Graphics/SVG/1.1/DTD/svg11.dtd">
<svg width="100%" height="100%" viewBox="0 0 18 18" version="1.1" xmlns="http://www.w3.org/2000/svg" xmlns:xlink="http://www.w3.org/1999/xlink" xml:space="preserve" xmlns:serif="http://www.serif.com/" style="fill-rule:evenodd;clip-rule:evenodd;stroke-linejoin:round;stroke-miterlimit:2;">
    <g transform="matrix(1,0,0,1,0,-0.5)">
        <path d="M5.508,10.622C5.965,10.622 6.876,10.597 8.134,10.079C9.6,9.475 12.517,8.379 14.621,7.254C16.092,6.467 16.738,5.426 16.738,4.023C16.738,2.078 15.16,0.5 13.214,0.5L5.061,0.5C2.266,0.5 0,2.766 0,5.561C0,8.356 2.122,10.622 5.508,10.622Z" style="fill:rgb(19,19,19);"/>
    </g>
    <g transform="matrix(1,0,0,1,0,-0.5)">
        <path d="M6.887,14.107C6.887,12.737 7.712,11.502 8.977,10.976L11.545,9.911C14.142,8.833 17,10.742 17,13.554C17,15.732 15.234,17.498 13.055,17.497L10.275,17.497C8.404,17.496 6.887,15.979 6.887,14.107Z" style="fill:rgb(109,109,109);"/>
    </g>
    <g transform="matrix(1,0,0,1,0,-0.5)">
        <path d="M2.917,11.289L2.917,11.289C1.306,11.289 0,12.595 0,14.207L0,14.584C0,16.196 1.306,17.502 2.917,17.502L2.917,17.502C4.529,17.502 5.835,16.196 5.835,14.584L5.835,14.207C5.835,12.595 4.529,11.289 2.917,11.289Z" style="fill:rgb(94,94,94);fill-rule:nonzero;"/>
    </g>
</svg>
