<?xml version="1.0" encoding="UTF-8" standalone="no"?>
<!DOCTYPE svg PUBLIC "-//W3C//DTD SVG 1.1//EN" "http://www.w3.org/Graphics/SVG/1.1/DTD/svg11.dtd">
<svg width="100%" height="100%" viewBox="0 0 92 106" version="1.1" xmlns="http://www.w3.org/2000/svg" xmlns:xlink="http://www.w3.org/1999/xlink" xml:space="preserve" xmlns:serif="http://www.serif.com/" style="fill-rule:evenodd;clip-rule:evenodd;stroke-linejoin:round;stroke-miterlimit:2;">
    <g transform="matrix(1,0,0,1,8.0836e-12,-0.106042)">
        <path d="M14.62,51.9C19.382,49.162 23.667,48.686 25.215,48.567C25.453,46.782 25.81,45.115 26.286,43.448C24.739,42.258 21.763,39.877 19.025,36.306C23.429,35.949 27.238,36.544 29.143,36.901C30.095,35.235 31.286,33.687 32.714,32.14C31.881,30.712 30.333,27.855 29.381,23.926C32.952,25.474 35.571,27.378 36.88,28.45C38.666,27.14 40.57,26.069 42.475,25.117C42.475,23.45 42.475,20.474 43.189,16.903C45.689,19.522 47.237,22.022 47.832,23.331C50.212,22.855 52.712,22.617 55.331,22.736C55.807,21.427 56.759,19.165 58.426,16.427C59.616,19.522 60.093,22.022 60.331,23.331C62.949,23.926 65.449,24.76 67.83,25.95C71.639,22.736 75.21,21.308 79.376,20.236C79.376,14.999 78.662,9.88 75.924,4.761C73.187,3.452 70.211,2.5 67.235,1.786C64.14,3.452 61.64,5.357 59.497,7.38C57.95,5 55.926,2.5 53.426,0.238C52.236,0.238 49.974,0.119 45.57,0.833C43.427,3.571 41.88,6.309 40.689,9.047C38.071,7.38 34.857,5.952 31.167,5C29.024,5.952 27,7.023 24.977,8.214C24.262,11.666 24.024,14.88 24.143,17.856C21.048,17.26 17.477,17.022 13.668,17.498C12.359,18.927 11.049,20.474 9.859,22.141C10.097,26.426 11.168,30.116 12.716,33.33C9.145,34.164 5.455,35.711 2.002,38.092C1.526,39.639 1.169,41.306 0.812,42.853C2.955,46.543 5.693,49.519 8.43,51.781C5.693,54.043 2.955,57.138 0.455,61.304C0.693,63.09 1.05,64.756 1.526,66.423L1.645,66.423C4.502,60.471 7.954,56.543 11.287,53.924C18.072,58.566 24.739,59.876 25.691,59.995C25.572,58.923 25.334,57.852 25.215,56.424C23.191,55.947 19.025,54.638 14.62,51.9ZM73.901,16.308C71.758,17.141 68.425,18.689 65.211,21.308C64.735,19.046 63.902,15.713 62.116,11.904C64.259,9.761 66.997,7.618 70.449,5.833C72.829,9.404 73.663,13.808 73.901,16.308ZM56.164,11.309C53.665,14.523 52.117,17.617 51.284,19.76C50.093,17.617 47.951,14.761 44.737,11.904C45.808,9.166 47.356,6.19 49.617,3.452C52.474,5.833 54.617,8.69 56.164,11.309ZM39.38,13.57C38.19,17.737 37.952,21.427 37.952,23.807C35.809,22.26 32.714,20.355 28.667,19.046C28.31,16.189 28.429,12.856 29.262,9.285C33.428,10.118 36.642,11.666 39.38,13.57ZM28.429,32.854C25.691,32.378 21.525,32.021 16.882,32.616C15.335,29.64 14.144,25.95 13.906,21.784C17.953,21.308 21.644,21.665 24.858,22.379C25.691,27.021 27.238,30.592 28.429,32.854ZM14.739,36.901C17.239,40.83 20.334,43.687 22.477,45.472C19.739,45.948 15.692,47.02 11.406,49.757C8.788,47.734 6.169,44.996 4.026,41.425C7.478,38.925 11.287,37.616 14.739,36.901Z" style="fill:rgb(115,115,115);fill-rule:nonzero;"/>
    </g>
    <g transform="matrix(1,0,0,1,8.0836e-12,-0.106042)">
        <path d="M52.144,0.106L53.15,0.112L53.223,0.115L53.545,0.113C58.541,0.113 63.056,0.612 67.383,1.664L67.7,1.741L67.661,1.762L68.006,1.847C70.95,2.594 73.61,3.518 76.035,4.703L76.058,4.748L76.564,5.019C76.844,5.171 77.18,5.358 77.565,5.575L78.146,5.906C80.668,7.351 83.22,8.95 85.527,10.604L86.081,11.006C87.46,12.019 88.676,13.005 89.69,13.947C91.84,15.592 92.199,19.018 90.307,21.027L90.137,21.232C89.557,21.904 88.004,23.545 86.246,25.343L85.268,26.337L84.376,27.235L83.038,28.561C81.546,30.022 80.48,30.999 80.025,31.301C77.758,32.38 75.99,32.014 73.923,30.282L73.7,30.092C71.869,28.505 69.969,27.219 67.893,26.181L67.877,26.049L67.774,26.062C65.555,24.952 63.16,24.117 60.506,23.5L60.423,23.572C58.763,23.217 57.102,22.979 55.441,22.861L55.406,22.806L55.325,22.861C52.876,22.75 50.441,22.947 47.986,23.428L47.974,23.454C46.693,23.7 45.436,24.067 44.291,24.496L43.96,24.623C43.312,24.879 42.77,25.13 42.676,25.203L42.573,25.159L42.531,25.229C40.362,26.313 38.572,27.364 36.954,28.551L36.806,28.546L36.589,28.715C35.767,29.366 35.034,30.019 34.242,30.782L33.121,31.883L32.945,32.045C32.909,32.076 32.879,32.099 32.854,32.117C32.84,32.127 32.827,32.135 32.814,32.142L32.806,32.225C31.357,33.794 30.219,35.294 29.317,36.85L29.37,36.964L29.224,37.216C27.869,39.579 26.676,42.544 26.532,43.355L26.519,43.451L26.398,43.51L26.206,44.21C25.822,45.661 25.537,47.093 25.339,48.584L25.278,48.639L25.338,48.704C24.989,51.15 24.983,53.826 25.321,56.393L25.339,56.413C25.376,56.851 25.422,57.254 25.488,57.723L25.707,59.167C25.753,59.476 25.787,59.729 25.814,59.972C25.86,59.979 25.903,59.985 25.944,59.99L26.05,60.083C31.257,81.031 56.011,89.146 73.229,75.609C75.975,73.484 77.911,73.076 79.894,74.116C80.893,74.64 81.873,75.476 83.392,77.036L85.943,79.713C86.799,80.605 87.566,81.382 88.356,82.146L88.753,82.527C88.79,82.567 89.668,83.472 89.956,83.797C92.179,86.303 92.501,88.671 89.823,91.507C77.99,103.917 58.923,108.528 40.63,104.056C21.587,99.399 6.743,85.849 1.644,66.574L1.68,66.525L1.645,66.548L1.526,66.548L1.406,66.457C0.916,64.743 0.565,63.072 0.348,61.24L0.595,60.833L0.571,60.673C-0.277,54.835 -0.187,48.776 0.886,43.162L0.69,42.825L1.189,40.66L1.241,40.443C1.462,39.526 1.665,38.763 1.932,37.989L2.045,37.911L2.223,37.335C3.811,32.289 6.281,27.292 9.423,22.719L9.766,22.227L9.757,22.068C10.856,20.529 12.111,19.012 13.653,17.374L13.981,17.336L14.252,17.047C14.847,16.418 15.449,15.816 16.058,15.242L16.678,14.669C18.969,12.517 21.479,10.571 24.174,8.852L24.8,8.458L24.854,8.188L24.913,8.106C27.058,6.845 29.069,5.795 31.198,4.879L31.474,4.952L31.839,4.794C35.767,3.1 39.913,1.851 44.168,1.08L45.02,0.933L45.426,0.867L45.55,0.71C48.236,0.274 50.25,0.114 52.144,0.106ZM10.206,54.983L10.145,55.036C7.168,57.653 4.534,61.047 2.326,65.334L2.04,65.9L1.787,66.416L1.806,66.416L2.059,65.909C4.364,61.36 7.148,57.696 10.206,54.983ZM52.581,0.356L52.145,0.356C50.323,0.364 48.388,0.513 45.909,0.875L45.787,1.029C43.771,3.607 42.194,6.292 40.923,9.216L40.741,9.271C38.09,7.584 35.186,6.292 31.882,5.403L31.381,5.266L31.343,5.285C29.36,6.168 27.44,7.164 25.597,8.266L25.185,8.514L25.082,9.043C24.545,11.865 24.312,14.6 24.366,17.249L24.387,17.97L24.239,18.097C21.07,17.488 17.76,17.319 14.434,17.669L13.965,17.721L13.855,17.841C12.78,19.016 11.731,20.277 10.719,21.572L10.368,22.027L10.12,22.392L10.164,23.007C10.454,26.486 11.31,29.701 12.684,32.714L12.947,33.276L12.863,33.452C9.236,34.298 5.684,35.867 2.191,38.196L2.079,38.269L2.012,38.495C1.866,38.992 1.725,39.523 1.577,40.12L1.433,40.717L1.104,42.124C1.039,42.39 0.96,42.7 0.92,42.791L0.949,42.838L0.991,42.622L1.158,42.91C3.144,46.329 5.757,49.333 8.748,51.804L8.749,51.996C5.537,54.673 2.984,57.684 0.922,61.483L0.747,61.805L0.689,61.443L0.648,61.175C0.625,61.212 0.602,61.25 0.579,61.288C0.778,62.778 1.063,64.21 1.446,65.661L1.602,66.226L1.816,65.788C4.294,60.805 7.333,56.98 10.807,54.148L11.21,53.825L11.358,53.821L11.538,53.941L11.596,53.94C13.098,54.967 14.648,55.871 16.221,56.656C17.708,57.385 19.214,58.011 20.718,58.538C22.6,59.197 24.368,59.651 25.381,59.822L25.548,59.848L25.449,59.137L25.329,58.362C25.246,57.82 25.186,57.385 25.14,56.954L25.11,56.646L24.995,56.618C21.902,55.86 18.137,54.352 14.554,52.125L14.555,52.007L14.558,51.792C18.206,49.694 21.611,48.774 24.792,48.478L25.104,48.451L25.198,47.805C25.351,46.816 25.544,45.847 25.779,44.876L25.964,44.146L26.144,43.495L25.698,43.149L25.347,42.87C23.945,41.842 22.468,40.505 21.073,38.933C20.487,38.3 19.912,37.632 19.344,36.918L18.926,36.382L19.015,36.182C19.972,36.104 20.908,36.067 21.828,36.066C24.347,36.054 26.739,36.312 29.091,36.743L29.292,36.401C30.084,35.089 31.046,33.812 32.222,32.496L32.559,32.123L32.342,31.742C31.124,29.583 30.131,27.298 29.41,24.552L29.26,23.956L29.2,23.712L29.337,23.77L29.429,23.692C32.466,24.966 34.793,26.461 36.959,28.234L36.959,28.238L37.255,28.026C38.465,27.174 39.775,26.386 41.266,25.598L41.834,25.302L42.35,25.039L42.35,24.692C42.357,22.131 42.498,19.977 42.939,17.548L43.067,16.879L43.28,16.817L43.303,16.841L43.397,16.815C45.381,18.799 46.595,20.596 48.005,23.169L48.493,23.079C50.322,22.752 52.142,22.582 53.967,22.581L54.652,22.588L55.245,22.608L55.363,22.292C55.982,20.669 56.859,18.826 58.022,16.857L58.451,16.145L58.537,16.369L58.662,16.382C59.719,19.132 60.389,21.636 60.557,23.257L61.041,23.371C63.299,23.925 65.37,24.642 67.308,25.558L67.812,25.802L68.121,25.545C71.342,22.91 74.49,21.415 78.838,20.248L79.251,20.14L79.248,19.619C79.243,19.217 79.234,18.822 79.221,18.431C78.871,15.537 77.944,11.682 76.727,7.541L76.345,6.265L75.97,5.067L75.871,4.874C73.34,3.664 70.481,2.698 67.376,1.916L67.413,1.896C64.517,3.455 62.01,5.291 59.702,7.471L59.597,7.458C59.592,7.462 59.588,7.467 59.583,7.471L59.393,7.448C57.722,4.879 55.678,2.444 53.426,0.363L52.581,0.356ZM14.834,36.779L14.964,36.834C16.937,39.935 19.322,42.511 22.142,44.925L22.895,45.559L22.612,45.596L22.176,45.658L22.498,45.595C20.917,45.87 19.347,46.262 17.786,46.8C15.758,47.526 13.651,48.548 11.593,49.863L11.48,49.859L11.33,49.856C8.458,47.637 5.925,44.833 3.919,41.489L3.953,41.324C7.079,39.06 10.68,37.614 14.714,36.779L14.753,36.795C14.78,36.79 14.807,36.784 14.834,36.779ZM24.885,22.257L24.981,22.357C25.65,26.087 26.808,29.376 28.263,32.26L28.658,33.021L28.526,32.998L28.539,33.021L28.288,32.977C24.749,32.362 20.882,32.244 16.782,32.859L16.651,32.791C14.91,29.308 13.882,25.755 13.662,21.91L13.769,21.779L13.793,21.776L13.892,21.66C17.633,21.219 21.285,21.457 24.885,22.257ZM29.286,9.162C33.172,9.94 36.426,11.363 39.451,13.468L39.5,13.605C38.488,17.146 38.077,20.587 38.077,23.807L37.878,23.909L37.828,23.873L37.759,23.909C34.979,21.901 31.989,20.291 28.509,19.165L28.423,19.056C28.205,16.443 28.308,13.752 28.777,11.042C28.791,10.967 28.804,10.892 28.818,10.817L28.777,11.042C28.807,10.873 28.837,10.705 28.869,10.536C28.904,10.354 28.94,10.172 28.978,9.99C28.986,9.954 28.993,9.919 29.001,9.883C29.045,9.675 29.091,9.466 29.14,9.256L29.286,9.162ZM65.288,21.406L65.089,21.335L65.089,21.333L65.075,21.273L64.934,20.651C64.203,17.497 63.368,14.869 62.003,11.957L62.025,11.818C64.352,9.362 67.133,7.297 70.377,5.729C70.382,5.727 70.387,5.724 70.391,5.722L70.474,5.743L70.553,5.763C72.564,8.78 73.678,12.649 74.025,16.296L74.001,16.335L73.948,16.424C70.936,17.664 68.072,19.222 65.311,21.388C65.304,21.393 65.297,21.399 65.29,21.404L65.288,21.406ZM49.697,3.356C52.403,5.611 54.604,8.294 56.273,11.247L56.263,11.375L56.263,11.385C54.08,14.192 52.433,17.151 51.4,19.805L51.352,19.929L51.309,20.041L51.304,20.053L51.175,19.821L51.165,19.805L50.866,19.324C49.188,16.671 47.235,14.315 44.656,12.118L44.62,11.979L44.637,11.931L44.62,11.858C45.841,8.739 47.448,5.881 49.521,3.372L49.697,3.356Z" style="fill:rgb(13,13,13);fill-rule:nonzero;"/>
    </g>
    <g transform="matrix(1,0,0,1,8.0836e-12,-0.106042)">
        <path d="M54.498,89.159C63.545,89.159 71.758,85.945 78.186,80.469C78.662,80.231 83.067,85.23 84.852,87.135C85.209,87.611 85.209,87.73 85.209,87.73C63.545,106.657 26.762,103.919 9.383,71.184C10.811,66.423 12.835,63.566 12.835,63.566C17.477,65.47 20.929,65.589 20.929,65.589C24.739,75.707 38.071,89.159 54.498,89.159Z" style="fill:rgb(115,115,115);fill-rule:nonzero;"/>
    </g>
</svg>
