<?xml version="1.0" encoding="UTF-8" standalone="no"?>
<!DOCTYPE svg PUBLIC "-//W3C//DTD SVG 1.1//EN" "http://www.w3.org/Graphics/SVG/1.1/DTD/svg11.dtd">
<svg width="100%" height="100%" viewBox="0 0 190 204" version="1.1" xmlns="http://www.w3.org/2000/svg" xmlns:xlink="http://www.w3.org/1999/xlink" xml:space="preserve" xmlns:serif="http://www.serif.com/" style="fill-rule:evenodd;clip-rule:evenodd;stroke-linejoin:round;stroke-miterlimit:2;">
    <g transform="matrix(1,0,0,1,-33.1616,0)">
        <path d="M192.038,144.15L175.149,133.008L161.059,156.544L144.672,151.754L130.243,173.776L130.982,180.707L209.437,166.25L204.88,117.229L192.038,144.15ZM118.877,123.018L131.466,121.286C133.501,122.202 134.918,122.55 137.36,123.171C141.165,124.16 145.565,125.11 152.083,121.827C153.6,121.075 156.762,118.186 158.038,116.538L209.61,107.184L214.87,170.858L126.515,186.781L118.877,123.018ZM214.672,100.074L209.581,101.043L199.802,0L33.162,19.322L53.693,185.92L73.2,183.088C71.642,180.864 69.216,178.173 65.075,174.73C59.331,169.958 61.36,161.85 64.752,156.73C69.235,148.08 92.336,137.088 91.027,123.264C90.557,118.237 89.76,111.696 85.091,107.21C84.915,109.072 85.232,110.861 85.232,110.861C85.232,110.861 83.315,108.416 82.362,105.085C81.414,103.805 80.669,103.398 79.661,101.69C78.941,103.664 79.037,105.955 79.037,105.955C79.037,105.955 77.469,102.253 77.216,99.126C76.288,100.525 76.054,103.181 76.054,103.181C76.054,103.181 74.019,97.344 74.483,94.198C73.555,91.462 70.8,86.032 71.578,73.693C76.662,77.254 87.859,76.41 92.221,69.981C93.667,67.85 94.662,62.038 91.498,50.582C89.466,43.238 84.435,32.301 82.474,28.15L82.24,28.32C83.274,31.664 85.405,38.669 86.224,42.07C88.701,52.374 89.363,55.965 88.202,60.717C87.213,64.848 84.842,67.549 78.832,70.57C72.822,73.6 64.845,66.224 64.342,65.818C58.502,61.165 53.984,53.578 53.482,49.888C52.957,45.853 55.808,43.43 57.245,40.131C55.187,40.717 52.896,41.763 52.896,41.763C52.896,41.763 55.632,38.931 59.005,36.483C60.403,35.558 61.222,34.97 62.694,33.747C60.563,33.712 58.832,33.773 58.832,33.773C58.832,33.773 62.387,31.853 66.07,30.454C63.376,30.336 60.794,30.435 60.794,30.435C60.794,30.435 68.726,26.886 74.989,24.285C79.296,22.518 83.504,23.04 85.869,26.461C88.973,30.941 92.234,33.373 99.142,34.88C103.386,32.998 104.672,32.035 110.003,30.579C114.694,25.418 118.378,24.752 118.378,24.752C118.378,24.752 116.55,26.429 116.061,29.062C118.72,26.966 121.635,25.216 121.635,25.216C121.635,25.216 120.506,26.608 119.453,28.822L119.696,29.187C122.8,27.325 126.448,25.859 126.448,25.859C126.448,25.859 125.405,27.178 124.182,28.883C126.525,28.864 131.27,28.982 133.114,29.19C143.99,29.43 146.246,17.578 150.419,16.09C155.645,14.224 157.981,13.094 166.886,21.843C174.525,29.357 180.496,42.797 177.53,45.808C175.043,48.307 170.141,44.832 164.707,38.061C161.837,34.474 159.664,30.234 158.646,24.845C157.789,20.298 154.448,17.661 154.448,17.661C154.448,17.661 156.384,21.981 156.384,25.786C156.384,27.866 156.643,35.638 159.978,40.003C159.648,40.64 159.494,43.158 159.13,43.642C155.251,38.954 146.922,35.6 145.562,34.611C150.16,38.378 160.726,47.03 164.784,55.328C168.624,63.171 166.362,70.362 168.304,72.221C168.858,72.752 176.56,82.352 178.042,87.174C180.627,95.578 178.195,104.413 174.813,109.891L165.363,111.363C163.981,110.979 163.05,110.787 161.811,110.07C162.496,108.861 163.853,105.846 163.866,105.222L163.331,104.288C160.39,108.454 155.466,112.499 151.373,114.822C146.016,117.859 139.843,117.389 135.824,116.147C124.419,112.63 113.632,104.922 111.03,102.896C111.03,102.896 110.95,104.512 111.44,104.877C114.314,108.122 120.902,113.987 127.274,118.08L113.696,119.574L120.115,169.549C117.27,169.955 116.826,170.157 113.712,170.598C110.966,160.899 105.715,154.566 99.974,150.877C94.912,147.622 87.93,146.89 81.248,148.214L80.819,148.714C85.466,148.23 90.95,148.902 96.586,152.47C102.115,155.968 106.573,165.002 108.214,170.438C110.317,177.389 111.77,184.826 106.112,192.707C102.09,198.31 90.346,201.405 80.854,194.707C83.389,198.784 86.813,202.115 91.427,202.742C98.275,203.674 104.774,202.483 109.248,197.891C113.066,193.965 115.094,185.754 114.56,177.107L120.605,176.23L122.787,191.75L222.835,179.702L214.672,100.074ZM153.802,57.926C153.523,58.563 153.082,58.982 153.741,61.056L153.779,61.174L153.885,61.443L154.16,62.064C155.347,64.493 156.65,66.781 158.832,67.952C159.395,67.856 159.981,67.792 160.586,67.763C162.634,67.674 163.926,67.997 164.742,68.438C164.816,68.029 164.832,67.434 164.787,66.554C164.627,63.478 165.395,58.25 159.485,55.498C157.254,54.464 154.125,54.781 153.082,56.074C153.27,56.099 153.44,56.138 153.574,56.182C155.155,56.73 154.086,57.274 153.802,57.926M170.371,86.618C169.597,86.189 165.974,86.358 163.427,86.662C158.576,87.235 153.338,88.915 152.192,89.811C150.106,91.424 151.053,94.234 152.595,95.389C156.918,98.618 160.707,100.784 164.704,100.256C167.158,99.933 169.325,96.045 170.858,92.518C171.907,90.09 171.907,87.469 170.371,86.618M127.424,61.731C128.79,60.432 120.611,58.726 114.262,63.056C109.581,66.25 109.43,73.098 113.914,76.979C114.362,77.363 114.733,77.635 115.075,77.859C116.384,77.242 117.875,76.621 119.594,76.064C122.493,75.123 124.906,74.637 126.886,74.378C127.834,73.318 128.938,71.453 128.662,68.074C128.285,63.488 124.816,64.214 127.424,61.731" style="fill:rgb(255,157,78);fill-rule:nonzero;"/>
    </g>
</svg>
