<?xml version="1.0" encoding="UTF-8" standalone="no"?>
<!DOCTYPE svg PUBLIC "-//W3C//DTD SVG 1.1//EN" "http://www.w3.org/Graphics/SVG/1.1/DTD/svg11.dtd">
<svg width="100%" height="100%" viewBox="0 0 543 389" version="1.1" xmlns="http://www.w3.org/2000/svg" xmlns:xlink="http://www.w3.org/1999/xlink" xml:space="preserve" xmlns:serif="http://www.serif.com/" style="fill-rule:evenodd;clip-rule:evenodd;stroke-linejoin:round;stroke-miterlimit:2;">
    <g transform="matrix(1,0,0,1,-495.73,-1.13687e-13)">
        <path d="M1032.62,147.101C1031.11,145.844 1017.53,135.534 988.362,135.534C980.818,135.534 973.023,136.288 965.479,137.546C959.947,99.073 928.013,80.465 926.755,79.46L918.96,74.933L913.931,82.226C907.645,92.032 902.867,103.096 900.101,114.412C894.821,136.288 898.09,156.908 909.154,174.509C895.826,182.053 874.201,183.813 869.675,184.065L512.61,184.065C503.306,184.065 495.762,191.608 495.762,200.912C495.26,232.092 500.54,263.273 511.353,292.693C523.674,324.879 542.03,348.767 565.667,363.352C592.321,379.696 635.823,389 684.856,389C706.984,389 729.112,386.988 750.989,382.965C781.415,377.433 810.583,366.872 837.489,351.533C859.617,338.709 879.482,322.365 896.329,303.254C924.744,271.319 941.591,235.613 953.912,203.93L958.941,203.93C989.87,203.93 1008.98,191.608 1019.54,181.047C1026.58,174.509 1031.86,166.463 1035.63,157.41L1037.9,150.873L1032.62,147.101Z" style="fill:rgb(64,64,64);fill-rule:nonzero;"/>
    </g>
    <g transform="matrix(1,0,0,1,-495.73,-1.13687e-13)">
        <path d="M545.802,173.755L593.578,173.755C595.841,173.755 597.853,171.995 597.853,169.48L597.853,126.733C597.853,124.47 596.093,122.458 593.578,122.458L545.802,122.458C543.539,122.458 541.527,124.218 541.527,126.733L541.527,169.48C541.779,171.995 543.539,173.755 545.802,173.755ZM611.683,173.755L659.459,173.755C661.722,173.755 663.734,171.995 663.734,169.48L663.734,126.733C663.734,124.47 661.974,122.458 659.459,122.458L611.683,122.458C609.42,122.458 607.408,124.218 607.408,126.733L607.408,169.48C607.66,171.995 609.42,173.755 611.683,173.755M678.821,173.755L726.598,173.755C728.861,173.755 730.872,171.995 730.872,169.48L730.872,126.733C730.872,124.47 729.112,122.458 726.598,122.458L678.821,122.458C676.558,122.458 674.547,124.218 674.547,126.733L674.547,169.48C674.547,171.995 676.307,173.755 678.821,173.755ZM744.954,173.755L792.73,173.755C794.993,173.755 797.005,171.995 797.005,169.48L797.005,126.733C797.005,124.47 795.245,122.458 792.73,122.458L744.954,122.458C742.691,122.458 740.679,124.218 740.679,126.733L740.679,169.48C740.679,171.995 742.691,173.755 744.954,173.755ZM611.683,112.652L659.459,112.652C661.722,112.652 663.734,110.64 663.734,108.377L663.734,65.63C663.734,63.367 661.974,61.355 659.459,61.355L611.683,61.355C609.42,61.355 607.408,63.115 607.408,65.63L607.408,108.377C607.66,110.64 609.42,112.652 611.683,112.652M678.821,112.652L726.598,112.652C728.861,112.652 730.872,110.64 730.872,108.377L730.872,65.63C730.872,63.367 729.112,61.355 726.598,61.355L678.821,61.355C676.558,61.355 674.547,63.115 674.547,65.63L674.547,108.377C674.547,110.64 676.307,112.652 678.821,112.652M744.954,112.652L792.73,112.652C794.993,112.652 797.005,110.64 797.005,108.377L797.005,65.63C797.005,63.367 794.993,61.355 792.73,61.355L744.954,61.355C742.691,61.355 740.679,63.115 740.679,65.63L740.679,108.377C740.679,110.64 742.691,112.652 744.954,112.652M744.954,51.297L792.73,51.297C794.993,51.297 797.005,49.537 797.005,47.022L797.005,4.275C797.005,2.012 794.993,0 792.73,0L744.954,0C742.691,0 740.679,1.76 740.679,4.275L740.679,47.022C740.679,49.285 742.691,51.297 744.954,51.297M811.589,173.755L859.366,173.755C861.629,173.755 863.64,171.995 863.64,169.48L863.64,126.733C863.64,124.47 861.88,122.458 859.366,122.458L811.589,122.458C809.326,122.458 807.314,124.218 807.314,126.733L807.314,169.48C807.566,171.995 809.326,173.755 811.589,173.755" style="fill:rgb(64,64,64);fill-rule:nonzero;"/>
    </g>
</svg>
