<?xml version="1.0" encoding="UTF-8" standalone="no"?>
<!DOCTYPE svg PUBLIC "-//W3C//DTD SVG 1.1//EN" "http://www.w3.org/Graphics/SVG/1.1/DTD/svg11.dtd">
<svg width="100%" height="100%" viewBox="0 0 66 61" version="1.1" xmlns="http://www.w3.org/2000/svg" xmlns:xlink="http://www.w3.org/1999/xlink" xml:space="preserve" xmlns:serif="http://www.serif.com/" style="fill-rule:evenodd;clip-rule:evenodd;stroke-linejoin:round;stroke-miterlimit:2;" fill="rgb(64,64,64)">
    <g transform="matrix(1,0,0,1,-243.8,-253.5)">
        <path d="M301.6,266.5L304.5,278L309.2,263.1L301.6,266.5Z" style="fill-rule:nonzero;"/>
    </g>
    <g transform="matrix(1,0,0,1,-243.8,-253.5)">
        <path d="M293,253.5C288.7,254.5 282.6,256 277.9,256.8L281.7,261.3L293,253.5Z" style="fill-rule:nonzero;"/>
    </g>
    <g transform="matrix(1,0,0,1,-243.8,-253.5)">
        <path d="M281.3,293.1L295.7,302.1L292.1,287.9L281.3,293.1Z" style="fill-rule:nonzero;"/>
    </g>
    <g transform="matrix(1,0,0,1,-243.8,-253.5)">
        <path d="M282.9,262.8L288.4,269.4L294.6,254.7L282.9,262.8Z" style="fill-rule:nonzero;"/>
    </g>
    <g transform="matrix(1,0,0,1,-243.8,-253.5)">
        <path d="M272.8,281.2L285.4,272.2L268,273.8L272.8,281.2Z" style="fill-rule:nonzero;"/>
    </g>
    <g transform="matrix(1,0,0,1,-243.8,-253.5)">
        <path d="M285.8,309L295.7,304L281.2,294.9L285.8,309Z" style="fill-rule:nonzero;"/>
    </g>
    <g transform="matrix(1,0,0,1,-243.8,-253.5)">
        <path d="M271.3,282.3L266.5,274.8L255.6,293.5L271.3,282.3Z" style="fill-rule:nonzero;"/>
    </g>
    <g transform="matrix(1,0,0,1,-243.8,-253.5)">
        <path d="M291.6,286.1L288.5,273.9L281.2,291.1L291.6,286.1Z" style="fill-rule:nonzero;"/>
    </g>
    <g transform="matrix(1,0,0,1,-243.8,-253.5)">
        <path d="M290.2,273L293.3,285.3L302.5,280.9L290.2,273Z" style="fill-rule:nonzero;"/>
    </g>
    <g transform="matrix(1,0,0,1,-243.8,-253.5)">
        <path d="M286.6,273.6L273.8,282.7L279.2,291L279.4,290.6L279.4,290.7L286.6,273.6Z" style="fill-rule:nonzero;"/>
    </g>
    <g transform="matrix(1,0,0,1,-243.8,-253.5)">
        <path d="M302.9,279.2L299.9,267.2L290.6,271.3L302.9,279.2Z" style="fill-rule:nonzero;"/>
    </g>
    <g transform="matrix(1,0,0,1,-243.8,-253.5)">
        <path d="M281.4,263.9L269.8,272L286.8,270.4L281.4,263.9Z" style="fill-rule:nonzero;"/>
    </g>
    <g transform="matrix(1,0,0,1,-243.8,-253.5)">
        <path d="M272.3,283.8L256.3,295.3L277.8,292.3L272.3,283.8Z" style="fill-rule:nonzero;"/>
    </g>
    <g transform="matrix(1,0,0,1,-243.8,-253.5)">
        <path d="M280.2,262.5L276.4,257.9L269.3,270.1L280.2,262.5Z" style="fill-rule:nonzero;"/>
    </g>
    <g transform="matrix(1,0,0,1,-243.8,-253.5)">
        <path d="M301.2,264.7L309,261.2L298.4,253.8L301.2,264.7Z" style="fill-rule:nonzero;"/>
    </g>
    <g transform="matrix(1,0,0,1,-243.8,-253.5)">
        <path d="M297.3,301.2L303.1,282.6L293.7,287.1L297.3,301.2Z" style="fill-rule:nonzero;"/>
    </g>
    <g transform="matrix(1,0,0,1,-243.8,-253.5)">
        <path d="M290.4,269.4L299.4,265.4L296.7,254.5L290.4,269.4Z" style="fill-rule:nonzero;"/>
    </g>
    <g transform="matrix(1,0,0,1,-243.8,-253.5)">
        <path d="M287.4,313.9L293.5,313.9L295.9,305.9L286.4,310.8L287.4,313.9Z" style="fill-rule:nonzero;"/>
    </g>
    <g transform="matrix(1,0,0,1,-243.8,-253.5)">
        <path d="M264,313.9L260.1,308.4L252.7,313.9L264,313.9Z" style="fill-rule:nonzero;"/>
    </g>
    <g transform="matrix(1,0,0,1,-243.8,-253.5)">
        <path d="M260.5,305.8L276.1,294.2L254.4,297.2L260.5,305.8Z" style="fill-rule:nonzero;"/>
    </g>
    <g transform="matrix(1,0,0,1,-243.8,-253.5)">
        <path d="M285.5,313.9L284.7,311.6L280.2,313.9L285.5,313.9Z" style="fill-rule:nonzero;"/>
    </g>
    <g transform="matrix(1,0,0,1,-243.8,-253.5)">
        <path d="M243.8,313.9L249.6,313.9L259,306.9L252.9,298.2L243.8,313.9Z" style="fill-rule:nonzero;"/>
    </g>
    <g transform="matrix(1,0,0,1,-243.8,-253.5)">
        <path d="M266.2,313.9L269.5,313.9L277.4,295.5L261.6,307.3L266.2,313.9Z" style="fill-rule:nonzero;"/>
    </g>
    <g transform="matrix(1,0,0,1,-243.8,-253.5)">
        <path d="M271.8,313.9L276.2,313.9L284.2,309.8L279.4,295.4L271.8,313.9Z" style="fill-rule:nonzero;"/>
    </g>
</svg>
