<?xml version="1.0" encoding="UTF-8" standalone="no"?>
<!DOCTYPE svg PUBLIC "-//W3C//DTD SVG 1.1//EN" "http://www.w3.org/Graphics/SVG/1.1/DTD/svg11.dtd">
<svg width="100%" height="100%" viewBox="0 0 25 36" version="1.1" xmlns="http://www.w3.org/2000/svg" xmlns:xlink="http://www.w3.org/1999/xlink" xml:space="preserve" xmlns:serif="http://www.serif.com/" style="fill-rule:evenodd;clip-rule:evenodd;stroke-linejoin:round;stroke-miterlimit:2;">
    <g transform="matrix(1,0,0,1,0.0002,-0.000299428)">
        <path d="M24,24.322C24,30.771 18.627,36 12,36C5.373,36 0,30.771 0,24.322C0,18.383 4.137,10.145 6.428,6.334C10.245,-0.018 13.031,0 13.031,0C13.031,0 12.227,3.615 15.094,9.214C17.698,14.301 24,18 24,24.322" style="fill:rgb(109,109,109);"/>
        <path d="M12.677,20.44C13.311,18.2 11.746,15.64 12.227,12.118C12.373,11.049 13.11,9.196 14.094,6.984C12.437,2.674 13.031,0 13.031,0C13.031,0 10.245,-0.018 6.428,6.334C4.137,10.145 -0,18.383 -0,24.322C-0,29.831 3.919,34.447 9.193,35.677C9.163,35.662 9.136,35.645 9.107,35.629C5.585,33.765 6.212,30.235 7.563,27.962C9.116,25.351 11.504,24.587 12.677,20.44" style="fill:rgb(109,109,109);"/>
        <path d="M7.577,13.454C8.404,17.659 8.759,21.895 8.759,21.895C8.759,21.895 10.809,14.196 11.29,10.674C11.437,9.595 12.546,8.368 14.094,7.121C13.4,5.354 13.084,3.855 12.954,2.696C7.242,6.94 6.413,7.541 7.577,13.454" style="fill:rgb(76,76,76);"/>
        <g transform="matrix(1,0,0,1,3,1)">
            <path d="M21,23.615C21,29.902 15.627,35 9,35C2.373,35 0.281,30.193 0.281,23.906C0.281,18.115 1.074,14.303 2.906,9.035C5.285,2.194 7.895,0.849 7.895,0.849C7.895,0.849 7.352,3.668 10.219,9.126C12.823,14.087 21,17 21,23.615" style="fill:rgb(90,90,90);"/>
        </g>
        <path d="M13.08,3.447C13.081,3.451 13.081,3.454 13.082,3.458C13.081,3.454 13.081,3.451 13.08,3.447M12.923,2.103C12.923,2.108 12.924,2.114 12.924,2.12C12.924,2.114 12.923,2.108 12.923,2.103M13.195,4.064C13.197,4.074 13.199,4.082 13.201,4.092C13.199,4.082 13.197,4.074 13.195,4.064M12.965,2.597L12.968,2.62L12.965,2.597ZM13,2.896C12.999,2.887 12.997,2.877 12.996,2.868C12.997,2.877 12.999,2.887 13,2.896M13.036,3.161L13.036,3.165L13.036,3.161ZM13.132,3.741C13.134,3.752 13.136,3.763 13.138,3.774C13.136,3.763 13.134,3.752 13.132,3.741M13.906,6.566L13.924,6.613L13.906,6.566ZM13.769,6.168C13.774,6.185 13.78,6.201 13.786,6.217C13.78,6.201 13.774,6.185 13.769,6.168M13.344,4.719C13.347,4.73 13.35,4.74 13.352,4.751C13.35,4.74 13.347,4.73 13.344,4.719M12.897,1.265L12.897,1.247L12.897,1.265ZM13.65,5.807C13.651,5.811 13.653,5.816 13.654,5.82C13.653,5.816 13.651,5.811 13.65,5.807M13.539,5.44C13.541,5.447 13.543,5.454 13.545,5.461C13.543,5.454 13.541,5.447 13.539,5.44M13.435,5.068L13.447,5.11L13.435,5.068ZM12.994,0.028C12.994,0.03 12.993,0.031 12.993,0.034C12.993,0.032 12.994,0.029 12.994,0.028M12.968,0.186C12.968,0.189 12.967,0.193 12.967,0.196C12.967,0.193 12.968,0.189 12.968,0.186M12.977,0.121L12.977,0.124L12.977,0.121ZM12.986,0.068L12.986,0.072L12.986,0.068ZM17.251,13.648C17.295,13.264 17.336,12.923 17.377,12.617C16.488,11.525 15.674,10.408 15.063,9.214C14.661,8.431 14.332,7.686 14.063,6.984C13.078,9.197 12.342,11.049 12.195,12.119C11.715,15.64 13.279,18.2 12.646,20.44C11.473,24.588 9.085,25.352 7.531,27.963C6.18,30.235 5.554,33.766 9.074,35.63C9.104,35.646 9.131,35.661 9.159,35.677C9.756,35.816 10.369,35.913 10.997,35.962C14.363,35.552 17.242,33.426 18.026,30.161C19.551,23.815 16.791,17.737 17.251,13.648M12.998,0.006L12.998,0.008L12.998,0.006ZM12.899,1.063L12.899,1.081L12.899,1.063ZM12.909,1.863C12.909,1.871 12.91,1.879 12.91,1.887C12.91,1.879 12.909,1.871 12.909,1.863M12.9,1.648C12.901,1.652 12.901,1.656 12.901,1.66C12.901,1.656 12.901,1.652 12.9,1.648M12.913,0.749C12.912,0.751 12.912,0.754 12.912,0.758C12.912,0.754 12.912,0.751 12.913,0.749M12.923,0.604C12.922,0.609 12.922,0.615 12.922,0.62C12.922,0.615 12.922,0.609 12.923,0.604M12.956,0.271C12.956,0.274 12.956,0.278 12.955,0.281C12.956,0.278 12.956,0.274 12.956,0.271M12.934,0.479C12.934,0.482 12.933,0.485 12.933,0.488C12.933,0.485 12.934,0.482 12.934,0.479" style="fill:rgb(69,69,69);"/>
        <path d="M12.136,29.49C10.413,29.49 8.875,29.384 7.503,29.179C6.447,31.79 7.659,35.189 10.301,35.189C13.127,35.189 16.732,32.813 17.069,29.061C17.07,29.048 17.07,29.035 17.071,29.022C15.6,29.33 13.953,29.49 12.136,29.49" style="fill:rgb(109,109,109);"/>
        <path d="M12.677,20.44C13.311,18.2 11.746,15.64 12.227,12.118C12.309,11.517 12.578,10.668 12.973,9.647C10.384,4.502 10.895,1.849 10.895,1.849C10.895,1.849 8.285,3.194 5.906,10.035C4.074,15.303 3.281,19.115 3.281,24.906C3.281,30.165 4.745,34.387 9.103,35.628C5.586,33.762 6.212,30.234 7.563,27.962C9.116,25.351 11.504,24.587 12.677,20.44" style="fill:rgb(49,49,49);"/>
        <path d="M11.018,4.148C7.065,7.177 6.56,8.288 7.578,13.454C8.405,17.659 8.759,21.896 8.759,21.896C8.759,21.896 10.81,14.196 11.29,10.674C11.378,10.028 11.811,9.33 12.475,8.606C11.628,6.736 11.213,5.247 11.018,4.148" style="fill:rgb(41,41,41);"/>
        <path d="M3.281,24.906C3.281,22.366 3.433,20.207 3.76,18.138C3.328,16.565 3.121,14.774 3.063,12.855C1.424,16.563 0,20.838 0,24.322C0,24.734 0.022,25.141 0.065,25.542C0.918,26.56 2.043,27.392 3.482,28.026C3.344,27.042 3.281,25.996 3.281,24.906" style="fill:rgb(69,69,69);"/>
        <path d="M23.949,25.393C23.976,25.099 23.993,24.802 23.998,24.502C23.996,24.395 23.993,24.289 23.987,24.185L23.987,24.184C23.981,24.08 23.973,23.976 23.964,23.873C23.964,23.873 23.964,23.872 23.963,23.872C23.954,23.77 23.941,23.668 23.928,23.568L23.928,23.566C23.652,21.543 22.594,19.878 21.222,18.374C21.22,18.371 21.217,18.369 21.215,18.366C21.149,18.294 21.084,18.224 21.017,18.153C21.011,18.146 21.006,18.14 20.999,18.134C20.936,18.067 20.873,18 20.808,17.934C20.8,17.925 20.791,17.916 20.783,17.908C20.72,17.844 20.658,17.78 20.595,17.716C20.585,17.706 20.574,17.696 20.564,17.685C20.502,17.623 20.439,17.561 20.377,17.5C20.366,17.489 20.354,17.478 20.344,17.467C20.281,17.406 20.219,17.345 20.155,17.285C20.143,17.274 20.133,17.263 20.121,17.252C20.057,17.191 19.994,17.13 19.929,17.07C19.919,17.06 19.907,17.05 19.896,17.039C19.831,16.977 19.765,16.916 19.699,16.855C19.69,16.847 19.68,16.838 19.672,16.83C19.602,16.766 19.533,16.702 19.463,16.638C19.457,16.633 19.452,16.628 19.446,16.623C19.371,16.555 19.296,16.487 19.22,16.419C22.091,22.368 18.083,24.451 11.859,24.451C7.139,24.451 4.798,21.926 3.76,18.139C3.433,20.207 3.281,22.367 3.281,24.907C3.281,25.997 3.345,27.042 3.482,28.027C5.662,28.986 8.564,29.491 12.348,29.491C17.829,29.491 21.777,28.048 23.949,25.393" style="fill:rgb(37,37,37);"/>
        <path d="M5.229,12.119C4.559,14.248 4.076,16.194 3.76,18.23C5.747,26.083 11.838,32.786 18.895,33.944C20.104,33.139 21.15,32.128 21.976,30.965C14.591,29.343 7.348,20.7 5.229,12.119" style="fill:rgb(41,41,41);"/>
        <path d="M5.229,12.119C4.559,14.248 4.076,16.194 3.76,18.23C4.586,21.495 6.122,24.561 8.142,27.113C9.091,25.871 10.221,25.003 11.188,23.634C8.4,20.288 6.236,16.197 5.229,12.119" style="fill:rgb(35,35,35);"/>
        <path d="M12.349,29.49C14.593,29.49 16.58,29.248 18.294,28.779C18.583,26.844 18.52,24.944 18.32,23.133C16.834,24.058 14.555,24.45 11.86,24.45C11.411,24.45 10.984,24.427 10.578,24.382C9.541,25.611 8.405,26.496 7.532,27.963C7.329,28.303 7.144,28.672 6.986,29.058C8.536,29.343 10.314,29.49 12.349,29.49" style="fill:rgb(26,26,26);"/>
        <path d="M11.892,24.45L11.873,24.45C7.156,24.45 4.814,21.927 3.775,18.141C3.77,18.169 3.765,18.197 3.761,18.225C3.76,18.227 3.76,18.228 3.76,18.23C4.856,22.56 7.199,26.539 10.264,29.432C10.931,29.471 11.63,29.49 12.363,29.49C14.178,29.49 15.825,29.331 17.294,29.022C15.372,27.855 13.538,26.284 11.892,24.45" style="fill:rgb(19,19,19);"/>
    </g>
</svg>
