<?xml version="1.0" encoding="UTF-8" standalone="no"?>
<svg width="256px" height="299px" viewBox="0 0 256 299" version="1.1" xmlns="http://www.w3.org/2000/svg" xmlns:xlink="http://www.w3.org/1999/xlink" preserveAspectRatio="xMidYMid">
	<g>
		<g transform="translate(7.000000, 191.000000)">
			<path d="M181.222,0.804 L181.222,0.814 L121.078,36.539 L121,36.492 L121,36.488 L60.782,0.814 L0.56,36.488 L121,107.842 L241.444,36.488 L181.222,0.804" fill="rgb(255,177,115)"></path>
			<path d="M121,36.488 L181.218,72.158 L121,107.842 L121,36.488" fill="rgb(255,190,137)"></path>
			<path d="M60.782,0.814 L60.782,72.158 L0.56,36.488 L60.782,0.814" fill="rgb(255,212,177)"></path>
			<path d="M121,36.488 L121,107.842 L60.782,72.158 L121,36.488" fill="rgb(255,199,153)"></path>
			<path d="M181.222,72.158 L181.222,0.814 L121,36.488 L181.222,72.158" fill="rgb(255,185,129)"></path>
			<path d="M60.782,72.158 L121.078,36.539 L60.782,0.814 L60.782,72.158" fill="rgb(255,205,165)"></path>
		</g>
		<g transform="translate(135.000000, 0.000000)">
			<path d="M121,71.354 L120.993,71.35 L120.993,71.347 L120.99,71.349 L0.553,0 L0.553,71.347 L60.775,107.028 L60.775,178.386 L120.993,214.056 L120.993,71.359 L121,71.354" fill="rgb(234,104,0)"></path>
			<path d="M60.775,107.028 L120.993,142.702 L120.993,71.347 L60.775,107.028" fill="rgb(255,148,61)"></path>
			<path d="M60.775,107.028 L60.771,35.674 L121,71.354 L60.775,107.028" fill="rgb(255,130,29)"></path>
			<path d="M60.775,178.386 L120.993,214.056 L120.993,142.702 L60.775,178.386" fill="rgb(255,208,171)"></path>
			<path d="M120.993,142.702 L60.775,178.386 L60.775,107.028 L120.993,142.702" fill="rgb(255,174,109)"></path>
			<path d="M60.771,35.674 L0.553,71.347 L60.775,107.028 L60.771,35.674" fill="rgb(236,105,0)"></path>
		</g>
		<g>
			<path d="M0.008,71.35 L0.004,71.347 L0.004,71.352 L0,71.354 L0.004,71.356 L0.004,214.056 L60.222,178.386 L60.222,107.028 L120.447,71.347 L120.447,0 L0.008,71.35" fill="rgb(252,112,0)"></path>
			<path d="M60.222,107.028 L0.004,142.712 L0.004,71.347 L60.222,107.028" fill="rgb(255,135,39)"></path>
			<path d="M120.447,71.347 L60.225,35.674 L120.447,0 L120.447,71.347" fill="rgb(255,192,141)"></path>
			<path d="M60.222,107.028 L0,71.354 L60.225,35.674 L60.222,107.028" fill="rgb(255,146,59)"></path>
			<path d="M0.004,142.712 L60.222,178.386 L60.222,107.028 L0.004,142.712" fill="rgb(255,124,19)"></path>
			<path d="M60.225,35.674 L60.222,107.028 L120.447,71.347 L60.225,35.674" fill="rgb(255,161,85)"></path>
		</g>
	</g>
</svg>