<?xml version="1.0" encoding="UTF-8"?>

<svg xmlns="http://www.w3.org/2000/svg"
  preserveAspectRatio="xMidYMin" width="20" height="20" viewBox="0 0 24 24" fill="rgb(64,64,64)"
     style="vertical-align:middle" aria-hidden="true" class="css-101apn4">
  <path fill-rule="evenodd" clip-rule="evenodd"
        d="M15.9375 1.04363C15.7914 0.644422 15.2086 0.644422 15.0625 1.04363L14.058 3.78793C14.0093 3.92086 13.8991 4.02397 13.7603 4.06645L11.3244 4.8118C10.8925 4.94397 10.8917 5.53577 11.3233 5.66901L13.7612 6.42166C13.8995 6.46437 14.0092 6.56729 14.0577 6.69983L15.0625 9.44482C15.2086 9.84402 15.7914 9.84402 15.9375 9.44482L16.9421 6.70017C16.9907 6.56744 17.1007 6.46442 17.2393 6.42183L19.6762 5.67283C20.1079 5.54012 20.1079 4.94832 19.6762 4.81562L17.2393 4.06662C17.1007 4.02402 16.9907 3.92101 16.9421 3.78827L15.9375 1.04363Z"></path>
  <path
    d="M6.76405 19.3341C6.88427 19.0336 7.2583 18.9172 7.54217 19.0727C8.34775 19.5142 9.98458 20.2443 12 20.2443C14.0154 20.2443 15.6522 19.5142 16.4578 19.0727C16.7417 18.9172 17.1157 19.0336 17.236 19.3341L18.4514 21.8728C18.7142 22.5297 18.2304 23.2442 17.523 23.2442H6.47703C5.76957 23.2442 5.28581 22.5297 5.54856 21.8728L6.76405 19.3341Z"></path>
  <path fill-rule="evenodd" clip-rule="evenodd"
        d="M10.8141 1.05266C10.9232 1.45225 10.6877 1.86462 10.2881 1.97371C9.24513 2.25845 8.28967 2.79883 7.50822 3.54593C6.72677 4.29303 6.14402 5.22325 5.81272 6.25236C5.48142 7.28147 5.41204 8.37696 5.61087 9.43964C5.8097 10.5023 6.27046 11.4986 6.95142 12.3383C7.63238 13.1781 8.51203 13.8347 9.51073 14.2487C10.5094 14.6627 11.5956 14.8211 12.671 14.7095C13.7463 14.5979 14.7768 14.2198 15.6692 13.6095C16.5616 12.9993 17.2877 12.176 17.7817 11.2144C17.971 10.8459 18.4231 10.7007 18.7916 10.8899C19.16 11.0792 19.3052 11.5313 19.116 11.8998C18.508 13.0833 17.6143 14.0966 16.516 14.8477C15.4177 15.5988 14.1493 16.0641 12.8258 16.2015C11.5023 16.3388 10.1655 16.1439 8.93628 15.6343C7.70712 15.1248 6.62446 14.3166 5.78636 13.2831C4.94825 12.2496 4.38117 11.0234 4.13646 9.71551C3.89174 8.40759 3.97713 7.05929 4.38488 5.7927C4.79263 4.5261 5.50988 3.38122 6.47166 2.46171C7.43344 1.5422 8.60939 0.877113 9.89303 0.526667C10.2926 0.417575 10.705 0.65307 10.8141 1.05266Z"></path>
</svg>
