<?xml version="1.0" encoding="UTF-8" standalone="no"?>
<!DOCTYPE svg PUBLIC "-//W3C//DTD SVG 1.1//EN" "http://www.w3.org/Graphics/SVG/1.1/DTD/svg11.dtd">
<svg width="100%" height="100%" viewBox="0 0 14 19" version="1.1" xmlns="http://www.w3.org/2000/svg" xmlns:xlink="http://www.w3.org/1999/xlink" xml:space="preserve" xmlns:serif="http://www.serif.com/" style="fill-rule:evenodd;clip-rule:evenodd;stroke-linejoin:round;stroke-miterlimit:2;">
    <g transform="matrix(1,0,0,1,-3.33333,-0.416666)">
        <path d="M13.281,0.87C13.16,0.537 12.674,0.537 12.552,0.87L11.715,3.157C11.674,3.267 11.583,3.353 11.467,3.389L9.437,4.01C9.077,4.12 9.076,4.613 9.436,4.724L11.468,5.351C11.583,5.387 11.674,5.473 11.715,5.583L12.552,7.871C12.674,8.203 13.16,8.203 13.281,7.871L14.118,5.583C14.159,5.473 14.251,5.387 14.366,5.352L16.397,4.727C16.757,4.617 16.757,4.124 16.397,4.013L14.366,3.389C14.251,3.353 14.159,3.268 14.118,3.157L13.281,0.87Z" style="fill:rgb(64,64,64);"/>
    </g>
    <g transform="matrix(1,0,0,1,-3.33333,-0.416666)">
        <path d="M5.637,16.112C5.737,15.861 6.049,15.764 6.285,15.894C6.956,16.262 8.32,16.87 10,16.87C11.68,16.87 13.044,16.262 13.715,15.894C13.951,15.764 14.263,15.861 14.363,16.112L15.376,18.227C15.595,18.775 15.192,19.37 14.603,19.37L5.398,19.37C4.808,19.37 4.405,18.775 4.624,18.227L5.637,16.112Z" style="fill:rgb(64,64,64);fill-rule:nonzero;"/>
    </g>
    <g transform="matrix(1,0,0,1,-3.33333,-0.416666)">
        <path d="M9.012,0.877C9.103,1.21 8.906,1.554 8.573,1.645C7.704,1.882 6.908,2.332 6.257,2.955C5.606,3.578 5.12,4.353 4.844,5.21C4.568,6.068 4.51,6.981 4.676,7.866C4.841,8.752 5.225,9.582 5.793,10.282C6.36,10.982 7.093,11.529 7.926,11.874C8.758,12.219 9.663,12.351 10.559,12.258C11.455,12.165 12.314,11.85 13.058,11.341C13.801,10.833 14.406,10.147 14.818,9.345C14.976,9.038 15.353,8.917 15.66,9.075C15.967,9.233 16.088,9.609 15.93,9.917C15.423,10.903 14.679,11.747 13.763,12.373C12.848,12.999 11.791,13.387 10.688,13.501C9.585,13.616 8.471,13.453 7.447,13.029C6.423,12.604 5.52,11.931 4.822,11.069C4.124,10.208 3.651,9.186 3.447,8.096C3.243,7.006 3.314,5.883 3.654,4.827C3.994,3.772 4.592,2.818 5.393,2.051C6.195,1.285 7.174,0.731 8.244,0.439C8.577,0.348 8.921,0.544 9.012,0.877Z" style="fill:rgb(64,64,64);"/>
    </g>
</svg>
