<?xml version="1.0" encoding="UTF-8" standalone="no"?>
<!DOCTYPE svg PUBLIC "-//W3C//DTD SVG 1.1//EN" "http://www.w3.org/Graphics/SVG/1.1/DTD/svg11.dtd">
<svg width="100%" height="100%" viewBox="0 0 119 119" version="1.1" xmlns="http://www.w3.org/2000/svg" xmlns:xlink="http://www.w3.org/1999/xlink" xml:space="preserve" xmlns:serif="http://www.serif.com/" style="fill-rule:evenodd;clip-rule:evenodd;stroke-linejoin:round;stroke-miterlimit:2;">
    <path id="path863" d="M84.63,5.647C77.209,2.144 68.384,0 60.004,0C34.71,0 19.58,20.935 21.208,41.399C21.946,50.655 26.491,59.611 34.006,66.614C36.698,69.136 39.707,71.298 42.956,73.044C40.498,70.115 38.873,66.578 38.255,62.805C36.573,52.52 43.365,37.392 60.71,37.392C79.365,37.392 99.903,55.127 101.639,76.934C102.701,90.275 97.644,102.284 89.094,110.674C106.777,100.403 118.668,81.258 118.668,59.334C118.668,35.612 104.748,15.142 84.63,5.647Z" style="fill:rgb(64,64,64);fill-rule:nonzero;"/>
    <path id="path865" d="M97.46,77.269C96.722,68.013 92.177,59.057 84.662,52.054C81.97,49.532 78.961,47.37 75.712,45.624C78.17,48.552 79.794,52.09 80.413,55.863C82.094,66.147 75.303,81.276 57.957,81.276C39.303,81.276 18.765,63.541 17.029,41.732C15.967,28.391 21.024,16.382 29.574,7.992C11.891,18.265 0,37.41 0,59.334C0,83.056 13.92,103.526 34.038,113.021C41.459,116.524 50.284,118.668 58.663,118.668C83.958,118.668 99.088,97.733 97.46,77.269Z" style="fill:rgb(64,64,64);fill-rule:nonzero;"/>
</svg>
