<?xml version="1.0" encoding="UTF-8" standalone="no"?>
<!DOCTYPE svg PUBLIC "-//W3C//DTD SVG 1.1//EN" "http://www.w3.org/Graphics/SVG/1.1/DTD/svg11.dtd">
<svg xmlns="http://www.w3.org/2000/svg" version="1.1" viewBox="0.00 0.00 280.00 280.00">
<path fill="rgb(13,13,13)" d="
  M 134.02 0.00
  L 146.07 0.00
  C 152.15 0.47 158.73 0.70 164.64 2.13
  C 171.86 3.87 179.04 5.41 186.11 7.66
  C 187.29 8.03 188.13 8.79 189.20 9.16
  Q 194.17 10.86 199.00 12.94
  C 201.46 14.00 203.96 15.71 206.56 16.96
  C 211.47 19.31 215.36 22.10 219.80 24.82
  C 221.53 25.88 222.85 27.45 224.68 28.65
  C 227.93 30.77 230.14 33.02 232.97 35.28
  C 234.26 36.31 235.20 37.70 236.52 38.83
  Q 238.79 40.77 239.33 41.34
  Q 245.69 48.01 249.92 53.08
  C 251.30 54.74 252.02 56.51 253.76 58.29
  C 255.46 60.04 256.53 62.59 257.67 64.29
  C 262.70 71.78 268.15 82.19 270.78 90.78
  C 271.08 91.78 271.95 92.53 272.26 93.49
  C 274.53 100.45 276.13 108.07 277.88 115.44
  C 279.30 121.40 279.52 127.93 280.00 134.05
  L 280.00 146.10
  C 279.52 153.26 278.99 160.20 277.19 167.31
  C 276.04 171.86 275.24 176.62 273.87 181.00
  C 273.08 183.52 272.74 185.66 271.38 188.01
  Q 270.88 188.88 270.67 189.55
  C 268.55 196.57 265.05 203.20 261.56 209.63
  Q 260.55 211.48 258.45 214.52
  C 256.79 216.91 255.72 219.44 253.75 221.65
  Q 252.51 223.04 251.45 224.58
  C 249.19 227.86 247.00 230.10 244.73 232.96
  C 243.69 234.26 242.30 235.20 241.18 236.52
  Q 239.30 238.73 238.66 239.33
  Q 234.15 243.57 229.53 247.69
  C 227.11 249.85 224.09 251.69 221.45 253.93
  C 219.38 255.69 217.00 256.66 214.93 258.16
  C 210.40 261.46 205.79 262.95 201.48 265.93
  Q 199.19 267.51 188.93 270.92
  C 188.01 271.22 187.07 272.09 185.90 272.46
  C 178.89 274.63 171.87 276.14 164.59 277.87
  C 158.64 279.29 152.10 279.52 145.98 280.00
  L 133.89 280.00
  C 126.60 279.52 119.66 278.94 112.36 277.12
  C 105.99 275.53 97.73 274.54 91.99 271.38
  Q 91.11 270.90 90.45 270.69
  C 83.47 268.50 77.41 265.19 70.98 261.84
  Q 68.02 260.30 64.64 257.84
  C 62.78 256.47 60.35 255.55 58.17 253.58
  C 56.10 251.74 53.67 250.50 51.71 248.73
  Q 49.24 246.48 46.62 244.37
  C 45.52 243.49 44.80 242.24 43.65 241.31
  Q 41.64 239.67 41.25 239.26
  Q 36.13 233.90 31.25 228.31
  C 29.72 226.56 28.51 224.32 26.92 222.44
  Q 25.00 220.16 23.77 218.03
  C 22.22 215.34 20.19 212.88 18.84 210.27
  C 16.21 205.21 13.35 200.31 11.26 194.97
  Q 9.98 191.72 8.64 188.49
  C 5.80 181.62 4.61 174.46 2.81 167.31
  C 1.01 160.16 0.47 153.17 0.00 145.97
  L 0.00 133.89
  Q 0.38 128.20 1.02 122.56
  C 1.83 115.44 3.98 107.93 5.58 100.63
  C 6.51 96.40 8.65 91.90 9.91 88.57
  C 12.93 80.53 17.58 71.29 22.32 64.29
  C 23.50 62.55 24.55 60.04 26.26 58.25
  C 28.07 56.36 28.93 54.43 30.56 52.54
  Q 35.57 46.70 40.87 41.13
  Q 41.35 40.62 43.53 38.79
  C 44.79 37.73 45.63 36.41 46.85 35.43
  C 49.83 33.04 52.15 30.79 55.62 28.42
  C 57.70 27.00 59.04 25.34 61.29 24.15
  C 63.99 22.73 66.48 20.62 68.90 19.32
  Q 74.23 16.44 79.61 13.68
  C 83.21 11.82 87.02 10.52 90.82 9.15
  C 91.88 8.77 92.70 8.04 93.88 7.66
  Q 101.15 5.35 108.61 3.76
  C 111.93 3.05 117.58 1.38 122.24 0.95
  Q 128.11 0.42 134.02 0.00
  Z"
/>
<path fill="rgb(115,115,115)" d="
  M 171.89 59.53
  C 174.35 60.80 175.92 62.54 178.61 64.13
  C 180.45 65.21 181.89 67.48 183.51 68.97
  C 185.81 71.07 187.00 73.43 188.87 75.88
  C 191.91 79.88 193.99 85.02 195.64 89.74
  Q 198.48 97.85 199.43 106.37
  A 0.45 0.45 0.0 0 1 198.98 106.87
  L 178.74 106.88
  Q 178.15 106.88 177.98 106.31
  C 176.48 101.28 175.51 96.21 173.76 91.42
  C 172.93 89.16 171.37 87.23 170.22 85.07
  C 168.61 82.03 166.56 80.17 164.19 77.89
  C 161.65 75.45 155.88 72.12 152.37 71.28
  C 145.08 69.56 134.57 69.08 127.83 72.90
  C 126.09 73.89 124.05 74.51 122.53 75.62
  C 116.36 80.11 112.37 85.52 109.44 92.66
  C 108.10 95.94 106.60 99.18 105.81 102.57
  Q 103.40 112.87 103.12 121.92
  Q 102.50 142.20 103.12 158.30
  C 103.43 166.45 104.62 176.21 107.95 184.07
  C 109.15 186.89 110.12 190.03 111.57 192.54
  C 114.66 197.90 119.51 203.77 124.30 205.94
  C 127.32 207.31 128.81 208.81 132.21 209.51
  C 140.12 211.12 150.86 211.02 158.02 206.93
  C 160.11 205.74 162.20 204.87 163.99 203.29
  C 168.42 199.36 169.70 196.65 172.32 192.62
  C 175.53 187.68 176.45 180.52 177.95 174.88
  Q 178.11 174.29 178.72 174.29
  L 198.97 174.29
  Q 199.43 174.29 199.37 174.74
  Q 198.50 182.59 196.05 190.06
  C 195.75 190.95 195.15 191.77 194.78 192.74
  C 191.95 200.23 187.77 206.90 182.74 211.96
  C 177.20 217.56 172.32 220.50 165.03 223.71
  C 153.42 228.80 139.31 229.03 127.09 226.46
  C 122.04 225.40 117.30 222.75 112.51 220.51
  C 110.59 219.61 109.24 218.03 107.70 217.00
  C 102.74 213.69 99.98 209.95 96.56 205.71
  Q 95.05 203.84 94.34 202.51
  C 92.25 198.63 89.77 194.84 88.21 190.79
  C 86.70 186.83 85.93 183.68 84.81 180.39
  C 82.02 172.22 81.07 161.85 81.03 154.25
  C 80.90 132.73 79.54 115.83 85.45 98.02
  C 88.36 89.25 91.59 80.76 97.47 73.56
  C 101.40 68.75 104.62 65.45 109.60 61.84
  C 113.31 59.15 117.39 57.52 121.74 55.61
  C 132.84 50.76 149.18 51.73 160.69 54.68
  Q 161.41 54.87 162.28 55.30
  C 165.46 56.87 168.77 57.92 171.89 59.53
  Z"
/>
</svg>
