<?xml version="1.0" encoding="UTF-8" standalone="no"?>
<!DOCTYPE svg PUBLIC "-//W3C//DTD SVG 1.1//EN" "http://www.w3.org/Graphics/SVG/1.1/DTD/svg11.dtd">
<svg width="100%" height="100%" viewBox="0 0 24 14" version="1.1" xmlns="http://www.w3.org/2000/svg" xmlns:xlink="http://www.w3.org/1999/xlink" xml:space="preserve" xmlns:serif="http://www.serif.com/" style="fill-rule:evenodd;clip-rule:evenodd;stroke-linejoin:round;stroke-miterlimit:2;">
    <g transform="matrix(1,0,0,1,-0.178983,-5.0655)">
        <path d="M4.54,9.46L2.19,7.1C-0.491,9.787 -0.491,14.203 2.19,16.89L4.55,14.53C3.159,13.141 3.155,10.855 4.54,9.46Z" style="fill:rgb(38,38,38);fill-rule:nonzero;"/>
    </g>
    <g transform="matrix(1,0,0,1,-0.178983,-5.0655)">
        <path d="M2.19,7.1L4.54,9.46C5.213,8.786 6.128,8.407 7.08,8.407C8.032,8.407 8.947,8.786 9.62,9.46L11.33,6.53L11.23,6.45C8.485,4.402 4.614,4.681 2.19,7.1Z" style="fill:rgb(90,90,90);fill-rule:nonzero;"/>
    </g>
    <g transform="matrix(1,0,0,1,-0.178983,-5.0655)">
        <path d="M11.34,17.46L9.62,14.54C8.947,15.214 8.032,15.593 7.08,15.593C6.128,15.593 5.213,15.214 4.54,14.54L2.19,16.9C4.608,19.297 8.453,19.575 11.19,17.55L11.3,17.46" style="fill:rgb(90,90,90);fill-rule:nonzero;"/>
    </g>
    <g transform="matrix(1,0,0,1,-0.178983,-5.0655)">
        <path d="M12,7.1C9.319,9.787 9.319,14.203 12,16.89L14.36,14.53C13.687,13.857 13.308,12.942 13.308,11.99C13.308,10.019 14.929,8.398 16.9,8.398C17.852,8.398 18.767,8.777 19.44,9.45L21.81,7.1C20.51,5.798 18.745,5.065 16.905,5.065C15.065,5.065 13.3,5.798 12,7.1Z" style="fill:rgb(90,90,90);fill-rule:nonzero;"/>
    </g>
    <g transform="matrix(1,0,0,1,-0.178983,-5.0655)">
        <path d="M21.81,7.1L19.46,9.46C20.133,10.133 20.512,11.048 20.512,12C20.512,13.971 18.891,15.592 16.92,15.592C15.968,15.592 15.053,15.213 14.38,14.54L12,16.9C13.3,18.201 15.066,18.933 16.905,18.933C20.708,18.933 23.838,15.803 23.838,12C23.838,10.163 23.108,8.4 21.81,7.1Z" style="fill:rgb(38,38,38);fill-rule:nonzero;"/>
    </g>
</svg>
