<?xml version="1.0" encoding="UTF-8" standalone="no"?>
<!DOCTYPE svg PUBLIC "-//W3C//DTD SVG 1.1//EN" "http://www.w3.org/Graphics/SVG/1.1/DTD/svg11.dtd">
<svg width="100%" height="100%" viewBox="0 0 2248 3222" version="1.1" xmlns="http://www.w3.org/2000/svg" xmlns:xlink="http://www.w3.org/1999/xlink" xml:space="preserve" xmlns:serif="http://www.serif.com/" style="fill-rule:evenodd;clip-rule:evenodd;stroke-linejoin:round;stroke-miterlimit:2;">
    <g transform="matrix(8.77917,0,0,8.77917,0,0)">
        <path d="M70.585,271.865C81.2,285.391 90.86,299.64 99.496,314.507C106.87,328.489 109.944,337.97 115.333,354.817C118.638,364.125 121.625,366.903 128.047,366.903C135.045,366.903 138.22,362.177 140.673,354.868C145.767,338.959 149.764,326.816 156.07,315.343C168.444,293.193 183.819,273.51 198.928,254.592C203.019,249.239 229.462,218.048 241.367,193.437C241.367,193.437 255.999,166.402 255.999,128.645C255.999,93.327 241.569,68.832 241.569,68.832L200.024,79.958L174.793,146.409L168.552,155.572L167.304,157.232L165.644,159.31L162.73,162.629L158.566,166.792L136.099,185.096L79.929,217.528L70.585,271.865Z" style="fill:rgb(40,40,40);fill-rule:nonzero;"/>
    </g>
    <g transform="matrix(8.77917,0,0,8.77917,0,0)">
        <path d="M12.612,188.892C26.321,220.205 52.757,247.731 70.643,271.887L165.644,159.353C165.644,159.353 152.26,176.857 127.982,176.857C100.939,176.857 79.092,155.262 79.092,128.032C79.092,109.359 90.326,96.531 90.326,96.531L25.837,113.811L12.612,188.892Z" style="fill:rgb(115,115,115);fill-rule:nonzero;"/>
    </g>
    <g transform="matrix(8.77917,0,0,8.77917,0,0)">
        <path d="M166.705,5.787C198.257,15.96 225.263,37.317 241.598,68.81L165.673,159.288C165.673,159.288 176.907,146.229 176.907,127.671C176.907,99.807 153.444,78.991 128.097,78.991C104.128,78.991 90.362,96.466 90.362,96.466L90.362,39.467L166.705,5.787Z" style="fill:rgb(41,41,41);fill-rule:nonzero;"/>
    </g>
    <g transform="matrix(8.77917,0,0,8.77917,0,0)">
        <path d="M30.015,45.765C48.861,23.218 82.021,0 127.736,0C149.916,0 166.626,5.823 166.626,5.823L90.29,96.516L36.205,96.516L30.015,45.765Z" style="fill:rgb(13,13,13);fill-rule:nonzero;"/>
    </g>
    <g transform="matrix(8.77917,0,0,8.77917,0,0)">
        <path d="M12.612,188.892C12.612,188.892 0,164.194 0,128.414C0,94.597 13.146,65.037 30.015,45.765L90.333,96.524L12.612,188.892Z" style="fill:rgb(31,31,31);fill-rule:nonzero;"/>
    </g>
</svg>
