<?xml version="1.0" encoding="UTF-8" standalone="no"?>
<!DOCTYPE svg PUBLIC "-//W3C//DTD SVG 1.1//EN" "http://www.w3.org/Graphics/SVG/1.1/DTD/svg11.dtd">
<svg width="100%" height="100%" viewBox="0 0 3980 3981" version="1.1" xmlns="http://www.w3.org/2000/svg" xmlns:xlink="http://www.w3.org/1999/xlink" xml:space="preserve" xmlns:serif="http://www.serif.com/" style="fill-rule:evenodd;clip-rule:evenodd;stroke-linejoin:round;stroke-miterlimit:2;">
    <g transform="matrix(66.3333,0,0,66.3333,0,0)">
        <path d="M9.569,30C9.565,26.851 10.291,23.756 11.676,20.953C12.09,20.113 12.298,19.694 12.256,19.42C12.217,19.164 12.1,18.975 11.888,18.828C11.661,18.669 11.226,18.669 10.355,18.669L1.412,18.669C0.918,18.669 0.671,18.669 0.482,18.765C0.316,18.85 0.181,18.985 0.096,19.151C0,19.34 0,19.587 0,20.081L0,58.168C-0,58.409 0.048,58.648 0.14,58.871C0.233,59.094 0.369,59.297 0.54,59.467C0.711,59.637 0.914,59.772 1.138,59.863C1.361,59.955 1.601,60.001 1.842,60L58.168,60C58.654,60 59.12,59.807 59.463,59.463C59.807,59.12 60,58.654 60,58.168L60,51.843C60,51.349 60,51.102 59.904,50.913C59.819,50.747 59.684,50.612 59.518,50.528C59.329,50.432 59.082,50.432 58.588,50.432L30,50.432C24.581,50.432 19.384,48.279 15.553,44.447C11.721,40.616 9.569,35.419 9.569,30Z" style="fill:rgb(64,64,64);fill-rule:nonzero;"/>
    </g>
    <g transform="matrix(66.3333,0,0,66.3333,0,0)">
        <path d="M39.15,30.866C41.103,30.65 43.021,30.185 44.856,29.482L44.856,29.413C45.398,29.245 45.985,29.292 46.493,29.545C47.002,29.799 47.393,30.238 47.587,30.772C47.78,31.306 47.761,31.894 47.532,32.414C47.303,32.934 46.883,33.346 46.359,33.565C43.688,34.617 40.855,35.2 37.985,35.287L37.478,35.287C36.965,36 36.355,36.637 35.665,37.179C36.84,38.331 38.139,39.35 39.539,40.216C40.032,40.529 40.382,41.025 40.51,41.595C40.638,42.166 40.534,42.764 40.221,43.258C39.908,43.751 39.411,44.101 38.841,44.228C38.271,44.356 37.673,44.253 37.179,43.94C35.009,42.616 33.06,40.959 31.404,39.031C30.939,39.099 30.47,39.133 30,39.13L29.104,39.13C29.174,39.864 29.294,40.593 29.462,41.311C29.602,41.938 29.781,42.595 30,43.302C30.113,43.71 30.243,44.071 30.382,44.456C30.427,44.58 30.472,44.705 30.518,44.836C30.662,45.23 30.69,45.657 30.598,46.067C30.506,46.476 30.299,46.851 30,47.146C29.773,47.372 29.502,47.548 29.203,47.663C28.961,47.75 28.705,47.794 28.447,47.793C28.001,47.796 27.565,47.664 27.197,47.413C26.829,47.162 26.546,46.805 26.386,46.389C25.773,44.757 25.303,43.074 24.982,41.361C24.734,40.092 24.627,38.8 24.663,37.507C23.955,36.99 23.319,36.381 22.771,35.695C21.632,36.869 20.629,38.168 19.784,39.569C19.582,39.879 19.304,40.134 18.977,40.308C18.649,40.482 18.283,40.57 17.912,40.564C17.517,40.566 17.129,40.46 16.788,40.26C16.447,40.059 16.167,39.771 15.977,39.424C15.786,39.078 15.692,38.687 15.705,38.291C15.718,37.896 15.838,37.512 16.05,37.179C17.375,35.003 19.035,33.051 20.969,31.394C20.897,30.933 20.861,30.467 20.86,30C20.86,29.851 20.872,29.701 20.885,29.552C20.897,29.403 20.909,29.253 20.909,29.104C18.924,29.327 16.977,29.805 15.115,30.528C14.565,30.728 13.959,30.703 13.428,30.456C12.898,30.21 12.487,29.763 12.287,29.213C12.086,28.664 12.112,28.058 12.358,27.527C12.605,26.997 13.052,26.586 13.601,26.386C16.427,25.246 19.446,24.662 22.493,24.663C23.004,23.95 23.614,23.313 24.305,22.771C23.126,21.634 21.823,20.632 20.422,19.784C19.953,19.46 19.627,18.967 19.513,18.408C19.399,17.849 19.506,17.268 19.811,16.786C20.115,16.304 20.595,15.958 21.148,15.821C21.702,15.684 22.287,15.766 22.781,16.051C24.958,17.377 26.913,19.037 28.576,20.969C29.333,20.847 30.104,20.827 30.866,20.909C30.807,20.144 30.7,19.382 30.548,18.629C30.398,18.012 30.219,17.345 30,16.638C29.851,16.11 29.681,15.642 29.482,15.115C29.34,14.719 29.313,14.29 29.404,13.879C29.496,13.469 29.703,13.092 30,12.795C30.226,12.566 30.502,12.392 30.806,12.287C31.078,12.187 31.367,12.142 31.657,12.153C31.946,12.166 32.231,12.235 32.493,12.357C32.756,12.479 32.992,12.652 33.188,12.865C33.384,13.079 33.535,13.329 33.634,13.601C34.242,15.235 34.712,16.917 35.038,18.629C35.279,19.902 35.382,21.198 35.347,22.493C36.061,22.998 36.699,23.606 37.239,24.295C38.393,23.122 39.412,21.823 40.275,20.422C40.588,19.928 41.085,19.578 41.655,19.451C42.225,19.323 42.823,19.427 43.317,19.74C43.811,20.052 44.16,20.549 44.288,21.119C44.416,21.69 44.312,22.288 43.999,22.781C42.675,24.954 41.019,26.906 39.091,28.566C39.199,29.328 39.219,30.1 39.15,30.866ZM34.899,30.398L34.899,30L34.939,30C34.925,29.086 34.659,28.194 34.172,27.421C34.043,27.207 33.896,27.004 33.734,26.814C33.053,26.013 32.136,25.449 31.115,25.201C30.866,25.141 30.613,25.101 30.358,25.081L29.96,25.081C29.05,25.083 28.158,25.335 27.381,25.808C27.168,25.946 26.961,26.096 26.764,26.256C25.967,26.938 25.406,27.855 25.161,28.875C25.101,29.12 25.061,29.37 25.041,29.622L25.041,30.02C25.044,30.93 25.295,31.822 25.768,32.599C25.904,32.814 26.054,33.02 26.216,33.216C26.635,33.713 27.148,34.121 27.725,34.417C28.303,34.712 28.934,34.89 29.582,34.939L29.98,34.939C30.89,34.937 31.782,34.685 32.559,34.212C32.773,34.083 32.976,33.936 33.166,33.774C33.666,33.355 34.076,32.841 34.374,32.261C34.672,31.682 34.85,31.048 34.899,30.398Z" style="fill:rgb(64,64,64);fill-rule:nonzero;"/>
    </g>
    <g transform="matrix(66.3333,0,0,66.3333,0,0)">
        <path d="M58.168,0L1.842,0C1.353,0 0.885,0.194 0.54,0.54C0.194,0.885 0,1.353 0,1.842L0,8.157C0,8.651 0,8.898 0.096,9.087C0.181,9.253 0.316,9.388 0.482,9.472C0.671,9.569 0.918,9.569 1.412,9.569L30,9.569C33.697,9.571 37.324,10.576 40.495,12.477C43.666,14.377 46.262,17.102 48.007,20.361C49.752,23.62 50.58,27.292 50.404,30.984C50.27,33.797 49.557,36.541 48.32,39.049C47.907,39.888 47.7,40.307 47.742,40.581C47.78,40.836 47.898,41.025 48.11,41.172C48.337,41.331 48.772,41.331 49.641,41.331L58.538,41.331C59.033,41.331 59.28,41.331 59.468,41.235C59.634,41.15 59.769,41.015 59.854,40.849C59.95,40.66 59.95,40.413 59.95,39.919L59.95,1.842C59.953,1.363 59.768,0.902 59.435,0.557C59.102,0.213 58.647,0.013 58.168,0Z" style="fill:rgb(64,64,64);fill-rule:nonzero;"/>
    </g>
</svg>
