<?xml version="1.0" encoding="UTF-8" standalone="no"?>
<!DOCTYPE svg PUBLIC "-//W3C//DTD SVG 1.1//EN" "http://www.w3.org/Graphics/SVG/1.1/DTD/svg11.dtd">
<svg width="100%" height="100%" viewBox="0 0 2500 2501" version="1.1" xmlns="http://www.w3.org/2000/svg" xmlns:xlink="http://www.w3.org/1999/xlink" xml:space="preserve" xmlns:serif="http://www.serif.com/" style="fill-rule:evenodd;clip-rule:evenodd;stroke-linejoin:round;stroke-miterlimit:2;">
    <g transform="matrix(41.6667,0,0,41.6667,0,2.72848e-12)">
        <path d="M1.76,0L58.24,0C58.702,-0 59.145,0.181 59.474,0.505C59.803,0.828 59.992,1.268 60,1.73L60,7.378C60,7.872 60,8.119 59.904,8.308C59.819,8.474 59.684,8.609 59.518,8.694C59.329,8.79 59.082,8.79 58.588,8.79L45.92,8.79C44.772,8.836 43.65,9.143 42.64,9.69L15.64,25.55C14.626,26.096 13.501,26.404 12.35,26.45L1.412,26.45C0.918,26.45 0.671,26.45 0.482,26.354C0.316,26.269 0.181,26.134 0.096,25.968C0,25.78 0,25.532 0,25.038L0,17.272C0,16.778 0,16.531 0.096,16.342C0.181,16.176 0.316,16.041 0.482,15.956C0.671,15.86 0.918,15.86 1.412,15.86L12.35,15.86C13.5,15.911 14.624,16.218 15.64,16.76L18.64,18.51C19.104,18.749 19.618,18.874 20.14,18.874C20.662,18.874 21.176,18.749 21.64,18.51L25.48,16.25C25.644,16.166 25.781,16.039 25.877,15.882C25.973,15.725 26.024,15.544 26.024,15.36C26.024,15.176 25.973,14.996 25.877,14.838C25.781,14.681 25.644,14.554 25.48,14.47L17.4,9.72C16.388,9.178 15.267,8.87 14.12,8.82L1.412,8.82C0.918,8.82 0.671,8.82 0.482,8.724C0.316,8.639 0.181,8.504 0.096,8.338C0,8.149 0,7.902 0,7.408L0,1.76C0,1.293 0.185,0.846 0.515,0.515C0.846,0.185 1.293,0 1.76,0Z" style="fill:rgb(64,64,64);fill-rule:nonzero;"/>
    </g>
    <g transform="matrix(41.6667,0,0,41.6667,0,2.72848e-12)">
        <path d="M47.65,15.88C46.5,15.931 45.376,16.238 44.36,16.78L17.36,32.65C16.348,33.192 15.227,33.499 14.08,33.55L1.412,33.55C0.918,33.55 0.671,33.55 0.482,33.646C0.316,33.731 0.181,33.866 0.096,34.032C0,34.22 0,34.467 0,34.962L0,42.728C0,43.222 0,43.469 0.096,43.658C0.181,43.824 0.316,43.959 0.482,44.044C0.671,44.14 0.918,44.14 1.412,44.14L12.35,44.14C13.5,44.089 14.624,43.782 15.64,43.24L42.64,27.37C43.652,26.828 44.773,26.52 45.92,26.47L58.588,26.47C59.082,26.47 59.329,26.47 59.518,26.374C59.684,26.289 59.819,26.154 59.904,25.988C60,25.799 60,25.552 60,25.058L60,17.292C60,16.798 60,16.55 59.904,16.362C59.819,16.196 59.684,16.061 59.518,15.976C59.329,15.88 59.082,15.88 58.588,15.88L47.65,15.88Z" style="fill:rgb(64,64,64);fill-rule:nonzero;"/>
    </g>
    <g transform="matrix(41.6667,0,0,41.6667,0,2.72848e-12)">
        <path d="M47.65,33.56C46.5,33.611 45.376,33.918 44.36,34.46L17.36,50.32C16.35,50.867 15.228,51.174 14.08,51.22L1.412,51.22C0.918,51.22 0.671,51.22 0.482,51.316C0.316,51.401 0.181,51.536 0.096,51.702C0,51.891 0,52.138 0,52.632L0,58.28C0.013,58.739 0.204,59.175 0.532,59.496C0.861,59.817 1.301,59.998 1.76,60L58.24,60C58.704,59.997 59.149,59.813 59.478,59.485C59.807,59.158 59.995,58.714 60,58.25L60,52.602C60,52.108 60,51.861 59.904,51.672C59.819,51.506 59.684,51.371 59.518,51.286C59.329,51.19 59.082,51.19 58.588,51.19L45.88,51.19C44.732,51.144 43.61,50.837 42.6,50.29L34.52,45.55C34.354,45.467 34.214,45.339 34.116,45.181C34.018,45.023 33.966,44.841 33.966,44.655C33.966,44.469 34.018,44.287 34.116,44.129C34.214,43.971 34.354,43.843 34.52,43.76L38.36,41.51C38.824,41.271 39.338,41.146 39.86,41.146C40.382,41.146 40.896,41.271 41.36,41.51L44.36,43.25C45.374,43.796 46.499,44.104 47.65,44.15L58.588,44.15C59.082,44.15 59.329,44.15 59.518,44.054C59.684,43.969 59.819,43.834 59.904,43.668C60,43.48 60,43.232 60,42.738L60,34.972C60,34.478 60,34.231 59.904,34.042C59.819,33.876 59.684,33.741 59.518,33.656C59.329,33.56 59.082,33.56 58.588,33.56L47.65,33.56Z" style="fill:rgb(64,64,64);fill-rule:nonzero;"/>
    </g>
</svg>
