<?xml version="1.0" encoding="UTF-8" standalone="no"?>
<!DOCTYPE svg PUBLIC "-//W3C//DTD SVG 1.1//EN" "http://www.w3.org/Graphics/SVG/1.1/DTD/svg11.dtd">
<svg width="100%" height="100%" viewBox="0 0 206 206" version="1.1" xmlns="http://www.w3.org/2000/svg" xmlns:xlink="http://www.w3.org/1999/xlink" xml:space="preserve" xmlns:serif="http://www.serif.com/" style="fill-rule:evenodd;clip-rule:evenodd;stroke-linejoin:round;stroke-miterlimit:2;">
    <g transform="matrix(73.0567,26.9156,-27.2869,74.0644,1395.41,-3591.6)">
        <path d="M-0.118,49.92C-0.309,49.409 -0.044,48.841 0.475,48.653C0.684,48.577 0.902,48.574 1.1,48.631C1.106,48.521 1.161,48.418 1.251,48.351C0.974,48.256 0.663,48.252 0.366,48.36C-0.317,48.608 -0.666,49.355 -0.415,50.028C-0.163,50.701 0.594,51.046 1.276,50.798C1.959,50.55 2.308,49.803 2.057,49.13C2.004,48.989 1.929,48.862 1.837,48.752C1.807,48.856 1.731,48.945 1.625,48.99C1.68,49.064 1.726,49.147 1.76,49.238C1.951,49.749 1.686,50.317 1.167,50.505C0.648,50.694 0.073,50.432 -0.118,49.92Z" style="fill:url(#_Radial1);fill-rule:nonzero;"/>
    </g>
    <g transform="matrix(0.26802,-5.54909,-5.54909,-0.26802,3894.66,1871.62)">
        <path d="M289.741,679.274C290.538,679.479 291.314,679.735 292.064,680.038C290.792,680.888 289.904,682.276 289.741,683.897C288.868,683.593 287.952,683.373 287.004,683.247C287.297,681.547 288.328,680.116 289.741,679.274Z" style="fill:rgb(38,38,38);fill-opacity:0.3;fill-rule:nonzero;"/>
    </g>
    <g transform="matrix(5.55556,0,0,5.55556,-1418.41,-3663.74)">
        <path d="M273.769,686.004C269.313,686.004 265.695,682.386 265.695,677.929C265.695,673.473 269.313,669.854 273.769,669.854C278.226,669.854 281.844,673.473 281.844,677.929C281.844,682.386 278.226,686.004 273.769,686.004Z" style="fill:rgb(90,90,90);"/>
    </g>
    <g transform="matrix(5.55556,0,0,5.55556,-1418.41,-3785.5)">
        <path d="M285.881,692.925C283.653,692.925 281.844,691.116 281.844,688.888C281.844,686.659 283.653,684.85 285.881,684.85C288.11,684.85 289.919,686.659 289.919,688.888C289.919,691.116 288.11,692.925 285.881,692.925Z" style="fill:rgb(90,90,90);"/>
    </g>
    <defs>
        <radialGradient id="_Radial1" cx="0" cy="0" r="1" gradientUnits="userSpaceOnUse" gradientTransform="matrix(1,0,-5.55112e-17,-1,0,99.298)"><stop offset="0" style="stop-color:rgb(90,90,90);stop-opacity:1"/><stop offset="1" style="stop-color:rgb(90,90,90);stop-opacity:1"/></radialGradient>
    </defs>
</svg>
