<?xml version="1.0" encoding="UTF-8" standalone="no"?>
<!DOCTYPE svg PUBLIC "-//W3C//DTD SVG 1.1//EN" "http://www.w3.org/Graphics/SVG/1.1/DTD/svg11.dtd">
<svg width="100%" height="100%" viewBox="0 0 311 363" version="1.1" xmlns="http://www.w3.org/2000/svg" xmlns:xlink="http://www.w3.org/1999/xlink" xml:space="preserve" xmlns:serif="http://www.serif.com/" style="fill-rule:evenodd;clip-rule:evenodd;">
    <g id="Artboard1" transform="matrix(1,0,0,1,20.8049,9.38741)">
        <rect x="-20.805" y="-9.387" width="310.431" height="362.777" style="fill:none;"/>
        <g transform="matrix(1,0,0,1,0.195086,0.61259)">
            <path d="M250.741,169.278C250.741,238.735 195.671,295.095 127.702,295.095C59.733,295.095 4.664,238.735 4.664,169.278C4.664,99.82 59.733,43.46 127.702,43.46C195.671,43.46 250.741,99.82 250.741,169.278" style="fill:rgb(255,146,59);fill-rule:nonzero;"/>
            <path d="M9.724,200.434C9.724,200.434 0.794,69.259 121.749,65.488L113.315,51.398L47.727,73.426L28.974,94.958L12.602,126.313L3.274,162.828L6.053,187.237" style="fill:rgb(255,151,67);fill-rule:nonzero;"/>
            <path d="M43.46,83.448C21.929,105.575 8.533,136.037 8.533,169.774C8.533,203.51 21.929,233.972 43.46,256.099C65.091,278.226 94.76,291.82 127.702,291.82C160.645,291.82 190.313,278.226 211.944,256.099C233.476,233.972 246.871,203.51 246.871,169.774C246.871,136.037 233.476,105.575 211.944,83.448C190.313,61.42 160.645,47.727 127.702,47.727C94.859,47.727 65.091,61.321 43.46,83.448ZM38.003,261.358C15.082,237.941 0.893,205.495 0.893,169.774C0.893,134.053 15.082,101.606 38.003,78.09C60.924,54.673 92.676,40.087 127.702,40.087C162.729,40.087 194.481,54.673 217.402,78.09C240.322,101.507 254.512,133.953 254.512,169.774C254.512,205.495 240.322,237.941 217.402,261.358C194.481,284.874 162.729,299.361 127.702,299.361C92.676,299.361 60.924,284.874 38.003,261.358Z" style="fill:rgb(255,115,3);fill-rule:nonzero;"/>
            <path d="M179.498,169.972L160.744,172.75L135.442,175.628L119.07,176.025L103.095,175.529L90.89,171.758L80.074,160.05L71.64,136.136L69.755,130.977L58.543,127.206L51.994,116.391L47.33,100.912L52.49,87.318L64.695,83.051L74.518,87.715L79.181,98.034L84.837,97.141L86.722,94.76L84.837,83.944L84.341,70.35L87.119,51.597L87.02,40.881L95.553,27.188L110.536,16.372L136.732,5.16L165.805,9.426L191.107,27.684L202.816,46.437L210.357,60.031L212.242,93.767L206.586,122.84L196.267,148.639L186.543,162.431" style="fill:rgb(255,196,149);fill-rule:nonzero;"/>
            <path d="M163.622,251.039L96.645,253.817L96.645,265.029L102.301,304.422L99.522,307.696L52.688,291.721L49.414,286.065L44.75,233.079L33.736,201.327L31.355,193.786L68.862,167.988L80.571,163.324L90.89,176.025L99.82,183.963L110.14,187.237L114.803,188.626L120.459,213.036L124.726,218.195L135.541,214.425L128,229.011L168.682,248.26L163.622,251.039" style="fill:rgb(255,133,35);fill-rule:nonzero;"/>
            <path d="M52.49,87.516L64.695,83.25L74.518,87.913L79.181,98.233L84.837,97.34L86.226,91.684L83.448,80.868L86.226,55.07L83.845,40.98L92.279,31.157L110.536,16.67L105.377,9.625L79.578,22.326L68.763,30.76L62.71,43.857L53.383,56.558L50.605,71.541L52.49,87.516" style="fill:rgb(255,149,63);fill-rule:nonzero;"/>
            <path d="M71.74,43.46C71.74,43.46 78.784,26.096 106.865,17.662C134.946,9.228 108.254,11.609 108.254,11.609L77.792,23.318L66.084,35.026L60.924,44.353L71.74,43.46" style="fill:rgb(255,196,149);fill-rule:nonzero;"/>
            <path d="M57.65,84.242C57.65,84.242 47.826,51.398 85.333,46.735L83.944,41.079L58.146,47.132L50.605,71.541L52.49,87.516L57.65,84.242" style="fill:rgb(255,196,149);fill-rule:nonzero;"/>
            <path d="M72.633,127.802L78.784,121.848C78.784,121.848 81.563,122.146 82.059,125.42C82.555,128.695 83.944,158.264 104.087,174.14C105.972,175.628 89.104,171.758 89.104,171.758L74.121,148.341" style="fill:rgb(255,202,159);fill-rule:nonzero;"/>
            <path d="M158.859,118.871C158.859,118.871 159.95,104.682 163.82,105.774C167.69,106.865 167.69,110.735 167.69,110.735C167.69,110.735 158.363,116.688 158.859,118.871" style="fill:rgb(255,202,159);fill-rule:nonzero;"/>
            <path d="M197.755,66.878C197.755,66.878 190.016,68.465 189.321,75.312C188.626,82.158 197.755,76.701 199.144,76.205" style="fill:rgb(255,202,159);fill-rule:nonzero;"/>
            <path d="M141.098,67.374C141.098,67.374 130.778,68.763 130.778,75.312C130.778,81.86 142.487,81.364 145.761,78.586" style="fill:rgb(255,202,159);fill-rule:nonzero;"/>
            <path d="M77.395,97.836C77.395,97.836 59.634,87.02 57.749,97.34C55.864,107.659 51.696,115.101 60.527,125.916L54.474,124.031L48.819,109.544L46.933,95.454L57.749,84.242L69.953,85.135L76.998,90.791L77.395,97.836" style="fill:rgb(255,202,159);fill-rule:nonzero;"/>
            <path d="M85.829,68.267C85.829,68.267 93.767,26.989 134.053,19.051C167.194,12.502 184.657,20.44 191.206,27.981C191.206,27.981 161.637,-7.144 133.557,3.572C105.476,14.388 84.837,34.034 85.333,46.636C86.127,68.267 85.829,68.267 85.829,68.267" style="fill:rgb(255,202,159);fill-rule:nonzero;"/>
            <path d="M194.481,32.645C194.481,32.645 180.887,32.149 180.391,44.353C180.391,44.353 180.391,46.239 181.284,48.124C181.284,48.124 192.099,35.919 198.648,42.468" style="fill:rgb(255,202,159);fill-rule:nonzero;"/>
            <path d="M135.045,49.414C135.045,49.414 132.664,30.76 116.788,41.575C106.468,48.62 107.46,58.443 109.247,60.329C111.132,62.214 110.636,65.984 112.025,63.405C113.414,60.825 113.017,52.391 118.177,50.009C123.237,47.628 131.771,45.048 135.045,49.414" style="fill:rgb(255,202,159);fill-rule:nonzero;"/>
            <path d="M90.989,176.025L46.933,195.671C46.933,195.671 65.191,268.304 55.864,290.828L49.315,288.447L48.819,260.763L36.614,208.372L31.454,193.885L77.395,162.927L90.989,176.025" style="fill:rgb(255,146,59);fill-rule:nonzero;"/>
            <path d="M95.454,216.211L101.705,223.851L101.705,251.932L94.264,251.932C94.264,251.932 93.371,232.285 93.371,229.904C93.371,227.522 94.264,219.088 94.264,219.088" style="fill:rgb(255,146,59);fill-rule:nonzero;"/>
            <path d="M95.653,256.198L74.518,257.091L80.571,261.358L95.553,263.74" style="fill:rgb(255,146,59);fill-rule:nonzero;"/>
            <path d="M167.789,251.535L185.153,251.039L189.42,294.102L171.659,296.484L167.789,251.535" style="fill:rgb(255,133,35);fill-rule:nonzero;"/>
            <path d="M172.453,251.535L198.648,250.146C198.648,250.146 209.464,222.958 209.464,221.569C209.464,220.18 218.791,182.177 218.791,182.177L197.656,160.149L193.389,156.378L182.177,167.591L182.177,211.15L172.453,251.535" style="fill:rgb(255,133,35);fill-rule:nonzero;"/>
            <path d="M184.161,248.26L167.789,251.535L170.171,264.633C176.223,267.411 186.543,259.969 186.543,259.969" style="fill:rgb(255,146,59);fill-rule:nonzero;"/>
            <path d="M184.657,166.202L217.501,190.611L218.394,179.398L193.588,156.478L184.657,166.202" style="fill:rgb(255,146,59);fill-rule:nonzero;"/>
            <path d="M111.926,343.814L102.202,304.422L97.34,275.349L96.546,253.817L140.502,251.436L167.789,251.436L165.309,300.651L169.575,338.654L169.079,345.699L133.457,348.478L111.926,343.814" style="fill:rgb(255,212,177);fill-rule:nonzero;"/>
            <path d="M161.736,251.039C161.736,251.039 159.355,299.758 166.4,334.487C166.4,334.487 152.31,343.417 131.771,345.699L171.163,344.31L175.826,341.532L170.171,264.732L168.682,248.26" style="fill:rgb(255,196,149);fill-rule:nonzero;"/>
            <path d="M190.115,290.431L208.372,285.271L243.002,283.386L248.161,267.411L238.834,239.727L228.019,238.338L213.036,243.002L198.747,250.047L191.107,248.657L185.153,251.039" style="fill:rgb(255,212,177);fill-rule:nonzero;"/>
            <path d="M189.817,281.005C189.817,281.005 202.022,275.349 203.907,275.845L198.747,250.047L204.8,247.665C204.8,247.665 209.067,272.074 209.067,274.853C209.067,274.853 235.262,276.242 237.643,276.242C237.643,276.242 243.299,265.426 241.91,254.214L247.07,269.197L247.566,277.631L240.025,288.843L231.591,290.729L217.501,290.233L212.837,284.18L196.465,286.561L191.305,288.447" style="fill:rgb(255,196,149);fill-rule:nonzero;"/>
            <path d="M171.361,247.764L161.042,221.569L150.226,206.09C150.226,206.09 152.608,199.541 155.882,199.541L166.698,199.541L177.017,203.312L176.124,220.676L171.361,247.764" style="fill:rgb(255,212,177);fill-rule:nonzero;"/>
            <path d="M173.445,238.834C173.445,238.834 160.347,213.532 160.347,209.761C160.347,209.761 162.729,204.105 166.003,205.495C169.278,206.884 176.322,210.654 176.322,210.654L176.322,201.724L160.347,198.45L149.532,199.839L167.789,243.101L171.56,243.597" style="fill:rgb(255,196,149);fill-rule:nonzero;"/>
            <path d="M116.093,177.017L103.095,175.628L90.89,171.857L90.89,176.124L96.843,182.673L115.597,191.107" style="fill:rgb(255,212,177);fill-rule:nonzero;"/>
            <path d="M95.157,178.406C95.157,178.406 109.643,184.459 114.406,183.07L114.902,188.726L101.805,185.947L93.867,180.291L95.157,178.406" style="fill:rgb(255,196,149);fill-rule:nonzero;"/>
            <path d="M190.115,201.129C182.177,200.93 174.933,199.938 168.682,198.152C169.079,195.572 168.285,193.091 168.98,191.206C170.766,189.916 173.643,189.916 176.322,189.619C174.04,188.527 170.766,188.031 168.186,188.726C168.087,186.94 167.293,185.848 166.797,184.459C171.262,182.871 181.78,172.453 187.733,175.826C190.611,177.513 191.802,186.84 192,191.504C192.198,195.274 191.603,199.045 190.115,201.129" style="fill:rgb(255,146,59);fill-rule:nonzero;"/>
            <path d="M190.115,201.129C182.177,200.93 174.933,199.938 168.682,198.152C169.079,195.572 168.285,193.091 168.98,191.206C170.766,189.916 173.643,189.916 176.322,189.619C174.04,188.527 170.766,188.031 168.186,188.726C168.087,186.94 167.293,185.848 166.797,184.459C171.262,182.871 181.78,172.453 187.733,175.826C190.611,177.513 191.802,186.84 192,191.504C192.198,195.274 191.603,199.045 190.115,201.129Z" style="fill:rgb(234,104,0);fill-rule:nonzero;stroke:rgb(255,146,59);stroke-width:2px;"/>
            <path d="M152.112,188.13C152.112,188.726 152.112,189.321 152.012,189.916C149.532,191.504 145.563,191.504 142.784,192.893C146.753,193.091 149.929,194.084 152.707,195.374C152.608,196.862 152.608,198.45 152.509,199.938C147.944,203.014 143.777,207.678 138.419,210.654C135.839,212.043 127.008,215.616 124.329,214.921C122.84,214.524 122.642,212.639 122.047,210.853C120.757,207.082 117.78,200.93 117.482,195.175C117.184,187.932 116.391,175.727 124.229,177.216C130.58,178.406 137.922,181.284 142.784,183.963C145.86,185.749 147.547,187.733 152.112,188.13" style="fill:rgb(255,146,59);fill-rule:nonzero;"/>
            <path d="M152.112,188.13C152.112,188.726 152.112,189.321 152.012,189.916C149.532,191.504 145.563,191.504 142.784,192.893C146.753,193.091 149.929,194.084 152.707,195.374C152.608,196.862 152.608,198.45 152.509,199.938C147.944,203.014 143.777,207.678 138.419,210.654C135.839,212.043 127.008,215.616 124.329,214.921C122.84,214.524 122.642,212.639 122.047,210.853C120.757,207.082 117.78,200.93 117.482,195.175C117.184,187.932 116.391,175.727 124.229,177.216C130.58,178.406 137.922,181.284 142.784,183.963C145.86,185.749 147.547,187.733 152.112,188.13Z" style="fill:rgb(234,104,0);fill-rule:nonzero;stroke:rgb(255,146,59);stroke-width:2px;"/>
            <path d="M156.577,196.763C155.882,192.794 155.088,191.702 155.386,188.229C166.003,181.184 167.888,200.335 156.577,196.763" style="fill:rgb(255,146,59);fill-rule:nonzero;"/>
            <path d="M156.577,196.763C155.882,192.794 155.088,191.702 155.386,188.229C166.003,181.184 167.888,200.335 156.577,196.763Z" style="fill:rgb(234,104,0);fill-rule:nonzero;stroke:rgb(255,146,59);stroke-width:2px;"/>
            <path d="M171.857,199.938C171.857,199.938 168.583,195.274 170.964,193.885C173.346,192.496 175.628,193.885 177.017,191.504C178.406,189.122 177.017,187.733 177.513,184.955C178.009,182.177 180.291,181.681 182.673,181.184C185.054,180.688 191.603,179.795 192.496,182.078L189.718,173.643L184.062,171.758L166.301,182.078L165.408,187.237L165.408,197.557" style="fill:rgb(255,151,67);fill-rule:nonzero;"/>
            <path d="M122.642,215.417C122.047,208.074 121.451,200.831 120.856,193.488C119.864,182.574 123.436,184.459 132.961,184.459C134.45,184.459 141.891,186.146 142.388,187.237C144.967,192.496 138.121,191.305 145.364,195.274C151.417,198.549 162.233,193.29 159.752,185.848C158.363,184.161 152.608,185.352 150.524,184.26C146.853,182.375 143.181,180.49 139.51,178.605C134.847,176.223 124.13,172.651 119.169,176.025C106.567,184.558 119.963,205.991 124.428,214.921" style="fill:rgb(255,151,67);fill-rule:nonzero;"/>
            <path d="M135.045,49.414C122.245,46.437 115.895,54.772 112.025,63.405C108.552,62.611 109.941,57.848 110.834,55.467C113.116,49.216 122.344,40.781 129.885,41.972C133.06,42.369 137.426,45.346 135.045,49.414" style="fill:rgb(255,115,3);fill-rule:nonzero;"/>
            <path d="M197.259,63.901L197.854,63.901C200.732,69.854 203.212,76.205 206.884,81.563C204.403,87.318 188.428,92.279 188.626,82.158C192.099,80.67 198.053,81.86 201.129,79.876C199.343,75.014 196.862,70.847 197.259,63.901" style="fill:rgb(255,115,3);fill-rule:nonzero;"/>
            <path d="M141.495,64.099C144.273,69.16 145.166,74.419 149.036,78.189C150.822,79.876 154.195,81.96 152.509,86.722C152.112,87.814 149.234,90.295 147.547,90.791C141.495,92.577 127.305,91.188 132.068,83.547C137.129,83.746 143.876,86.822 147.647,83.15C144.769,78.586 139.609,69.457 141.495,64.099" style="fill:rgb(255,115,3);fill-rule:nonzero;"/>
            <path d="M194.977,115.101C185.848,120.955 175.628,127.405 160.546,125.916C157.371,123.138 156.081,116.887 159.256,112.819C160.843,115.597 159.851,120.757 164.416,121.55C172.949,123.039 182.871,116.291 189.023,114.009C192.794,107.56 188.726,105.278 185.253,101.11C178.208,92.676 168.881,82.158 169.178,69.557C172.056,67.473 172.254,72.732 172.651,73.625C176.322,82.158 185.55,93.172 192.198,100.515C193.885,102.301 196.564,104.087 196.862,105.278C197.755,108.651 194.58,112.819 194.977,115.101" style="fill:rgb(255,115,3);fill-rule:nonzero;"/>
            <path d="M74.121,108.949C71.243,107.262 70.549,100.118 67.175,99.919C62.313,99.622 63.206,109.247 63.206,114.902C59.932,111.926 59.336,102.598 61.718,97.836C58.94,96.447 57.749,99.324 56.161,100.316C58.245,85.929 77.296,93.668 74.121,108.949" style="fill:rgb(255,115,3);fill-rule:nonzero;"/>
            <path d="M200.732,121.153C196.465,129.29 190.412,138.22 177.91,138.518C177.612,135.938 177.414,131.87 177.91,130.282C187.535,129.29 193.488,124.428 200.732,121.153" style="fill:rgb(255,115,3);fill-rule:nonzero;"/>
            <path d="M140.8,126.412C148.738,130.58 163.423,131.076 174.338,130.778C174.933,133.16 174.933,136.136 174.933,139.014C160.943,139.609 144.471,136.136 140.8,126.412" style="fill:rgb(255,115,3);fill-rule:nonzero;"/>
            <path d="M139.312,134.152C144.868,148.043 163.82,146.456 179.795,146.059C179.101,147.845 177.612,150.028 175.628,150.722C170.468,152.806 156.378,154.394 149.234,150.623C144.769,148.242 141.792,142.784 139.312,139.609C138.22,138.121 132.267,134.251 139.312,134.152" style="fill:rgb(255,115,3);fill-rule:nonzero;"/>
            <path d="M194.282,210.654C187.833,221.767 181.581,233.178 173.941,242.902C177.116,233.476 178.505,217.6 179.002,205.495C185.749,202.319 191.504,206.189 194.282,210.654" style="fill:rgb(255,173,107);fill-rule:nonzero;"/>
            <path d="M229.11,250.543C221.867,252.031 216.806,259.076 209.662,258.58C213.631,253.122 220.378,250.741 229.11,250.543" style="fill:rgb(255,115,3);fill-rule:nonzero;"/>
            <path d="M232.285,261.854C226.332,262.45 219.386,263.442 213.433,262.946C216.31,258.58 227.225,260.167 232.285,261.854" style="fill:rgb(255,115,3);fill-rule:nonzero;"/>
            <path d="M234.369,271.678C227.721,271.777 219.485,271.678 213.135,271.181C216.905,267.113 230.102,269.693 234.369,271.678" style="fill:rgb(255,115,3);fill-rule:nonzero;"/>
            <path d="M181.78,298.468C182.772,306.803 186.047,315.237 185.65,324.366C181.978,325.557 179.895,326.648 174.933,326.648C174.636,318.909 173.544,307.002 173.842,299.56C176.223,299.758 179.795,297.873 181.78,298.468" style="fill:rgb(255,196,149);fill-rule:nonzero;"/>
            <path d="M171.064,175.429C167.69,177.612 164.912,180.291 161.637,182.673C154.493,183.07 150.623,182.177 145.464,178.109C145.563,177.811 146.059,177.91 146.059,177.513C153.699,180.887 163.423,176.124 171.064,175.429" style="fill:rgb(255,196,149);fill-rule:nonzero;"/>
            <path d="M131.175,227.324C133.259,218.295 141.495,213.532 148.936,208.571C156.577,218.295 161.24,230.797 166.4,242.902C154.195,239.231 141.792,233.377 131.175,227.324" style="fill:rgb(255,173,107);fill-rule:nonzero;"/>
            <path d="M173.842,299.659C173.544,307.101 174.536,318.909 174.933,326.747C179.895,326.747 181.978,325.656 185.65,324.465C186.047,315.336 182.772,306.902 181.78,298.567C179.795,297.873 176.223,299.758 173.842,299.659ZM97.24,257.588C100.515,287.454 105.178,312.459 113.811,338.952C132.961,344.806 155.981,345.302 172.949,340.043C169.873,325.16 171.163,307.002 169.377,291.026C167.988,279.02 168.682,267.014 166.797,254.809C146.257,250.543 117.284,253.817 97.24,257.588ZM171.659,255.008C171.46,267.808 172.254,280.509 173.247,293.309C178.208,292.614 181.482,292.118 186.047,291.026C184.558,278.722 184.757,264.732 181.681,253.817C178.208,253.916 175.132,253.817 171.659,255.008ZM196.564,252.924C194.183,252.428 191.504,252.924 189.321,252.924C190.412,263.343 192.893,274.853 193.786,285.867C197.259,285.966 199.144,284.279 202.022,283.783C202.22,274.158 201.228,260.862 196.564,252.924ZM234.369,287.454C241.712,285.668 246.276,276.738 244.192,267.51C242.803,261.358 240.422,249.65 237.743,245.681C235.857,242.803 230.598,238.933 226.332,241.612C219.485,245.978 207.479,247.268 202.518,252.527C204.998,260.862 205.792,272.174 206.784,282.691C215.318,283.188 225.736,280.31 232.881,283.386C227.919,284.974 221.569,284.974 217.302,287.355C220.874,289.042 229.011,288.744 234.369,287.454ZM166.301,242.902C161.141,230.797 156.478,218.295 148.837,208.571C141.395,213.532 133.259,218.295 131.076,227.324C141.792,233.377 154.195,239.231 166.301,242.902ZM179.002,205.495C178.505,217.6 177.116,233.476 173.941,242.902C181.581,233.079 187.833,221.767 194.282,210.654C191.504,206.189 185.749,202.319 179.002,205.495ZM164.614,200.434C161.736,200.136 159.256,203.808 155.485,202.22C154.592,203.212 153.798,204.205 152.905,205.197C161.24,215.318 165.11,229.606 171.56,241.414C175.033,230.003 174.636,217.6 175.429,205.197C170.667,205.395 167.988,200.732 164.614,200.434ZM155.386,188.229C155.088,191.702 155.882,192.794 156.577,196.763C167.888,200.335 166.003,181.184 155.386,188.229ZM142.784,184.062C137.922,181.383 130.58,178.505 124.229,177.315C116.391,175.826 117.184,188.031 117.482,195.274C117.78,201.029 120.757,207.082 122.047,210.952C122.642,212.738 122.84,214.623 124.329,215.02C127.008,215.616 135.938,212.143 138.419,210.753C143.777,207.876 147.944,203.212 152.509,200.037C152.608,198.549 152.608,196.961 152.707,195.473C149.929,194.084 146.853,193.191 142.784,192.992C145.464,191.603 149.532,191.603 152.012,190.016C152.012,189.42 152.012,188.825 152.112,188.229C147.547,187.733 145.86,185.749 142.784,184.062ZM96.149,175.628C92.081,179.795 107.56,185.352 112.422,185.65C112.422,183.07 113.91,180.589 113.612,178.704C107.758,177.712 100.118,178.406 96.149,175.628ZM146.158,177.513C146.158,177.91 145.662,177.811 145.563,178.109C150.822,182.177 154.691,183.07 161.736,182.673C164.912,180.391 167.789,177.612 171.163,175.429C163.423,176.124 153.699,180.887 146.158,177.513ZM192,191.405C191.802,186.84 190.611,177.414 187.733,175.727C181.78,172.254 171.262,182.772 166.797,184.36C167.293,185.749 168.087,186.84 168.186,188.626C170.865,187.932 174.04,188.428 176.322,189.519C173.643,189.817 170.766,189.817 168.98,191.107C168.384,192.992 169.178,195.473 168.682,198.053C174.933,199.839 182.177,200.732 190.115,201.029C191.603,199.045 192.198,195.274 192,191.405ZM89.302,179.597C88.012,178.704 79.38,167.491 78.189,167.988C62.611,174.14 48.025,184.757 35.026,194.878C47.429,221.569 52.49,254.214 53.383,285.668C67.572,292.316 80.074,301.941 99.423,302.933C97.141,287.157 95.157,272.967 93.867,258.084C89.005,256 82.059,258.183 77.495,257.488C77.495,252.031 84.44,255.107 85.036,251.436C85.433,248.657 81.166,248.459 82.555,244.093C86.127,245.383 88.012,248.26 91.783,249.352C95.256,241.811 91.783,228.416 92.279,222.065C92.378,220.874 92.874,215.516 95.553,216.409C97.935,217.203 95.454,230.797 95.653,236.75C95.851,242.307 94.958,247.566 97.24,251.039C115.895,248.459 134.847,246.871 155.088,246.276C150.623,244.391 145.364,242.605 139.609,239.33C136.434,237.544 126.611,233.873 125.718,230.896C124.229,226.133 129.488,223.653 130.381,219.584C120.955,224.744 119.169,214.623 116.887,207.578C114.902,201.129 113.712,196.267 113.216,192.595C104.98,188.428 96.248,184.558 89.302,179.597ZM183.764,169.278C196.763,163.026 199.144,192.794 193.984,202.419C194.778,205.296 197.457,206.388 198.549,208.967C191.305,221.966 183.268,234.071 175.826,246.871C181.284,243.398 189.222,246.276 195.671,243.696C198.053,242.803 199.74,237.346 201.526,232.98C206.487,221.073 211.647,205.991 213.929,194.679C214.425,192.099 215.913,186.443 215.516,184.161C214.921,179.994 209.364,176.918 206.487,174.437C201.228,169.674 197.953,165.606 192.397,161.141C190.313,164.416 185.55,166.598 183.764,169.278ZM59.634,54.078C53.482,60.924 54.772,73.625 55.467,82.753C66.679,75.709 81.464,83.349 81.364,95.256C86.722,95.157 83.349,88.608 82.357,84.341C79.181,70.549 87.715,55.665 82.753,43.064C73.129,43.857 65.29,47.727 59.634,54.078ZM103.888,14.487C89.898,18.456 71.938,28.676 66.183,41.278C70.648,40.583 73.724,38.4 78.09,38.102C79.777,38.003 81.96,38.797 83.845,38.301C87.616,37.309 90.89,28.775 93.767,25.6C96.546,22.524 99.919,21.135 102.202,18.357C103.69,17.662 105.873,17.662 105.972,15.479C105.377,14.784 104.682,14.288 103.888,14.487ZM176.819,18.257C162.233,10.022 137.625,3.87 122.146,11.609C109.643,17.86 92.775,28.18 87.02,41.178C92.378,53.78 85.433,65.29 84.936,78.09C84.738,84.936 88.112,90.791 88.409,98.233C86.524,101.309 80.967,101.606 77.098,101.408C75.808,94.859 73.526,87.516 66.778,86.722C57.253,85.631 50.208,93.569 49.811,101.805C49.315,111.529 57.253,127.603 68.564,126.512C72.93,126.115 74.022,121.749 78.784,121.749C81.364,126.909 74.816,128.496 74.121,132.167C73.922,133.16 74.617,136.831 75.113,138.617C77.197,147.051 81.761,158.065 86.226,164.515C91.981,172.75 103.194,173.941 115.299,174.735C117.482,170.071 125.42,170.468 130.58,171.659C124.329,169.178 118.574,163.225 113.811,157.966C108.353,151.913 102.797,145.464 102.499,137.526C112.918,151.913 121.451,164.515 140.304,170.865C154.592,175.628 171.262,168.682 182.276,160.943C186.84,157.767 189.519,152.608 192.794,148.043C204.899,130.58 210.555,105.774 209.364,81.662C208.868,71.74 208.868,61.817 205.495,55.169C202.022,48.223 190.214,41.873 183.268,48.223C181.978,41.377 189.023,37.209 197.259,39.69C191.405,32.05 185.253,23.02 176.819,18.257ZM204.006,242.605C215.417,236.949 236.651,227.423 243.696,242.605C246.375,248.26 249.451,257.687 250.741,263.541C252.626,271.678 248.657,288.943 240.223,291.622C232.781,294.003 224.149,293.904 215.219,292.118C214.127,291.225 213.036,289.736 212.143,288.149C205.792,287.95 199.74,288.447 194.778,291.126C195.274,295.888 192.099,296.583 189.023,297.575C186.84,306.406 193.488,317.916 191.901,325.854C190.809,331.609 183.764,332.502 178.605,333.495C178.406,336.67 178.803,339.349 179.2,342.028C178.009,346.394 172.75,348.874 167.69,349.47C151.119,351.454 126.016,352.347 110.14,346.592C105.674,335.678 102.202,322.481 98.53,310.078C83.051,311.764 70.45,303.429 58.642,297.873C54.574,295.988 48.918,294.896 47.33,291.622C45.842,288.447 46.437,282.394 46.04,276.738C45.147,262.152 44.254,248.062 40.484,233.178C38.797,226.431 35.721,220.577 33.637,214.127C31.653,208.174 28.279,200.732 27.386,194.778C26.096,185.947 34.431,185.451 39.69,181.581C47.926,175.628 54.375,172.353 63.305,166.995C65.984,165.408 73.922,161.439 74.816,159.553C76.602,155.882 71.74,150.722 70.45,147.845C68.366,143.281 67.274,139.411 66.977,134.946C59.535,133.755 53.78,129.29 50.406,124.329C44.75,115.994 40.781,100.614 45.743,89.005C46.14,88.112 48.025,86.226 48.322,84.837C48.918,82.059 47.231,78.388 47.132,75.411C46.636,60.229 49.712,47.132 59.932,42.567C64.099,25.997 78.983,20.54 92.974,12.304C98.233,9.228 103.988,7.243 109.941,5.06C131.274,-2.778 164.118,-1.29 181.879,12.105C189.42,17.761 201.426,29.767 205.693,38.499C217.104,61.42 216.211,99.82 208.273,127.802C207.181,131.572 205.693,137.029 203.51,141.594C202.022,144.769 197.358,151.02 197.854,153.798C198.45,156.676 208.571,164.316 210.753,166.4C214.623,170.171 222.065,175.132 222.66,179.895C223.355,184.955 220.478,191.901 218.989,196.763C214.226,213.036 209.464,228.019 204.006,242.605Z" style="fill:rgb(255,115,3);fill-rule:nonzero;"/>
            <path d="M128.099,129.885C128.695,129.091 132.068,127.802 136.831,130.084C136.831,130.084 131.175,130.977 131.671,140.403L129.29,139.907C129.389,140.006 126.909,131.473 128.099,129.885" style="fill:rgb(255,202,159);fill-rule:nonzero;"/>
            <path d="M169.178,210.456C169.178,211.845 167.988,213.036 166.598,213.036C165.209,213.036 164.019,211.845 164.019,210.456C164.019,209.067 165.209,207.876 166.598,207.876C168.087,207.876 169.178,209.067 169.178,210.456" style="fill:rgb(254,113,0);fill-rule:nonzero;"/>
            <path d="M171.758,222.462C171.758,223.851 170.567,225.042 169.178,225.042C167.789,225.042 166.598,223.851 166.598,222.462C166.598,221.073 167.789,219.882 169.178,219.882C170.667,219.882 171.758,220.974 171.758,222.462" style="fill:rgb(254,113,0);fill-rule:nonzero;"/>
        </g>
    </g>
</svg>
