<svg viewBox="0 0 96 96" fill="none" xmlns="http://www.w3.org/2000/svg"><path d="M15.552 22.58c6.912-3.923 16.416-5.836 24.576-5.836 23.904 0 39.072 11.098 39.072 26.12 0 11.96-10.464 19.326-24.384 19.326-11.232 0-19.584-4.114-19.584-9.567 0-5.167 5.28-7.655 12.768-4.784l1.92-5.837c-11.616-3.731-21.216 1.531-21.216 10.62 0 9.09 11.328 15.596 26.496 15.596 18.048 0 31.2-9.95 31.2-25.355 0-19.23-18.24-33.295-46.272-33.295-9.024 0-19.2 2.296-27.552 6.793l2.976 6.219Zm64.896 50.518c-6.912 3.922-16.416 5.836-24.576 5.836-23.904 0-39.072-11.099-39.072-26.12 0-11.96 10.464-19.327 24.384-19.327 11.232 0 19.584 4.114 19.584 9.568 0 5.166-5.28 7.654-12.768 4.784l-1.92 5.836c11.616 3.732 21.216-1.53 21.216-10.62S55.968 27.459 40.8 27.459c-18.048 0-31.2 9.95-31.2 25.355 0 19.231 18.24 33.296 46.272 33.296 9.024 0 19.2-2.296 27.552-6.793l-2.976-6.22Z" fill="rgb(64,64,64)"/></svg>