<?xml version="1.0" encoding="UTF-8" standalone="no"?>
<!DOCTYPE svg PUBLIC "-//W3C//DTD SVG 1.1//EN" "http://www.w3.org/Graphics/SVG/1.1/DTD/svg11.dtd">
<svg width="100%" height="100%" viewBox="0 0 40 37" version="1.1" xmlns="http://www.w3.org/2000/svg" xmlns:xlink="http://www.w3.org/1999/xlink" xml:space="preserve" xmlns:serif="http://www.serif.com/" style="fill-rule:evenodd;clip-rule:evenodd;stroke-linejoin:round;stroke-miterlimit:2;">
    <g id="g890" transform="matrix(1,0,0,1,-96.9,-1.77636e-15)">
        <path id="path13" d="M105.79,36.33C100.911,36.325 96.9,32.309 96.9,27.43C96.9,22.548 100.918,18.53 105.8,18.53C110.682,18.53 114.7,22.548 114.7,27.43C114.695,32.314 110.674,36.33 105.79,36.33Z" style="fill:rgb(19,19,19);fill-rule:nonzero;"/>
        <path id="path25" d="M127.18,36.33C122.301,36.325 118.29,32.309 118.29,27.43C118.29,22.548 122.308,18.53 127.19,18.53C132.072,18.53 136.09,22.548 136.09,27.43C136.085,32.314 132.064,36.33 127.18,36.33Z" style="fill:rgb(109,109,109);fill-rule:nonzero;"/>
        <path id="path31" d="M116.49,17.8C111.608,17.8 107.59,13.782 107.59,8.9C107.59,4.018 111.608,0 116.49,0C121.372,0 125.39,4.018 125.39,8.9C125.39,8.903 125.39,8.907 125.39,8.91C125.39,13.787 121.377,17.8 116.5,17.8C116.497,17.8 116.493,17.8 116.49,17.8Z" style="fill:rgb(109,109,109);fill-rule:nonzero;"/>
    </g>
</svg>
