<?xml version="1.0" encoding="UTF-8" standalone="no"?>
<!DOCTYPE svg PUBLIC "-//W3C//DTD SVG 1.1//EN" "http://www.w3.org/Graphics/SVG/1.1/DTD/svg11.dtd">
<svg width="100%" height="100%" viewBox="0 0 256 300" version="1.1" xmlns="http://www.w3.org/2000/svg" xmlns:xlink="http://www.w3.org/1999/xlink" xml:space="preserve" xmlns:serif="http://www.serif.com/" style="fill-rule:evenodd;clip-rule:evenodd;stroke-linejoin:round;stroke-miterlimit:2;">
    <g>
        <path d="M233.258,16.962C233.477,20.54 232.625,24.102 230.813,27.194C229,30.286 226.308,32.769 223.079,34.326C219.85,35.882 216.231,36.443 212.683,35.936C209.135,35.428 205.818,33.876 203.155,31.477C200.491,29.078 198.603,25.94 197.729,22.464C196.855,18.988 197.036,15.33 198.249,11.957C199.461,8.584 201.65,5.648 204.537,3.523C207.424,1.399 210.878,0.182 214.459,0.027C216.807,-0.102 219.157,0.234 221.374,1.016C223.592,1.799 225.633,3.012 227.38,4.585C229.127,6.159 230.546,8.063 231.555,10.187C232.563,12.311 233.142,14.614 233.258,16.962Z" style="fill:rgb(55,55,55);fill-rule:nonzero;"/>
        <path d="M127.953,225.541C80.024,225.541 37.898,208.34 16.117,182.937C24.568,205.789 39.818,225.505 59.812,239.429C79.807,253.353 103.588,260.817 127.953,260.817C152.318,260.817 176.099,253.353 196.094,239.429C216.089,225.505 231.338,205.789 239.789,182.937C218.061,208.34 176.096,225.541 127.953,225.541Z" style="fill:rgb(80,80,80);fill-rule:nonzero;"/>
        <path d="M127.953,60.354C175.883,60.354 218.008,77.556 239.789,102.958C231.338,80.106 216.089,60.391 196.094,46.467C176.099,32.543 152.318,25.078 127.953,25.078C103.588,25.078 79.807,32.543 59.812,46.467C39.818,60.391 24.568,80.106 16.117,102.958C37.898,77.503 79.811,60.354 127.953,60.354Z" style="fill:rgb(80,80,80);fill-rule:nonzero;"/>
        <path d="M61.972,274.975C62.253,279.482 61.186,283.97 58.907,287.868C56.628,291.766 53.241,294.897 49.176,296.863C45.111,298.828 40.553,299.54 36.083,298.906C31.613,298.272 27.432,296.321 24.074,293.303C20.716,290.285 18.333,286.335 17.227,281.957C16.122,277.579 16.345,272.971 17.868,268.721C19.391,264.47 22.145,260.769 25.779,258.089C29.413,255.41 33.762,253.872 38.273,253.673C41.228,253.515 44.185,253.941 46.976,254.926C49.766,255.911 52.335,257.436 54.536,259.414C56.736,261.393 58.526,263.785 59.802,266.455C61.078,269.125 61.815,272.02 61.972,274.975Z" style="fill:rgb(90,90,90);fill-rule:nonzero;"/>
        <path d="M21.564,54.565C18.981,54.636 16.435,53.942 14.246,52.571C12.057,51.199 10.322,49.21 9.26,46.855C8.198,44.5 7.856,41.883 8.277,39.334C8.698,36.785 9.863,34.417 11.626,32.529C13.389,30.64 15.671,29.315 18.186,28.72C20.7,28.126 23.334,28.287 25.756,29.185C28.179,30.083 30.282,31.678 31.8,33.768C33.319,35.858 34.186,38.35 34.292,40.932C34.393,44.422 33.113,47.812 30.73,50.364C28.347,52.917 25.053,54.426 21.564,54.565Z" style="fill:rgb(38,38,38);fill-rule:nonzero;"/>
    </g>
</svg>
