<?xml version="1.0" encoding="UTF-8" standalone="no"?>
<!DOCTYPE svg PUBLIC "-//W3C//DTD SVG 1.1//EN" "http://www.w3.org/Graphics/SVG/1.1/DTD/svg11.dtd">
<svg width="100%" height="100%" viewBox="0 0 7506 4225" version="1.1" xmlns="http://www.w3.org/2000/svg" xmlns:xlink="http://www.w3.org/1999/xlink" xml:space="preserve" xmlns:serif="http://www.serif.com/" style="fill-rule:evenodd;clip-rule:evenodd;stroke-linejoin:round;stroke-miterlimit:2;">
    <g transform="matrix(1,0,0,1,-172.294,-2931.56)">
        <path d="M2426,7126C2567,7030 2614,7000 2625,7000C2632,7000 2643,6993 2650,6985C2672,6959 2772,6965 2833,6998C2903,7035 2965,7034 3011,6996C3033,6977 3050,6970 3065,6974C3079,6978 3093,6974 3101,6964C3112,6950 3110,6945 3090,6929C3032,6885 3000,6877 2863,6875C2716,6872 2695,6865 2660,6807C2632,6762 2635,6738 2671,6704C2726,6652 2742,6600 2748,6457C2751,6371 2756,6327 2764,6324C2771,6321 2825,6342 2885,6370C3009,6428 3089,6463 3175,6495C3230,6515 3239,6523 3285,6591C3344,6680 3422,6751 3510,6796C3584,6835 3610,6838 3617,6810C3622,6792 3630,6790 3674,6791C3703,6792 3736,6788 3748,6781C3771,6769 3797,6776 3832,6807C3843,6817 3880,6824 3934,6827C4003,6832 4024,6830 4045,6816C4059,6807 4070,6793 4070,6786C4070,6772 3989,6699 3938,6666C3919,6654 3906,6632 3895,6595C3882,6548 3864,6525 3751,6408C3654,6309 3620,6267 3615,6243C3612,6225 3605,6210 3600,6210C3594,6210 3590,6203 3590,6195C3590,6171 3520,5961 3510,5955C3505,5952 3496,5933 3489,5912C3468,5846 3275,5444 3260,5435C3255,5432 3242,5409 3231,5384C3220,5360 3185,5301 3153,5253C3121,5206 3082,5146 3065,5120C2959,4955 2641,4601 2334,4305C2135,4114 1953,3903 1916,3820C1910,3806 1895,3780 1883,3761C1870,3742 1860,3721 1860,3714C1860,3692 1767,3501 1705,3396C1588,3196 1403,3051 1201,2999C1145,2984 1092,2980 975,2980C800,2980 754,2991 655,3057C539,3135 471,3226 454,3328C449,3357 436,3374 393,3410C363,3435 320,3476 298,3502C259,3549 210,3634 210,3657C210,3663 205,3670 199,3672C193,3674 184,3710 178,3753C163,3858 178,3974 218,4062C244,4118 252,4128 269,4123C286,4119 290,4110 290,4074C290,4020 311,3965 337,3952C352,3944 365,3948 400,3971C450,4005 556,4040 608,4040C627,4040 675,4030 713,4018L783,3995L799,4019C821,4054 865,4159 891,4243C903,4282 924,4338 936,4367C949,4397 960,4431 960,4445C960,4458 964,4471 969,4474C973,4477 980,4507 984,4539C988,4572 995,4602 1000,4605C1006,4609 1010,4628 1010,4649C1010,4670 1014,4700 1020,4716C1025,4732 1034,4774 1039,4810C1063,4968 1089,5109 1098,5126C1104,5137 1116,5175 1125,5210C1134,5246 1148,5286 1156,5300C1163,5314 1180,5352 1193,5385C1250,5530 1422,5774 1540,5875C1559,5891 1599,5928 1630,5955C1660,5983 1699,6016 1715,6028L1745,6052L1751,6223C1758,6412 1774,6492 1815,6546C1829,6564 1840,6583 1840,6589C1840,6595 1845,6600 1850,6600C1885,6600 1833,6716 1784,6750C1751,6772 1734,6775 1645,6778C1562,6781 1526,6777 1441,6756C1313,6723 1290,6723 1260,6755C1241,6775 1227,6780 1188,6780C1146,6780 1134,6785 1105,6813C1062,6855 1044,6898 1065,6907C1074,6910 1088,6906 1098,6898C1133,6867 1200,6866 1200,6896C1200,6903 1211,6917 1225,6926C1245,6939 1250,6950 1250,6986C1250,7010 1254,7030 1259,7030C1264,7030 1287,7014 1310,6995C1333,6976 1354,6960 1357,6960C1360,6960 1378,6974 1397,6990C1447,7034 1487,7031 1569,6975C1605,6950 1660,6921 1690,6910C1762,6884 1870,6883 1925,6909C1966,6928 1964,6932 1906,6945C1867,6953 1812,7009 1830,7020C1838,7025 1858,7023 1879,7014C1933,6991 1987,6994 2022,7020C2062,7050 2118,7039 2220,6981C2247,6966 2334,6940 2359,6940C2382,6940 2381,6942 2343,6978C2321,6998 2292,7036 2280,7063C2268,7089 2254,7113 2249,7116C2244,7119 2240,7130 2240,7140C2240,7158 2245,7159 2318,7153C2372,7149 2404,7141 2426,7126ZM5334,7109C5593,7054 5847,6891 6033,6660C6066,6619 6103,6576 6114,6564C6126,6553 6155,6515 6180,6480C6205,6446 6240,6400 6257,6378C6316,6307 6460,6066 6460,6040C6460,6032 6471,6006 6484,5983C6509,5940 6540,5846 6540,5813C6540,5803 6547,5782 6555,5766C6564,5748 6570,5707 6571,5656C6572,5600 6574,5583 6580,5600C6587,5622 6588,5620 6589,5585C6589,5556 6587,5549 6580,5560C6573,5570 6570,5538 6570,5461C6570,5346 6542,5191 6503,5095C6470,5013 6420,4910 6405,4893C6397,4883 6363,4843 6331,4805C6214,4663 6049,4543 5915,4500C5893,4493 5873,4484 5870,4481C5863,4472 5729,4450 5683,4450C5622,4450 5610,4470 5610,4569C5610,4663 5630,4784 5656,4848C5672,4889 5692,4902 5795,4934C5836,4946 5959,5036 5995,5079C6081,5184 6126,5346 6117,5520C6111,5626 6104,5657 6056,5784C6002,5924 5864,6145 5771,6238C5762,6248 5743,6271 5729,6290C5677,6360 5553,6485 5484,6536C5271,6694 5060,6728 4860,6637C4700,6564 4559,6403 4512,6242C4489,6161 4490,5956 4514,5875C4554,5742 4643,5574 4750,5430C4781,5389 4814,5343 4823,5327C4833,5312 4908,5231 4991,5147L5142,4995L5130,4945C5109,4854 5091,4716 5091,4637C5090,4579 5086,4558 5075,4554C5057,4547 4917,4618 4837,4675C4704,4769 4666,4805 4542,4950C4343,5182 4156,5481 4105,5650C4095,5680 4082,5719 4075,5735C4059,5772 4043,5868 4032,5981C4025,6066 4039,6305 4054,6328C4058,6334 4063,6355 4065,6373C4068,6392 4076,6420 4085,6436C4093,6452 4100,6469 4100,6473C4100,6487 4160,6609 4188,6652C4273,6785 4383,6896 4505,6975C4726,7118 5048,7169 5334,7109ZM6057,5621C6072,5553 6065,5339 6046,5278C6036,5246 6024,5220 6019,5220C6014,5220 6010,5213 6010,5205C6010,5197 6005,5190 5998,5190C5980,5190 5870,5144 5818,5115C5692,5045 5600,4891 5578,4712C5566,4612 5577,4451 5601,4395C5608,4379 5613,4362 5612,4359C5610,4348 5750,4077 5773,4049C5785,4034 5826,3979 5864,3926C5902,3873 5936,3830 5941,3830C5945,3830 5951,3822 5954,3812C5963,3785 6145,3608 6230,3543C6363,3443 6502,3398 6653,3407C6701,3410 6743,3416 6746,3421C6749,3426 6760,3430 6771,3430C6782,3430 6824,3446 6866,3466C6947,3504 7046,3589 7096,3662C7112,3686 7128,3707 7131,3710C7147,3723 7171,3785 7191,3866C7209,3940 7212,3970 7206,4050C7194,4226 7151,4347 7036,4530C6996,4595 6942,4671 6918,4700C6911,4708 6884,4744 6859,4780C6811,4847 6616,5042 6586,5053C6564,5062 6568,5122 6598,5250C6609,5297 6621,5377 6625,5428C6634,5549 6644,5556 6737,5505C6864,5435 6992,5327 7122,5180C7253,5032 7297,4974 7407,4810C7487,4690 7555,4555 7586,4457C7600,4412 7616,4364 7622,4350C7639,4311 7650,4262 7660,4180C7665,4139 7672,4083 7676,4056C7686,3982 7650,3735 7618,3660C7608,3635 7595,3606 7591,3595C7564,3526 7513,3435 7478,3390C7468,3376 7443,3343 7423,3317C7368,3244 7209,3116 7111,3068C7064,3044 7023,3023 7020,3020C7010,3010 6940,2989 6818,2959C6708,2932 6682,2929 6575,2933C6494,2935 6428,2943 6372,2958C6326,2970 6281,2980 6272,2980C6248,2980 6076,3068 6010,3114C5896,3194 5634,3440 5573,3524C5552,3552 5533,3577 5530,3580C5498,3606 5344,3838 5313,3907C5299,3939 5283,3968 5278,3971C5268,3977 5220,4098 5220,4117C5220,4124 5216,4130 5211,4130C5206,4130 5204,4140 5208,4152C5211,4165 5209,4171 5203,4167C5192,4160 5172,4239 5164,4325C5160,4358 5151,4409 5143,4438C5132,4476 5130,4515 5134,4578C5145,4728 5185,4990 5199,5000C5202,5003 5219,5039 5234,5080C5312,5283 5484,5447 5747,5571C5844,5616 5943,5653 5995,5662C6033,5669 6049,5659 6057,5621Z" style="fill:rgb(64,64,64);"/>
    </g>
</svg>
