<?xml version="1.0" encoding="UTF-8" standalone="no"?>
<!DOCTYPE svg PUBLIC "-//W3C//DTD SVG 1.1//EN" "http://www.w3.org/Graphics/SVG/1.1/DTD/svg11.dtd">
<svg width="100%" height="100%" viewBox="0 0 130 130" version="1.1" xmlns="http://www.w3.org/2000/svg" xmlns:xlink="http://www.w3.org/1999/xlink" xml:space="preserve" xmlns:serif="http://www.serif.com/" style="fill-rule:evenodd;clip-rule:evenodd;stroke-linejoin:round;stroke-miterlimit:2;">
    <path d="M119.985,0L9.564,0C4.287,0 0,4.182 0,9.339L0,120.225C0,125.386 4.287,129.575 9.564,129.575L119.985,129.575C125.27,129.575 129.577,125.386 129.577,120.225L129.577,9.339C129.577,4.182 125.27,0 119.985,0ZM19.211,48.578L38.43,48.578L38.43,110.415L19.211,110.415L19.211,48.578ZM50.484,48.578L68.92,48.578L68.92,57.026L69.176,57.026C71.741,52.166 78.01,47.039 87.36,47.039C106.821,47.039 110.414,59.846 110.414,76.496L110.414,110.415L91.209,110.415L91.209,80.344C91.209,73.169 91.077,63.946 81.222,63.946C71.22,63.946 69.689,71.758 69.689,79.824L69.689,110.415L50.484,110.415L50.484,48.578ZM28.824,17.839C34.97,17.839 39.962,22.832 39.962,28.979C39.962,35.13 34.97,40.125 28.824,40.125C22.666,40.125 17.68,35.13 17.68,28.979C17.68,22.832 22.666,17.839 28.824,17.839Z" style="fill:rgb(255,157,78);fill-rule:nonzero;"/>
</svg>
