<?xml version="1.0" encoding="UTF-8" standalone="no"?>
<!DOCTYPE svg PUBLIC "-//W3C//DTD SVG 1.1//EN" "http://www.w3.org/Graphics/SVG/1.1/DTD/svg11.dtd">
<svg width="100%" height="100%" viewBox="0 0 493 493" version="1.1" xmlns="http://www.w3.org/2000/svg" xmlns:xlink="http://www.w3.org/1999/xlink" xml:space="preserve" xmlns:serif="http://www.serif.com/" style="fill-rule:evenodd;clip-rule:evenodd;">
    <g transform="matrix(1.02434,0,0,1.02434,-15.931,-15.9323)">
        <circle cx="256" cy="256" r="235" style="fill:rgb(115,115,115);"/>
    </g>
    <g transform="matrix(1.02434,0,0,1.02434,-15.931,-15.9323)">
        <path d="M255.56,20.008C193.186,20.125 133.39,44.93 89.26,89C-2.976,181.091 -3.093,330.52 88.998,422.75C181.088,514.986 330.518,515.103 422.748,423.012C514.984,330.921 515.101,181.492 423.01,89.262C378.633,44.815 318.37,19.891 255.56,20.008L255.56,20.008ZM257.841,21.014C317.775,21.499 377.231,44.823 422.301,89.967C514.002,181.812 513.886,330.607 422.042,422.307C376.12,468.158 301.722,468.1 255.872,422.178C210.021,376.256 210.079,301.858 256.001,256.008C302.413,209.669 302.472,134.478 256.131,88.068C219.047,50.927 161.674,41.515 115.471,66.41C157.887,34.869 208.182,20.612 257.841,21.014ZM67.001,151.274L107.001,151.274C116.944,193.421 132.205,230.692 147.751,267.704C163.651,226.378 180.954,186.455 203.001,151.274L243.001,151.274C194.073,248.638 140.811,315.334 219.001,401.274L179.001,401.274C131.434,324.031 96.562,253.604 67.001,151.274Z" style="fill-rule:nonzero;stroke:rgb(13,13,13);stroke-width:5px;"/>
    </g>
    <g transform="matrix(1.02434,0,0,1.02434,-15.931,-15.9323)">
        <path d="M293,110.72C371.194,196.656 317.928,263.36 269,360.72L309,360.72C331.047,325.541 348.35,285.618 364.25,244.29C379.796,281.3 395.057,318.572 405,360.72L445,360.72C415.439,258.39 380.567,187.96 333,110.72L293,110.72Z" style="fill-rule:nonzero;"/>
    </g>
</svg>
