<?xml version="1.0" encoding="UTF-8" standalone="no"?>
<!DOCTYPE svg PUBLIC "-//W3C//DTD SVG 1.1//EN" "http://www.w3.org/Graphics/SVG/1.1/DTD/svg11.dtd">
<svg width="100%" height="100%" viewBox="0 0 312 387" version="1.1" xmlns="http://www.w3.org/2000/svg" xmlns:xlink="http://www.w3.org/1999/xlink" xml:space="preserve" xmlns:serif="http://www.serif.com/" style="fill-rule:evenodd;clip-rule:evenodd;">
    <g transform="matrix(1,0,0,1,-16.3171,-14.0684)">
        <path d="M105.38,99.95C103.093,100.75 100.297,101.1 96.99,101C94.783,100.933 93.347,100.727 92.68,100.38C92.46,100.265 92.278,100.174 92.26,100.17L68.17,98.58C66.617,98.48 65.067,98.363 63.52,98.23L42.86,96.42" style="fill:none;fill-rule:nonzero;stroke:rgb(87,87,87);stroke-width:2px;"/>
    </g>
    <g transform="matrix(1,0,0,1,-16.3171,-14.0684)">
        <path d="M164.47,154.18C163.437,155.247 162.987,156.45 163.12,157.79C163.14,157.97 163.063,158.093 162.89,158.16C162.757,158.213 162.677,158.327 162.65,158.5C161.263,167.14 159.14,175.6 156.28,183.88C156.207,184.107 155.763,184.937 154.95,186.37C154.47,187.217 154.28,188.157 154.38,189.19C154.407,189.51 154.313,189.79 154.1,190.03C153.367,190.823 152.88,191.477 152.64,191.99C150.633,196.27 148.467,200.467 146.14,204.58C145.793,205.187 145.453,205.777 145.12,206.35C143.113,209.777 141.097,213.197 139.07,216.61C138.5,217.56 137.61,218.34 137.06,219.53C136.573,220.603 136.173,221.36 135.86,221.8C134.34,223.93 133.33,226.06 131.64,228.22C128.87,231.76 127.27,236.17 124.01,239.85C122.19,241.89 121.09,244.48 119.23,246.49C117.97,247.85 116.887,249.227 115.98,250.62C112.59,255.79 108.18,260.87 104.73,264.73C101.483,268.363 97.49,272.44 92.75,276.96" style="fill:none;fill-rule:nonzero;stroke:rgb(62,62,62);stroke-width:2px;"/>
    </g>
    <g transform="matrix(1,0,0,1,-16.3171,-14.0684)">
        <path d="M178.3,154.18L177.23,163.27C177.19,163.583 177.227,163.887 177.34,164.18C177.42,164.387 177.423,164.573 177.35,164.74C176.517,166.807 176,168.95 175.8,171.17C175.773,171.49 175.66,171.773 175.46,172.02C175.273,172.253 175.12,172.58 175,173C174.16,175.88 173.46,178.6 172.21,181.37C171.077,183.89 169.967,186.423 168.88,188.97C168.21,190.52 166.71,192.62 166.4,195.05C166.356,195.357 166.169,195.622 165.9,195.76C165.553,195.933 165.293,196.18 165.12,196.5C163.927,198.767 162.66,200.993 161.32,203.18C161.207,203.367 161.017,203.757 160.75,204.35C160.33,205.29 159.29,206.27 158.89,206.96C157.463,209.427 156.37,211.437 155.61,212.99C155.49,213.23 155.35,213.4 155.19,213.5C154.977,213.64 154.857,213.837 154.83,214.09C154.743,214.91 154.407,215.563 153.82,216.05C153.553,216.27 153.343,216.533 153.19,216.84C152.857,217.513 152.39,218.047 151.79,218.44C151.69,218.507 151.667,218.597 151.72,218.71C151.767,218.797 151.81,218.887 151.85,218.98C151.897,219.067 151.89,219.147 151.83,219.22L150,221.5C149.947,221.567 149.947,221.613 150,221.64C150.08,221.68 150.16,221.72 150.24,221.76C150.243,221.761 150.246,221.763 150.249,221.764C150.288,221.786 150.299,221.839 150.275,221.882C150.273,221.885 150.272,221.887 150.27,221.89L144.54,230.55C144.462,230.674 144.351,230.771 144.22,230.83C143.64,231.097 143.273,231.447 143.12,231.88C142.05,234.85 140.12,237.03 138.28,239.47C137.57,240.41 137.45,241.76 136.79,242.47C133.51,246.043 130.573,249.88 127.98,253.98C126.527,256.28 122.327,261.367 115.38,269.24C115.16,269.48 115.013,269.757 114.94,270.07C114.55,271.71 113.07,271.96 112.29,272.76C111.33,273.77 110.71,275.07 109.79,275.98C106.5,279.26 103.54,282.49 99.81,285.63C98.363,286.843 96.997,288.147 95.71,289.54C95.51,289.753 95.403,290.01 95.39,290.31C95.357,290.843 95.2,291.317 94.92,291.73C94.607,292.183 94.107,292.28 93.42,292.02" style="fill:none;fill-rule:nonzero;stroke:rgb(55,55,55);stroke-width:2px;"/>
    </g>
    <g transform="matrix(1,0,0,1,-16.3171,-14.0684)">
        <path d="M202.05,156.02C202.377,156.453 202.127,156.72 201.3,156.82C200.987,156.853 200.76,157.013 200.62,157.3C200.487,157.567 200.513,157.823 200.7,158.07C200.86,158.297 200.917,158.547 200.87,158.82C199.63,165.28 198.04,170.753 196.1,175.24C193.953,180.2 190.49,186.797 185.71,195.03C185.613,195.191 185.577,195.38 185.61,195.56C185.637,195.76 185.607,195.957 185.52,196.15C185.493,196.223 185.44,196.26 185.36,196.26C185.273,196.253 185.203,196.21 185.15,196.13C185.15,196.123 185.147,196.123 185.14,196.13L178.99,205.8C178.912,205.931 178.87,206.083 178.87,206.24C178.87,206.387 178.85,206.527 178.81,206.66C178.763,206.827 178.637,206.997 178.43,207.17C177.517,207.937 176.873,208.627 176.5,209.24C174.793,212.047 172.94,214.75 170.94,217.35C170.875,217.434 170.84,217.543 170.84,217.66L170.84,217.84C170.84,217.953 170.807,218.063 170.74,218.17C168.087,222.523 165.25,226.743 162.23,230.83C159.62,234.35 157.19,238.1 154.53,241.66C154.483,241.727 154.453,241.797 154.44,241.87C154.433,241.963 154.427,242.06 154.42,242.16C154.407,242.333 154.34,242.483 154.22,242.61C152.493,244.443 151.44,245.65 151.06,246.23C148.147,250.69 145.08,255.043 141.86,259.29C141.2,260.17 141.16,261.15 140.28,262.01C139.307,262.97 138.78,263.503 138.7,263.61C134.373,269.523 129.8,275.25 124.98,280.79C124.28,281.597 122.87,283.36 120.75,286.08C117.17,290.66 112.22,295.823 105.9,301.57C105.713,301.743 105.38,301.943 104.9,302.17C104.48,302.363 104.177,302.637 103.99,302.99C103.38,304.11 102.68,304.18 102.04,304.8C99.48,307.28 96.613,309.35 93.44,311.01" style="fill:none;fill-rule:nonzero;stroke:rgb(42,42,42);stroke-width:2px;"/>
    </g>
    <g transform="matrix(1,0,0,1,-16.3171,-14.0684)">
        <path d="M279.26,176.09C279.667,176.637 279.863,177.27 279.85,177.99C279.843,178.303 279.98,178.527 280.26,178.66C280.493,178.78 280.693,178.947 280.86,179.16C281.04,179.398 281.126,179.701 281.1,180.01C281,181.11 281.08,182.193 281.34,183.26C281.413,183.567 281.557,183.83 281.77,184.05C282.51,184.83 282.96,185.763 283.12,186.85C283.173,187.17 283.297,187.457 283.49,187.71C284.003,188.383 284.22,189.15 284.14,190.01C284.109,190.365 284.284,190.708 284.59,190.89C285.003,191.137 285.173,191.5 285.1,191.98C285.057,192.285 285.199,192.587 285.46,192.75C285.933,193.037 286.153,193.443 286.12,193.97C286.101,194.27 286.233,194.56 286.47,194.74C287.07,195.2 287.28,195.813 287.1,196.58C287.08,196.653 287.103,196.707 287.17,196.74L287.77,197.06C287.976,197.168 288.101,197.387 288.09,197.62C288.07,198.24 288.287,198.78 288.74,199.24C288.98,199.473 289.103,199.757 289.11,200.09C289.117,200.763 289.363,201.403 289.85,202.01C289.997,202.197 290.087,202.41 290.12,202.65C290.14,202.783 290.133,202.927 290.1,203.08C290.023,203.402 290.172,203.736 290.46,203.89C291.113,204.25 291.323,204.843 291.09,205.67C290.99,206.03 291.073,206.343 291.34,206.61L291.85,207.12C292.063,207.333 292.153,207.593 292.12,207.9C291.94,209.38 292.92,210.03 293.28,211.04C293.767,212.36 294.107,213.737 294.3,215.17C294.347,215.497 294.493,215.773 294.74,216C295.08,216.307 295.203,216.693 295.11,217.16C295.043,217.493 295.15,217.76 295.43,217.96C295.963,218.347 296.203,218.85 296.15,219.47C296.117,219.81 296.16,220.143 296.28,220.47C296.84,222.017 297.203,223.61 297.37,225.25C297.403,225.517 297.49,225.767 297.63,226C298.123,226.793 298.283,227.67 298.11,228.63C298.043,228.963 298.13,229.257 298.37,229.51C299.89,231.14 298.21,232.91 299.86,234.11C300.137,234.309 300.265,234.659 300.18,234.99C299.853,236.223 300.013,237.32 300.66,238.28C300.847,238.567 300.93,238.88 300.91,239.22C300.6,243.54 301.36,247.85 301.36,252.09C301.35,254.52 300.79,257.41 300.82,260.15C300.827,261.07 300.65,262.273 300.29,263.76C299.997,264.94 299.96,266.163 300.18,267.43C300.238,267.764 300.166,268.111 299.98,268.4C299.32,269.427 299,270.557 299.02,271.79C299.02,272.194 298.866,272.581 298.59,272.87C298.043,273.457 297.897,274.167 298.15,275C298.242,275.319 298.131,275.664 297.87,275.87C297.363,276.263 297.193,276.787 297.36,277.44C297.433,277.72 297.4,277.987 297.26,278.24C296.547,279.513 296.143,280.867 296.05,282.3C296.023,282.647 295.873,282.923 295.6,283.13C295.373,283.297 295.227,283.513 295.16,283.78C295.007,284.347 294.923,284.643 294.91,284.67C293.683,287.47 292.58,290.323 291.6,293.23C291.52,293.477 291.187,294.113 290.6,295.14C290.273,295.7 290.023,296.397 289.85,297.23C289.563,298.55 288.757,299.91 287.43,301.31C287.203,301.543 287.043,301.813 286.95,302.12C286.717,302.873 286.317,303.51 285.75,304.03C285.73,304.05 285.527,304.333 285.14,304.88C284.967,305.133 284.867,305.407 284.84,305.7C284.82,305.98 284.677,306.167 284.41,306.26C284.09,306.36 283.99,306.59 284.11,306.95C284.214,307.263 284.132,307.606 283.9,307.83L283.26,308.46C283.053,308.667 282.927,308.913 282.88,309.2C282.753,309.9 282.41,310.45 281.85,310.85C281.603,311.023 281.427,311.25 281.32,311.53C280.747,312.99 279.8,314.137 278.48,314.97C278.222,315.135 278.076,315.432 278.1,315.74C278.31,318.56 276.54,319.8 274.98,321.85C274.13,322.96 273.94,324.39 272.63,325.63C270.14,327.98 267.72,331.66 266.14,333.72C262.227,338.82 258.477,344.157 254.89,349.73" style="fill:none;fill-rule:nonzero;stroke:rgb(29,29,29);stroke-width:2px;"/>
    </g>
    <g transform="matrix(1,0,0,1,-16.3171,-14.0684)">
        <path d="M247.42,325.43C250.533,322.59 253.093,319.24 255.1,315.38C256.5,312.68 258.89,311.12 260.15,308.45C260.76,307.14 261.49,306 262.2,304.52C262.467,303.96 262.83,303.46 263.29,303.02C263.53,302.793 263.703,302.523 263.81,302.21C264.417,300.483 265.13,298.813 265.95,297.2C266.23,296.65 266.21,296.1 266.78,295.48C267.66,294.5 267.95,293.77 268.19,292.59C268.25,292.283 268.397,292.023 268.63,291.81C269.223,291.257 269.613,290.593 269.8,289.82C269.873,289.54 270.027,289.317 270.26,289.15C270.5,288.977 270.68,288.757 270.8,288.49C270.887,288.31 270.897,287.973 270.83,287.48C270.743,286.72 270.99,286.153 271.57,285.78C271.783,285.647 271.89,285.457 271.89,285.21L271.89,282.61C271.897,282.43 271.967,282.28 272.1,282.16L272.68,281.66C272.9,281.467 272.983,281.227 272.93,280.94C272.663,279.433 272.907,278.047 273.66,276.78C273.847,276.473 273.923,276.14 273.89,275.78C273.79,274.687 274.043,273.687 274.65,272.78C274.807,272.545 274.89,272.267 274.89,271.98L274.89,270.26C274.89,269.953 274.97,269.67 275.13,269.41C275.423,268.923 275.583,268.203 275.61,267.25C275.863,259.203 275.877,253.223 275.65,249.31C275.61,248.64 275.9,247.58 275.26,246.92C275.013,246.673 274.89,246.373 274.89,246.02L274.89,243.74C274.89,243.413 274.737,243.193 274.43,243.08C274.31,243.04 274.21,242.97 274.13,242.87C273.975,242.663 273.89,242.444 273.89,242.25L273.89,238.99C273.89,238.643 273.77,238.347 273.53,238.1C272.03,236.52 273.75,234.59 272.08,232.76C271.847,232.507 271.777,232.213 271.87,231.88C272.117,231.04 271.97,230.427 271.43,230.04C271.077,229.787 270.897,229.447 270.89,229.02L270.89,227.76C270.883,227.433 270.75,227.177 270.49,226.99C270.123,226.723 269.923,226.37 269.89,225.93C269.863,225.583 269.703,225.313 269.41,225.12C269.03,224.86 268.847,224.537 268.86,224.15C268.873,223.903 268.807,223.68 268.66,223.48C268.167,222.8 267.93,222.027 267.95,221.16C267.957,220.84 267.853,220.567 267.64,220.34C267.253,219.927 267.007,219.457 266.9,218.93C266.833,218.603 266.663,218.337 266.39,218.13C265.963,217.803 265.793,217.387 265.88,216.88C265.94,216.52 265.823,216.23 265.53,216.01C264.943,215.577 264.733,214.99 264.9,214.25C264.974,213.94 264.879,213.61 264.65,213.38L264.3,213.03C264.053,212.783 263.93,212.487 263.93,212.14C263.93,211.56 263.717,211.157 263.29,210.93C263.023,210.783 262.89,210.56 262.89,210.26L262.89,209.75C262.89,209.457 262.757,209.243 262.49,209.11C261.977,208.85 261.77,208.447 261.87,207.9C261.93,207.593 261.85,207.33 261.63,207.11L260.14,205.63C259.921,205.411 259.823,205.099 259.88,204.8C259.96,204.4 259.833,204.167 259.5,204.1C259.167,204.027 258.987,203.82 258.96,203.48C258.873,202.38 258.327,201.563 257.32,201.03C257.061,200.888 256.9,200.615 256.9,200.32L256.89,198.75C256.883,198.457 256.75,198.243 256.49,198.11C255.963,197.843 255.76,197.43 255.88,196.87C255.94,196.583 255.847,196.357 255.6,196.19C255.087,195.837 254.847,195.363 254.88,194.77C254.9,194.47 254.777,194.253 254.51,194.12C253.95,193.84 253.743,193.403 253.89,192.81C253.977,192.463 253.87,192.2 253.57,192.02C253.063,191.72 252.837,191.293 252.89,190.74C252.917,190.427 252.783,190.213 252.49,190.1C252.037,189.92 251.833,189.583 251.88,189.09C251.92,188.75 251.807,188.47 251.54,188.25C250.833,187.663 250.34,186.937 250.06,186.07C250.027,185.951 249.965,185.842 249.88,185.75L247.51,183.03C247.303,182.79 247.197,182.513 247.19,182.2L247.04,176.78C247.04,176.62 246.963,176.56 246.81,176.6C246.57,176.667 246.363,176.613 246.19,176.44C246.173,176.425 246.163,176.403 246.163,176.38C246.163,176.357 246.173,176.335 246.19,176.32C246.25,176.26 246.31,176.2 246.37,176.14C246.503,175.987 246.47,175.91 246.27,175.91C245.497,175.91 244.873,175.587 244.4,174.94C244.2,174.667 243.937,174.497 243.61,174.43C242.897,174.283 242.397,173.893 242.11,173.26C241.977,172.953 241.76,172.727 241.46,172.58L239.36,171.53C239.067,171.383 238.753,171.317 238.42,171.33C236.48,171.44 234.77,171.34 233.01,172.34C231.997,172.913 230.99,173.5 229.99,174.1C229.49,174.4 228.957,174.313 228.39,173.84C228.17,173.66 227.937,173.633 227.69,173.76C227.497,173.86 227.3,173.903 227.1,173.89C226.82,173.87 226.79,173.77 227.01,173.59L230.19,171.01C230.457,170.79 230.427,170.63 230.1,170.53C228.587,170.077 227.437,170.427 226.65,171.58C226.45,171.873 226.217,172.133 225.95,172.36L223.09,174.81C222.914,174.954 222.678,175.003 222.46,174.94C222.22,174.86 221.99,174.89 221.77,175.03C220.843,175.597 220.06,176.33 219.42,177.23C219.353,177.33 219.38,177.38 219.5,177.38L219.76,177.38C219.896,177.382 220.007,177.494 220.007,177.63C220.007,177.693 219.983,177.754 219.94,177.8C214.81,183.39 210.65,188.95 205.97,193.95C205.297,194.67 204.587,195.537 203.84,196.55C202.18,198.8 199.98,201.03 198.53,203.04C194.323,208.873 189.863,214.487 185.15,219.88C183.757,221.473 181.37,224.513 177.99,229C177.623,229.487 177.397,229.89 177.31,230.21C177.243,230.463 177.13,230.697 176.97,230.91C174.31,234.363 171.69,237.847 169.11,241.36C169.023,241.487 168.92,241.57 168.8,241.61C168.593,241.67 168.433,241.793 168.32,241.98C166.753,244.56 165.043,247.033 163.19,249.4C163.143,249.467 163.12,249.537 163.12,249.61L163.12,249.87C163.12,250.123 163.033,250.343 162.86,250.53C160.573,252.97 158.537,255.6 156.75,258.42C156.15,259.36 155.83,260.92 154.88,261.81C153.707,262.917 153.057,263.557 152.93,263.73C151.33,265.99 149.767,268.273 148.24,270.58C148.167,270.687 148.13,270.803 148.13,270.93C148.13,271.037 148.123,271.137 148.11,271.23C148.097,271.37 148.033,271.503 147.92,271.63C144.373,275.737 141.027,280 137.88,284.42C133.82,290.13 129.23,295.72 125.45,299.71C124.557,300.657 123.94,301.42 123.6,302C123.433,302.287 123.2,302.497 122.9,302.63C121.89,303.09 121.47,304.32 120.85,304.91C116.8,308.74 113.05,313.35 108.48,316.54C108.407,316.6 108.413,316.64 108.5,316.66C108.587,316.687 108.67,316.717 108.75,316.75C108.786,316.772 108.808,316.811 108.808,316.853C108.808,316.886 108.794,316.917 108.77,316.94L96.16,327.37" style="fill:none;fill-rule:nonzero;stroke:rgb(35,35,35);stroke-width:2px;"/>
    </g>
    <g transform="matrix(1,0,0,1,-16.3171,-14.0684)">
        <path d="M314.42,301.72L314.17,301.65C313.963,301.59 313.86,301.667 313.86,301.88C313.86,301.967 313.863,302.053 313.87,302.14C313.877,302.22 313.857,302.293 313.81,302.36C311.99,304.773 310.85,306.323 310.39,307.01C310.25,307.21 310.163,307.467 310.13,307.78C310.091,308.087 309.959,308.379 309.75,308.62C309.057,309.407 308.503,310.28 308.09,311.24C307.97,311.527 307.78,311.757 307.52,311.93C306.34,312.76 306.07,314.22 305.43,315.07C304.17,316.75 303,318.487 301.92,320.28C301.32,321.273 300.623,322.18 299.83,323C299.06,323.8 298.91,324.62 298.17,325.48C297.603,326.127 297.173,326.717 296.88,327.25C296.253,328.39 295.413,329.367 294.36,330.18C293.94,330.5 293.86,330.95 293.86,331.45C293.854,331.705 293.746,331.95 293.56,332.13L290.78,334.84C290.533,335.08 290.397,335.37 290.37,335.71C290.317,336.343 290.023,336.813 289.49,337.12C289.197,337.287 289.003,337.527 288.91,337.84C288.623,338.813 288.043,339.617 287.17,340.25" style="fill:none;fill-rule:nonzero;stroke:rgb(22,22,22);stroke-width:2px;"/>
    </g>
    <g transform="matrix(1,0,0,1,-16.3171,-14.0684)">
        <path d="M105.38,99.95C103.093,100.75 100.297,101.1 96.99,101C94.783,100.933 93.347,100.727 92.68,100.38C92.46,100.265 92.278,100.174 92.26,100.17L68.17,98.58C66.617,98.48 65.067,98.363 63.52,98.23L42.86,96.42L46.42,90.52C46.58,90.253 46.66,89.967 46.66,89.66L46.71,82.2C46.709,81.879 46.473,81.605 46.16,81.56C35.48,79.97 14.94,73.44 16.39,58.99C17.057,52.417 20.68,48.79 27.26,48.11C29.79,47.85 32.56,48.25 35.17,47.39C38.617,46.25 41.79,44.59 44.69,42.41C46.63,40.95 46.59,39.75 46.59,37.5C46.58,30.58 46.26,21 43.11,14.71C42.897,14.29 43.013,14.16 43.46,14.32C49.687,16.587 54.863,20.283 58.99,25.41C59.337,25.837 59.507,25.773 59.5,25.22L59.4,14.47C59.4,14.448 59.402,14.426 59.406,14.404C59.441,14.188 59.645,14.039 59.856,14.073C59.878,14.077 59.899,14.083 59.92,14.09C94.26,25.94 102.58,69.01 105.38,99.95Z" style="fill:rgb(109,109,109);fill-rule:nonzero;"/>
    </g>
    <g transform="matrix(1,0,0,1,-16.3171,-14.0684)">
        <path d="M42.86,96.42L63.52,98.23C65.067,98.363 66.617,98.48 68.17,98.58L92.26,100.17C92.278,100.174 92.46,100.265 92.68,100.38C93.347,100.727 94.783,100.933 96.99,101C100.297,101.1 103.093,100.75 105.38,99.95L110.47,153.61C110.51,153.983 110.713,154.17 111.08,154.17L164.47,154.18C163.437,155.247 162.987,156.45 163.12,157.79C163.14,157.97 163.063,158.093 162.89,158.16C162.757,158.213 162.677,158.327 162.65,158.5C161.263,167.14 159.14,175.6 156.28,183.88C156.207,184.107 155.763,184.937 154.95,186.37C154.47,187.217 154.28,188.157 154.38,189.19C154.407,189.51 154.313,189.79 154.1,190.03C153.367,190.823 152.88,191.477 152.64,191.99C150.633,196.27 148.467,200.467 146.14,204.58C145.793,205.187 145.453,205.777 145.12,206.35C143.113,209.777 141.097,213.197 139.07,216.61C138.5,217.56 137.61,218.34 137.06,219.53C136.573,220.603 136.173,221.36 135.86,221.8C134.34,223.93 133.33,226.06 131.64,228.22C128.87,231.76 127.27,236.17 124.01,239.85C122.19,241.89 121.09,244.48 119.23,246.49C117.97,247.85 116.887,249.227 115.98,250.62C112.59,255.79 108.18,260.87 104.73,264.73C101.483,268.363 97.49,272.44 92.75,276.96C74.14,266.84 52.07,247.55 51.22,224.99C50.933,217.497 50.85,210 50.97,202.5C50.98,201.79 50.69,200.88 50.24,200.19C40.84,185.75 42.21,168.93 42.31,152.5C42.32,151.04 42.37,150.05 41.83,148.6C39.463,142.3 38.283,135.433 38.29,128C38.303,116.44 39.827,105.913 42.86,96.42Z" style="fill:rgb(66,66,66);fill-rule:nonzero;"/>
    </g>
    <g transform="matrix(1,0,0,1,-16.3171,-14.0684)">
        <path d="M178.3,154.18L177.23,163.27C177.19,163.583 177.227,163.887 177.34,164.18C177.42,164.387 177.423,164.573 177.35,164.74C176.517,166.807 176,168.95 175.8,171.17C175.773,171.49 175.66,171.773 175.46,172.02C175.273,172.253 175.12,172.58 175,173C174.16,175.88 173.46,178.6 172.21,181.37C171.077,183.89 169.967,186.423 168.88,188.97C168.21,190.52 166.71,192.62 166.4,195.05C166.356,195.357 166.169,195.622 165.9,195.76C165.553,195.933 165.293,196.18 165.12,196.5C163.927,198.767 162.66,200.993 161.32,203.18C161.207,203.367 161.017,203.757 160.75,204.35C160.33,205.29 159.29,206.27 158.89,206.96C157.463,209.427 156.37,211.437 155.61,212.99C155.49,213.23 155.35,213.4 155.19,213.5C154.977,213.64 154.857,213.837 154.83,214.09C154.743,214.91 154.407,215.563 153.82,216.05C153.553,216.27 153.343,216.533 153.19,216.84C152.857,217.513 152.39,218.047 151.79,218.44C151.69,218.507 151.667,218.597 151.72,218.71C151.767,218.797 151.81,218.887 151.85,218.98C151.897,219.067 151.89,219.147 151.83,219.22L150,221.5C149.947,221.567 149.947,221.613 150,221.64C150.08,221.68 150.16,221.72 150.24,221.76C150.243,221.761 150.246,221.763 150.249,221.764C150.288,221.786 150.299,221.839 150.275,221.882C150.273,221.885 150.272,221.887 150.27,221.89L144.54,230.55C144.462,230.674 144.351,230.771 144.22,230.83C143.64,231.097 143.273,231.447 143.12,231.88C142.05,234.85 140.12,237.03 138.28,239.47C137.57,240.41 137.45,241.76 136.79,242.47C133.51,246.043 130.573,249.88 127.98,253.98C126.527,256.28 122.327,261.367 115.38,269.24C115.16,269.48 115.013,269.757 114.94,270.07C114.55,271.71 113.07,271.96 112.29,272.76C111.33,273.77 110.71,275.07 109.79,275.98C106.5,279.26 103.54,282.49 99.81,285.63C98.363,286.843 96.997,288.147 95.71,289.54C95.51,289.753 95.403,290.01 95.39,290.31C95.357,290.843 95.2,291.317 94.92,291.73C94.607,292.183 94.107,292.28 93.42,292.02C93.4,287.613 93.373,283.19 93.34,278.75C93.333,277.783 93.137,277.187 92.75,276.96C97.49,272.44 101.483,268.363 104.73,264.73C108.18,260.87 112.59,255.79 115.98,250.62C116.887,249.227 117.97,247.85 119.23,246.49C121.09,244.48 122.19,241.89 124.01,239.85C127.27,236.17 128.87,231.76 131.64,228.22C133.33,226.06 134.34,223.93 135.86,221.8C136.173,221.36 136.573,220.603 137.06,219.53C137.61,218.34 138.5,217.56 139.07,216.61C141.097,213.197 143.113,209.777 145.12,206.35C145.453,205.777 145.793,205.187 146.14,204.58C148.467,200.467 150.633,196.27 152.64,191.99C152.88,191.477 153.367,190.823 154.1,190.03C154.313,189.79 154.407,189.51 154.38,189.19C154.28,188.157 154.47,187.217 154.95,186.37C155.763,184.937 156.207,184.107 156.28,183.88C159.14,175.6 161.263,167.14 162.65,158.5C162.677,158.327 162.757,158.213 162.89,158.16C163.063,158.093 163.14,157.97 163.12,157.79C162.987,156.45 163.437,155.247 164.47,154.18L178.3,154.18Z" style="fill:rgb(58,58,58);fill-rule:nonzero;"/>
    </g>
    <g transform="matrix(1,0,0,1,-16.3171,-14.0684)">
        <path d="M202.05,156.02C202.377,156.453 202.127,156.72 201.3,156.82C200.987,156.853 200.76,157.013 200.62,157.3C200.487,157.567 200.513,157.823 200.7,158.07C200.86,158.297 200.917,158.547 200.87,158.82C199.63,165.28 198.04,170.753 196.1,175.24C193.953,180.2 190.49,186.797 185.71,195.03C185.613,195.191 185.577,195.38 185.61,195.56C185.637,195.76 185.607,195.957 185.52,196.15C185.493,196.223 185.44,196.26 185.36,196.26C185.273,196.253 185.203,196.21 185.15,196.13C185.15,196.123 185.147,196.123 185.14,196.13L178.99,205.8C178.912,205.931 178.87,206.083 178.87,206.24C178.87,206.387 178.85,206.527 178.81,206.66C178.763,206.827 178.637,206.997 178.43,207.17C177.517,207.937 176.873,208.627 176.5,209.24C174.793,212.047 172.94,214.75 170.94,217.35C170.875,217.434 170.84,217.543 170.84,217.66L170.84,217.84C170.84,217.953 170.807,218.063 170.74,218.17C168.087,222.523 165.25,226.743 162.23,230.83C159.62,234.35 157.19,238.1 154.53,241.66C154.483,241.727 154.453,241.797 154.44,241.87C154.433,241.963 154.427,242.06 154.42,242.16C154.407,242.333 154.34,242.483 154.22,242.61C152.493,244.443 151.44,245.65 151.06,246.23C148.147,250.69 145.08,255.043 141.86,259.29C141.2,260.17 141.16,261.15 140.28,262.01C139.307,262.97 138.78,263.503 138.7,263.61C134.373,269.523 129.8,275.25 124.98,280.79C124.28,281.597 122.87,283.36 120.75,286.08C117.17,290.66 112.22,295.823 105.9,301.57C105.713,301.743 105.38,301.943 104.9,302.17C104.48,302.363 104.177,302.637 103.99,302.99C103.38,304.11 102.68,304.18 102.04,304.8C99.48,307.28 96.613,309.35 93.44,311.01L93.42,292.02C94.107,292.28 94.607,292.183 94.92,291.73C95.2,291.317 95.357,290.843 95.39,290.31C95.403,290.01 95.51,289.753 95.71,289.54C96.997,288.147 98.363,286.843 99.81,285.63C103.54,282.49 106.5,279.26 109.79,275.98C110.71,275.07 111.33,273.77 112.29,272.76C113.07,271.96 114.55,271.71 114.94,270.07C115.013,269.757 115.16,269.48 115.38,269.24C122.327,261.367 126.527,256.28 127.98,253.98C130.573,249.88 133.51,246.043 136.79,242.47C137.45,241.76 137.57,240.41 138.28,239.47C140.12,237.03 142.05,234.85 143.12,231.88C143.273,231.447 143.64,231.097 144.22,230.83C144.351,230.771 144.462,230.674 144.54,230.55L150.27,221.89C150.272,221.887 150.273,221.885 150.275,221.882C150.299,221.839 150.288,221.786 150.249,221.764C150.246,221.763 150.243,221.761 150.24,221.76C150.16,221.72 150.08,221.68 150,221.64C149.947,221.613 149.947,221.567 150,221.5L151.83,219.22C151.89,219.147 151.897,219.067 151.85,218.98C151.81,218.887 151.767,218.797 151.72,218.71C151.667,218.597 151.69,218.507 151.79,218.44C152.39,218.047 152.857,217.513 153.19,216.84C153.343,216.533 153.553,216.27 153.82,216.05C154.407,215.563 154.743,214.91 154.83,214.09C154.857,213.837 154.977,213.64 155.19,213.5C155.35,213.4 155.49,213.23 155.61,212.99C156.37,211.437 157.463,209.427 158.89,206.96C159.29,206.27 160.33,205.29 160.75,204.35C161.017,203.757 161.207,203.367 161.32,203.18C162.66,200.993 163.927,198.767 165.12,196.5C165.293,196.18 165.553,195.933 165.9,195.76C166.169,195.622 166.356,195.357 166.4,195.05C166.71,192.62 168.21,190.52 168.88,188.97C169.967,186.423 171.077,183.89 172.21,181.37C173.46,178.6 174.16,175.88 175,173C175.12,172.58 175.273,172.253 175.46,172.02C175.66,171.773 175.773,171.49 175.8,171.17C176,168.95 176.517,166.807 177.35,164.74C177.423,164.573 177.42,164.387 177.34,164.18C177.227,163.887 177.19,163.583 177.23,163.27L178.3,154.18L202.05,156.02Z" style="fill:rgb(50,50,50);fill-rule:nonzero;"/>
    </g>
    <g transform="matrix(1,0,0,1,-16.3171,-14.0684)">
        <path d="M202.05,156.02C216.15,157.42 231.57,160.39 244.52,166.26C256.06,171.49 265.54,178.52 279.26,176.09C279.667,176.637 279.863,177.27 279.85,177.99C279.843,178.303 279.98,178.527 280.26,178.66C280.493,178.78 280.693,178.947 280.86,179.16C281.04,179.398 281.126,179.701 281.1,180.01C281,181.11 281.08,182.193 281.34,183.26C281.413,183.567 281.557,183.83 281.77,184.05C282.51,184.83 282.96,185.763 283.12,186.85C283.173,187.17 283.297,187.457 283.49,187.71C284.003,188.383 284.22,189.15 284.14,190.01C284.109,190.365 284.284,190.708 284.59,190.89C285.003,191.137 285.173,191.5 285.1,191.98C285.057,192.285 285.199,192.587 285.46,192.75C285.933,193.037 286.153,193.443 286.12,193.97C286.101,194.27 286.233,194.56 286.47,194.74C287.07,195.2 287.28,195.813 287.1,196.58C287.08,196.653 287.103,196.707 287.17,196.74L287.77,197.06C287.976,197.168 288.101,197.387 288.09,197.62C288.07,198.24 288.287,198.78 288.74,199.24C288.98,199.473 289.103,199.757 289.11,200.09C289.117,200.763 289.363,201.403 289.85,202.01C289.997,202.197 290.087,202.41 290.12,202.65C290.14,202.783 290.133,202.927 290.1,203.08C290.023,203.402 290.172,203.736 290.46,203.89C291.113,204.25 291.323,204.843 291.09,205.67C290.99,206.03 291.073,206.343 291.34,206.61L291.85,207.12C292.063,207.333 292.153,207.593 292.12,207.9C291.94,209.38 292.92,210.03 293.28,211.04C293.767,212.36 294.107,213.737 294.3,215.17C294.347,215.497 294.493,215.773 294.74,216C295.08,216.307 295.203,216.693 295.11,217.16C295.043,217.493 295.15,217.76 295.43,217.96C295.963,218.347 296.203,218.85 296.15,219.47C296.117,219.81 296.16,220.143 296.28,220.47C296.84,222.017 297.203,223.61 297.37,225.25C297.403,225.517 297.49,225.767 297.63,226C298.123,226.793 298.283,227.67 298.11,228.63C298.043,228.963 298.13,229.257 298.37,229.51C299.89,231.14 298.21,232.91 299.86,234.11C300.137,234.309 300.265,234.659 300.18,234.99C299.853,236.223 300.013,237.32 300.66,238.28C300.847,238.567 300.93,238.88 300.91,239.22C300.6,243.54 301.36,247.85 301.36,252.09C301.35,254.52 300.79,257.41 300.82,260.15C300.827,261.07 300.65,262.273 300.29,263.76C299.997,264.94 299.96,266.163 300.18,267.43C300.238,267.764 300.166,268.111 299.98,268.4C299.32,269.427 299,270.557 299.02,271.79C299.02,272.194 298.866,272.581 298.59,272.87C298.043,273.457 297.897,274.167 298.15,275C298.242,275.319 298.131,275.664 297.87,275.87C297.363,276.263 297.193,276.787 297.36,277.44C297.433,277.72 297.4,277.987 297.26,278.24C296.547,279.513 296.143,280.867 296.05,282.3C296.023,282.647 295.873,282.923 295.6,283.13C295.373,283.297 295.227,283.513 295.16,283.78C295.007,284.347 294.923,284.643 294.91,284.67C293.683,287.47 292.58,290.323 291.6,293.23C291.52,293.477 291.187,294.113 290.6,295.14C290.273,295.7 290.023,296.397 289.85,297.23C289.563,298.55 288.757,299.91 287.43,301.31C287.203,301.543 287.043,301.813 286.95,302.12C286.717,302.873 286.317,303.51 285.75,304.03C285.73,304.05 285.527,304.333 285.14,304.88C284.967,305.133 284.867,305.407 284.84,305.7C284.82,305.98 284.677,306.167 284.41,306.26C284.09,306.36 283.99,306.59 284.11,306.95C284.214,307.263 284.132,307.606 283.9,307.83L283.26,308.46C283.053,308.667 282.927,308.913 282.88,309.2C282.753,309.9 282.41,310.45 281.85,310.85C281.603,311.023 281.427,311.25 281.32,311.53C280.747,312.99 279.8,314.137 278.48,314.97C278.222,315.135 278.076,315.432 278.1,315.74C278.31,318.56 276.54,319.8 274.98,321.85C274.13,322.96 273.94,324.39 272.63,325.63C270.14,327.98 267.72,331.66 266.14,333.72C262.227,338.82 258.477,344.157 254.89,349.73C254.877,340.29 252.387,332.19 247.42,325.43C250.533,322.59 253.093,319.24 255.1,315.38C256.5,312.68 258.89,311.12 260.15,308.45C260.76,307.14 261.49,306 262.2,304.52C262.467,303.96 262.83,303.46 263.29,303.02C263.53,302.793 263.703,302.523 263.81,302.21C264.417,300.483 265.13,298.813 265.95,297.2C266.23,296.65 266.21,296.1 266.78,295.48C267.66,294.5 267.95,293.77 268.19,292.59C268.25,292.283 268.397,292.023 268.63,291.81C269.223,291.257 269.613,290.593 269.8,289.82C269.873,289.54 270.027,289.317 270.26,289.15C270.5,288.977 270.68,288.757 270.8,288.49C270.887,288.31 270.897,287.973 270.83,287.48C270.743,286.72 270.99,286.153 271.57,285.78C271.783,285.647 271.89,285.457 271.89,285.21L271.89,282.61C271.897,282.43 271.967,282.28 272.1,282.16L272.68,281.66C272.9,281.467 272.983,281.227 272.93,280.94C272.663,279.433 272.907,278.047 273.66,276.78C273.847,276.473 273.923,276.14 273.89,275.78C273.79,274.687 274.043,273.687 274.65,272.78C274.807,272.545 274.89,272.267 274.89,271.98L274.89,270.26C274.89,269.953 274.97,269.67 275.13,269.41C275.423,268.923 275.583,268.203 275.61,267.25C275.863,259.203 275.877,253.223 275.65,249.31C275.61,248.64 275.9,247.58 275.26,246.92C275.013,246.673 274.89,246.373 274.89,246.02L274.89,243.74C274.89,243.413 274.737,243.193 274.43,243.08C274.31,243.04 274.21,242.97 274.13,242.87C273.975,242.663 273.89,242.444 273.89,242.25L273.89,238.99C273.89,238.643 273.77,238.347 273.53,238.1C272.03,236.52 273.75,234.59 272.08,232.76C271.847,232.507 271.777,232.213 271.87,231.88C272.117,231.04 271.97,230.427 271.43,230.04C271.077,229.787 270.897,229.447 270.89,229.02L270.89,227.76C270.883,227.433 270.75,227.177 270.49,226.99C270.123,226.723 269.923,226.37 269.89,225.93C269.863,225.583 269.703,225.313 269.41,225.12C269.03,224.86 268.847,224.537 268.86,224.15C268.873,223.903 268.807,223.68 268.66,223.48C268.167,222.8 267.93,222.027 267.95,221.16C267.957,220.84 267.853,220.567 267.64,220.34C267.253,219.927 267.007,219.457 266.9,218.93C266.833,218.603 266.663,218.337 266.39,218.13C265.963,217.803 265.793,217.387 265.88,216.88C265.94,216.52 265.823,216.23 265.53,216.01C264.943,215.577 264.733,214.99 264.9,214.25C264.974,213.94 264.879,213.61 264.65,213.38L264.3,213.03C264.053,212.783 263.93,212.487 263.93,212.14C263.93,211.56 263.717,211.157 263.29,210.93C263.023,210.783 262.89,210.56 262.89,210.26L262.89,209.75C262.89,209.457 262.757,209.243 262.49,209.11C261.977,208.85 261.77,208.447 261.87,207.9C261.93,207.593 261.85,207.33 261.63,207.11L260.14,205.63C259.921,205.411 259.823,205.099 259.88,204.8C259.96,204.4 259.833,204.167 259.5,204.1C259.167,204.027 258.987,203.82 258.96,203.48C258.873,202.38 258.327,201.563 257.32,201.03C257.061,200.888 256.9,200.615 256.9,200.32L256.89,198.75C256.883,198.457 256.75,198.243 256.49,198.11C255.963,197.843 255.76,197.43 255.88,196.87C255.94,196.583 255.847,196.357 255.6,196.19C255.087,195.837 254.847,195.363 254.88,194.77C254.9,194.47 254.777,194.253 254.51,194.12C253.95,193.84 253.743,193.403 253.89,192.81C253.977,192.463 253.87,192.2 253.57,192.02C253.063,191.72 252.837,191.293 252.89,190.74C252.917,190.427 252.783,190.213 252.49,190.1C252.037,189.92 251.833,189.583 251.88,189.09C251.92,188.75 251.807,188.47 251.54,188.25C250.833,187.663 250.34,186.937 250.06,186.07C250.027,185.951 249.965,185.842 249.88,185.75L247.51,183.03C247.303,182.79 247.197,182.513 247.19,182.2L247.04,176.78C247.04,176.62 246.963,176.56 246.81,176.6C246.57,176.667 246.363,176.613 246.19,176.44C246.173,176.425 246.163,176.403 246.163,176.38C246.163,176.357 246.173,176.335 246.19,176.32C246.25,176.26 246.31,176.2 246.37,176.14C246.503,175.987 246.47,175.91 246.27,175.91C245.497,175.91 244.873,175.587 244.4,174.94C244.2,174.667 243.937,174.497 243.61,174.43C242.897,174.283 242.397,173.893 242.11,173.26C241.977,172.953 241.76,172.727 241.46,172.58L239.36,171.53C239.067,171.383 238.753,171.317 238.42,171.33C236.48,171.44 234.77,171.34 233.01,172.34C231.997,172.913 230.99,173.5 229.99,174.1C229.49,174.4 228.957,174.313 228.39,173.84C228.17,173.66 227.937,173.633 227.69,173.76C227.497,173.86 227.3,173.903 227.1,173.89C226.82,173.87 226.79,173.77 227.01,173.59L230.19,171.01C230.457,170.79 230.427,170.63 230.1,170.53C228.587,170.077 227.437,170.427 226.65,171.58C226.45,171.873 226.217,172.133 225.95,172.36L223.09,174.81C222.914,174.954 222.678,175.003 222.46,174.94C222.22,174.86 221.99,174.89 221.77,175.03C220.843,175.597 220.06,176.33 219.42,177.23C219.353,177.33 219.38,177.38 219.5,177.38L219.76,177.38C219.896,177.382 220.007,177.494 220.007,177.63C220.007,177.693 219.983,177.754 219.94,177.8C214.81,183.39 210.65,188.95 205.97,193.95C205.297,194.67 204.587,195.537 203.84,196.55C202.18,198.8 199.98,201.03 198.53,203.04C194.323,208.873 189.863,214.487 185.15,219.88C183.757,221.473 181.37,224.513 177.99,229C177.623,229.487 177.397,229.89 177.31,230.21C177.243,230.463 177.13,230.697 176.97,230.91C174.31,234.363 171.69,237.847 169.11,241.36C169.023,241.487 168.92,241.57 168.8,241.61C168.593,241.67 168.433,241.793 168.32,241.98C166.753,244.56 165.043,247.033 163.19,249.4C163.143,249.467 163.12,249.537 163.12,249.61L163.12,249.87C163.12,250.123 163.033,250.343 162.86,250.53C160.573,252.97 158.537,255.6 156.75,258.42C156.15,259.36 155.83,260.92 154.88,261.81C153.707,262.917 153.057,263.557 152.93,263.73C151.33,265.99 149.767,268.273 148.24,270.58C148.167,270.687 148.13,270.803 148.13,270.93C148.13,271.037 148.123,271.137 148.11,271.23C148.097,271.37 148.033,271.503 147.92,271.63C144.373,275.737 141.027,280 137.88,284.42C133.82,290.13 129.23,295.72 125.45,299.71C124.557,300.657 123.94,301.42 123.6,302C123.433,302.287 123.2,302.497 122.9,302.63C121.89,303.09 121.47,304.32 120.85,304.91C116.8,308.74 113.05,313.35 108.48,316.54C108.407,316.6 108.413,316.64 108.5,316.66C108.587,316.687 108.67,316.717 108.75,316.75C108.786,316.772 108.808,316.811 108.808,316.853C108.808,316.886 108.794,316.917 108.77,316.94L96.16,327.37L93.44,311.01C96.613,309.35 99.48,307.28 102.04,304.8C102.68,304.18 103.38,304.11 103.99,302.99C104.177,302.637 104.48,302.363 104.9,302.17C105.38,301.943 105.713,301.743 105.9,301.57C112.22,295.823 117.17,290.66 120.75,286.08C122.87,283.36 124.28,281.597 124.98,280.79C129.8,275.25 134.373,269.523 138.7,263.61C138.78,263.503 139.307,262.97 140.28,262.01C141.16,261.15 141.2,260.17 141.86,259.29C145.08,255.043 148.147,250.69 151.06,246.23C151.44,245.65 152.493,244.443 154.22,242.61C154.34,242.483 154.407,242.333 154.42,242.16C154.427,242.06 154.433,241.963 154.44,241.87C154.453,241.797 154.483,241.727 154.53,241.66C157.19,238.1 159.62,234.35 162.23,230.83C165.25,226.743 168.087,222.523 170.74,218.17C170.807,218.063 170.84,217.953 170.84,217.84L170.84,217.66C170.84,217.543 170.875,217.434 170.94,217.35C172.94,214.75 174.793,212.047 176.5,209.24C176.873,208.627 177.517,207.937 178.43,207.17C178.637,206.997 178.763,206.827 178.81,206.66C178.85,206.527 178.87,206.387 178.87,206.24C178.87,206.083 178.912,205.931 178.99,205.8L185.14,196.13C185.147,196.123 185.15,196.123 185.15,196.13C185.203,196.21 185.273,196.253 185.36,196.26C185.44,196.26 185.493,196.223 185.52,196.15C185.607,195.957 185.637,195.76 185.61,195.56C185.577,195.38 185.613,195.191 185.71,195.03C190.49,186.797 193.953,180.2 196.1,175.24C198.04,170.753 199.63,165.28 200.87,158.82C200.917,158.547 200.86,158.297 200.7,158.07C200.513,157.823 200.487,157.567 200.62,157.3C200.76,157.013 200.987,156.853 201.3,156.82C202.127,156.72 202.377,156.453 202.05,156.02Z" style="fill:rgb(32,32,32);fill-rule:nonzero;"/>
    </g>
    <g transform="matrix(1,0,0,1,-16.3171,-14.0684)">
        <path d="M247.42,325.43C243.41,320.4 238.01,315.77 235.39,310.45C232.61,304.81 232.62,297.06 233.62,290.96C233.628,290.917 233.63,290.873 233.626,290.829C233.603,290.545 233.345,290.331 233.055,290.355C233.013,290.358 232.971,290.367 232.93,290.38C206.54,299.66 176.36,302.42 149.21,294.48C149.168,294.468 149.124,294.461 149.08,294.461C148.828,294.461 148.621,294.668 148.62,294.92C148.607,307.273 147.773,319.627 146.12,331.98C145.327,337.887 143.71,343.263 141.27,348.11C140.597,349.443 140.257,350.78 140.25,352.12C140.203,359.107 140.173,366.097 140.16,373.09C140.14,379.503 139.793,384.077 139.12,386.81C138.21,390.44 134.38,400.87 129.75,400.76C123.65,400.62 117.49,400.587 111.27,400.66C110.737,400.667 110.557,400.417 110.73,399.91C113.09,393.203 117.113,387.753 122.8,383.56C123.073,383.36 123.21,383.093 123.21,382.76C123.223,376.573 123.25,370.403 123.29,364.25C123.33,357.52 122.83,348.97 120.06,342.73C119.38,341.21 118.853,341.26 118.48,342.88C115.753,354.807 111.96,366.787 107.1,378.82C104.86,384.353 102.13,389.633 98.91,394.66C98.563,395.2 98.15,395.673 97.67,396.08C97.405,396.306 97.068,396.43 96.72,396.43L81.27,396.42C81.27,396.42 81.269,396.42 81.269,396.42C80.923,396.42 80.639,396.136 80.639,395.79C80.639,395.777 80.639,395.763 80.64,395.75C80.91,391.51 81.99,387.19 85.66,384.63C87.05,383.65 88.98,384.04 89.87,382.12C94.11,373.02 97.71,362.76 97.61,353C97.523,344.36 97.04,335.817 96.16,327.37L108.77,316.94C108.794,316.917 108.808,316.886 108.808,316.853C108.808,316.811 108.786,316.772 108.75,316.75C108.67,316.717 108.587,316.687 108.5,316.66C108.413,316.64 108.407,316.6 108.48,316.54C113.05,313.35 116.8,308.74 120.85,304.91C121.47,304.32 121.89,303.09 122.9,302.63C123.2,302.497 123.433,302.287 123.6,302C123.94,301.42 124.557,300.657 125.45,299.71C129.23,295.72 133.82,290.13 137.88,284.42C141.027,280 144.373,275.737 147.92,271.63C148.033,271.503 148.097,271.37 148.11,271.23C148.123,271.137 148.13,271.037 148.13,270.93C148.13,270.803 148.167,270.687 148.24,270.58C149.767,268.273 151.33,265.99 152.93,263.73C153.057,263.557 153.707,262.917 154.88,261.81C155.83,260.92 156.15,259.36 156.75,258.42C158.537,255.6 160.573,252.97 162.86,250.53C163.033,250.343 163.12,250.123 163.12,249.87L163.12,249.61C163.12,249.537 163.143,249.467 163.19,249.4C165.043,247.033 166.753,244.56 168.32,241.98C168.433,241.793 168.593,241.67 168.8,241.61C168.92,241.57 169.023,241.487 169.11,241.36C171.69,237.847 174.31,234.363 176.97,230.91C177.13,230.697 177.243,230.463 177.31,230.21C177.397,229.89 177.623,229.487 177.99,229C181.37,224.513 183.757,221.473 185.15,219.88C189.863,214.487 194.323,208.873 198.53,203.04C199.98,201.03 202.18,198.8 203.84,196.55C204.587,195.537 205.297,194.67 205.97,193.95C210.65,188.95 214.81,183.39 219.94,177.8C219.983,177.754 220.007,177.693 220.007,177.63C220.007,177.494 219.896,177.382 219.76,177.38L219.5,177.38C219.38,177.38 219.353,177.33 219.42,177.23C220.06,176.33 220.843,175.597 221.77,175.03C221.99,174.89 222.22,174.86 222.46,174.94C222.678,175.003 222.914,174.954 223.09,174.81L225.95,172.36C226.217,172.133 226.45,171.873 226.65,171.58C227.437,170.427 228.587,170.077 230.1,170.53C230.427,170.63 230.457,170.79 230.19,171.01L227.01,173.59C226.79,173.77 226.82,173.87 227.1,173.89C227.3,173.903 227.497,173.86 227.69,173.76C227.937,173.633 228.17,173.66 228.39,173.84C228.957,174.313 229.49,174.4 229.99,174.1C230.99,173.5 231.997,172.913 233.01,172.34C234.77,171.34 236.48,171.44 238.42,171.33C238.753,171.317 239.067,171.383 239.36,171.53L241.46,172.58C241.76,172.727 241.977,172.953 242.11,173.26C242.397,173.893 242.897,174.283 243.61,174.43C243.937,174.497 244.2,174.667 244.4,174.94C244.873,175.587 245.497,175.91 246.27,175.91C246.47,175.91 246.503,175.987 246.37,176.14C246.31,176.2 246.25,176.26 246.19,176.32C246.173,176.335 246.163,176.357 246.163,176.38C246.163,176.403 246.173,176.425 246.19,176.44C246.363,176.613 246.57,176.667 246.81,176.6C246.963,176.56 247.04,176.62 247.04,176.78L247.19,182.2C247.197,182.513 247.303,182.79 247.51,183.03L249.88,185.75C249.965,185.842 250.027,185.951 250.06,186.07C250.34,186.937 250.833,187.663 251.54,188.25C251.807,188.47 251.92,188.75 251.88,189.09C251.833,189.583 252.037,189.92 252.49,190.1C252.783,190.213 252.917,190.427 252.89,190.74C252.837,191.293 253.063,191.72 253.57,192.02C253.87,192.2 253.977,192.463 253.89,192.81C253.743,193.403 253.95,193.84 254.51,194.12C254.777,194.253 254.9,194.47 254.88,194.77C254.847,195.363 255.087,195.837 255.6,196.19C255.847,196.357 255.94,196.583 255.88,196.87C255.76,197.43 255.963,197.843 256.49,198.11C256.75,198.243 256.883,198.457 256.89,198.75L256.9,200.32C256.9,200.615 257.061,200.888 257.32,201.03C258.327,201.563 258.873,202.38 258.96,203.48C258.987,203.82 259.167,204.027 259.5,204.1C259.833,204.167 259.96,204.4 259.88,204.8C259.823,205.099 259.921,205.411 260.14,205.63L261.63,207.11C261.85,207.33 261.93,207.593 261.87,207.9C261.77,208.447 261.977,208.85 262.49,209.11C262.757,209.243 262.89,209.457 262.89,209.75L262.89,210.26C262.89,210.56 263.023,210.783 263.29,210.93C263.717,211.157 263.93,211.56 263.93,212.14C263.93,212.487 264.053,212.783 264.3,213.03L264.65,213.38C264.879,213.61 264.974,213.94 264.9,214.25C264.733,214.99 264.943,215.577 265.53,216.01C265.823,216.23 265.94,216.52 265.88,216.88C265.793,217.387 265.963,217.803 266.39,218.13C266.663,218.337 266.833,218.603 266.9,218.93C267.007,219.457 267.253,219.927 267.64,220.34C267.853,220.567 267.957,220.84 267.95,221.16C267.93,222.027 268.167,222.8 268.66,223.48C268.807,223.68 268.873,223.903 268.86,224.15C268.847,224.537 269.03,224.86 269.41,225.12C269.703,225.313 269.863,225.583 269.89,225.93C269.923,226.37 270.123,226.723 270.49,226.99C270.75,227.177 270.883,227.433 270.89,227.76L270.89,229.02C270.897,229.447 271.077,229.787 271.43,230.04C271.97,230.427 272.117,231.04 271.87,231.88C271.777,232.213 271.847,232.507 272.08,232.76C273.75,234.59 272.03,236.52 273.53,238.1C273.77,238.347 273.89,238.643 273.89,238.99L273.89,242.25C273.89,242.444 273.975,242.663 274.13,242.87C274.21,242.97 274.31,243.04 274.43,243.08C274.737,243.193 274.89,243.413 274.89,243.74L274.89,246.02C274.89,246.373 275.013,246.673 275.26,246.92C275.9,247.58 275.61,248.64 275.65,249.31C275.877,253.223 275.863,259.203 275.61,267.25C275.583,268.203 275.423,268.923 275.13,269.41C274.97,269.67 274.89,269.953 274.89,270.26L274.89,271.98C274.89,272.267 274.807,272.545 274.65,272.78C274.043,273.687 273.79,274.687 273.89,275.78C273.923,276.14 273.847,276.473 273.66,276.78C272.907,278.047 272.663,279.433 272.93,280.94C272.983,281.227 272.9,281.467 272.68,281.66L272.1,282.16C271.967,282.28 271.897,282.43 271.89,282.61L271.89,285.21C271.89,285.457 271.783,285.647 271.57,285.78C270.99,286.153 270.743,286.72 270.83,287.48C270.897,287.973 270.887,288.31 270.8,288.49C270.68,288.757 270.5,288.977 270.26,289.15C270.027,289.317 269.873,289.54 269.8,289.82C269.613,290.593 269.223,291.257 268.63,291.81C268.397,292.023 268.25,292.283 268.19,292.59C267.95,293.77 267.66,294.5 266.78,295.48C266.21,296.1 266.23,296.65 265.95,297.2C265.13,298.813 264.417,300.483 263.81,302.21C263.703,302.523 263.53,302.793 263.29,303.02C262.83,303.46 262.467,303.96 262.2,304.52C261.49,306 260.76,307.14 260.15,308.45C258.89,311.12 256.5,312.68 255.1,315.38C253.093,319.24 250.533,322.59 247.42,325.43Z" style="fill:rgb(36,36,36);fill-rule:nonzero;"/>
    </g>
    <g transform="matrix(1,0,0,1,-16.3171,-14.0684)">
        <path d="M314.42,301.72L314.17,301.65C313.963,301.59 313.86,301.667 313.86,301.88C313.86,301.967 313.863,302.053 313.87,302.14C313.877,302.22 313.857,302.293 313.81,302.36C311.99,304.773 310.85,306.323 310.39,307.01C310.25,307.21 310.163,307.467 310.13,307.78C310.091,308.087 309.959,308.379 309.75,308.62C309.057,309.407 308.503,310.28 308.09,311.24C307.97,311.527 307.78,311.757 307.52,311.93C306.34,312.76 306.07,314.22 305.43,315.07C304.17,316.75 303,318.487 301.92,320.28C301.32,321.273 300.623,322.18 299.83,323C299.06,323.8 298.91,324.62 298.17,325.48C297.603,326.127 297.173,326.717 296.88,327.25C296.253,328.39 295.413,329.367 294.36,330.18C293.94,330.5 293.86,330.95 293.86,331.45C293.854,331.705 293.746,331.95 293.56,332.13L290.78,334.84C290.533,335.08 290.397,335.37 290.37,335.71C290.317,336.343 290.023,336.813 289.49,337.12C289.197,337.287 289.003,337.527 288.91,337.84C288.623,338.813 288.043,339.617 287.17,340.25C282.517,336.05 278.87,331.363 276.23,326.19C275.863,325.463 275.723,325.503 275.81,326.31C275.95,327.603 275.967,328.83 275.86,329.99C274.21,347.47 269.4,366.92 255.48,378.95C255.087,379.29 254.89,379.72 254.89,380.24L254.97,395.81C254.97,396.163 254.793,396.34 254.44,396.34L234.14,396.43C234.14,396.43 234.14,396.43 234.14,396.43C233.893,396.43 233.69,396.227 233.69,395.98C233.69,395.977 233.69,395.973 233.69,395.97C233.75,392.22 235.49,385.36 239.57,384.07C241.43,383.48 242.19,383.51 243.28,381.74C249.45,371.73 254.22,361.26 254.89,349.73C258.477,344.157 262.227,338.82 266.14,333.72C267.72,331.66 270.14,327.98 272.63,325.63C273.94,324.39 274.13,322.96 274.98,321.85C276.54,319.8 278.31,318.56 278.1,315.74C278.076,315.432 278.222,315.135 278.48,314.97C279.8,314.137 280.747,312.99 281.32,311.53C281.427,311.25 281.603,311.023 281.85,310.85C282.41,310.45 282.753,309.9 282.88,309.2C282.927,308.913 283.053,308.667 283.26,308.46L283.9,307.83C284.132,307.606 284.214,307.263 284.11,306.95C283.99,306.59 284.09,306.36 284.41,306.26C284.677,306.167 284.82,305.98 284.84,305.7C284.867,305.407 284.967,305.133 285.14,304.88C285.527,304.333 285.73,304.05 285.75,304.03C286.317,303.51 286.717,302.873 286.95,302.12C287.043,301.813 287.203,301.543 287.43,301.31C288.757,299.91 289.563,298.55 289.85,297.23C290.023,296.397 290.273,295.7 290.6,295.14C291.187,294.113 291.52,293.477 291.6,293.23C292.58,290.323 293.683,287.47 294.91,284.67C294.923,284.643 295.007,284.347 295.16,283.78C295.227,283.513 295.373,283.297 295.6,283.13C295.873,282.923 296.023,282.647 296.05,282.3C296.143,280.867 296.547,279.513 297.26,278.24C297.4,277.987 297.433,277.72 297.36,277.44C297.193,276.787 297.363,276.263 297.87,275.87C298.131,275.664 298.242,275.319 298.15,275C297.897,274.167 298.043,273.457 298.59,272.87C298.866,272.581 299.02,272.194 299.02,271.79C299,270.557 299.32,269.427 299.98,268.4C300.166,268.111 300.238,267.764 300.18,267.43C299.96,266.163 299.997,264.94 300.29,263.76C300.65,262.273 300.827,261.07 300.82,260.15C300.79,257.41 301.35,254.52 301.36,252.09C301.36,247.85 300.6,243.54 300.91,239.22C300.93,238.88 300.847,238.567 300.66,238.28C300.013,237.32 299.853,236.223 300.18,234.99C300.265,234.659 300.137,234.309 299.86,234.11C298.21,232.91 299.89,231.14 298.37,229.51C298.13,229.257 298.043,228.963 298.11,228.63C298.283,227.67 298.123,226.793 297.63,226C297.49,225.767 297.403,225.517 297.37,225.25C297.203,223.61 296.84,222.017 296.28,220.47C296.16,220.143 296.117,219.81 296.15,219.47C296.203,218.85 295.963,218.347 295.43,217.96C295.15,217.76 295.043,217.493 295.11,217.16C295.203,216.693 295.08,216.307 294.74,216C294.493,215.773 294.347,215.497 294.3,215.17C294.107,213.737 293.767,212.36 293.28,211.04C292.92,210.03 291.94,209.38 292.12,207.9C292.153,207.593 292.063,207.333 291.85,207.12L291.34,206.61C291.073,206.343 290.99,206.03 291.09,205.67C291.323,204.843 291.113,204.25 290.46,203.89C290.172,203.736 290.023,203.402 290.1,203.08C290.133,202.927 290.14,202.783 290.12,202.65C290.087,202.41 289.997,202.197 289.85,202.01C289.363,201.403 289.117,200.763 289.11,200.09C289.103,199.757 288.98,199.473 288.74,199.24C288.287,198.78 288.07,198.24 288.09,197.62C288.101,197.387 287.976,197.168 287.77,197.06L287.17,196.74C287.103,196.707 287.08,196.653 287.1,196.58C287.28,195.813 287.07,195.2 286.47,194.74C286.233,194.56 286.101,194.27 286.12,193.97C286.153,193.443 285.933,193.037 285.46,192.75C285.199,192.587 285.057,192.285 285.1,191.98C285.173,191.5 285.003,191.137 284.59,190.89C284.284,190.708 284.109,190.365 284.14,190.01C284.22,189.15 284.003,188.383 283.49,187.71C283.297,187.457 283.173,187.17 283.12,186.85C282.96,185.763 282.51,184.83 281.77,184.05C281.557,183.83 281.413,183.567 281.34,183.26C281.08,182.193 281,181.11 281.1,180.01C281.126,179.701 281.04,179.398 280.86,179.16C280.693,178.947 280.493,178.78 280.26,178.66C279.98,178.527 279.843,178.303 279.85,177.99C279.863,177.27 279.667,176.637 279.26,176.09C286.66,174.063 291.82,172.79 294.74,172.27C304.22,170.57 312.97,176.54 318.6,183.74C327.15,194.7 331.65,220.4 322.48,232.01C319.593,235.663 315.707,238.027 310.82,239.1C310.493,239.173 310.307,239.377 310.26,239.71C308.35,253.9 308.38,270.37 313.3,283.4C315.3,288.69 314.49,296.1 314.42,301.72Z" style="fill:rgb(25,25,25);fill-rule:nonzero;"/>
    </g>
    <g transform="matrix(1,0,0,1,-16.3171,-14.0684)">
        <path d="M314.42,301.72C314.45,306.63 313.65,313.23 315.43,317.81C320.74,331.49 322.63,345.12 314.77,358.06C314.59,358.347 314.52,358.66 314.56,359C316.08,372.43 316.47,386.46 311.16,399.17C310.816,400.004 309.996,400.551 309.09,400.55L289.95,400.64C289.423,400.64 289.267,400.4 289.48,399.92C291.08,396.28 293.64,393.583 297.16,391.83C297.407,391.71 297.55,391.513 297.59,391.24C298.58,383.86 301.84,353.19 296.32,348.68C293.12,346.053 290.07,343.243 287.17,340.25C288.043,339.617 288.623,338.813 288.91,337.84C289.003,337.527 289.197,337.287 289.49,337.12C290.023,336.813 290.317,336.343 290.37,335.71C290.397,335.37 290.533,335.08 290.78,334.84L293.56,332.13C293.746,331.95 293.854,331.705 293.86,331.45C293.86,330.95 293.94,330.5 294.36,330.18C295.413,329.367 296.253,328.39 296.88,327.25C297.173,326.717 297.603,326.127 298.17,325.48C298.91,324.62 299.06,323.8 299.83,323C300.623,322.18 301.32,321.273 301.92,320.28C303,318.487 304.17,316.75 305.43,315.07C306.07,314.22 306.34,312.76 307.52,311.93C307.78,311.757 307.97,311.527 308.09,311.24C308.503,310.28 309.057,309.407 309.75,308.62C309.959,308.379 310.091,308.087 310.13,307.78C310.163,307.467 310.25,307.21 310.39,307.01C310.85,306.323 311.99,304.773 313.81,302.36C313.857,302.293 313.877,302.22 313.87,302.14C313.863,302.053 313.86,301.967 313.86,301.88C313.86,301.667 313.963,301.59 314.17,301.65L314.42,301.72Z" style="fill:rgb(19,19,19);fill-rule:nonzero;"/>
    </g>
</svg>
