<?xml version="1.0" encoding="UTF-8" standalone="no"?>
<!DOCTYPE svg PUBLIC "-//W3C//DTD SVG 1.1//EN" "http://www.w3.org/Graphics/SVG/1.1/DTD/svg11.dtd">
<svg width="100%" height="100%" viewBox="0 0 187 233" version="1.1" xmlns="http://www.w3.org/2000/svg" xmlns:xlink="http://www.w3.org/1999/xlink" xml:space="preserve" xmlns:serif="http://www.serif.com/" style="fill-rule:evenodd;clip-rule:evenodd;stroke-linejoin:round;stroke-miterlimit:2;">
    <g transform="matrix(0.3,0,0,0.3,-9.66229,-8.37891)">
        <path id="p13XDOOmlp" d="M221,800C221,794.5 231.2,778.8 239.5,771.3L246,765.5L246,747C246,724.5 244.5,702.6 242.4,694.5C241,688.7 239.6,686.1 238.5,687.1C238.2,687.4 235.1,697.3 231.6,709.1C220.5,745.7 216.3,756.8 206.9,774.5C203.1,781.7 198.9,788.9 197.5,790.5L195,793.5L178.4,793.4C166.2,793.4 161.7,793.1 161.1,792.1C160.3,790.8 161.4,782.6 163,778.5C164.5,774.7 170.1,768.9 174,767.4C178.5,765.6 180.5,762.1 185.5,748C192.5,728 193.2,724.2 193.7,703.5C194,691.7 193.7,680.5 193,674.1C191.9,664.7 191.9,663.5 193.4,662.5C194.3,661.8 195,660.8 195,660.1C195,659.5 195.7,659 196.5,659C197.4,659 198.3,658.3 198.6,657.5C199,656.7 200,656 201,656C202,656 203.4,655.3 204.1,654.3C204.9,653.4 208,650.9 211,648.6C233.3,632.2 260.8,602.9 283.2,571.5C291.3,560.2 310.2,533.4 314.2,527.7C339,491.9 374.8,445.6 397.5,420C400.3,416.9 406,410.3 410.3,405.3C418.8,395.3 431.7,385.5 438.6,384C440.7,383.5 449.1,383 457.2,383L471.8,383L475.5,387.2C480.8,393.4 492.6,412.3 502,429.7C515,453.7 522.5,474 526.5,495.5C528.6,506.4 528.9,533.7 527.1,545.5C524.3,564.1 517.1,584.1 505.4,605.5C496.6,621.6 492.3,627.4 488.7,627.8C487.2,628 486,628.4 486,628.6C486,629.8 488.4,633.6 490,635C491,635.9 492.5,638.2 493.3,640.3C494.2,642.3 495.6,644.3 496.5,644.6C497.3,644.9 498,645.8 498,646.5C498,647.2 498.7,648 499.5,648.4C501.2,649 501.5,654.7 500,657C499.1,658.3 498.8,658.3 498,656.9C495.8,653.2 487.7,643 480.7,635.3C476.7,630.8 471.9,624.4 470.2,621.2C466.3,613.9 464.5,602.8 465.4,591.7C466.2,582.3 465.8,582 456.3,584.8C440.3,589.7 417.9,594.5 399.5,597.2C394,598 380.6,598.5 365,598.5C337.8,598.5 328.4,597.5 309,592.6C303.8,591.3 299.2,590.4 298.8,590.7C298.3,590.9 298,595.9 298,601.8C298,615.2 296.3,642.9 294.9,653.5C292.9,668.5 288.1,687.1 284.5,693.7L281.1,699.9L281.1,732.7C281.1,762.4 280.9,766.2 279.1,773.3C276.4,783.5 272.1,792.5 267.2,797.8L263.3,802L242.2,802C221.6,802 221,801.9 221,800Z" style="fill:rgb(30,30,30);fill-rule:nonzero;"/>
    </g>
    <g transform="matrix(0.3,0,0,0.3,-9.66229,-8.37891)">
        <path id="pvMC59qxP" d="M192,665.8C192,663.4 191.3,656.1 190.5,649.5C188.4,632.5 188.4,631.8 192.1,629.8C193.8,628.8 196.2,628 197.5,628C200.3,628 217.9,613.1 230.5,599.9C249.2,580.4 265.7,559.4 303.7,506.5C316.3,488.9 336.8,460.9 349.1,444.2C361.4,427.6 377.2,405.8 384.2,395.7C391.2,385.7 400.2,372.9 404.1,367.3C408,361.7 414.3,353.1 418.2,348.3C427.4,336.6 429.5,332.6 429.1,327.3C428.9,324.7 429.2,323 429.9,323C430.5,323 431,322.3 431,321.5C431,320.4 432.2,320 435.5,320C438.8,320 440,320.4 440,321.5C440,322.7 441.8,323 450.1,323C459.6,323 460.8,323.2 468.4,326.6C472.8,328.6 478.4,331.1 480.8,332.2C483.1,333.2 485,334.4 485,334.9C485,335.4 486.8,337.6 489,339.8C492,342.7 493,344.6 493,346.9C493,348.9 493.8,350.7 495.1,351.8C502.7,357.9 504.2,360 511.8,374.2C533.2,414.6 543,436 549.4,455.5C556.6,477.6 559,492.4 559,515.1C559,537 556,553.7 548.2,576C542.6,592.1 525.7,622.7 513.3,639.3C510.9,642.4 509,645.4 509,645.9C509,646.4 508.1,647 507.1,647.3C505.6,647.7 505.1,648.8 504.8,652.1C504.5,656.4 504.4,656.5 501,656.5C498.1,656.5 497.5,656.1 497.5,654.3C497.5,653 496.6,651.4 495.5,650.6C494.4,649.7 493.8,649 494.2,649C494.5,649 492.4,646.4 489.5,643.3C486.3,639.8 484.4,637 484.8,636.1C485.2,635 484.9,634.8 483.4,635.4C481.9,636 481.8,635.9 482.7,634.9C483.7,633.9 483.5,632.9 481.8,629.9C480.6,627.6 480,625.5 480.4,624.4C480.9,623 481.3,622.9 481.9,623.9C482.4,624.6 484,625 485.6,624.8C489.3,624.4 493.5,618.8 502.4,602.4C518.9,572.2 525.2,549.8 525.2,521.3C525.1,500.3 521.5,483.2 512.1,460C503.8,439.7 482.2,401.5 472.5,390.2L468.8,386L458.7,386.1C441.1,386.2 439.8,386.6 430,393.1C423.6,397.4 419,401.6 413.3,408.2C409,413.2 403.3,419.9 400.5,423C377.8,448.6 342,494.9 317.2,530.7C313.2,536.4 294.3,563.2 286.2,574.5C263.8,605.9 236.3,635.2 214,651.6C211,653.9 207.9,656.4 207.1,657.3C206.4,658.3 205,659 204.1,659C203.2,659 201.9,659.9 201.2,661C200.5,662.2 199.5,662.8 199,662.5C198.4,662.2 198,662.6 198,663.4C198,664.2 197.1,665.2 196,665.5C194.9,665.8 194,667 194,668.1C194,669.1 193.6,670 193,670C192.5,670 192,668.1 192,665.8ZM490,641.7C490,640.9 486.2,637 485.5,637C485,637 485.7,638.1 487,639.5C489.2,641.9 490,642.4 490,641.7Z" style="fill:rgb(40,40,40);fill-rule:nonzero;"/>
    </g>
    <g transform="matrix(0.3,0,0,0.3,-9.66229,-8.37891)">
        <path id="phyTCX9nK" d="M280,704.7C280,701.4 280.8,698.6 282.4,695.7C286.7,688.4 289.6,676.7 292,657.5C292.6,652.6 293.5,645.1 294.1,641C294.6,636.9 295.4,625 295.7,614.5C296,604.1 296.6,594.6 297.1,593.5C299,588.7 297.3,635.5 294.9,653.5C292.9,668.8 288.1,687.1 284.4,693.9C281.7,698.8 281,701.1 281.4,703.4C281.7,705.1 281.5,707.2 281,708C280.3,709.1 280,708.2 280,704.7Z" style="fill:rgb(36,36,36);fill-rule:nonzero;"/>
        <path id="pUxpMB6Af" d="M505,672.8C504.3,670.4 502.2,665.4 500.4,661.7C497.2,655.5 496.7,652.1 499.1,653.5C500.9,654.7 501.9,653 501,650.5C500.3,648.8 500.4,648 501.1,648C501.7,648 502,647.3 501.6,646.5C501.3,645.5 501.9,644.8 503.5,644.4C504.9,644.1 506,643.4 506,642.9C506,642.4 507.9,639.4 510.3,636.3C522.7,619.7 539.6,589.1 545.2,573C561.2,527.4 559.5,488.1 539.3,439C535.6,430 516.1,390.7 506.6,373.1C500.7,362.1 498.2,358.9 493.8,356.2C490.9,354.5 488.4,349.8 489.5,348C489.9,347.4 488.4,345.1 486.2,342.9C484,340.8 481.9,338.3 481.6,337.4C481.3,336.6 480.6,336.1 480.1,336.4C479.6,336.7 478.7,336.3 478,335.5C477.3,334.7 476.4,334 475.9,334C475.4,334 470.9,332.1 465.8,329.9C459.2,326.9 456.2,326 455.1,326.7C454.1,327.3 452.6,327.3 450.9,326.6C448.9,325.9 447.4,326 445.6,326.8C444,327.5 442.8,327.6 442.5,327C442.1,326.4 440.3,326 438.3,326C435.3,326 434.9,325.8 436,324.5C437,323.3 437,323 435.6,323C434.7,323 434,323.6 434,324.4C434,325.2 433.4,326.1 432.8,326.3C431.8,326.7 431.8,326.9 432.8,326.9C436.8,327.2 432,337.3 421.5,350.8C417.5,355.9 411,364.7 407.1,370.3C403.2,375.9 394.2,388.7 387.2,398.7C380.2,408.8 364.4,430.6 352.1,447.2C339.8,463.9 319.3,491.9 306.7,509.5C259.2,575.6 240.2,598.6 215,620.5C204.4,629.7 200.7,632.3 199.7,631.3C199.3,631 197.4,631.5 195.5,632.6C193,633.9 192,635.2 191.9,637C191.9,638.4 191.5,640.4 191,641.5C190.3,643.4 190.2,643.3 189.7,641C187.9,633.2 186,624 186,623.1C186,622.6 189.2,621.8 193.1,621.4C200,620.7 200.5,620.5 207.4,614.7C219,604.8 237.7,585.3 252.1,568C259.9,558.7 284.6,525.6 299.8,504C307.8,492.7 316.8,480.1 319.9,476C323,471.9 329.3,463.3 333.8,457C338.3,450.7 349.1,435.8 357.7,424C376.2,398.5 387.7,381 397.5,364C406.4,348.4 414,332 414,328.3C414,322.3 415.3,318.1 417.1,317.5C418.2,317.1 419,316 419,314.9C419,313.9 419.3,313 419.6,313C422.6,313 437.1,315.8 448.2,318.6C470.3,324 484.5,329.2 504.1,338.9C516.8,345.2 525.2,348.7 531.3,350.2C540.8,352.5 543.2,355 536,355C531.6,355 531.4,355.3 533.5,359C534.3,360.4 534.9,362.3 535,363.3C535,364.3 537.3,370 540.1,375.8C553.9,404.4 556.5,410.2 561.1,421.8C574.2,454.6 578,471.7 578.7,502.1C579.5,531.7 577.6,546.2 569.8,570.4C564.9,585.8 552.6,610.7 542.1,626.5C531.9,641.7 521.7,656 518.6,659.3C517.2,660.8 516,662.8 516,663.6C516,664.3 515.1,665 514.1,665C511.9,665 511,666.9 511,671.4C511,674.7 509.5,677 507.5,677C506.8,677 505.7,675.1 505,672.8Z" style="fill:rgb(36,36,36);fill-rule:nonzero;"/>
    </g>
    <g transform="matrix(0.3,0,0,0.3,-9.66229,-8.37891)">
        <path id="pvsMrgl8K" d="M267.5,796.4C277.9,781.2 280,771.1 280,733.3C280,718.3 280.3,706 280.8,706C281.2,706 281.4,719.4 281.3,735.8C281.2,762.1 280.9,766.4 279.1,773.3C276.5,783.1 272.1,792.3 267.5,797.5L263.9,801.5L267.5,796.4Z" style="fill:rgb(32,32,32);fill-rule:nonzero;"/>
        <path id="pAJoG6UYo" d="M176.7,766C179.7,763.2 181.1,760.3 185.5,748C191.8,730.3 193.2,723.6 193.7,709.3C194,701.4 194.6,696 195.2,696C195.9,696 196.1,700.4 195.7,708.3C195.1,723.1 192.4,734.5 184.8,753.2C180.5,763.8 179,766.5 177,767.2L174.5,768.1L176.7,766Z" style="fill:rgb(32,32,32);fill-rule:nonzero;"/>
        <path id="p149W6Cx6U" d="M509.2,705.8C508.6,704.5 508,698.7 507.8,692.8C507.5,683.1 507.6,682 509.2,682C513.2,682 520.6,675.7 528.6,665.5C538.4,653 542.1,649 543.7,649C544.4,649 545,648.4 545,647.7C545,645.3 549,638.1 557.4,625.2C587.5,579.4 600.3,539.4 598.7,495.6C597.8,468.3 591.5,442.4 577.3,407C572.6,395.3 569.1,387.2 558.7,363.8C557.3,360.7 555.8,358.9 554.3,358.5C552.6,358.1 552,357.3 552,355C552,352.4 552.4,352 555.8,351.4C557.8,351.1 562.8,350 566.9,349C575.7,346.8 577.6,347.4 578.6,352.8C579,354.8 579.8,357.2 580.5,358C583.1,361 595.9,391.8 603.2,412.5C608.4,427.2 614.5,451.5 615.6,461.5C615.9,464.8 617.1,470.1 618.2,473.3C619.8,478.1 620.1,481.2 619.8,492.8C619.5,510.2 619.9,529.7 620.9,537.8L621.7,544.1L618.9,544.7C616.5,545.2 616.1,545.8 615.5,550.4C615.1,553.2 614,556.6 613,558C612.1,559.4 610.7,562.3 610,564.5C602.7,587.5 587.8,616.3 570.6,640.5C564.2,649.5 560.8,653 557.3,653.9C554,654.8 552.1,659.1 552.1,666.3C552,672.1 549,677 545.6,677C543.4,677 540,679.7 540,681.5C540,683.3 526,698.7 522.8,700.4C520.9,701.4 518.9,703.6 518.3,705.1C517.4,707.5 516.6,708 513.8,708C511.2,708 510.1,707.4 509.2,705.8Z" style="fill:rgb(32,32,32);fill-rule:nonzero;"/>
    </g>
    <g transform="matrix(0.3,0,0,0.3,-9.66229,-8.37891)">
        <path id="pvJIllp5m" d="M507.7,685.7C506.4,682.3 505.9,673.2 506.9,672.6C507.5,672.2 508,670.4 508,668.7C508,663.2 509,661.2 511.2,661.8C512.5,662.1 513.1,661.8 512.9,660.9C512.7,660.1 513.8,658.2 515.4,656.5C524.1,647.3 545.1,615.1 554.6,596.4C570.9,564.1 576.8,537.8 575.7,502C574.9,474.6 570.7,456.3 558.1,424.8C553.5,413.2 550.9,407.4 537.1,378.8C534.3,373 532,367.3 532,366.3C532,363.5 530.6,362 529.1,362.9C528.4,363.4 528,364.2 528.4,364.8C528.7,365.3 528.3,366 527.5,366.4C525.9,367 525.5,366.6 524.6,362.8C524,360.2 524.1,360.1 527.1,360.7C530,361.3 530.2,361.2 529.1,359.2C527.9,356.9 526.3,355.7 524.1,355.3C522.7,355.1 521,353.2 521,351.7C521,351.3 521.8,351.3 522.7,351.7C525,352.7 547.8,352.6 554.8,351.6C558.4,351.1 560,351.2 560,351.9C560,352.5 559.1,353 558.1,353C557,353 555.8,353.5 555.4,354.2C555,354.9 555.1,355 555.8,354.6C556.5,354.2 557,354.4 557,354.9C557,355.5 557.6,356 558.3,356C559,356 560.5,358.1 561.6,360.8C576.5,394.1 583.6,411.4 588.9,427C593.1,439.3 596.5,452.7 599.1,466.5C601.8,480.4 602.7,509.3 601.1,524.1C597.1,559.5 584.5,591.5 560.4,628.2C551.5,641.8 548,648.3 548,651.1C548,652.1 547.6,653.2 547,653.5C546.5,653.8 546,653.6 546,652.9C546,651 541.2,656.3 531.7,668.3C523.9,678.4 516.1,685.1 512,685.5C511.1,685.5 510,685.9 509.3,686.3C508.7,686.7 508,686.4 507.7,685.7Z" style="fill:rgb(35,35,35);fill-rule:nonzero;"/>
    </g>
    <g transform="matrix(0.3,0,0,0.3,-9.66229,-8.37891)">
        <path id="p18Xt5JanF" d="M470.5,793.3C466.8,792.7 466,791.5 466.7,787.5C468.6,776.5 472,771.2 479.4,767.7C482.5,766.2 485.5,765 486,765C486.6,765 487,766.8 487,768.9C487,772.9 485.5,774.5 479.8,776.6C477.9,777.3 477.3,780 479,780C479.6,780 480,782.3 480,785C480,787.8 479.6,790 479,790C478.5,790 478,790.6 478,791.4C478,792.7 475.7,794.2 474.2,793.9C473.8,793.8 472.2,793.5 470.5,793.3Z" style="fill:rgb(30,30,30);fill-rule:nonzero;"/>
        <path id="pMP7oKl3w" d="M506.4,715.7C506.7,714.4 507.3,710.1 507.6,706.2C508,702.2 508.7,699 509.1,699C509.6,699 510,699.5 510,700C510,700.6 510.9,701.9 512.1,703.1L514.1,705.1L515.2,702.2C515.9,700.5 517.9,698.5 519.8,697.4C523.6,695.4 536.6,680.5 536.3,678.6C536.1,676.8 543,671.4 543.9,672.8C544.4,673.6 545.3,673.2 546.9,671.4C548.5,669.6 549.4,666.5 550.3,660.2C551.5,652.1 551.7,651.6 554.3,650.9C557.8,650 561.3,646.5 567.6,637.5C584.8,613.3 599.7,584.5 607,561.5C607.7,559.3 609.1,556.3 610.1,554.9C611.1,553.5 611.7,551.4 611.4,550.3C611.1,549.1 611.3,547.9 611.9,547.6C612.5,547.2 613,545.5 613,543.9C613,542.1 613.4,541.1 614,541.5C614.6,541.8 615,541.5 615,540.8C615,539.8 615.2,539.8 615.8,540.7C616.9,542.4 619.4,540.6 618.7,538.7C618.3,537.7 618.6,537.3 619.4,537.6C620,537.8 621.4,542.4 622.4,547.8C623.4,553.1 624.9,559.2 625.7,561.3C627.2,564.9 627.1,565.2 625.2,567.1C623.9,568.2 621.7,569 619.7,569C616.4,569 616.1,569.3 613.4,575.8C606.1,593.1 593.9,615.5 582.8,632C570.5,650.2 567.7,654 566.4,654C565.1,654 561,659.1 561,660.7C561,663 557.7,662.1 555.4,659.3L553.2,656.5L552.7,661C550.4,680 549.6,684 547.8,687.8C546.2,691 545.1,692 543.3,692C541.5,692 537.9,695 530.4,702.5C524.6,708.3 519.5,713 518.9,713C518.4,713 516.9,714.1 515.6,715.5C513.9,717.3 512.2,718 509.5,718C506.1,718 505.8,717.8 506.4,715.7Z" style="fill:rgb(30,30,30);fill-rule:nonzero;"/>
        <path id="prehjk3lA" d="M618,491.5C618,490.7 617.5,490 616.9,490C616.1,490 616,488.3 616.3,485.1C616.6,482 616.4,479.5 615.6,478.3C614.9,477.3 614.2,475.8 614.2,475C612.8,460 606.6,433.6 600.2,415.5C592.9,394.8 580.1,364 577.5,361C576.8,360.2 575.9,357.8 575.6,355.6C575,352.6 574.3,351.5 571.9,350.7C570.3,350.1 569,349.3 569,348.9C569,348.1 587.1,343.7 587.8,344.4C588.1,344.7 588.4,347.4 588.6,350.5C588.7,353.5 589,356.3 589.3,356.7C590.2,358.3 600.9,383.6 603.5,390.5C613.6,416.9 621.1,445.9 623.9,468.4C624.9,476.8 624.8,477.4 623,478.7C621.8,479.5 621,481.3 621,482.8C621,487.3 619.8,493 618.9,493C618.4,493 618,492.3 618,491.5Z" style="fill:rgb(30,30,30);fill-rule:nonzero;"/>
    </g>
    <g transform="matrix(0.3,0,0,0.3,-9.66229,-8.37891)">
        <path id="p10KU3KVI4" d="M470.5,793.3C466.8,792.7 466,791.5 466.7,787.5C467.9,780.5 470.4,774.7 473.6,771.4C477.9,767.2 479.9,766.9 476,771C470.2,777.2 467.1,791 471.3,791.8C472.3,792 473,791.5 473,790.5C473,789.6 473.5,789.2 474,789.5C474.6,789.8 475,789.2 475,788C475,786.8 475.5,786.2 476,786.5C476.6,786.8 477,786.2 477,785C477,783.8 476.6,783.2 476,783.5C475.5,783.8 475,783.4 475,782.5C475,781.7 474.4,780.1 473.8,779C472.7,777.3 472.8,776.8 473.8,776.1C474.6,775.7 475.2,774.9 475.3,774.4C475.4,773.9 475.9,773.6 476.4,773.8C476.9,774 478,773.5 478.9,772.7C479.8,771.9 481.3,771 482.3,770.7C484.7,769.8 484.4,768 481.8,768C479.6,767.9 479.6,767.9 482.1,766.5C487.2,763.7 503.4,730.3 506.1,716.7C507.3,710.6 509,708.1 509,712.4C509,715.6 509.7,715.7 512.6,712.5C513.9,711.1 515.3,710 515.9,710C516.4,710 522,704.8 528.4,698.5C539.7,687.4 542,685.6 542,688.3C542,688.9 542.9,688 544,686.2C545.9,683.2 548.5,681.2 549.5,682.2C550.3,683 545.7,700.9 542.4,709.8C538.6,720 538,721.2 533.4,728C531.6,730.6 529.5,734.1 528.5,736C526.6,739.6 516.9,753.1 513.3,756.9C511.4,759.1 509,766.5 509,770.4C509,771.1 507.9,772.2 506.5,772.8C505.1,773.4 504,774.6 504,775.3C504,776.1 503.2,777.8 502.1,779.1C501.1,780.4 499.9,783.5 499.5,785.9C498.2,793.5 497.2,794 484.5,793.9C478.5,793.8 472.2,793.5 470.5,793.3Z" style="fill:rgb(28,28,28);fill-rule:nonzero;"/>
        <path id="ppRA8kC9g" d="M562.9,669.8C558.3,664.2 556,660.7 556,659.5C556,658.2 562.3,651 563.4,651C564.7,651 567.6,647.2 579.8,629C591.3,611.8 602.6,591.2 609.1,575.5C610.9,571.1 613.4,566.5 614.7,565.2C616,563.9 617,562.3 617,561.5C617,560.7 617.5,560 618,560C618.6,560 619,560.6 618.9,561.3C618.8,561.9 619,563.3 619.4,564.2C620.1,565.8 620.3,565.8 622.2,564C623.4,563 623.9,561.6 623.5,560.9C623,560.2 623.2,559.9 624.1,560.2C627,561.2 629.9,571.1 630,580.2C630,585 629.6,589.2 629,589.5C628.5,589.8 628,591 628,592.1C628,593.2 627.2,594.3 626.3,594.7C622.9,595.8 616.7,603.5 610.2,614.5C599,633.4 586,652.1 575.3,664.7C572.4,668.1 570,671.6 570,672.5C570,675.4 566.3,674 562.9,669.8Z" style="fill:rgb(28,28,28);fill-rule:nonzero;"/>
        <path id="pIWEqknpD" d="M618.2,489.8C618.7,483.9 619.6,480 620.6,478.9C621.4,478 621.7,477 621.3,476.7C620.8,476.4 620.3,473.1 620.2,469.3C619.8,455.1 610.9,420.9 600.5,393.5C596.3,382.4 586.9,360.8 585.2,358.2C584,356.4 584,355.4 584.8,353.5C585.8,351.4 585.7,351 584.4,351C583.2,351 583.1,350.6 584,349C584.9,347.3 584.8,347 583,347C581.9,347 581,346.6 581,346.1C581,344 599.7,342.7 606,344.3C609.5,345.2 610.8,347.9 611.6,355.7C612,360.4 613.7,366.3 617,374.5C625.4,395.6 632.2,417.5 636.5,437.5C637.9,444.1 639.4,450.4 639.9,451.5C641.1,453.9 642,458.2 642.7,463.6C643.1,467.4 642.9,467.9 639.2,470.8C634.9,474.3 627.5,477.9 624.9,478C622,478 621.1,480.4 620.4,489.8C620,495.6 619.3,499 618.6,499C617.7,499 617.6,496.5 618.2,489.8Z" style="fill:rgb(28,28,28);fill-rule:nonzero;"/>
        <path id="pwcvn60B9" d="M550.9,352.4C554.9,351.6 558.5,351.1 558.8,351.4C560.1,352.7 557.5,353.5 550.7,353.7L543.5,353.9L550.9,352.4Z" style="fill:rgb(28,28,28);fill-rule:nonzero;"/>
    </g>
    <g transform="matrix(0.3,0,0,0.3,-9.66229,-8.37891)">
        <path id="pvW8jSDwe" d="M492.1,791.3C493.4,789.7 494.8,788.4 495.3,788.2C495.7,788 495.8,787.4 495.5,786.9C495.2,786.4 495.4,785.1 496,783.9C496.9,782.4 496.9,781.5 496.1,780.7C494.5,779.1 494.7,778.3 497,777.7C498.3,777.4 499.7,775.5 500.7,773.1C501.6,770.9 502.6,769.2 502.9,769.5C504.5,770.4 505.7,768.1 506.8,762.5C507.8,757.6 508.7,755.8 512,752.7C514.2,750.6 516,748.4 516,747.8C516,747.2 517.7,744.4 519.8,741.6C522,738.8 524.5,734.9 525.5,733.1C526.4,731.2 528.8,727.5 530.6,724.8C532.5,722.2 534,719.7 534,719.4C534,717.9 538.3,713 539.6,713C541.6,713 540.9,715.1 535.3,726.7C529.7,738.3 527.2,741.9 518.3,751.6L511,759.3L511,776.1C511,795.5 512.1,794 498.1,794L489.7,794L492.1,791.3Z" style="fill:rgb(26,26,26);fill-rule:nonzero;"/>
        <path id="p1Gct1eo5B" d="M571.7,679.2C567.5,675 564,671.2 564,670.8C564,670.4 566.4,667.7 569.3,664.8C578.3,655.7 594.4,633.1 607.2,611.5C613.7,600.5 620.9,591.5 623.2,591.5C623.9,591.5 624.7,590.6 625.1,589.5C626.9,583.8 627.3,583 628.6,583C629.7,583 630,585.4 630,594.8C630,601.2 629.7,610.2 629.3,614.8C628.7,622.6 628.6,623.1 626.1,623.7C622.4,624.6 616.4,630.9 608,643C603.9,648.8 596.2,659.1 591,666C581.7,678 581.4,678.7 581.8,682.8C582.1,685.9 581.9,687 580.8,687C580.1,687 576,683.5 571.7,679.2Z" style="fill:rgb(26,26,26);fill-rule:nonzero;"/>
        <path id="pgUrvSzmR" d="M621,552.8C621,552.6 620.3,548.7 619.5,544C617.8,534.7 616.3,502.9 617.4,498.7C618.9,492.5 619.7,497 619.7,512.8C619.8,527.6 620.7,539.7 622.6,549.8C623,551.8 622.8,553 622.1,553C621.5,553 621,552.9 621,552.8Z" style="fill:rgb(26,26,26);fill-rule:nonzero;"/>
        <path id="piUNkKrUv" d="M634.9,472.6C636.5,470.9 636.9,470 636,470C635.2,470 635.7,468.9 637.3,467.2C639.9,464.5 640.2,461 637.9,461C637.4,461 637.2,459.9 637.6,458.5C637.9,457.1 637.8,455.4 637.2,454.7C636.7,454.1 635,447.9 633.6,441C629.1,419.9 619.2,388.8 611.1,370.6C610,367.9 609,363.8 609,361.4C609,359.1 608.5,356.8 607.9,356.5C607.4,356.1 607,354.8 607,353.7C607.1,352.5 606.8,350.4 606.4,349C606,347.6 605.7,346.3 605.9,346C606,345.7 605.1,345.2 603.8,344.8C602.2,344.2 602.5,344.1 605,344.4C618.8,345.9 640.3,365.2 646.6,381.7C652.9,398 654.2,404.5 654.7,422.5C655.3,442 654.5,447.4 649.6,457.7C646.4,464.3 639.9,471.4 634.5,474.2C632.8,475.1 632.9,474.9 634.9,472.6Z" style="fill:rgb(26,26,26);fill-rule:nonzero;"/>
    </g>
    <g transform="matrix(0.3,0,0,0.3,-9.66229,-8.37891)">
        <path id="pYU9uoNsV" d="M581.8,688.9C575.1,682.9 573.8,680.1 576.6,677.5C578.5,675.8 597.3,650.9 605,640C612.7,628.9 621.3,619.5 622.7,620.3C623.2,620.6 624.2,620.5 624.9,620C626,619.4 626.4,613.9 626.8,595.9L627.3,572.5L624.1,562.7C622.4,557.4 621,551.2 621,549.1C621,547 620.6,543.1 620.1,540.4C619,534.8 617.5,506.2 618.3,507C618.6,507.3 619.3,515.1 619.9,524.5C621.2,543.3 623.7,556.9 627.2,564.5C629.4,569.3 629.5,570.7 630,601.5C630.3,619.1 630.9,634.2 631.3,635.1C631.8,636.2 631.6,637.3 630.6,638.3C629.7,639.2 629,640.2 629,640.7C629,641.9 624.1,647 623,647C622.5,647 618.3,652.1 613.7,658.3C609,664.4 602,673.5 598.1,678.4C592.1,686 591,688 591,691.2C591,693.6 590.5,695 589.7,695C589,695 585.5,692.3 581.8,688.9Z" style="fill:rgb(26,26,26);fill-rule:nonzero;"/>
    </g>
    <g transform="matrix(0.3,0,0,0.3,-9.66229,-8.37891)">
        <path id="p1EcFjfopx" d="M507.5,791.4C508.6,789.3 509,785.1 509,776.3C509,768.8 509.4,764 510,764C510.6,764 511,769.5 511,778.5C511,786.6 510.6,793 510.1,793C509.6,793 508.5,793.3 507.6,793.6C506.2,794.2 506.2,793.9 507.5,791.4Z" style="fill:rgb(23,23,23);fill-rule:nonzero;"/>
        <path id="p1lrq5rXO" d="M483.2,765.7C486.5,762.6 496.5,743.9 501.3,731.6C505.8,720.2 507.9,709.8 508,699.3C508,694.5 508.4,692 509.1,692C510,692 510.1,694.9 509.7,702.3C509,716.3 504.8,729.6 495.5,748C488.2,762.3 484.3,768 481.9,768C481.2,768 481.8,767 483.2,765.7Z" style="fill:rgb(23,23,23);fill-rule:nonzero;"/>
        <path id="pfbG2DMgO" d="M595,702.9C595,701.7 592.9,698.8 589.8,695.9C585,691.4 584.7,690.8 586.2,689.6C587.2,688.9 587.7,688 587.4,687.7C586.5,686.8 588.6,683.5 595.7,674.7C599.3,670.2 606,661.4 610.7,655.3C615.3,649.1 619.5,644 620,644C621.1,644 626,638.9 626,637.7C626,637.2 626.6,636.2 627.4,635.5C628.5,634.4 628.6,633.1 627.8,629.8C626.7,625 627.7,594.9 629,591.5C629.5,590.4 629.9,598.4 629.9,610.7C630,629.8 630.2,632.3 632.1,636.7C634.1,641.5 639,658.3 639,660.8C639,661.4 638.1,662 637.1,662C636,662 633.9,663.6 632.5,665.5C631,667.4 629,669.2 628.1,669.5C627.1,669.8 622.7,674.7 618.2,680.4C613.7,686.1 608.7,692.1 607.2,693.7C605.7,695.4 603.2,698.6 601.6,700.8C598.5,705.4 595,706.5 595,702.9Z" style="fill:rgb(23,23,23);fill-rule:nonzero;"/>
        <path id="pr1H2L7HF" d="M75.5,245.3C77.5,215.5 80.4,201.6 87.5,188.3C91.7,180.4 92,179.2 92,172.4C92,165.2 92.1,165 94.5,165C97,165 97,165.1 97,173.8C97,181.5 96.7,183 94.5,186.3C88.9,194.4 84.5,208.8 83,223.7C79.6,256.7 79.9,255 77.3,255L74.8,255L75.5,245.3Z" style="fill:rgb(23,23,23);fill-rule:nonzero;"/>
    </g>
    <g transform="matrix(0.3,0,0,0.3,-9.66229,-8.37891)">
        <path id="p10PHUV6gu" d="M597.8,802.2C582.5,802 578,801.7 578,800.7C578,797.2 585.1,788.8 593.8,781.9C594.4,781.4 595,779 595,776.7C595,774.4 595.5,770.7 596,768.5C596.5,766.3 597,754.2 597.1,741.5C597.2,718.8 597.7,715 600.5,715C601.3,715 602.4,714.1 603,713C603.6,711.8 605.1,711 606.5,711C607.9,711 609.4,710.2 610,709C610.6,707.9 611.7,707 612.5,707C613.2,707 616.7,703.9 620.1,700C623.6,696.2 627.2,693 628.1,693C629.2,693 630.3,691.7 631,689.5C631.8,687.1 632.8,686 634.1,686C635.8,686 636,685.2 636,678.8C635.9,674.8 635.3,668.2 634.6,664.2C633.9,660.2 633.7,656.7 634.2,656.4C634.6,656.1 635,656.6 635,657.5C635,658.4 635.5,658.8 636,658.5C637.5,657.6 636.4,652.4 632.4,640.8L629,631.1L629.4,576.5L630,605C630.5,632.9 630.6,633.6 633.1,640C637.2,650 641.1,668.8 641.1,678.5C641.1,688.8 638.1,701.1 633.4,710.3L629.9,717L631,729.8C632.2,744.8 630.9,774.1 628.5,783.8C626.5,792.1 622,801.1 619.5,801.9C618.4,802.2 608.6,802.4 597.8,802.2Z" style="fill:rgb(19,19,19);fill-rule:nonzero;"/>
        <path id="p15cBIP6xX" d="M509.8,783.8C510.3,767 510.6,765.3 510.8,779.3C510.9,786.8 510.7,793 510.3,793C509.8,793 509.6,788.8 509.8,783.8Z" style="fill:rgb(19,19,19);fill-rule:nonzero;"/>
        <path id="pThsvUqRE" d="M466.6,788C467.8,780.7 470.3,774.7 473.6,771.4C475.5,769.5 477.4,768 477.9,768C478.4,768 476.8,769.9 474.5,772.3C471.1,775.7 470,777.7 469,782.5C467.5,789.3 465.7,793.5 466.6,788Z" style="fill:rgb(19,19,19);fill-rule:nonzero;"/>
        <path id="pUgGHImzw" d="M230.8,780.5C231.4,779.4 234.2,776.3 237.1,773.5L242.4,768.5L236.5,775C233.3,778.6 230.4,781.7 230.2,782C229.9,782.3 230.2,781.6 230.8,780.5Z" style="fill:rgb(19,19,19);fill-rule:nonzero;"/>
        <path id="pl0scY7fb" d="M168.2,771.5C170.3,769.3 172.1,767.8 172.3,768.1C172.5,768.3 170.8,770 168.6,771.9L164.5,775.4L168.2,771.5Z" style="fill:rgb(19,19,19);fill-rule:nonzero;"/>
        <path id="pKp39GQ3O" d="M192.5,669.8C191.4,655.8 189,637 187.5,630.6C186.5,626.3 186,614.4 185.6,589.5C185.4,570.3 185.1,554.5 185.1,554.4C185,554.4 182.2,552.9 178.8,551.2C165.2,544.4 135.7,519.9 126.8,508.1C124.4,505 121.2,500.9 119.6,499C116.6,495.4 105.2,472.6 102.9,465.5C102.1,462.8 101.5,451.9 101.1,432.2L100.5,403L105,403L105,425.1C105,443.5 105.3,448.7 107.1,457.2C109.1,466.7 116,484.1 118.1,484.8C118.6,485 119,485.6 119,486.1C119,487.7 127.4,499.2 134.6,507.4C146.8,521.5 160.1,532.3 179.3,544L190,550.5L190,585.5C190,604.8 190.4,622 190.9,623.8C191.8,626.9 191.8,627 189.7,625.9C187.9,625 187.7,625 188.7,626C189.3,626.7 189.6,627.8 189.4,628.5C189.1,629.1 189.8,635.9 190.9,643.6C193,658.2 194.6,678 193.7,678C193.4,678 192.9,674.3 192.5,669.8Z" style="fill:rgb(19,19,19);fill-rule:nonzero;"/>
        <path id="p10dQFOzD6" d="M297.4,605.5C297.4,597.8 297.6,594.8 297.7,598.8C297.9,602.8 297.9,609.1 297.7,612.8C297.5,616.5 297.4,613.2 297.4,605.5Z" style="fill:rgb(19,19,19);fill-rule:nonzero;"/>
        <path id="pAwdC2p6y" d="M653.5,415.3C650.7,388.2 640.5,367.4 624,355.1C614.8,348.2 609.8,346 601.8,345.1C594.1,344.3 588.9,344.9 578,347.9C564.7,351.5 557.1,353.2 555.3,352.7C552.9,352.2 553.2,352.1 571.5,347.7C590.3,343.2 595,342.6 602.6,343.9C615.4,345.9 627.6,354.1 639,368.5C646.4,377.8 653.3,397.7 654.6,413.2C655.4,422.2 654.4,423.9 653.5,415.3Z" style="fill:rgb(19,19,19);fill-rule:nonzero;"/>
        <path id="p18BhA28dK" d="M89,378.5C89,378.3 88.3,375.5 87.4,372.3C84.6,361.7 83,344.1 83,321.4C83,300.4 82.9,299 80.5,292.1C76.4,280.4 73.2,252 76,252C76.6,252 77,251.3 77,250.5C77,249.7 77.6,249 78.3,249C79.4,249 79.8,252 80.3,261.3C80.9,273 83.9,287.2 86.8,292.7C87.6,294.2 88,303.1 88,320.7C88.1,338.1 88.6,349.9 89.6,357C92.4,376.7 92.5,379 90.6,379C89.7,379 89,378.8 89,378.5Z" style="fill:rgb(19,19,19);fill-rule:nonzero;"/>
        <path id="pSIFdpNZn" d="M439.5,317.5C433,315.8 421.6,315.6 422.6,317.1C423,317.9 422.1,318 419.4,317.6C409.3,316 391.4,314.1 381,313.5C369.1,312.9 315.1,312.3 256.8,312.1L223,312L223,306.5L249.2,306.7C263.7,306.9 298.5,307.1 326.5,307.3C367,307.6 380.5,308 392,309.4C412.5,311.8 437.6,315.7 443.5,317.4C449.7,319.2 446.3,319.2 439.5,317.5Z" style="fill:rgb(19,19,19);fill-rule:nonzero;"/>
        <path id="p12YcRfeAx" d="M33,113.3C34,107.8 36.4,103.6 40.6,100.2C45.1,96.5 49.8,95.1 62.1,94.1C70.4,93.4 72.8,92.8 80.4,89.1C85.2,86.8 89.4,84.2 89.7,83.4C90.7,80.8 92,81.9 92,85.4C92,88.9 90.8,90.1 83,94.4C76.6,97.9 71.5,99.2 61.4,100C53.2,100.6 50.6,101.2 47.4,103.3C42.6,106.3 38.2,111.2 37.4,114.6C37,116.2 36.1,117 34.5,117C32.5,117 32.3,116.7 33,113.3Z" style="fill:rgb(19,19,19);fill-rule:nonzero;"/>
        <path id="pSY9AkRxw" d="M110,48.7C107.5,46 103.1,42.2 100.2,40.3C93,35.6 92,35.4 92,37.9C92,41.9 89.5,40 87.3,34.3C86,31.2 85.3,28.4 85.5,28.2C87.3,26.3 103.3,34.8 111,41.7C113.6,44 116,45.7 116.4,45.3C116.7,45 117,41.2 117,36.9C117,32.5 117.5,28.8 118.1,28.5C119.8,27.4 126,29 126,30.4C126,31.2 125.1,32 124,32.3C122.2,32.8 122,33.7 122,43.4L122,54L118.3,53.9C115.1,53.8 113.8,53 110,48.7Z" style="fill:rgb(19,19,19);fill-rule:nonzero;"/>
    </g>
    <g transform="matrix(0.3,0,0,0.3,-9.66229,-8.37891)">
        <path id="pN1gMdyMC" d="M599,749.4C599,748.6 598.6,748.1 598.1,748.4C597.7,748.7 597.2,740.4 597.1,729.9C597.1,719.4 596.5,709 596,706.9C595,703.2 595.1,702.6 598.2,698.3C600,695.8 602.7,692.4 604.2,690.8C605.8,689.1 610.7,683.1 615.2,677.4C619.7,671.7 624.1,666.8 625.1,666.5C626.1,666.2 628.6,663.7 630.7,660.9C633.8,656.8 634.6,656.2 635.2,657.7C635.5,658.7 635.9,659.1 636,658.5C636,658 636.5,658.3 637.1,659.4C638.5,661.6 639.5,684.3 638.6,689.4C637.8,693.4 636.1,694.3 635.9,690.8C635.8,689 635.5,689.3 634.3,692.3C633.4,694.5 632,696 631.1,696C630.2,696 626.6,699.2 623.1,703C619.7,706.9 616.2,710 615.4,710C614.6,710 613.4,711.2 612.8,712.6C611.9,714.5 611.1,715 609.4,714.6C607.7,714.1 606.8,714.6 606,716C605.4,717.1 604.3,718 603.5,718C600.8,718 600.1,721.8 599.9,736.4C599.9,744.4 599.6,751 599.4,751C599.2,751 599,750.3 599,749.4Z" style="fill:rgb(22,22,22);fill-rule:nonzero;"/>
        <path id="pc5msYEeD" d="M187,579.1C187,559.3 186.7,553 185.8,552.7C185.1,552.4 185.9,552.1 187.6,552.1C189.8,552 190.9,552.5 191.2,553.8C191.5,554.7 191.5,566.6 191.2,580.3C190.8,603.6 190.6,605 188.9,605C187.1,605 187,603.7 187,579.1Z" style="fill:rgb(22,22,22);fill-rule:nonzero;"/>
    </g>
    <g transform="matrix(0.3,0,0,0.3,-9.66229,-8.37891)">
        <path id="pul49r5nR" d="M189.3,625.7C187.1,624.8 187,624.1 187,614.3C187,604 187,604 189.4,604C190.8,604 192.2,603.6 192.5,603C192.8,602.5 194.2,602 195.6,602C200.5,602 232.8,568.3 255,540C266,526 270,520.5 294.4,486.4C343.2,418.1 358.2,395.1 371.6,368.7C379.6,353 386.5,333.7 387.6,324.5C388,321.4 388.6,318.7 389.1,318.5C389.5,318.2 389.6,316.4 389.3,314.5C388.8,311.2 388.9,311 391.6,311C397.9,311 430.4,315.5 426.2,315.8C422.6,316.1 422.1,316.4 423,317.5C423.6,318.3 424.8,318.6 425.6,318.3C426.4,318 427,318.3 427,318.9C427,319.5 425.5,320 423.8,320C422,320 419.8,320.5 419,321C417.7,321.8 417.8,322 419.3,322C421.7,322 421.4,323.5 418.8,325.3C417,326.4 416.8,327.1 417.7,328C418.5,328.9 418.5,330.1 417.3,332.9C406.6,359.1 390.7,385.6 360.7,427C352.1,438.8 341.3,453.7 336.8,460C332.3,466.3 326,474.9 322.9,479C319.8,483.1 310.8,495.7 302.8,507C287.6,528.6 262.9,561.7 255.1,571C240.2,588.9 221.8,608 209.5,618.4C202.6,624.2 201.1,625.1 198.3,624.8C196.5,624.6 195,624.8 195,625.3C195,625.8 194.4,626 193.6,625.7C192.8,625.4 192,625.5 191.8,625.9C191.6,626.4 190.5,626.3 189.3,625.7Z" style="fill:rgb(49,49,49);fill-rule:nonzero;"/>
    </g>
    <g transform="matrix(0.3,0,0,0.3,-9.66229,-8.37891)">
        <path id="pFo7E7ff6" d="M187.2,617.5C187.1,613.1 187.3,604.5 187.6,598.4L188.3,587.4L193.4,585.1C199.5,582.3 204.1,578.1 221.5,558.9C250.7,526.8 291.4,471.1 327.4,414.2C351,376.8 367,340.1 367,323.5C367,320.5 367.5,317.8 368,317.5C368.6,317.2 369,316 369,314.9C369,313.9 369.5,312.2 370.1,311.2C371.1,309.7 372.1,309.5 378.4,310.2C382.3,310.6 388.7,311 392.5,311.1C398.3,311.2 398.8,311.4 395.5,311.9C393,312.3 392,312.8 392.7,313.3C393.9,314.1 393.5,319.5 392,321.5C391.6,322.1 391,324.9 390.6,327.9C389.4,337.2 382.5,356.2 374.6,371.7C361.2,398.1 346.2,421.1 297.4,489.4C273,523.5 269,529 258,543C235.8,571.3 203.5,605 198.6,605C197.2,605 195.8,605.5 195.5,606C195.2,606.6 194,607 192.9,607C189.2,607 188.1,609.4 187.7,617.6L187.4,625.5L187.2,617.5Z" style="fill:rgb(53,53,53);fill-rule:nonzero;"/>
    </g>
    <g transform="matrix(0.3,0,0,0.3,-9.66229,-8.37891)">
        <path id="pf3fGPvli" d="M188.7,591.3C188.3,591 188,587 188,582.6L188,574.5L193.1,572C200.1,568.6 218.4,549.7 237.1,526.5C263.9,493.3 304.6,433.7 324.7,398C335.4,379 340.3,368.7 345.3,355C350.6,340.2 352.7,331.8 354.3,319.1L355.5,309.6L363.2,309.2C371,308.8 375,309.9 375,312.4C375,313.2 374.3,314 373.5,314.4C372.7,314.7 372,316 372,317.3C372,318.6 371.7,320 371.3,320.3C371,320.7 370.5,323.4 370.4,326.3C369.7,339.2 359.4,366.2 345.4,391.9C329,422.3 279.2,495.1 249.2,532.9C229.9,557.2 202.1,587 198.7,587C197.9,587 196.1,587.9 194.6,589.1C193.2,590.2 192,590.8 192,590.5C192,590.1 191.4,590.3 190.7,590.9C189.9,591.5 189,591.7 188.7,591.3Z" style="fill:rgb(54,54,54);fill-rule:nonzero;"/>
    </g>
    <g transform="matrix(0.3,0,0,0.3,-9.66229,-8.37891)">
        <path id="peUniQrn7" d="M107.6,473.3C106.9,471.7 105.3,465.9 104.1,460.3C102.4,451.8 102,446.5 102,428.8C102,405.9 101.5,403.3 96.7,396.3C88.7,384.7 85,361.8 85,323.2C85,305.9 84.6,297.2 83.8,295.7C80.4,289.4 77.9,276.1 77.3,261.8C76.7,247.1 76.7,247 78.8,247C80.8,247 81,247.5 81,253.8C81,262.3 84.3,281.5 87.2,289.5C89.2,295 89.4,298.3 90.1,329C90.6,355.1 91.1,363.9 92.4,369C93.9,374.9 100,388.5 105,397C106.9,400.2 107,402.2 107,425C107.1,442.8 107.5,451.7 108.6,457.5C110.9,469.4 111.4,476 110.1,476C109.5,476 108.4,474.8 107.6,473.3Z" style="fill:rgb(47,47,47);fill-rule:nonzero;"/>
        <path id="pC6ycBhSC" d="M217.8,311.9C216.6,311.2 216,309.7 216,307.2C216,305.2 215.3,298.1 214.5,291.5C213.7,285 213,277 213,273.8C213,268.1 213,268 215.9,268C218.6,268 218.8,268.3 219.4,273.3C220.4,280.9 221.9,299 222,302.6C222,305.2 222.5,305.9 224.5,306.4C225.9,306.8 226.8,307.5 226.5,308C226.1,308.7 241.1,309 268.2,309C291.5,309 311.5,309.3 312.8,309.6C314,310 315,310.9 315,311.6C315,312.8 307.3,313 267.3,313C236.7,313 218.9,312.6 217.8,311.9Z" style="fill:rgb(47,47,47);fill-rule:nonzero;"/>
    </g>
    <g transform="matrix(0.3,0,0,0.3,-9.66229,-8.37891)">
        <path id="pmMVSYOda" d="M188.6,577.2C187.8,576.5 187.9,564.1 188.6,561.3C188.9,560.1 190.3,558.9 191.6,558.6C197.8,557 228.5,521.3 255.1,484.9C263.4,473.5 285.3,440.5 297.3,421.5C312.2,397.7 327.3,367 331.9,351C334.2,342.7 336,335 337,328.5C337.6,324.7 338.8,318.9 339.7,315.8L341.4,310.1L349.3,309.8C353.7,309.6 357.5,309.9 357.8,310.5C359.1,312.5 357,328.6 354,340.3C351.1,351.5 344.5,369 339.2,379.5C317,423.9 264.8,501.1 228.1,544C217.6,556.3 201.5,572.2 197.5,574.3C192.7,576.9 189.3,578 188.6,577.2Z" style="fill:rgb(57,57,57);fill-rule:nonzero;"/>
    </g>
    <g transform="matrix(0.3,0,0,0.3,-9.66229,-8.37891)">
        <path id="pwNrdQdbc" d="M188.6,558.7C188.2,556.7 187.1,554.2 186,553.3C183,550.7 184.4,547.8 193.2,538.7C205.3,526.3 217.3,512.3 230.8,494.5C237.5,485.7 243.7,477.6 244.5,476.5C245.3,475.4 248,471.6 250.3,468C252.7,464.4 256.2,459.3 258.1,456.5C261.6,451.4 265.8,444.5 279.6,421.5C296.9,392.8 310,363.1 316.1,339.1C317.7,332.7 319,325.2 319,322.3C319,319.5 319.5,316.8 320,316.5C320.6,316.2 321,314.8 321,313.5C321,312.2 321.3,310.9 321.8,310.7C322.5,310.2 337.4,309.6 341.8,309.9C343,309.9 344,310.6 344,311.5C344,312.3 344.4,313 345,313C345.5,313 345.1,314.5 344,316.3C342.9,318.1 341.1,324.8 340,331.1C336.7,350.4 334,359 325.2,378.5C314.8,401.5 303.9,419.8 276.3,461C257,489.8 251.2,497.9 233.5,520C210.7,548.5 196.5,562.9 191.4,562.6C189.6,562.5 189.1,561.7 188.6,558.7Z" style="fill:rgb(61,61,61);fill-rule:nonzero;"/>
    </g>
    <g transform="matrix(0.3,0,0,0.3,-9.66229,-8.37891)">
        <path id="p1A8X4J1hL" d="M179.3,548.9C173.3,545 173,544.5 173,540.8C173,537.3 173.6,536.3 177.6,532.6C182.9,527.9 192.4,518.3 199,510.9C201.5,508.1 204.4,504.9 205.6,503.7C206.7,502.5 208.8,499.9 210.1,498C212.9,493.9 214.9,491.4 217.1,489.1C222.7,483.6 249.6,443.9 254.2,434.5C255.8,431.2 258.4,427 260,425.2C262.8,422 266.3,415.2 278.8,389C291.5,362.6 299,338.8 302.7,313.8L303.2,310L328.4,310L326,312.2C324.6,313.5 324.1,314.5 324.8,314.8C325.6,315 325.4,316 324.1,317.8C323,319.5 322.3,322.3 322.2,325.1C322.2,331.9 316.8,351.8 310.9,367.6C302.7,389.1 293.4,407 269.7,446C266.8,450.7 262.9,456.8 261.1,459.5C259.2,462.3 255.7,467.4 253.3,471C251,474.6 248.3,478.4 247.5,479.5C246.7,480.6 240.5,488.7 233.8,497.5C220.2,515.3 208.3,529.3 196.1,541.8C191.7,546.4 188,550.8 188,551.6C188,553.9 185.9,553.2 179.3,548.9Z" style="fill:rgb(64,64,64);fill-rule:nonzero;"/>
    </g>
    <g transform="matrix(0.3,0,0,0.3,-9.66229,-8.37891)">
        <path id="p62HFc9cA" d="M170,543C157.9,535.5 144,524.4 144,522.3C144,521.5 145.4,521 147.8,521C150.6,521 152.3,521.7 154,523.5C155.3,524.9 156.8,526 157.5,526C158.1,526 159.3,526.9 160.3,528C162.4,530.4 168,530.8 168,528.5C168,527.6 169,526.5 170.3,526.1C172.7,525.1 185.2,512.5 194.6,501.5C223.3,468 255,418.3 271.6,381C281.7,358 289.2,333.8 289.1,324.1C289,319.3 289.5,317.1 291,315C292.1,313.4 293,311.7 293,311.1C293,310.4 296.4,310 303.3,310.1L313.5,310.1L309.9,311.8C307.6,312.9 306.5,314.1 306.8,315.2C307,316.1 306.4,318.2 305.6,319.9C304.7,321.5 304,324.2 304,325.7C304,331.3 296.6,356.8 290.4,372.8C287.9,379.3 281.3,393.3 270.9,414.7C268.1,420.3 264.6,426.4 263,428.2C261.4,430 260.4,431.8 260.6,432.2C260.9,432.6 260.7,433 260.2,433C259.7,433 258.1,435.4 256.7,438.3C252.7,446.7 225.5,486.7 220.1,492.1C217.9,494.4 215.9,496.9 213.1,501C211.8,502.9 209.7,505.5 208.6,506.7C207.4,507.9 204.5,511.1 202,513.9C195.8,520.9 186.1,530.7 180.9,535.5C175.9,540.1 175.1,542.3 177.8,544.2C179.3,545.2 179.5,545.8 178.6,546.6C177.7,547.4 175.4,546.4 170,543Z" style="fill:rgb(65,65,65);fill-rule:nonzero;"/>
    </g>
    <g transform="matrix(0.3,0,0,0.3,-9.66229,-8.37891)">
        <path id="py1qpP9Pg" d="M161,533.8C159.1,532.6 157.1,531 156.7,530.3C156.3,529.6 155.4,529 154.8,529C154.1,529 152.3,527.8 150.8,526.3C148.6,524.2 147.7,523.9 147.1,524.8C145.5,527.4 116,493.5 116,489C116,488.5 115.6,488 115.2,488C113.7,488 108.8,476.2 106.8,467.7C105.1,460.9 104.7,454.5 104.1,430.5C103.5,402.3 103.4,401.4 101.2,398.3C97.6,393.2 91.2,379 89.4,371.9C88.1,366.9 87.6,358 87.1,332C86.4,301.4 86.2,298 84.2,292.8C83.1,289.6 81.8,285.1 81.5,282.7L80.8,278.4L111.2,277.1C145.9,275.7 192.5,274.1 198.8,274C202.3,274 203,273.7 203,272C203,270.4 203.7,270 206.5,270C208.6,270 210.3,270.6 210.6,271.4C210.9,272.1 212,272.5 213.4,272.3C215.6,271.9 215.6,272.2 217.3,287.2C218.3,295.6 219,303.7 219,305.2C219,306.7 219.6,308.2 220.3,308.7C220.9,309.1 239.7,309.7 262,310C284.3,310.3 301.7,310.8 300.8,311.2C299.8,311.7 298.2,312.3 297.3,312.6C296.1,313 295.9,313.4 296.8,313.7C298.4,314.3 298.3,316 296.6,316C294.3,316 292,320.6 292.6,323.9C293.9,330.3 284.7,361.3 275,383C257,423.4 225.7,472.1 194.9,507.5C185.7,518.1 174,529.9 172.8,530C172.3,530 172,530.3 171.9,530.8C171.7,532.4 169.8,533.8 168.4,533.3C167.6,533 167,533.4 167,534.4C167,536.6 165.2,536.4 161,533.8Z" style="fill:rgb(68,68,68);fill-rule:nonzero;"/>
    </g>
    <g transform="matrix(0.3,0,0,0.3,-9.66229,-8.37891)">
        <path id="p16pQ4YaZy" d="M86.5,283.4C85.4,282.1 83.7,281 82.8,281C81.8,281 81,280.9 81,280.8C81,280.6 80.3,276.7 79.5,272C78.7,267.3 78,261.4 78,258.8C78,254.7 78.3,254 80,254C81.3,254 82,254.7 82,256C82,257.9 82.8,257.9 121.3,257.5C142.8,257.3 171.6,256.8 185.1,256.4L209.8,255.8L210.4,252.9C210.9,250.5 211.5,250 213.9,250C217.3,250 217.6,250.8 218.6,262.8C219.2,269.8 219.1,271 217.7,271C216.7,271 215.9,272.3 215.5,275C215,278 214.4,279 213,279C211.1,279 210.2,278.3 207.5,274.5C206.1,272.5 206.1,272.5 206,274.8C206,276.6 205.4,277 202.8,277C189.2,277 105.4,280.4 93.1,281.5C91.8,281.6 90.2,282.6 89.6,283.7C88.5,285.7 88.5,285.7 86.5,283.4Z" style="fill:rgb(77,77,77);fill-rule:nonzero;"/>
    </g>
    <g transform="matrix(0.3,0,0,0.3,-9.66229,-8.37891)">
        <path id="pVeo3ysO5" d="M82.7,263C81.7,261.8 80.6,261.2 80.1,261.4C78.8,262.3 76.9,247.6 77.6,241.2C78.7,229.7 78.9,229 81.5,229C82.8,229 84.1,229.4 84.4,229.9C85.3,231.3 97.6,232 140,233C163.2,233.5 185.6,233.6 196.5,233C206.4,232.5 214.8,232.4 215.2,232.8C215.6,233.2 216.2,237.9 216.6,243.3C217.2,251.6 217.1,253 215.7,253C214.1,253 213,255 213,257.9C213,260.4 208.7,262.3 207.4,260.4C206.6,259.2 198.6,259.2 155.5,260C127.5,260.5 101.1,261 97,261.2C92.8,261.3 88.9,261.1 88.2,260.6C87.4,260.1 86.7,260.8 86,262.4C84.9,265.5 84.9,265.5 82.7,263Z" style="fill:rgb(82,82,82);fill-rule:nonzero;"/>
    </g>
    <g transform="matrix(0.3,0,0,0.3,-9.66229,-8.37891)">
        <path id="p1DeCbBnnu" d="M82.5,234.4C81.6,232.9 80.3,232.1 79.5,232.4C78.4,232.8 78.3,232.4 78.9,230.7C79.3,229.5 79.5,228 79.3,227.4C78.8,225.9 81.7,207.8 83.2,202.6L84.4,198.8L93.4,199.3C98.4,199.6 112.2,200.6 124,201.4C164.2,204.2 199.6,205.4 203.9,204.2C206,203.5 208.9,203 210.2,203C213.1,203 213.4,204.4 214.5,221.5C214.9,226.5 215.3,231.5 215.6,232.7C215.9,234.6 215.4,234.9 211.2,235.4C201.1,236.7 177.8,236.9 137,236C113.6,235.4 92.8,234.8 90.8,234.5C88.4,234.2 86.7,234.5 85.7,235.5C84.4,236.8 84,236.6 82.5,234.4Z" style="fill:rgb(89,89,89);fill-rule:nonzero;"/>
    </g>
    <g transform="matrix(0.3,0,0,0.3,-9.66229,-8.37891)">
        <path id="pq1qqg5xc" d="M198,208.3C176.4,207.6 141.8,205.8 121,204.3C108.1,203.4 94.3,202.6 90.4,202.6L83.3,202.6L84.2,199.2C85.6,194 88.7,187.4 91.5,183.3C93.5,180.3 94,178.3 94,173.8C94,170.6 93.6,168 93,168C92.5,168 92,167.6 92,167C92,166.5 93.3,166 94.9,166C97.4,166 97.8,166.4 98.4,170C99,173.6 99.3,174 102.8,174.5C104.8,174.9 108.8,175.6 111.5,176.1C116.8,177.1 147.8,180.2 171.5,182.1C179.3,182.7 190.9,183 197.6,182.6L209.7,182L210.8,189.2C213.3,206.2 213.3,206 211.1,206C209.8,206 209,206.7 209,207.8C209,209.2 208.8,209.3 208,208C207.4,207.1 206.7,206.9 206.3,207.5C205.8,208.1 202.1,208.4 198,208.3Z" style="fill:rgb(100,100,100);fill-rule:nonzero;"/>
    </g>
    <g transform="matrix(0.3,0,0,0.3,-9.66229,-8.37891)">
        <path id="pRPACm1xh" d="M187.5,186.3C176.5,185.8 152.5,183.8 134.5,182C124.1,180.9 113.6,179.9 111.2,179.8C108.8,179.7 106.7,179.3 106.4,178.8C106.1,178.3 104.3,178.2 102.4,178.6C100,179 99,178.8 99,178C99,177.3 98.3,177 97.6,177.3C96.5,177.8 95.9,176.7 95.4,173.4C95.1,170.9 94.1,168.6 93.4,168.3C92.6,168 92,167.2 92,166.5C92,164.9 90.8,164.5 82.2,162.5C60.5,157.5 40.4,145.3 34.1,133.2C33.4,131.9 32.6,127.9 32.3,124.2C31.2,109.9 40,99.1 54.6,97.1C58.2,96.5 61.8,96.4 62.5,96.7C64.3,97.3 74.5,94.4 79.5,91.7C85.5,88.5 88.2,86.3 90.3,82.7C92.1,79.8 92.2,78.3 91.6,65C91,52.9 89.4,38.6 87.8,32.1C87.1,29.1 91,30 99.1,34.8C103.8,37.6 109.9,42.3 112.8,45.4C115.7,48.5 118.3,51 118.5,51C118.7,51 119.1,46.2 119.2,40.3C119.5,29.6 119.5,29.5 122.1,29.2C130,28.3 156.6,46.7 166.6,60.1C177.4,74.5 180.4,79.1 185.6,89.8C196.8,112.9 201.5,129.1 206.5,161.2C208.4,173.7 210,184.1 210,184.4C210,184.7 209.4,185 208.6,185C207.8,185 206.9,185.6 206.7,186.3C206.3,187.2 205.9,187.2 205.2,186.1C204.6,185.4 204,185.2 203.7,185.8C203.1,186.7 198.9,186.8 187.5,186.3Z" style="fill:rgb(109,109,109);fill-rule:nonzero;"/>
    </g>
</svg>
