<?xml version="1.0" encoding="UTF-8" standalone="no"?>
<!DOCTYPE svg PUBLIC "-//W3C//DTD SVG 1.1//EN" "http://www.w3.org/Graphics/SVG/1.1/DTD/svg11.dtd">
<svg width="100%" height="100%" viewBox="0 0 256 256" version="1.1" xmlns="http://www.w3.org/2000/svg" xmlns:xlink="http://www.w3.org/1999/xlink" xml:space="preserve" xmlns:serif="http://www.serif.com/" style="fill-rule:evenodd;clip-rule:evenodd;stroke-linejoin:round;stroke-miterlimit:2;">
    <g>
        <path d="M225.85,128.024C225.85,74 182.004,30.155 127.981,30.155C73.957,30.155 30.111,74 30.111,128.024C30.111,182.047 73.957,225.893 127.981,225.893C182.004,225.893 225.85,182.047 225.85,128.024" style="fill:rgb(19,19,19);fill-rule:nonzero;"/>
        <path d="M197.195,87.475C197.195,71.652 184.353,58.809 168.53,58.809C152.707,58.809 139.864,71.652 139.864,87.475C139.864,103.298 152.707,116.14 168.53,116.14C184.353,116.14 197.195,103.298 197.195,87.475" style="fill:rgb(109,109,109);fill-rule:nonzero;"/>
        <path d="M254.515,30.154C254.515,14.331 241.673,1.489 225.85,1.489C210.027,1.489 197.185,14.331 197.185,30.154C197.185,45.978 210.027,58.82 225.85,58.82C241.673,58.82 254.515,45.978 254.515,30.154" style="fill:rgb(19,19,19);fill-rule:nonzero;"/>
        <path d="M132.532,255.926L132.43,252.991C136.058,252.864 139.717,252.578 143.303,252.14L143.659,255.055C139.989,255.503 136.245,255.796 132.532,255.926ZM121.37,255.835C117.663,255.645 113.925,255.291 110.259,254.782L110.662,251.874C114.244,252.371 117.898,252.717 121.52,252.903L121.37,255.835ZM154.67,253.218L154.06,250.346C157.605,249.594 161.157,248.675 164.619,247.616L165.478,250.423C161.935,251.508 158.298,252.448 154.67,253.218ZM99.28,252.764C95.667,251.935 92.047,250.935 88.519,249.791L89.424,246.998C92.871,248.115 96.408,249.093 99.936,249.902L99.28,252.764ZM175.999,246.69L174.897,243.969C178.25,242.611 181.586,241.085 184.813,239.436L186.149,242.051C182.846,243.739 179.431,245.3 175.999,246.69ZM78.055,245.881C74.643,244.432 71.252,242.814 67.976,241.07L69.356,238.478C72.556,240.182 75.87,241.763 79.203,243.178L78.055,245.881ZM195.857,236.54L194.298,234.053C197.365,232.129 200.387,230.047 203.279,227.863L205.048,230.206C202.089,232.441 198.997,234.572 195.857,236.54ZM58.357,235.397C55.251,233.378 52.193,231.196 49.269,228.91L51.077,226.596C53.934,228.83 56.922,230.963 59.957,232.936L58.357,235.397ZM213.656,223.098L211.691,220.918C214.383,218.491 217,215.918 219.47,213.269L221.618,215.272C219.09,217.982 216.411,220.615 213.656,223.098ZM40.778,221.66C38.066,219.132 35.431,216.455 32.947,213.702L35.127,211.736C37.554,214.426 40.129,217.042 42.78,219.512L40.778,221.66ZM228.872,206.784L226.559,204.976C228.793,202.12 230.927,199.133 232.902,196.098L235.363,197.7C233.342,200.805 231.158,203.862 228.872,206.784ZM25.835,205.098C23.598,202.138 21.465,199.047 19.497,195.909L21.984,194.349C23.907,197.414 25.991,200.435 28.178,203.327L25.835,205.098ZM241.041,188.083L238.45,186.703C240.155,183.503 241.738,180.19 243.155,176.858L245.857,178.007C244.406,181.418 242.786,184.808 241.041,188.083ZM13.983,186.205C12.293,182.904 10.731,179.49 9.338,176.057L12.058,174.953C13.419,178.307 14.946,181.642 16.596,184.867L13.983,186.205ZM249.771,167.545L246.979,166.638C248.098,163.195 249.077,159.658 249.889,156.127L252.75,156.786C251.919,160.4 250.916,164.02 249.771,167.545ZM5.599,165.537C4.513,161.993 3.57,158.357 2.799,154.73L5.671,154.119C6.425,157.662 7.345,161.214 8.406,164.677L5.599,165.537ZM254.774,145.807L251.866,145.402C252.365,141.822 252.713,138.169 252.899,134.545L255.832,134.697C255.64,138.404 255.285,142.143 254.774,145.807ZM0.957,143.721C0.507,140.049 0.212,136.306 0.081,132.594L3.016,132.49C3.143,136.117 3.432,139.775 3.871,143.363L0.957,143.721ZM252.992,123.636C252.866,120.016 252.578,116.357 252.136,112.76L255.05,112.402C255.502,116.083 255.797,119.829 255.926,123.534L252.992,123.636ZM3.098,121.581L0.166,121.433C0.354,117.725 0.706,113.986 1.213,110.321L4.122,110.723C3.626,114.305 3.282,117.958 3.098,121.581ZM250.335,101.999C249.582,98.455 248.663,94.901 247.603,91.436L250.411,90.578C251.495,94.124 252.436,97.761 253.207,101.389L250.335,101.999ZM6.088,99.996L3.226,99.34C4.054,95.726 5.052,92.105 6.194,88.578L8.988,89.483C7.872,92.928 6.897,96.465 6.088,99.996ZM243.962,81.151C242.604,77.791 241.081,74.451 239.437,71.223L242.053,69.89C243.736,73.193 245.294,76.612 246.684,80.051L243.962,81.151ZM12.802,79.259L10.099,78.113C11.546,74.7 13.163,71.308 14.905,68.031L17.497,69.41C15.795,72.611 14.215,75.925 12.802,79.259ZM23.035,60.008L20.573,58.409C22.591,55.301 24.773,52.242 27.056,49.318L29.37,51.125C27.139,53.982 25.008,56.971 23.035,60.008ZM36.451,42.824L34.302,40.824C36.828,38.11 39.504,35.474 42.255,32.989L44.223,35.168C41.534,37.597 38.919,40.173 36.451,42.824ZM52.628,28.215L50.856,25.873C53.814,23.635 56.905,21.501 60.042,19.531L61.604,22.017C58.538,23.942 55.518,26.027 52.628,28.215ZM196.122,23.115L195.961,23.012L197.558,20.548L197.713,20.648L196.122,23.115ZM186.554,17.488C183.352,15.792 180.036,14.217 176.7,12.806L177.843,10.102C181.258,11.545 184.651,13.158 187.928,14.894L186.554,17.488ZM71.083,16.624L69.744,14.011C73.045,12.319 76.458,10.755 79.889,9.361L80.994,12.081C77.643,13.443 74.308,14.972 71.083,16.624ZM166.475,9.001C163.027,7.886 159.489,6.91 155.958,6.1L156.614,3.239C160.228,4.067 163.85,5.066 167.379,6.207L166.475,9.001ZM91.269,8.424L90.407,5.617C93.95,4.529 97.585,3.586 101.213,2.812L101.825,5.683C98.281,6.439 94.73,7.361 91.269,8.424ZM145.227,4.128C141.637,3.629 137.983,3.282 134.365,3.098L134.514,0.166C138.217,0.354 141.958,0.709 145.632,1.22L145.227,4.128ZM112.581,3.879L112.222,0.965C115.892,0.513 119.635,0.217 123.348,0.084L123.453,3.018C119.824,3.148 116.167,3.437 112.581,3.879Z" style="fill:rgb(68,68,68);fill-rule:nonzero;"/>
    </g>
</svg>
