<?xml version="1.0" encoding="UTF-8" standalone="no"?>
<!DOCTYPE svg PUBLIC "-//W3C//DTD SVG 1.1//EN" "http://www.w3.org/Graphics/SVG/1.1/DTD/svg11.dtd">
<svg width="100%" height="100%" viewBox="0 0 256 140" version="1.1" xmlns="http://www.w3.org/2000/svg" xmlns:xlink="http://www.w3.org/1999/xlink" xml:space="preserve" xmlns:serif="http://www.serif.com/" style="fill-rule:evenodd;clip-rule:evenodd;stroke-linejoin:round;stroke-miterlimit:2;">
    <path d="M128.1,0L164.2,0C150.9,21.8 136.2,45.8 121.5,69.7L85.4,69.7C100.1,45.8 114.8,21.8 128.1,0Z" style="fill:rgb(77,77,77);fill-rule:nonzero;"/>
    <path d="M42.7,0L78.8,0C71.7,11.6 64.5,23.3 57.4,34.9C50.3,46.5 43.2,58.1 36.1,69.7C43.2,81.3 50.3,93 57.4,104.6C64.5,116.2 71.6,127.8 78.8,139.4L42.7,139.4C35.6,127.8 28.4,116.2 21.3,104.6C14.2,93.1 7.1,81.4 0,69.8C7.1,58.2 14.2,46.6 21.3,35C28.4,23.3 35.6,11.7 42.7,0Z" style="fill:rgb(77,77,77);fill-rule:nonzero;"/>
    <path d="M42.7,0C57.4,24 72.1,48 85.4,69.7L121.5,69.7C108.2,48 93.5,24 78.8,0L42.7,0Z" style="fill:rgb(46,46,46);fill-rule:nonzero;"/>
    <path d="M164.2,0L128.1,0C135.2,11.6 142.3,23.3 149.5,34.9C156.6,46.5 163.7,58.1 170.9,69.7C163.8,81.3 156.6,93 149.5,104.6C142.4,116.2 135.3,127.8 128.1,139.4L164.2,139.4C171.3,127.8 178.4,116.2 185.6,104.6C192.7,93 199.8,81.4 207,69.7C199.8,58.1 192.7,46.5 185.6,34.9C178.5,23.3 171.3,11.7 164.2,0Z" style="fill:rgb(95,95,95);fill-rule:nonzero;"/>
    <path d="M149.3,24.6L113.2,24.6C108.6,32.1 104,39.7 99.4,47.2C94.8,54.7 90.2,62.3 85.5,69.8L121.6,69.8C126.2,62.3 130.9,54.7 135.5,47.2C140,39.6 144.6,32.1 149.3,24.6Z" style="fill:url(#_Linear1);fill-rule:nonzero;"/>
    <path d="M100.5,45.2L136.6,45.2C141.2,37.7 145.8,30.1 150.4,22.6C155,15.1 159.6,7.5 164.2,0L128.1,0C123.5,7.5 118.9,15.1 114.3,22.6C109.7,30.2 105.1,37.7 100.5,45.2Z" style="fill:url(#_Linear2);fill-rule:nonzero;"/>
    <path d="M191.9,45.2L155.8,45.2C151.2,37.7 146.5,30.1 141.9,22.6C137.3,15.1 132.7,7.5 128.1,0L164.2,0C168.8,7.5 173.4,15.1 178,22.6C182.7,30.2 187.3,37.7 191.9,45.2Z" style="fill:url(#_Linear3);fill-rule:nonzero;"/>
    <path d="M213.2,0L177.1,0C184.2,11.7 191.3,23.3 198.4,34.9C205.5,46.5 212.7,58.1 219.8,69.7C212.7,81.3 205.5,93 198.4,104.6C191.3,116.2 184.2,127.8 177,139.4L213.1,139.4C220.2,127.8 227.3,116.2 234.5,104.6C241.6,93 248.7,81.4 255.9,69.7C248.8,58.1 241.7,46.5 234.5,34.9C227.5,23.3 220.3,11.7 213.2,0Z" style="fill:rgb(28,28,28);fill-rule:nonzero;"/>
    <path d="M240.9,45.2L204.8,45.2C200.1,37.7 195.5,30.1 190.9,22.6C186.3,15.1 181.7,7.5 177.1,0L213.2,0C217.8,7.5 222.4,15.1 227,22.6C231.6,30.2 236.3,37.7 240.9,45.2Z" style="fill:url(#_Linear4);fill-rule:nonzero;"/>
    <path d="M192.2,115L228.3,115C232.9,107.5 237.5,100 242.1,92.4C246.7,84.9 251.3,77.3 256,69.8L219.8,69.8C215.2,77.3 210.6,84.9 206,92.4C201.4,99.9 196.8,107.4 192.2,115Z" style="fill:url(#_Linear5);fill-rule:nonzero;"/>
    <path d="M143.2,115L179.3,115C183.9,107.5 188.5,99.9 193.1,92.4C197.7,84.9 202.3,77.3 207,69.8L170.9,69.8C166.3,77.3 161.7,84.9 157.1,92.4C152.4,99.9 147.8,107.4 143.2,115Z" style="fill:url(#_Linear6);fill-rule:nonzero;"/>
    <path d="M63.8,24.6L27.7,24.6C23.1,32.1 18.5,39.7 13.9,47.2C9.2,54.7 4.6,62.3 0,69.8L36.1,69.8C40.7,62.3 45.3,54.8 49.9,47.2C54.5,39.7 59.1,32.1 63.8,24.6Z" style="fill:url(#_Linear7);fill-rule:nonzero;"/>
    <path d="M15,45.2L51.1,45.2C55.7,37.7 60.3,30.1 64.9,22.6C69.6,15.1 74.2,7.5 78.8,0L42.7,0C38.1,7.5 33.5,15 28.9,22.6C24.3,30.1 19.7,37.7 15,45.2Z" style="fill:url(#_Linear8);fill-rule:nonzero;"/>
    <path d="M15,94.3L51.1,94.3C55.7,101.8 60.3,109.4 64.9,116.9C69.5,124.4 74.1,132 78.7,139.5L42.6,139.5C38,132 33.3,124.5 28.7,116.9C24.2,109.4 19.6,101.9 15,94.3Z" style="fill:url(#_Linear9);fill-rule:nonzero;"/>
    <path d="M106.5,45.2L70.4,45.2C65.8,37.7 61.2,30.1 56.6,22.6C51.9,15.1 47.3,7.5 42.7,0L78.8,0C83.4,7.5 88,15 92.6,22.6C97.3,30.1 101.9,37.7 106.5,45.2Z" style="fill:url(#_Linear10);fill-rule:nonzero;"/>
    <defs>
        <linearGradient id="_Linear1" x1="0" y1="0" x2="1" y2="0" gradientUnits="userSpaceOnUse" gradientTransform="matrix(2.76767e-15,-45.1994,45.1994,2.76767e-15,117.343,69.7586)"><stop offset="0" style="stop-color:rgb(79,79,79);stop-opacity:1"/><stop offset="1" style="stop-color:rgb(79,79,79);stop-opacity:0"/></linearGradient>
        <linearGradient id="_Linear2" x1="0" y1="0" x2="1" y2="0" gradientUnits="userSpaceOnUse" gradientTransform="matrix(2.76767e-15,45.1994,-45.1994,2.76767e-15,132.34,0.0287981)"><stop offset="0" style="stop-color:rgb(49,49,49);stop-opacity:1"/><stop offset="1" style="stop-color:rgb(49,49,49);stop-opacity:0"/></linearGradient>
        <linearGradient id="_Linear3" x1="0" y1="0" x2="1" y2="0" gradientUnits="userSpaceOnUse" gradientTransform="matrix(2.76767e-15,45.1994,-45.1994,2.76767e-15,160.038,0.0287981)"><stop offset="0" style="stop-color:rgb(115,115,115);stop-opacity:1"/><stop offset="1" style="stop-color:rgb(115,115,115);stop-opacity:0"/></linearGradient>
        <linearGradient id="_Linear4" x1="0" y1="0" x2="1" y2="0" gradientUnits="userSpaceOnUse" gradientTransform="matrix(2.7685e-15,45.2131,-45.2131,2.7685e-15,209.011,0.0287981)"><stop offset="0" style="stop-color:rgb(42,42,42);stop-opacity:1"/><stop offset="1" style="stop-color:rgb(42,42,42);stop-opacity:0"/></linearGradient>
        <linearGradient id="_Linear5" x1="0" y1="0" x2="1" y2="0" gradientUnits="userSpaceOnUse" gradientTransform="matrix(2.76767e-15,45.1994,-45.1994,2.76767e-15,224.076,69.7586)"><stop offset="0" style="stop-color:rgb(13,13,13);stop-opacity:1"/><stop offset="1" style="stop-color:rgb(13,13,13);stop-opacity:0"/></linearGradient>
        <linearGradient id="_Linear6" x1="0" y1="0" x2="1" y2="0" gradientUnits="userSpaceOnUse" gradientTransform="matrix(2.76767e-15,45.1994,-45.1994,2.76767e-15,175.078,69.7586)"><stop offset="0" style="stop-color:rgb(51,51,51);stop-opacity:1"/><stop offset="1" style="stop-color:rgb(51,51,51);stop-opacity:0"/></linearGradient>
        <linearGradient id="_Linear7" x1="0" y1="0" x2="1" y2="0" gradientUnits="userSpaceOnUse" gradientTransform="matrix(2.7659e-15,-45.1706,45.1706,2.7659e-15,31.8851,69.7586)"><stop offset="0" style="stop-color:rgb(98,98,98);stop-opacity:1"/><stop offset="1" style="stop-color:rgb(98,98,98);stop-opacity:0"/></linearGradient>
        <linearGradient id="_Linear8" x1="0" y1="0" x2="1" y2="0" gradientUnits="userSpaceOnUse" gradientTransform="matrix(2.7659e-15,45.1706,-45.1706,2.7659e-15,46.9131,0.0287981)"><stop offset="0" style="stop-color:rgb(32,32,32);stop-opacity:1"/><stop offset="0.83" style="stop-color:rgb(32,32,32);stop-opacity:0"/><stop offset="1" style="stop-color:rgb(32,32,32);stop-opacity:0"/></linearGradient>
        <linearGradient id="_Linear9" x1="0" y1="0" x2="1" y2="0" gradientUnits="userSpaceOnUse" gradientTransform="matrix(2.76506e-15,-45.1569,45.1569,2.76506e-15,46.8997,139.489)"><stop offset="0" style="stop-color:rgb(36,36,36);stop-opacity:1"/><stop offset="1" style="stop-color:rgb(36,36,36);stop-opacity:0"/></linearGradient>
        <linearGradient id="_Linear10" x1="0" y1="0" x2="1" y2="0" gradientUnits="userSpaceOnUse" gradientTransform="matrix(2.7659e-15,45.1706,-45.1706,2.7659e-15,74.6113,0.0287981)"><stop offset="0" style="stop-color:rgb(98,98,98);stop-opacity:1"/><stop offset="1" style="stop-color:rgb(98,98,98);stop-opacity:0"/></linearGradient>
    </defs>
</svg>
