<?xml version="1.0" encoding="UTF-8" standalone="no"?>
<!DOCTYPE svg PUBLIC "-//W3C//DTD SVG 1.1//EN" "http://www.w3.org/Graphics/SVG/1.1/DTD/svg11.dtd">
<svg width="100%" height="100%" viewBox="0 0 34 19" version="1.1" xmlns="http://www.w3.org/2000/svg" xmlns:xlink="http://www.w3.org/1999/xlink" xml:space="preserve" xmlns:serif="http://www.serif.com/" style="fill-rule:evenodd;clip-rule:evenodd;stroke-linejoin:round;stroke-miterlimit:2;">
    <g transform="matrix(1,0,0,1,-1.39965,-0.540543)">
        <path d="M25.375,10.075C25.765,13.137 26.127,16.013 26.503,18.885C26.548,19.229 26.476,19.351 26.091,19.37C23.77,19.485 23.772,19.494 22.933,17.381C22.583,16.502 22.243,15.619 21.871,14.749C21.789,14.605 21.759,14.439 21.785,14.277C21.812,14.115 21.893,13.966 22.016,13.856C23.114,12.656 24.183,11.425 25.375,10.075Z" style="fill:rgb(255,157,78);fill-rule:nonzero;"/>
    </g>
    <g transform="matrix(1,0,0,1,-1.39965,-0.540543)">
        <path d="M11.734,12.641C12.067,14.327 12.394,15.912 12.683,17.504C12.772,17.996 13.173,18.622 12.83,18.955C12.534,19.241 11.878,18.837 11.373,18.855C10.032,18.905 9.408,18.285 9.19,16.984C9.062,16.22 9.005,15.691 9.646,15.099C10.393,14.323 11.09,13.502 11.734,12.641Z" style="fill:rgb(255,157,78);fill-rule:nonzero;"/>
    </g>
    <g transform="matrix(1,0,0,1,-1.39965,-0.540543)">
        <path d="M15.521,15.716C15.521,14.77 15.506,13.823 15.528,12.876C15.536,12.505 15.431,12.379 15.03,12.366C12.291,12.277 9.553,12.169 6.816,12.042C6.386,12.022 6.217,12.142 6.125,12.56C5.703,14.497 5.223,16.422 4.811,18.361C4.695,18.905 4.484,19.106 3.905,19.044C3.263,18.979 2.617,18.964 1.972,19C1.486,19.025 1.393,18.825 1.4,18.409C1.442,15.501 1.504,12.593 1.475,9.686C1.47,8.792 1.774,7.922 2.337,7.219C3.851,5.148 5.31,3.04 6.778,0.937C6.857,0.793 6.982,0.678 7.133,0.609C7.284,0.541 7.454,0.523 7.616,0.558C13.088,1.134 18.562,1.692 24.038,2.232C24.381,2.272 24.708,2.395 24.99,2.59C28.249,4.673 31.501,6.764 34.776,8.822C35.267,9.129 35.28,9.304 34.809,9.582C34.708,9.636 34.617,9.707 34.542,9.793C33.599,10.992 32.492,10.938 31.156,10.407C29.54,9.766 27.837,9.342 26.18,8.797C26.023,8.734 25.852,8.711 25.682,8.728C25.513,8.745 25.351,8.803 25.21,8.897C23.686,9.828 22.156,10.747 20.618,11.656C20.479,11.729 20.361,11.834 20.273,11.962C20.186,12.09 20.131,12.238 20.114,12.391C19.777,14.39 19.391,16.38 19.081,18.384C18.992,18.958 18.784,19.14 18.204,19.1C17.467,19.058 16.728,19.056 15.992,19.097C15.555,19.116 15.443,18.965 15.457,18.555C15.486,17.609 15.466,16.661 15.466,15.715L15.521,15.716Z" style="fill:rgb(255,157,78);fill-rule:nonzero;"/>
    </g>
</svg>
