<?xml version="1.0" encoding="UTF-8" standalone="no"?>
<!DOCTYPE svg PUBLIC "-//W3C//DTD SVG 1.1//EN" "http://www.w3.org/Graphics/SVG/1.1/DTD/svg11.dtd">
<svg width="100%" height="100%" viewBox="0 0 177 176" version="1.1" xmlns="http://www.w3.org/2000/svg" xmlns:xlink="http://www.w3.org/1999/xlink" xml:space="preserve" xmlns:serif="http://www.serif.com/" style="fill-rule:evenodd;clip-rule:evenodd;stroke-linejoin:round;stroke-miterlimit:2;">
    <path id="path8615" d="M87.797,0C42.897,0 45.701,19.472 45.701,19.472L45.751,39.644L88.598,39.644L88.598,45.7L28.732,45.7C28.732,45.7 0,42.442 0,87.747C0,133.052 25.078,131.445 25.078,131.445L40.044,131.445L40.044,110.422C40.044,110.422 39.237,85.344 64.721,85.344L107.218,85.344C107.218,85.344 131.095,85.73 131.095,62.269L131.095,23.476C131.095,23.476 134.72,-0 87.797,-0L87.797,0ZM64.171,13.565C68.434,13.565 71.879,17.01 71.879,21.273C71.879,25.536 68.434,28.982 64.171,28.982C59.908,28.982 56.462,25.536 56.462,21.273C56.462,17.01 59.908,13.565 64.171,13.565Z" style="fill:rgb(96,96,96);fill-rule:nonzero;"/>
    <path id="path8620" d="M89.072,175.948C133.973,175.948 131.169,156.477 131.169,156.477L131.119,136.304L88.271,136.304L88.271,130.248L148.137,130.248C148.137,130.248 176.869,133.506 176.869,88.201C176.869,42.896 151.791,44.503 151.791,44.503L136.825,44.503L136.825,65.526C136.825,65.526 137.632,90.604 112.148,90.604L69.651,90.604C69.651,90.604 45.774,90.218 45.774,113.679L45.774,152.472C45.774,152.472 42.149,175.948 89.072,175.948L89.072,175.948ZM112.698,162.383C108.435,162.383 104.99,158.938 104.99,154.675C104.99,150.412 108.435,146.966 112.698,146.966C116.961,146.966 120.407,150.412 120.407,154.675C120.407,158.938 116.961,162.383 112.698,162.383Z" style="fill:rgb(80,80,80);fill-rule:nonzero;"/>
</svg>
