<?xml version="1.0" encoding="UTF-8" standalone="no"?>
<!DOCTYPE svg PUBLIC "-//W3C//DTD SVG 1.1//EN" "http://www.w3.org/Graphics/SVG/1.1/DTD/svg11.dtd">
<svg width="100%" height="100%" viewBox="0 0 206 141" version="1.1" xmlns="http://www.w3.org/2000/svg" xmlns:xlink="http://www.w3.org/1999/xlink" xml:space="preserve" xmlns:serif="http://www.serif.com/" style="fill-rule:evenodd;clip-rule:evenodd;stroke-linejoin:round;stroke-miterlimit:2;">
    <path d="M103.445,0C103.445,0 95.58,6.216 87.562,12.389C79.313,12.127 63.136,13.974 54.37,17.162C46.295,12.046 39.199,6.398 39.199,6.398C39.199,6.398 33.136,16.829 29.323,22.95C23.668,25.957 17.991,29.34 12.931,33.816C7.045,31.479 0.223,28.629 0,28.535C7.794,44.256 13.034,59.998 27.287,69.459C49.978,33.621 155.424,36.924 178.585,69.256C193.553,61.449 199.374,44.652 205.261,29.144C204.615,29.357 196.606,32.038 191.414,34.019C188.314,30.644 181.007,25.455 176.854,22.95C172.915,15.736 167.182,5.991 167.182,5.991C167.182,5.991 160.391,11.042 152.52,16.552C141.887,14.59 129.025,12.205 118.208,12.795C110.845,6.742 103.445,0 103.445,0Z" style="fill:rgb(13,13,13);fill-rule:nonzero;"/>
    <path d="M8.059,61.944C8.059,61.944 19.106,88.692 26.778,107.279C59.288,150.17 142.306,153.151 178.497,108.109C187.062,88.808 198.616,61.684 198.616,61.684C189.331,75.439 174.22,84.934 164.914,90.049C158.301,93.671 143.042,95.861 143.042,95.861L102.983,75.102L62.693,95.446C62.693,95.446 47.637,93.027 40.822,89.841C27.065,82.498 17.813,73.822 8.059,61.944Z" style="fill:rgb(115,115,115);fill-rule:nonzero;"/>
</svg>
