<?xml version="1.0" encoding="UTF-8" standalone="no"?>
<!DOCTYPE svg PUBLIC "-//W3C//DTD SVG 1.1//EN" "http://www.w3.org/Graphics/SVG/1.1/DTD/svg11.dtd">
<svg fill="rgb(255,157,78)" width="100%" height="100%" viewBox="0 0 145 151" version="1.1" xmlns="http://www.w3.org/2000/svg" xmlns:xlink="http://www.w3.org/1999/xlink" xml:space="preserve" xmlns:serif="http://www.serif.com/" style="fill-rule:evenodd;clip-rule:evenodd;stroke-linejoin:round;stroke-miterlimit:2;">
    <g transform="matrix(1,0,0,1,-95.1,-125.747)">
        <path d="M120,152.1C124.7,155.9 126.4,155.6 135.2,155L218.1,150C219.9,150 218.4,148.2 217.8,148L204,138.1C201.4,136.1 197.8,133.7 191.1,134.3L110.9,140.2C108,140.5 107.4,142 108.6,143.1L120,152.1ZM125,171.4L125,258.6C125,263.3 127.3,265 132.6,264.7L223.7,259.4C229,259.1 229.6,255.9 229.6,252.1L229.6,165.5C229.6,161.7 228.1,159.6 224.9,159.9L129.7,165.5C126.2,165.8 125,167.6 125,171.4ZM214.9,176.1C215.5,178.7 214.9,181.4 212.3,181.7L207.9,182.6L207.9,247C204.1,249 200.6,250.2 197.6,250.2C192.9,250.2 191.7,248.7 188.2,244.3L159.5,199.2L159.5,242.8L168.6,244.8C168.6,244.8 168.6,250.1 161.3,250.1L141.1,251.3C140.5,250.1 141.1,247.2 143.1,246.6L148.4,245.1L148.4,187.5L141.1,186.9C140.5,184.3 142,180.5 146.1,180.2L167.8,178.7L197.7,224.3L197.7,184L190.1,183.1C189.5,179.9 191.9,177.5 194.8,177.2L214.9,176.1ZM104.2,132.2L187.7,126.1C197.9,125.2 200.6,125.8 207,130.5L233.6,149.2C238,152.4 239.5,153.3 239.5,156.8L239.5,259.5C239.5,265.9 237.2,269.7 229,270.3L132.1,276.2C125.9,276.5 123,275.6 119.8,271.5L100.1,246C96.6,241.3 95.1,237.8 95.1,233.7L95.1,142.4C95.1,137.1 97.5,132.8 104.2,132.2Z"/>
    </g>
</svg>
