<?xml version="1.0" encoding="UTF-8" standalone="no"?>
<!DOCTYPE svg PUBLIC "-//W3C//DTD SVG 1.1//EN" "http://www.w3.org/Graphics/SVG/1.1/DTD/svg11.dtd">
<svg width="100%" height="100%" viewBox="0 0 97 123" version="1.1" xmlns="http://www.w3.org/2000/svg" xmlns:xlink="http://www.w3.org/1999/xlink" xml:space="preserve" xmlns:serif="http://www.serif.com/" style="fill-rule:evenodd;clip-rule:evenodd;stroke-linejoin:round;stroke-miterlimit:2;">
    <g transform="matrix(1,0,0,1,-4.6,-5)">
        <path d="M30,44.2L52.6,5L7.3,5L30,44.2ZM4.6,88.5L49.9,88.5L27.2,49.4L4.6,88.5ZM55.6,88.5L78.2,127.7L100.8,88.5L55.6,88.5Z" style="fill:rgb(115,115,115);fill-rule:nonzero;"/>
    </g>
    <g transform="matrix(1,0,0,1,-4.6,-5)">
        <path d="M52.6,5L30,44.2L75.2,44.2L52.6,5ZM27.2,49.4L49.9,88.5L72.5,49.4L27.2,49.4ZM78.2,49.4L55.6,88.5L100.8,88.5L78.2,49.4Z" style="fill:rgb(13,13,13);fill-rule:nonzero;"/>
    </g>
</svg>
