<?xml version="1.0" encoding="UTF-8" standalone="no"?>
<!DOCTYPE svg PUBLIC "-//W3C//DTD SVG 1.1//EN" "http://www.w3.org/Graphics/SVG/1.1/DTD/svg11.dtd">
<svg width="100%" height="100%" viewBox="0 0 379 326" version="1.1" xmlns="http://www.w3.org/2000/svg" xmlns:xlink="http://www.w3.org/1999/xlink" xml:space="preserve" xmlns:serif="http://www.serif.com/" style="fill-rule:evenodd;clip-rule:evenodd;stroke-linejoin:round;stroke-miterlimit:2;">
    <g transform="matrix(0.5796,0,0,0.5796,0,0)">
        <path d="M205.08,399.31L497.49,399.31C513.948,399.31 527.49,385.768 527.49,369.31L527.49,30C527.49,13.542 513.948,0 497.49,0L30,0C13.542,0 -0,13.542 0,30L0,369.31C0,385.768 13.542,399.31 30,399.31L72,399.31C77.486,399.31 82,403.824 82,409.31L82,494.16C82,499.646 86.514,504.16 92,504.16C92.023,504.16 92.047,504.16 92.07,504.16C94.703,504.154 97.227,503.091 99.07,501.21L198.07,402.21C199.934,400.361 202.454,399.318 205.08,399.31Z" style="fill:url(#_Linear1);fill-rule:nonzero;"/>
        <g>
            <path d="M160.43,213C128.19,193 121.53,141.17 150.01,115.17C168.43,107.57 182.41,128.02 186.63,143.42C196.95,160.87 199.22,184.42 183.47,199.5C177.427,206.34 169.352,211.072 160.43,213Z" style="fill:rgb(115,115,115);fill-rule:nonzero;"/>
            <path d="M348.22,213.86C326.49,198.55 302.85,184.11 276.45,178.71C243.35,174.3 205.72,184.07 184.75,211.58C169.92,225.9 166.41,248.52 179.26,265.34C187.78,284.82 184.85,311.12 207.49,322.28C223.49,338.11 247.49,323.55 263.81,336.49C266.432,335.914 268.562,333.99 269.4,331.44C265.15,300.11 298.61,314.49 315.06,316.83C334.83,305.12 340.49,280.69 349.81,261.25C362.36,247.42 364.81,226 348.22,213.86Z" style="fill:rgb(115,115,115);fill-rule:nonzero;"/>
            <path d="M367,118.1C345.13,120.62 337.11,146.27 326.66,162.52C315.99,183.46 338.92,201.29 355.14,210.41C359.468,211.545 364.056,211.168 368.14,209.34C387,199.22 395,175.91 395.48,155.55C395.72,138.77 387.18,116.62 367,118.1Z" style="fill:rgb(115,115,115);fill-rule:nonzero;"/>
            <path d="M218.7,176C194.7,161.53 193.32,130.24 191.38,105.35C191,81.35 226.61,59.85 240.81,85.21C250.61,106.11 262.28,130.68 253.28,153.87C247.6,167.64 232.35,173.6 218.7,176Z" style="fill:rgb(115,115,115);fill-rule:nonzero;"/>
            <path d="M306.18,175.87C277.7,176.71 262.89,143.47 270.25,119.04C270.42,99.46 277.56,65.48 303.78,70.86C332.07,81.8 338.08,120.32 324.6,144.93C317.83,154.93 318.4,170.04 306.18,175.87Z" style="fill:rgb(115,115,115);fill-rule:nonzero;"/>
        </g>
    </g>
    <g transform="matrix(0.5796,0,0,0.5796,0,0)">
        <path d="M633.15,225.66L552.49,225.66C547.004,225.66 542.49,230.174 542.49,235.66L542.49,369.31C542.49,393.996 522.176,414.31 497.49,414.31L312.3,414.31C306.814,414.31 302.3,418.824 302.3,424.31L302.3,471.31C302.3,482.263 311.297,491.283 322.25,491.31L516.72,491.31C518.483,491.311 520.174,492.013 521.42,493.26L587.25,559C588.496,560.245 590.188,560.945 591.95,560.945C595.596,560.945 598.598,557.946 598.6,554.3L598.6,497.87C598.6,494.222 601.602,491.22 605.25,491.22L633.15,491.22C644.122,491.22 653.15,482.192 653.15,471.22L653.15,245.61C653.123,234.657 644.103,225.66 633.15,225.66Z" style="fill:url(#_Linear2);fill-rule:nonzero;"/>
    </g>
    <defs>
        <linearGradient id="_Linear1" x1="0" y1="0" x2="1" y2="0" gradientUnits="userSpaceOnUse" gradientTransform="matrix(-203.53,575.67,-575.67,-203.53,374.17,-112.67)"><stop offset="0" style="stop-color:rgb(47,47,47);stop-opacity:1"/><stop offset="0.99" style="stop-color:rgb(13,13,13);stop-opacity:1"/><stop offset="1" style="stop-color:rgb(13,13,13);stop-opacity:1"/></linearGradient>
        <linearGradient id="_Linear2" x1="0" y1="0" x2="1" y2="0" gradientUnits="userSpaceOnUse" gradientTransform="matrix(-4908.39,148723,-148723,-4908.39,171615,37972.1)"><stop offset="0" style="stop-color:rgb(47,47,47);stop-opacity:1"/><stop offset="0.99" style="stop-color:rgb(13,13,13);stop-opacity:1"/><stop offset="1" style="stop-color:rgb(13,13,13);stop-opacity:1"/></linearGradient>
    </defs>
</svg>
