<?xml version="1.0" encoding="UTF-8" standalone="no"?>
<!DOCTYPE svg PUBLIC "-//W3C//DTD SVG 1.1//EN" "http://www.w3.org/Graphics/SVG/1.1/DTD/svg11.dtd">
<svg width="100%" height="100%" viewBox="0 0 3410 3936" version="1.1" xmlns="http://www.w3.org/2000/svg" xmlns:xlink="http://www.w3.org/1999/xlink" xml:space="preserve" xmlns:serif="http://www.serif.com/" style="fill-rule:evenodd;clip-rule:evenodd;stroke-linejoin:round;stroke-miterlimit:2;">
    <g transform="matrix(34.2344,0,0,34.2344,-22.5747,-8.36889)">
        <path d="M47.697,30.681L14.493,0.244L14.493,34.203L0.659,34.203L0.659,84.006L14.493,84.006L14.493,115.201L47.697,84.742L47.697,114.441L53.23,114.441L53.23,85.477L86.432,115.082L86.432,84.006L100.267,84.006L100.267,34.203L89.199,34.203L89.199,0.569L53.23,31.004L53.23,1L47.697,1L47.697,30.681ZM53.23,43.649L80.899,71.318L80.899,102.734C80.899,102.734 53.23,78.063 53.23,78.063L53.23,43.649ZM47.696,43.65L20.027,71.318L20.027,84.006L20.027,84.006L20.027,102.615C20.027,102.615 47.696,77.233 47.696,77.233L47.696,43.65ZM43.783,39.737L14.493,69.026L14.493,78.473L6.193,78.473L6.193,39.737L43.783,39.737ZM86.432,69.026L57.143,39.737L94.733,39.737C94.733,39.737 94.733,78.473 94.733,78.473L86.432,78.473L86.432,69.026ZM83.666,12.5L83.666,34.203C83.666,34.203 58.017,34.203 58.017,34.203L83.666,12.5ZM43.349,34.203L20.027,34.203C20.027,34.203 20.027,12.824 20.027,12.824L43.349,34.203Z" style="fill:rgb(64,64,64);"/>
    </g>
</svg>
