<?xml version="1.0" encoding="UTF-8" standalone="no"?>
<!DOCTYPE svg PUBLIC "-//W3C//DTD SVG 1.1//EN" "http://www.w3.org/Graphics/SVG/1.1/DTD/svg11.dtd">
<svg width="100%" height="100%" viewBox="0 0 4100 1445" version="1.1" xmlns="http://www.w3.org/2000/svg" xmlns:xlink="http://www.w3.org/1999/xlink" xml:space="preserve" xmlns:serif="http://www.serif.com/" style="fill-rule:evenodd;clip-rule:evenodd;stroke-linejoin:round;stroke-miterlimit:2;">
    <g transform="matrix(3.32846,0,0,3.32846,0,0)">
        <path d="M915.4,194.4C914.3,135.1 865.9,87.3 806.2,87.3C802.2,87.3 798.2,87.5 794.2,88C776,90.4 759.6,98.4 746.5,110.1L746.7,87.3L746.7,86.5L695.7,86.5L695.7,341.3L746.7,341.3L746.7,196.1C747.1,163.6 773.6,137.4 806.2,137.4C818.8,137.4 830.5,141.3 840.2,148C855.9,158.9 865.1,176.9 865.5,196C865.6,199.5 865.6,204 865.6,209.8L865.6,342L915.3,342L915.4,194.4Z" style="fill:rgb(64,64,64);fill-rule:nonzero;"/>
    </g>
    <g transform="matrix(3.32846,0,0,3.32846,0,0)">
        <path d="M667,302.3L667,302.4L667,302.3Z" style="fill:rgb(64,64,64);fill-rule:nonzero;"/>
    </g>
    <g transform="matrix(3.32846,0,0,3.32846,0,0)">
        <path d="M615.5,0C598.7,0 585.1,13.6 585.1,30.4C585.1,47.2 598.7,60.8 615.5,60.8C632.3,60.8 645.9,47.2 645.9,30.4C645.9,13.6 632.3,0 615.5,0Z" style="fill:rgb(64,64,64);fill-rule:nonzero;"/>
    </g>
    <g transform="matrix(3.32846,0,0,3.32846,0,0)">
        <path d="M536.1,194.4C535,135.1 486.6,87.3 426.9,87.3L425.9,87.3C403.4,87.7 383,97.8 367.3,113.8L367.3,110C367.3,110 367.2,110 367.2,110.1L367.4,86.8L367.4,0L316.4,0L316.4,341.3L367.4,341.3L367.4,196.1C367.8,163.6 394.3,137.4 426.9,137.4C439.5,137.4 451.2,141.3 460.9,148C476.6,158.9 485.8,176.9 486.2,196C486.3,199.5 486.3,204 486.3,209.8L486.3,341.4L536,341.4L536.1,194.4Z" style="fill:rgb(64,64,64);fill-rule:nonzero;"/>
    </g>
    <g transform="matrix(3.32846,0,0,3.32846,0,0)">
        <path d="M1207.3,281.7L1207.3,1.4L1154.9,1.4L1154.9,115.2C1154.9,115.2 1154.8,115.2 1154.8,115.1L1154.8,122.5C1136.9,105.2 1114.4,93.2 1089.5,89.1C1083.5,88.2 1077.4,87.7 1071.2,87.7C1009.2,89.5 955.5,135.7 946.5,199.1C941.6,233.4 950.4,267.6 971.2,295.3C992,323 1022.4,341 1056.6,345.9C1090.9,350.8 1125.1,342 1152.8,321.2C1156.2,318.7 1159.4,316 1162.5,313.2L1199,342.7L1231.8,301.9L1207.3,281.7ZM1074.3,299.5C1038.4,299.5 1007.9,276.3 997,244C994.2,235.8 992.7,227 992.7,217.8C992.7,180.2 1018.2,148.5 1052.9,139.2C1059.7,137.3 1066.9,136.4 1074.3,136.4C1088.3,136.4 1101.4,139.9 1112.9,146.1C1123.3,151.6 1132.4,159.3 1139.6,169C1147.9,180 1153.1,192.7 1154.9,206C1155.5,209.9 1155.8,213.8 1155.8,217.9C1155.8,263 1119.3,299.5 1074.3,299.5Z" style="fill:rgb(64,64,64);fill-rule:nonzero;"/>
    </g>
    <g transform="matrix(3.32846,0,0,3.32846,0,0)">
        <path d="M24.7,153.8L24.7,434.1L77,434.1L77,320.4C77,320.4 77.1,320.4 77.1,320.5L77.1,313.1C95,330.4 117.5,342.4 142.4,346.5C148.4,347.4 154.5,347.9 160.7,347.9C222.7,346.1 276.4,299.9 285.4,236.5C290.3,202.2 281.5,168 260.7,140.3C239.9,112.6 209.5,94.6 175.3,89.7C141,84.8 106.8,93.6 79.1,114.4C75.7,116.9 72.5,119.6 69.4,122.4L32.8,93L0,133.8L24.7,153.8ZM157.7,136C193.6,136 224.1,159.2 235,191.5C237.8,199.7 239.3,208.5 239.3,217.7C239.3,255.3 213.8,287 179.1,296.3C172.3,298.2 165.1,299.1 157.7,299.1C143.7,299.1 130.6,295.6 119.1,289.4C108.7,283.9 99.6,276.2 92.4,266.5C84.1,255.5 78.9,242.8 77.1,229.5C76.5,225.6 76.2,221.7 76.2,217.6C76.2,172.5 112.7,136 157.7,136Z" style="fill:rgb(64,64,64);fill-rule:nonzero;"/>
    </g>
    <g transform="matrix(3.32846,0,0,3.32846,0,0)">
        <path d="M589.7,86.1L589.7,341.3L642.4,341.3L642.4,86.1L589.7,86.1Z" style="fill:rgb(64,64,64);fill-rule:nonzero;"/>
    </g>
</svg>
