<?xml version="1.0" encoding="UTF-8" standalone="no"?>
<!DOCTYPE svg PUBLIC "-//W3C//DTD SVG 1.1//EN" "http://www.w3.org/Graphics/SVG/1.1/DTD/svg11.dtd">
<svg width="100%" height="100%" viewBox="0 0 368 368" version="1.1" xmlns="http://www.w3.org/2000/svg" xmlns:xlink="http://www.w3.org/1999/xlink" xml:space="preserve" xmlns:serif="http://www.serif.com/" style="fill-rule:evenodd;clip-rule:evenodd;stroke-linejoin:round;stroke-miterlimit:2;">
    <g transform="matrix(1,0,0,1,-144.658,0)">
        <path d="M512,126.274L512,241.068L397.206,241.068L397.206,126.274L512,126.274ZM512,0L512,114.794L397.206,114.794L397.206,0L512,0ZM385.726,0L385.726,114.794L270.932,114.794L270.932,0L385.726,0ZM259.452,0L259.452,114.794L144.658,114.794L144.658,0L259.452,0Z" style="fill:rgb(109,109,109);fill-rule:nonzero;"/>
    </g>
    <g transform="matrix(1,0,0,1,-144.658,0)">
        <path d="M385.726,252.548L385.726,367.342L270.932,367.342L270.932,252.548L385.726,252.548ZM512,252.548L512,367.342L397.206,367.342L397.206,252.548L512,252.548ZM259.452,252.548L259.452,367.342L144.658,367.342L144.658,252.548L259.452,252.548ZM385.726,126.274L385.726,241.068L270.932,241.068L270.932,126.274L385.726,126.274Z" style="fill:rgb(19,19,19);fill-rule:nonzero;"/>
    </g>
</svg>
