<?xml version="1.0" encoding="UTF-8"?>
<svg width="256px" height="256px" viewBox="0 0 256 256" version="1.1" xmlns="http://www.w3.org/2000/svg" xmlns:xlink="http://www.w3.org/1999/xlink" preserveAspectRatio="xMidYMid">
	<g>
		<rect fill="rgb(255,140,47)" x="182.857143" y="48.7619048" width="24.3809524" height="12.1904762" rx="5"></rect>
		<rect fill="rgb(255,123,17)" x="0" y="243.809524" width="73.1428571" height="12.1904762" rx="5"></rect>
		<rect fill="rgb(255,146,59)" x="146.285714" y="146.285714" width="48.7619048" height="12.1904762" rx="5"></rect>
		<rect fill="rgb(255,123,17)" x="73.1428571" y="146.285714" width="60.952381" height="12.1904762" rx="5"></rect>
		<rect fill="rgb(255,140,47)" x="0" y="146.285714" width="60.952381" height="12.1904762" rx="5"></rect>
		<rect fill="rgb(255,146,59)" x="0" y="195.047619" width="73.1428571" height="12.1904762" rx="5"></rect>
		<rect fill="rgb(255,146,59)" x="0" y="97.5238095" width="73.1428571" height="12.1904762" rx="5"></rect>
		<rect fill="rgb(255,184,127)" x="60.952381" y="24.3809524" width="134.095238" height="12.1904762" rx="5"></rect>
		<rect fill="rgb(255,123,17)" x="0" y="24.3809524" width="48.7619048" height="12.1904762" rx="5"></rect>
		<rect fill="rgb(255,184,127)" x="48.7619048" y="219.428571" width="24.3809524" height="12.1904762" rx="5"></rect>
		<rect fill="rgb(255,140,47)" x="48.7619048" y="73.1428571" width="24.3809524" height="12.1904762" rx="5"></rect>
		<rect fill="rgb(255,140,47)" x="0" y="219.428571" width="36.5714286" height="12.1904762" rx="5"></rect>
		<rect fill="rgb(255,184,127)" x="0" y="73.1428571" width="36.5714286" height="12.1904762" rx="5"></rect>
		<rect fill="rgb(255,206,167)" opacity="0.5" x="158.47619" y="219.428571" width="24.3809524" height="12.1904762" rx="5"></rect>
		<rect fill="rgb(255,206,167)" opacity="0.5" x="85.3333333" y="219.428571" width="60.952381" height="12.1904762" rx="5"></rect>
		<rect fill="rgb(255,206,167)" opacity="0.5" x="195.047619" y="219.428571" width="60.952381" height="12.1904762" rx="5"></rect>
		<rect fill="rgb(255,140,47)" x="97.5238095" y="121.904762" width="109.714286" height="12.1904762" rx="5"></rect>
		<rect fill="rgb(255,184,127)" x="36.5714286" y="121.904762" width="48.7619048" height="12.1904762" rx="5"></rect>
		<rect fill="rgb(255,123,17)" x="0" y="121.904762" width="24.3809524" height="12.1904762" rx="5"></rect>
		<rect fill="rgb(255,146,59)" x="109.714286" y="48.7619048" width="60.952381" height="12.1904762" rx="5"></rect>
		<rect fill="rgb(255,140,47)" x="0" y="48.7619048" width="97.5238095" height="12.1904762" rx="5"></rect>
		<rect fill="rgb(255,184,127)" x="36.5714286" y="170.666667" width="121.904762" height="12.1904762" rx="5"></rect>
		<rect fill="rgb(255,146,59)" x="0" y="170.666667" width="24.3809524" height="12.1904762" rx="5"></rect>
		<rect fill="rgb(255,123,17)" x="146.285714" y="73.1428571" width="73.1428571" height="12.1904762" rx="5"></rect>
		<rect fill="rgb(255,184,127)" x="146.285714" y="97.5238095" width="73.1428571" height="12.1904762" rx="5"></rect>
		<rect fill="rgb(255,140,47)" x="0" y="0" width="158.47619" height="12.1904762" rx="5"></rect>
		<rect fill="rgb(255,206,167)" opacity="0.5" x="170.666667" y="0" width="85.3333333" height="12.1904762" rx="5"></rect>
		<rect fill="rgb(255,206,167)" opacity="0.5" x="170.666667" y="170.666667" width="36.5714286" height="12.1904762" rx="5"></rect>
		<rect fill="rgb(255,206,167)" opacity="0.5" x="219.428571" y="170.666667" width="36.5714286" height="12.1904762" rx="5"></rect>
		<rect fill="rgb(255,206,167)" opacity="0.5" x="207.238095" y="146.285714" width="48.7619048" height="12.1904762" rx="5"></rect>
		<rect fill="rgb(255,206,167)" opacity="0.5" x="207.238095" y="24.3809524" width="48.7619048" height="12.1904762" rx="5"></rect>
		<rect fill="rgb(255,206,167)" opacity="0.5" x="219.428571" y="121.904762" width="36.5714286" height="12.1904762" rx="5"></rect>
		<rect fill="rgb(255,206,167)" opacity="0.5" x="219.428571" y="48.7619048" width="36.5714286" height="12.1904762" rx="5"></rect>
		<rect fill="rgb(255,206,167)" opacity="0.5" x="231.619048" y="73.1428571" width="24.3809524" height="12.1904762" rx="5"></rect>
		<rect fill="rgb(255,206,167)" opacity="0.5" x="231.619048" y="97.5238095" width="24.3809524" height="12.1904762" rx="5"></rect>
		<rect fill="rgb(255,206,167)" opacity="0.5" x="134.095238" y="195.047619" width="121.904762" height="12.1904762" rx="5"></rect>
		<rect fill="rgb(255,206,167)" opacity="0.5" x="85.3333333" y="195.047619" width="36.5714286" height="12.1904762" rx="5"></rect>
		<rect fill="rgb(255,206,167)" opacity="0.5" x="182.857143" y="243.809524" width="73.1428571" height="12.1904762" rx="5"></rect>
		<rect fill="rgb(255,206,167)" opacity="0.5" x="85.3333333" y="243.809524" width="85.3333333" height="12.1904762" rx="5"></rect>
		<rect fill="rgb(255,206,167)" opacity="0.5" x="85.3333333" y="73.1428571" width="48.7619048" height="12.1904762" rx="5"></rect>
		<rect fill="rgb(255,206,167)" opacity="0.5" x="85.3333333" y="97.5238095" width="48.7619048" height="12.1904762" rx="5"></rect>
	</g>
</svg>
