<?xml version="1.0" encoding="UTF-8" standalone="no"?>
<!DOCTYPE svg PUBLIC "-//W3C//DTD SVG 1.1//EN" "http://www.w3.org/Graphics/SVG/1.1/DTD/svg11.dtd">
<svg width="100%" height="100%" viewBox="0 0 170 130" version="1.1" xmlns="http://www.w3.org/2000/svg" xmlns:xlink="http://www.w3.org/1999/xlink" xml:space="preserve" xmlns:serif="http://www.serif.com/" style="fill-rule:evenodd;clip-rule:evenodd;stroke-linejoin:round;stroke-miterlimit:2;">
    <g transform="matrix(1,0,0,1,-0.7,-0.51)">
        <path d="M170.66,69.14L170.66,39.73C170.66,33.44 165.58,28.34 159.31,28.29L159.22,28.29C155.69,28.23 150.76,27.42 147.26,23.91C144.15,20.8 143.13,15.61 142.86,11.28L142.85,11.3C142.84,11.2 142.84,11.09 142.83,10.99C142.82,10.92 142.83,10.85 142.82,10.78C142.23,5.01 137.36,0.51 131.44,0.51L39.94,0.51C39.55,0.51 39.17,0.53 38.78,0.57C38.65,0.58 38.52,0.61 38.39,0.63C38.15,0.66 37.91,0.69 37.67,0.74C37.5,0.77 37.34,0.82 37.18,0.86C36.98,0.91 36.78,0.95 36.59,1.01C36.42,1.06 36.27,1.12 36.1,1.18C35.91,1.25 35.72,1.31 35.53,1.39C35.38,1.45 35.23,1.53 35.08,1.6C34.89,1.69 34.7,1.77 34.51,1.87C34.37,1.95 34.23,2.03 34.1,2.11C33.92,2.22 33.73,2.32 33.55,2.44C33.4,2.54 33.26,2.65 33.12,2.76C32.97,2.87 32.81,2.98 32.66,3.11C32.41,3.31 32.18,3.53 31.96,3.75C31.92,3.79 31.87,3.83 31.83,3.87C31.79,3.91 31.76,3.95 31.73,3.98C31.5,4.21 31.28,4.45 31.07,4.7C30.95,4.84 30.85,5 30.74,5.14C30.63,5.29 30.51,5.44 30.41,5.59C30.3,5.76 30.2,5.94 30.09,6.11C30,6.26 29.91,6.4 29.83,6.55C29.74,6.73 29.66,6.91 29.57,7.09C29.49,7.25 29.42,7.41 29.35,7.57C29.28,7.74 29.22,7.92 29.16,8.1C29.1,8.28 29.03,8.45 28.97,8.63C28.92,8.81 28.88,8.99 28.83,9.16C28.78,9.34 28.73,9.53 28.7,9.71C28.66,9.92 28.64,10.12 28.61,10.33C28.59,10.49 28.55,10.65 28.54,10.82C28.52,10.98 28.52,11.14 28.51,11.3L28.5,11.29C28.24,15.61 27.21,20.81 24.1,23.92C20.59,27.43 15.67,28.24 12.14,28.3L12.05,28.3C11.7,28.3 11.35,28.32 11.01,28.35C10.84,28.37 10.67,28.4 10.5,28.43C10.3,28.46 10.1,28.48 9.91,28.52C9.71,28.56 9.52,28.61 9.33,28.66C9.16,28.7 8.99,28.74 8.82,28.79C8.63,28.85 8.45,28.92 8.26,28.98C8.09,29.04 7.92,29.09 7.76,29.16C7.59,29.23 7.42,29.32 7.25,29.4C7.08,29.48 6.91,29.55 6.74,29.64C6.58,29.73 6.42,29.83 6.26,29.92C6.1,30.02 5.94,30.11 5.78,30.21C5.6,30.33 5.44,30.46 5.27,30.59C5.14,30.69 5.01,30.78 4.89,30.88C4.3,31.36 3.77,31.9 3.29,32.48C3.19,32.6 3.1,32.74 3,32.86C2.87,33.03 2.74,33.2 2.62,33.38C2.51,33.54 2.42,33.7 2.33,33.86C2.24,34.02 2.14,34.17 2.05,34.34C1.96,34.5 1.89,34.67 1.81,34.84C1.73,35.01 1.65,35.18 1.57,35.35C1.5,35.52 1.45,35.68 1.39,35.85C1.32,36.04 1.25,36.22 1.2,36.41C1.15,36.58 1.11,36.75 1.07,36.92C1.02,37.11 0.97,37.3 0.93,37.5C0.89,37.7 0.87,37.9 0.84,38.09C0.82,38.26 0.78,38.43 0.77,38.6C0.72,38.97 0.7,39.35 0.7,39.73L0.7,69.14C0.7,75.43 5.78,80.53 12.05,80.58L12.13,80.58C15.66,80.64 20.59,81.45 24.09,84.96C27.14,88.01 28.18,93.05 28.47,97.32L28.47,126.57C28.47,130.28 33.14,131.91 35.45,129.02L51.98,108.35L131.42,108.35C137.52,108.35 142.49,103.57 142.83,97.56L142.84,97.58C143.1,93.26 144.13,88.06 147.24,84.95C150.75,81.44 155.67,80.63 159.2,80.57L159.29,80.57C159.6,80.57 159.91,80.55 160.22,80.52C160.27,80.52 160.33,80.52 160.38,80.51C166.15,79.94 170.66,75.07 170.66,69.14ZM143.4,81.11C139.84,84.67 134.79,85.45 131.24,85.49L40.12,85.49C36.57,85.45 31.51,84.68 27.96,81.11C25.07,78.22 23.96,73.2 23.58,68.76L23.58,40.12C23.95,35.68 25.06,30.65 27.96,27.76C31.52,24.2 36.57,23.42 40.12,23.38L131.24,23.38C134.79,23.42 139.85,24.19 143.4,27.76C146.3,30.66 147.4,35.67 147.78,40.11L147.78,68.73C147.41,73.19 146.3,78.21 143.4,81.11Z" style="fill:rgb(64,64,64);fill-rule:nonzero;"/>
        <path d="M60.35,37.1C54.03,37.1 48.91,42.22 48.91,48.54L48.91,59.98C48.91,66.3 54.03,71.42 60.35,71.42C66.67,71.42 71.79,66.3 71.79,59.98L71.79,48.54C71.79,42.22 66.67,37.1 60.35,37.1Z" style="fill:rgb(64,64,64);fill-rule:nonzero;"/>
        <path d="M111.01,37.1C104.69,37.1 99.57,42.22 99.57,48.54L99.57,59.98C99.57,66.3 104.69,71.42 111.01,71.42C117.33,71.42 122.45,66.3 122.45,59.98L122.45,48.54C122.45,42.22 117.33,37.1 111.01,37.1Z" style="fill:rgb(64,64,64);fill-rule:nonzero;"/>
    </g>
</svg>
