<?xml version="1.0" encoding="UTF-8" standalone="no"?>
<!DOCTYPE svg PUBLIC "-//W3C//DTD SVG 1.1//EN" "http://www.w3.org/Graphics/SVG/1.1/DTD/svg11.dtd">
<svg width="100%" height="100%" viewBox="0 0 742 534" version="1.1" xmlns="http://www.w3.org/2000/svg" xmlns:xlink="http://www.w3.org/1999/xlink" xml:space="preserve" xmlns:serif="http://www.serif.com/" style="fill-rule:evenodd;clip-rule:evenodd;stroke-linejoin:round;stroke-miterlimit:10; fill:rgb(38,38,38)">
    <g transform="matrix(1.25,0,0,-1.25,-328.22,747.919)">
        <path d="M481.959,196.198C435.953,162.482 374.417,168.295 344.438,209.236C314.542,250.094 327.58,310.55 373.586,344.183C419.51,377.899 481.129,372.086 511.025,331.228C541.004,290.287 527.966,229.831 481.959,196.198Z"/>
    </g>
    <g transform="matrix(1.25,0,0,-1.25,-328.22,747.919)">
        <path d="M481.959,196.198C435.953,162.482 374.417,168.295 344.438,209.236C314.542,250.094 327.58,310.55 373.586,344.183C419.51,377.899 481.129,372.086 511.025,331.228C541.004,290.287 527.966,229.831 481.959,196.198Z" style="fill:none;fill-rule:nonzero;stroke:rgb(38,38,38);stroke-width:3.57px;"/>
    </g>
    <g transform="matrix(1.25,0,0,-1.25,-328.22,747.919)">
        <path d="M456.548,568.071C513.765,526.217 529.959,451.062 492.672,400.238C455.468,349.415 378.901,342.19 321.766,384.045C264.549,425.899 248.355,501.137 285.559,551.961C322.846,602.784 399.33,610.009 456.548,568.071Z"/>
    </g>
    <g transform="matrix(1.25,0,0,-1.25,-328.22,747.919)">
        <path d="M456.548,568.071C513.765,526.217 529.959,451.062 492.672,400.238C455.468,349.415 378.901,342.19 321.766,384.045C264.549,425.899 248.355,501.137 285.559,551.961C322.846,602.784 399.33,610.009 456.548,568.071Z" style="fill:none;fill-rule:nonzero;stroke:rgb(38,38,38);stroke-width:5.97px;"/>
    </g>
    <g transform="matrix(1.25,0,0,-1.25,-328.22,747.919)">
        <path d="M406.472,441.013C385.046,458.619 383.801,492.667 403.731,516.916C423.745,541.248 457.295,546.729 478.721,529.04C500.229,511.435 501.475,477.47 481.461,453.138C461.53,428.806 427.98,423.408 406.472,441.013Z" style="fill:rgb(69,69,69);"/>
    </g>
    <g transform="matrix(1.25,0,0,-1.25,-328.22,747.919)">
        <path d="M406.472,441.013C385.046,458.619 383.801,492.667 403.731,516.916C423.745,541.248 457.295,546.729 478.721,529.04C500.229,511.435 501.475,477.47 481.461,453.138C461.53,428.806 427.98,423.408 406.472,441.013Z" style="fill:none;fill-rule:nonzero;"/>
    </g>
    <g transform="matrix(1.25,0,0,-1.25,-328.22,747.919)">
        <path d="M388.534,445.415C367.026,463.103 365.78,497.068 385.711,521.4C405.724,545.732 439.357,551.13 460.783,533.525C482.291,515.919 483.537,481.871 463.523,457.539C443.593,433.207 409.96,427.809 388.534,445.415Z"/>
    </g>
    <g transform="matrix(1.25,0,0,-1.25,-328.22,747.919)">
        <path d="M388.534,445.415C367.026,463.103 365.78,497.068 385.711,521.4C405.724,545.732 439.357,551.13 460.783,533.525C482.291,515.919 483.537,481.871 463.523,457.539C443.593,433.207 409.96,427.809 388.534,445.415Z" style="fill:none;fill-rule:nonzero;"/>
    </g>
    <g transform="matrix(1.25,0,0,-1.25,-328.22,747.919)">
        <path d="M433.295,392.1C398.749,415.103 350.998,432.958 330.486,463.684C315.206,486.522 297.85,495.49 316.119,518.078C333.559,539.421 343.275,562.341 367.524,566.161C394.763,562.507 415.939,560.099 433.378,529.788C431.385,512.016 437.364,474.48 414.278,456.626L374.334,434.453" style="fill:none;fill-rule:nonzero;stroke:rgb(44,44,44);stroke-width:17.91px;"/>
    </g>
    <g transform="matrix(1.25,0,0,-1.25,-328.22,747.919)">
        <path d="M374.666,465.927C354.901,465.927 338.874,481.622 338.874,501.054C338.874,520.487 354.901,536.182 374.666,536.182C394.43,536.182 410.458,520.487 410.458,501.054C410.458,481.622 394.43,465.927 374.666,465.927Z" style="fill:rgb(62,62,62);"/>
    </g>
    <g transform="matrix(1.25,0,0,-1.25,-328.22,747.919)">
        <path d="M374.666,465.927C354.901,465.927 338.874,481.622 338.874,501.054C338.874,520.487 354.901,536.182 374.666,536.182C394.43,536.182 410.458,520.487 410.458,501.054C410.458,481.622 394.43,465.927 374.666,465.927Z" style="fill:none;fill-rule:nonzero;"/>
    </g>
    <g transform="matrix(1.25,0,0,-1.25,-328.22,747.919)">
        <path d="M390.61,481.207C383.219,475.144 372.174,476.307 365.946,483.864C359.718,491.421 360.714,502.466 368.188,508.528C375.579,514.591 386.624,513.428 392.77,505.871C398.998,498.314 398.001,487.269 390.61,481.207Z" style="fill:rgb(44,44,44);"/>
    </g>
    <g transform="matrix(1.25,0,0,-1.25,-328.22,747.919)">
        <path d="M390.61,481.207C383.219,475.144 372.174,476.307 365.946,483.864C359.718,491.421 360.714,502.466 368.188,508.528C375.579,514.591 386.624,513.428 392.77,505.871C398.998,498.314 398.001,487.269 390.61,481.207Z" style="fill:none;fill-rule:nonzero;"/>
    </g>
    <g transform="matrix(1.25,0,0,-1.25,-328.22,747.919)">
        <path d="M436.368,389.775C401.738,412.861 349.42,412.861 328.908,443.505C313.628,466.425 287.137,495.906 305.407,518.411C322.099,544.902 343.275,563.089 369.766,563.089C397.088,559.518 425.157,548.971 431.8,527.546C429.89,509.691 433.544,481.539 410.458,463.684L372.839,433.705" style="fill:none;fill-rule:nonzero;stroke:rgb(44,44,44);stroke-width:17.91px;"/>
    </g>
    <g transform="matrix(1.25,0,0,-1.25,-328.22,747.919)">
        <path d="M451.897,380.806C449.489,376.571 439.191,377.982 428.977,383.879C418.679,389.775 412.368,397.996 414.776,402.231C417.268,406.384 427.482,405.055 437.78,399.159C447.994,393.18 454.389,385.041 451.897,380.806Z" style="fill:rgb(44,44,44);"/>
    </g>
    <g transform="matrix(1.25,0,0,-1.25,-328.22,747.919)">
        <path d="M451.897,380.806C449.489,376.571 439.191,377.982 428.977,383.879C418.679,389.775 412.368,397.996 414.776,402.231C417.268,406.384 427.482,405.055 437.78,399.159C447.994,393.18 454.389,385.041 451.897,380.806Z" style="fill:none;fill-rule:nonzero;"/>
    </g>
    <g transform="matrix(1.25,0,0,-1.25,-328.22,747.919)">
        <path d="M751.771,343.436C797.694,309.803 810.732,249.263 780.753,208.406C750.774,167.465 689.238,161.652 643.232,195.285C597.308,229.001 584.27,289.457 614.249,330.315C644.228,371.256 705.764,377.152 751.771,343.436Z"/>
    </g>
    <g transform="matrix(1.25,0,0,-1.25,-328.22,747.919)">
        <path d="M751.771,343.436C797.694,309.803 810.732,249.263 780.753,208.406C750.774,167.465 689.238,161.652 643.232,195.285C597.308,229.001 584.27,289.457 614.249,330.315C644.228,371.256 705.764,377.152 751.771,343.436Z" style="fill:none;fill-rule:nonzero;stroke:rgb(38,38,38);stroke-width:3.57px;"/>
    </g>
    <g transform="matrix(1.25,0,0,-1.25,-328.22,747.919)">
        <path d="M561.101,267.865C507.952,267.865 464.935,302.246 464.935,344.765C464.935,387.2 507.952,421.664 561.101,421.664C614.249,421.664 657.266,387.2 657.266,344.765C657.266,302.246 614.249,267.865 561.101,267.865Z" style="fill:rgb(84,84,84);"/>
    </g>
    <g transform="matrix(1.25,0,0,-1.25,-328.22,747.919)">
        <path d="M561.101,267.865C507.952,267.865 464.935,302.246 464.935,344.765C464.935,387.2 507.952,421.664 561.101,421.664C614.249,421.664 657.266,387.2 657.266,344.765C657.266,302.246 614.249,267.865 561.101,267.865Z" style="fill:none;fill-rule:nonzero;stroke:rgb(38,38,38);stroke-width:7.17px;"/>
    </g>
    <g transform="matrix(1.25,0,0,-1.25,-328.22,747.919)">
        <path d="M495.163,345.678C473.904,345.678 456.714,362.951 456.714,384.128C456.714,405.387 473.904,422.577 495.163,422.577C516.423,422.577 533.696,405.387 533.696,384.128C533.696,362.951 516.423,345.678 495.163,345.678Z" style="fill:rgb(90,90,90);"/>
    </g>
    <g transform="matrix(1.25,0,0,-1.25,-328.22,747.919)">
        <path d="M495.163,345.678C473.904,345.678 456.714,362.951 456.714,384.128C456.714,405.387 473.904,422.577 495.163,422.577C516.423,422.577 533.696,405.387 533.696,384.128C533.696,362.951 516.423,345.678 495.163,345.678Z" style="fill:none;fill-rule:nonzero;stroke:rgb(38,38,38);stroke-width:8.37px;"/>
    </g>
    <g transform="matrix(1.25,0,0,-1.25,-328.22,747.919)">
        <path d="M796.864,379.394C740.062,337.789 663.993,345.014 627.038,395.505C590,445.996 606.111,520.653 662.913,562.341C719.716,603.946 795.784,596.722 832.739,546.231C869.777,495.656 853.666,420.999 796.864,379.394Z"/>
    </g>
    <g transform="matrix(1.25,0,0,-1.25,-328.22,747.919)">
        <path d="M796.864,379.394C740.062,337.789 663.993,345.014 627.038,395.505C590,445.996 606.111,520.653 662.913,562.341C719.716,603.946 795.784,596.722 832.739,546.231C869.777,495.656 853.666,420.999 796.864,379.394Z" style="fill:none;fill-rule:nonzero;stroke:rgb(38,38,38);stroke-width:5.97px;"/>
    </g>
    <g transform="matrix(1.25,0,0,-1.25,-328.22,747.919)">
        <path d="M809.404,411.698C788.061,394.176 754.677,399.657 734.83,423.823C714.982,447.989 716.145,481.788 737.487,499.31C758.83,516.833 792.214,511.435 812.061,487.186C831.909,463.02 830.746,429.221 809.404,411.698Z" style="fill:rgb(69,69,69);"/>
    </g>
    <g transform="matrix(1.25,0,0,-1.25,-328.22,747.919)">
        <path d="M809.404,411.698C788.061,394.176 754.677,399.657 734.83,423.823C714.982,447.989 716.145,481.788 737.487,499.31C758.83,516.833 792.214,511.435 812.061,487.186C831.909,463.02 830.746,429.221 809.404,411.698Z" style="fill:none;fill-rule:nonzero;"/>
    </g>
    <g transform="matrix(1.25,0,0,-1.25,-328.22,747.919)">
        <path d="M791.632,411.698C770.29,394.176 736.906,399.657 717.058,423.823C697.211,447.989 698.373,481.788 719.716,499.227C741.058,516.75 774.442,511.352 794.29,487.186C814.137,463.02 812.892,429.221 791.632,411.698Z"/>
    </g>
    <g transform="matrix(1.25,0,0,-1.25,-328.22,747.919)">
        <path d="M791.632,411.698C770.29,394.176 736.906,399.657 717.058,423.823C697.211,447.989 698.373,481.788 719.716,499.227C741.058,516.75 774.442,511.352 794.29,487.186C814.137,463.02 812.892,429.221 791.632,411.698Z" style="fill:none;fill-rule:nonzero;"/>
    </g>
    <g transform="matrix(1.25,0,0,-1.25,-328.22,747.919)">
        <path d="M815.383,519.241C800.435,567.49 733.584,550.964 708.671,534.272C674.29,511.352 678.609,515.919 658.263,485.442C643.066,462.605 651.287,432.626 669.474,410.204C686.664,388.944 693.557,398.744 720.629,402.314C747.702,405.885 755.093,406.799 761.653,428.058C769.875,454.716 743.3,482.286 720.38,499.975L694.553,517.829" style="fill:none;fill-rule:nonzero;stroke:rgb(44,44,44);stroke-width:17.91px;"/>
    </g>
    <g transform="matrix(1.25,0,0,-1.25,-328.22,747.919)">
        <path d="M702.027,420.086C684.588,420.086 670.553,434.37 670.553,452.058C670.553,469.747 684.588,484.03 702.027,484.03C719.384,484.03 733.418,469.747 733.418,452.058C733.418,434.37 719.384,420.086 702.027,420.086Z" style="fill:rgb(62,62,62);"/>
    </g>
    <g transform="matrix(1.25,0,0,-1.25,-328.22,747.919)">
        <path d="M702.027,420.086C684.588,420.086 670.553,434.37 670.553,452.058C670.553,469.747 684.588,484.03 702.027,484.03C719.384,484.03 733.418,469.747 733.418,452.058C733.418,434.37 719.384,420.086 702.027,420.086Z" style="fill:none;fill-rule:nonzero;"/>
    </g>
    <g transform="matrix(1.25,0,0,-1.25,-328.22,747.919)">
        <path d="M713.072,433.705C705.681,427.726 694.719,428.889 688.574,436.446C682.429,443.92 683.342,454.965 690.65,460.944C697.958,467.006 709.003,465.76 715.148,458.286C721.294,450.729 720.38,439.768 713.072,433.705Z" style="fill:rgb(44,44,44);"/>
    </g>
    <g transform="matrix(1.25,0,0,-1.25,-328.22,747.919)">
        <path d="M713.072,433.705C705.681,427.726 694.719,428.889 688.574,436.446C682.429,443.92 683.342,454.965 690.65,460.944C697.958,467.006 709.003,465.76 715.148,458.286C721.294,450.729 720.38,439.768 713.072,433.705Z" style="fill:none;fill-rule:nonzero;"/>
    </g>
    <g transform="matrix(1.25,0,0,-1.25,-328.22,747.919)">
        <path d="M819.95,520.736C805.002,568.985 723.037,560.016 698.124,543.324C663.744,520.404 668.809,524.888 648.464,494.411C633.266,471.657 646.803,430.55 664.989,408.128C682.18,386.868 694.719,391.685 721.709,395.256C748.781,398.827 758.248,398.162 764.892,419.505C773.113,446.079 768.214,478.881 745.21,496.653L694.553,517.829" style="fill:none;fill-rule:nonzero;stroke:rgb(44,44,44);stroke-width:17.91px;"/>
    </g>
    <g transform="matrix(1.25,0,0,-1.25,-328.22,747.919)">
        <path d="M622.471,345.678C601.211,345.678 583.938,362.951 583.938,384.128C583.938,405.387 601.211,422.577 622.471,422.577C643.73,422.577 660.92,405.387 660.92,384.128C660.92,362.951 643.73,345.678 622.471,345.678Z" style="fill:rgb(90,90,90);"/>
    </g>
    <g transform="matrix(1.25,0,0,-1.25,-328.22,747.919)">
        <path d="M622.471,345.678C601.211,345.678 583.938,362.951 583.938,384.128C583.938,405.387 601.211,422.577 622.471,422.577C643.73,422.577 660.92,405.387 660.92,384.128C660.92,362.951 643.73,345.678 622.471,345.678Z" style="fill:none;fill-rule:nonzero;stroke:rgb(38,38,38);stroke-width:8.37px;"/>
    </g>
    <g transform="matrix(1.25,0,0,-1.25,-328.22,747.919)">
        <path d="M496.326,365.027C485.696,365.027 477.06,373.664 477.06,384.294C477.06,394.923 485.696,403.56 496.326,403.56C506.956,403.56 515.509,394.923 515.509,384.294C515.509,373.664 506.956,365.027 496.326,365.027Z"/>
    </g>
    <g transform="matrix(1.25,0,0,-1.25,-328.22,747.919)">
        <path d="M496.326,365.027C485.696,365.027 477.06,373.664 477.06,384.294C477.06,394.923 485.696,403.56 496.326,403.56C506.956,403.56 515.509,394.923 515.509,384.294C515.509,373.664 506.956,365.027 496.326,365.027Z" style="fill:none;fill-rule:nonzero;"/>
    </g>
    <g transform="matrix(1.25,0,0,-1.25,-328.22,747.919)">
        <path d="M623.882,367.187C613.17,367.187 604.616,375.823 604.616,386.37C604.616,397 613.17,405.553 623.882,405.553C634.512,405.553 643.066,397 643.066,386.37C643.066,375.823 634.512,367.187 623.882,367.187Z"/>
    </g>
    <g transform="matrix(1.25,0,0,-1.25,-328.22,747.919)">
        <path d="M623.882,367.187C613.17,367.187 604.616,375.823 604.616,386.37C604.616,397 613.17,405.553 623.882,405.553C634.512,405.553 643.066,397 643.066,386.37C643.066,375.823 634.512,367.187 623.882,367.187Z" style="fill:none;fill-rule:nonzero;"/>
    </g>
    <g transform="matrix(1.25,0,0,-1.25,-328.22,747.919)">
        <path d="M528.298,324.336C524.478,298.011 600.962,278.993 591.744,319.851L591.744,322.093" style="fill:none;fill-rule:nonzero;stroke:rgb(62,62,62);stroke-width:10.74px;"/>
    </g>
    <g transform="matrix(1.25,0,0,-1.25,-328.22,747.919)">
        <path d="M549.142,422.328C547.564,443.255 555.205,467.006 545.654,486.355L537.599,505.539L527.136,487.933L535.191,486.355M572.561,422.328C574.139,443.255 566.416,467.006 575.966,486.355L584.021,505.539L594.485,487.933L586.429,486.355" style="fill:none;fill-rule:nonzero;stroke:rgb(38,38,38);stroke-width:8.37px;"/>
    </g>
    <g transform="matrix(1.25,0,0,-1.25,-328.22,747.919)">
        <path d="M379.732,215.797C357.642,233.983 356.894,269.609 378.071,295.519C399.33,321.346 434.458,327.574 456.631,309.388C478.721,291.201 479.468,255.575 458.209,229.748C437.032,203.838 401.904,197.61 379.732,215.797Z" style="fill:rgb(62,62,62);"/>
    </g>
    <g transform="matrix(1.25,0,0,-1.25,-328.22,747.919)">
        <path d="M379.732,215.797C357.642,233.983 356.894,269.609 378.071,295.519C399.33,321.346 434.458,327.574 456.631,309.388C478.721,291.201 479.468,255.575 458.209,229.748C437.032,203.838 401.904,197.61 379.732,215.797Z" style="fill:none;fill-rule:nonzero;"/>
    </g>
    <g transform="matrix(1.25,0,0,-1.25,-328.22,747.919)">
        <path d="M541.17,267.035L541.17,242.205L554.789,219.617M571.481,267.035L571.481,242.122L585.101,219.534" style="fill:none;fill-rule:nonzero;stroke:rgb(38,38,38);stroke-width:7.17px;"/>
    </g>
    <g transform="matrix(1.25,0,0,-1.25,-328.22,747.919)">
        <path d="M405.641,245.277C395.676,253.416 397.254,271.852 409.212,286.384C421.171,301 438.859,306.149 448.908,297.928C458.79,289.789 457.212,271.353 445.337,256.737C433.378,242.205 415.607,237.056 405.641,245.277Z" style="fill:rgb(44,44,44);"/>
    </g>
    <g transform="matrix(1.25,0,0,-1.25,-328.22,747.919)">
        <path d="M405.641,245.277C395.676,253.416 397.254,271.852 409.212,286.384C421.171,301 438.859,306.149 448.908,297.928C458.79,289.789 457.212,271.353 445.337,256.737C433.378,242.205 415.607,237.056 405.641,245.277Z" style="fill:none;fill-rule:nonzero;"/>
    </g>
    <g transform="matrix(1.25,0,0,-1.25,-328.22,747.919)">
        <path d="M741.39,215.713C719.217,197.527 684.09,203.755 662.83,229.665C641.654,255.492 642.401,291.201 664.491,309.305C686.664,327.491 721.792,321.263 743.051,295.436C764.228,269.526 763.48,233.9 741.39,215.713Z" style="fill:rgb(62,62,62);"/>
    </g>
    <g transform="matrix(1.25,0,0,-1.25,-328.22,747.919)">
        <path d="M741.39,215.713C719.217,197.527 684.09,203.755 662.83,229.665C641.654,255.492 642.401,291.201 664.491,309.305C686.664,327.491 721.792,321.263 743.051,295.436C764.228,269.526 763.48,233.9 741.39,215.713Z" style="fill:none;fill-rule:nonzero;"/>
    </g>
    <g transform="matrix(1.25,0,0,-1.25,-328.22,747.919)">
        <path d="M712.491,242.952C702.525,234.814 684.754,239.962 672.879,254.412C660.92,268.945 659.342,287.381 669.391,295.519C679.273,303.741 697.045,298.592 709.003,284.059C720.878,269.609 722.456,251.173 712.491,242.952Z" style="fill:rgb(44,44,44);"/>
    </g>
    <g transform="matrix(1.25,0,0,-1.25,-328.22,747.919)">
        <path d="M712.491,242.952C702.525,234.814 684.754,239.962 672.879,254.412C660.92,268.945 659.342,287.381 669.391,295.519C679.273,303.741 697.045,298.592 709.003,284.059C720.878,269.609 722.456,251.173 712.491,242.952Z" style="fill:none;fill-rule:nonzero;"/>
    </g>
    <g transform="matrix(1.25,0,0,-1.25,-328.22,747.919)">
        <path d="M829.251,504.791C824.186,501.303 813.224,508.362 804.67,520.653C796.034,532.86 793.21,545.649 798.193,549.137C803.175,552.625 814.22,545.566 822.774,533.276C831.327,521.068 834.234,508.279 829.251,504.791Z" style="fill:rgb(44,44,44);"/>
    </g>
    <g transform="matrix(1.25,0,0,-1.25,-328.22,747.919)">
        <path d="M829.251,504.791C824.186,501.303 813.224,508.362 804.67,520.653C796.034,532.86 793.21,545.649 798.193,549.137C803.175,552.625 814.22,545.566 822.774,533.276C831.327,521.068 834.234,508.279 829.251,504.791Z" style="fill:none;fill-rule:nonzero;"/>
    </g>
</svg>
