<?xml version="1.0" encoding="UTF-8" standalone="no"?>
<!DOCTYPE svg PUBLIC "-//W3C//DTD SVG 1.1//EN" "http://www.w3.org/Graphics/SVG/1.1/DTD/svg11.dtd">
<svg width="100%" height="100%" viewBox="0 0 1180 1181" version="1.1" xmlns="http://www.w3.org/2000/svg" xmlns:xlink="http://www.w3.org/1999/xlink" xml:space="preserve" xmlns:serif="http://www.serif.com/" style="fill-rule:evenodd;clip-rule:evenodd;stroke-linejoin:round;stroke-miterlimit:2;">
    <g transform="matrix(23.7298,0,0,23.7298,4.98237e-10,-1949.08)">
        <path d="M38.121,131.833C32.097,132.384 27.06,125.324 23.198,121.743C21.245,135.812 -0.015,134.479 0,120.207C0.007,114.212 0,99.564 0,93.758C0,91.67 0.573,89.568 1.648,87.785C3.687,84.328 7.629,82.095 11.643,82.139C17.689,82.146 32.249,82.132 38.121,82.139C52.406,82.139 53.763,103.391 39.646,105.304L46.345,111.994C53.705,118.917 48.182,132.137 38.121,131.833ZM34.877,123.461C39.029,127.738 45.656,121.113 41.38,116.967L29.767,105.37L23.271,105.37L23.271,111.864L33.309,121.888L34.877,123.461ZM7.033,120.214C6.939,126.157 16.324,126.179 16.23,120.214L16.23,93.758C16.31,90.793 13.174,88.438 10.343,89.351C10.22,89.387 10.104,89.423 9.995,89.467C8.217,90.126 6.983,91.946 7.033,93.845L7.033,120.214ZM38.121,98.346C44.088,98.44 44.081,89.068 38.121,89.162L22.349,89.162C23.546,91.685 23.242,95.613 23.263,98.346L38.121,98.346Z" style="fill-rule:nonzero;"/>
    </g>
</svg>
