<?xml version="1.0" encoding="UTF-8" standalone="no"?>
<!DOCTYPE svg PUBLIC "-//W3C//DTD SVG 1.1//EN" "http://www.w3.org/Graphics/SVG/1.1/DTD/svg11.dtd">
<svg xmlns="http://www.w3.org/2000/svg" version="1.1" viewBox="0 0 370 370">
<path fill="rgb(115,115,115)" fill-opacity="1.000" d="M 0.00 0.00 Q 185.00 0.00 370.00 0.00 Q 370.00 185.00 370.00 370.00 Q 185.00 370.00 0.00 370.00 Q 0.00 185.00 0.00 0.00 Z M 177.29 26.75 L 175.17 25.36 A 1.08 1.01 -48.6 0 0 173.90 25.48 Q 172.54 26.72 171.75 28.25 Q 168.42 34.69 164.55 40.81 Q 162.75 43.67 161.27 44.59 Q 158.99 46.01 156.06 45.53 A 0.61 0.55 -86.7 0 1 155.59 44.95 Q 155.57 43.47 154.00 43.75 Q 151.36 44.21 145.55 43.61 Q 145.53 43.61 139.48 42.64 Q 135.03 41.93 130.50 42.29 Q 106.91 37.72 83.25 33.50 Q 81.02 32.59 80.25 34.79 Q 78.61 33.77 76.75 33.55 A 0.83 0.78 -69.5 0 0 75.98 33.93 Q 74.82 35.83 73.81 37.81 Q 71.12 46.65 66.81 54.81 Q 64.61 58.99 56.00 79.64 Q 53.03 86.76 47.94 97.94 Q 44.04 106.50 36.69 124.44 Q 32.99 130.64 30.75 137.50 Q 27.77 144.64 25.19 151.94 Q 19.24 162.70 15.06 174.27 Q 12.99 179.98 10.16 185.36 Q 7.86 189.72 6.44 194.44 Q 3.12 199.50 2.21 205.50 Q 0.17 210.87 1.75 215.50 Q 3.58 220.85 8.69 229.06 Q 17.37 243.01 25.94 257.03 Q 28.41 261.07 30.41 262.23 Q 33.67 264.11 37.81 262.81 Q 43.51 261.03 46.63 256.03 Q 48.43 253.14 49.38 251.85 Q 50.88 249.82 52.06 247.56 Q 52.98 246.37 54.33 246.57 A 1.31 0.97 71.5 0 1 55.10 247.11 Q 58.39 251.96 59.75 254.50 Q 65.28 264.83 72.19 274.31 Q 79.86 288.41 88.69 301.81 Q 90.28 305.90 92.06 306.69 Q 96.07 308.48 97.79 312.50 Q 94.87 319.49 89.66 324.95 A 1.26 1.24 67.0 0 0 89.32 325.81 Q 89.35 328.04 89.00 329.00 Q 86.60 335.68 90.95 339.07 Q 93.07 340.73 97.47 341.02 Q 105.10 341.51 112.75 341.25 Q 135.21 343.24 157.75 342.46 Q 165.53 343.69 173.21 342.06 Q 175.92 341.49 177.65 339.40 Q 181.85 334.32 185.03 328.55 Q 185.07 328.48 185.92 326.51 Q 186.37 325.47 187.15 324.61 Q 187.49 324.23 187.63 323.77 Q 189.12 318.56 194.14 319.55 Q 196.22 319.96 196.27 319.97 Q 209.20 321.75 222.25 320.75 Q 240.94 321.52 244.25 321.25 Q 252.77 320.54 257.59 314.19 Q 260.36 310.54 260.51 310.35 Q 262.21 308.20 263.50 305.75 Q 266.29 303.10 268.31 299.81 Q 271.15 296.31 273.87 292.70 Q 275.56 290.45 279.04 285.28 Q 284.47 277.20 290.69 269.69 Q 291.67 267.55 293.81 265.06 Q 296.20 262.29 302.46 253.55 Q 303.02 252.77 304.59 250.96 Q 305.70 249.69 306.58 248.25 Q 307.88 246.14 309.43 244.63 Q 313.32 240.85 315.56 235.81 Q 320.82 229.72 325.21 222.97 Q 328.71 217.57 333.25 213.00 Q 338.51 204.77 344.81 197.31 Q 349.54 191.72 362.80 172.44 Q 365.04 169.18 365.45 166.44 Q 366.45 159.62 362.19 153.81 Q 351.47 141.74 341.13 129.35 Q 337.83 125.40 333.81 122.19 Q 328.76 114.31 325.69 111.81 Q 322.83 109.50 321.56 107.19 Q 319.53 103.50 316.02 104.98 A 0.64 0.53 58.2 0 1 315.35 104.75 Q 315.03 104.35 314.50 104.79 Q 313.59 102.58 312.75 104.54 Q 311.12 105.12 309.47 104.65 A 1.14 1.00 33.5 0 0 308.58 104.77 Q 305.37 106.96 303.44 111.19 Q 301.14 116.20 297.76 120.94 A 1.91 1.90 18.5 0 1 296.15 121.74 Q 293.70 121.68 291.77 120.09 Q 291.11 119.55 290.17 118.05 Q 289.37 116.75 288.50 116.00 Q 286.05 113.87 284.94 111.56 Q 280.74 106.48 276.68 101.29 Q 274.17 98.08 271.19 95.31 Q 265.94 87.59 259.38 80.98 Q 258.01 79.60 256.35 76.96 Q 254.98 74.78 253.07 73.03 Q 253.00 72.97 251.04 70.88 Q 249.48 69.21 246.85 68.67 A 0.70 0.70 -76.4 0 1 246.32 67.80 Q 248.15 60.98 252.34 55.48 Q 256.13 50.51 256.64 49.22 Q 258.59 44.27 256.27 39.16 Q 255.39 37.24 253.98 36.51 Q 252.30 35.65 250.25 36.04 Q 248.21 35.43 246.19 34.75 Q 244.51 34.19 242.06 34.17 Q 238.99 34.15 236.13 33.08 Q 233.98 32.27 232.19 32.28 Q 228.71 32.29 225.25 32.04 Q 219.01 30.84 212.74 29.78 Q 211.36 29.55 210.00 29.79 L 179.81 24.40 A 0.92 0.80 22.4 0 0 178.98 24.68 L 177.29 26.75 Z"/>
<path fill="rgb(20,20,20)" fill-opacity="1.000" d="M 179.81 24.40 L 210.00 29.79 Q 212.64 31.43 215.75 31.28 A 1.48 0.95 54.1 0 1 216.59 31.61 Q 217.21 32.10 218.24 31.97 A 4.58 4.52 -34.7 0 1 220.94 32.44 Q 222.67 33.32 224.25 32.79 Q 228.09 34.19 232.19 34.31 Q 240.80 36.16 249.50 37.50 Q 252.50 38.63 250.46 41.50 L 245.46 50.50 L 235.46 67.75 L 233.79 68.25 Q 233.81 68.02 233.73 67.90 A 0.37 0.23 -34.9 0 0 233.27 67.92 L 97.50 166.54 Q 97.02 166.56 97.13 166.35 Q 128.01 112.06 159.29 58.00 L 177.29 26.75 L 178.98 24.68 A 0.92 0.80 22.4 0 1 179.81 24.40 Z"/>
<path fill="rgb(99,99,99)" fill-opacity="1.000" d="M 175.17 25.36 L 177.29 26.75 L 159.29 58.00 L 154.71 51.50 L 156.31 47.70 A 0.60 0.55 15.9 0 0 155.84 46.93 L 130.50 42.29 Q 135.03 41.93 139.48 42.64 Q 145.53 43.61 145.55 43.61 Q 151.36 44.21 154.00 43.75 Q 155.57 43.47 155.59 44.95 A 0.61 0.55 -86.7 0 0 156.06 45.53 Q 158.99 46.01 161.27 44.59 Q 162.75 43.67 164.55 40.81 Q 168.42 34.69 171.75 28.25 Q 172.54 26.72 173.90 25.48 A 1.08 1.01 -48.6 0 1 175.17 25.36 Z"/>
<path fill="rgb(66,66,66)" fill-opacity="1.000" d="M 212.74 29.78 Q 219.01 30.84 225.25 32.04 Q 225.04 32.77 224.25 32.79 Q 222.67 33.32 220.94 32.44 A 4.58 4.52 -34.7 0 0 218.24 31.97 Q 217.21 32.10 216.59 31.61 A 1.48 0.95 54.1 0 0 215.75 31.28 Q 212.64 31.43 210.00 29.79 Q 211.36 29.55 212.74 29.78 Z"/>
<path fill="rgb(96,96,96)" fill-opacity="1.000" d="M 225.25 32.04 Q 228.71 32.29 232.19 32.28 Q 233.98 32.27 236.13 33.08 Q 238.99 34.15 242.06 34.17 Q 244.51 34.19 246.19 34.75 Q 248.21 35.43 250.25 36.04 Q 250.42 37.08 251.26 37.23 A 1.48 0.46 4.1 0 1 252.13 37.57 Q 252.81 38.25 252.80 39.25 Q 252.79 39.79 253.01 40.19 Q 254.62 43.11 253.56 47.06 Q 252.31 51.72 250.69 53.44 Q 249.60 54.58 249.46 55.68 A 1.89 1.09 81.7 0 1 249.11 56.56 Q 248.16 57.67 247.56 58.99 Q 246.93 60.38 246.11 61.37 Q 244.47 63.35 243.50 65.75 Q 242.06 67.45 243.29 69.25 L 239.25 75.79 Q 237.50 73.67 238.31 71.06 Q 241.01 66.23 243.56 61.31 Q 247.40 55.70 250.31 49.56 Q 251.84 46.36 251.42 43.93 A 1.67 0.75 35.2 0 0 250.94 43.12 Q 250.33 42.48 250.46 41.50 Q 252.50 38.63 249.50 37.50 Q 240.80 36.16 232.19 34.31 Q 228.09 34.19 224.25 32.79 Q 225.04 32.77 225.25 32.04 Z"/>
<path fill="rgb(20,20,20)" fill-opacity="1.000" d="M 83.25 33.50 Q 106.91 37.72 130.50 42.29 L 155.84 46.93 A 0.60 0.55 15.9 0 1 156.31 47.70 L 154.71 51.50 L 153.46 53.75 L 75.71 188.25 L 73.50 190.46 L 36.90 217.21 A 0.33 0.32 -47.7 0 0 36.92 217.76 L 52.25 226.79 Q 52.78 227.16 53.04 227.75 Q 45.03 241.49 36.94 255.19 Q 36.00 257.20 34.75 255.46 Q 31.69 248.89 27.56 242.94 Q 17.84 226.50 7.79 210.25 Q 6.04 207.57 6.75 204.50 Q 36.79 135.31 66.54 66.00 L 80.25 34.79 Q 81.02 32.59 83.25 33.50 Z"/>
<path fill="rgb(106,106,106)" fill-opacity="1.000" d="M 76.75 33.55 Q 78.61 33.77 80.25 34.79 L 66.54 66.00 Q 64.95 65.65 64.73 67.19 A 1.75 1.20 79.4 0 1 64.35 68.05 Q 60.02 72.84 58.69 79.19 Q 57.57 81.15 56.64 83.20 Q 56.39 83.74 54.40 87.04 Q 52.81 89.69 52.97 93.00 A 1.98 1.30 68.6 0 1 52.77 93.95 L 48.33 101.65 A 1.72 1.67 59.3 0 0 48.11 102.56 Q 48.21 104.38 46.85 105.41 A 1.58 1.25 -16.4 0 0 46.31 106.17 Q 44.76 112.08 42.94 114.44 Q 41.51 116.28 41.50 119.25 Q 41.49 121.84 39.02 123.10 A 0.78 0.76 75.8 0 0 38.60 123.82 Q 38.70 126.21 36.76 127.33 A 0.95 0.86 -15.6 0 0 36.30 128.06 Q 36.13 130.98 34.30 133.31 Q 33.23 134.66 33.38 136.44 Q 33.42 136.98 33.24 137.40 Q 31.91 140.45 30.41 143.42 Q 29.52 145.19 29.02 147.96 Q 28.34 151.70 26.31 154.31 Q 24.01 157.28 23.99 160.50 A 0.87 0.83 -15.7 0 1 23.56 161.23 Q 21.95 162.20 22.00 164.00 Q 22.04 165.54 21.17 166.24 A 1.88 0.89 -25.3 0 0 20.58 166.96 Q 19.48 169.88 17.00 173.25 Q 16.06 174.54 16.58 176.28 A 1.06 0.67 63.4 0 1 16.49 177.17 L 14.69 179.24 A 1.39 0.93 -33.7 0 0 14.35 180.06 Q 14.38 181.36 13.70 182.35 Q 12.67 183.86 12.53 184.26 Q 11.85 186.30 11.75 188.50 Q 9.94 192.87 7.12 196.66 Q 6.81 197.07 6.75 197.56 Q 6.00 203.13 4.19 208.44 Q 3.93 213.30 5.75 216.50 Q 11.79 227.12 28.42 254.30 Q 33.08 261.91 40.51 258.04 Q 41.98 257.27 43.26 255.23 Q 44.54 253.20 46.19 251.44 Q 48.79 246.03 50.69 243.19 Q 52.22 240.89 54.95 241.44 A 1.18 1.04 78.9 0 1 55.68 242.00 Q 58.20 246.41 61.44 250.31 Q 69.20 263.99 77.94 277.06 Q 83.38 287.11 89.50 296.75 Q 91.51 300.93 93.61 303.17 Q 95.14 304.79 97.15 305.76 Q 100.58 307.42 101.46 309.24 A 1.33 1.32 -38.5 0 1 101.29 310.66 Q 98.83 313.70 100.79 315.50 Q 96.59 323.06 92.27 330.54 Q 91.80 331.34 91.79 332.25 Q 91.60 336.36 95.50 337.75 Q 100.24 339.43 104.50 339.00 Q 108.57 338.59 127.00 340.25 Q 137.23 341.17 162.75 340.75 Q 170.61 340.62 175.40 336.28 Q 177.24 334.61 182.41 326.59 Q 185.65 321.54 188.50 316.25 Q 190.81 313.01 193.47 314.76 Q 196.08 316.48 196.48 316.62 Q 199.56 317.75 203.19 318.06 Q 224.00 319.87 243.50 319.00 Q 250.96 318.67 254.81 313.06 Q 257.04 311.09 258.67 308.61 Q 258.91 308.24 259.38 307.95 Q 260.83 307.07 262.00 304.75 Q 263.16 302.46 276.69 284.64 Q 278.87 281.77 280.97 278.56 Q 284.69 272.89 285.19 272.44 Q 288.36 269.57 290.25 265.75 Q 295.27 259.15 300.31 252.56 Q 303.04 248.23 306.69 244.69 Q 318.43 227.69 331.25 211.50 Q 336.28 203.99 341.94 196.94 Q 342.77 195.03 344.40 193.84 A 1.83 1.62 -10.1 0 0 344.99 193.10 Q 346.59 189.15 349.69 186.19 Q 353.71 180.75 358.00 175.54 Q 354.27 181.66 349.69 187.19 Q 346.68 192.64 342.62 197.33 Q 341.40 198.73 339.53 201.65 Q 338.06 203.93 336.00 205.75 Q 323.68 223.10 323.25 223.75 Q 318.84 230.38 315.06 234.81 Q 312.13 238.26 310.03 241.54 Q 309.16 242.91 307.05 245.12 Q 305.25 247.00 304.25 249.50 Q 294.45 262.06 285.44 275.19 Q 280.74 280.38 277.29 286.49 Q 276.24 288.34 273.56 290.81 Q 270.61 293.54 267.03 299.62 Q 266.17 301.08 264.71 302.71 Q 263.40 304.16 262.31 305.79 Q 258.11 312.12 253.24 317.01 Q 251.83 318.43 249.88 318.91 Q 243.95 320.37 238.25 320.52 Q 219.58 320.99 200.98 319.45 Q 196.73 319.09 192.59 316.66 A 1.66 1.65 -53.2 0 0 190.54 316.96 Q 187.93 319.75 186.20 323.09 Q 185.70 324.06 184.28 326.02 Q 183.24 327.47 182.75 329.25 Q 178.39 336.41 176.25 338.25 Q 173.62 340.50 171.94 340.94 Q 166.54 342.34 157.75 342.46 Q 135.21 343.24 112.75 341.25 Q 105.10 341.51 97.47 341.02 Q 93.07 340.73 90.95 339.07 Q 86.60 335.68 89.00 329.00 Q 89.35 328.04 89.32 325.81 A 1.26 1.24 67.0 0 1 89.66 324.95 Q 94.87 319.49 97.79 312.50 L 98.80 312.00 A 0.92 0.72 78.9 0 0 99.21 311.19 Q 99.15 309.36 97.06 308.19 Q 91.69 305.15 88.81 298.19 Q 82.93 289.21 77.69 279.84 Q 74.53 274.16 71.24 269.06 Q 67.24 262.87 64.69 258.31 Q 63.63 256.43 62.78 255.44 Q 62.45 255.05 62.31 254.58 Q 61.65 252.32 59.73 250.96 Q 59.42 250.74 59.09 250.24 L 55.34 244.41 Q 54.22 242.66 52.46 244.10 Q 50.40 245.79 49.56 248.71 A 1.46 1.27 -13.7 0 1 49.03 249.46 Q 48.08 250.16 47.59 251.18 Q 46.54 253.37 46.44 253.51 Q 44.35 256.33 40.94 259.19 Q 36.50 262.91 32.06 260.38 Q 29.78 259.08 29.37 258.74 Q 28.27 257.80 27.56 255.94 Q 26.45 252.99 11.85 230.14 Q 11.62 229.78 11.14 229.37 Q 10.71 229.00 10.44 228.56 Q 10.35 228.43 3.31 214.94 Q 1.12 210.73 2.21 205.50 Q 3.12 199.50 6.44 194.44 Q 7.86 189.72 10.16 185.36 Q 12.99 179.98 15.06 174.27 Q 19.24 162.70 25.19 151.94 Q 27.77 144.64 30.75 137.50 Q 32.99 130.64 36.69 124.44 Q 44.04 106.50 47.94 97.94 Q 53.03 86.76 56.00 79.64 Q 64.61 58.99 66.81 54.81 Q 71.12 46.65 73.81 37.81 Q 74.82 35.83 75.98 33.93 A 0.83 0.78 -69.5 0 1 76.75 33.55 Z"/>
<path fill="rgb(109,109,109)" fill-opacity="1.000" d="M 256.27 39.16 Q 258.59 44.27 256.64 49.22 Q 256.13 50.51 252.34 55.48 Q 248.15 60.98 246.32 67.80 A 0.70 0.70 -76.4 0 0 246.85 68.67 Q 249.48 69.21 251.04 70.88 Q 253.00 72.97 253.07 73.03 Q 254.98 74.78 256.35 76.96 Q 258.01 79.60 259.38 80.98 Q 265.94 87.59 271.19 95.31 Q 274.17 98.08 276.68 101.29 Q 280.74 106.48 284.94 111.56 Q 286.05 113.87 288.50 116.00 Q 289.37 116.75 290.17 118.05 Q 291.11 119.55 291.77 120.09 Q 293.70 121.68 296.15 121.74 A 1.91 1.90 18.5 0 0 297.76 120.94 Q 301.14 116.20 303.44 111.19 Q 305.37 106.96 308.58 104.77 A 1.14 1.00 33.5 0 1 309.47 104.65 Q 311.12 105.12 312.75 104.54 L 310.00 108.79 Q 305.73 108.36 304.25 112.75 Q 302.81 117.05 298.93 122.19 Q 298.88 122.26 297.47 124.59 Q 295.55 127.76 291.74 123.69 A 3.79 3.79 22.9 0 1 290.72 121.18 Q 290.70 120.11 288.95 119.22 A 1.86 1.71 0.7 0 1 288.25 118.56 Q 287.04 116.51 285.28 114.96 Q 283.07 113.01 282.12 111.65 Q 278.28 106.18 275.06 102.94 Q 269.60 97.44 267.19 94.31 Q 266.06 92.86 255.17 79.60 Q 251.05 74.59 246.19 70.31 Q 245.19 68.72 243.50 69.29 L 243.29 69.25 Q 242.06 67.45 243.50 65.75 Q 244.47 63.35 246.11 61.37 Q 246.93 60.38 247.56 58.99 Q 248.16 57.67 249.11 56.56 A 1.89 1.09 81.7 0 0 249.46 55.68 Q 249.60 54.58 250.69 53.44 Q 252.31 51.72 253.56 47.06 Q 254.62 43.11 253.01 40.19 Q 252.79 39.79 252.80 39.25 Q 252.81 38.25 252.13 37.57 A 1.48 0.46 4.1 0 0 251.26 37.23 Q 250.42 37.08 250.25 36.04 Q 252.30 35.65 253.98 36.51 Q 255.39 37.24 256.27 39.16 Z"/>
<path fill="rgb(90,90,90)" fill-opacity="1.000" d="M 250.46 41.50 Q 250.33 42.48 250.94 43.12 A 1.67 0.75 35.2 0 1 251.42 43.93 Q 251.84 46.36 250.31 49.56 Q 247.40 55.70 243.56 61.31 Q 241.01 66.23 238.31 71.06 Q 237.50 73.67 239.25 75.79 Q 226.98 97.08 226.31 98.56 Q 225.58 100.18 224.96 103.75 Q 221.69 105.26 220.50 108.75 Q 206.65 132.39 193.25 156.29 Q 192.83 156.16 192.72 156.47 Q 192.60 156.83 192.58 156.87 Q 178.32 181.46 164.06 206.06 Q 163.14 206.93 163.75 207.96 Q 162.99 208.00 162.77 208.58 Q 162.52 209.22 162.51 209.24 Q 155.98 220.27 149.75 231.46 Q 148.95 232.26 148.06 233.81 Q 132.79 260.57 108.00 303.04 Q 105.81 302.54 103.67 303.13 Q 94.83 305.56 91.87 296.61 Q 91.71 296.12 92.05 296.51 Q 93.76 298.51 95.14 300.38 Q 97.48 303.57 101.26 302.86 A 1.64 1.38 -70.1 0 0 102.09 302.38 Q 104.75 299.51 107.25 296.50 Q 107.54 296.14 110.71 288.00 Q 112.05 286.91 112.51 285.38 Q 113.30 282.77 113.33 282.72 Q 115.28 278.80 118.93 276.28 Q 119.51 275.88 119.71 275.39 Q 119.96 274.82 120.03 274.22 Q 120.19 273.03 120.43 272.49 Q 123.45 265.76 126.56 259.06 Q 127.12 256.86 129.00 255.69 A 1.21 1.12 -11.6 0 0 129.53 254.95 Q 130.01 252.76 131.71 251.28 Q 132.00 251.03 132.00 251.42 Q 132.00 252.88 132.44 251.48 Q 133.15 249.20 134.88 247.58 Q 135.25 247.23 135.40 246.78 Q 136.38 243.75 138.00 241.00 Q 141.16 237.37 143.34 233.14 Q 145.35 229.25 146.12 228.18 Q 147.78 225.85 149.81 223.81 Q 157.93 208.21 158.81 207.31 Q 161.00 205.08 160.25 202.04 Q 167.25 190.47 173.04 178.25 Q 176.85 176.12 178.94 171.69 Q 182.28 164.58 188.00 155.25 Q 190.06 153.53 191.10 151.21 Q 192.49 148.10 193.10 147.20 Q 197.53 140.66 201.06 133.60 Q 201.08 133.56 202.29 130.41 Q 203.17 128.14 205.11 126.56 A 1.41 1.07 -21.8 0 0 205.59 125.76 Q 205.71 124.88 205.46 124.00 Q 214.31 107.11 224.50 91.00 Q 228.19 84.01 232.29 77.25 Q 235.79 74.19 236.75 71.75 Q 237.55 69.71 239.56 66.81 Q 241.30 64.31 243.13 60.01 Q 243.15 59.96 244.60 57.11 Q 246.12 54.10 245.46 50.50 L 250.46 41.50 Z"/>
<path fill="rgb(76,76,76)" fill-opacity="1.000" d="M 245.46 50.50 Q 246.12 54.10 244.60 57.11 Q 243.15 59.96 243.13 60.01 Q 241.30 64.31 239.56 66.81 Q 237.55 69.71 236.75 71.75 Q 235.79 74.19 232.29 77.25 Q 232.99 74.11 234.58 71.32 Q 235.53 69.65 235.46 67.75 L 245.46 50.50 Z"/>
<path fill="rgb(90,90,90)" fill-opacity="1.000" d="M 154.71 51.50 L 159.29 58.00 Q 128.01 112.06 97.13 166.35 Q 97.02 166.56 97.50 166.54 Q 94.28 171.12 91.44 175.94 Q 84.29 188.62 76.94 201.19 Q 75.67 203.36 75.54 204.25 Q 74.25 205.61 72.44 208.69 Q 65.38 220.68 58.56 232.82 A 2.23 2.14 45.7 0 0 58.58 234.96 L 61.79 240.75 L 61.69 243.06 A 1.80 1.26 38.7 0 0 61.96 243.98 L 69.68 256.38 Q 69.83 256.61 69.95 257.31 Q 70.07 257.94 70.69 258.05 A 0.80 0.70 -2.2 0 1 71.31 258.55 Q 71.71 259.87 73.00 261.75 Q 76.95 267.52 82.29 277.75 Q 83.03 280.33 82.13 278.51 A 1.13 1.02 5.2 0 0 81.75 278.10 Q 79.60 276.81 78.50 274.50 Q 75.29 269.76 72.65 264.67 Q 69.66 258.93 65.69 253.81 Q 63.00 250.36 59.42 240.72 A 2.06 1.57 16.7 0 0 58.86 239.95 Q 57.13 238.52 56.89 236.07 Q 56.62 233.24 54.29 233.90 A 1.26 1.09 -81.0 0 0 53.58 234.50 Q 49.70 241.68 44.87 248.26 Q 44.08 249.32 43.35 251.57 Q 42.49 254.22 40.12 255.70 Q 37.89 257.09 36.94 257.42 Q 34.99 258.10 33.05 256.44 Q 32.25 255.75 33.00 255.46 L 34.75 255.46 Q 36.00 257.20 36.94 255.19 Q 45.03 241.49 53.04 227.75 Q 54.03 227.62 54.88 227.19 Q 55.61 226.82 56.19 225.88 Q 62.21 216.19 67.69 206.19 Q 72.19 198.69 76.79 191.25 Q 79.38 188.62 79.33 185.07 A 1.87 1.38 67.4 0 1 79.56 184.14 Q 81.08 181.68 83.25 179.75 Q 87.91 171.91 93.31 164.56 Q 95.31 159.73 98.00 155.25 Q 98.68 152.07 101.20 149.93 Q 103.19 148.23 103.69 145.67 Q 104.12 143.42 105.79 141.53 Q 107.32 139.80 107.91 138.39 Q 110.13 133.13 113.31 128.40 Q 113.91 127.52 114.46 126.06 Q 114.98 124.69 115.75 123.75 Q 119.25 119.51 120.67 114.80 Q 120.81 114.33 121.18 113.97 Q 122.78 112.42 123.56 110.31 Q 129.12 101.50 133.54 92.06 Q 133.56 92.00 134.09 90.25 Q 134.43 89.14 135.47 88.63 Q 135.99 88.37 136.23 88.02 Q 142.34 79.41 146.27 69.62 Q 146.92 68.02 148.46 66.38 Q 150.51 64.20 152.31 60.81 Q 154.27 57.13 153.46 53.75 L 154.71 51.50 Z"/>
<path fill="rgb(76,76,76)" fill-opacity="1.000" d="M 153.46 53.75 Q 154.27 57.13 152.31 60.81 Q 150.51 64.20 148.46 66.38 Q 146.92 68.02 146.27 69.62 Q 142.34 79.41 136.23 88.02 Q 135.99 88.37 135.47 88.63 Q 134.43 89.14 134.09 90.25 Q 133.56 92.00 133.54 92.06 Q 129.12 101.50 123.56 110.31 Q 122.78 112.42 121.18 113.97 Q 120.81 114.33 120.67 114.80 Q 119.25 119.51 115.75 123.75 Q 114.98 124.69 114.46 126.06 Q 113.91 127.52 113.31 128.40 Q 110.13 133.13 107.91 138.39 Q 107.32 139.80 105.79 141.53 Q 104.12 143.42 103.69 145.67 Q 103.19 148.23 101.20 149.93 Q 98.68 152.07 98.00 155.25 Q 95.31 159.73 93.31 164.56 Q 87.91 171.91 83.25 179.75 Q 81.08 181.68 79.56 184.14 A 1.87 1.38 67.4 0 0 79.33 185.07 Q 79.38 188.62 76.79 191.25 Q 76.89 190.50 76.26 190.22 Q 74.86 189.61 75.71 188.25 L 153.46 53.75 Z"/>
<path fill="rgb(96,96,96)" fill-opacity="1.000" d="M 66.54 66.00 Q 36.79 135.31 6.75 204.50 Q 6.04 207.57 7.79 210.25 Q 7.38 213.91 9.75 216.75 Q 11.54 220.05 13.50 223.25 Q 14.08 224.20 15.35 228.27 A 1.05 0.80 5.0 0 0 15.99 228.85 Q 16.69 229.07 16.91 229.76 Q 17.11 230.39 17.31 230.66 Q 18.25 231.91 19.13 233.21 Q 19.79 234.17 20.39 236.01 Q 20.98 237.86 22.12 239.42 Q 22.47 239.90 23.51 241.78 Q 24.23 243.07 25.60 243.74 A 1.45 0.98 82.6 0 1 26.20 244.42 L 28.99 250.82 A 1.37 0.78 9.4 0 0 29.72 251.41 Q 32.44 252.42 33.00 255.46 Q 32.25 255.75 33.05 256.44 Q 34.99 258.10 36.94 257.42 Q 37.89 257.09 40.12 255.70 Q 42.49 254.22 43.35 251.57 Q 44.08 249.32 44.87 248.26 Q 49.70 241.68 53.58 234.50 A 1.26 1.09 -81.0 0 1 54.29 233.90 Q 56.62 233.24 56.89 236.07 Q 57.13 238.52 58.86 239.95 A 2.06 1.57 16.7 0 1 59.42 240.72 Q 63.00 250.36 65.69 253.81 Q 69.66 258.93 72.65 264.67 Q 75.29 269.76 78.50 274.50 Q 79.60 276.81 81.75 278.10 A 1.13 1.02 5.2 0 1 82.13 278.51 Q 83.03 280.33 82.29 277.75 Q 83.88 279.06 84.39 281.01 A 1.14 0.74 12.5 0 0 84.99 281.62 Q 85.39 281.80 85.50 282.25 Q 86.57 286.44 88.56 289.69 Q 90.53 291.55 91.98 293.82 Q 92.22 294.20 92.27 294.75 Q 92.51 297.38 95.02 297.92 A 0.64 0.58 -86.7 0 1 95.49 298.50 Q 95.60 300.00 97.46 299.75 Q 99.06 303.30 101.04 300.25 Q 102.91 300.62 103.73 298.37 A 1.69 1.65 81.2 0 1 104.25 297.64 Q 107.52 294.94 108.73 290.74 Q 109.25 288.97 110.71 288.00 Q 107.54 296.14 107.25 296.50 Q 104.75 299.51 102.09 302.38 A 1.64 1.38 -70.1 0 1 101.26 302.86 Q 97.48 303.57 95.14 300.38 Q 93.76 298.51 92.05 296.51 Q 91.71 296.12 91.87 296.61 Q 94.83 305.56 103.67 303.13 Q 105.81 302.54 108.00 303.04 L 100.79 315.50 Q 98.83 313.70 101.29 310.66 A 1.33 1.32 -38.5 0 0 101.46 309.24 Q 100.58 307.42 97.15 305.76 Q 95.14 304.79 93.61 303.17 Q 91.51 300.93 89.50 296.75 Q 83.38 287.11 77.94 277.06 Q 69.20 263.99 61.44 250.31 Q 58.20 246.41 55.68 242.00 A 1.18 1.04 78.9 0 0 54.95 241.44 Q 52.22 240.89 50.69 243.19 Q 48.79 246.03 46.19 251.44 Q 44.54 253.20 43.26 255.23 Q 41.98 257.27 40.51 258.04 Q 33.08 261.91 28.42 254.30 Q 11.79 227.12 5.75 216.50 Q 3.93 213.30 4.19 208.44 Q 6.00 203.13 6.75 197.56 Q 6.81 197.07 7.12 196.66 Q 9.94 192.87 11.75 188.50 Q 11.85 186.30 12.53 184.26 Q 12.67 183.86 13.70 182.35 Q 14.38 181.36 14.35 180.06 A 1.39 0.93 -33.7 0 1 14.69 179.24 L 16.49 177.17 A 1.06 0.67 63.4 0 0 16.58 176.28 Q 16.06 174.54 17.00 173.25 Q 19.48 169.88 20.58 166.96 A 1.88 0.89 -25.3 0 1 21.17 166.24 Q 22.04 165.54 22.00 164.00 Q 21.95 162.20 23.56 161.23 A 0.87 0.83 -15.7 0 0 23.99 160.50 Q 24.01 157.28 26.31 154.31 Q 28.34 151.70 29.02 147.96 Q 29.52 145.19 30.41 143.42 Q 31.91 140.45 33.24 137.40 Q 33.42 136.98 33.38 136.44 Q 33.23 134.66 34.30 133.31 Q 36.13 130.98 36.30 128.06 A 0.95 0.86 -15.6 0 1 36.76 127.33 Q 38.70 126.21 38.60 123.82 A 0.78 0.76 75.8 0 1 39.02 123.10 Q 41.49 121.84 41.50 119.25 Q 41.51 116.28 42.94 114.44 Q 44.76 112.08 46.31 106.17 A 1.58 1.25 -16.4 0 1 46.85 105.41 Q 48.21 104.38 48.11 102.56 A 1.72 1.67 59.3 0 1 48.33 101.65 L 52.77 93.95 A 1.98 1.30 68.6 0 0 52.97 93.00 Q 52.81 89.69 54.40 87.04 Q 56.39 83.74 56.64 83.20 Q 57.57 81.15 58.69 79.19 Q 60.02 72.84 64.35 68.05 A 1.75 1.20 79.4 0 0 64.73 67.19 Q 64.95 65.65 66.54 66.00 Z"/>
<path fill="rgb(115,115,115)" fill-opacity="1.000" d="M 233.73 67.90 Q 233.81 68.02 233.79 68.25 Q 232.76 71.84 231.44 74.19 Q 223.33 88.55 203.69 122.50 A 1.56 0.87 -7.7 0 1 202.96 123.05 L 200.00 124.21 L 148.77 163.51 A 0.35 0.34 -48.8 0 0 148.80 164.08 L 172.00 177.29 L 158.25 201.04 L 125.40 182.04 A 1.77 1.77 40.8 0 0 123.42 182.18 L 87.09 210.63 A 0.83 0.81 -51.1 0 1 86.24 210.73 Q 80.54 208.07 75.54 204.25 Q 75.67 203.36 76.94 201.19 Q 84.29 188.62 91.44 175.94 Q 94.28 171.12 97.50 166.54 L 233.27 67.92 A 0.37 0.23 -34.9 0 1 233.73 67.90 Z"/>
<path fill="rgb(66,66,66)" fill-opacity="1.000" d="M 235.46 67.75 Q 235.53 69.65 234.58 71.32 Q 232.99 74.11 232.29 77.25 Q 228.19 84.01 224.50 91.00 Q 214.31 107.11 205.46 124.00 Q 203.64 125.79 201.21 126.50 Q 202.04 124.65 200.00 124.21 L 202.96 123.05 A 1.56 0.87 -7.7 0 0 203.69 122.50 Q 223.33 88.55 231.44 74.19 Q 232.76 71.84 233.79 68.25 L 235.46 67.75 Z"/>
<path fill="rgb(99,99,99)" fill-opacity="1.000" d="M 246.19 70.31 Q 251.05 74.59 255.17 79.60 Q 266.06 92.86 267.19 94.31 Q 269.60 97.44 275.06 102.94 Q 278.28 106.18 282.12 111.65 Q 283.07 113.01 285.28 114.96 Q 287.04 116.51 288.25 118.56 A 1.86 1.71 0.7 0 0 288.95 119.22 Q 290.70 120.11 290.72 121.18 A 3.79 3.79 22.9 0 0 291.74 123.69 Q 295.55 127.76 297.47 124.59 Q 298.88 122.26 298.93 122.19 Q 302.81 117.05 304.25 112.75 Q 305.73 108.36 310.00 108.79 L 295.04 134.50 Q 293.07 133.84 292.54 131.81 A 1.04 1.04 5.7 0 0 291.98 131.13 Q 290.36 130.37 290.46 128.50 L 291.32 126.06 A 0.98 0.80 37.2 0 0 291.11 125.18 L 243.50 69.29 Q 245.19 68.72 246.19 70.31 Z"/>
<path fill="rgb(13,13,13)" fill-opacity="1.000" d="M 243.29 69.25 L 243.50 69.29 L 291.11 125.18 A 0.98 0.80 37.2 0 1 291.32 126.06 L 290.46 128.50 Q 289.92 129.17 289.71 130.00 Q 250.09 198.31 210.81 266.81 Q 209.14 269.72 207.71 272.75 L 206.75 272.71 Q 214.74 201.27 222.04 129.75 Q 223.37 116.74 224.96 103.75 Q 225.58 100.18 226.31 98.56 Q 226.98 97.08 239.25 75.79 L 243.29 69.25 Z"/>
<path fill="rgb(13,13,13)" fill-opacity="1.000" d="M 314.50 104.79 L 338.50 132.79 L 360.79 159.75 L 359.46 162.75 L 330.46 202.25 L 298.50 245.21 L 258.96 298.25 L 249.50 310.20 A 3.40 3.37 18.2 0 1 246.92 311.49 L 234.50 311.79 Q 218.12 311.96 201.75 311.32 Q 201.66 311.32 198.29 310.84 Q 196.53 310.59 194.75 311.04 Q 194.20 311.06 193.79 310.75 L 196.54 305.25 Q 202.77 294.73 208.91 284.17 Q 209.59 283.01 210.75 283.21 L 223.14 290.44 A 0.53 0.52 -72.1 0 0 223.92 290.03 L 227.54 255.50 Q 228.21 251.21 230.06 247.31 Q 262.76 191.03 295.04 134.50 L 310.00 108.79 L 312.75 104.54 Q 313.59 102.58 314.50 104.79 Z"/>
<path fill="rgb(115,115,115)" fill-opacity="1.000" d="M 224.96 103.75 Q 223.37 116.74 222.04 129.75 Q 214.74 201.27 206.75 272.71 Q 198.86 288.24 189.31 302.81 Q 188.66 304.21 187.25 304.79 L 175.52 297.86 A 2.50 2.29 -71.7 0 1 174.43 295.43 L 180.86 250.62 A 1.36 1.33 19.4 0 0 180.20 249.28 L 149.75 231.46 Q 155.98 220.27 162.51 209.24 Q 162.52 209.22 162.77 208.58 Q 162.99 208.00 163.75 207.96 L 184.15 219.93 A 0.43 0.41 -71.2 0 0 184.77 219.61 L 193.25 156.29 Q 206.65 132.39 220.50 108.75 Q 221.69 105.26 224.96 103.75 Z"/>
<path fill="rgb(109,109,109)" fill-opacity="1.000" d="M 316.02 104.98 Q 319.53 103.50 321.56 107.19 Q 322.83 109.50 325.69 111.81 Q 328.76 114.31 333.81 122.19 Q 337.83 125.40 341.13 129.35 Q 351.47 141.74 362.19 153.81 Q 366.45 159.62 365.45 166.44 Q 365.04 169.18 362.80 172.44 Q 349.54 191.72 344.81 197.31 Q 338.51 204.77 333.25 213.00 Q 328.71 217.57 325.21 222.97 Q 320.82 229.72 315.56 235.81 Q 313.32 240.85 309.43 244.63 Q 307.88 246.14 306.58 248.25 Q 305.70 249.69 304.59 250.96 Q 303.02 252.77 302.46 253.55 Q 296.20 262.29 293.81 265.06 Q 291.67 267.55 290.69 269.69 Q 284.47 277.20 279.04 285.28 Q 275.56 290.45 273.87 292.70 Q 271.15 296.31 268.31 299.81 Q 266.29 303.10 263.50 305.75 Q 262.21 308.20 260.51 310.35 Q 260.36 310.54 257.59 314.19 Q 252.77 320.54 244.25 321.25 Q 240.94 321.52 222.25 320.75 Q 209.20 321.75 196.27 319.97 Q 196.22 319.96 194.14 319.55 Q 189.12 318.56 187.63 323.77 Q 187.49 324.23 187.15 324.61 Q 186.37 325.47 185.92 326.51 Q 185.07 328.48 185.03 328.55 Q 181.85 334.32 177.65 339.40 Q 175.92 341.49 173.21 342.06 Q 165.53 343.69 157.75 342.46 Q 166.54 342.34 171.94 340.94 Q 173.62 340.50 176.25 338.25 Q 178.39 336.41 182.75 329.25 Q 183.24 327.47 184.28 326.02 Q 185.70 324.06 186.20 323.09 Q 187.93 319.75 190.54 316.96 A 1.66 1.65 -53.2 0 1 192.59 316.66 Q 196.73 319.09 200.98 319.45 Q 219.58 320.99 238.25 320.52 Q 243.95 320.37 249.88 318.91 Q 251.83 318.43 253.24 317.01 Q 258.11 312.12 262.31 305.79 Q 263.40 304.16 264.71 302.71 Q 266.17 301.08 267.03 299.62 Q 270.61 293.54 273.56 290.81 Q 276.24 288.34 277.29 286.49 Q 280.74 280.38 285.44 275.19 Q 294.45 262.06 304.25 249.50 Q 305.25 247.00 307.05 245.12 Q 309.16 242.91 310.03 241.54 Q 312.13 238.26 315.06 234.81 Q 318.84 230.38 323.25 223.75 Q 323.68 223.10 336.00 205.75 Q 338.06 203.93 339.53 201.65 Q 341.40 198.73 342.62 197.33 Q 346.68 192.64 349.69 187.19 Q 354.27 181.66 358.00 175.54 Q 360.16 173.30 361.50 170.50 Q 366.06 164.22 361.74 157.82 Q 360.21 155.55 357.61 153.85 Q 356.78 153.31 356.34 152.43 Q 353.37 146.56 348.44 142.56 Q 347.14 141.51 346.19 140.81 Q 343.75 139.03 343.68 136.06 A 1.30 1.11 -71.7 0 0 343.33 135.20 Q 341.32 133.26 338.50 132.79 L 314.50 104.79 Q 315.03 104.35 315.35 104.75 A 0.64 0.53 58.2 0 0 316.02 104.98 Z"/>
<path fill="rgb(81,81,81)" fill-opacity="1.000" d="M 205.46 124.00 Q 205.71 124.88 205.59 125.76 A 1.41 1.07 -21.8 0 1 205.11 126.56 Q 203.17 128.14 202.29 130.41 Q 201.08 133.56 201.06 133.60 Q 197.53 140.66 193.10 147.20 Q 192.49 148.10 191.10 151.21 Q 190.06 153.53 188.00 155.25 Q 182.28 164.58 178.94 171.69 Q 176.85 176.12 173.04 178.25 L 172.71 176.75 Q 184.87 155.10 197.45 133.69 Q 199.50 130.19 201.21 126.50 Q 203.64 125.79 205.46 124.00 Z"/>
<path fill="rgb(20,20,20)" fill-opacity="1.000" d="M 200.00 124.21 Q 202.04 124.65 201.21 126.50 Q 199.50 130.19 197.45 133.69 Q 184.87 155.10 172.71 176.75 L 172.00 177.29 L 148.80 164.08 A 0.35 0.34 -48.8 0 1 148.77 163.51 L 200.00 124.21 Z"/>
<path fill="rgb(88,88,88)" fill-opacity="1.000" d="M 290.46 128.50 Q 290.36 130.37 291.98 131.13 A 1.04 1.04 5.7 0 1 292.54 131.81 Q 293.07 133.84 295.04 134.50 Q 262.76 191.03 230.06 247.31 Q 228.21 251.21 227.54 255.50 Q 227.53 254.58 226.79 254.68 A 1.23 0.83 -71.2 0 0 226.05 255.24 Q 218.59 267.57 211.75 280.25 Q 211.60 280.53 210.75 283.21 Q 209.59 283.01 208.91 284.17 Q 202.77 294.73 196.54 305.25 L 196.51 305.03 Q 196.47 304.79 196.31 305.00 Q 195.64 305.90 194.36 305.27 A 1.63 1.62 -60.1 0 0 192.30 305.83 Q 186.16 315.02 181.47 324.15 Q 181.46 324.16 180.19 326.08 Q 179.36 327.34 179.40 328.93 A 1.55 1.07 70.6 0 1 179.15 329.84 L 177.88 331.43 Q 177.60 331.79 177.52 332.31 Q 177.38 333.26 176.70 333.82 Q 175.53 334.80 175.47 334.87 Q 171.56 339.21 165.75 339.25 Q 150.90 339.35 129.17 338.91 Q 125.86 338.84 114.85 338.12 Q 108.00 337.67 100.50 337.75 Q 96.22 337.79 93.39 334.57 A 1.77 0.85 -86.1 0 1 93.04 333.69 Q 92.90 332.78 92.00 332.29 L 96.25 332.54 Q 97.90 332.51 98.93 333.61 Q 99.33 334.04 99.72 334.19 Q 102.82 335.37 106.19 335.28 Q 113.50 335.08 120.79 335.58 Q 135.21 336.57 135.22 336.58 Q 152.27 337.22 166.00 336.50 Q 172.54 336.16 175.36 330.02 A 1.93 1.47 -11.6 0 1 175.99 329.30 Q 176.93 328.65 177.36 327.65 Q 178.31 325.47 178.37 325.37 Q 179.88 322.96 181.16 320.43 Q 181.51 319.74 181.51 318.99 Q 181.51 318.25 181.46 317.50 L 187.29 307.50 Q 191.99 305.06 193.81 300.06 Q 200.03 289.01 206.25 277.96 L 209.46 276.10 Q 210.05 275.76 210.20 275.51 Q 213.27 270.56 215.31 265.06 Q 219.63 259.32 222.44 252.69 Q 224.24 250.13 225.39 247.26 Q 226.57 244.32 227.92 242.21 Q 230.00 238.96 231.50 235.40 A 1.84 1.18 61.6 0 0 231.57 234.45 Q 231.32 233.14 232.21 232.16 Q 232.33 232.02 233.04 231.67 Q 233.57 231.40 233.57 230.75 A 1.77 0.65 80.7 0 1 233.75 229.81 L 237.80 222.98 A 1.51 0.95 -4.3 0 1 238.54 222.43 Q 239.83 221.96 240.01 220.45 Q 240.22 218.56 241.59 217.24 Q 245.51 213.48 246.01 209.32 A 1.11 1.03 -14.8 0 1 246.49 208.57 Q 247.37 208.00 247.75 207.00 Q 248.55 204.92 249.19 203.44 L 250.58 200.22 Q 250.79 199.73 251.15 199.46 Q 254.03 197.29 255.60 194.02 Q 255.80 193.60 256.22 193.25 Q 257.91 191.84 257.84 189.56 A 1.48 1.34 65.4 0 1 258.12 188.67 Q 261.13 184.78 262.56 180.06 Q 262.92 178.87 263.75 177.75 Q 267.06 173.26 270.17 168.62 Q 270.87 167.57 271.62 165.09 Q 272.51 162.14 275.30 159.49 Q 275.82 158.99 276.07 158.32 Q 277.79 153.74 281.25 149.75 Q 283.31 148.07 283.88 144.13 A 3.97 3.97 22.6 0 1 284.99 141.88 Q 286.13 140.73 286.43 138.99 A 1.84 1.51 75.9 0 1 286.84 138.12 Q 288.28 136.54 289.94 135.19 Q 291.64 132.58 289.71 130.00 Q 289.92 129.17 290.46 128.50 Z"/>
<path fill="rgb(76,76,76)" fill-opacity="1.000" d="M 289.71 130.00 Q 291.64 132.58 289.94 135.19 Q 288.28 136.54 286.84 138.12 A 1.84 1.51 75.9 0 0 286.43 138.99 Q 286.13 140.73 284.99 141.88 A 3.97 3.97 0.0 0 0 283.88 144.13 Q 283.31 148.07 281.25 149.75 Q 277.79 153.74 276.07 158.32 Q 275.82 158.99 275.30 159.49 Q 272.51 162.14 271.62 165.09 Q 270.87 167.57 270.17 168.62 Q 267.06 173.26 263.75 177.75 Q 262.92 178.87 262.56 180.06 Q 261.13 184.78 258.12 188.67 A 1.48 1.34 65.4 0 0 257.84 189.56 Q 257.91 191.84 256.22 193.25 Q 255.80 193.60 255.60 194.02 Q 254.03 197.29 251.15 199.46 Q 250.79 199.73 250.58 200.22 L 249.19 203.44 Q 248.55 204.92 247.75 207.00 Q 247.37 208.00 246.49 208.57 A 1.11 1.03 -14.8 0 0 246.01 209.32 Q 245.51 213.48 241.59 217.24 Q 240.22 218.56 240.01 220.45 Q 239.83 221.96 238.54 222.43 A 1.51 0.95 -4.3 0 0 237.80 222.98 L 233.75 229.81 A 1.77 0.65 80.7 0 0 233.57 230.75 Q 233.57 231.40 233.04 231.67 Q 232.33 232.02 232.21 232.16 Q 231.32 233.14 231.57 234.45 A 1.84 1.18 61.6 0 1 231.50 235.40 Q 230.00 238.96 227.92 242.21 Q 226.57 244.32 225.39 247.26 Q 224.24 250.13 222.44 252.69 Q 219.63 259.32 215.31 265.06 Q 213.27 270.56 210.20 275.51 Q 210.05 275.76 209.46 276.10 L 206.25 277.96 L 207.71 272.75 Q 209.14 269.72 210.81 266.81 Q 250.09 198.31 289.71 130.00 Z"/>
<path fill="rgb(99,99,99)" fill-opacity="1.000" d="M 338.50 132.79 Q 341.32 133.26 343.33 135.20 A 1.30 1.11 -71.7 0 1 343.68 136.06 Q 343.75 139.03 346.19 140.81 Q 347.14 141.51 348.44 142.56 Q 353.37 146.56 356.34 152.43 Q 356.78 153.31 357.61 153.85 Q 360.21 155.55 361.74 157.82 Q 366.06 164.22 361.50 170.50 Q 360.16 173.30 358.00 175.54 Q 353.71 180.75 349.69 186.19 Q 346.59 189.15 344.99 193.10 A 1.83 1.62 -10.1 0 1 344.40 193.84 Q 342.77 195.03 341.94 196.94 Q 336.28 203.99 331.25 211.50 Q 318.43 227.69 306.69 244.69 Q 303.04 248.23 300.31 252.56 Q 295.27 259.15 290.25 265.75 Q 288.36 269.57 285.19 272.44 Q 284.69 272.89 280.97 278.56 Q 278.87 281.77 276.69 284.64 Q 263.16 302.46 262.00 304.75 Q 260.83 307.07 259.38 307.95 Q 258.91 308.24 258.67 308.61 Q 257.04 311.09 254.81 313.06 Q 250.96 318.67 243.50 319.00 Q 224.00 319.87 203.19 318.06 Q 199.56 317.75 196.48 316.62 Q 196.08 316.48 193.47 314.76 Q 190.81 313.01 188.50 316.25 Q 185.65 321.54 182.41 326.59 Q 177.24 334.61 175.40 336.28 Q 170.61 340.62 162.75 340.75 Q 137.23 341.17 127.00 340.25 Q 108.57 338.59 104.50 339.00 Q 100.24 339.43 95.50 337.75 Q 91.60 336.36 91.79 332.25 L 92.00 332.29 Q 92.90 332.78 93.04 333.69 A 1.77 0.85 -86.1 0 0 93.39 334.57 Q 96.22 337.79 100.50 337.75 Q 108.00 337.67 114.85 338.12 Q 125.86 338.84 129.17 338.91 Q 150.90 339.35 165.75 339.25 Q 171.56 339.21 175.47 334.87 Q 175.53 334.80 176.70 333.82 Q 177.38 333.26 177.52 332.31 Q 177.60 331.79 177.88 331.43 L 179.15 329.84 A 1.55 1.07 70.6 0 0 179.40 328.93 Q 179.36 327.34 180.19 326.08 Q 181.46 324.16 181.47 324.15 Q 186.16 315.02 192.30 305.83 A 1.63 1.62 -60.1 0 1 194.36 305.27 Q 195.64 305.90 196.31 305.00 Q 196.47 304.79 196.51 305.03 L 196.54 305.25 L 193.79 310.75 Q 195.87 316.37 201.69 316.81 Q 207.93 317.29 224.55 317.46 Q 224.64 317.47 231.94 317.69 Q 239.86 317.94 247.72 316.75 Q 249.16 316.53 250.47 315.55 Q 251.71 314.62 253.03 313.79 Q 255.79 312.06 257.49 309.36 Q 257.92 308.68 259.38 306.92 Q 260.42 305.68 260.75 304.00 Q 261.00 302.71 264.25 299.00 Q 265.35 297.74 265.95 296.79 Q 267.24 294.75 267.44 294.50 Q 272.75 288.05 277.47 281.17 Q 277.69 280.84 278.20 280.53 Q 279.12 279.97 279.08 278.85 Q 279.08 278.55 278.87 278.79 Q 276.28 281.74 278.80 278.03 Q 279.70 276.69 280.88 275.58 A 1.60 1.31 79.0 0 0 281.32 274.76 Q 281.63 273.12 283.07 272.24 A 0.95 0.94 -14.6 0 0 283.51 271.50 Q 283.57 270.36 284.06 269.31 Q 287.82 265.15 290.93 260.52 Q 291.98 258.97 294.03 256.85 Q 295.73 255.10 297.01 253.01 Q 300.54 247.26 305.00 242.21 Q 308.38 238.58 309.06 237.56 Q 310.08 236.04 309.65 237.64 Q 309.57 237.93 309.78 237.71 Q 315.02 232.24 318.50 225.50 Q 319.49 224.16 320.58 222.91 Q 321.44 221.92 322.42 220.20 Q 323.47 218.34 325.03 216.95 Q 327.03 215.17 327.84 213.97 Q 335.05 203.27 343.56 193.56 Q 347.11 185.90 352.50 180.25 Q 354.74 177.90 356.24 175.41 Q 356.91 174.30 359.25 170.91 Q 361.91 167.07 361.56 162.12 Q 361.55 162.01 361.64 160.88 Q 361.71 159.97 360.79 159.75 L 338.50 132.79 Z"/>
<path fill="rgb(13,13,13)" fill-opacity="1.000" d="M 193.25 156.29 L 184.77 219.61 A 0.43 0.41 -71.2 0 1 184.15 219.93 L 163.75 207.96 Q 163.14 206.93 164.06 206.06 Q 178.32 181.46 192.58 156.87 Q 192.60 156.83 192.72 156.47 Q 192.83 156.16 193.25 156.29 Z"/>
<path fill="rgb(90,90,90)" fill-opacity="1.000" d="M 360.79 159.75 Q 361.71 159.97 361.64 160.88 Q 361.55 162.01 361.56 162.12 Q 361.91 167.07 359.25 170.91 Q 356.91 174.30 356.24 175.41 Q 354.74 177.90 352.50 180.25 Q 347.11 185.90 343.56 193.56 Q 335.05 203.27 327.84 213.97 Q 327.03 215.17 325.03 216.95 Q 323.47 218.34 322.42 220.20 Q 321.44 221.92 320.58 222.91 Q 319.49 224.16 318.50 225.50 Q 315.02 232.24 309.78 237.71 Q 309.57 237.93 309.65 237.64 Q 310.08 236.04 309.06 237.56 Q 308.38 238.58 305.00 242.21 Q 305.25 241.87 305.38 241.48 Q 305.58 240.91 305.82 240.61 Q 310.47 234.99 314.25 228.75 Q 314.76 227.92 315.50 227.00 Q 320.45 220.91 325.06 214.56 Q 326.58 212.48 327.74 211.07 Q 328.86 209.71 330.06 207.43 Q 331.74 204.26 334.83 202.26 A 1.93 1.72 89.9 0 0 335.46 201.55 Q 336.39 199.74 338.31 198.06 Q 339.88 196.70 340.90 194.65 Q 342.05 192.31 343.09 191.10 Q 347.22 186.33 350.48 180.91 Q 350.68 180.57 350.40 180.86 Q 348.52 182.75 350.19 179.94 Q 352.99 176.59 355.69 173.15 Q 355.95 172.81 356.47 172.59 Q 357.70 172.05 357.69 170.69 Q 357.68 169.35 358.51 168.70 A 1.74 0.84 -25.7 0 0 359.10 167.96 Q 359.90 165.44 359.46 162.75 L 360.79 159.75 Z"/>
<path fill="rgb(81,81,81)" fill-opacity="1.000" d="M 359.46 162.75 Q 359.90 165.44 359.10 167.96 A 1.74 0.84 -25.7 0 1 358.51 168.70 Q 357.68 169.35 357.69 170.69 Q 357.70 172.05 356.47 172.59 Q 355.95 172.81 355.69 173.15 Q 352.99 176.59 350.19 179.94 Q 348.52 182.75 350.40 180.86 Q 350.68 180.57 350.48 180.91 Q 347.22 186.33 343.09 191.10 Q 342.05 192.31 340.90 194.65 Q 339.88 196.70 338.31 198.06 Q 336.39 199.74 335.46 201.55 A 1.93 1.72 89.9 0 1 334.83 202.26 Q 331.74 204.26 330.06 207.43 Q 328.86 209.71 327.74 211.07 Q 326.58 212.48 325.06 214.56 Q 320.45 220.91 315.50 227.00 Q 314.76 227.92 314.25 228.75 Q 310.47 234.99 305.82 240.61 Q 305.58 240.91 305.38 241.48 Q 305.25 241.87 305.00 242.21 Q 300.54 247.26 297.01 253.01 Q 295.73 255.10 294.03 256.85 Q 291.98 258.97 290.93 260.52 Q 287.82 265.15 284.06 269.31 Q 283.57 270.36 283.51 271.50 A 0.95 0.94 -14.6 0 1 283.07 272.24 Q 281.63 273.12 281.32 274.76 A 1.60 1.31 79.0 0 1 280.88 275.58 Q 279.70 276.69 278.80 278.03 Q 276.28 281.74 278.87 278.79 Q 279.08 278.55 279.08 278.85 Q 279.12 279.97 278.20 280.53 Q 277.69 280.84 277.47 281.17 Q 272.75 288.05 267.44 294.50 Q 267.24 294.75 265.95 296.79 Q 265.35 297.74 264.25 299.00 Q 261.00 302.71 260.75 304.00 Q 260.42 305.68 259.38 306.92 Q 257.92 308.68 257.49 309.36 Q 255.79 312.06 253.03 313.79 Q 251.71 314.62 250.47 315.55 Q 249.16 316.53 247.72 316.75 Q 239.86 317.94 231.94 317.69 Q 224.64 317.47 224.55 317.46 Q 207.93 317.29 201.69 316.81 Q 195.87 316.37 193.79 310.75 Q 194.20 311.06 194.75 311.04 Q 199.73 314.00 203.44 314.31 Q 215.58 315.35 237.00 315.15 Q 241.29 315.11 245.89 314.17 Q 246.73 314.00 245.87 314.00 Q 241.87 314.00 237.51 313.80 Q 235.97 313.73 238.24 313.88 Q 241.97 314.12 245.50 313.04 Q 248.45 313.13 250.48 310.98 Q 251.12 310.30 251.80 309.65 Q 252.45 309.03 252.88 308.13 Q 254.60 304.51 258.10 302.38 Q 260.66 300.81 258.96 298.25 L 298.50 245.21 Q 300.76 244.02 300.03 245.74 Q 299.82 246.23 300.31 246.07 Q 301.69 245.63 301.57 243.99 A 1.65 1.24 64.4 0 1 301.76 243.06 Q 303.65 240.05 306.63 238.09 A 1.88 1.79 -4.7 0 0 307.28 237.36 Q 309.05 233.76 311.86 230.98 Q 313.38 229.48 314.47 227.54 Q 316.25 224.37 319.06 222.00 A 1.79 1.61 80.9 0 0 319.57 221.21 Q 320.05 219.61 321.16 218.36 A 1.29 1.26 66.4 0 0 321.48 217.51 Q 321.47 215.11 323.75 214.59 A 1.71 1.23 6.9 0 0 324.59 214.13 Q 326.44 212.09 327.76 209.68 Q 327.81 209.60 328.95 207.98 Q 329.78 206.80 329.58 205.24 A 1.24 1.17 -30.5 0 1 329.83 204.38 Q 330.55 203.47 330.46 202.25 L 359.46 162.75 Z"/>
<path fill="rgb(66,66,66)" fill-opacity="1.000" d="M 172.71 176.75 L 173.04 178.25 Q 167.25 190.47 160.25 202.04 L 158.29 201.50 L 158.25 201.04 L 172.00 177.29 L 172.71 176.75 Z"/>
<path fill="rgb(20,20,20)" fill-opacity="1.000" d="M 125.40 182.04 L 158.25 201.04 L 158.29 201.50 L 101.04 300.25 Q 99.06 303.30 97.46 299.75 L 61.79 240.75 L 58.58 234.96 A 2.23 2.14 45.7 0 1 58.56 232.82 Q 65.38 220.68 72.44 208.69 Q 74.25 205.61 75.54 204.25 Q 80.54 208.07 86.24 210.73 A 0.83 0.81 -51.1 0 0 87.09 210.63 L 123.42 182.18 A 1.77 1.77 40.8 0 1 125.40 182.04 Z"/>
<path fill="rgb(66,66,66)" fill-opacity="1.000" d="M 75.71 188.25 Q 74.86 189.61 76.26 190.22 Q 76.89 190.50 76.79 191.25 Q 72.19 198.69 67.69 206.19 Q 62.21 216.19 56.19 225.88 Q 55.61 226.82 54.88 227.19 Q 54.03 227.62 53.04 227.75 Q 52.78 227.16 52.25 226.79 Q 53.18 226.72 53.67 225.92 Q 63.79 209.26 73.13 192.15 Q 73.16 192.10 73.60 191.55 Q 74.00 191.07 73.50 190.46 L 75.71 188.25 Z"/>
<path fill="rgb(115,115,115)" fill-opacity="1.000" d="M 73.50 190.46 Q 74.00 191.07 73.60 191.55 Q 73.16 192.10 73.13 192.15 Q 63.79 209.26 53.67 225.92 Q 53.18 226.72 52.25 226.79 L 36.92 217.76 A 0.33 0.32 -47.7 0 1 36.90 217.21 L 73.50 190.46 Z"/>
<path fill="rgb(76,76,76)" fill-opacity="1.000" d="M 158.29 201.50 L 160.25 202.04 Q 161.00 205.08 158.81 207.31 Q 157.93 208.21 149.81 223.81 Q 147.78 225.85 146.12 228.18 Q 145.35 229.25 143.34 233.14 Q 141.16 237.37 138.00 241.00 Q 136.38 243.75 135.40 246.78 Q 135.25 247.23 134.88 247.58 Q 133.15 249.20 132.44 251.48 Q 132.00 252.88 132.00 251.42 Q 132.00 251.03 131.71 251.28 Q 130.01 252.76 129.53 254.95 A 1.21 1.12 -11.6 0 1 129.00 255.69 Q 127.12 256.86 126.56 259.06 Q 123.45 265.76 120.43 272.49 Q 120.19 273.03 120.03 274.22 Q 119.96 274.82 119.71 275.39 Q 119.51 275.88 118.93 276.28 Q 115.28 278.80 113.33 282.72 Q 113.30 282.77 112.51 285.38 Q 112.05 286.91 110.71 288.00 Q 109.25 288.97 108.73 290.74 Q 107.52 294.94 104.25 297.64 A 1.69 1.65 81.2 0 0 103.73 298.37 Q 102.91 300.62 101.04 300.25 L 158.29 201.50 Z"/>
<path fill="rgb(76,76,76)" fill-opacity="1.000" d="M 330.46 202.25 Q 330.55 203.47 329.83 204.38 A 1.24 1.17 -30.5 0 0 329.58 205.24 Q 329.78 206.80 328.95 207.98 Q 327.81 209.60 327.76 209.68 Q 326.44 212.09 324.59 214.13 A 1.71 1.23 6.9 0 1 323.75 214.59 Q 321.47 215.11 321.48 217.51 A 1.29 1.26 66.4 0 1 321.16 218.36 Q 320.05 219.61 319.57 221.21 A 1.79 1.61 80.9 0 1 319.06 222.00 Q 316.25 224.37 314.47 227.54 Q 313.38 229.48 311.86 230.98 Q 309.05 233.76 307.28 237.36 A 1.88 1.79 -4.7 0 1 306.63 238.09 Q 303.65 240.05 301.76 243.06 A 1.65 1.24 64.4 0 0 301.57 243.99 Q 301.69 245.63 300.31 246.07 Q 299.82 246.23 300.03 245.74 Q 300.76 244.02 298.50 245.21 L 330.46 202.25 Z"/>
<path fill="rgb(111,111,111)" fill-opacity="1.000" d="M 2.21 205.50 Q 1.12 210.73 3.31 214.94 Q 10.35 228.43 10.44 228.56 Q 10.71 229.00 11.14 229.37 Q 11.62 229.78 11.85 230.14 Q 26.45 252.99 27.56 255.94 Q 28.27 257.80 29.37 258.74 Q 29.78 259.08 32.06 260.38 Q 36.50 262.91 40.94 259.19 Q 44.35 256.33 46.44 253.51 Q 46.54 253.37 47.59 251.18 Q 48.08 250.16 49.03 249.46 A 1.46 1.27 -13.7 0 0 49.56 248.71 Q 50.40 245.79 52.46 244.10 Q 54.22 242.66 55.34 244.41 L 59.09 250.24 Q 59.42 250.74 59.73 250.96 Q 61.65 252.32 62.31 254.58 Q 62.45 255.05 62.78 255.44 Q 63.63 256.43 64.69 258.31 Q 67.24 262.87 71.24 269.06 Q 74.53 274.16 77.69 279.84 Q 82.93 289.21 88.81 298.19 Q 91.69 305.15 97.06 308.19 Q 99.15 309.36 99.21 311.19 A 0.92 0.72 78.9 0 1 98.80 312.00 L 97.79 312.50 Q 96.07 308.48 92.06 306.69 Q 90.28 305.90 88.69 301.81 Q 79.86 288.41 72.19 274.31 Q 65.28 264.83 59.75 254.50 Q 58.39 251.96 55.10 247.11 A 1.31 0.97 71.5 0 0 54.33 246.57 Q 52.98 246.37 52.06 247.56 Q 50.88 249.82 49.38 251.85 Q 48.43 253.14 46.63 256.03 Q 43.51 261.03 37.81 262.81 Q 33.67 264.11 30.41 262.23 Q 28.41 261.07 25.94 257.03 Q 17.37 243.01 8.69 229.06 Q 3.58 220.85 1.75 215.50 Q 0.17 210.87 2.21 205.50 Z"/>
<path fill="rgb(76,76,76)" fill-opacity="1.000" d="M 7.79 210.25 Q 17.84 226.50 27.56 242.94 Q 31.69 248.89 34.75 255.46 L 33.00 255.46 Q 32.44 252.42 29.72 251.41 A 1.37 0.78 9.4 0 1 28.99 250.82 L 26.20 244.42 A 1.45 0.98 82.6 0 0 25.60 243.74 Q 24.23 243.07 23.51 241.78 Q 22.47 239.90 22.12 239.42 Q 20.98 237.86 20.39 236.01 Q 19.79 234.17 19.13 233.21 Q 18.25 231.91 17.31 230.66 Q 17.11 230.39 16.91 229.76 Q 16.69 229.07 15.99 228.85 A 1.05 0.80 5.0 0 1 15.35 228.27 Q 14.08 224.20 13.50 223.25 Q 11.54 220.05 9.75 216.75 Q 7.38 213.91 7.79 210.25 Z"/>
<path fill="rgb(13,13,13)" fill-opacity="1.000" d="M 149.75 231.46 L 180.20 249.28 A 1.36 1.33 19.4 0 1 180.86 250.62 L 174.43 295.43 A 2.50 2.29 -71.7 0 0 175.52 297.86 L 187.25 304.79 Q 188.16 306.09 187.29 307.50 L 181.46 317.50 Q 174.32 329.36 173.81 330.56 Q 172.41 333.89 168.25 333.50 Q 164.18 333.12 152.25 333.75 Q 124.26 332.86 96.25 332.54 L 92.00 332.29 L 91.79 332.25 Q 91.80 331.34 92.27 330.54 Q 96.59 323.06 100.79 315.50 L 108.00 303.04 Q 132.79 260.57 148.06 233.81 Q 148.95 232.26 149.75 231.46 Z"/>
<path fill="rgb(66,66,66)" fill-opacity="1.000" d="M 61.79 240.75 L 97.46 299.75 Q 95.60 300.00 95.49 298.50 A 0.64 0.58 -86.7 0 0 95.02 297.92 Q 92.51 297.38 92.27 294.75 Q 92.22 294.20 91.98 293.82 Q 90.53 291.55 88.56 289.69 Q 86.57 286.44 85.50 282.25 Q 85.39 281.80 84.99 281.62 A 1.14 0.74 12.5 0 1 84.39 281.01 Q 83.88 279.06 82.29 277.75 Q 76.95 267.52 73.00 261.75 Q 71.71 259.87 71.31 258.55 A 0.80 0.70 -2.2 0 0 70.69 258.05 Q 70.07 257.94 69.95 257.31 Q 69.83 256.61 69.68 256.38 L 61.96 243.98 A 1.80 1.26 38.7 0 1 61.69 243.06 L 61.79 240.75 Z"/>
<path fill="rgb(115,115,115)" fill-opacity="1.000" d="M 226.79 254.68 Q 227.53 254.58 227.54 255.50 L 223.92 290.03 A 0.53 0.52 -72.1 0 1 223.14 290.44 L 210.75 283.21 Q 211.60 280.53 211.75 280.25 Q 218.59 267.57 226.05 255.24 A 1.23 0.83 -71.2 0 1 226.79 254.68 Z"/>
<path fill="rgb(66,66,66)" fill-opacity="1.000" d="M 206.75 272.71 L 207.71 272.75 L 206.25 277.96 Q 200.03 289.01 193.81 300.06 Q 191.99 305.06 187.29 307.50 Q 188.16 306.09 187.25 304.79 Q 188.66 304.21 189.31 302.81 Q 198.86 288.24 206.75 272.71 Z"/>
<path fill="rgb(66,66,66)" fill-opacity="1.000" d="M 258.96 298.25 Q 260.66 300.81 258.10 302.38 Q 254.60 304.51 252.88 308.13 Q 252.45 309.03 251.80 309.65 Q 251.12 310.30 250.48 310.98 Q 248.45 313.13 245.50 313.04 L 236.99 313.26 A 1.28 0.91 60.3 0 1 236.17 312.88 Q 235.47 312.16 234.50 311.79 L 246.92 311.49 A 3.40 3.37 18.2 0 0 249.50 310.20 L 258.96 298.25 Z"/>
<path fill="rgb(66,66,66)" fill-opacity="1.000" d="M 201.75 311.32 Q 218.12 311.96 234.50 311.79 Q 235.47 312.16 236.17 312.88 A 1.28 0.91 60.3 0 0 236.99 313.26 L 245.50 313.04 Q 241.97 314.12 238.24 313.88 Q 235.97 313.73 237.51 313.80 Q 241.87 314.00 245.87 314.00 Q 246.73 314.00 245.89 314.17 Q 241.29 315.11 237.00 315.15 Q 215.58 315.35 203.44 314.31 Q 199.73 314.00 194.75 311.04 Q 196.53 310.59 198.29 310.84 Q 201.66 311.32 201.75 311.32 Z"/>
<path fill="rgb(66,66,66)" fill-opacity="1.000" d="M 181.46 317.50 Q 181.51 318.25 181.51 318.99 Q 181.51 319.74 181.16 320.43 Q 179.88 322.96 178.37 325.37 Q 178.31 325.47 177.36 327.65 Q 176.93 328.65 175.99 329.30 A 1.93 1.47 -11.6 0 0 175.36 330.02 Q 172.54 336.16 166.00 336.50 Q 152.27 337.22 135.22 336.58 Q 135.21 336.57 120.79 335.58 Q 113.50 335.08 106.19 335.28 Q 102.82 335.37 99.72 334.19 Q 99.33 334.04 98.93 333.61 Q 97.90 332.51 96.25 332.54 Q 124.26 332.86 152.25 333.75 Q 164.18 333.12 168.25 333.50 Q 172.41 333.89 173.81 330.56 Q 174.32 329.36 181.46 317.50 Z"/>
</svg>