<?xml version="1.0" encoding="UTF-8" standalone="no"?>
<!DOCTYPE svg PUBLIC "-//W3C//DTD SVG 1.1//EN" "http://www.w3.org/Graphics/SVG/1.1/DTD/svg11.dtd">
<svg width="100%" height="100%" viewBox="0 0 122 187" version="1.1" xmlns="http://www.w3.org/2000/svg" xmlns:xlink="http://www.w3.org/1999/xlink" xml:space="preserve" xmlns:serif="http://www.serif.com/" style="fill-rule:evenodd;clip-rule:evenodd;stroke-linejoin:round;stroke-miterlimit:2;">
    <g transform="matrix(1,0,0,1,0.0003,-0.0005)">
        <path d="M0,121.186L0,159.454L49.749,159.454L49.749,168.384L58.679,168.384L58.679,159.454L67.608,159.454L67.608,177.313L76.538,177.313L76.538,159.454L85.467,159.454L85.467,177.313L94.396,177.313L94.396,186.243L103.326,186.243L103.326,168.384L112.255,168.384L112.255,177.313L121.184,177.313L121.184,121.186L0,121.186Z" style="fill:rgb(234,104,0);fill-rule:nonzero;"/>
    </g>
    <g transform="matrix(1,0,0,1,0.0003,-0.0005)">
        <rect x="0" y="73.987" width="121.184" height="38.269" style="fill:rgb(255,160,83);fill-rule:nonzero;"/>
    </g>
    <g transform="matrix(1,0,0,1,0.0003,-0.0005)">
        <path d="M17.859,0.001L17.859,17.86L8.93,17.86L8.93,8.931L-0,8.931L-0,65.058L121.184,65.058L121.184,26.789L71.435,26.789L71.435,17.86L62.506,17.86L62.506,26.789L53.576,26.789L53.576,8.931L44.647,8.931L44.647,26.789L35.718,26.789L35.718,8.931L26.789,8.931L26.789,0.001L17.859,0.001Z" style="fill:rgb(255,212,177);fill-rule:nonzero;"/>
    </g>
</svg>
