<?xml version="1.0" encoding="UTF-8" standalone="no"?>
<!DOCTYPE svg PUBLIC "-//W3C//DTD SVG 1.1//EN" "http://www.w3.org/Graphics/SVG/1.1/DTD/svg11.dtd">
<svg width="100%" height="100%" viewBox="0 0 593 684" version="1.1" xmlns="http://www.w3.org/2000/svg" xmlns:xlink="http://www.w3.org/1999/xlink" xml:space="preserve" xmlns:serif="http://www.serif.com/" style="fill-rule:evenodd;clip-rule:evenodd;stroke-linejoin:round;stroke-miterlimit:2;">
    <g transform="matrix(1,0,0,1,-204,-34.2402)">
        <path d="M499.18,34.43C499.626,34.177 500.171,34.177 500.61,34.43L547.75,61.71C547.43,62.917 546.763,63.693 545.75,64.04L500.44,38C500.16,37.845 499.829,37.841 499.57,37.99L486.58,45.44C486.133,45.7 486.143,45.95 486.61,46.19L516.54,61.5C516.513,62.473 517,63.14 518,63.5C519.107,63.893 518.94,64.227 517.5,64.5C516.3,64.727 515.3,64.31 514.5,63.25C514.153,62.79 513.737,62.72 513.25,63.04L483.2,47.97C482.917,47.828 482.585,47.843 482.33,48.01L470.28,55.84C469.853,56.113 469.873,56.357 470.34,56.57L629.54,127.5C629.18,128.027 629.19,128.517 629.57,128.97C629.586,128.989 629.6,129.009 629.611,129.031C629.684,129.173 629.64,129.343 629.513,129.408C629.493,129.418 629.472,129.426 629.45,129.43C628.483,129.623 627.5,129.577 626.5,129.29L467.03,58.31C466.733,58.18 466.379,58.222 466.1,58.42L454.8,66.63C454.287,67.003 454.32,67.3 454.9,67.52L606.75,125.79L606.3,126.02C606.078,126.135 605.951,126.343 606,126.51C606.32,127.45 605.89,127.947 604.71,128L452.15,69.49C451.847,69.374 451.515,69.419 451.28,69.61L440.3,78.46C439.967,78.727 440.007,78.927 440.42,79.06L518,104.29L517.53,104.74C517.29,104.967 517.383,105.12 517.81,105.2C518.323,105.293 518.45,105.687 518.19,106.38C518.177,106.418 518.158,106.455 518.135,106.488C517.99,106.701 517.696,106.758 517.482,106.613C517.448,106.589 517.417,106.562 517.39,106.53C516.87,105.93 516.393,105.92 515.96,106.5L438.19,81.32C437.719,81.166 437.207,81.269 436.85,81.59L427.3,90.07C426.8,90.517 426.877,90.83 427.53,91.01L528.04,118C528.107,118.893 527.927,119.74 527.5,120.54L424.78,93.04C424.377,92.934 423.943,93.052 423.64,93.35L415.13,101.73C414.55,102.303 414.657,102.673 415.45,102.84L515.54,124.25C514.707,124.743 514.347,125.493 514.46,126.5L413.47,105.06C412.709,104.899 411.946,105.12 411.47,105.64L403.17,114.69C402.93,114.95 402.99,115.107 403.35,115.16L605.75,147.29C604.85,148.637 603.517,149.137 601.75,148.79L595.75,148.21L401.31,117.39C401,117.341 400.689,117.455 400.49,117.69L393.12,126.67C392.673,127.21 392.8,127.517 393.5,127.59L530.04,142C530.28,142.8 530.17,143.55 529.71,144.25L391.51,129.76C391.207,129.729 390.907,129.84 390.7,130.06C387.913,132.9 385.57,136.09 383.67,139.63C383.659,139.65 383.651,139.671 383.644,139.693C383.598,139.856 383.699,140.03 383.868,140.078C383.891,140.085 383.916,140.089 383.94,140.09L583,150.54C583.547,150.787 584.13,150.9 584.75,150.88C585.937,150.833 586.023,150.89 585.01,151.05C584.463,151.13 584.553,151.263 585.28,151.45C585.42,151.483 585.563,151.487 585.71,151.46C587.47,151.187 589.09,151.45 590.57,152.25C590.587,152.259 590.602,152.27 590.617,152.283C590.746,152.394 590.755,152.598 590.636,152.735C590.622,152.751 590.607,152.767 590.59,152.78C589.93,153.3 589.86,153.847 590.38,154.42C590.578,154.63 590.889,154.754 591.24,154.76C603.073,155.007 614.91,155.057 626.75,154.91C627.47,154.897 627.637,155.023 627.25,155.29L373.27,155.25C372.882,155.249 372.519,155.459 372.32,155.8L346.46,200.25C345.013,200.043 344.68,199.293 345.46,198C344.947,196.7 344.71,195.353 344.75,193.96L346.79,190.5C347.717,189.447 348.49,188.193 349.11,186.74C349.55,185.713 349.467,185.667 348.86,186.6L346.5,190.21L345.29,191.5C344.99,190.373 344.323,190.04 343.29,190.5C351.423,179.32 355.64,173.467 355.94,172.94C356.047,172.747 356.07,172.627 356.01,172.58C355.936,172.523 355.792,172.582 355.69,172.71L328.79,206C328.623,204.887 329.027,204.053 330,203.5C332.033,202.34 333.013,201.153 332.94,199.94C332.873,198.893 332.477,198.83 331.75,199.75C331.417,200.17 330.917,200.323 330.25,200.21L358.79,165C367.117,154.84 367.007,154.59 358.46,164.25L351.71,171.5C351.263,170.94 351.283,170.39 351.77,169.85C351.778,169.842 351.784,169.834 351.79,169.825C351.839,169.752 351.818,169.652 351.745,169.604C351.737,169.598 351.729,169.594 351.72,169.59L351.5,169.5C351.488,169.495 351.477,169.489 351.466,169.483C351.279,169.379 351.209,169.143 351.311,168.961C351.317,168.95 351.323,168.94 351.33,168.93C352.01,167.99 352.63,167.327 353.19,166.94C353.717,166.573 353.807,166.177 353.46,165.75C359.273,159.457 365.017,153.103 370.69,146.69C371.463,145.277 371.337,145.233 370.31,146.56C366.223,150.573 362.203,154.65 358.25,158.79C357.99,158.83 357.777,158.8 357.61,158.7C357.599,158.693 357.588,158.685 357.578,158.677C357.41,158.536 357.435,158.226 357.633,157.991C357.645,157.977 357.657,157.963 357.67,157.95C359.25,156.35 360.84,154.763 362.44,153.19C362.9,152.583 363.207,151.913 363.36,151.18C363.424,150.876 363.598,150.6 363.85,150.4C364.523,149.853 364.893,149.137 364.96,148.25L380.96,132.28C381.153,132.093 381.13,131.997 380.89,131.99C380.777,131.983 380.667,132.007 380.56,132.06C360.693,150.1 340.77,168.08 320.79,186C320.057,185.787 319.593,185.387 319.4,184.8C319.32,184.553 319.203,184.53 319.05,184.73C318.643,185.243 318.127,185.403 317.5,185.21C368.253,139.503 393.817,116.497 394.19,116.19C395.303,115.263 395.427,114.97 394.56,115.31C371.5,134.083 348.41,152.813 325.29,171.5C324.623,171.14 324.34,170.537 324.44,169.69C324.493,169.21 324.18,169.05 323.5,169.21C350.367,147.41 377.263,125.653 404.19,103.94C404.523,103.427 404.377,103.363 403.75,103.75C395.097,110.083 386.43,116.403 377.75,122.71C378.623,121.41 378.54,120.27 377.5,119.29C389.747,110.25 402.057,101.297 414.43,92.43C414.963,92.05 415.077,91.843 414.77,91.81C414.65,91.797 414.52,91.837 414.38,91.93C393.907,105.383 373.363,118.727 352.75,131.96C352.17,131.073 351.837,130.1 351.75,129.04C377.143,112.48 402.58,95.987 428.06,79.56C428.88,78.793 428.88,78.627 428.06,79.06C407.16,91.26 386.223,103.393 365.25,115.46L364.5,112.29L499.18,34.43ZM569.5,152.71C578.687,153.217 578.853,152.993 570,152.04L381.93,142.4C381.459,142.376 381.01,142.6 380.75,142.99L374.91,151.72C374.457,152.407 374.64,152.75 375.46,152.75L569.5,152.71Z" style="fill:rgb(53,53,53);fill-opacity:0.99;fill-rule:nonzero;"/>
    </g>
    <g transform="matrix(1,0,0,1,-204,-34.2402)">
        <path d="M516.54,61.5L672.75,140.96L670.5,143.21L513.25,63.04C513.737,62.72 514.153,62.79 514.5,63.25C515.3,64.31 516.3,64.727 517.5,64.5C518.94,64.227 519.107,63.893 518,63.5C517,63.14 516.513,62.473 516.54,61.5Z" style="fill:rgb(29,29,29);fill-opacity:0.99;fill-rule:nonzero;"/>
    </g>
    <g transform="matrix(1,0,0,1,-204,-34.2402)">
        <path d="M547.75,61.71L647.79,119.5C647.65,119.753 647.597,119.993 647.63,120.22C647.66,120.448 647.901,120.708 648.26,120.9C649.607,121.62 649.507,122.32 647.96,123L545.75,64.04C546.763,63.693 547.43,62.917 547.75,61.71Z" style="fill:rgb(28,28,28);fill-rule:nonzero;"/>
    </g>
    <g transform="matrix(1,0,0,1,-204,-34.2402)">
        <path d="M518,104.29L660.25,150.71C658.95,151.197 658.67,151.917 659.41,152.87C659.61,153.128 659.713,153.44 659.7,153.75C659.667,154.597 659.877,155.347 660.33,156C660.69,156.513 660.877,156.897 660.89,157.15C660.917,157.63 660.76,158.07 660.42,158.47C660.228,158.688 660.219,159.002 660.4,159.18C660.853,159.627 661.387,159.97 662,160.21L744.79,346.5C748.657,354.867 748.88,354.783 745.46,346.25L744.25,342.54C744.863,342.527 745.213,342.743 745.3,343.19C745.372,343.525 745.569,343.774 745.79,343.81C746.257,343.897 746.73,343.877 747.21,343.75L754.79,363.5C758.137,372.707 758.373,372.693 755.5,363.46L753.04,356C753.647,355.827 754.227,355.883 754.78,356.17C754.794,356.177 754.809,356.183 754.824,356.187C754.961,356.225 755.109,356.135 755.15,355.987C755.155,355.969 755.158,355.949 755.16,355.93L755.29,354.75C759.53,367.743 761.663,374.263 761.69,374.31C762.19,375.237 762.377,375.133 762.25,374C750.817,332.22 739.58,290.387 728.54,248.5C728.753,247.367 729.407,246.603 730.5,246.21L769.81,392.33C769.897,392.663 769.94,392.66 769.94,392.32C769.92,389.987 769.46,387.193 768.56,383.94C767.573,380.353 759.4,341.957 744.04,268.75C744.72,267.863 745.61,267.697 746.71,268.25C757.143,316.503 767.38,364.797 777.42,413.13C777.487,413.437 777.593,413.657 777.74,413.79C778.053,414.063 778.14,413.633 778,412.5C776.38,402.42 774.783,392.337 773.21,382.25C773.41,383.243 774.153,383.877 775.44,384.15C775.623,384.186 775.76,384.343 775.77,384.53C775.817,385.037 776.047,385.193 776.46,385L781.79,419.5C782.29,422.32 782.693,425.153 783,428C783.167,428.533 783.43,428.617 783.79,428.25C784.05,427.65 784.263,427.507 784.43,427.82C784.603,428.147 784.753,428.35 784.88,428.43C785.753,429.01 786.223,428.533 786.29,427L788.04,442C788.26,447.267 788.4,447.267 788.46,442L787.71,425L787.75,420.89C787.75,420.887 787.75,420.884 787.75,420.881C787.755,420.634 787.954,420.435 788.189,420.44C788.193,420.44 788.196,420.44 788.2,420.44C789.633,420.48 790.17,419.77 789.81,418.31C789.53,417.157 789.427,415.887 789.5,414.5C789.553,413.48 789.733,413.397 790.04,414.25C790.727,425.577 791.283,436.91 791.71,448.25C791.837,451.77 792.033,454.35 792.3,455.99C792.78,458.95 793.017,458.93 793.01,455.93L792.96,435.75L793.24,375.01C793.247,374.643 793.393,374.557 793.68,374.75C794.807,375.503 795.183,376.69 794.81,378.31C795.157,381.67 795.303,381.483 795.25,377.75C795.223,376.003 795.307,375.67 795.5,376.75C795.62,402.75 795.773,428.75 795.96,454.75L795.79,474.5C795.797,474.347 795.783,474.233 795.75,474.16C795.63,473.893 795.567,473.937 795.56,474.29C795.433,481.217 795.31,481.157 795.19,474.11C795.19,473.93 795.17,473.927 795.13,474.1C795.023,474.573 794.927,474.72 794.84,474.54C794.737,474.341 794.605,474.194 794.47,474.13C793.07,473.503 791.977,472.23 791.19,470.31C790.63,468.95 789.473,467.593 787.72,466.24C787.484,466.061 787.329,465.772 787.29,465.44C787.197,464.64 786.847,463.953 786.24,463.38C785.76,462.92 785.5,462.96 785.46,463.5L783.99,456.41C783.743,455.23 783.207,455.053 782.38,455.88L736.29,502C737.037,500.28 736.843,499.74 735.71,500.38C735.614,500.433 735.478,500.4 735.38,500.3L735.2,500.13C735.193,500.123 735.185,500.116 735.176,500.11C735.044,500.022 734.804,500.143 734.645,500.38C734.637,500.393 734.628,500.407 734.62,500.42C734.133,501.22 733.427,501.733 732.5,501.96L782.48,451.89C782.708,451.662 782.8,451.333 782.72,451.03L779.59,439.29C779.403,438.577 779.057,438.497 778.55,439.05L767.79,451C768.15,449.68 767.733,448.847 766.54,448.5L777.46,436.46C778.105,435.747 778.34,434.772 778.08,433.89L774.72,422.63C774.573,422.13 774.333,422.083 774,422.49L734.5,471.29C733.687,470.683 732.77,470.49 731.75,470.71L772.94,419.64C773.144,419.387 773.205,419.056 773.1,418.77L769.1,407.77C768.873,407.157 768.563,407.123 768.17,407.67L747.54,436C747.033,435.373 746.423,434.873 745.71,434.5L766.98,405.17C767.499,404.459 767.594,403.502 767.23,402.66L763.35,393.62C762.91,392.587 762.387,392.537 761.78,393.47L734.29,435.75C733.557,435.337 733.03,434.753 732.71,434L761.07,390.16C761.299,389.806 761.33,389.362 761.15,388.99L756.28,379.04C756.047,378.573 755.797,378.567 755.53,379.02L715.79,447.75C715.043,447.71 714.363,447.447 713.75,446.96L754.26,376.69C754.539,376.207 754.542,375.616 754.27,375.14L627.25,155.29C627.637,155.023 627.47,154.897 626.75,154.91C614.91,155.057 603.073,155.007 591.24,154.76C590.889,154.754 590.578,154.63 590.38,154.42C589.86,153.847 589.93,153.3 590.59,152.78C590.607,152.767 590.622,152.751 590.636,152.735C590.755,152.598 590.746,152.394 590.617,152.283C590.602,152.27 590.587,152.259 590.57,152.25C589.09,151.45 587.47,151.187 585.71,151.46C585.563,151.487 585.42,151.483 585.28,151.45C584.553,151.263 584.463,151.13 585.01,151.05C586.023,150.89 585.937,150.833 584.75,150.88C584.13,150.9 583.547,150.787 583,150.54C586.86,150.62 587.61,150.44 585.25,150C566.71,148.327 548.197,146.41 529.71,144.25C530.17,143.55 530.28,142.8 530.04,142L595.25,148.71C597.543,149.337 599.86,149.48 602.2,149.14C602.387,149.113 602.387,149.077 602.2,149.03C602.027,148.983 601.877,148.903 601.75,148.79C603.517,149.137 604.85,148.637 605.75,147.29C610.817,148.143 615.9,148.88 621,149.5C622.913,149.4 622.747,149.22 620.5,148.96L623.04,147.25C624.9,147.377 626.72,147.71 628.5,148.25C629.587,148.343 629.773,148.157 629.06,147.69C595.18,138.757 561.327,129.707 527.5,120.54C527.927,119.74 528.107,118.893 528.04,118C576.427,130.74 616.497,141.49 648.25,150.25C648.757,150.39 649.177,150.407 649.51,150.3C649.903,150.18 649.887,150.05 649.46,149.91L515.96,106.5C516.393,105.92 516.87,105.93 517.39,106.53C517.417,106.562 517.448,106.589 517.482,106.613C517.696,106.758 517.99,106.701 518.135,106.488C518.158,106.455 518.177,106.418 518.19,106.38C518.45,105.687 518.323,105.293 517.81,105.2C517.383,105.12 517.29,104.967 517.53,104.74L518,104.29ZM728.95,326.2C729.863,327.46 729.967,327.397 729.26,326.01L643.04,156.88C642.892,156.583 642.613,156.388 642.31,156.37L630.85,155.56C630.437,155.533 630.337,155.707 630.55,156.08C662.543,211.147 694.303,266.243 725.83,321.37C726.783,323.03 727.823,324.64 728.95,326.2ZM657.74,158.04L646.73,156.63C645.91,156.523 645.69,156.843 646.07,157.59L738.09,338.25C738.29,338.637 738.423,338.63 738.49,338.23C738.543,337.917 738.483,337.57 738.31,337.19C711.537,277.75 685.04,218.307 658.82,158.86C658.621,158.413 658.211,158.101 657.74,158.04Z" style="fill:rgb(29,29,29);fill-opacity:0.99;fill-rule:nonzero;"/>
    </g>
    <g transform="matrix(1,0,0,1,-204,-34.2402)">
        <path d="M364.5,112.29L365.25,115.46L207.91,206.28C207.503,206.515 207.251,206.946 207.25,207.41L207.31,222.19C207.31,222.523 207.453,222.597 207.74,222.41L351.75,129.04C351.837,130.1 352.17,131.073 352.75,131.96L207.74,226.29C207.462,226.469 207.298,226.763 207.31,227.06L208.02,241.25C208.06,241.99 208.387,242.137 209,241.69L377.5,119.29C378.54,120.27 378.623,121.41 377.75,122.71L208.76,245.43C208.42,245.677 208.237,246.093 208.28,246.52L209.75,260.75C209.783,261.083 209.93,261.147 210.19,260.94L323.5,169.21C324.18,169.05 324.493,169.21 324.44,169.69C324.34,170.537 324.623,171.14 325.29,171.5L211.12,263.99C210.571,264.435 210.303,265.14 210.42,265.83L212.66,278.74C212.747,279.227 212.973,279.303 213.34,278.97L317.5,185.21C318.127,185.403 318.643,185.243 319.05,184.73C319.203,184.53 319.32,184.553 319.4,184.8C319.593,185.387 320.057,185.787 320.79,186L214.05,282.11C213.793,282.342 213.632,282.634 213.6,282.93C213.513,283.637 213.633,284.327 213.96,285C212.973,284.52 212.273,283.783 211.86,282.79C211.757,282.55 211.495,282.395 211.2,282.4C210.727,282.42 210.35,282.18 210.07,281.68C209.07,279.887 208.1,278.077 207.16,276.25C207.027,275.983 206.81,275.747 206.51,275.54C205.09,274.553 204.463,273.14 204.63,271.3C204.677,270.78 204.693,270.783 204.68,271.31C204.633,273.643 204.42,275.957 204.04,278.25L204,205.51C204,205.128 204.206,204.773 204.54,204.58L364.5,112.29Z" style="fill:rgb(79,79,79);fill-opacity:0.99;fill-rule:nonzero;"/>
    </g>
    <g transform="matrix(1,0,0,1,-204,-34.2402)">
        <path d="M647.79,119.5L795.25,204.48C795.677,204.728 795.94,205.179 795.94,205.66L795.96,454.75C795.773,428.75 795.62,402.75 795.5,376.75C795.307,375.67 795.223,376.003 795.25,377.75C795.303,381.483 795.157,381.67 794.81,378.31C795.183,376.69 794.807,375.503 793.68,374.75C793.393,374.557 793.247,374.643 793.24,375.01L792.96,435.75C792.76,435.303 792.69,434.72 792.75,434C792.857,432.787 792.837,357.14 792.69,207.06C792.69,206.757 792.522,206.474 792.25,206.32L779.65,199.09C779.077,198.763 778.807,198.927 778.84,199.58L790.04,414.25C789.733,413.397 789.553,413.48 789.5,414.5C789.427,415.887 789.53,417.157 789.81,418.31C790.17,419.77 789.633,420.48 788.2,420.44C788.196,420.44 788.193,420.44 788.189,420.44C787.954,420.435 787.755,420.634 787.75,420.881C787.75,420.884 787.75,420.887 787.75,420.89L787.71,425L775.73,197.91C775.693,197.188 775.28,196.545 774.65,196.23L762.07,189.95C761.703,189.763 761.543,189.877 761.59,190.29C768.57,256.45 775.54,322.687 782.5,389C784.353,406.667 785.617,419.333 786.29,427C786.223,428.533 785.753,429.01 784.88,428.43C784.753,428.35 784.603,428.147 784.43,427.82C784.263,427.507 784.05,427.65 783.79,428.25L782.46,416.75L758.43,188.62C758.393,188.267 758.172,187.959 757.85,187.81L745.18,182.1C744.56,181.82 744.303,182.017 744.41,182.69L776.46,385C776.047,385.193 775.817,385.037 775.77,384.53C775.76,384.343 775.623,384.186 775.44,384.15C774.153,383.877 773.41,383.243 773.21,382.25L741.28,181.21C741.212,180.784 740.926,180.425 740.53,180.27L727.85,175.4C727.223,175.16 726.98,175.37 727.12,176.03L746.71,268.25C745.61,267.697 744.72,267.863 744.04,268.75L724.08,175.1C723.963,174.55 723.559,174.101 723.02,173.92L710.98,169.99C710.4,169.803 710.19,170.007 710.35,170.6L730.5,246.21C729.407,246.603 728.753,247.367 728.54,248.5L707.2,169.24C707.094,168.874 706.795,168.586 706.41,168.48L694.62,165.32C694.007,165.16 693.797,165.377 693.99,165.97L755.29,354.75L755.16,355.93C755.158,355.949 755.155,355.969 755.15,355.987C755.109,356.135 754.961,356.225 754.824,356.187C754.809,356.183 754.794,356.177 754.78,356.17C754.227,355.883 753.647,355.827 753.04,356L690.96,165.11C690.781,164.558 690.335,164.143 689.79,164.02L678.06,161.32C677.393,161.167 677.183,161.41 677.43,162.05L747.21,343.75C746.73,343.877 746.257,343.897 745.79,343.81C745.569,343.774 745.372,343.525 745.3,343.19C745.213,342.743 744.863,342.527 744.25,342.54L674.75,161.73C674.496,161.074 673.914,160.598 673.22,160.48L662.3,158.65C661.973,158.593 661.664,158.749 661.59,159.01C661.477,159.423 661.613,159.823 662,160.21C661.387,159.97 660.853,159.627 660.4,159.18C660.219,159.002 660.228,158.688 660.42,158.47C660.76,158.07 660.917,157.63 660.89,157.15C660.877,156.897 660.69,156.513 660.33,156C659.877,155.347 659.667,154.597 659.7,153.75C659.713,153.44 659.61,153.128 659.41,152.87C658.67,151.917 658.95,151.197 660.25,150.71L672.28,154.44C672.462,154.491 672.632,154.462 672.68,154.37C672.727,154.283 672.647,154.18 672.44,154.06C649.807,145.52 627.23,136.833 604.71,128C605.89,127.947 606.32,127.45 606,126.51C605.951,126.343 606.078,126.135 606.3,126.02L606.75,125.79L675.71,152.25C681.977,154.977 685.49,156.393 686.25,156.5C687.063,156.613 687.25,156.51 686.81,156.19C685.743,155.417 681.64,153.59 674.5,150.71L626.5,129.29C627.5,129.577 628.483,129.623 629.45,129.43C629.472,129.426 629.493,129.418 629.513,129.408C629.64,129.343 629.684,129.173 629.611,129.031C629.6,129.009 629.586,128.989 629.57,128.97C629.19,128.517 629.18,128.027 629.54,127.5L697.25,157.54C699.23,158.687 701.573,159.67 704.28,160.49C704.94,160.69 704.96,160.637 704.34,160.33L697.54,157L670.5,143.21L672.75,140.96C686.843,148.113 700.927,155.29 715,162.49C715.06,162.523 715.357,162.74 715.89,163.14C716.243,163.4 716.613,163.457 717,163.31C717.34,163.177 717.337,163.01 716.99,162.81L647.96,123C649.507,122.32 649.607,121.62 648.26,120.9C647.901,120.708 647.66,120.448 647.63,120.22C647.597,119.993 647.65,119.753 647.79,119.5Z" style="fill:rgb(21,21,21);fill-opacity:0.99;fill-rule:nonzero;"/>
    </g>
    <g transform="matrix(1,0,0,1,-204,-34.2402)">
        <path d="M515.54,124.25C551.447,131.563 587.28,139.23 623.04,147.25L620.5,148.96L514.46,126.5C514.347,125.493 514.707,124.743 515.54,124.25Z" style="fill:rgb(40,40,40);fill-rule:nonzero;"/>
    </g>
    <g transform="matrix(1,0,0,1,-204,-34.2402)">
        <path d="M364.96,148.25C364.893,149.137 364.523,149.853 363.85,150.4C363.598,150.6 363.424,150.876 363.36,151.18C363.207,151.913 362.9,152.583 362.44,153.19C360.84,154.763 359.25,156.35 357.67,157.95C357.657,157.963 357.645,157.977 357.633,157.991C357.435,158.226 357.41,158.536 357.578,158.677C357.588,158.685 357.599,158.693 357.61,158.7C357.777,158.8 357.99,158.83 358.25,158.79L225,291.79C227.433,288.67 229.33,286.637 230.69,285.69C231.483,285.137 231.72,284.563 231.4,283.97C231.35,283.871 231.354,283.76 231.41,283.68C231.93,282.967 231.87,282.9 231.23,283.48C230.71,283.953 230.287,283.877 229.96,283.25L364.96,148.25Z" style="fill:rgb(79,79,79);fill-opacity:0.99;fill-rule:nonzero;"/>
    </g>
    <g transform="matrix(1,0,0,1,-204,-34.2402)">
        <path d="M595.75,148.21L601.75,148.79C601.877,148.903 602.027,148.983 602.2,149.03C602.387,149.077 602.387,149.113 602.2,149.14C599.86,149.48 597.543,149.337 595.25,148.71C595.35,148.477 595.517,148.31 595.75,148.21Z" style="fill:rgb(29,29,29);fill-opacity:0.26;fill-rule:nonzero;"/>
    </g>
    <g transform="matrix(1,0,0,1,-204,-34.2402)">
        <path d="M674.5,150.71C681.64,153.59 685.743,155.417 686.81,156.19C687.25,156.51 687.063,156.613 686.25,156.5C685.49,156.393 681.977,154.977 675.71,152.25C675.437,151.89 675.093,151.647 674.68,151.52C674.388,151.433 674.172,151.285 674.11,151.13C674.003,150.883 674.133,150.743 674.5,150.71Z" style="fill:rgb(29,29,29);fill-opacity:0.26;fill-rule:nonzero;"/>
    </g>
    <g transform="matrix(1,0,0,1,-204,-34.2402)">
        <path d="M570,152.04C578.853,152.993 578.687,153.217 569.5,152.71C569.493,152.41 569.66,152.187 570,152.04Z" style="fill:rgb(19,19,19);fill-rule:nonzero;"/>
    </g>
    <g transform="matrix(1,0,0,1,-204,-34.2402)">
        <path d="M358.79,165C358.597,164.787 358.487,164.537 358.46,164.25C367.007,154.59 367.117,154.84 358.79,165Z" style="fill:rgb(29,29,29);fill-opacity:0.26;fill-rule:nonzero;"/>
    </g>
    <g transform="matrix(1,0,0,1,-204,-34.2402)">
        <path d="M697.54,157L704.34,160.33C704.96,160.637 704.94,160.69 704.28,160.49C701.573,159.67 699.23,158.687 697.25,157.54C697.71,157.58 697.807,157.4 697.54,157Z" style="fill:rgb(29,29,29);fill-opacity:0.26;fill-rule:nonzero;"/>
    </g>
    <g transform="matrix(1,0,0,1,-204,-34.2402)">
        <path d="M353.46,165.75C353.807,166.177 353.717,166.573 353.19,166.94C352.63,167.327 352.01,167.99 351.33,168.93C351.323,168.94 351.317,168.95 351.311,168.961C351.209,169.143 351.279,169.379 351.466,169.483C351.477,169.489 351.488,169.495 351.5,169.5L351.72,169.59C351.729,169.594 351.737,169.598 351.745,169.604C351.818,169.652 351.839,169.752 351.79,169.825C351.784,169.834 351.778,169.842 351.77,169.85C351.283,170.39 351.263,170.94 351.71,171.5L234.79,301.5C234.343,300.52 233.567,300.103 232.46,300.25L353.46,165.75Z" style="fill:rgb(79,79,79);fill-opacity:0.99;fill-rule:nonzero;"/>
    </g>
    <g transform="matrix(1,0,0,1,-204,-34.2402)">
        <path d="M349.11,186.74C348.49,188.193 347.717,189.447 346.79,190.5C346.75,190.347 346.653,190.25 346.5,190.21L348.86,186.6C349.467,185.667 349.55,185.713 349.11,186.74Z" style="fill:rgb(29,29,29);fill-opacity:0.26;fill-rule:nonzero;"/>
    </g>
    <g transform="matrix(1,0,0,1,-204,-34.2402)">
        <path d="M345.29,191.5L235.54,342.75C236.58,341.03 236.22,340.197 234.46,340.25L343.29,190.5C344.323,190.04 344.99,190.373 345.29,191.5Z" style="fill:rgb(85,85,85);fill-opacity:0.99;fill-rule:nonzero;"/>
    </g>
    <g transform="matrix(1,0,0,1,-204,-34.2402)">
        <path d="M344.75,193.96C344.71,195.353 344.947,196.7 345.46,198C345.333,198.193 345.18,198.347 345,198.46C344.72,198.187 344.543,198.197 344.47,198.49C344.43,198.65 344.383,198.773 344.33,198.86C310.517,251.153 276.587,303.367 242.54,355.5L241.21,353.25L344.75,193.96Z" style="fill:rgb(85,85,85);fill-opacity:0.99;fill-rule:nonzero;"/>
    </g>
    <g transform="matrix(1,0,0,1,-204,-34.2402)">
        <path d="M345.46,198C344.68,199.293 345.013,200.043 346.46,200.25L245.69,374.86C245.411,375.342 245.411,375.935 245.69,376.41L372.31,595.76C372.435,595.973 372.718,596.13 373.07,596.18L375,596.46C372.653,596.613 372.737,596.71 375.25,596.75C378.557,596.723 381.867,596.74 385.18,596.8C385.553,596.807 385.557,596.833 385.19,596.88C383.93,597.04 382.517,597.067 380.95,596.96C380.938,596.959 380.927,596.959 380.915,596.96C380.69,596.966 380.51,597.152 380.517,597.372C380.517,597.384 380.518,597.397 380.52,597.41C380.707,598.983 380.437,600.513 379.71,602C377.577,601.987 377.507,602.153 379.5,602.5C381.353,603.12 383.257,603.453 385.21,603.5L427.5,612.71C426.413,613.077 425.83,613.827 425.75,614.96L371.5,603.46C363.54,601.893 363.373,601.977 371,603.71C371.14,603.737 371.223,603.82 371.25,603.96C368.91,603.32 367.897,603.917 368.21,605.75C360.93,603.843 353.65,601.937 346.37,600.03C346.283,600.01 346.2,600.007 346.12,600.02C345.66,600.087 345.677,600.2 346.17,600.36C372.81,608.82 399.42,617.38 426,626.04L425.75,628.96C364.383,609.08 333.57,599.073 333.31,598.94C332.197,598.347 331.027,598.083 329.8,598.15C329.453,598.163 329.45,598.237 329.79,598.37L545,680.96C544.413,681.84 543.663,682.533 542.75,683.04L317.25,596.54C316.137,595.92 314.957,595.573 313.71,595.5C310.823,594.493 309.357,593.973 309.31,593.94C308.783,593.56 308.673,593.35 308.98,593.31C309.087,593.297 309.217,593.323 309.37,593.39C310.197,593.75 311.037,594.08 311.89,594.38C312.115,594.459 312.358,594.372 312.45,594.18C312.603,593.853 312.48,593.713 312.08,593.76C311.847,593.793 311.667,593.8 311.54,593.78C309.947,593.573 309.837,593.187 311.21,592.62C311.429,592.53 311.56,592.259 311.53,591.96L311.42,590.74C311.387,590.327 311.317,590.027 311.21,589.84C310.77,589.053 311.2,588.51 312.5,588.21L321.83,590.16C322.457,590.293 322.657,590.06 322.43,589.46L245.21,388.25C242.063,379.81 241.827,379.74 244.5,388.04L290.71,530.5C290.403,531.573 290.56,532.53 291.18,533.37C291.391,533.662 291.467,533.99 291.38,534.24C291.133,534.927 290.59,535.36 289.75,535.54L239.21,380.25L236.93,373.05C236.85,372.803 236.817,372.807 236.83,373.06C236.943,375.393 237.513,377.623 238.54,379.75L251.96,430.25C250.473,429.597 249.723,430.18 249.71,432L230.71,361.5C230.277,359.653 229.773,357.767 229.2,355.84C228.673,354.053 228.56,354.08 228.86,355.92C229.133,357.6 229.61,359.46 230.29,361.5L237.96,398C236.687,398.433 235.937,399.267 235.71,400.5L223.25,342.46C223.023,340.233 222.58,338.05 221.92,335.91C221.633,334.977 221.493,335.09 221.5,336.25C222.067,338.13 222.413,340.047 222.54,342L224.21,352.75C222.443,352.21 221.61,352.793 221.71,354.5C220.05,344.333 218.433,334.157 216.86,323.97C216.82,323.723 216.747,323.55 216.64,323.45C216.44,323.27 216.383,323.62 216.47,324.5C217.537,335.76 218.7,347.01 219.96,358.25C219.847,358.983 219.6,359.657 219.22,360.27C219.089,360.488 218.789,360.632 218.43,360.65C217.757,360.683 217.53,361.133 217.75,362C217.803,362.213 217.79,362.88 217.71,364L212.96,318.5L211.27,306.31C211.203,305.823 211.183,305.823 211.21,306.31L212.21,323.25L214.21,361.25C213.09,361.223 212.56,361.707 212.62,362.7C212.634,362.917 212.443,363.112 212.19,363.14C211.677,363.2 211.447,363.667 211.5,364.54L207.96,300.75C207.08,285.697 206.857,285.363 207.29,299.75L207.21,340L206.52,370.25C206.514,370.548 206.359,370.838 206.1,371.04C205.067,371.86 204.38,372.93 204.04,374.25L204.04,278.25C204.42,275.957 204.633,273.643 204.68,271.31C204.693,270.783 204.677,270.78 204.63,271.3C204.463,273.14 205.09,274.553 206.51,275.54C206.81,275.747 207.027,275.983 207.16,276.25C208.1,278.077 209.07,279.887 210.07,281.68C210.35,282.18 210.727,282.42 211.2,282.4C211.495,282.395 211.757,282.55 211.86,282.79C212.273,283.783 212.973,284.52 213.96,285L216.21,295.82C216.37,296.567 216.72,296.663 217.26,296.11L229.96,283.25C230.287,283.877 230.71,283.953 231.23,283.48C231.87,282.9 231.93,282.967 231.41,283.68C231.354,283.76 231.35,283.871 231.4,283.97C231.72,284.563 231.483,285.137 230.69,285.69C229.33,286.637 227.433,288.67 225,291.79L217.94,298.92C217.335,299.531 217.105,300.437 217.34,301.29L220.3,312.19C220.5,312.937 220.86,313.023 221.38,312.45L232.46,300.25C233.567,300.103 234.343,300.52 234.79,301.5L221.9,315.94C221.672,316.188 221.584,316.513 221.67,316.79L225.39,328.86C225.543,329.34 225.783,329.377 226.11,328.97L249.5,299.96C250.22,299.753 250.79,299.88 251.21,300.34C251.382,300.532 251.347,300.858 251.13,301.08C250.617,301.6 250.337,302.24 250.29,303L227.03,331.79C226.702,332.198 226.618,332.759 226.81,333.26L230.68,343.56C230.987,344.373 231.403,344.42 231.93,343.7L234.46,340.25C236.22,340.197 236.58,341.03 235.54,342.75L232.59,347.15C232.404,347.423 232.366,347.76 232.49,348.04L237.02,358.3C237.18,358.667 237.37,358.693 237.59,358.38L241.21,353.25L242.54,355.5L239.13,360.85C238.726,361.482 238.658,362.235 238.95,362.83L243.68,372.42C243.913,372.9 244.163,372.91 244.43,372.45L345,198.46C345.18,198.347 345.333,198.193 345.46,198ZM326.19,591.02L337.95,592.82C338.41,592.887 338.547,592.71 338.36,592.29C309.733,528.19 281.233,464.077 252.86,399.95C252.547,399.25 252.353,399.11 252.28,399.53C252.253,399.663 252.27,399.803 252.33,399.95C276.79,463.37 301.177,526.873 325.49,590.46C325.607,590.757 325.874,590.971 326.19,591.02ZM271.81,432.94C268.05,425.567 264.333,418.17 260.66,410.75C260.5,410.437 260.447,410.457 260.5,410.81C260.667,411.85 260.97,412.857 261.41,413.83C288.077,473.23 314.697,532.837 341.27,592.65C341.498,593.168 341.957,593.524 342.47,593.58L353.67,594.77C354.023,594.803 354.117,594.657 353.95,594.33C326.497,540.357 299.117,486.56 271.81,432.94ZM275.58,433.25L269.82,423C269.6,422.607 269.58,422.617 269.76,423.03C270.76,425.297 273.32,430.473 277.44,438.56C303.767,490.307 330.25,542.29 356.89,594.51C357.182,595.08 357.766,595.454 358.42,595.49L368.85,596.02C369.437,596.053 369.583,595.817 369.29,595.31C338.383,541.983 307.52,488.52 276.7,434.92C276.647,434.833 276.58,434.67 276.5,434.43C276.433,434.25 276.34,434.097 276.22,433.97C275.833,433.563 275.62,433.323 275.58,433.25Z" style="fill:rgb(97,97,97);fill-opacity:0.99;fill-rule:nonzero;"/>
    </g>
    <g transform="matrix(1,0,0,1,-204,-34.2402)">
        <path d="M332.94,199.94C333.013,201.153 332.033,202.34 330,203.5C329.027,204.053 328.623,204.887 328.79,206L250.29,303C250.337,302.24 250.617,301.6 251.13,301.08C251.347,300.858 251.382,300.532 251.21,300.34C250.79,299.88 250.22,299.753 249.5,299.96L330.25,200.21C330.917,200.323 331.417,200.17 331.75,199.75C332.477,198.83 332.873,198.893 332.94,199.94Z" style="fill:rgb(79,79,79);fill-opacity:0.99;fill-rule:nonzero;"/>
    </g>
    <g transform="matrix(1,0,0,1,-204,-34.2402)">
        <path d="M207.96,300.75L207.29,299.75C206.857,285.363 207.08,285.697 207.96,300.75Z" style="fill:rgb(27,27,27);fill-opacity:0.44;fill-rule:nonzero;"/>
    </g>
    <g transform="matrix(1,0,0,1,-204,-34.2402)">
        <path d="M211.27,306.31L212.96,318.5C212.227,318.487 211.99,318.903 212.25,319.75C212.31,319.95 212.297,321.117 212.21,323.25L211.21,306.31C211.183,305.823 211.203,305.823 211.27,306.31Z" style="fill:rgb(29,29,29);fill-opacity:0.26;fill-rule:nonzero;"/>
    </g>
    <g transform="matrix(1,0,0,1,-204,-34.2402)">
        <path d="M221.92,335.91C222.58,338.05 223.023,340.233 223.25,342.46C223.063,341.467 222.827,341.313 222.54,342C222.413,340.047 222.067,338.13 221.5,336.25C221.493,335.09 221.633,334.977 221.92,335.91Z" style="fill:rgb(33,33,33);fill-opacity:0.78;fill-rule:nonzero;"/>
    </g>
    <g transform="matrix(1,0,0,1,-204,-34.2402)">
        <path d="M207.21,340L207.31,544.19C207.311,544.517 207.471,544.811 207.73,544.96L220.69,552.47C220.99,552.643 221.133,552.55 221.12,552.19L211.5,364.54C211.447,363.667 211.677,363.2 212.19,363.14C212.443,363.112 212.634,362.917 212.62,362.7C212.56,361.707 213.09,361.223 214.21,361.25L224.31,554.14C224.329,554.524 224.559,554.872 224.91,555.05L237.63,561.57C238.21,561.863 238.467,561.69 238.4,561.05L217.71,364C217.79,362.88 217.803,362.213 217.75,362C217.53,361.133 217.757,360.683 218.43,360.65C218.789,360.632 219.089,360.488 219.22,360.27C219.6,359.657 219.847,358.983 219.96,358.25L241.51,562.8C241.552,563.214 241.813,563.573 242.19,563.74L254.72,569.35C255.407,569.657 255.69,569.437 255.57,568.69L221.71,354.5C221.61,352.793 222.443,352.21 224.21,352.75L258.76,570.58C258.81,570.895 259.025,571.159 259.32,571.27L272.45,576.24C272.837,576.387 272.987,576.26 272.9,575.86L235.71,400.5C235.937,399.267 236.687,398.433 237.96,398L275.91,576.51C276.02,577.035 276.409,577.466 276.93,577.64L288.72,581.58C289.5,581.84 289.783,581.573 289.57,580.78L249.71,432C249.723,430.18 250.473,429.597 251.96,430.25L292.64,582.02C292.77,582.51 293.152,582.895 293.64,583.03L305.3,586.2C305.913,586.367 306.123,586.143 305.93,585.53L289.75,535.54C290.59,535.36 291.133,534.927 291.38,534.24C291.467,533.99 291.391,533.662 291.18,533.37C290.56,532.53 290.403,531.573 290.71,530.5C296.85,548.947 302.883,567.427 308.81,585.94C309.483,587.44 310.713,588.197 312.5,588.21C311.2,588.51 310.77,589.053 311.21,589.84C311.317,590.027 311.387,590.327 311.42,590.74L311.53,591.96C311.56,592.259 311.429,592.53 311.21,592.62C309.837,593.187 309.947,593.573 311.54,593.78C311.667,593.8 311.847,593.793 312.08,593.76C312.48,593.713 312.603,593.853 312.45,594.18C312.358,594.372 312.115,594.459 311.89,594.38C311.037,594.08 310.197,593.75 309.37,593.39C309.217,593.323 309.087,593.297 308.98,593.31C308.673,593.35 308.783,593.56 309.31,593.94C309.357,593.973 310.823,594.493 313.71,595.5C314.53,596.153 315.46,596.583 316.5,596.79L335.79,605.5C335.623,606.567 335.11,607.413 334.25,608.04L299,592.5C297.667,591.34 296.15,590.7 294.45,590.58C294.037,590.553 294.023,590.613 294.41,590.76L299,592.5L323.25,605.21L320.25,607.04L286.75,589.96C278.257,585.613 277.84,585.613 285.5,589.96L347.54,626C348.153,627.147 348.223,628.327 347.75,629.54L204.57,546.95C204.218,546.747 204.001,546.373 204,545.97L204.04,374.25C204.38,372.93 205.067,371.86 206.1,371.04C206.359,370.838 206.514,370.548 206.52,370.25L207.21,340Z" style="fill:rgb(109,109,109);fill-opacity:0.99;fill-rule:nonzero;"/>
    </g>
    <g transform="matrix(1,0,0,1,-204,-34.2402)">
        <path d="M745.46,346.25C748.88,354.783 748.657,354.867 744.79,346.5C745.043,346.507 745.267,346.423 745.46,346.25Z" style="fill:rgb(27,27,27);fill-opacity:0.44;fill-rule:nonzero;"/>
    </g>
    <g transform="matrix(1,0,0,1,-204,-34.2402)">
        <path d="M229.2,355.84C229.773,357.767 230.277,359.653 230.71,361.5L230.29,361.5C229.61,359.46 229.133,357.6 228.86,355.92C228.56,354.08 228.673,354.053 229.2,355.84Z" style="fill:rgb(33,33,33);fill-opacity:0.78;fill-rule:nonzero;"/>
    </g>
    <g transform="matrix(1,0,0,1,-204,-34.2402)">
        <path d="M754.79,363.5L755.5,363.46C758.373,372.693 758.137,372.707 754.79,363.5Z" style="fill:rgb(27,27,27);fill-opacity:0.44;fill-rule:nonzero;"/>
    </g>
    <g transform="matrix(1,0,0,1,-204,-34.2402)">
        <path d="M236.93,373.05L239.21,380.25L238.54,379.75C237.513,377.623 236.943,375.393 236.83,373.06C236.817,372.807 236.85,372.803 236.93,373.05Z" style="fill:rgb(33,33,33);fill-opacity:0.78;fill-rule:nonzero;"/>
    </g>
    <g transform="matrix(1,0,0,1,-204,-34.2402)">
        <path d="M245.21,388.25L244.5,388.04C241.827,379.74 242.063,379.81 245.21,388.25Z" style="fill:rgb(33,33,33);fill-opacity:0.78;fill-rule:nonzero;"/>
    </g>
    <g transform="matrix(1,0,0,1,-204,-34.2402)">
        <path d="M782.46,416.75L783.79,428.25C783.43,428.617 783.167,428.533 783,428C782.693,425.153 782.29,422.32 781.79,419.5C782.243,419.9 782.4,419.65 782.26,418.75C782.147,418.057 782.213,417.39 782.46,416.75Z" style="fill:rgb(29,29,29);fill-opacity:0.26;fill-rule:nonzero;"/>
    </g>
    <g transform="matrix(1,0,0,1,-204,-34.2402)">
        <path d="M732.71,434C733.03,434.753 733.557,435.337 734.29,435.75L699.29,489.75L698,487.46L732.71,434Z" style="fill:rgb(46,46,46);fill-rule:nonzero;"/>
    </g>
    <g transform="matrix(1,0,0,1,-204,-34.2402)">
        <path d="M745.71,434.5C746.423,434.873 747.033,435.373 747.54,436C713.273,483.387 678.907,530.7 644.44,577.94C643.82,578.907 643.987,578.907 644.94,577.94C673.78,542.12 702.717,506.377 731.75,470.71C732.77,470.49 733.687,470.683 734.5,471.29C706.253,506.27 677.923,541.183 649.51,576.03C646.11,580.203 642.773,584.43 639.5,588.71C637.867,590.443 636.327,592.253 634.88,594.14C633.96,595.333 634.02,595.473 635.06,594.56C635.187,594.453 636.917,592.53 640.25,588.79L766.54,448.5C767.733,448.847 768.15,449.68 767.79,451L633.29,600.31C633.114,600.503 633.044,600.738 633.11,600.91C633.203,601.123 633.413,601.067 633.74,600.74C666.613,567.76 699.533,534.833 732.5,501.96C733.427,501.733 734.133,501.22 734.62,500.42C734.628,500.407 734.637,500.393 734.645,500.38C734.804,500.143 735.044,500.022 735.176,500.11C735.185,500.116 735.193,500.123 735.2,500.13L735.38,500.3C735.478,500.4 735.614,500.433 735.71,500.38C736.843,499.74 737.037,500.28 736.29,502L623.96,614.25L622.04,616C620.587,616.147 619.423,615.697 618.55,614.65C618.32,614.369 618.037,614.195 617.77,614.17C617.143,614.103 616.55,614.2 615.99,614.46C615.975,614.467 615.958,614.472 615.942,614.475C615.823,614.496 615.706,614.406 615.684,614.276C615.68,614.258 615.679,614.239 615.68,614.22C615.68,614.033 615.62,613.863 615.5,613.71C616.007,613.21 616.32,612.64 616.44,612C616.442,611.989 616.444,611.978 616.445,611.967C616.475,611.727 616.288,611.504 616.033,611.473C616.022,611.472 616.011,611.471 616,611.47L567.75,608.79C568.123,608.723 568.5,608.667 568.88,608.62C569.187,608.58 569.553,608.607 569.98,608.7C571.347,609.007 571.853,608.617 571.5,607.53C571.438,607.348 571.576,607.13 571.81,607.04L572.5,606.79L617.7,609.16C618.011,609.172 618.311,609.048 618.52,608.82C620.98,606.08 623.077,603.077 624.81,599.81C625.623,598.917 625.353,598.55 624,598.71C622.947,598.363 621.863,598.19 620.75,598.19C604.417,598.23 587.937,598.25 571.31,598.25C570.657,598.25 570.65,598.18 571.29,598.04C573.67,597.533 574.01,597.217 572.31,597.09C572.01,597.07 572.01,597.05 572.31,597.03L579.5,596.54C608.993,596.447 623.91,596.433 624.25,596.5C626.35,596.927 627.787,596.197 628.56,594.31C628.673,594.037 657.07,544.92 713.75,446.96C714.363,447.447 715.043,447.71 715.79,447.75L657.7,548.41C657.547,548.675 657.512,548.954 657.61,549.14C657.75,549.407 657.983,549.29 658.31,548.79C671.41,528.263 684.64,507.82 698,487.46L699.29,489.75C676.817,524.583 660.7,549.397 650.94,564.19C650.747,564.477 650.637,564.733 650.61,564.96C650.55,565.433 650.673,565.46 650.98,565.04L745.71,434.5Z" style="fill:rgb(55,55,55);fill-opacity:0.99;fill-rule:nonzero;"/>
    </g>
    <g transform="matrix(1,0,0,1,-204,-34.2402)">
        <path d="M788.04,442L788.46,442C788.4,447.267 788.26,447.267 788.04,442Z" style="fill:rgb(19,19,19);fill-rule:nonzero;"/>
    </g>
    <g transform="matrix(1,0,0,1,-204,-34.2402)">
        <path d="M786.24,463.38C786.847,463.953 787.197,464.64 787.29,465.44C787.329,465.772 787.484,466.061 787.72,466.24C789.473,467.593 790.63,468.95 791.19,470.31C791.977,472.23 793.07,473.503 794.47,474.13C794.605,474.194 794.737,474.341 794.84,474.54C794.927,474.72 795.023,474.573 795.13,474.1C795.17,473.927 795.19,473.93 795.19,474.11C795.31,481.157 795.433,481.217 795.56,474.29C795.567,473.937 795.63,473.893 795.75,474.16C795.783,474.233 795.797,474.347 795.79,474.5L796,545.97C796.001,546.365 795.791,546.731 795.45,546.93L740,578.96C739.547,578.607 739.343,578.19 739.39,577.71C739.403,577.543 739.54,577.267 739.8,576.88C740.22,576.24 739.787,576.017 738.5,576.21L792.29,545.19C792.574,545.029 792.75,544.726 792.75,544.4L792.75,529.49C792.75,528.95 792.523,528.827 792.07,529.12L739.5,563.29C739.553,561.823 738.873,561.06 737.46,561L792.24,525.4C792.585,525.177 792.784,524.79 792.76,524.39L792,509.76C791.987,509.433 791.843,509.367 791.57,509.56L784.54,514.5C785.053,513.787 784.777,513.213 783.71,512.78C783.077,512.527 783.093,512.323 783.76,512.17C784.373,512.03 784.523,511.723 784.21,511.25L791.31,505.76C791.551,505.575 791.677,505.263 791.64,504.94L790.28,491.63C790.187,490.743 789.793,490.583 789.1,491.15L686.79,574C687.27,571.867 686.673,571.103 685,571.71L789.31,487.25C789.546,487.05 789.66,486.742 789.61,486.44L787.34,472.74C787.28,472.407 787.127,472.353 786.88,472.58L681.75,567.04C682.263,564.853 681.597,564.243 679.75,565.21L785.81,469.53C786.09,469.275 786.238,468.957 786.2,468.69L785.46,463.5C785.5,462.96 785.76,462.92 786.24,463.38Z" style="fill:rgb(40,40,40);fill-rule:nonzero;"/>
    </g>
    <g transform="matrix(1,0,0,1,-204,-34.2402)">
        <path d="M784.21,511.25C784.523,511.723 784.373,512.03 783.76,512.17C783.093,512.323 783.077,512.527 783.71,512.78C784.777,513.213 785.053,513.787 784.54,514.5L610,641.46C609.293,640.387 608.293,639.887 607,639.96L784.21,511.25Z" style="fill:rgb(55,55,55);fill-opacity:0.99;fill-rule:nonzero;"/>
    </g>
    <g transform="matrix(1,0,0,1,-204,-34.2402)">
        <path d="M737.46,561C738.873,561.06 739.553,561.823 739.5,563.29L604,651.29L603.46,648L737.46,561Z" style="fill:rgb(61,61,61);fill-opacity:0.99;fill-rule:nonzero;"/>
    </g>
    <g transform="matrix(1,0,0,1,-204,-34.2402)">
        <path d="M681.75,567.04L613.71,628.25C600.683,639.757 600.613,640.187 613.5,629.54L685,571.71C686.673,571.103 687.27,571.867 686.79,574C657.143,598.04 627.483,622.06 597.81,646.06C596.79,647.047 596.853,647.193 598,646.5C600.987,644.307 603.987,642.127 607,639.96C608.293,639.887 609.293,640.387 610,641.46L590.5,655.71C583.347,660.857 583.597,660.883 591.25,655.79L603.46,648L604,651.29L580.75,666.29C577.977,668.07 575.227,669.887 572.5,671.74C571.627,672.333 571.563,672.523 572.31,672.31C575.11,670.617 577.923,668.943 580.75,667.29L601.71,655.25L602.25,658.46L530.29,700L529.68,699.52C529.476,699.365 529.437,699.045 529.59,698.78C530.117,697.853 529.753,697.163 528.5,696.71L529.69,695.5C529.705,695.485 529.718,695.468 529.73,695.45C529.838,695.279 529.756,695.029 529.548,694.897C529.526,694.883 529.503,694.871 529.48,694.86L408.5,641.04C409.52,640.567 410.353,639.873 411,638.96L532.84,693.13C533.136,693.26 533.479,693.226 533.74,693.04L545.03,684.85C545.53,684.49 545.467,684.18 544.84,683.92L542.75,683.04C543.663,682.533 544.413,681.84 545,680.96L548.25,681.93C548.518,682.01 548.854,681.92 549.14,681.69L559.56,673.37C560.113,672.923 560.053,672.59 559.38,672.37L425.75,628.96L426,626.04L561.87,670.2C562.328,670.349 562.832,670.242 563.19,669.92L572.69,661.42C573.15,661.007 573.083,660.72 572.49,660.56L368.21,605.75C367.897,603.917 368.91,603.32 371.25,603.96L574.68,658.38C575.317,658.553 576.002,658.37 576.47,657.9L584.9,649.48C585.273,649.107 585.2,648.863 584.68,648.75L425.75,614.96C425.83,613.827 426.413,613.077 427.5,612.71L586.28,646.42C587.18,646.612 588.128,646.312 588.78,645.63L596.25,637.88C597.09,637.007 596.913,636.473 595.72,636.28L541.25,627.71C542.263,626.63 542.263,625.797 541.25,625.21L598.34,634.13C598.915,634.216 599.496,633.987 599.86,633.53L606.79,624.86C607.21,624.34 607.09,624.047 606.43,623.98L421.25,604.46L421.23,603.55C421.23,603.298 421.49,603.082 421.82,603.06C422.507,603.02 423.15,602.82 423.75,602.46C478.937,608.027 534.103,613.787 589.25,619.74C595.723,620.44 602.2,621.073 608.68,621.64C609.009,621.672 609.323,621.547 609.51,621.31L615.5,613.71C615.62,613.863 615.68,614.033 615.68,614.22C615.679,614.239 615.68,614.258 615.684,614.276C615.706,614.406 615.823,614.496 615.942,614.475C615.958,614.472 615.975,614.467 615.99,614.46C616.55,614.2 617.143,614.103 617.77,614.17C618.037,614.195 618.32,614.369 618.55,614.65C619.423,615.697 620.587,616.147 622.04,616L618.89,619.57C618.61,619.89 618.63,619.913 618.95,619.64L624.5,614.79L679.75,565.21C681.597,564.243 682.263,564.853 681.75,567.04Z" style="fill:rgb(79,79,79);fill-opacity:0.99;fill-rule:nonzero;"/>
    </g>
    <g transform="matrix(1,0,0,1,-204,-34.2402)">
        <path d="M738.5,576.21C739.787,576.017 740.22,576.24 739.8,576.88C739.54,577.267 739.403,577.543 739.39,577.71C739.343,578.19 739.547,578.607 740,578.96L602.25,658.46L601.71,655.25L738.5,576.21Z" style="fill:rgb(61,61,61);fill-opacity:0.99;fill-rule:nonzero;"/>
    </g>
    <g transform="matrix(1,0,0,1,-204,-34.2402)">
        <path d="M286.75,589.96C286.29,589.853 285.873,589.853 285.5,589.96C277.84,585.613 278.257,585.613 286.75,589.96Z" style="fill:rgb(27,27,27);fill-opacity:0.44;fill-rule:nonzero;"/>
    </g>
    <g transform="matrix(1,0,0,1,-204,-34.2402)">
        <path d="M639.5,588.71L640.25,588.79C636.917,592.53 635.187,594.453 635.06,594.56C634.02,595.473 633.96,595.333 634.88,594.14C636.327,592.253 637.867,590.443 639.5,588.71Z" style="fill:rgb(29,29,29);fill-opacity:0.26;fill-rule:nonzero;"/>
    </g>
    <g transform="matrix(1,0,0,1,-204,-34.2402)">
        <path d="M299,592.5L294.41,590.76C294.023,590.613 294.037,590.553 294.45,590.58C296.15,590.7 297.667,591.34 299,592.5Z" style="fill:rgb(54,54,54);fill-opacity:0.93;fill-rule:nonzero;"/>
    </g>
    <g transform="matrix(1,0,0,1,-204,-34.2402)">
        <path d="M317.25,596.54C317.077,596.76 316.827,596.843 316.5,596.79C315.46,596.583 314.53,596.153 313.71,595.5C314.957,595.573 316.137,595.92 317.25,596.54Z" style="fill:rgb(27,27,27);fill-opacity:0.44;fill-rule:nonzero;"/>
    </g>
    <g transform="matrix(1,0,0,1,-204,-34.2402)">
        <path d="M375,596.46L579.5,596.54L572.31,597.03C572.01,597.05 572.01,597.07 572.31,597.09C574.01,597.217 573.67,597.533 571.29,598.04C570.65,598.18 570.657,598.25 571.31,598.25C587.937,598.25 604.417,598.23 620.75,598.19C621.863,598.19 622.947,598.363 624,598.71L438.25,598.79C433.663,598.443 429.073,598.367 424.48,598.56C424.367,598.56 424.267,598.59 424.18,598.65C423.54,599.063 423.583,599.2 424.31,599.06C428.197,599.427 432.093,599.643 436,599.71L572.5,606.79L571.81,607.04C571.576,607.13 571.438,607.348 571.5,607.53C571.853,608.617 571.347,609.007 569.98,608.7C569.553,608.607 569.187,608.58 568.88,608.62C568.5,608.667 568.123,608.723 567.75,608.79L415.5,600.79C407.86,600.85 407.443,600.99 414.25,601.21L423.75,602.46C423.15,602.82 422.507,603.02 421.82,603.06C421.49,603.082 421.23,603.298 421.23,603.55L421.25,604.46C414.13,603.44 406.983,602.853 399.81,602.7C399.483,602.693 399.48,602.713 399.8,602.76L541.25,625.21C542.263,625.797 542.263,626.63 541.25,627.71L385.75,602.96L379.71,602C380.437,600.513 380.707,598.983 380.52,597.41C380.518,597.397 380.517,597.384 380.517,597.372C380.51,597.152 380.69,596.966 380.915,596.96C380.927,596.959 380.938,596.959 380.95,596.96C382.517,597.067 383.93,597.04 385.19,596.88C385.557,596.833 385.553,596.807 385.18,596.8C381.867,596.74 378.557,596.723 375.25,596.75C372.737,596.71 372.653,596.613 375,596.46Z" style="fill:rgb(85,85,85);fill-opacity:0.99;fill-rule:nonzero;"/>
    </g>
    <g transform="matrix(1,0,0,1,-204,-34.2402)">
        <path d="M424.48,598.56C429.073,598.367 433.663,598.443 438.25,598.79C437.39,598.87 436.64,599.177 436,599.71C432.093,599.643 428.197,599.427 424.31,599.06C423.583,599.2 423.54,599.063 424.18,598.65C424.267,598.59 424.367,598.56 424.48,598.56Z" style="fill:rgb(27,27,27);fill-opacity:0.44;fill-rule:nonzero;"/>
    </g>
    <g transform="matrix(1,0,0,1,-204,-34.2402)">
        <path d="M415.5,600.79L414.25,601.21C407.443,600.99 407.86,600.85 415.5,600.79Z" style="fill:rgb(33,33,33);fill-opacity:0.78;fill-rule:nonzero;"/>
    </g>
    <g transform="matrix(1,0,0,1,-204,-34.2402)">
        <path d="M379.71,602L385.75,602.96C385.363,602.933 385.183,603.113 385.21,603.5C383.257,603.453 381.353,603.12 379.5,602.5C377.507,602.153 377.577,601.987 379.71,602Z" style="fill:rgb(29,29,29);fill-opacity:0.26;fill-rule:nonzero;"/>
    </g>
    <g transform="matrix(1,0,0,1,-204,-34.2402)">
        <path d="M371.5,603.46C371.227,603.447 371.06,603.53 371,603.71C363.373,601.977 363.54,601.893 371.5,603.46Z" style="fill:rgb(54,54,54);fill-opacity:0.93;fill-rule:nonzero;"/>
    </g>
    <g transform="matrix(1,0,0,1,-204,-34.2402)">
        <path d="M323.25,605.21L401.29,645C400.69,645.16 400.297,645.5 400.11,646.02C399.963,646.425 399.757,646.717 399.58,646.77L398.75,647.04L320.25,607.04L323.25,605.21Z" style="fill:rgb(101,101,101);fill-rule:nonzero;"/>
    </g>
    <g transform="matrix(1,0,0,1,-204,-34.2402)">
        <path d="M335.79,605.5L411,638.96C410.353,639.873 409.52,640.567 408.5,641.04L334.25,608.04C335.11,607.413 335.623,606.567 335.79,605.5Z" style="fill:rgb(97,97,97);fill-opacity:0.99;fill-rule:nonzero;"/>
    </g>
    <g transform="matrix(1,0,0,1,-204,-34.2402)">
        <path d="M623.96,614.25C623.933,614.637 624.113,614.817 624.5,614.79L618.95,619.64C618.63,619.913 618.61,619.89 618.89,619.57L622.04,616L623.96,614.25Z" style="fill:rgb(29,29,29);fill-opacity:0.26;fill-rule:nonzero;"/>
    </g>
    <g transform="matrix(1,0,0,1,-204,-34.2402)">
        <path d="M347.54,626L499.36,713.51C499.791,713.757 500.323,713.753 500.75,713.5L513.4,706.12C513.807,705.887 513.8,705.663 513.38,705.45L398.75,647.04L399.58,646.77C399.757,646.717 399.963,646.425 400.11,646.02C400.297,645.5 400.69,645.16 401.29,645L516.49,703.66C516.917,703.877 517.44,703.842 517.86,703.57L528.5,696.71C529.753,697.163 530.117,697.853 529.59,698.78C529.437,699.045 529.476,699.365 529.68,699.52L530.29,700L500.43,717.26C500.164,717.409 499.836,717.406 499.57,717.25L347.75,629.54C348.223,628.327 348.153,627.147 347.54,626Z" style="fill:rgb(91,91,91);fill-opacity:0.99;fill-rule:nonzero;"/>
    </g>
    <g transform="matrix(1,0,0,1,-204,-34.2402)">
        <path d="M613.71,628.25C613.437,628.69 613.367,629.12 613.5,629.54C600.613,640.187 600.683,639.757 613.71,628.25Z" style="fill:rgb(29,29,29);fill-opacity:0.26;fill-rule:nonzero;"/>
    </g>
    <g transform="matrix(1,0,0,1,-204,-34.2402)">
        <path d="M590.5,655.71L591.25,655.79C583.597,660.883 583.347,660.857 590.5,655.71Z" style="fill:rgb(29,29,29);fill-opacity:0.26;fill-rule:nonzero;"/>
    </g>
    <g transform="matrix(1,0,0,1,-204,-34.2402)">
        <path d="M580.75,666.29C580.043,666.897 580.043,667.23 580.75,667.29C577.923,668.943 575.11,670.617 572.31,672.31C571.563,672.523 571.627,672.333 572.5,671.74C575.227,669.887 577.977,668.07 580.75,666.29Z" style="fill:rgb(29,29,29);fill-opacity:0.26;fill-rule:nonzero;"/>
    </g>
</svg>
