<?xml version="1.0" encoding="UTF-8" standalone="no"?>
<!DOCTYPE svg PUBLIC "-//W3C//DTD SVG 1.1//EN" "http://www.w3.org/Graphics/SVG/1.1/DTD/svg11.dtd">
<svg width="100%" height="100%" viewBox="0 0 33 40" version="1.1" xmlns="http://www.w3.org/2000/svg" xmlns:xlink="http://www.w3.org/1999/xlink" xml:space="preserve" xmlns:serif="http://www.serif.com/" style="fill-rule:evenodd;clip-rule:evenodd;stroke-linejoin:round;stroke-miterlimit:2;">
    <g id="storybook-icon-default" serif:id="storybook-icon/default">
        <path id="path1_fill-path" d="M1.241,36.859L0.001,3.842C-0.039,2.751 0.797,1.827 1.886,1.759L29.969,0.004C31.077,-0.065 32.032,0.777 32.101,1.886C32.104,1.927 32.105,1.969 32.105,2.011L32.105,37.989C32.105,39.1 31.205,40 30.094,40C30.064,40 30.034,39.999 30.004,39.998L3.16,38.792C2.115,38.745 1.28,37.904 1.241,36.859Z" style="fill:#cc5a00;fill-rule:nonzero;"/>
        <path id="path2_fill-path" d="M23.707,4.917L23.899,0.303L27.756,0L27.922,4.758C27.928,4.923 27.798,5.062 27.633,5.068C27.562,5.071 27.492,5.048 27.437,5.004L25.949,3.832L24.188,5.168C24.056,5.268 23.868,5.242 23.768,5.11C23.726,5.055 23.705,4.986 23.707,4.917Z" style="fill:#ff8d33;fill-rule:nonzero;"/>
        <path id="path9_fill-path" d="M18.775,15.077C18.775,15.859 24.045,15.484 24.753,14.934C24.753,9.606 21.894,6.806 16.659,6.806C11.423,6.806 8.49,9.65 8.49,13.915C8.49,21.343 18.515,21.486 18.515,25.537C18.515,26.675 17.958,27.35 16.733,27.35C15.136,27.35 14.505,26.535 14.579,23.762C14.579,23.161 8.49,22.974 8.305,23.762C7.832,30.481 12.018,32.419 16.807,32.419C21.448,32.419 25.087,29.945 25.087,25.466C25.087,17.505 14.914,17.718 14.914,13.773C14.914,12.173 16.102,11.96 16.807,11.96C17.55,11.96 18.886,12.091 18.775,15.077Z" style="fill:#ff8d33;fill-rule:nonzero;"/>
    </g>
</svg>
