<?xml version="1.0" encoding="UTF-8" standalone="no"?>
<!DOCTYPE svg PUBLIC "-//W3C//DTD SVG 1.1//EN" "http://www.w3.org/Graphics/SVG/1.1/DTD/svg11.dtd">
<svg width="100%" height="100%" viewBox="0 0 115 90" version="1.1" xmlns="http://www.w3.org/2000/svg" xmlns:xlink="http://www.w3.org/1999/xlink" xml:space="preserve" xmlns:serif="http://www.serif.com/" style="fill-rule:evenodd;clip-rule:evenodd;stroke-linejoin:round;stroke-miterlimit:2;">
    <path
      fill="rgb(64,64,64)"
      d="M35.296,56.444C39.378,56.629 42.986,59.157 44.555,62.931C46.082,66.603 45.41,70.811 42.842,73.822L42.623,74.07L42.512,74.196C41.915,74.929 41.952,76.005 42.623,76.695C45.396,79.031 48.526,80.904 51.892,82.243L52.526,82.487L52.674,82.53C53.565,82.748 54.487,82.287 54.848,81.443L54.902,81.299L55.026,80.987C56.051,78.509 57.984,76.51 60.436,75.404C62.991,74.252 65.899,74.164 68.518,75.16C71.416,76.328 73.647,78.722 74.608,81.695C74.671,81.854 74.754,82.004 74.856,82.141C48.911,95.361 39.603,91.202 20.392,68.575C17.576,65.163 15.366,61.295 13.857,57.137C20.88,59.306 28.427,59.062 35.296,56.444ZM112.386,17.131C120.209,26.341 105.702,59.118 87.234,74.268C84.275,70.829 83.847,65.883 86.171,61.987C88.444,58.177 92.85,56.206 97.187,57.027L97.483,57.088L97.646,57.114C98.081,57.164 98.523,57.057 98.888,56.808C99.299,56.528 99.578,56.092 99.662,55.602C100.185,52.265 100.218,48.871 99.76,45.526L99.662,44.858L99.616,44.712C99.294,43.808 98.331,43.282 97.384,43.521C92.919,44.342 88.43,42.214 86.239,38.237C84.099,34.351 84.623,29.553 87.523,26.224L87.729,25.994L87.841,25.868C88.438,25.136 88.4,24.06 87.729,23.37C84.957,21.033 81.827,19.159 78.461,17.821L77.827,17.577L77.678,17.534C76.738,17.305 75.763,17.831 75.45,18.765C74.914,20.298 74.033,21.687 72.875,22.825C70.448,25.201 67.022,26.255 63.68,25.655C60.337,25.056 57.491,22.876 56.041,19.805C55.518,16.464 54.483,13.224 52.971,10.2C60.497,8.764 104.316,7.229 112.386,17.131ZM65.151,40.105C70.675,40.105 75.153,44.583 75.153,50.106C75.153,55.63 70.675,60.108 65.151,60.108C59.628,60.108 55.15,55.63 55.15,50.106C55.15,44.583 59.628,40.105 65.151,40.105ZM25.344,0C27.183,0.052 28.659,1.51 28.755,3.326L28.76,3.515L28.76,8.12C28.747,9.306 29.331,10.413 30.306,11.072L30.493,11.19L32.275,12.23C33.299,12.821 34.546,12.855 35.596,12.334L35.791,12.23L39.702,9.902L39.896,9.791C40.682,9.371 41.602,9.265 42.467,9.499C43.333,9.732 44.074,10.287 44.542,11.046L44.653,11.239L46.584,14.408L46.697,14.6C47.12,15.381 47.234,16.296 47.009,17.161C46.784,18.027 46.239,18.771 45.489,19.246L45.297,19.359L41.435,21.686C40.413,22.288 39.767,23.36 39.707,24.535L39.702,24.756L39.702,26.638C39.679,27.814 40.245,28.918 41.202,29.587L41.386,29.707L45.248,32.034L45.297,31.985C46.13,32.468 46.728,33.27 46.952,34.206C47.16,35.07 47.032,35.977 46.6,36.747L46.485,36.936L44.653,40.105L44.54,40.297C44.065,41.047 43.321,41.592 42.456,41.817C41.591,42.042 40.675,41.928 39.894,41.505L39.702,41.392L35.89,39.016C34.866,38.425 33.619,38.39 32.569,38.911L32.374,39.016L30.592,40.055C29.57,40.657 28.924,41.729 28.863,42.904L28.859,43.125L28.859,47.235L28.854,47.428C28.757,49.216 27.324,50.648 25.536,50.745L25.344,50.75L21.729,50.75C19.852,50.75 18.319,49.279 18.219,47.428L18.214,47.235L18.214,43.224C18.227,42.038 17.642,40.931 16.668,40.273L16.481,40.154L14.698,39.115C13.675,38.524 12.427,38.489 11.378,39.01L11.183,39.115L7.321,41.442L7.129,41.554C6.348,41.978 5.433,42.091 4.568,41.867C3.703,41.642 2.959,41.097 2.483,40.346L2.37,40.154L0.538,36.986L0.426,36.793C0.002,36.013 -0.112,35.097 0.113,34.232C0.338,33.367 0.883,32.623 1.633,32.148L1.825,32.034L5.687,29.707C6.681,29.123 7.321,28.092 7.41,26.952L7.42,26.737L7.42,24.756C7.427,23.596 6.861,22.513 5.918,21.854L5.737,21.736L1.875,19.409L1.683,19.296C0.933,18.82 0.388,18.076 0.163,17.211C-0.062,16.346 0.051,15.431 0.475,14.65L0.587,14.458L2.271,11.19L2.384,10.998C2.86,10.248 3.604,9.703 4.469,9.478C5.334,9.253 6.249,9.366 7.03,9.79L7.222,9.902L11.134,12.576C12.157,13.167 13.404,13.202 14.454,12.68L14.649,12.576L16.431,11.536C17.454,10.935 18.099,9.862 18.16,8.688L18.164,8.467L18.164,3.515C18.164,1.639 19.635,0.105 21.487,0.005L21.68,0L25.344,0ZM18.158,20.28C16.024,22.428 15.396,25.652 16.569,28.444C17.706,31.151 20.319,32.934 23.237,33.022L23.512,33.025L23.462,32.975L23.708,32.971C27.623,32.845 30.781,29.708 30.933,25.794L30.938,25.548L30.933,25.274C30.827,22.356 29.027,19.756 26.312,18.636C23.512,17.482 20.292,18.131 18.158,20.28Z" style="fill-rule:nonzero;"/>
</svg>
