<?xml version="1.0" encoding="UTF-8" standalone="no"?>
<!DOCTYPE svg PUBLIC "-//W3C//DTD SVG 1.1//EN" "http://www.w3.org/Graphics/SVG/1.1/DTD/svg11.dtd">
<svg width="100%" height="100%" viewBox="0 0 100 100" version="1.1" xmlns="http://www.w3.org/2000/svg" xmlns:xlink="http://www.w3.org/1999/xlink" xml:space="preserve" xmlns:serif="http://www.serif.com/" style="fill-rule:evenodd;clip-rule:evenodd;stroke-linejoin:round;stroke-miterlimit:2;">
    <g transform="matrix(1,0,0,1,-248.61,-0.05)">
        <path d="M340.15,39.88C339.037,35.685 337.301,31.68 335,28C336.72,25.59 338.36,23.11 339.89,20.51L328.08,8.75C325.4,10.33 322.86,12.03 320.37,13.8C316.784,11.659 312.903,10.058 308.85,9.05C308.34,6.05 307.74,3.05 306.95,0.05L290.28,0.05C289.5,3.05 288.91,5.97 288.41,8.93C284.248,9.898 280.254,11.482 276.56,13.63C274.17,11.94 271.73,10.3 269.15,8.8L257.37,20.53C258.79,22.96 260.31,25.27 261.9,27.53C259.413,31.368 257.553,35.577 256.39,40C253.79,40.46 251.21,41 248.61,41.68L248.61,58.33C251.03,58.97 253.43,59.47 255.85,59.91C256.842,64.708 258.648,69.301 261.19,73.49C259.831,75.434 258.557,77.436 257.37,79.49L269.15,91.28C271.15,90.12 273.05,88.88 274.91,87.6C279.17,90.343 283.883,92.307 288.83,93.4C289.23,95.62 289.71,97.82 290.28,100.03L307,100.03C307.59,97.76 308.07,95.5 308.49,93.24C313.298,92.067 317.869,90.075 322,87.35C324,88.71 326,90.02 328.07,91.25L339.85,79.46C338.54,77.245 337.142,75.084 335.66,72.98C338.02,68.946 339.709,64.556 340.66,59.98C343.3,59.51 345.94,58.98 348.58,58.28L348.58,41.67C345.79,40.93 343,40.36 340.15,39.88ZM310.93,79.93C303.054,83.38 294.099,83.463 286.16,80.16C286.165,80.14 286.165,80.12 286.16,80.1C278.288,76.782 272.084,70.415 268.97,62.46L268.81,62.04C265.972,54.42 266.194,45.989 269.43,38.53C269.61,38.11 269.8,37.69 270.01,37.27C273.333,30.489 278.97,25.111 285.9,22.11C286.567,21.823 287.267,21.553 288,21.3C291.307,20.16 294.782,19.579 298.28,19.58C301.961,19.573 305.615,20.22 309.07,21.49C309.86,21.78 310.63,22.09 311.39,22.49C318.002,25.533 323.365,30.765 326.57,37.3C326.87,37.907 327.15,38.527 327.41,39.16C330.339,46.28 330.549,54.235 328,61.5C327.88,61.85 327.76,62.2 327.62,62.5C324.593,70.189 318.676,76.398 311.14,79.79L310.93,79.93Z" style="fill:url(#_Linear1);fill-rule:nonzero;"/>
    </g>
    <g transform="matrix(1,0,0,1,-248.61,-0.05)">
        <path d="M321,60.91C320.401,57.973 317.795,55.844 314.797,55.844C313.143,55.844 311.553,56.493 310.37,57.65L305.37,53.93C307.595,50.152 306.606,45.249 303.09,42.63L307.09,35.7C307.509,35.831 307.945,35.897 308.383,35.897C310.764,35.897 312.723,33.938 312.723,31.557C312.723,29.176 310.764,27.217 308.383,27.217C306.002,27.217 304.043,29.176 304.043,31.557C304.043,32.049 304.127,32.536 304.29,33C304.515,33.63 304.885,34.199 305.37,34.66L301.37,41.59C300.13,41.05 298.781,40.804 297.43,40.87C294.378,41.04 291.635,42.816 290.23,45.53L281.65,42.16L281.65,42.07C281.664,41.933 281.671,41.796 281.671,41.659C281.671,39.465 279.866,37.659 277.671,37.659C275.477,37.659 273.671,39.465 273.671,41.659C273.671,43.853 275.477,45.659 277.671,45.659C278.946,45.659 280.147,45.049 280.9,44.02L289.48,47.39C288.656,50.648 289.797,54.104 292.4,56.23L288.4,62.47C287.681,62.176 286.905,62.047 286.13,62.09C283.338,62.266 281.134,64.612 281.134,67.409C281.134,70.333 283.541,72.739 286.464,72.739C289.388,72.739 291.794,70.333 291.794,67.409C291.794,65.946 291.192,64.546 290.13,63.54L294.13,57.32C297.516,58.966 301.604,58.227 304.2,55.5L309.2,59.23C308.72,60.14 308.469,61.154 308.469,62.183C308.469,65.655 311.327,68.513 314.799,68.513C318.272,68.513 321.129,65.655 321.129,62.183C321.129,61.755 321.086,61.329 321,60.91Z" style="fill:url(#_Linear2);fill-rule:nonzero;"/>
    </g>
    <defs>
        <linearGradient id="_Linear1" x1="0" y1="0" x2="1" y2="0" gradientUnits="userSpaceOnUse" gradientTransform="matrix(70.11,70.11,-70.11,70.11,263.36,14.74)"><stop offset="0" style="stop-color:rgb(115,115,115);stop-opacity:1"/><stop offset="1" style="stop-color:rgb(13,13,13);stop-opacity:1"/></linearGradient>
        <linearGradient id="_Linear2" x1="0" y1="0" x2="1" y2="0" gradientUnits="userSpaceOnUse" gradientTransform="matrix(3327.28,3191.57,-3191.57,3327.28,12738.1,730.993)"><stop offset="0" style="stop-color:rgb(115,115,115);stop-opacity:1"/><stop offset="1" style="stop-color:rgb(13,13,13);stop-opacity:1"/></linearGradient>
    </defs>
</svg>
