<?xml version="1.0" encoding="UTF-8" standalone="no"?>
<!DOCTYPE svg PUBLIC "-//W3C//DTD SVG 1.1//EN" "http://www.w3.org/Graphics/SVG/1.1/DTD/svg11.dtd">
<svg width="100%" height="100%" viewBox="0 0 1800 1200" version="1.1" xmlns="http://www.w3.org/2000/svg" xmlns:xlink="http://www.w3.org/1999/xlink" xml:space="preserve" xmlns:serif="http://www.serif.com/" style="fill-rule:evenodd;clip-rule:evenodd;stroke-linejoin:round;stroke-miterlimit:2;">
    <g id="Layer-1" serif:id="Layer 1" transform="matrix(4.16667,0,0,4.16667,0,0)">
        <g transform="matrix(1,0,0,1,100.033,144.239)">
            <path d="M0,-3.199L-8.287,-3.199L-8.287,-12.208L-11.545,-12.208L-11.545,-3.199L-19.833,-3.199L-19.833,0.002L-11.545,0.002L-11.545,9.009L-8.287,9.009L-8.287,0.002L0,0.002L0,-3.199Z" style="fill:rgb(255,193,143);fill-rule:nonzero;"/>
        </g>
        <g transform="matrix(1,0,0,1,83.3716,158.208)">
            <path d="M0,-2.461L-7.426,-2.461L-7.426,-10.526L-10.236,-10.526L-10.236,-2.461L-17.66,-2.461L-17.66,-0.002L-10.236,-0.002L-10.236,8.065L-7.426,8.065L-7.426,-0.002L0,-0.002L0,-2.461Z" style="fill:rgb(255,125,21);fill-rule:nonzero;"/>
        </g>
        <g transform="matrix(1,0,0,1,114.523,129.278)">
            <path d="M0,-2.382L-7.424,-2.382L-7.424,-10.486L-10.237,-10.486L-10.237,-2.382L-17.661,-2.382L-17.661,0.075L-10.237,0.075L-10.237,8.104L-7.424,8.104L-7.424,0.075L0,0.075L0,-2.382Z" style="fill:rgb(255,172,105);fill-rule:nonzero;"/>
        </g>
        <g transform="matrix(1,0,0,1,96.4028,166.87)">
            <path d="M0,-2.173L-5.038,-2.173L-5.038,-7.798L-7.438,-7.798L-7.438,-2.173L-12.475,-2.173L-12.475,-0.001L-7.438,-0.001L-7.438,5.625L-5.038,5.625L-5.038,-0.001L0,-0.001L0,-2.173Z" style="fill:rgb(255,148,61);fill-rule:nonzero;"/>
        </g>
        <g transform="matrix(1,0,0,1,83.3716,129.279)">
            <path d="M0,-2.384L-7.513,-2.384L-7.513,-10.487L-10.147,-10.487L-10.147,-2.384L-17.66,-2.384L-17.66,0.002L-10.147,0.002L-10.147,8.103L-7.513,8.103L-7.513,0.002L0,0.002L0,-2.384Z" style="fill:rgb(255,212,177);fill-rule:nonzero;"/>
        </g>
        <g transform="matrix(1,0,0,1,120.227,143.727)">
            <path d="M0,-2.173L-5.037,-2.173L-5.037,-7.797L-7.438,-7.797L-7.438,-2.173L-12.475,-2.173L-12.475,-0.001L-7.438,-0.001L-7.438,5.624L-5.037,5.624L-5.037,-0.001L0,-0.001L0,-2.173Z" style="fill:rgb(255,148,61);fill-rule:nonzero;"/>
        </g>
        <g transform="matrix(1,0,0,1,114.523,158.208)">
            <path d="M0,-2.461L-7.424,-2.461L-7.424,-10.526L-10.237,-10.526L-10.237,-2.461L-17.661,-2.461L-17.661,-0.002L-10.237,-0.002L-10.237,8.065L-7.424,8.065L-7.424,-0.002L0,-0.002L0,-2.461Z" style="fill:rgb(234,104,0);"/>
        </g>
        <g transform="matrix(1,0,0,1,89.2681,125.749)">
            <path d="M0,-12.708L0,-7.189L-4.983,-7.189L-4.983,-5.519L0,-5.519L0,0L1.792,0L1.792,-5.519L6.777,-5.519L6.777,-7.189L1.792,-7.189L1.792,-12.708L0,-12.708Z" style="fill:rgb(255,192,141);fill-rule:nonzero;"/>
        </g>
        <g transform="matrix(1,0,0,1,71.7114,143.511)">
            <path d="M0,-1.741L-5.002,-1.741L-5.002,-7.152L-6.76,-7.152L-6.76,-1.741L-11.762,-1.741L-11.762,0L-6.76,-0.032L-6.76,5.411L-5.002,5.411L-5.002,-0.042L0,-0.072L0,-1.741Z" style="fill:rgb(255,192,141);fill-rule:nonzero;"/>
        </g>
        <g transform="matrix(1,0,0,1,147.36,168.648)">
            <path d="M0,4.79C0.609,5.156 1.268,5.338 1.977,5.338C3.411,5.338 4.227,4.681 4.227,3.644C4.227,3.014 3.978,2.53 3.476,2.221C3.053,1.961 2.569,1.804 2.06,1.612C1.543,1.42 1.293,1.212 1.293,0.977C1.293,0.687 1.578,0.519 2.127,0.519C2.652,0.519 3.261,0.722 3.987,1.087L3.987,-0.081C3.336,-0.398 2.677,-0.548 2.052,-0.548C0.743,-0.548 -0.099,0.144 -0.099,1.094C-0.099,2.127 0.602,2.604 2.035,3.106C2.535,3.278 2.793,3.389 2.793,3.73C2.793,4.062 2.501,4.238 1.943,4.238C1.301,4.238 0.717,3.964 0,3.521L0,4.79Z" style="fill:rgb(255,172,105);"/>
        </g>
        <g transform="matrix(1,0,0,1,176.805,171.042)">
            <path d="M0,0.001C0,-1.025 0.682,-1.749 1.625,-1.749C2.569,-1.749 3.253,-1.025 3.253,0.001C3.253,1.026 2.569,1.743 1.625,1.743C0.682,1.743 0,1.026 0,0.001M-1.468,0.001C-1.468,0.843 -1.158,1.576 -0.574,2.127C0,2.67 0.727,2.943 1.625,2.943C2.527,2.943 3.261,2.67 3.835,2.127C4.419,1.576 4.729,0.849 4.729,0.001C4.729,-0.85 4.419,-1.572 3.835,-2.134C3.261,-2.677 2.527,-2.942 1.625,-2.942C0.727,-2.942 0,-2.677 -0.574,-2.134C-1.158,-1.572 -1.468,-0.85 -1.468,0.001" style="fill:rgb(255,172,105);"/>
        </g>
        <g transform="matrix(1,0,0,1,206.807,168.192)">
            <path d="M0,5.694L1.427,5.694L1.427,3.351L3.545,3.351L3.545,2.286L1.427,2.286L1.427,1.048L3.687,1.048L3.687,0L0,0L0,5.694Z" style="fill:rgb(255,172,105);"/>
        </g>
        <g transform="matrix(1,0,0,1,237.103,168.192)">
            <path d="M0,5.694L1.501,5.694L1.501,1.059L3.386,1.059L3.386,0L-1.884,0L-1.884,1.059L0,1.059L0,5.694Z" style="fill:rgb(255,172,105);"/>
        </g>
        <g transform="matrix(1,0,0,1,265.778,168.191)">
            <path d="M0,5.745L0.582,5.745L1.875,2.183L3.159,5.745L3.751,5.745L6.063,0L4.568,0L3.469,3.111L2.352,0L1.399,0L0.283,3.093L-0.824,0L-2.31,0L0,5.745Z" style="fill:rgb(255,172,105);"/>
        </g>
        <g transform="matrix(1,0,0,1,295.757,170.275)">
            <path d="M0,1.528L0.884,-0.641L1.684,1.528L0,1.528ZM-2.386,3.611L-0.866,3.611L-0.409,2.503L2.042,2.503L2.452,3.611L3.962,3.611L1.741,-2.083L0.099,-2.083L-2.386,3.611Z" style="fill:rgb(255,172,105);"/>
        </g>
        <g transform="matrix(1,0,0,1,324.945,171.552)">
            <path d="M0,-1.028L-0.684,-1.028L-0.684,-2.351L0,-2.351C0.515,-2.351 0.785,-2.112 0.785,-1.693C0.785,-1.241 0.533,-1.028 0,-1.028M-2.108,2.333L-0.684,2.333L-0.684,0.015C-0.627,0.015 -0.577,0.006 -0.518,0.006C0.042,0.006 0.292,0.183 0.515,0.691L1.242,2.333L2.852,2.333L1.942,0.381C1.774,0.015 1.549,-0.225 1.266,-0.336C1.953,-0.643 2.26,-1.086 2.26,-1.711C2.26,-2.851 1.517,-3.361 -0.01,-3.361L-2.108,-3.361L-2.108,2.333Z" style="fill:rgb(255,172,105);"/>
        </g>
        <g transform="matrix(1,0,0,1,351.433,168.192)">
            <path d="M0,5.694L3.878,5.694L3.878,4.628L1.426,4.628L1.426,3.268L3.704,3.268L3.704,2.21L1.426,2.21L1.426,1.048L3.811,1.048L3.811,0L0,0L0,5.694Z" style="fill:rgb(255,172,105);"/>
        </g>
        <g transform="matrix(1,0,0,1,223.956,131.514)">
            <path d="M0,21.783C3.893,21.783 6.125,19.552 6.125,15.578C6.125,11.67 3.88,9.325 0.379,9.325C-1.145,9.325 -2.589,9.852 -3.647,10.335L-3.647,21.078C-2.36,21.55 -1.158,21.783 0,21.783M-3.647,6.489C-1.684,5.717 0.059,5.489 1.175,5.489C6.741,5.489 10.502,9.401 10.502,15.535C10.502,21.897 6.55,25.615 -0.419,25.615C-2.836,25.615 -5.206,25.148 -7.696,24.304L-7.814,-3.832L-3.647,-3.832L-3.647,6.489Z" style="fill:rgb(234,104,0);"/>
        </g>
        <g transform="matrix(1,0,0,1,0,-3.607)">
            <rect x="251.78" y="127.339" width="4.125" height="36.929" style="fill:rgb(234,104,0);"/>
        </g>
        <g transform="matrix(1,0,0,1,283.352,137.366)">
            <path d="M0,19.839C-6.353,19.223 -9.448,14.757 -9.27,9.462C-9.078,3.744 -5.377,-0.314 0.266,-0.314C6.186,-0.314 9.615,4.066 9.321,10.527L-4.929,10.527C-4.588,14.106 -2.439,15.801 0.498,16.026C2.943,16.216 6.396,15.662 8.266,14.488L8.266,18.424C5.802,19.623 3.236,20.153 0,19.839M-4.672,7.492L4.798,7.492C4.691,4.972 3.337,3.664 0.925,3.509C-1.503,3.353 -3.856,4.914 -4.672,7.492" style="fill:rgb(234,104,0);"/>
        </g>
        <g transform="matrix(1,0,0,1,353.825,140.469)">
            <path d="M0,13.488C2.615,13.488 4.38,12.155 4.38,9.17L4.38,-3.047L8.549,-3.047L8.549,9.684C8.549,13.939 5.246,16.535 -0.002,16.535C-5.246,16.535 -8.549,13.939 -8.549,9.684L-8.549,-3.047L-4.383,-3.047L-4.383,9.17C-4.383,12.155 -2.612,13.488 0,13.488" style="fill:rgb(234,104,0);"/>
        </g>
        <g transform="matrix(1,0,0,1,188.278,140.768)">
            <path d="M0,12.529C0.949,12.515 2.101,12.445 3.568,12.075L3.646,1.416C2.311,0.501 1.024,0.071 -0.378,0.071C-3.88,0.071 -6.124,2.416 -6.124,6.324C-6.124,10.298 -3.892,12.584 0,12.529M0.419,16.361C-6.549,16.383 -10.502,12.643 -10.502,6.281C-10.502,0.147 -6.738,-3.765 -1.176,-3.765C0.703,-3.765 2.255,-3.349 3.646,-2.448L3.646,-3.854L7.813,-3.854L7.695,15.05C5.942,15.812 3.063,16.352 0.419,16.361" style="fill:rgb(234,104,0);"/>
        </g>
        <g transform="matrix(1,0,0,1,319.946,140.768)">
            <path d="M0,12.529C0.821,12.527 2.098,12.445 3.568,12.075L3.645,1.416C2.31,0.501 1.021,0.071 -0.379,0.071C-3.882,0.071 -6.125,2.416 -6.125,6.324C-6.125,10.298 -3.896,12.537 0,12.529M0.417,16.361C-6.552,16.383 -10.503,12.643 -10.503,6.281C-10.503,0.147 -6.742,-3.765 -1.178,-3.765C0.699,-3.765 2.252,-3.349 3.645,-2.448L3.645,-3.854L7.811,-3.854L7.691,15.05C5.941,15.812 3.062,16.352 0.417,16.361" style="fill:rgb(234,104,0);"/>
        </g>
        <g transform="matrix(1,0,0,1,146.768,157.275)">
            <path d="M0,-28.261L4.126,-28.261L4.126,-16.548L15.272,-16.548L15.272,-12.7L4.126,-12.7L4.126,0L0,0L0,-12.7L-11.147,-12.7L-11.147,-16.548L0,-16.548L0,-28.261Z" style="fill:rgb(234,104,0);fill-rule:nonzero;"/>
        </g>
        <g transform="matrix(1,0,0,1,368.761,139.828)">
            <path d="M0,-0.186L0.32,-0.186C0.684,-0.186 0.988,-0.319 0.988,-0.66C0.988,-0.901 0.814,-1.142 0.32,-1.142C0.179,-1.142 0.079,-1.132 0,-1.12L0,-0.186ZM0,1.341L-0.438,1.341L-0.438,-1.417C-0.207,-1.45 0.013,-1.484 0.342,-1.484C0.762,-1.484 1.034,-1.394 1.2,-1.275C1.363,-1.153 1.452,-0.967 1.452,-0.703C1.452,-0.341 1.21,-0.121 0.915,-0.031L0.915,-0.012C1.153,0.034 1.321,0.252 1.373,0.66C1.439,1.088 1.507,1.253 1.548,1.341L1.089,1.341C1.022,1.253 0.956,1.001 0.903,0.638C0.836,0.285 0.659,0.154 0.309,0.154L0,0.154L0,1.341ZM0.464,-2.186C-0.625,-2.186 -1.516,-1.251 -1.516,-0.099C-1.516,1.077 -0.625,2 0.473,2C1.574,2.013 2.451,1.077 2.451,-0.088C2.451,-1.251 1.574,-2.186 0.473,-2.186L0.464,-2.186ZM0.473,-2.57C1.824,-2.57 2.902,-1.473 2.902,-0.099C2.902,1.298 1.824,2.384 0.464,2.384C-0.891,2.384 -1.988,1.298 -1.988,-0.099C-1.988,-1.473 -0.891,-2.57 0.464,-2.57L0.473,-2.57Z" style="fill:rgb(234,104,0);fill-rule:nonzero;"/>
        </g>
    </g>
</svg>
