<?xml version="1.0" encoding="UTF-8" standalone="no"?>
<!DOCTYPE svg PUBLIC "-//W3C//DTD SVG 1.1//EN" "http://www.w3.org/Graphics/SVG/1.1/DTD/svg11.dtd">
<svg width="100%" height="100%" viewBox="0 0 164 164" version="1.1" xmlns="http://www.w3.org/2000/svg" xmlns:xlink="http://www.w3.org/1999/xlink" xml:space="preserve" xmlns:serif="http://www.serif.com/" style="fill-rule:evenodd;clip-rule:evenodd;stroke-linejoin:round;stroke-miterlimit:2;">
    <g id="XMLID_1_">
        <path d="M123.7,75.7C122.7,75.7 121.8,76 121.1,76.7C120.8,77 120.5,77.4 120.2,77.8L118.5,77.1C118.6,76.8 118.8,76.3 119.1,75.7C119.4,75.1 119.8,74.5 120.3,74C120.9,73.4 121.5,72.9 122.2,72.5C123.1,72.1 124.1,71.8 125,71.9C126.2,71.9 127.3,72.2 128.4,72.7C129.3,73.2 130,74 130.5,74.9C131.1,76 131.4,77.3 131.4,78.6C131.5,80.1 131.5,81.7 131.5,83.4L131.6,102.2L127.4,102.2L127.4,83.4C127.4,82.5 127.4,81.6 127.3,80.6C127.3,79.8 127.1,78.9 126.9,78.1C126.7,77.4 126.3,76.8 125.8,76.3C125.2,75.9 124.5,75.6 123.7,75.7Z" style="fill:rgb(109,109,109);fill-rule:nonzero;"/>
        <path d="M119.7,79.1C119.4,80.1 119.2,81.1 119.1,82.2C119,83.3 119,84.3 119,85.1L119,102.2L114.8,102.2L114.8,72.5L118.6,72.5L118.6,77L120.3,77.7C120,78.2 119.8,78.6 119.7,79.1Z" style="fill:rgb(109,109,109);fill-rule:nonzero;"/>
        <rect x="105.7" y="62" width="4.5" height="5.2" style="fill:rgb(109,109,109);"/>
        <rect x="105.8" y="72.5" width="4.2" height="29.7" style="fill:rgb(109,109,109);"/>
        <path d="M102.1,74.1C102.1,75.7 101.9,77.2 101.5,78.7C101.1,80.1 100.5,81.4 99.6,82.5C98.7,83.6 97.5,84.5 96.2,85.1C94.6,85.8 92.8,86.1 91,86L87,86L87,102.3L82.4,102.3L82.4,62L90.2,62C92,62 93.8,62.2 95.6,62.6C97.1,63.1 98.4,64 99.4,65.2C99.7,65.6 100,66 100.3,66.5C100.6,67.1 100.9,67.7 101.2,68.3C101.5,69.1 101.7,69.9 101.8,70.7C102,71.9 102.1,73 102.1,74.1ZM97.5,74.1C97.6,72.5 97.3,70.9 96.7,69.4C96.3,68.4 95.6,67.6 94.8,67C94.1,66.5 93.3,66.2 92.5,66.1C91.8,66 91.2,66 90.5,66L87,66L87,82L90.8,82C91.7,82 92.6,81.9 93.4,81.7C94.2,81.5 94.9,81.1 95.5,80.6C96.2,79.9 96.7,79.1 97,78.2C97.4,76.8 97.6,75.5 97.5,74.1Z" style="fill:rgb(109,109,109);fill-rule:nonzero;"/>
        <path d="M69.6,80.6L78.5,102.3L73.3,102.3L66.9,85.6L60.5,102.3L56,102.3L64.8,81.3L57.1,62L62,62L67.4,76.5L73,62L77.5,62L69.6,80.6Z" style="fill:rgb(109,109,109);fill-rule:nonzero;"/>
        <path d="M52.9,62L52.9,90.1C52.9,90.8 52.9,91.6 52.8,92.6C52.8,93.5 52.6,94.5 52.5,95.4C52.3,96.4 52,97.3 51.6,98.2C51.2,99.1 50.6,100 49.8,100.6C48.9,101.4 48,101.9 46.9,102.3C45.5,102.8 44,103 42.5,103C40.5,103.1 38.5,102.7 36.7,101.8C35.4,101.1 34.4,100.1 33.7,98.8C33.1,97.5 32.7,96.1 32.6,94.7C32.5,93.2 32.4,91.7 32.4,90.2L32.4,62L37,62L37,90.1C37,91.3 37,92.5 37.1,93.6C37.1,94.6 37.3,95.5 37.7,96.5C38.1,97.3 38.6,98 39.4,98.4C40.4,98.9 41.5,99.2 42.6,99.1C44.8,99.1 46.4,98.4 47.3,97.1C48.1,95.8 48.6,93.5 48.6,90.3L48.6,62L52.9,62Z" style="fill:rgb(109,109,109);fill-rule:nonzero;"/>
        <path d="M120.3,74C119.8,74.5 119.5,75.1 119.1,75.7C118.8,76.3 118.6,76.7 118.5,77.1L118.5,72.6L114.7,72.6L114.7,102.3L118.9,102.3L118.9,85.1C118.9,84.2 118.9,83.2 119,82.2C119.1,81.1 119.3,80.1 119.6,79.1C119.8,78.6 119.9,78.2 120.2,77.8C120.4,77.4 120.7,77 121.1,76.7C121.8,76 122.7,75.7 123.7,75.7C124.5,75.6 125.2,75.9 125.8,76.4C126.3,76.9 126.7,77.5 126.9,78.2C127.1,79 127.3,79.8 127.3,80.7C127.4,81.6 127.4,82.5 127.4,83.5L127.4,102.4L131.6,102.4L131.5,83.6C131.5,81.9 131.5,80.3 131.4,78.8C131.4,77.5 131.1,76.3 130.5,75.1C130,74.2 129.3,73.4 128.4,72.9C127.4,72.3 126.2,72 125,72.1C124,72.1 123,72.3 122.2,72.7C121.5,72.9 120.8,73.4 120.3,74ZM164,0L164,164L0,164L0,0L164,0ZM110.2,67.2L110.2,62L105.7,62L105.7,67.2L110.2,67.2ZM110,102.3L110,72.5L105.8,72.5L105.8,102.2L110,102.2L110,102.3ZM101.5,78.7C101.9,77.2 102.1,75.7 102.1,74.1C102.1,73 102,71.9 101.9,70.8C101.8,70 101.6,69.2 101.3,68.4C101.1,67.8 100.8,67.2 100.4,66.6C100.1,66.2 99.8,65.7 99.5,65.3C98.5,64.1 97.2,63.1 95.7,62.7C93.8,62.2 92,62 90.2,62L82.4,62L82.4,102.3L87,102.3L87,85.9L91,85.9C92.8,86 94.5,85.6 96.2,85C97.5,84.4 98.7,83.5 99.6,82.4C100.5,81.3 101.1,80 101.5,78.7ZM78.5,102.3L69.6,80.6L77.5,62L73,62L67.4,76.5L62,62L57.1,62L64.8,81.3L56,102.3L60.5,102.3L66.9,85.6L73.3,102.3L78.5,102.3ZM52.8,92.6L52.8,62L48.4,62L48.4,90.3C48.4,93.5 48,95.7 47.1,97.1C46.2,98.4 44.7,99.1 42.4,99.1C41.3,99.2 40.2,98.9 39.2,98.4C38.5,97.9 37.9,97.2 37.5,96.5C37.1,95.6 36.9,94.6 36.9,93.6C37,92.4 37,91.3 37,90.1L37,62L32.4,62L32.4,90.2C32.4,91.7 32.5,93.2 32.6,94.7C32.7,96.1 33.1,97.5 33.7,98.8C34.4,100.1 35.4,101.1 36.7,101.8C38.5,102.7 40.5,103.1 42.5,103C44,103 45.5,102.8 46.9,102.3C48,101.9 49,101.3 49.8,100.6C50.6,99.9 51.2,99.1 51.6,98.2C52,97.3 52.3,96.4 52.5,95.4C52.7,94.5 52.8,93.5 52.8,92.6Z" style="fill:rgb(19,19,19);fill-rule:nonzero;"/>
        <path d="M96.7,69.4C97.3,70.9 97.6,72.5 97.5,74.1C97.5,75.4 97.4,76.8 97,78.1C96.7,79 96.2,79.9 95.5,80.5C94.9,81.1 94.2,81.5 93.4,81.6C92.5,81.8 91.7,81.9 90.8,81.9L87,81.9L87,66L90.5,66C91.2,66 91.8,66 92.5,66.1C93.3,66.2 94.1,66.5 94.8,67C95.6,67.6 96.3,68.5 96.7,69.4Z" style="fill:rgb(19,19,19);fill-rule:nonzero;"/>
    </g>
</svg>
