<?xml version="1.0" encoding="UTF-8" standalone="no"?>
<!DOCTYPE svg PUBLIC "-//W3C//DTD SVG 1.1//EN" "http://www.w3.org/Graphics/SVG/1.1/DTD/svg11.dtd">
<svg width="100%" height="100%" viewBox="0 0 17 19" version="1.1" xmlns="http://www.w3.org/2000/svg" xmlns:xlink="http://www.w3.org/1999/xlink" xml:space="preserve" xmlns:serif="http://www.serif.com/" style="fill-rule:evenodd;clip-rule:evenodd;stroke-linejoin:round;stroke-miterlimit:2;">
    <g transform="matrix(1,0,0,1,-3.87383,-2.63297)">
        <path d="M20,13.89C19.755,13.595 19.325,13.527 19,13.73L12,18.87L12,19.09C12.028,19.087 12.056,19.085 12.085,19.085C12.48,19.085 12.805,19.41 12.805,19.805C12.805,20.2 12.48,20.525 12.085,20.525C12.056,20.525 12.028,20.523 12,20.52C12.162,20.521 12.321,20.468 12.45,20.37L19.86,14.9C20.158,14.651 20.218,14.211 20,13.89Z" style="fill:rgb(47,47,47);fill-rule:nonzero;"/>
    </g>
    <g transform="matrix(1,0,0,1,-3.87383,-2.63297)">
        <path d="M12,20.52C11.639,20.477 11.365,20.168 11.365,19.805C11.365,19.442 11.639,19.133 12,19.09L12,18.87L5,13.73C4.676,13.522 4.243,13.591 4,13.89C3.782,14.212 3.853,14.652 4.16,14.89L11.57,20.36C11.696,20.457 11.851,20.509 12.01,20.51L12,20.52Z" style="fill:rgb(115,115,115);fill-rule:nonzero;"/>
    </g>
    <g transform="matrix(1,0,0,1,-3.87383,-2.63297)">
        <path d="M12,18.34C11.194,18.34 10.53,19.004 10.53,19.81C10.53,20.616 11.194,21.28 12,21.28C12.806,21.28 13.47,20.616 13.47,19.81C13.47,19.004 12.806,18.34 12,18.34ZM12,20.52C11.605,20.52 11.28,20.195 11.28,19.8C11.28,19.405 11.605,19.08 12,19.08C12.395,19.08 12.72,19.405 12.72,19.8L12.72,19.81C12.72,20.2 12.399,20.52 12.01,20.52C12.007,20.52 12.003,20.52 12,20.52Z" style="fill:rgb(13,13,13);fill-rule:nonzero;"/>
    </g>
    <g transform="matrix(1,0,0,1,-3.87383,-2.63297)">
        <path d="M6,6.11C5.591,6.105 5.255,5.769 5.25,5.36L5.25,3.48C5.247,3.451 5.245,3.422 5.245,3.393C5.245,2.976 5.588,2.633 6.005,2.633C6.422,2.633 6.765,2.976 6.765,3.393C6.765,3.422 6.763,3.451 6.76,3.48L6.76,5.36C6.755,5.773 6.413,6.11 6,6.11Z" style="fill:rgb(115,115,115);fill-rule:nonzero;"/>
    </g>
    <g transform="matrix(1,0,0,1,-3.87383,-2.63297)">
        <circle cx="5.98" cy="12" r="0.76" style="fill:rgb(115,115,115);"/>
    </g>
    <g transform="matrix(1,0,0,1,-3.87383,-2.63297)">
        <circle cx="5.98" cy="9.79" r="0.76" style="fill:rgb(115,115,115);"/>
    </g>
    <g transform="matrix(1,0,0,1,-3.87383,-2.63297)">
        <circle cx="5.98" cy="7.57" r="0.76" style="fill:rgb(115,115,115);"/>
    </g>
    <g transform="matrix(1,0,0,1,-3.87383,-2.63297)">
        <path d="M18,8.31C17.587,8.305 17.25,7.963 17.25,7.55L17.25,5.67C17.25,5.259 17.589,4.92 18,4.92C18.411,4.92 18.75,5.259 18.75,5.67L18.75,7.55C18.75,7.553 18.75,7.557 18.75,7.56C18.75,7.971 18.412,8.31 18,8.31C18,8.31 18,8.31 18,8.31Z" style="fill:rgb(13,13,13);fill-rule:nonzero;"/>
    </g>
    <g transform="matrix(1,0,0,1,-3.87383,-2.63297)">
        <circle cx="18.02" cy="12.01" r="0.76" style="fill:rgb(13,13,13);"/>
    </g>
    <g transform="matrix(1,0,0,1,-3.87383,-2.63297)">
        <circle cx="18.02" cy="9.76" r="0.76" style="fill:rgb(13,13,13);"/>
    </g>
    <g transform="matrix(1,0,0,1,-3.87383,-2.63297)">
        <circle cx="18.02" cy="3.48" r="0.76" style="fill:rgb(13,13,13);"/>
    </g>
    <g transform="matrix(1,0,0,1,-3.87383,-2.63297)">
        <path d="M12,15C11.591,14.995 11.255,14.659 11.25,14.25L11.25,12.34C11.294,11.958 11.621,11.667 12.005,11.667C12.389,11.667 12.716,11.958 12.76,12.34L12.76,14.23C12.76,14.233 12.76,14.237 12.76,14.24C12.76,14.657 12.417,15 12,15C12,15 12,15 12,15Z" style="fill:rgb(47,47,47);fill-rule:nonzero;"/>
    </g>
    <g transform="matrix(1,0,0,1,-3.87383,-2.63297)">
        <circle cx="12" cy="16.45" r="0.76" style="fill:rgb(47,47,47);"/>
    </g>
    <g transform="matrix(1,0,0,1,-3.87383,-2.63297)">
        <circle cx="12" cy="10.14" r="0.76" style="fill:rgb(47,47,47);"/>
    </g>
    <g transform="matrix(1,0,0,1,-3.87383,-2.63297)">
        <circle cx="12" cy="7.92" r="0.76" style="fill:rgb(47,47,47);"/>
    </g>
    <g transform="matrix(1,0,0,1,-3.87383,-2.63297)">
        <path d="M15,10.54C14.591,10.535 14.255,10.199 14.25,9.79L14.25,7.91C14.247,7.881 14.245,7.852 14.245,7.823C14.245,7.406 14.588,7.063 15.005,7.063C15.422,7.063 15.765,7.406 15.765,7.823C15.765,7.852 15.763,7.881 15.76,7.91L15.76,9.79C15.755,10.203 15.413,10.54 15,10.54Z" style="fill:rgb(13,13,13);fill-rule:nonzero;"/>
    </g>
    <g transform="matrix(1,0,0,1,-3.87383,-2.63297)">
        <circle cx="15.01" cy="5.69" r="0.76" style="fill:rgb(13,13,13);"/>
    </g>
    <g transform="matrix(1,0,0,1,-3.87383,-2.63297)">
        <circle cx="15.01" cy="14.19" r="0.76" style="fill:rgb(13,13,13);"/>
    </g>
    <g transform="matrix(1,0,0,1,-3.87383,-2.63297)">
        <circle cx="15.01" cy="11.97" r="0.76" style="fill:rgb(13,13,13);"/>
    </g>
    <g transform="matrix(1,0,0,1,-3.87383,-2.63297)">
        <circle cx="8.99" cy="14.19" r="0.76" style="fill:rgb(115,115,115);"/>
    </g>
    <g transform="matrix(1,0,0,1,-3.87383,-2.63297)">
        <circle cx="8.99" cy="7.92" r="0.76" style="fill:rgb(115,115,115);"/>
    </g>
    <g transform="matrix(1,0,0,1,-3.87383,-2.63297)">
        <circle cx="8.99" cy="5.69" r="0.76" style="fill:rgb(115,115,115);"/>
    </g>
    <g transform="matrix(1,0,0,1,-3.87383,-2.63297)">
        <path d="M9,12.73C8.594,12.73 8.256,12.406 8.24,12L8.24,10.1C8.24,9.689 8.579,9.35 8.99,9.35C9.401,9.35 9.74,9.689 9.74,10.1L9.74,12C9.729,12.4 9.4,12.725 9,12.73Z" style="fill:rgb(115,115,115);fill-rule:nonzero;"/>
    </g>
</svg>
