<svg width="537" height="640" viewBox="0 0 537 640" fill="none" xmlns="http://www.w3.org/2000/svg">
<path d="M436.271 92.8341C436.271 93.4217 436.271 94.0092 436.271 94.5968C436.271 115.309 422.97 124.342 406.618 114.794C390.265 105.246 376.965 80.7155 376.965 60.0036C376.965 59.4161 376.965 58.8285 376.965 58.2409L277.323 0.0715637L29.2007 197.86V448.094L426.904 464.436L536.058 151.003L436.271 92.8341Z" fill="rgb(57,57,57)"/>
<path d="M159.329 254.431C159.329 255.019 159.329 255.606 159.329 256.194C159.329 276.906 146.029 285.94 129.676 276.392C113.324 266.844 100.024 242.312 100.024 221.601C100.024 221.013 100.024 220.426 100.024 219.838L0.381836 161.669V488.504L259.116 639.436V312.6L159.329 254.431Z" fill="rgb(88,88,88)"/>
<path d="M277.671 0.0592236L377.441 57.6969L100.462 219.3L0.693111 161.662L277.671 0.0592236Z" fill="rgb(72,72,72)"/>
<path d="M436.283 93.0006L536.052 150.638L259.074 312.241L159.304 254.604L436.283 93.0006Z" fill="rgb(72,72,72)"/>
<path d="M536.019 477.209L536.031 150.653L259.053 312.256L259.041 638.812L536.019 477.209Z" fill="rgb(57,57,57)"/>
</svg>
