<?xml version="1.0" encoding="UTF-8" standalone="no"?>
<!DOCTYPE svg PUBLIC "-//W3C//DTD SVG 1.1//EN" "http://www.w3.org/Graphics/SVG/1.1/DTD/svg11.dtd">
<svg width="100%" height="100%" viewBox="0 0 32 25" version="1.1" xmlns="http://www.w3.org/2000/svg" xmlns:xlink="http://www.w3.org/1999/xlink" xml:space="preserve" xmlns:serif="http://www.serif.com/" style="fill-rule:evenodd;clip-rule:evenodd;stroke-linejoin:round;stroke-miterlimit:2;">
    <path d="M15.877,24.62L3.599,24.62C1.611,24.62 0,23.009 0,21.021L0,7.049C0,5.062 1.611,3.451 3.599,3.451L21.169,3.451L15.877,24.62Z" style="fill:rgb(19,19,19);fill-rule:nonzero;"/>
    <path d="M15.97,0L28.248,0C30.235,0 31.847,1.611 31.847,3.599L31.847,17.571C31.847,19.558 30.235,21.169 28.248,21.169L10.678,21.169L15.97,0Z" style="fill:rgb(81,81,81);fill-rule:nonzero;"/>
    <path d="M15.97,0L28.248,0C30.235,0 31.847,1.611 31.847,3.599L31.847,17.571C31.847,19.558 30.235,21.169 28.248,21.169L10.678,21.169L15.97,0Z" style="fill:url(#_Linear1);fill-rule:nonzero;"/>
    <defs>
        <linearGradient id="_Linear1" x1="0" y1="0" x2="1" y2="0" gradientUnits="userSpaceOnUse" gradientTransform="matrix(17.3942,-14.1676,14.1676,17.3942,17.9038,17.3271)"><stop offset="0" style="stop-color:rgb(61,61,61);stop-opacity:1"/><stop offset="0.79" style="stop-color:rgb(109,109,109);stop-opacity:1"/><stop offset="1" style="stop-color:rgb(109,109,109);stop-opacity:1"/></linearGradient>
    </defs>
</svg>
