<?xml version="1.0" encoding="UTF-8" standalone="no"?>
<!DOCTYPE svg PUBLIC "-//W3C//DTD SVG 1.1//EN" "http://www.w3.org/Graphics/SVG/1.1/DTD/svg11.dtd">
<svg width="100%" height="100%" viewBox="0 0 1222 781" version="1.1" xmlns="http://www.w3.org/2000/svg" xmlns:xlink="http://www.w3.org/1999/xlink" xml:space="preserve" xmlns:serif="http://www.serif.com/" style="fill-rule:evenodd;clip-rule:evenodd;stroke-linejoin:round;stroke-miterlimit:2;">
    <g id="WASI-logo">
        <g id="SI" transform="matrix(1,0,0,1,610,169)">
            <path id="Path" d="M236,612L0,612L0,0L612,0L612,612L376.34,612L376.34,608.7C376.34,569.95 344.93,538.53 306.17,538.53C267.42,538.53 236,569.94 236,608.7L236,612Z" style="fill:rgb(38,38,38);"/>
            <path d="M213.65,217.28C185.978,217.721 172.09,217.804 171.987,217.53C167.251,204.898 158.932,193.76 143.93,193.76C129.65,193.76 117.33,204.12 117.33,218.96C117.33,261.8 219.81,233.8 219.81,315C219.81,341.6 199.65,381.36 145.89,381.36C104.45,381.36 74.49,361.2 67.77,318.64L113.077,318.515C113.18,318.85 113.286,319.183 113.394,319.514C118.193,334.186 127.732,344.4 145.61,344.4C162.69,344.4 176.97,335.44 176.97,316.68C176.97,273 74.49,298.2 74.49,224C74.49,184.8 107.53,156.8 145.33,156.8C182.29,156.8 210.01,180.6 213.65,217.28ZM281.47,378L237.79,378L237.79,160.16L281.47,160.16L281.47,378Z" style="fill:rgb(90,90,90);"/>
        </g>
        <g id="WA">
            <path id="Path1" serif:id="Path" d="M376,0L376,3.3C376,42.06 344.58,73.47 305.83,73.47C267.07,73.47 235.66,42.05 235.66,3.3L235.66,0L0,0L0,612L612,612L612,0L376,0Z" style="fill:rgb(39,39,39);"/>
            <path id="Shape" d="M142.16,329.81L182.72,329.81L210.41,477.28L210.91,477.28L244.19,329.81L282.13,329.81L312.19,479.09L312.78,479.09L344.34,329.81L384.12,329.81L332.43,546.5L292.18,546.5L262.37,399.03L261.59,399.03L229.68,546.5L188.68,546.5L142.16,329.81ZM429.85,329.81L493.79,329.81L557.29,546.5L515.45,546.5L501.64,498.28L428.8,498.28L418.14,546.5L377.39,546.5L429.85,329.81ZM454.19,383.22L436.5,462.72L491.56,462.72L471.25,383.22L454.19,383.22Z" style="fill:rgb(90,90,90);fill-rule:nonzero;"/>
        </g>
    </g>
</svg>
