<?xml version="1.0" encoding="UTF-8" standalone="no"?>
<!DOCTYPE svg PUBLIC "-//W3C//DTD SVG 1.1//EN" "http://www.w3.org/Graphics/SVG/1.1/DTD/svg11.dtd">
<svg width="100%" height="100%" viewBox="0 0 1075 649" version="1.1" xmlns="http://www.w3.org/2000/svg" xmlns:xlink="http://www.w3.org/1999/xlink" xml:space="preserve" xmlns:serif="http://www.serif.com/" style="fill-rule:evenodd;clip-rule:evenodd;stroke-linejoin:round;stroke-miterlimit:2;">
    <g transform="matrix(2.66667,0,0,2.66667,-159.414,-166.205)">
        <path d="M462.55,224.23L462.55,128.02C462.55,118.64 457.56,109.97 449.45,105.26L379.72,64.73C368.02,57.93 353.35,66.37 353.35,79.9L353.35,182.38L303.82,153.85C277.32,138.59 244.69,138.63 218.23,153.95L168.98,182.47L168.98,79.91C168.98,66.38 154.31,57.94 142.61,64.74L72.88,105.27C64.77,109.98 59.78,118.65 59.78,128.03L59.78,224.31C59.78,237.8 66.67,250.35 78.04,257.6L141.52,298.07C158.03,308.59 179.34,307.75 194.96,295.95L239.09,262.63C251.22,253.47 271.07,253.47 283.2,262.63L327.32,295.93C342.95,307.72 364.25,308.56 380.76,298.04L444.31,257.51C455.67,250.26 462.55,237.71 462.55,224.23Z" style="fill:rgb(64,64,64);fill-rule:nonzero;"/>
    </g>
</svg>
