<svg fill="none" xmlns="http://www.w3.org/2000/svg" viewBox="0 0 100 32" class="w-[80px]"><g clip-path="url(#a)"><path d="M26.68 31.953c2.212-2.208 3.693-4.968 4.115-7.674.423-2.706-.247-5.135-1.863-6.754l-8.343 8.324 6.09 6.104Z" fill="rgb(56,56,56)"></path><path d="M4.865 32C2.653 29.793 1.172 27.032.75 24.327c-.423-2.706.247-5.136 1.862-6.755l8.343 8.324L4.865 32Z" fill="rgb(70,70,70)"></path><path d="M3.46 16.665A11.785 11.785 0 0 1 3.441 0l8.343 8.324a11.785 11.785 0 0 1 .017 16.664L3.46 16.665Z" fill="rgb(38,38,38)"></path><path d="M28.084 16.665A11.785 11.785 0 0 0 28.1 0l-8.343 8.324a11.785 11.785 0 0 0-.017 16.664l8.343-8.323Z" fill="rgb(41,41,41)"></path></g><path d="M57.424 9.576v.71c0 1.521-.411 2.91-1.234 4.164a7.604 7.604 0 0 1-3.239 2.838 7.604 7.604 0 0 1 3.24 2.838 7.435 7.435 0 0 1 1.233 4.165V25h-2.406v-.71c0-.74-.144-1.429-.432-2.066a4.842 4.842 0 0 0-1.141-1.697 4.913 4.913 0 0 0-1.666-1.141 4.963 4.963 0 0 0-2.067-.432c-.74 0-1.43.144-2.067.432a5.25 5.25 0 0 0-1.696 1.141 5.472 5.472 0 0 0-1.142 1.697 5.291 5.291 0 0 0-.4 2.067V25H42v-.71c0-1.521.401-2.91 1.203-4.164a7.807 7.807 0 0 1 3.27-2.838 7.807 7.807 0 0 1-3.27-2.838C42.401 13.195 42 11.807 42 10.285v-.71h2.406v.71c0 .74.134 1.43.401 2.067a6 6 0 0 0 1.142 1.697 6 6 0 0 0 1.696 1.141 5.29 5.29 0 0 0 2.067.401c.74 0 1.43-.133 2.067-.4a5.576 5.576 0 0 0 1.666-1.142 5.248 5.248 0 0 0 1.141-1.697 4.961 4.961 0 0 0 .432-2.067v-.71h2.406ZM73.712 25h-2.406v-7.712c0-.658-.113-1.275-.34-1.851a4.813 4.813 0 0 0-.894-1.542 4.917 4.917 0 0 0-1.419-1.173 5.216 5.216 0 0 0-1.758-.678 5.257 5.257 0 0 0-1.882.03 5.11 5.11 0 0 0-1.697.617c-.514.309-.977.7-1.388 1.173-.39.473-.7 1.018-.925 1.635a5.821 5.821 0 0 0-.309 1.85c0 .618.103 1.214.309 1.79a6.26 6.26 0 0 0 .925 1.604c.411.473.895.864 1.45 1.172a5.36 5.36 0 0 0 2.622.679c.781 0 1.522-.165 2.221-.494a5.331 5.331 0 0 0 1.882-1.45v3.147A7.52 7.52 0 0 1 65.969 25a7.724 7.724 0 0 1-2.807-.524 7.521 7.521 0 0 1-2.468-1.574 7.401 7.401 0 0 1-1.542-2.036 7.655 7.655 0 0 1-.772-2.375 8.479 8.479 0 0 1 0-2.499 7.343 7.343 0 0 1 .864-2.437c.7-1.254 1.645-2.231 2.838-2.93a7.66 7.66 0 0 1 3.887-1.05c1.07 0 2.067.206 2.992.618.946.39 1.77.936 2.468 1.635a7.553 7.553 0 0 1 1.666 2.437c.412.925.617 1.933.617 3.023V25Zm3.817-12.987v5.275c0 .74.133 1.43.4 2.067a5.988 5.988 0 0 0 1.142 1.696 5.995 5.995 0 0 0 1.697 1.142 5.29 5.29 0 0 0 2.067.4V25a7.839 7.839 0 0 1-3.024-.586 8.018 8.018 0 0 1-2.437-1.666 8.005 8.005 0 0 1-1.665-2.437 7.832 7.832 0 0 1-.587-3.023V1h2.407v8.607h5.306v2.406h-5.306ZM99.74 25h-2.405v-7.712c0-.658-.114-1.275-.34-1.851a4.828 4.828 0 0 0-.894-1.542 4.923 4.923 0 0 0-1.42-1.173 5.218 5.218 0 0 0-1.758-.678 5.257 5.257 0 0 0-1.882.03 5.105 5.105 0 0 0-1.696.617c-.515.309-.977.7-1.388 1.173a5.516 5.516 0 0 0-.926 1.635 5.81 5.81 0 0 0-.308 1.85c0 .618.102 1.214.308 1.79.226.576.534 1.11.926 1.604.41.473.894.864 1.45 1.172a5.36 5.36 0 0 0 2.622.679c.78 0 1.521-.165 2.22-.494a5.336 5.336 0 0 0 1.882-1.45v3.147A7.522 7.522 0 0 1 91.998 25a7.723 7.723 0 0 1-2.808-.524 7.52 7.52 0 0 1-2.467-1.574 7.387 7.387 0 0 1-1.543-2.036 7.642 7.642 0 0 1-.77-2.375 8.479 8.479 0 0 1 0-2.499 7.339 7.339 0 0 1 .863-2.437c.699-1.254 1.645-2.231 2.838-2.93a7.658 7.658 0 0 1 3.887-1.05c1.069 0 2.067.206 2.992.618.946.39 1.768.936 2.468 1.635a7.553 7.553 0 0 1 1.666 2.437c.41.925.616 1.933.616 3.023V25Z" fill="rgb(90,90,90)"></path><defs><clipPath id="a"><path fill="rgb(90,90,90)" d="M0 0h32v32H0z"></path></clipPath></defs></svg>
