<?xml version="1.0" encoding="utf-8"?>
<!-- Generator: Adobe Illustrator 18.1.1, SVG Export Plug-In . SVG Version: 6.00 Build 0)  -->
<!DOCTYPE svg PUBLIC "-//W3C//DTD SVG 1.1//EN" "http://www.w3.org/Graphics/SVG/1.1/DTD/svg11.dtd">
<svg height="32" width="32" version="1.1" id="creativecloud-appicon-rgb" xmlns="http://www.w3.org/2000/svg" xmlns:xlink="http://www.w3.org/1999/xlink"
	 x="0px" y="0px" viewBox="0 0 240.0004 234.0004" enable-background="new 0 0 240.0004 234.0004" xml:space="preserve">
<radialGradient id="tile_2_" cx="93.6604" cy="-17.9998" r="383.6399" gradientUnits="userSpaceOnUse">
	<stop  offset="0" style="stop-color:#EC202B"/>
	<stop  offset="0.1463" style="stop-color:#E2202A"/>
	<stop  offset="0.3994" style="stop-color:#C51E26"/>
	<stop  offset="0.7265" style="stop-color:#981C20"/>
	<stop  offset="1" style="stop-color:#6D1A1B"/>
</radialGradient>
<rect id="tile_1_" x="0.0004" y="0.0002" fill-rule="evenodd" clip-rule="evenodd" fill="url(#tile_2_)" width="240" height="234"/>
<linearGradient id="SVGID_1_" gradientUnits="userSpaceOnUse" x1="28.8716" y1="116.9083" x2="214.0652" y2="116.9083">
	<stop  offset="0.14" style="stop-color:#FFFFFF"/>
	<stop  offset="1" style="stop-color:#EAECEA"/>
</linearGradient>
<path fill="url(#SVGID_1_)" d="M145.3991,50.8167c36.3214,0,65.7656,29.7702,65.7656,66.0916s-29.4443,66.0916-65.7656,66.0916
	c-11.0636,0-48.3397,0-58.5103,0c-30.4401,0-55.1167-25.0026-55.1167-55.4427s24.6766-55.309,55.1167-55.309
	c3.1862,0,6.3082,0.207,9.3464,0.7261C108.2817,59.4237,125.8417,50.8167,145.3991,50.8167"/>
<linearGradient id="SVGID_2_" gradientUnits="userSpaceOnUse" x1="28.8716" y1="116.9084" x2="214.0652" y2="116.9084">
	<stop  offset="0.14" style="stop-color:#FFFFFF"/>
	<stop  offset="1" style="stop-color:#EAECEA"/>
</linearGradient>
<path fill="url(#SVGID_2_)" d="M145.3991,47.9163c-9.9806,0-19.606,2.0955-28.6086,6.2283
	c-8.2132,3.7704-15.4894,9.0331-21.65,15.6558c-2.7313-0.3894-5.4997-0.5864-8.2517-0.5864c-7.8307,0-15.4296,1.5377-22.5857,4.5704
	c-6.9081,2.9276-13.1123,7.1175-18.4402,12.4532c-5.3264,5.3342-9.5089,11.5451-12.4312,18.4599
	c-3.0259,7.1599-4.5601,14.761-4.5601,22.5922s1.5342,15.4322,4.5601,22.5922c2.9223,6.9149,7.1048,13.1257,12.4312,18.4599
	c5.3279,5.3357,11.5321,9.7931,18.4402,12.7207c7.156,3.0327,14.755,4.8379,22.5857,4.8379h58.5103
	c9.2682,0,18.2616-2.0867,26.7304-5.6746c8.1762-3.464,15.5192-8.5553,21.8251-14.869
	c6.3045-6.3122,11.2548-13.7288,14.7136-21.9118c3.5812-8.4728,5.397-17.502,5.397-26.7707s-1.8158-18.2812-5.397-26.754
	c-3.4587-8.183-8.4091-15.5411-14.7136-21.8533c-6.3059-6.3136-13.6489-11.2755-21.8251-14.7394
	C163.6607,49.7397,154.6673,47.9163,145.3991,47.9163L145.3991,47.9163z"/>
<linearGradient id="SVGID_3_" gradientUnits="userSpaceOnUse" x1="28.8716" y1="116.9084" x2="214.0652" y2="116.9084">
	<stop  offset="0.14" style="stop-color:#FFFFFF"/>
	<stop  offset="1" style="stop-color:#EAECEA"/>
</linearGradient>
<path fill="url(#SVGID_3_)" d="M145.3991,50.8167c36.3214,0,65.7656,29.7702,65.7656,66.0916s-29.4443,66.0916-65.7656,66.0916
	c-11.0636,0-48.3397,0-58.5103,0c-30.4401,0-55.1167-25.0026-55.1167-55.4427s24.6766-55.309,55.1167-55.309
	c3.1862,0,6.3082,0.207,9.3464,0.7261C108.2817,59.4237,125.8417,50.8167,145.3991,50.8167 M145.3991,47.9163
	c-9.9806,0-19.606,2.0955-28.6086,6.2283c-8.2132,3.7704-15.4894,9.0331-21.65,15.6558c-2.7313-0.3894-5.4997-0.5864-8.2517-0.5864
	c-7.8307,0-15.4296,1.5377-22.5857,4.5704c-6.9081,2.9276-13.1123,7.1175-18.4402,12.4532
	c-5.3264,5.3342-9.5089,11.5451-12.4312,18.4599c-3.0259,7.1599-4.5601,14.761-4.5601,22.5922s1.5342,15.4322,4.5601,22.5922
	c2.9223,6.9149,7.1048,13.1257,12.4312,18.4599c5.3279,5.3357,11.5321,9.7931,18.4402,12.7207
	c7.156,3.0327,14.755,4.8379,22.5857,4.8379h58.5103c9.2682,0,18.2616-2.0867,26.7304-5.6746
	c8.1762-3.464,15.5192-8.5553,21.8251-14.869c6.3045-6.3122,11.2548-13.7288,14.7136-21.9118
	c3.5812-8.4728,5.397-17.502,5.397-26.7707s-1.8158-18.2812-5.397-26.754c-3.4587-8.183-8.4091-15.5411-14.7136-21.8533
	c-6.3059-6.3136-13.6489-11.2755-21.8251-14.7394C163.6607,49.7397,154.6673,47.9163,145.3991,47.9163L145.3991,47.9163z"/>
<linearGradient id="SVGID_4_" gradientUnits="userSpaceOnUse" x1="77.7889" y1="116.5824" x2="201.101" y2="116.5824">
	<stop  offset="0.14" style="stop-color:#FFFFFF"/>
	<stop  offset="1" style="stop-color:#EAECEA"/>
</linearGradient>
<path fill="url(#SVGID_4_)" d="M79.2142,129.1019c-1.9379-1.9918-1.8942-5.1776,0.0976-7.1155
	c1.9918-1.9379,5.1776-1.8942,7.1155,0.0976l26.6791,26.7471c8.2606,8.2718,19.6789,13.3893,32.2927,13.3893
	c25.2052,0,45.6381-20.4329,45.6381-45.6381s-20.4329-45.6381-45.6381-45.6381c-10.7467,0-20.6241,3.7165-28.4218,9.9316
	c-3.015-1.9591-6.2337-3.6311-9.619-4.9776c9.9565-9.3135,23.3315-15.0178,38.0408-15.0178
	c30.7633,0,55.7018,24.9386,55.7018,55.7018s-24.9386,55.7018-55.7018,55.7018c-15.3731,0-29.2915-6.2279-39.3702-16.2981
	L79.2142,129.1019z"/>
<linearGradient id="SVGID_5_" gradientUnits="userSpaceOnUse" x1="41.8212" y1="127.6128" x2="138.7644" y2="127.6128">
	<stop  offset="0.14" style="stop-color:#FFFFFF"/>
	<stop  offset="1" style="stop-color:#EAECEA"/>
</linearGradient>
<path fill="url(#SVGID_5_)" d="M109.8541,100.8836c-6.1455-5.351-14.1767-8.5831-22.9653-8.5831
	c-19.324,0-34.9892,15.6067-34.9892,34.9307s15.6652,34.9892,34.9892,34.9892l11.1521,0.2716
	c3.697,3.8363,7.8559,7.4554,12.387,10.3559H86.8888c-24.8821,0-45.0676-20.4235-45.0676-45.3056s20.1563-45.1646,45.0383-45.1646
	c11.6252,0,22.2148,4.3111,30.1997,11.5332l20.2785,20.7824c1.9387,1.9911,1.8962,5.1592-0.0949,7.0979
	s-5.1768,1.8874-7.1155-0.1037L109.8541,100.8836z"/>
<g>
	<linearGradient id="SVGID_6_" gradientUnits="userSpaceOnUse" x1="28.8716" y1="116.9084" x2="214.0652" y2="116.9084">
		<stop  offset="0.14" style="stop-color:#FFFFFF"/>
		<stop  offset="1" style="stop-color:#EAECEA"/>
	</linearGradient>
	<path fill="url(#SVGID_6_)" d="M145.3991,50.8167c36.3214,0,65.7656,29.7702,65.7656,66.0916s-29.4443,66.0916-65.7656,66.0916
		c-11.0636,0-48.3397,0-58.5103,0c-30.4401,0-55.1167-25.0026-55.1167-55.4427s24.6766-55.309,55.1167-55.309
		c3.1862,0,6.3082,0.207,9.3464,0.7261C108.2817,59.4237,125.8417,50.8167,145.3991,50.8167 M145.3991,47.9163
		c-9.9806,0-19.606,2.0955-28.6086,6.2283c-8.2132,3.7704-15.4894,9.0331-21.65,15.6558c-2.7313-0.3894-5.4997-0.5864-8.2517-0.5864
		c-7.8307,0-15.4296,1.5377-22.5857,4.5704c-6.9081,2.9276-13.1123,7.1175-18.4402,12.4532
		c-5.3264,5.3342-9.5089,11.5451-12.4312,18.4599c-3.0259,7.1599-4.5601,14.761-4.5601,22.5922s1.5342,15.4322,4.5601,22.5922
		c2.9223,6.9149,7.1048,13.1257,12.4312,18.4599c5.3279,5.3357,11.5321,9.7931,18.4402,12.7207
		c7.156,3.0327,14.755,4.8379,22.5857,4.8379h58.5103c9.2682,0,18.2616-2.0867,26.7304-5.6746
		c8.1762-3.464,15.5192-8.5553,21.8251-14.869c6.3045-6.3122,11.2548-13.7288,14.7136-21.9118
		c3.5812-8.4728,5.397-17.502,5.397-26.7707s-1.8158-18.2812-5.397-26.754c-3.4587-8.183-8.4091-15.5411-14.7136-21.8533
		c-6.3059-6.3136-13.6489-11.2755-21.8251-14.7394C163.6607,49.7397,154.6673,47.9163,145.3991,47.9163L145.3991,47.9163z"/>
	<linearGradient id="SVGID_7_" gradientUnits="userSpaceOnUse" x1="77.7889" y1="116.5824" x2="201.101" y2="116.5824">
		<stop  offset="0.14" style="stop-color:#FFFFFF"/>
		<stop  offset="1" style="stop-color:#EAECEA"/>
	</linearGradient>
	<path fill="url(#SVGID_7_)" d="M79.2142,129.1019c-1.9379-1.9918-1.8942-5.1776,0.0976-7.1155
		c1.9918-1.9379,5.1776-1.8942,7.1155,0.0976l26.6791,26.7471c8.2606,8.2718,19.6789,13.3893,32.2927,13.3893
		c25.2052,0,45.6381-20.4329,45.6381-45.6381s-20.4329-45.6381-45.6381-45.6381c-10.7467,0-20.6241,3.7165-28.4218,9.9316
		c-3.015-1.9591-6.2337-3.6311-9.619-4.9776c9.9565-9.3135,23.3315-15.0178,38.0408-15.0178
		c30.7633,0,55.7018,24.9386,55.7018,55.7018s-24.9386,55.7018-55.7018,55.7018c-15.3731,0-29.2915-6.2279-39.3702-16.2981
		L79.2142,129.1019z"/>
	<linearGradient id="SVGID_8_" gradientUnits="userSpaceOnUse" x1="41.8212" y1="127.6128" x2="138.7644" y2="127.6128">
		<stop  offset="0.14" style="stop-color:#FFFFFF"/>
		<stop  offset="1" style="stop-color:#EAECEA"/>
	</linearGradient>
	<path fill="url(#SVGID_8_)" d="M109.8541,100.8836c-6.1455-5.351-14.1767-8.5831-22.9653-8.5831
		c-19.324,0-34.9892,15.6067-34.9892,34.9307s15.6652,34.9892,34.9892,34.9892l11.1521,0.2716
		c3.697,3.8363,7.8559,7.4554,12.387,10.3559H86.8888c-24.8821,0-45.0676-20.4235-45.0676-45.3056s20.1563-45.1646,45.0383-45.1646
		c11.6252,0,22.2148,4.3111,30.1997,11.5332l20.2785,20.7824c1.9387,1.9911,1.8962,5.1592-0.0949,7.0979
		s-5.1768,1.8874-7.1155-0.1037L109.8541,100.8836z"/>
</g>
<g>
	<radialGradient id="tile_3_" cx="93.6604" cy="-17.9998" r="383.6399" gradientUnits="userSpaceOnUse">
		<stop  offset="0" style="stop-color:#EC202B"/>
		<stop  offset="0.1463" style="stop-color:#E2202A"/>
		<stop  offset="0.3994" style="stop-color:#C51E26"/>
		<stop  offset="0.7265" style="stop-color:#981C20"/>
		<stop  offset="1" style="stop-color:#6D1A1B"/>
	</radialGradient>
	<rect id="tile" x="0.0004" y="0.0002" fill-rule="evenodd" clip-rule="evenodd" fill="url(#tile_3_)" width="240" height="234"/>
	<g>
		<linearGradient id="SVGID_9_" gradientUnits="userSpaceOnUse" x1="28.8716" y1="116.9084" x2="214.0652" y2="116.9084">
			<stop  offset="0.14" style="stop-color:#FFFFFF"/>
			<stop  offset="1" style="stop-color:#EAECEA"/>
		</linearGradient>
		<path fill="url(#SVGID_9_)" d="M145.3991,50.8167c36.3214,0,65.7656,29.7702,65.7656,66.0916s-29.4443,66.0916-65.7656,66.0916
			c-11.0636,0-48.3397,0-58.5103,0c-30.4401,0-55.1167-25.0026-55.1167-55.4427s24.6766-55.309,55.1167-55.309
			c3.1862,0,6.3082,0.207,9.3464,0.7261C108.2817,59.4237,125.8417,50.8167,145.3991,50.8167 M145.3991,47.9163
			c-9.9806,0-19.606,2.0955-28.6086,6.2283c-8.2132,3.7704-15.4894,9.0331-21.65,15.6558
			c-2.7313-0.3894-5.4997-0.5864-8.2517-0.5864c-7.8307,0-15.4296,1.5377-22.5857,4.5704
			c-6.9081,2.9276-13.1123,7.1175-18.4402,12.4532c-5.3264,5.3342-9.5089,11.5451-12.4312,18.4599
			c-3.0259,7.1599-4.5601,14.761-4.5601,22.5922s1.5342,15.4322,4.5601,22.5922c2.9223,6.9149,7.1048,13.1257,12.4312,18.4599
			c5.3279,5.3357,11.5321,9.7931,18.4402,12.7207c7.156,3.0327,14.755,4.8379,22.5857,4.8379h58.5103
			c9.2682,0,18.2616-2.0867,26.7304-5.6746c8.1762-3.464,15.5192-8.5553,21.8251-14.869
			c6.3045-6.3122,11.2548-13.7288,14.7136-21.9118c3.5812-8.4728,5.397-17.502,5.397-26.7707s-1.8158-18.2812-5.397-26.754
			c-3.4587-8.183-8.4091-15.5411-14.7136-21.8533c-6.3059-6.3136-13.6489-11.2755-21.8251-14.7394
			C163.6607,49.7397,154.6673,47.9163,145.3991,47.9163L145.3991,47.9163z"/>
		<linearGradient id="SVGID_10_" gradientUnits="userSpaceOnUse" x1="77.7889" y1="116.5824" x2="201.101" y2="116.5824">
			<stop  offset="0.14" style="stop-color:#FFFFFF"/>
			<stop  offset="1" style="stop-color:#EAECEA"/>
		</linearGradient>
		<path fill="url(#SVGID_10_)" d="M79.2142,129.1019c-1.9379-1.9918-1.8942-5.1776,0.0976-7.1155
			c1.9918-1.9379,5.1776-1.8942,7.1155,0.0976l26.6791,26.7471c8.2606,8.2718,19.6789,13.3893,32.2927,13.3893
			c25.2052,0,45.6381-20.4329,45.6381-45.6381s-20.4329-45.6381-45.6381-45.6381c-10.7467,0-20.6241,3.7165-28.4218,9.9316
			c-3.015-1.9591-6.2337-3.6311-9.619-4.9776c9.9565-9.3135,23.3315-15.0178,38.0408-15.0178
			c30.7633,0,55.7018,24.9386,55.7018,55.7018s-24.9386,55.7018-55.7018,55.7018c-15.3731,0-29.2915-6.2279-39.3702-16.2981
			L79.2142,129.1019z"/>
		<linearGradient id="SVGID_11_" gradientUnits="userSpaceOnUse" x1="41.8212" y1="127.6128" x2="138.7644" y2="127.6128">
			<stop  offset="0.14" style="stop-color:#FFFFFF"/>
			<stop  offset="1" style="stop-color:#EAECEA"/>
		</linearGradient>
		<path fill="url(#SVGID_11_)" d="M109.8541,100.8836c-6.1455-5.351-14.1767-8.5831-22.9653-8.5831
			c-19.324,0-34.9892,15.6067-34.9892,34.9307s15.6652,34.9892,34.9892,34.9892l11.1521,0.2716
			c3.697,3.8363,7.8559,7.4554,12.387,10.3559H86.8888c-24.8821,0-45.0676-20.4235-45.0676-45.3056s20.1563-45.1646,45.0383-45.1646
			c11.6252,0,22.2148,4.3111,30.1997,11.5332l20.2785,20.7824c1.9387,1.9911,1.8962,5.1592-0.0949,7.0979
			s-5.1768,1.8874-7.1155-0.1037L109.8541,100.8836z"/>
	</g>
</g>
</svg>
