<?xml version="1.0" encoding="UTF-8" standalone="no"?>
<svg width="256px" height="227px" viewBox="0 0 256 227" version="1.1" xmlns="http://www.w3.org/2000/svg" xmlns:xlink="http://www.w3.org/1999/xlink" preserveAspectRatio="xMidYMid">
	<g>
		<path d="M0.832426495,0.4518607 L255.680619,0.4518607 L255.680619,226.093573 L0.832426495,226.093573 L0.832426495,0.4518607 L0.832426495,0.4518607 Z" fill="#e5e5e5"></path>
		<path d="M255.680619,0.4518607 L0.832426495,0.4518607 L128.263888,186.691044 L255.680619,0.4518607" fill="#d7d7d7"></path>
		<path d="M101.299301,226.093573 L155.225528,226.093573 L128.263888,186.691044 L101.299301,226.093573" fill="#b5b5b5"></path>
		<path d="M128.302186,118.827369 L73.9399525,39.0383522 L73.9399525,107.529522 L104.98178,153.124508 L128.249158,118.895126 L128.302186,118.827369" fill="#191919"></path>
		<path d="M128.302186,118.827369 L151.713917,153.198158 L182.558363,108.101043 L182.558363,39.0383522 L128.302186,118.827369" fill="#acacac"></path>
		<path d="M128.249158,118.895126 L104.98178,153.124508 L128.325754,187.39808 L151.713917,153.198158 L128.302186,118.827369 L128.249158,118.895126" fill="#848484"></path>
		<path d="M35.332839,187.489406 L73.9399525,187.489406 L73.9399525,107.529522 L35.332839,50.8605839 L35.332839,187.489406" fill="#979797"></path>
		<path d="M35.332839,39.0383522 L35.332839,50.8605839 L73.9399525,107.529522 L73.9399525,39.0383522 L35.332839,39.0383522" fill="#686868"></path>
		<path d="M182.558363,108.101043 L182.558363,187.489406 L221.150747,187.489406 L221.150747,51.6825133 L182.558363,108.101043" fill="#555555"></path>
		<path d="M221.150747,39.0383522 L182.558363,39.0383522 L182.558363,108.101043 L221.150747,51.6825133 L221.150747,39.0383522" fill="#434343"></path>
	</g>
</svg>
